<?xml version="1.0" encoding="UTF-8"?>
<svg width="40px" height="40px" viewBox="0 0 40 40" version="1.1" xmlns="http://www.w3.org/2000/svg" xmlns:xlink="http://www.w3.org/1999/xlink">
    <!-- Generator: Sketch 51.2 (57519) - http://www.bohemiancoding.com/sketch -->
    <title>Avatar spaceman</title>
    <desc>Created with Sketch.</desc>
    <defs>
        <polygon id="path-1" points="0 0.111830619 39.8881173 0.111830619 39.8881173 39.9999088 0 39.9999088"></polygon>
    </defs>
    <g id="Symbols" stroke="none" stroke-width="1" fill="none" fill-rule="evenodd">
        <g id="Header-/-Top-Nav-/-iPhone-X-/-320+" transform="translate(-20.000000, -48.000000)">
            <g id="j-icon-avatar" transform="translate(20.000000, 48.000000)">
                <g id="Group-14">
                    <g id="Group-3">
                        <mask id="mask-2" fill="white">
                            <use xlink:href="#path-1"></use>
                        </mask>
                        <g id="Clip-2"></g>
                        <path d="M39.8881173,20.0559349 C39.8881173,31.0703974 30.9586059,39.9999088 19.9441433,39.9999088 C8.92915961,39.9999088 -9.12052117e-05,31.0703974 -9.12052117e-05,20.0559349 C-9.12052117e-05,9.04108143 8.92915961,0.111830619 19.9441433,0.111830619 C30.9586059,0.111830619 39.8881173,9.04108143 39.8881173,20.0559349" id="Fill-1" fill="#038B92" mask="url(#mask-2)"></path>
                    </g>
                    <path d="M19.0228013,18.5037134 C19.0228013,18.5037134 20.1046254,33.5661238 20.6634528,39.9775896 C29.8334853,39.650684 37.425798,33.1347231 39.3898371,24.4793485 L28.2003909,13.2899023 L19.0228013,18.5037134 Z" id="Fill-4" fill="#105559"></path>
                    <path d="M29.4209772,19.8045603 L10.417329,19.8045603 C9.12534202,19.8045603 8.0781759,20.8518567 8.0781759,22.1437134 L8.0781759,34.6708795 C11.3899674,37.1181759 15.4854723,38.5661238 19.9193485,38.5661238 C24.3532248,38.5661238 28.4487296,37.1181759 31.7605212,34.6708795 L31.7605212,22.1441042 C31.7605212,20.8518567 30.7132248,19.8045603 29.4209772,19.8045603" id="Fill-6" fill="#8F8F8F"></path>
                    <path d="M29.4814332,19.8045603 L19.9348534,19.8045603 L19.9348534,38.5652117 C19.9497068,38.5652117 19.9649511,38.5656026 19.9798046,38.5656026 C24.4136808,38.5656026 28.5091857,37.1179153 31.8209772,34.6703583 L31.8209772,22.1441042 C31.8209772,20.8518567 30.7736808,19.8045603 29.4814332,19.8045603" id="Fill-8" fill="#6F6E6E"></path>
                    <path d="M28.9043648,25.739544 L24.9335505,25.0351792 L24.2319218,24.1263844 C24.1007166,23.9562215 23.8522476,23.891987 23.6383062,23.9732899 L19.9691205,23.8436482 L16.3214332,23.9744625 C16.1095765,23.8922476 15.8614984,23.9540065 15.7283388,24.122215 L15.00443,25.0351792 L11.0338762,25.739544 C9.01237785,26.0983713 7.55700326,27.6732248 7.55700326,29.5025407 L7.55700326,35.6783062 C10.9635179,38.390228 15.2763518,40.0118567 19.9687296,40.0118567 C24.6609772,40.0118567 28.974202,38.390228 32.3808469,35.6783062 L32.3808469,29.5025407 C32.3808469,27.6736156 30.9257329,26.0983713 28.9043648,25.739544" id="Fill-10" fill="#F2F2F2"></path>
                    <path d="M28.914658,25.739544 L24.9442345,25.0351792 L24.2426059,24.1263844 C24.1114007,23.9562215 23.8629316,23.891987 23.6489902,23.9732899 L19.9798046,23.8436482 L19.9348534,23.8452117 L19.9348534,40.0110749 C19.9495765,40.0110749 19.9645603,40.0118567 19.9798046,40.0118567 C24.6719218,40.0118567 28.9852769,38.390228 32.3915309,35.6783062 L32.3915309,29.5029316 C32.3915309,27.6736156 30.9364169,26.0983713 28.914658,25.739544" id="Fill-12" fill="#CDCDCC"></path>
                    <path d="M28.0842997,25.5938762 L24.9352443,25.0351792 L24.2334853,24.1263844 C24.1022801,23.9563518 23.8538111,23.891987 23.64,23.9732899 L19.9708143,23.8436482 L16.3229967,23.9744625 C16.1111401,23.8926384 15.8630619,23.9543974 15.7300326,24.122215 L15.0056026,25.0351792 L11.8566775,25.5938762 C13.0314007,26.8413029 14.6969381,27.6208469 16.5451466,27.6208469 L23.3959609,27.6208469 C25.2441694,27.6208469 26.9095765,26.8413029 28.0842997,25.5938762" id="Fill-14" fill="#D4D4D4"></path>
                    <path d="M24.9442345,25.0351792 L24.2424756,24.1263844 C24.1112704,23.9563518 23.8628013,23.8921173 23.6489902,23.9734202 L19.9796743,23.8436482 L19.9348534,23.8452117 L19.9348534,27.6208469 L23.4049511,27.6208469 C25.2535505,27.6208469 26.9185668,26.8413029 28.0932899,25.5938762 L24.9442345,25.0351792 Z" id="Fill-16" fill="#9C9C9B"></path>
                    <path d="M23.4549837,25.8427362 L16.6042997,25.8427362 C13.0467752,25.8427362 10.1628664,22.9589577 10.1628664,19.4013029 L10.1628664,18.0479479 C10.1628664,13.6930293 13.6934202,10.1628664 18.0478176,10.1628664 L22.0109446,10.1628664 C26.3657329,10.1628664 29.8962866,13.6930293 29.8962866,18.0479479 L29.8962866,19.4010423 C29.8962866,22.9589577 27.0125081,25.8427362 23.4549837,25.8427362" id="Fill-18" fill="#F2F2F2"></path>
                    <path d="M21.9611726,10.1628664 L19.9348534,10.1628664 L19.9348534,25.8427362 L23.4049511,25.8427362 C26.9624756,25.8427362 29.8462541,22.9589577 29.8462541,19.4013029 L29.8462541,18.0483388 C29.8462541,13.6930293 26.3160912,10.1628664 21.9611726,10.1628664" id="Fill-20" fill="#E2E2E2"></path>
                    <path d="M13.9011075,15.6351792 C13.0953746,15.6351792 12.3908795,16.1821498 12.1945277,16.9635179 C12.0588925,17.5044951 11.9869707,18.0703583 11.9869707,18.6536808 C11.9869707,21.7798046 14.5211726,24.3143974 17.6476873,24.3143974 L22.1718567,24.3143974 C25.2983713,24.3143974 27.8325733,21.7798046 27.8325733,18.6536808 C27.8325733,18.0703583 27.7606515,17.5044951 27.6247557,16.9635179 C27.4289251,16.1821498 26.7240391,15.6351792 25.9183062,15.6351792 L13.9011075,15.6351792 Z" id="Fill-22" fill="#97D0CA"></path>
                    <path d="M27.6945928,16.9635179 C27.4987622,16.181759 26.7938762,15.6351792 25.9881433,15.6351792 L19.9348534,15.6351792 L19.9348534,24.3143974 L22.2415635,24.3143974 C25.3682085,24.3143974 27.9028013,21.7798046 27.9028013,18.6536808 C27.9028013,18.0704886 27.8304886,17.5039739 27.6945928,16.9635179" id="Fill-24" fill="#44A3AB"></path>
                    <path d="M13.1596091,38.7756352 C15.2956352,39.5566124 17.6027362,39.9830619 20.0091205,39.9830619 C22.4155049,39.9830619 24.722215,39.5566124 26.8587622,38.7756352 L26.8587622,35.3942671 C26.8587622,34.6277524 26.2370033,34.0065147 25.4708795,34.0065147 L14.5476221,34.0065147 C13.7812378,34.0065147 13.1596091,34.6277524 13.1596091,35.3942671 L13.1596091,38.7756352 Z" id="Fill-26" fill="#CBCBCB"></path>
                    <path d="M25.4411726,34.0065147 L19.9348534,34.0065147 L19.9348534,39.9821498 C19.9497068,39.9821498 19.9645603,39.9829316 19.9794137,39.9829316 C22.385798,39.9829316 24.692899,39.5566124 26.8287948,38.7756352 L26.8287948,35.3941368 C26.829316,34.6277524 26.2076873,34.0065147 25.4411726,34.0065147" id="Fill-28" fill="#9C9C9B"></path>
                    <path d="M28.2736156,25.6677524 L28.2736156,38.2730945 C28.8484691,38.0113355 29.4083388,37.7223453 29.9523127,37.4087296 L29.9523127,26.083127 C29.6381759,25.9511401 29.3025407,25.850684 28.949316,25.7878827 L28.2736156,25.6677524 Z" id="Fill-30" fill="#9C9C9B"></path>
                    <path d="M10.0325733,26.083127 L10.0325733,37.4088599 C10.5765472,37.7223453 11.1365472,38.0114658 11.7112704,38.2732248 L11.7112704,25.6677524 L11.0357003,25.7874919 C10.682215,25.8504235 10.3464495,25.9511401 10.0325733,26.083127" id="Fill-32" fill="#CBCBCB"></path>
                </g>
            </g>
        </g>
    </g>
</svg>
