<?xml version="1.0" encoding="utf-8"?>
<!-- Generator: Adobe Illustrator 22.0.1, SVG Export Plug-In . SVG Version: 6.00 Build 0)  -->
<svg version="1.1" id="Layer_1" xmlns="http://www.w3.org/2000/svg" xmlns:xlink="http://www.w3.org/1999/xlink" x="0px" y="0px"
	 viewBox="0 0 258 247.3" style="enable-background:new 0 0 258 247.3;" xml:space="preserve">
<style type="text/css">
	.st0{fill:#4bc4ce;}
	.st1{fill:#FFFFFF;}
</style>
<g>
	<path class="st0" d="M194.1,41.4H65.8c-11.6,0-21,9.5-21,21v128.2c0,11.6,9.5,21,21,21h128.2c11.6,0,21-9.5,21-21V62.4
		C215.1,50.8,205.6,41.4,194.1,41.4z"/>
	<path class="st1" d="M164.8,119.4c-1.1-0.7-1.2-2.1-0.3-3c4.9-4.4,10.1-8.2,10.4-18.5c0.6-16.6-12.5-26.2-30.1-26.2H98.7
		c-4,0-7.3,3.3-7.3,7.3v82.1c0,4,3.3,7.3,7.3,7.3h14.8c1,0,1.9,0.8,1.9,1.9v20.3c0,1.3,1.6,1.9,2.5,1l22.9-22.6
		c0.3-0.3,0.8-0.5,1.3-0.5h5.4c18.1,0,30.6-10.5,30.6-27.4C178.1,127.7,172.3,124,164.8,119.4z"/>
</g>
</svg>
