<?xml version="1.0" encoding="utf-8"?>
<!-- Generator: Adobe Illustrator 21.0.0, SVG Export Plug-In . SVG Version: 6.00 Build 0)  -->
<svg version="1.1" id="Layer_1" xmlns="http://www.w3.org/2000/svg" xmlns:xlink="http://www.w3.org/1999/xlink" x="0px" y="0px"
	 viewBox="0 0 100 100" style="enable-background:new 0 0 100 100;" xml:space="preserve">
<style type="text/css">
	.st0{filter:url(#Adobe_OpacityMaskFilter);}
	.st1{fill:#FFFFFF;}
	.st2{mask:url(#mask-2);fill:#94C34A;}
	.st3{fill:#94C34A;}
	.st4{filter:url(#Adobe_OpacityMaskFilter_1_);}
	.st5{mask:url(#mask-4);fill:#94C34A;}
</style>
<title>Icon / General / Green / icon-green-High5</title>
<desc>Created with Sketch.</desc>
<g id="Group-21" transform="translate(15.909091, 13.636364)">
	<g id="Group-3" transform="translate(0.000000, 39.964924)">
		<g id="Clip-2">
		</g>
		<defs>
			<filter id="Adobe_OpacityMaskFilter" filterUnits="userSpaceOnUse" x="0" y="0.7" width="31.9" height="21.1">
				<feColorMatrix  type="matrix" values="1 0 0 0 0  0 1 0 0 0  0 0 1 0 0  0 0 0 1 0"/>
			</filter>
		</defs>
		<mask maskUnits="userSpaceOnUse" x="0" y="0.7" width="31.9" height="21.1" id="mask-2">
			<g class="st0">
				<polygon id="path-1" class="st1" points="0,0.7 31.9,0.7 31.9,21.8 0,21.8 				"/>
			</g>
		</mask>
		<path id="Fill-1" class="st2" d="M29.4,16.6c-2.1,1.7-4.5,2.5-7.2,2.2c-1.3-0.1-3.8-1.5-6.6-3.5C8.8,10.2,4.5,7,3.9,6.5
			C2.6,5.3,3,4.6,3.5,4c0.5-0.6,2.1,0.4,2.1,0.4c0,0,0.1,0.1,0.1,0.1l7.8,4.8c0.7,0.4,1.6,0.2,2.1-0.5c0.4-0.7,0.2-1.6-0.5-2.1
			L7.4,1.9C5.6,0.6,2.9,0.1,1.2,2c-1.8,2.2-1.6,4.7,0.7,6.7c0.7,0.6,4.7,3.7,11.9,9c1.9,1.4,5.5,3.8,8.1,4.1c0.4,0,0.8,0.1,1.3,0.1
			c2.3,0,5.3-0.6,8.1-2.9c0.6-0.5,0.7-1.5,0.2-2.1C31,16.1,30,16,29.4,16.6"/>
	</g>
	<path id="Fill-4" class="st3" d="M37.5,64.5c-0.8-0.2-1.6,0.3-1.8,1.1c-0.1,0.3-0.9,2.6-1.7,4.5c-0.3,0.8,0.1,1.7,0.9,2
		c0.2,0.1,0.4,0.1,0.5,0.1c0.6,0,1.2-0.4,1.4-1c1.7-4.6,1.8-4.8,1.8-4.9C38.9,65.5,38.3,64.7,37.5,64.5"/>
	<path id="Fill-6" class="st3" d="M46.4,65c-0.3-0.8-1.2-1.1-2-0.8c-0.8,0.3-1.1,1.2-0.8,2l2.3,5.5c0.2,0.6,0.8,0.9,1.4,0.9
		c0.2,0,0.4,0,0.6-0.1c0.8-0.3,1.1-1.2,0.8-2L46.4,65z"/>
	<path id="Fill-8" class="st3" d="M56.7,62.8l-4.2-2.7c-0.7-0.5-1.6-0.3-2.1,0.5c-0.5,0.7-0.3,1.6,0.5,2.1l4.2,2.7
		c0.3,0.2,0.5,0.2,0.8,0.2c0.5,0,1-0.2,1.3-0.7C57.6,64.2,57.4,63.2,56.7,62.8"/>
	<path id="Fill-10" class="st3" d="M36.7,10c0.2,0.1,0.4,0.1,0.6,0.1c0.5,0,1.1-0.3,1.3-0.8c0.2-0.3,1.5-2.3,2.7-4
		c0.5-0.7,0.3-1.6-0.4-2.1s-1.6-0.3-2.1,0.4C36.1,7.7,36,7.9,35.9,8C35.6,8.8,35.9,9.7,36.7,10"/>
	<path id="Fill-12" class="st3" d="M28.2,7.6c0.1,0.7,0.8,1.3,1.5,1.3c0.1,0,0.2,0,0.3,0c0.8-0.1,1.4-0.9,1.2-1.7l-1-5.9
		C30,0.4,29.2-0.1,28.4,0c-0.8,0.1-1.4,0.9-1.2,1.7L28.2,7.6z"/>
	<path id="Fill-14" class="st3" d="M21.1,11c0.3,0.3,0.7,0.5,1.1,0.5c0.4,0,0.8-0.1,1.1-0.4c0.6-0.6,0.6-1.5,0-2.1l-3.5-3.6
		c-0.6-0.6-1.5-0.6-2.1,0c-0.6,0.6-0.6,1.5,0,2.1L21.1,11z"/>
	<g id="Group-18" transform="translate(4.545455, 15.722500)">
		<g id="Clip-17">
		</g>
		<defs>
			<filter id="Adobe_OpacityMaskFilter_1_" filterUnits="userSpaceOnUse" x="0.1" y="0.4" width="63.3" height="41.2">
				<feColorMatrix  type="matrix" values="1 0 0 0 0  0 1 0 0 0  0 0 1 0 0  0 0 0 1 0"/>
			</filter>
		</defs>
		<mask maskUnits="userSpaceOnUse" x="0.1" y="0.4" width="63.3" height="41.2" id="mask-4">
			<g class="st4">
				<polygon id="path-3" class="st1" points="0.1,0.4 63.4,0.4 63.4,41.6 0.1,41.6 				"/>
			</g>
		</mask>
		<path id="Fill-16" class="st5" d="M55.2,20.4c-2.1,0.9-6.6,2.7-8.2,3.4c-1.4-0.6-4.5-1.6-7.6,0.6c-0.7,0.5-0.8,1.4-0.4,2.1
			c0.5,0.7,1.4,0.8,2.1,0.4c2.3-1.7,4.9-0.2,5-0.1c0.4,0.3,0.9,0.3,1.4,0.1c0,0,6.2-2.6,8.8-3.7c2.7-1.1,3.6-1.1,3.9-1.1
			c0.4,1.3-3.2,4.4-5.4,6.3c-0.5,0.4-0.9,0.8-1.3,1.1c-0.9,0.8-1.8,1.7-2.7,2.5c-2.7,2.7-5.3,5.3-10.1,6.3c-4.2,0.9-7.1-0.6-8.3-1.5
			c0.5-1.2,0.8-2.5,1-4.4c0.8-6.8-5.3-19.2-5.5-19.7l-1.5-3.1c-0.2-0.5-1.1-2.6-3-3.3c-1-0.4-2-0.3-3,0.2C20.2,6.7,20,6.8,19.7,7
			l-1-2.1c-0.7-1.6-2.8-3.6-5.9-2.5c-0.5,0.2-0.9,0.4-1.3,0.7l-0.1-0.1c-0.1-0.4-0.7-1.6-2-2.2c-0.7-0.3-1.9-0.6-3.4,0
			C4.9,1.2,4.1,2,3.6,3C3.1,4.3,3.2,5.9,4,7.7l0.5,1.2c-0.6,0-1.2,0.2-1.7,0.4c-3.8,1.8-2.5,5.2-1.7,7.2c0,0,0,0.1,0,0.1l3.1,6.7
			c0.3,0.6,0.8,0.9,1.4,0.9c0.2,0,0.4,0,0.6-0.1c0.8-0.3,1.1-1.2,0.8-2l-3-6.7c-1-2.5-0.9-2.8,0.2-3.3c0.5-0.2,0.8-0.2,1-0.1
			c0.6,0.3,1.1,1.1,1.4,1.7l3.6,9c0.2,0.6,0.8,1,1.4,1c0.2,0,0.4,0,0.6-0.1c0.8-0.3,1.2-1.2,0.8-2l-3.5-8.6c0-0.1-0.1-0.2-0.2-0.5
			L6.8,6.5c-0.4-1-0.6-1.8-0.4-2.3c0-0.1,0.2-0.4,0.7-0.6C7.5,3.5,8.4,3.1,8.7,4c0,0,0,0.1,0.1,0.1l1.6,3.5c0.1,0.4,0.2,0.8,0.4,1.1
			l4.7,12.1c0.2,0.6,0.8,1,1.4,1c0.2,0,0.4,0,0.5-0.1c0.8-0.3,1.2-1.2,0.9-2L13.6,7.6c0-0.1,0-0.1-0.1-0.2c-0.2-0.5-0.4-1.2-0.2-1.7
			c0.1-0.2,0.2-0.4,0.6-0.5c1.2-0.4,1.8,0.3,2.1,0.9l2.4,5.2c0.2,0.7,0.4,1.3,0.6,1.7l3.2,7.6c0.3,0.8,1.2,1.1,2,0.8
			c0.8-0.3,1.1-1.2,0.8-2l-3.2-7.6c-0.2-0.6-0.4-1-0.5-1.3c0,0,0,0,0-0.1c-0.2-0.9,0.2-1.1,0.6-1.3c0.3-0.1,0.4-0.1,0.5-0.1
			c0.5,0.2,1.1,1.1,1.3,1.6c0,0,0,0.1,0,0.1l1.5,3.2c1.6,3.3,5.8,13.1,5.2,18c-0.2,2.1-0.6,3.4-1.2,4.4c0,0,0,0,0,0.1
			c0,0,0,0.1-0.1,0.2c0,0,0,0.1,0,0.1c0,0,0,0.1,0,0.1c0,0,0,0.1,0,0.1c0,0,0,0.1,0,0.1c0,0.1,0,0.1,0,0.1c0,0,0,0.1,0,0.1
			c0,0,0,0.1,0,0.1c0,0,0,0.1,0,0.1c0,0,0,0.1,0.1,0.1c0,0,0,0.1,0.1,0.1c0,0,0.1,0.1,0.1,0.1c0,0,0,0,0,0.1
			c0.1,0.2,3.2,3.4,8.8,3.4c1,0,2-0.1,3.2-0.3C47,40.1,50.2,37,53,34.2c0.8-0.8,1.7-1.6,2.5-2.4c0.4-0.4,0.9-0.7,1.3-1.1
			c3.9-3.3,8-6.7,6.1-10.1C61.4,17.9,57.4,19.5,55.2,20.4"/>
	</g>
	<path id="Fill-19" class="st3" d="M33.7,26.6c0.2,0.1,0.4,0.1,0.6,0.1c0.6,0,1.2-0.4,1.4-1l1.2-3.1c0,0,0-0.1,0-0.1
		c0.1-0.2,0.4-1.1,1.1-1.4c0.2-0.1,0.5-0.2,1.2,0c0.4,0.1,0.5,0.3,0.6,0.5c0.3,0.6,0,1.6-0.1,2l-3.1,8.3c-0.3,0.8,0.1,1.7,0.9,2
		c0.2,0.1,0.4,0.1,0.5,0.1c0.6,0,1.2-0.4,1.4-1l3.1-8.3c0,0,0,0,0-0.1l2.4-6.4c0.1-0.3,0.8-1.9,2.1-1.5c0.3,0.1,0.8,0.3,0.9,0.6
		c0.1,0.3,0.1,0.7-0.1,1.2l-4.6,13.4c-0.3,0.8,0.1,1.7,0.9,1.9c0.2,0.1,0.3,0.1,0.5,0.1c0.6,0,1.2-0.4,1.4-1l4.6-13.4l0,0
		c0,0,0,0,0,0l0.5-1.4c0.5-1.6,1.3-2.7,2-3c0.2-0.1,0.6-0.2,1.2,0.1c0.8,0.4,0.2,2.6-0.3,3.8l-1.5,3.6c-0.3,0.4-0.5,0.9-0.6,1.3
		c-0.5,1.4-3.7,10.1-3.7,10.1c-0.3,0.8,0.1,1.7,0.9,1.9c0.2,0.1,0.4,0.1,0.5,0.1c0.6,0,1.2-0.4,1.4-1c0.1-0.4,3.3-8.8,3.8-10.3
		c0.1-0.2,0.2-0.4,0.3-0.6c0.1-0.1,0.1-0.2,0.2-0.3c0.3-0.4,0.6-0.8,1-1c0.2-0.1,0.5-0.2,1.1,0.1c1.1,0.5,0.4,3,0.1,3.6l-2.7,7
		c-0.3,0.8,0.1,1.7,0.9,2c0.8,0.3,1.7-0.1,2-0.9l2.7-7c0.8-2.1,1.4-5.9-1.6-7.4c-0.6-0.3-1.2-0.4-1.8-0.5c0.9-2.3,1.5-6-1.4-7.4
		c-1.6-0.8-2.9-0.5-3.7-0.2c-1.1,0.5-1.9,1.3-2.5,2.3c-0.4-0.3-0.9-0.6-1.5-0.8c-3.1-1.1-5.3,1.4-6,3.3l-0.7,1.8
		c-0.4-0.3-0.8-0.5-1.3-0.7c-1.3-0.4-2.5-0.4-3.5,0.2c-1.7,0.9-2.4,2.7-2.6,3.2l-1.2,3.1C32.6,25.4,33,26.3,33.7,26.6"/>
</g>
</svg>
