<?xml version="1.0" encoding="UTF-8"?>
<svg width="46px" height="46px" viewBox="0 0 46 46" version="1.1" xmlns="http://www.w3.org/2000/svg" xmlns:xlink="http://www.w3.org/1999/xlink">
    <!-- Generator: Sketch 51.2 (57519) - http://www.bohemiancoding.com/sketch -->
    <title>Icon / Tabbar / icon-tabbar-bar-3-dashboard-active</title>
    <desc>Created with Sketch.</desc>
    <defs>
        <polygon id="path-1" points="0.743788403 0.457 10.6663068 0.457 10.6663068 12.0556 0.743788403 12.0556"></polygon>
        <polygon id="path-3" points="0.780488403 0.1974 10.703 0.1974 10.703 11.7954 0.780488403 11.7954"></polygon>
    </defs>
    <g id="Icon-/-Tabbar-/-icon-tabbar-bar-3-dashboard-active" stroke="none" stroke-width="1" fill="none" fill-rule="evenodd">
        <path d="M46,23 C46,35.702 35.702,46 23,46 C10.298,46 0,35.702 0,23 C0,10.297 10.298,0 23,0 C35.702,0 46,10.297 46,23" id="Fill-4-Copy" fill="#FEFEFE"></path>
        <path d="M23,3.84572514 C12.4386965,3.84572514 3.84670365,12.4389323 3.84670365,23.0004998 C3.84670365,33.5620673 12.4386965,42.1542749 23,42.1542749 C33.5613035,42.1542749 42.154296,33.5620673 42.154296,23.0004998 C42.154296,12.4389323 33.5613035,3.84572514 23,3.84572514 M23,43 C11.9718598,43 3,34.0279159 3,23.0004998 C3,11.9720841 11.9718598,3 23,3 C34.0281402,3 43,11.9720841 43,23.0004998 C43,34.0279159 34.0281402,43 23,43" id="Fill-1" fill="#47BCC6"></path>
        <g id="Group-11" transform="translate(8.000000, 9.000000)">
            <g id="Group-3" transform="translate(9.000000, 0.543500)">
                <mask id="mask-2" fill="white">
                    <use xlink:href="#path-1"></use>
                </mask>
                <g id="Clip-2"></g>
                <path d="M5.6166,6.4626 C7.1296,6.4376 8.3396,7.1136 9.3036,8.5406 C9.6766,9.0936 9.7006,10.2406 9.6826,11.0766 L1.7416,11.0766 C1.6396,9.9696 1.9656,8.6646 2.5076,8.0226 C3.3736,6.9946 4.3906,6.4846 5.6166,6.4626 Z M5.5696,1.3856 L5.5706,1.4356 C6.0736,1.4356 6.5506,1.6356 6.9126,1.9996 C7.2816,2.3686 7.4836,2.8566 7.4826,3.3736 C7.4816,4.3826 6.6086,5.2376 5.5756,5.2386 C5.0616,5.2386 4.5816,5.0406 4.2266,4.6816 C3.8696,4.3206 3.6726,3.8326 3.6736,3.3076 C3.6736,2.2936 4.5416,1.4366 5.5696,1.4356 L5.5696,1.3856 Z M7.1916,5.7046 C7.9766,5.1686 8.4606,4.2846 8.4626,3.3746 C8.4636,2.5966 8.1596,1.8626 7.6056,1.3076 C7.0576,0.7586 6.3356,0.4566 5.5696,0.4566 C4.0106,0.4576 2.6946,1.7626 2.6936,3.3076 C2.6936,4.0916 2.9906,4.8246 3.5306,5.3696 C3.6706,5.5116 3.8346,5.6386 4.0386,5.7646 C3.1806,6.0666 2.4146,6.6136 1.7586,7.3906 C0.9496,8.3496 0.5456,10.2266 0.8396,11.6646 C0.8856,11.8906 1.0876,12.0556 1.3186,12.0556 L10.1576,12.0556 C10.4216,12.0556 10.6366,11.8476 10.6466,11.5826 C10.6816,10.5866 10.7406,8.9196 10.1146,7.9926 C9.3246,6.8226 8.3406,6.0526 7.1916,5.7046 Z" id="Fill-1" fill="#47BCC6" mask="url(#mask-2)"></path>
            </g>
            <path d="M4.873,13.7459 C4.902,13.7459 4.931,13.7459 4.96,13.7459 C6.437,13.7459 7.615,14.4259 8.56,15.8239 C8.933,16.3769 8.957,17.5239 8.939,18.3599 L0.998,18.3599 C0.896,17.2529 1.222,15.9479 1.763,15.3059 C2.631,14.2779 3.648,13.7679 4.873,13.7459 Z M4.826,8.6689 L4.827,8.7189 C5.33,8.7189 5.806,8.9189 6.169,9.2829 C6.538,9.6519 6.74,10.1399 6.739,10.6569 C6.738,11.6669 5.865,12.5209 4.832,12.5219 C4.317,12.5219 3.838,12.3239 3.483,11.9649 C3.126,11.6039 2.929,11.1159 2.93,10.5909 C2.93,9.5769 3.798,8.7199 4.826,8.7189 L4.826,8.6689 Z M9.903,18.8659 C9.938,17.8699 9.997,16.2029 9.371,15.2759 C8.581,14.1059 7.598,13.3369 6.448,12.9889 C7.244,12.4459 7.717,11.5829 7.719,10.6589 C7.72,9.8799 7.416,9.1459 6.862,8.5909 C6.314,8.0419 5.591,7.7409 4.826,7.7409 C3.268,7.7409 1.951,9.0459 1.95,10.5909 C1.95,11.3749 2.247,12.1079 2.787,12.6539 C2.927,12.7959 3.091,12.9229 3.295,13.0479 C2.437,13.3499 1.671,13.8969 1.015,14.6739 C0.206,15.6339 -0.198,17.5109 0.096,18.9479 C0.142,19.1739 0.344,19.3389 0.575,19.3389 L9.414,19.3389 C9.678,19.3389 9.894,19.1309 9.903,18.8659 Z" id="Fill-4" fill="#47BCC6"></path>
            <g id="Group-8" transform="translate(19.000000, 7.543500)">
                <mask id="mask-4" fill="white">
                    <use xlink:href="#path-3"></use>
                </mask>
                <g id="Clip-7"></g>
                <path d="M5.6533,6.2024 C5.6823,6.2024 5.7113,6.2024 5.7403,6.2024 C7.2173,6.2024 8.3953,6.8824 9.3403,8.2804 C9.7133,8.8334 9.7373,9.9804 9.7193,10.8164 L1.7783,10.8164 C1.6763,9.7094 2.0023,8.4044 2.5443,7.7624 C3.4113,6.7344 4.4283,6.2244 5.6533,6.2024 Z M5.6063,1.1254 L5.6073,1.1754 C6.1103,1.1754 6.5863,1.3754 6.9493,1.7394 C7.3183,2.1084 7.5203,2.5964 7.5193,3.1134 C7.5183,4.1234 6.6453,4.9774 5.6123,4.9784 C5.0973,4.9784 4.6183,4.7804 4.2633,4.4214 C3.9063,4.0604 3.7093,3.5724 3.7103,3.0474 C3.7103,2.0334 4.5783,1.1764 5.6063,1.1754 L5.6063,1.1254 Z M10.1513,7.7324 C9.3613,6.5624 8.3783,5.7934 7.2283,5.4454 C8.0243,4.9024 8.4973,4.0394 8.4993,3.1154 C8.5003,2.3364 8.1963,1.6024 7.6423,1.0474 C7.0943,0.4984 6.3713,0.1974 5.6063,0.1974 C4.0483,0.1974 2.7313,1.5024 2.7303,3.0474 C2.7303,3.8314 3.0273,4.5644 3.5673,5.1104 C3.7073,5.2524 3.8713,5.3794 4.0753,5.5044 C3.2173,5.8064 2.4513,6.3534 1.7953,7.1304 C0.9863,8.0904 0.5823,9.9674 0.8763,11.4044 C0.9223,11.6304 1.1243,11.7954 1.3553,11.7954 L10.1943,11.7954 C10.4583,11.7954 10.6743,11.5874 10.6833,11.3224 C10.7183,10.3264 10.7773,8.6594 10.1513,7.7324 Z" id="Fill-6" fill="#47BCC6" mask="url(#mask-4)"></path>
            </g>
            <path d="M14.6166,21.9514 C16.1336,21.9234 17.3406,22.6034 18.3036,24.0294 C18.6766,24.5814 18.7006,25.7284 18.6826,26.5654 L10.7416,26.5654 C10.6396,25.4584 10.9656,24.1524 11.5066,23.5104 C12.3746,22.4834 13.3916,21.9734 14.6166,21.9514 Z M14.5696,16.8744 L14.5706,16.9244 C15.0736,16.9244 15.5496,17.1244 15.9126,17.4884 C16.2816,17.8574 16.4836,18.3454 16.4826,18.8614 C16.4816,19.8714 15.6086,20.7264 14.5756,20.7274 C14.0616,20.7274 13.5816,20.5294 13.2266,20.1704 C12.8696,19.8084 12.6726,19.3214 12.6736,18.7964 C12.6736,17.7824 13.5416,16.9254 14.5696,16.9244 L14.5696,16.8744 Z M16.1916,21.1934 C16.9766,20.6564 17.4606,19.7734 17.4626,18.8634 C17.4636,18.0854 17.1596,17.3504 16.6056,16.7964 C16.0576,16.2474 15.3356,15.9454 14.5696,15.9454 C13.0106,15.9464 11.6946,17.2514 11.6936,18.7964 C11.6936,19.5804 11.9906,20.3134 12.5306,20.8584 C12.6706,21.0004 12.8346,21.1274 13.0386,21.2534 C12.1806,21.5554 11.4146,22.1024 10.7586,22.8794 C9.9496,23.8384 9.5456,25.7154 9.8396,27.1524 C9.8856,27.3794 10.0876,27.5434 10.3186,27.5434 L19.1576,27.5434 C19.4216,27.5434 19.6376,27.3354 19.6466,27.0704 C19.6816,26.0744 19.7406,24.4074 19.1146,23.4814 C18.3246,22.3114 17.3416,21.5424 16.1916,21.1934 Z" id="Fill-9" fill="#47BCC6"></path>
        </g>
    </g>
</svg>