<?xml version="1.0" encoding="UTF-8"?>
<svg width="46px" height="46px" viewBox="0 0 46 46" version="1.1" xmlns="http://www.w3.org/2000/svg" xmlns:xlink="http://www.w3.org/1999/xlink">
    <!-- Generator: Sketch 51.2 (57519) - http://www.bohemiancoding.com/sketch -->
    <title>Icon / Tabbar / icon-tabbar-bar-5-information-default</title>
    <desc>Created with Sketch.</desc>
    <defs></defs>
    <g id="Icon-/-Tabbar-/-icon-tabbar-bar-5-information-default" stroke="none" stroke-width="1" fill="none" fill-rule="evenodd">
        <path d="M23,3.84572514 C12.4386965,3.84572514 3.84670365,12.4389323 3.84670365,23.0004998 C3.84670365,33.5620673 12.4386965,42.1542749 23,42.1542749 C33.5613035,42.1542749 42.154296,33.5620673 42.154296,23.0004998 C42.154296,12.4389323 33.5613035,3.84572514 23,3.84572514 M23,43 C11.9718598,43 3,34.0279159 3,23.0004998 C3,11.9720841 11.9718598,3 23,3 C34.0281402,3 43,11.9720841 43,23.0004998 C43,34.0279159 34.0281402,43 23,43" id="Fill-1" fill="#FEFEFE"></path>
        <g id="Group-16" transform="translate(12.000000, 12.500000)" fill="#FEFEFE">
            <path d="M9.6689,3.3666 L0.9729,3.3666 C0.7389,3.3666 0.5499,3.1776 0.5499,2.9436 C0.5499,2.7096 0.7389,2.5196 0.9729,2.5196 L9.6689,2.5196 C9.9019,2.5196 10.0919,2.7096 10.0919,2.9436 C10.0919,3.1776 9.9019,3.3666 9.6689,3.3666" id="Fill-54"></path>
            <path d="M9.6689,0.975 L0.9729,0.975 C0.7389,0.975 0.5499,0.786 0.5499,0.552 C0.5499,0.318 0.7389,0.128 0.9729,0.128 L9.6689,0.128 C9.9019,0.128 10.0919,0.318 10.0919,0.552 C10.0919,0.786 9.9019,0.975 9.6689,0.975" id="Fill-55"></path>
            <path d="M9.6689,5.7582 L0.9729,5.7582 C0.7389,5.7582 0.5499,5.5692 0.5499,5.3352 C0.5499,5.1012 0.7389,4.9112 0.9729,4.9112 L9.6689,4.9112 C9.9019,4.9112 10.0919,5.1012 10.0919,5.3352 C10.0919,5.5692 9.9019,5.7582 9.6689,5.7582" id="Fill-56"></path>
            <path d="M9.6689,8.1498 L0.9729,8.1498 C0.7389,8.1498 0.5499,7.9608 0.5499,7.7268 C0.5499,7.4938 0.7389,7.3038 0.9729,7.3038 L9.6689,7.3038 C9.9019,7.3038 10.0919,7.4938 10.0919,7.7268 C10.0919,7.9608 9.9019,8.1498 9.6689,8.1498" id="Fill-57"></path>
            <path d="M9.6689,10.5414 L0.9729,10.5414 C0.7389,10.5414 0.5499,10.3524 0.5499,10.1184 C0.5499,9.8854 0.7389,9.6954 0.9729,9.6954 L9.6689,9.6954 C9.9019,9.6954 10.0919,9.8854 10.0919,10.1184 C10.0919,10.3524 9.9019,10.5414 9.6689,10.5414" id="Fill-58"></path>
            <path d="M22.5547,13.0375 L12.9887,13.0375 C12.7547,13.0375 12.5657,12.8485 12.5657,12.6145 C12.5657,12.3815 12.7547,12.1915 12.9887,12.1915 L22.5547,12.1915 C22.7887,12.1915 22.9787,12.3815 22.9787,12.6145 C22.9787,12.8485 22.7887,13.0375 22.5547,13.0375" id="Fill-59"></path>
            <path d="M22.415,15.5346 L12.988,15.5346 C12.755,15.5346 12.565,15.3456 12.565,15.1116 C12.565,14.8786 12.755,14.6886 12.988,14.6886 L22.415,14.6886 C22.648,14.6886 22.838,14.8786 22.838,15.1116 C22.838,15.3456 22.648,15.5346 22.415,15.5346" id="Fill-60"></path>
            <path d="M22.415,18.0316 L12.988,18.0316 C12.755,18.0316 12.565,17.8426 12.565,17.6076 C12.565,17.3746 12.755,17.1846 12.988,17.1846 L22.415,17.1846 C22.648,17.1846 22.838,17.3746 22.838,17.6076 C22.838,17.8426 22.648,18.0316 22.415,18.0316" id="Fill-61"></path>
            <path d="M22.415,20.5277 L12.988,20.5277 C12.755,20.5277 12.565,20.3387 12.565,20.1047 C12.565,19.8717 12.755,19.6817 12.988,19.6817 L22.415,19.6817 C22.648,19.6817 22.838,19.8717 22.838,20.1047 C22.838,20.3387 22.648,20.5277 22.415,20.5277" id="Fill-62"></path>
            <path d="M13.411,9.696 L22.132,9.696 L22.132,0.975 L13.411,0.975 L13.411,9.696 Z M22.555,10.541 L12.988,10.541 C12.755,10.541 12.565,10.352 12.565,10.119 L12.565,0.552 C12.565,0.318 12.755,0.128 12.988,0.128 L22.555,0.128 C22.789,0.128 22.979,0.318 22.979,0.552 L22.979,10.119 C22.979,10.352 22.789,10.541 22.555,10.541 Z" id="Fill-63"></path>
            <path d="M1.396,19.682 L9.246,19.682 L9.246,13.037 L1.396,13.037 L1.396,19.682 Z M9.669,20.528 L0.973,20.528 C0.739,20.528 0.55,20.338 0.55,20.105 L0.55,12.615 C0.55,12.381 0.739,12.192 0.973,12.192 L9.669,12.192 C9.902,12.192 10.092,12.381 10.092,12.615 L10.092,20.105 C10.092,20.338 9.902,20.528 9.669,20.528 Z" id="Fill-64"></path>
        </g>
    </g>
</svg>