<?xml version="1.0" encoding="UTF-8"?>
<svg width="100px" height="100px" viewBox="0 0 100 100" version="1.1" xmlns="http://www.w3.org/2000/svg" xmlns:xlink="http://www.w3.org/1999/xlink">
    <!-- Generator: Sketch 51.2 (57519) - http://www.bohemiancoding.com/sketch -->
    <desc>Created with Sketch.</desc>
    <defs></defs>
    <g id="Symbols" stroke="none" stroke-width="1" fill="none" fill-rule="evenodd">
        <g id="Modals-/-Quit-methods-LRG" transform="translate(-115.000000, -28.000000)" fill="#94C34A">
            <g id="Stacked-Group" transform="translate(28.000000, 28.000000)">
                <g id="Icon-/-General-/-Green-/-icon-green-NoSmoking" transform="translate(87.000000, 0.000000)">
                    <g id="Group-2">
                        <path d="M49.9996186,2.11496953 C23.595677,2.11496953 2.11496953,23.5964397 2.11496953,50.0003814 C2.11496953,76.4035603 23.595677,97.8850305 49.9996186,97.8850305 C76.4035603,97.8850305 97.8850305,76.4035603 97.8850305,50.0003814 C97.8850305,23.5964397 76.4035603,2.11496953 49.9996186,2.11496953 M49.9996186,100 C22.4295074,100 0,77.5704926 0,50.0003814 C0,22.4302701 22.4295074,0 49.9996186,0 C77.5697299,0 100,22.4302701 100,50.0003814 C100,77.5704926 77.5697299,100 49.9996186,100" id="Fill-3"></path>
                        <g id="Group" transform="translate(12.878788, 12.878788)">
                            <path d="M62.0776515,35.6831818 C61.9041667,35.6831818 61.7306818,35.6369697 61.5746212,35.5430303 C61.2238636,35.3301515 61.0443182,34.9187879 61.1276515,34.5165152 C61.7314394,31.6074242 61.6541667,29.7369697 60.8973485,28.9589394 C60.2064394,28.2483333 58.6875,28.1331818 56.117803,28.5937879 C55.4920455,28.7066667 54.8064394,28.9256061 54.0791667,29.1581818 C51.7784091,29.8930303 48.9162879,30.8066667 46.5996212,28.4233333 C45.0602273,26.8384848 44.9337121,25.3733333 45.0988636,24.4233333 C45.1412879,24.1793939 45.207197,23.9415152 45.2950758,23.7112121 C41.9587121,24.1559091 39.0723485,23.209697 37.092803,20.9460606 C34.6034091,18.0998485 34.1041667,13.6392424 35.9064394,10.34 C37.6738636,7.10363636 41.1988636,5.61954545 45.5791667,6.27333333 C46.1087121,6.35212121 46.4746212,6.84606061 46.3958333,7.37560606 C46.3170455,7.90515152 45.8238636,8.27560606 45.2935606,8.19227273 C41.7162879,7.66348485 38.9844697,8.75212121 37.6094697,11.2695455 C36.1829545,13.8809091 36.5806818,17.4134848 38.5534091,19.6687879 C40.6526515,22.0695455 44.0231061,22.5415152 48.0450758,20.9983333 C48.5291667,20.8119697 49.0738636,21.0415152 49.2814394,21.5157576 C49.4890152,21.9922727 49.2852273,22.5468182 48.8200758,22.7748485 C47.8011364,23.2740909 47.1420455,23.9960606 47.0102273,24.7551515 C46.8511364,25.6710606 47.4556818,26.520303 47.9912879,27.0718182 C49.3708333,28.4922727 50.9890152,28.109697 53.4890152,27.309697 C54.2435606,27.0687879 55.0238636,26.8195455 55.7753788,26.684697 C58.1405303,26.2619697 60.7632576,26.0392424 62.2875,27.6059091 C63.1003788,28.4415152 63.4905303,29.6490909 63.4723485,31.3657576 C64.3087121,29.665 64.6087121,27.6339394 63.8587121,25.9066667 C61.7412879,21.0271212 56.532197,21.2733333 53.617803,21.8536364 C53.1882576,21.9392424 52.7534091,21.7248485 52.5587121,21.3316667 C52.3647727,20.9377273 52.4587121,20.4627273 52.7890152,20.1733333 C54.6806818,18.5119697 55.2231061,16.7930303 54.3579545,15.2036364 C53.1526515,12.9877273 49.6200758,11.7430303 46.7958333,12.545303 C46.2791667,12.69 45.7435606,12.3922727 45.5981061,11.8763636 C45.4518939,11.3612121 45.7511364,10.8248485 46.2670455,10.6786364 C50.0117424,9.62181818 54.4056818,11.2316667 56.0617424,14.2756061 C57.0026515,16.0043939 56.8950758,17.8718182 55.8087121,19.6248485 C60.4655303,19.4036364 63.9875,21.3286364 65.6390152,25.134697 C67.2253788,28.7922727 65.3867424,33.2589394 62.6920455,35.4642424 C62.5147727,35.6089394 62.2965909,35.6831818 62.0776515,35.6831818" id="Fill-1"></path>
                            <path d="M65.0491667,52.787803 L56.1908333,52.787803 C55.6552273,52.787803 55.2211364,52.3537121 55.2211364,51.8181061 C55.2211364,51.2825 55.6552273,50.8476515 56.1908333,50.8476515 L65.0491667,50.8476515 C65.6870455,50.8476515 66.2052273,50.3287121 66.2052273,49.6915909 L66.2052273,46.6097727 C66.2052273,46.0734091 66.6400758,45.6393182 67.1756818,45.6393182 C67.7112879,45.6393182 68.1453788,46.0734091 68.1453788,46.6097727 L68.1453788,49.6915909 C68.1453788,51.3991667 66.7567424,52.787803 65.0491667,52.787803" id="Fill-6"></path>
                            <path d="M67.1756061,42.8135606 C66.64,42.8135606 66.2051515,42.3794697 66.2051515,41.8438636 C66.2051515,41.2059848 65.6869697,40.6870455 65.0490909,40.6870455 L45.2059091,40.6870455 C44.670303,40.6870455 44.2362121,40.2529545 44.2362121,39.7173485 C44.2362121,39.1817424 44.670303,38.7468939 45.2059091,38.7468939 L65.0490909,38.7468939 C66.7566667,38.7468939 68.145303,40.1362879 68.145303,41.8438636 C68.145303,42.3794697 67.7112121,42.8135606 67.1756061,42.8135606" id="Fill-8"></path>
                            <path d="M41.1322727,52.787803 L3.18227273,52.787803 C1.47469697,52.787803 0.0853030303,51.3991667 0.0853030303,49.6915909 L0.0853030303,41.8438636 C0.0853030303,40.1362879 1.47469697,38.7468939 3.18227273,38.7468939 L31.0443939,38.7468939 C31.58,38.7468939 32.0140909,39.1817424 32.0140909,39.7173485 C32.0140909,40.2529545 31.58,40.6870455 31.0443939,40.6870455 L3.18227273,40.6870455 C2.54439394,40.6870455 2.02545455,41.2059848 2.02545455,41.8438636 L2.02545455,49.6915909 C2.02545455,50.3287121 2.54439394,50.8476515 3.18227273,50.8476515 L41.1322727,50.8476515 C41.6678788,50.8476515 42.1019697,51.2825 42.1019697,51.8181061 C42.1019697,52.3537121 41.6678788,52.787803 41.1322727,52.787803" id="Fill-10"></path>
                            <path d="M61.6957576,52.5599242 C61.1601515,52.5599242 60.7260606,52.1258333 60.7260606,51.5894697 L60.7260606,44.3250758 C60.7260606,43.7894697 61.1601515,43.3553788 61.6957576,43.3553788 C62.2313636,43.3553788 62.6662121,43.7894697 62.6662121,44.3250758 L62.6662121,51.5894697 C62.6662121,52.1258333 62.2313636,52.5599242 61.6957576,52.5599242" id="Fill-12"></path>
                            <path d="M24.2519697,49.0176515 C23.7163636,49.0176515 23.2815152,48.5835606 23.2815152,48.0479545 L23.2815152,40.4017424 C23.2815152,39.8661364 23.7163636,39.4320455 24.2519697,39.4320455 C24.7875758,39.4320455 25.2216667,39.8661364 25.2216667,40.4017424 L25.2216667,48.0479545 C25.2216667,48.5835606 24.7875758,49.0176515 24.2519697,49.0176515" id="Fill-14"></path>
                            <path d="M67.7688727,74.7777592 C67.4441967,74.7777592 67.1218073,74.6436208 66.8901136,74.3814412 L3.66061977,2.65092548 C3.23305358,2.16543589 3.27954473,1.42538817 3.76427217,0.997821987 C4.24823747,0.568731499 4.98904733,0.615984803 5.41661352,1.1014744 L68.6468695,72.8319901 C69.0744357,73.3174797 69.0279446,74.0575274 68.542455,74.4850936 C68.3206693,74.6817283 68.0440088,74.7777592 67.7688727,74.7777592" id="Fill-16"></path>
                        </g>
                    </g>
                </g>
            </g>
        </g>
    </g>
</svg>
