<?xml version="1.0" encoding="UTF-8"?>
<svg width="100px" height="100px" viewBox="0 0 100 100" version="1.1" xmlns="http://www.w3.org/2000/svg" xmlns:xlink="http://www.w3.org/1999/xlink">
    <!-- Generator: Sketch 52.2 (67145) - http://www.bohemiancoding.com/sketch -->
    <title>Icon / General / Green / icon-green-DollarSign</title>
    <desc>Created with Sketch.</desc>
    <defs>
        <polygon id="path-1" points="0 7.57575758e-05 36.7305303 7.57575758e-05 36.7305303 58.9937121 0 58.9937121"></polygon>
    </defs>
    <g id="Icon-/-General-/-Green-/-icon-green-DollarSign" stroke="none" stroke-width="1" fill="none" fill-rule="evenodd">
        <g id="Group">
            <path d="M49.9996186,2.11496953 C23.595677,2.11496953 2.11496953,23.5964397 2.11496953,50.0003814 C2.11496953,76.4035603 23.595677,97.8850305 49.9996186,97.8850305 C76.4035603,97.8850305 97.8850305,76.4035603 97.8850305,50.0003814 C97.8850305,23.5964397 76.4035603,2.11496953 49.9996186,2.11496953 M49.9996186,100 C22.4295074,100 0,77.5704926 0,50.0003814 C0,22.4302701 22.4295074,0 49.9996186,0 C77.5697299,0 100,22.4302701 100,50.0003814 C100,77.5704926 77.5697299,100 49.9996186,100" id="Fill-3" fill="#94C34A"></path>
            <g id="Group-3" transform="translate(31.818182, 20.454545)">
                <mask id="mask-2" fill="white">
                    <use xlink:href="#path-1"></use>
                </mask>
                <g id="Clip-2"></g>
                <path d="M22.5100758,2.18234848 L22.5100758,5.63159091 C29.1979545,6.61719697 32.8585606,9.99674242 35.4631061,15.417197 C36.3085606,17.1065909 35.9562879,18.0217424 34.0555303,18.8664394 L30.6062879,20.4156818 C28.9865909,21.1194697 28.2123485,20.9081061 27.297197,19.1482576 C25.5373485,15.7694697 23.3547727,13.727803 18.2865909,13.727803 C12.3025,13.727803 9.55704545,15.417197 9.55704545,19.5005303 C9.55704545,23.6535606 14.2032576,24.4285606 19.482803,24.9914394 C27.297197,25.7656818 36.7305303,27.1035606 36.7305303,38.9300758 C36.7305303,46.5331061 31.7320455,51.8134091 22.5100758,53.1505303 L22.5100758,56.8111364 C22.5100758,58.4308333 22.0176515,58.9937121 20.3979545,58.9937121 L16.5259848,58.9937121 C14.9070455,58.9937121 14.3441667,58.4308333 14.3441667,56.8111364 L14.3441667,53.2209848 C7.09265152,52.3058333 2.44643939,48.2937121 0.263863636,42.3800758 C-0.369469697,40.6906818 0.122954545,39.7755303 1.88356061,39.1414394 L5.33280303,37.8740152 C7.09265152,37.2406818 7.86689394,37.5929545 8.64189394,39.4232576 C10.1199242,43.2247727 13.0062879,45.3361364 18.1456818,45.3361364 C24.4812879,45.3361364 27.8600758,43.5058333 27.8600758,39.1414394 C27.8600758,34.7065909 23.2843182,33.9323485 17.8638636,33.4391667 C9.97901515,32.5944697 0.545681818,30.8346212 0.545681818,19.5005303 C0.545681818,12.0384091 5.12143939,6.82856061 14.3441667,5.63159091 L14.3441667,2.18234848 C14.3441667,0.563409091 14.9070455,-0.000227272727 16.5259848,-0.000227272727 L20.3979545,-0.000227272727 C22.0176515,-0.000227272727 22.5100758,0.563409091 22.5100758,2.18234848" id="Fill-1" fill="#94C34A" mask="url(#mask-2)"></path>
            </g>
        </g>
    </g>
</svg>