<?xml version="1.0" encoding="UTF-8"?>
<svg width="46px" height="46px" viewBox="0 0 46 46" version="1.1" xmlns="http://www.w3.org/2000/svg" xmlns:xlink="http://www.w3.org/1999/xlink">
    <!-- Generator: Sketch 51.2 (57519) - http://www.bohemiancoding.com/sketch -->
    <title>Icon / Tabbar / icon-tabbar-diary-1-default</title>
    <desc>Created with Sketch.</desc>
    <defs></defs>
    <g id="Icon-/-Tabbar-/-icon-tabbar-diary-1-default" stroke="none" stroke-width="1" fill="none" fill-rule="evenodd">
        <path d="M23,3.84572514 C12.4386965,3.84572514 3.84670365,12.4389323 3.84670365,23.0004998 C3.84670365,33.5620673 12.4386965,42.1542749 23,42.1542749 C33.5613035,42.1542749 42.154296,33.5620673 42.154296,23.0004998 C42.154296,12.4389323 33.5613035,3.84572514 23,3.84572514 M23,43 C11.9718598,43 3,34.0279159 3,23.0004998 C3,11.9720841 11.9718598,3 23,3 C34.0281402,3 43,11.9720841 43,23.0004998 C43,34.0279159 34.0281402,43 23,43" id="Fill-1" fill="#FEFEFE"></path>
        <g id="Group" transform="translate(9.000000, 11.000000)" fill="#FEFEFE">
            <path d="M19.2070458,1.17221842 L21.1613697,1.17221842 L21.1613697,4.80414184 L19.2070458,3.47172023 L19.2070458,1.17221842 Z M27.742945,9.29276155 L22.3524254,5.61687995 L22.3524254,0.586109212 C22.3524254,0.261795448 22.0854304,0 21.7568975,0 L18.611518,0 C18.2829851,0 18.0159901,0.261795448 18.0159901,0.586109212 L18.0159901,2.65898212 L14.7058478,0.402461659 C14.4984056,0.261795448 14.2234703,0.263749145 14.0180132,0.409299599 L1.24691846,9.47054801 C0.979923474,9.65907981 0.92037069,10.0253981 1.11292469,10.2891472 C1.22905262,10.4473967 1.41168116,10.5323825 1.5962948,10.5323825 C1.71639291,10.5323825 1.83847612,10.4962391 1.94368604,10.4210218 L4.6394421,8.50835206 L4.6394421,16.4725994 C4.6394421,16.7959363 4.90643708,17.0587086 5.23496995,17.0587086 C5.56449536,17.0587086 5.8304978,16.7959363 5.8304978,16.4725994 L5.8304978,7.70049819 C5.8304978,7.68779916 5.82950525,7.67705382 5.8285127,7.66435479 L14.3733448,1.60203185 L18.2780224,4.26492136 C18.2780224,4.26492136 18.2780224,4.26492136 18.2790149,4.26589821 L21.4234019,6.40910423 C21.4234019,6.40910423 21.4234019,6.41008108 21.4243945,6.41008108 L23.552414,7.86070138 L23.552414,19.4138908 C23.552414,19.7382046 23.8184164,20 24.1479418,20 L27.090842,20 C27.4203674,20 27.6863698,19.7382046 27.6863698,19.4138908 C27.6863698,19.0905539 27.4203674,18.8277816 27.090842,18.8277816 L24.7434697,18.8277816 L24.7434697,8.67343948 L27.0650358,10.2559344 C27.3350084,10.4405588 27.7062207,10.374133 27.893812,10.1074534 C28.0814033,9.84175051 28.0139101,9.4764091 27.742945,9.29276155 Z" id="Fill-4"></path>
            <path d="M12.201493,12.7066145 C12.201493,12.4463533 12.4127871,12.2344409 12.672289,12.2344409 L16.6550801,12.2344409 C16.914582,12.2344409 17.1258761,12.4463533 17.1258761,12.7066145 L17.1258761,19.7398416 L12.201493,19.7398416 L12.201493,12.7066145 Z M18.3567155,19.7398416 L18.3567155,12.7066145 C18.3567155,11.7653534 17.5935951,11 16.6550801,11 L12.672289,11 C11.733774,11 10.9706536,11.7653534 10.9706536,12.7066145 L10.9706536,19.7398416 L0.615419682,19.7398416 C0.275913157,19.7398416 0,20.0155334 0,20.357062 C0,20.6985907 0.275913157,20.9742825 0.615419682,20.9742825 L11.4127301,20.9742825 C11.4681178,20.9907417 11.525557,21 11.5860733,21 C11.6455638,21 11.7040287,20.9907417 11.7583908,20.9742825 L21.3845803,20.9742825 C21.7251125,20.9742825 22,20.6985907 22,20.357062 C22,20.0155334 21.7251125,19.7398416 21.3845803,19.7398416 L18.3567155,19.7398416 Z" id="Fill-6"></path>
        </g>
    </g>
</svg>