<?xml version="1.0" encoding="UTF-8"?>
<svg width="100px" height="100px" viewBox="0 0 100 100" version="1.1" xmlns="http://www.w3.org/2000/svg" xmlns:xlink="http://www.w3.org/1999/xlink">
    <!-- Generator: Sketch 52.2 (67145) - http://www.bohemiancoding.com/sketch -->
    <title>Icon / General / Green / icon-green-Increase</title>
    <desc>Created with Sketch.</desc>
    <defs>
        <polygon id="path-1" points="0.26137092 0.598149163 23.6824242 0.598149163 23.6824242 26.1397964 0.26137092 26.1397964"></polygon>
    </defs>
    <g id="Icon-/-General-/-Green-/-icon-green-Increase" stroke="none" stroke-width="1" fill="none" fill-rule="evenodd">
        <g id="Group">
            <path d="M49.9996186,2.11496953 C23.595677,2.11496953 2.11496953,23.5964397 2.11496953,50.0003814 C2.11496953,76.4035603 23.595677,97.8850305 49.9996186,97.8850305 C76.4035603,97.8850305 97.8850305,76.4035603 97.8850305,50.0003814 C97.8850305,23.5964397 76.4035603,2.11496953 49.9996186,2.11496953 M49.9996186,100 C22.4295074,100 0,77.5704926 0,50.0003814 C0,22.4302701 22.4295074,0 49.9996186,0 C77.5697299,0 100,22.4302701 100,50.0003814 C100,77.5704926 77.5697299,100 49.9996186,100" id="Fill-3" fill="#94C34A"></path>
            <g id="Group-8" transform="translate(6.060606, 25.757576)">
                <g id="Group-3" transform="translate(57.575758, 0.000000)">
                    <mask id="mask-2" fill="white">
                        <use xlink:href="#path-1"></use>
                    </mask>
                    <g id="Clip-2"></g>
                    <path d="M20.5150707,26.1397964 C20.4972929,26.1397964 20.4795152,26.1397964 20.4617374,26.1397964 C18.8997172,26.1099669 17.657697,24.7875237 17.6859798,23.1866714 L17.9752727,7.12263258 L2.95628283,6.39512311 C1.39587879,6.31972064 0.191030303,4.96081913 0.264565657,3.36162405 C0.33810101,1.76160038 1.65850505,0.524502841 3.22375758,0.6015625 L20.987798,1.46247633 C22.5166869,1.53622159 23.7102222,2.84375 23.6819394,4.41228693 L23.3417374,23.292732 C23.3134545,24.8761837 22.0528485,26.1397964 20.5150707,26.1397964" id="Fill-1" fill="#94C34A" mask="url(#mask-2)"></path>
                </g>
                <path d="M33.5715087,25.5255779 L46.4938135,38.0120647 L78.030303,9.49086325 L74.1581198,5.3030303 L46.6241431,30.2046665 L33.805938,17.8187006 L0.524830328,46.4571635 C1.26469008,48.0897797 2.54630384,49.0890857 3.52682284,50.525657 C3.61740264,50.6583667 3.70541291,50.7948079 3.79018918,50.9358248 L33.5715087,25.5255779 Z" id="Fill-4" fill="#94C34A"></path>
            </g>
        </g>
    </g>
</svg>