<?xml version="1.0" encoding="UTF-8"?>
<svg width="46px" height="46px" viewBox="0 0 46 46" version="1.1" xmlns="http://www.w3.org/2000/svg" xmlns:xlink="http://www.w3.org/1999/xlink">
    <!-- Generator: Sketch 51.2 (57519) - http://www.bohemiancoding.com/sketch -->
    <title>Icon / Tabbar / icon-tabbar-bar-2-Achievements-default</title>
    <desc>Created with Sketch.</desc>
    <defs></defs>
    <g id="Icon-/-Tabbar-/-icon-tabbar-bar-2-Achievements-default" stroke="none" stroke-width="1" fill="none" fill-rule="evenodd">
        <path d="M23,3.84572514 C12.4386965,3.84572514 3.84670365,12.4389323 3.84670365,23.0004998 C3.84670365,33.5620673 12.4386965,42.1542749 23,42.1542749 C33.5613035,42.1542749 42.154296,33.5620673 42.154296,23.0004998 C42.154296,12.4389323 33.5613035,3.84572514 23,3.84572514 M23,43 C11.9718598,43 3,34.0279159 3,23.0004998 C3,11.9720841 11.9718598,3 23,3 C34.0281402,3 43,11.9720841 43,23.0004998 C43,34.0279159 34.0281402,43 23,43" id="Fill-1" fill="#FEFEFE"></path>
        <g id="Group" transform="translate(11.500000, 9.000000)" fill="#FEFEFE">
            <path d="M11.248,10.9869103 C6.918,10.9869103 3.394,14.3884276 3.394,18.5700828 C3.394,22.7507724 6.918,26.1522897 11.248,26.1522897 C15.578,26.1522897 19.101,22.7507724 19.101,18.5700828 C19.101,14.3884276 15.578,10.9869103 11.248,10.9869103 M11.248,27.037669 C6.411,27.037669 2.477,23.2383586 2.477,18.5700828 C2.477,13.9008414 6.411,10.101531 11.248,10.101531 C16.084,10.101531 20.018,13.9008414 20.018,18.5700828 C20.018,23.2383586 16.084,27.037669 11.248,27.037669" id="Fill-42"></path>
            <polygon id="Fill-44" points="7.92 5.54496552 14.34 5.54496552 14.34 4.65958621 7.92 4.65958621"></polygon>
            <path d="M5.8633,12.3701103 L1.1653,4.47024828 C0.8203,3.88997241 0.9773,3.14845517 1.5323,2.7468 L4.6753,0.472041379 L17.2093,0.472041379 L17.2093,1.35742069 L4.9803,1.35742069 L2.0833,3.45548966 C1.8983,3.58873103 1.8453,3.83590345 1.9613,4.0290069 L6.6583,11.928869 L5.8633,12.3701103 Z" id="Fill-46"></path>
            <polygon id="Fill-47" points="10.8545 10.7718897 4.8925 1.14085517 5.6795 0.687062069 11.6415 10.317131"></polygon>
            <path d="M16.7344,12.3663448 L15.9354,11.9328276 L20.5424,4.03006897 C20.6554,3.83793103 20.6014,3.59172414 20.4184,3.45848276 L17.5144,1.35751724 L5.2864,1.35751724 L5.2864,0.472137931 L17.8204,0.472137931 L20.9674,2.75075862 C21.5184,3.14855172 21.6784,3.8862069 21.3414,4.46455172 L16.7344,12.3663448 Z" id="Fill-48"></path>
            <polygon id="Fill-49" points="11.6426 10.8803172 10.8526 10.4294207 16.8146 0.688317241 17.6046 1.13921379"></polygon>
            <path d="M8.1064,17.4994207 L9.5704,18.8772138 C9.6694,18.9699034 9.7154,19.1060414 9.6924,19.2383172 L9.3464,21.1838345 L11.1564,20.2646621 C11.2794,20.202869 11.4264,20.202869 11.5494,20.2646621 L13.3594,21.1838345 L13.0134,19.2383172 C12.9904,19.1060414 13.0364,18.9699034 13.1354,18.8772138 L14.5994,17.4994207 L12.5764,17.2155586 C12.4384,17.1962483 12.3194,17.1122483 12.2574,16.9915586 L11.3534,15.2217655 L10.4484,16.9925241 C10.3864,17.1122483 10.2674,17.1962483 10.1294,17.2155586 L8.1064,17.4994207 Z M13.9214,22.3395586 C13.8534,22.3395586 13.7864,22.3231448 13.7244,22.2922483 L11.3534,21.0882483 L8.9814,22.2922483 C8.8394,22.3636966 8.6674,22.3521103 8.5364,22.2613517 C8.4064,22.1696276 8.3404,22.0151448 8.3684,21.8616276 L8.8214,19.3116966 L6.9024,17.5061793 C6.7874,17.3980414 6.7464,17.2358345 6.7944,17.0871448 C6.8444,16.9394207 6.9774,16.8322483 7.1364,16.8090759 L9.7884,16.4373517 L10.9734,14.1181793 C11.0444,13.9791448 11.1924,13.8903172 11.3534,13.8903172 C11.5144,13.8903172 11.6614,13.9791448 11.7324,14.1181793 L12.9184,16.4373517 L15.5694,16.8090759 C15.7284,16.8322483 15.8614,16.9394207 15.9114,17.0871448 C15.9604,17.2358345 15.9184,17.3980414 15.8034,17.5061793 L13.8854,19.3116966 L14.3374,21.8616276 C14.3654,22.0151448 14.3004,22.1696276 14.1694,22.2613517 C14.0964,22.3125241 14.0084,22.3395586 13.9214,22.3395586 Z" id="Fill-50"></path>
        </g>
    </g>
</svg>