<?xml version="1.0" encoding="UTF-8"?>
<svg width="40px" height="40px" viewBox="0 0 40 40" version="1.1" xmlns="http://www.w3.org/2000/svg" xmlns:xlink="http://www.w3.org/1999/xlink">
    <!-- Generator: Sketch 51.2 (57519) - http://www.bohemiancoding.com/sketch -->
    <title>icon-notification</title>
    <desc>Created with Sketch.</desc>
    <defs>
        <polygon id="path-1" points="0.0001 0 40 0 40 39.9997 0.0001 39.9997"></polygon>
    </defs>
    <g id="j-icon-notification" stroke="none" stroke-width="1" fill="none" fill-rule="evenodd">
        <g id="Group-9">
            <g id="Group">
                <g id="Group-3" transform="translate(0.000000, 0.000300)">
                    <mask id="mask-2" fill="white">
                        <use xlink:href="#path-1"></use>
                    </mask>
                    <g id="Clip-2"></g>
                    <path d="M20.0001,0.8457 C9.4381,0.8457 0.8461,9.4387 0.8461,19.9997 C0.8461,30.5617 9.4381,39.1547 20.0001,39.1547 C30.5621,39.1547 39.1541,30.5617 39.1541,19.9997 C39.1541,9.4387 30.5621,0.8457 20.0001,0.8457 M20.0001,39.9997 C8.9721,39.9997 0.0001,31.0287 0.0001,19.9997 C0.0001,8.9717 8.9721,-0.0003 20.0001,-0.0003 C31.0271,-0.0003 40.0001,8.9717 40.0001,19.9997 C40.0001,31.0287 31.0271,39.9997 20.0001,39.9997" id="Fill-1" fill="#FEFEFE" mask="url(#mask-2)"></path>
                </g>
                <path d="M8.9151,27.7483 L8.9161,27.7483 L8.9151,27.7483 Z M8.9161,27.7483 L8.9171,27.7483 L8.9161,27.7483 Z M9.3261,27.0053 C9.3621,27.0173 9.4031,27.0303 9.4481,27.0453 C10.7841,27.4883 14.8531,28.8423 19.9161,28.7513 L19.9241,28.7513 C20.0181,28.7513 27.8631,28.7333 30.5171,27.0913 C30.6341,24.3423 30.0141,23.8343 29.2981,23.2503 C29.1381,23.1193 28.9731,22.9833 28.8081,22.8223 C26.3731,21.0903 26.9461,16.8433 27.0141,16.3993 C27.0921,11.7463 24.7021,11.4343 23.2731,11.2483 C23.1591,11.2333 23.0531,11.2193 22.9551,11.2043 C22.7351,11.1703 22.5791,10.9723 22.5981,10.7503 C22.7171,9.3473 22.4591,8.3273 21.8321,7.7223 C21.0631,6.9773 19.9841,7.0963 19.9731,7.0973 C19.9411,7.1013 19.9101,7.1013 19.8781,7.0983 C19.8701,7.0973 18.8371,7.0053 18.0861,7.7273 C17.4501,8.3383 17.1691,9.3583 17.2491,10.7623 C17.2621,10.9793 17.1071,11.1713 16.8921,11.2043 C16.7941,11.2193 16.6871,11.2333 16.5731,11.2483 C15.1441,11.4343 12.7551,11.7463 12.8321,16.3993 C12.8991,16.8433 13.4741,21.0903 11.0391,22.8223 C10.8741,22.9833 10.7091,23.1193 10.5491,23.2503 C9.8401,23.8283 9.2261,24.3313 9.3261,27.0053 Z M19.4521,29.6013 C14.4661,29.6013 10.5101,28.2883 9.1821,27.8483 C9.0231,27.7963 8.9151,27.7593 8.8601,27.7443 C8.6621,27.7173 8.5061,27.5533 8.4951,27.3483 C8.3131,23.9833 9.1781,23.2773 10.0141,22.5953 C10.1731,22.4643 10.3241,22.3413 10.4671,22.1973 C10.4841,22.1803 10.5041,22.1643 10.5241,22.1493 C12.6391,20.6793 11.9991,16.5453 11.9921,16.5043 C11.9891,16.4843 11.9871,16.4643 11.9871,16.4443 C11.8861,11.0933 14.8791,10.6173 16.3911,10.4183 C16.3711,8.9463 16.7471,7.8333 17.5101,7.1073 C18.4541,6.2083 19.6631,6.2353 19.9211,6.2523 C20.1861,6.2313 21.4601,6.1843 22.4211,7.1133 C23.1721,7.8403 23.5221,8.9513 23.4661,10.4203 C24.9811,10.6193 27.9601,11.1043 27.8591,16.4443 C27.8591,16.4643 27.8571,16.4843 27.8541,16.5043 C27.8481,16.5453 27.2071,20.6793 29.3211,22.1493 C29.3431,22.1643 29.3611,22.1803 29.3791,22.1973 C29.5221,22.3413 29.6741,22.4643 29.8331,22.5953 C30.6691,23.2773 31.5331,23.9833 31.3521,27.3483 C31.3451,27.4773 31.2791,27.5963 31.1741,27.6703 C28.4901,29.5713 20.3341,29.5973 19.9281,29.5973 L19.9271,29.5973 C19.7681,29.6003 19.6091,29.6013 19.4521,29.6013 Z" id="Fill-4" fill="#FEFEFE"></path>
                <path d="M19.8028,26.1145 C13.8398,26.1145 9.3518,24.5055 9.1618,24.4355 C8.9428,24.3565 8.8298,24.1135 8.9088,23.8935 C8.9898,23.6745 9.2338,23.5615 9.4508,23.6405 C9.4968,23.6575 14.0528,25.2835 19.9228,25.2675 C27.3818,25.2405 30.3068,23.6835 30.3348,23.6685 C30.5398,23.5555 30.7968,23.6305 30.9088,23.8345 C31.0228,24.0385 30.9488,24.2955 30.7448,24.4085 C30.6228,24.4765 27.6458,26.0855 19.9258,26.1145 L19.8028,26.1145 Z" id="Fill-6" fill="#FEFEFE"></path>
                <path d="M19.9493,11.7942 C18.9233,11.7942 17.7343,11.6492 16.4643,11.2192 C16.2423,11.1442 16.1243,10.9032 16.1983,10.6822 C16.2733,10.4612 16.5133,10.3422 16.7353,10.4172 C20.2313,11.6022 23.1343,10.4092 23.1623,10.3972 C23.3783,10.3062 23.6263,10.4062 23.7173,10.6212 C23.8073,10.8362 23.7083,11.0842 23.4933,11.1752 C23.4073,11.2122 22.0053,11.7942 19.9493,11.7942" id="Fill-8" fill="#FEFEFE"></path>
                <path d="M19.9268,32.0344 L19.9228,32.0344 C19.1438,32.0344 18.5188,31.7904 18.0658,31.3084 C17.2698,30.4664 17.3338,29.2064 17.3368,29.1534 C17.3508,28.9204 17.5518,28.7434 17.7828,28.7564 C18.0168,28.7694 18.1948,28.9694 18.1818,29.2014 C18.1808,29.2114 18.1398,30.1584 18.6848,30.7314 C18.9708,31.0344 19.3888,31.1874 19.9238,31.1884 L19.9268,31.1884 C20.6608,31.1884 21.1898,31.0004 21.4968,30.6304 C21.9528,30.0804 21.8138,29.2644 21.8118,29.2574 C21.7688,29.0274 21.9188,28.8054 22.1488,28.7634 C22.3788,28.7194 22.5998,28.8694 22.6438,29.0984 C22.6528,29.1474 22.8628,30.3074 22.1488,31.1694 C21.6728,31.7434 20.9258,32.0344 19.9268,32.0344" id="Fill-10" fill="#FEFEFE"></path>
                <path d="M20.6788,9.2551 C20.6788,9.6731 20.3408,10.0111 19.9228,10.0111 C19.5058,10.0111 19.1678,9.6731 19.1678,9.2551 C19.1678,8.8381 19.5058,8.5001 19.9228,8.5001 C20.3408,8.5001 20.6788,8.8381 20.6788,9.2551" id="Fill-12" fill="#FEFEFE"></path>
                <path d="M25.2667,16.7239 C25.0337,16.7239 24.8437,16.5349 24.8437,16.3009 C24.8437,15.1649 24.5797,14.3299 24.0577,13.8199 C23.5097,13.2829 22.8587,13.2879 22.8347,13.2899 C22.6147,13.2959 22.4087,13.1129 22.4017,12.8799 C22.3947,12.6479 22.5747,12.4529 22.8067,12.4459 C22.8457,12.4429 23.8227,12.4169 24.6327,13.1999 C25.3337,13.8739 25.6897,14.9179 25.6897,16.3009 C25.6897,16.5349 25.4997,16.7239 25.2667,16.7239" id="Fill-14" fill="#FEFEFE"></path>
            </g>
        </g>
    </g>
</svg>
