<?xml version="1.0" encoding="UTF-8"?>
<svg width="46px" height="46px" viewBox="0 0 46 46" version="1.1" xmlns="http://www.w3.org/2000/svg" xmlns:xlink="http://www.w3.org/1999/xlink">
    <!-- Generator: Sketch 51.2 (57519) - http://www.bohemiancoding.com/sketch -->
    <title>Icon / Tabbar / icon-tabbar-bar-4-question-default</title>
    <desc>Created with Sketch.</desc>
    <defs></defs>
    <g id="Icon-/-Tabbar-/-icon-tabbar-bar-4-question-default" stroke="none" stroke-width="1" fill="none" fill-rule="evenodd">
        <path d="M23,3.84572514 C12.4386965,3.84572514 3.84670365,12.4389323 3.84670365,23.0004998 C3.84670365,33.5620673 12.4386965,42.1542749 23,42.1542749 C33.5613035,42.1542749 42.154296,33.5620673 42.154296,23.0004998 C42.154296,12.4389323 33.5613035,3.84572514 23,3.84572514 M23,43 C11.9718598,43 3,34.0279159 3,23.0004998 C3,11.9720841 11.9718598,3 23,3 C34.0281402,3 43,11.9720841 43,23.0004998 C43,34.0279159 34.0281402,43 23,43" id="Fill-1" fill="#FEFEFE"></path>
        <path d="M27.5255158,20.4641895 C27.4745158,20.4641895 27.4235158,20.4551895 27.3735158,20.4341895 C27.1665158,20.3501895 27.0675158,20.1151895 27.1505158,19.9081895 C27.4205158,19.2441895 27.4905158,18.5341895 27.3525158,17.8561895 C26.9245158,15.7491895 24.6495158,14.4251895 22.2795158,14.9071895 L12.8575158,16.8211895 C12.6355158,16.8681895 12.4255158,16.7251895 12.3805158,16.5061895 C12.3365158,16.2871895 12.4775158,16.0741895 12.6965158,16.0291895 L22.1195158,14.1151895 C24.9265158,13.5441895 27.6285158,15.1521895 28.1445158,17.6951895 C28.3145158,18.5301895 28.2295158,19.4001895 27.9005158,20.2121895 C27.8365158,20.3691895 27.6845158,20.4641895 27.5255158,20.4641895 Z M11.9764158,25.6672895 C9.61041577,25.6672895 7.53241577,24.1692895 7.08641577,21.9722895 C6.83541577,20.7372895 7.13541577,19.4652895 7.93141577,18.3932895 C8.71741577,17.3332895 9.89241577,16.5992895 11.2384158,16.3262895 C11.4574158,16.2802895 11.6704158,16.4222895 11.7144158,16.6422895 C11.7594158,16.8602895 11.6184158,17.0732895 11.3994158,17.1182895 C10.2484158,17.3512895 9.24741577,17.9752895 8.58041577,18.8752895 C7.92341577,19.7602895 7.67341577,20.8042895 7.87841577,21.8122895 C8.30641577,23.9182895 10.5794158,25.2422895 12.9514158,24.7602895 L15.5084158,24.2402895 C15.7274158,24.1962895 15.9404158,24.3372895 15.9844158,24.5562895 C16.0294158,24.7742895 15.8884158,24.9882895 15.6694158,25.0322895 L13.1124158,25.5522895 C12.7294158,25.6292895 12.3494158,25.6672895 11.9764158,25.6672895 Z M22.1312158,30.5754895 L21.1062158,30.5754895 C18.2432158,30.5754895 16.5602158,28.4644895 16.5602158,25.8684895 C16.5602158,23.2734895 18.8902158,21.1614895 21.7532158,21.1614895 L31.2612158,21.1614895 C31.4852158,21.1614895 31.6652158,21.3424895 31.6652158,21.5654895 C31.6652158,21.7884895 31.4852158,21.9694895 31.2612158,21.9694895 L21.7532158,21.9694895 C19.3352158,21.9694895 17.3682158,23.7194895 17.3682158,25.8684895 C17.3682158,28.0174895 18.6882158,29.7674895 21.1062158,29.7674895 L22.1312158,29.7674895 C22.3542158,29.7674895 22.5352158,29.9484895 22.5352158,30.1714895 C22.5352158,30.3944895 22.3542158,30.5754895 22.1312158,30.5754895 Z M24.5936158,30.5754895 L23.6326158,30.5754895 C23.4086158,30.5754895 23.2276158,30.3944895 23.2276158,30.1714895 C23.2276158,29.9484895 23.4086158,29.7674895 23.6326158,29.7674895 L24.5936158,29.7674895 C24.8166158,29.7674895 24.9976158,29.9484895 24.9976158,30.1714895 C24.9976158,30.3944895 24.8166158,30.5754895 24.5936158,30.5754895 Z M32.8560158,30.5754895 L26.1490158,30.5754895 C25.9260158,30.5754895 25.7450158,30.3944895 25.7450158,30.1714895 C25.7450158,29.9484895 25.9260158,29.7674895 26.1490158,29.7674895 L32.8560158,29.7674895 C35.2730158,29.7674895 37.2410158,28.0174895 37.2410158,25.8684895 C37.2410158,23.7194895 35.2730158,21.9694895 32.8560158,21.9694895 C32.6330158,21.9694895 32.4520158,21.7884895 32.4520158,21.5654895 C32.4520158,21.3424895 32.6330158,21.1614895 32.8560158,21.1614895 C35.7190158,21.1614895 38.0490158,23.2734895 38.0490158,25.8684895 C38.0490158,28.4644895 35.7190158,30.5754895 32.8560158,30.5754895 Z M29.3211158,24.3718895 L22.5481158,24.3718895 C22.3701158,24.3718895 22.2261158,24.2278895 22.2261158,24.0498895 C22.2261158,23.8718895 22.3701158,23.7278895 22.5481158,23.7278895 L29.3211158,23.7278895 C29.4991158,23.7278895 29.6431158,23.8718895 29.6431158,24.0498895 C29.6431158,24.2278895 29.4991158,24.3718895 29.3211158,24.3718895 Z M32.4739158,27.8210895 L26.1689158,27.8210895 C25.9909158,27.8210895 25.8469158,27.6770895 25.8469158,27.4990895 C25.8469158,27.3210895 25.9909158,27.1770895 26.1689158,27.1770895 L32.4739158,27.1770895 C32.6519158,27.1770895 32.7959158,27.3210895 32.7959158,27.4990895 C32.7959158,27.6770895 32.6519158,27.8210895 32.4739158,27.8210895 Z M21.5936158,18.8791895 L14.9656158,20.2731895 C14.7916158,20.3091895 14.6206158,20.1981895 14.5836158,20.0241895 C14.5476158,19.8491895 14.6586158,19.6791895 14.8326158,19.6421895 L21.4616158,18.2491895 C21.6356158,18.2121895 21.8056158,18.3231895 21.8426158,18.4981895 C21.8796158,18.6721895 21.7676158,18.8421895 21.5936158,18.8791895 Z" id="Combined-Shape" fill="#FEFEFE"></path>
    </g>
</svg>