<?xml version="1.0" encoding="UTF-8"?>
<svg width="30px" height="30px" viewBox="0 0 30 30" version="1.1" xmlns="http://www.w3.org/2000/svg" xmlns:xlink="http://www.w3.org/1999/xlink">
    <!-- Generator: Sketch 51.2 (57519) - http://www.bohemiancoding.com/sketch -->
    <desc>Created with Sketch.</desc>
    <defs></defs>
    <g id="Symbols" stroke="none" stroke-width="1" fill="none" fill-rule="evenodd">
        <g id="Form-/-Field---blank-SML" transform="translate(-234.000000, -8.000000)" fill="#A8A7A7">
            <g id="Icon-/-Form-/-Pencil" transform="translate(234.000000, 8.000000)">
                <g id="Pencil-Icon">
                    <g id="Pencil" transform="translate(7.500000, 5.250000)">
                        <path d="M1.148475,15.4698 L0.780225,19.0083 L4.201725,17.65755 C3.288975,17.36205 1.966725,16.73655 1.148475,15.4698 M0.410475,19.8123 C0.342225,19.8123 0.274725,19.79055 0.218475,19.7478 C0.130725,19.6803 0.083475,19.57305 0.094725,19.46205 L0.633975,14.27805 C0.650475,14.1288 0.768225,14.01105 0.917475,13.9953 C1.068225,13.98255 1.206225,14.0718 1.252725,14.2143 C2.081475,16.8078 5.256975,17.26755 5.289225,17.2713 C5.431725,17.29155 5.543475,17.4048 5.561475,17.54805 C5.577975,17.6913 5.496975,17.82855 5.362725,17.8818 L0.526725,19.79055 C0.489225,19.8048 0.449475,19.8123 0.410475,19.8123" id="Fill-6"></path>
                        <path d="M9.5442,2.25615 L14.0652,5.5569 L14.8992,4.4154 C14.90595,4.4049 14.9142,4.3959 14.92245,4.38615 C14.9292,4.37865 15.15345,4.11615 15.1137,3.67215 C15.06345,3.12915 14.6367,2.5254 13.8777,1.9269 L13.0542,1.3254 C12.25395,0.78765 11.5512,0.5649 11.02095,0.6834 C10.58445,0.78015 10.4037,1.07415 10.3962,1.08615 C10.39095,1.0944 10.38345,1.1064 10.37745,1.11465 L9.5442,2.25615 Z M14.1342,6.3174 C14.06745,6.3174 14.00145,6.2964 13.94745,6.25665 L8.91345,2.58165 C8.77245,2.47815 8.7417,2.2794 8.84445,2.1384 L9.85845,0.7494 C9.92295,0.64665 10.2267,0.2184 10.85895,0.06915 C11.5797,-0.1011 12.43845,0.1464 13.41345,0.80265 C13.41645,0.80415 13.4202,0.8064 13.4232,0.8094 L14.2617,1.42215 C15.1932,2.15715 15.6897,2.9004 15.74745,3.63915 C15.7977,4.28565 15.48195,4.7064 15.40395,4.7994 L14.3907,6.1869 C14.3412,6.25515 14.2662,6.3009 14.1837,6.31365 C14.1672,6.3159 14.1507,6.3174 14.1342,6.3174 Z" id="Fill-8"></path>
                        <path d="M3.4563,14.21955 L3.7953,15.2748 L4.82355,15.2553 L11.3118,6.23505 L9.92655,5.2233 L3.4563,14.21955 Z M3.56505,15.9138 C3.42705,15.9138 3.3048,15.8253 3.2628,15.6933 L2.8038,14.2608 C2.77305,14.1648 2.78955,14.06055 2.84805,13.9788 L9.5973,4.5933 C9.6468,4.52505 9.7218,4.4793 9.80505,4.46505 C9.88755,4.45305 9.9738,4.47255 10.04205,4.52205 L11.9403,5.90805 C12.08055,6.0108 12.11205,6.2073 12.01005,6.3498 L5.24655,15.7548 C5.18805,15.8358 5.09505,15.88455 4.99455,15.8868 L3.57105,15.9138 L3.56505,15.9138 Z" id="Fill-10"></path>
                        <path d="M1.271475,13.28205 C1.206975,13.28205 1.140975,13.26255 1.084725,13.2213 C0.943725,13.1178 0.912225,12.9198 1.015725,12.77805 L7.899225,3.35055 C8.002725,3.20805 8.200725,3.17805 8.342475,3.28155 C8.483475,3.38505 8.514975,3.58305 8.412225,3.7248 L1.528725,13.1523 C1.466475,13.23705 1.369725,13.28205 1.271475,13.28205" id="Fill-12"></path>
                        <path d="M6.284925,17.220225 C6.219675,17.220225 6.154425,17.200725 6.098175,17.159475 C5.957175,17.055225 5.925675,16.857225 6.028425,16.715475 L13.044675,7.107225 C13.147425,6.965475 13.346925,6.934725 13.487925,7.038225 C13.629675,7.141725 13.660425,7.339725 13.556925,7.481475 L6.541425,17.089725 C6.479175,17.175225 6.382425,17.220225 6.284925,17.220225" id="Fill-14"></path>
                    </g>
                    <path d="M15,0.6345 C7.0785,0.6345 0.6345,7.07925 0.6345,15 C0.6345,22.92075 7.0785,29.3655 15,29.3655 C22.9215,29.3655 29.3655,22.92075 29.3655,15 C29.3655,7.07925 22.9215,0.6345 15,0.6345 M15,30 C6.729,30 0,23.271 0,15 C0,6.729 6.729,0 15,0 C23.271,0 30,6.729 30,15 C30,23.271 23.271,30 15,30" id="Fill-16"></path>
                </g>
            </g>
        </g>
    </g>
</svg>
