<?xml version="1.0" encoding="UTF-8"?>
<svg width="132px" height="132px" viewBox="0 0 132 132" version="1.1" xmlns="http://www.w3.org/2000/svg" xmlns:xlink="http://www.w3.org/1999/xlink">
    <!-- Generator: Sketch 51.2 (57519) - http://www.bohemiancoding.com/sketch -->
    <title>Icon / Avatar / Male / j-avatar-3</title>
    <desc>Created with Sketch.</desc>
    <defs>
        <polygon id="path-1" points="0 0.489527638 128.999935 0.489527638 128.999935 131.336617 0 131.336617"></polygon>
        <polygon id="path-3" points="0.181909645 0.294578894 22.4779555 0.294578894 22.4779555 19.8994975 0.181909645 19.8994975"></polygon>
    </defs>
    <g id="Icon-/-Avatar-/-Male-/-j-avatar-3" stroke="none" stroke-width="1" fill="none" fill-rule="evenodd">
        <g id="Group-35" transform="translate(3.000000, 0.000000)">
            <g id="Group-3" transform="translate(0.000000, 0.173789)">
                <mask id="mask-2" fill="white">
                    <use xlink:href="#path-1"></use>
                </mask>
                <g id="Clip-2"></g>
                <path d="M128.999935,65.9130392 C128.999935,102.044557 100.12096,131.336617 64.4999345,131.336617 C28.8769447,131.336617 -6.54822335e-05,102.044557 -6.54822335e-05,65.9130392 C-6.54822335e-05,29.7808583 28.8769447,0.489461307 64.4999345,0.489461307 C100.12096,0.489461307 128.999935,29.7808583 128.999935,65.9130392" id="Fill-1" fill="#1B8C92" mask="url(#mask-2)"></path>
            </g>
            <path d="M61.5313629,61.0207477 C61.5313629,61.0207477 65.0300787,110.430537 66.8373883,131.462979 C96.4936371,130.389733 121.04751,109.015682 127.399287,80.6230794 L91.2118401,43.917793 L61.5313629,61.0207477 Z" id="Fill-4" fill="#075558"></path>
            <path d="M95.2286513,65.2557588 L33.770301,65.2557588 C29.5918797,65.2557588 26.2051386,68.6910754 26.2051386,72.929005 L26.2051386,114.022131 C36.9154127,122.050251 50.1605041,126.799598 64.4998036,126.799598 C78.8397579,126.799598 92.0841944,122.050251 102.794469,114.022131 L102.794469,72.9303317 C102.794469,68.6910754 99.4077274,65.2557588 95.2286513,65.2557588" id="Fill-6" fill="#87898C"></path>
            <path d="M95.2286513,65.2557588 L64.3550878,65.2557588 L64.3550878,126.797608 C64.4028898,126.797608 64.4520015,126.798935 64.4998036,126.798935 C78.8397579,126.798935 92.0841944,122.049588 102.794469,114.020804 L102.794469,72.9303317 C102.794469,68.6910754 99.4077274,65.2557588 95.2286513,65.2557588" id="Fill-8" fill="#6C6D70"></path>
            <path d="M93.3970477,84.6922613 L80.5553269,82.3812663 L78.2857127,79.4003216 C77.8613878,78.8424724 77.0585756,78.6315377 76.3664284,78.898191 L64.4997381,78.473005 L52.7031137,78.9021709 C52.0181695,78.6328643 51.2160122,78.8345126 50.7851391,79.386392 L48.4441492,82.3812663 L35.6030832,84.6922613 C29.0653371,85.8689849 24.3584741,91.0355578 24.3584741,97.0359196 L24.3584741,117.294935 C35.3752051,126.190673 49.3235756,131.510472 64.4984284,131.510472 C79.6732812,131.510472 93.6229614,126.190673 104.639692,117.294935 L104.639692,97.0359196 C104.639692,91.0362211 99.9341391,85.8689849 93.3970477,84.6922613" id="Fill-10" fill="#EDEEEE"></path>
            <path d="M93.3957381,84.6922613 L80.5553269,82.3812663 L78.2857127,79.4003216 C77.8613878,78.8424724 77.0585756,78.6315377 76.3664284,78.898191 L64.4997381,78.473005 L64.3550223,78.4783116 L64.3550223,131.507819 C64.4028244,131.507819 64.4506264,131.510472 64.4997381,131.510472 C79.6745909,131.510472 93.6242711,126.190673 104.639692,117.294935 L104.639692,97.0372462 C104.639692,91.0362211 99.9341391,85.8689849 93.3957381,84.6922613" id="Fill-12" fill="#C3C5C7"></path>
            <path d="M90.7395168,84.2143417 L80.5557198,82.381598 L78.2861056,79.3999899 C77.8617807,78.842804 77.0583137,78.6318693 76.3668213,78.8985226 L64.500131,78.4726734 L52.7035066,78.9025025 C52.0179076,78.6338593 51.2157503,78.8361709 50.785532,79.3867236 L48.4425777,82.381598 L38.2587807,84.2143417 C42.0580599,88.3063417 47.4439736,90.8627638 53.4218467,90.8627638 L75.5771056,90.8627638 C81.5543239,90.8627638 86.9408924,88.3063417 90.7395168,84.2143417" id="Fill-14" fill="#CBCDCF"></path>
            <path d="M80.5555888,82.3813327 L78.2859746,79.4003879 C77.8616497,78.8425387 77.0581827,78.631604 76.3666904,78.8982573 L64.5,78.4730714 L64.3546294,78.4777146 L64.3546294,90.8631618 L75.5769746,90.8631618 C81.5561574,90.8631618 86.9407614,88.3060764 90.7393858,84.2140764 L80.5555888,82.3813327 Z" id="Fill-16" fill="#929497"></path>
            <path d="M75.5771056,85.1366171 L53.4218467,85.1366171 C41.9166183,85.1366171 32.5899838,75.6770593 32.5899838,64.0066673 L32.5899838,59.5670894 C32.5899838,45.2812402 44.0081208,33.7017226 58.0900751,33.7017226 L70.9069127,33.7017226 C84.9908315,33.7017226 96.4083137,45.2812402 96.4083137,59.5670894 L96.4083137,64.0053407 C96.4083137,75.6770593 87.082334,85.1366171 75.5771056,85.1366171" id="Fill-18" fill="#EDEEEE"></path>
            <path d="M70.9081569,33.701391 L64.3546949,33.701391 L64.3546949,85.1362854 L75.5770401,85.1362854 C87.0822685,85.1362854 96.4082482,75.6767276 96.4082482,64.006999 L96.4082482,59.5680844 C96.4082482,45.2815719 84.9920756,33.701391 70.9081569,33.701391" id="Fill-20" fill="#DADBDD"></path>
            <path d="M45.0672959,51.5983357 C42.4617579,51.5983357 40.1829761,53.392607 39.5484533,55.9556623 C39.1090675,57.7300342 38.8766056,59.5866573 38.8766056,61.4996623 C38.8766056,71.7545367 47.0723619,80.0692101 57.1834736,80.0692101 L71.8148239,80.0692101 C81.9265904,80.0692101 90.1216919,71.7545367 90.1216919,61.4996623 C90.1216919,59.5866573 89.8892299,57.7300342 89.450499,55.9556623 C88.816631,53.392607 86.5371944,51.5983357 83.9316563,51.5983357 L45.0672959,51.5983357 Z" id="Fill-22" fill="#89D0C7"></path>
            <path d="M89.4501716,55.9568563 C88.8169584,53.3924744 86.536867,51.5995296 83.9313289,51.5995296 L64.3547604,51.5995296 L64.3547604,80.070404 L71.8144964,80.070404 C81.9262629,80.070404 90.1233289,71.7557307 90.1233289,61.5015196 C90.1233289,59.5878513 89.8895574,57.7299015 89.4501716,55.9568563" id="Fill-24" fill="#37A3A8"></path>
            <path d="M42.3484081,127.549676 C49.2561289,130.111405 56.7178294,131.51034 64.4997381,131.51034 C72.2823015,131.51034 79.7426924,130.111405 86.6517228,127.549676 L86.6517228,116.457696 C86.6517228,113.943063 84.6414183,111.905355 82.1635706,111.905355 L46.8372152,111.905355 C44.3587127,111.905355 42.3484081,113.943063 42.3484081,116.457696 L42.3484081,127.549676 Z" id="Fill-26" fill="#C1C3C5"></path>
            <g id="Group-30" transform="translate(64.172589, 111.610975)">
                <mask id="mask-4" fill="white">
                    <use xlink:href="#path-3"></use>
                </mask>
                <g id="Clip-29"></g>
                <path d="M17.989803,0.294578894 L0.181909645,0.294578894 L0.181909645,19.8969106 C0.230366497,19.8969106 0.278168528,19.8995638 0.325970558,19.8995638 C8.10853401,19.8995638 15.5695797,18.5006291 22.4779553,15.9389005 L22.4779553,4.8469206 C22.4786102,2.33228744 20.4689604,0.294578894 17.989803,0.294578894" id="Fill-28" fill="#929497" mask="url(#mask-4)"></path>
            </g>
            <path d="M91.2119711,84.2993789 L91.2119711,125.649208 C93.0710117,124.790876 94.8815954,123.842334 96.641103,122.814193 L96.641103,85.6618312 C95.6248188,85.2286854 94.5397782,84.8996804 93.3971132,84.6933889 L91.2119711,84.2993789 Z" id="Fill-31" fill="#929497"></path>
            <path d="M32.3588315,85.6617648 L32.3588315,122.814127 C34.1183391,123.842267 35.9289228,124.79081 37.7879635,125.649142 L37.7879635,84.2993126 L35.6028213,84.691996 C34.4601563,84.8982874 33.3738061,85.2286191 32.3588315,85.6617648" id="Fill-33" fill="#C1C3C5"></path>
        </g>
    </g>
</svg>