<?xml version="1.0" encoding="UTF-8"?>
<svg width="132px" height="132px" viewBox="0 0 132 132" version="1.1" xmlns="http://www.w3.org/2000/svg" xmlns:xlink="http://www.w3.org/1999/xlink">
    <!-- Generator: Sketch 51.2 (57519) - http://www.bohemiancoding.com/sketch -->
    <title>Icon / Avatar / Male / j-avatar-5</title>
    <desc>Created with Sketch.</desc>
    <defs>
        <polygon id="path-1" points="0 131.508 131.508 131.508 131.508 0 0 0"></polygon>
    </defs>
    <g id="Icon-/-Avatar-/-Male-/-j-avatar-5" stroke="none" stroke-width="1" fill="none" fill-rule="evenodd">
        <g id="Group-23">
            <path d="M131.508,65.754 C131.508,102.068 102.068,131.508 65.754,131.508 C29.4386667,131.508 0,102.068 0,65.754 C0,29.4386667 29.4386667,0 65.754,0 C102.068,0 131.508,29.4386667 131.508,65.754" id="Fill-1" fill="#F06134"></path>
            <path d="M89.8363333,126.956667 C109.145,119.352667 123.984333,102.875333 129.339667,82.548 L82.7503333,35.9606667 L66.8603333,71.424 L61.9163333,72.3666667 L44.105,71.114 L59.9156667,86.924 L56.787,93.9073333 L89.8363333,126.956667 Z" id="Fill-3" fill="#8E1539"></path>
            <mask id="mask-2" fill="white">
                <use xlink:href="#path-1"></use>
            </mask>
            <g id="Clip-6"></g>
            <polygon id="Fill-5" fill="#FDCB86" mask="url(#mask-2)" points="54.7953333 96.9746667 76.7126667 96.9746667 76.7126667 75.056 54.7953333 75.056"></polygon>
            <polygon id="Fill-7" fill="#FDCB86" mask="url(#mask-2)" points="54.7953333 96.9746667 76.7126667 96.9746667 76.7126667 75.056 54.7953333 75.056"></polygon>
            <path d="M51.2306667,90.2712667 L39.616,92.5939333 C33.702,93.7766 29.4453333,98.9686 29.4453333,104.999933 L29.4453333,120.361933 C39.8306667,127.313933 52.318,131.371267 65.754,131.371267 C79.1893333,131.371267 91.6773333,127.313933 102.062,120.361933 L102.062,104.999933 C102.062,98.9686 97.8053333,93.7766 91.892,92.5939333 L80.2766667,90.2712667 L78.224,87.2752667 C77.84,86.7132667 77.1126667,86.5026 76.488,86.7699333 L65.754,91.3952667 L55.0833333,86.7746 C54.4626667,86.5052667 53.738,86.7079333 53.3493333,87.2612667 L51.2306667,90.2712667 Z" id="Fill-8" fill="#71CCDC" mask="url(#mask-2)"></path>
            <path d="M91.8918,92.5938667 L80.2771333,90.2712 L78.2238,87.2752 C77.8398,86.7145333 77.1131333,86.5025333 76.4884667,86.7712 L65.7538,91.3952 L65.6058,91.3312 L65.6058,131.368533 C65.6558,131.368533 65.7044667,131.3712 65.7538,131.3712 C79.1898,131.3712 91.6771333,127.313867 102.0618,120.362533 L102.0618,104.999867 C102.0618,98.9692 97.8051333,93.7765333 91.8918,92.5938667" id="Fill-9" fill="#3BC1D2" mask="url(#mask-2)"></path>
            <path d="M88.5179333,58.1939333 C88.6319333,57.1379333 88.6912667,56.0986 88.6912667,55.0832667 C88.6912667,41.6592667 78.4219333,30.7766 65.7539333,30.7766 C53.0859333,30.7766 42.8152667,41.6592667 42.8152667,55.0832667 C42.8152667,56.0986 42.8759333,57.1379333 42.9899333,58.1939333 C40.7639333,58.7719333 39.7052667,62.1946 40.6259333,65.8579333 C41.5472667,69.5326 44.1112667,72.0559333 46.3499333,71.4939333 C46.5539333,71.4432667 46.7446,71.3599333 46.9279333,71.2632667 C51.0726,79.5832667 57.9592667,86.3332667 65.7539333,86.3332667 C73.5486,86.3332667 80.4339333,79.5832667 84.5786,71.2632667 C84.7632667,71.3599333 84.9539333,71.4432667 85.1566,71.4939333 C87.3966,72.0559333 89.9599333,69.5326 90.8819333,65.8579333 C91.8012667,62.1946 90.7426,58.7719333 88.5179333,58.1939333" id="Fill-10" fill="#FDE8AE" mask="url(#mask-2)"></path>
            <path d="M88.5179333,58.1939333 C88.6319333,57.1379333 88.6912667,56.0986 88.6912667,55.0832667 C88.6912667,41.6592667 78.4219333,30.7766 65.7539333,30.7766 C65.7039333,30.7766 65.6546,30.7806 65.6059333,30.7806 L65.6059333,86.3299333 C65.6546,86.3306 65.7046,86.3332667 65.7539333,86.3332667 C73.5486,86.3332667 80.4339333,79.5832667 84.5786,71.2632667 C84.7632667,71.3612667 84.9539333,71.4432667 85.1566,71.4939333 C87.3966,72.0559333 89.9599333,69.5326 90.8819333,65.8579333 C91.8012667,62.1946 90.7426,58.7719333 88.5179333,58.1939333" id="Fill-11" fill="#E0C785" mask="url(#mask-2)"></path>
            <polygon id="Fill-12" fill="#386A96" mask="url(#mask-2)" points="65.7539333 123.6632 54.2772667 103.0712 65.7539333 91.6318667 77.2292667 103.0712"></polygon>
            <polygon id="Fill-13" fill="#234481" mask="url(#mask-2)" points="77.2294 103.071067 65.7540667 91.6317333 65.6060667 91.7790667 65.6060667 123.3984 65.7540667 123.663067"></polygon>
            <path d="M95.3983333,92.4938 L84.411,91.0891333 L65.7536667,102.947133 L47.051,91.1031333 L36.1096667,92.4938 C29.4023333,93.6838 24.575,98.9071333 24.575,104.975133 L24.575,117.012467 C35.845,126.078467 50.1636667,131.5078 65.7536667,131.5078 C81.343,131.5078 95.663,126.078467 106.933,117.012467 L106.933,104.976467 C106.933,98.9084667 102.105667,93.6838 95.3983333,92.4938" id="Fill-14" fill="#191B46" mask="url(#mask-2)"></path>
            <path d="M55.0433333,74.6094667 L47.6266667,60.9934667 L46.078,60.9934667 C46.078,60.9934667 47.1833333,67.3041333 47.1833333,72.9488 C47.1833333,78.5941333 53.0506667,89.4974667 63.7333333,89.4974667 L67.7746667,89.4974667 C78.456,89.4974667 84.3226667,78.5941333 84.3226667,72.9488 C84.3226667,67.3028 85.4306667,60.9934667 85.4306667,60.9934667 L83.88,60.9934667 L76.4633333,74.6094667 L55.0433333,74.6094667 Z" id="Fill-15" fill="#929497" mask="url(#mask-2)"></path>
            <path d="M83.8802667,60.9932667 L76.4629333,74.6092667 L65.6062667,74.6092667 L65.6062667,89.4972667 L67.7742667,89.4972667 C78.4562667,89.4972667 84.3229333,78.5939333 84.3229333,72.9492667 C84.3229333,67.3026 85.4302667,60.9932667 85.4302667,60.9932667 L83.8802667,60.9932667 Z" id="Fill-16" fill="#5F6363" mask="url(#mask-2)"></path>
            <path d="M74.0188,65.8692667 C72.1061333,65.8692667 70.5508,64.3126 70.5508,62.4012667 C70.5508,60.4886 72.1074667,58.9326 74.0188,58.9326 C75.9314667,58.9326 77.4881333,60.4886 77.4881333,62.4012667 C77.4881333,64.3126 75.9314667,65.8692667 74.0188,65.8692667 M57.4881333,65.8692667 C55.5754667,65.8692667 54.0201333,64.3126 54.0201333,62.4012667 C54.0201333,60.4886 55.5768,58.9326 57.4881333,58.9326 C59.4008,58.9326 60.9568,60.4886 60.9568,62.4012667 C60.9568,64.3126 59.4008,65.8692667 57.4881333,65.8692667 M84.9114667,55.6779333 C84.4794667,55.2452667 83.7788,55.2452667 83.3461333,55.6779333 L79.1168,59.9072667 C78.1914667,58.0219333 76.2561333,56.7192667 74.0188,56.7192667 C71.4228,56.7192667 69.2328,58.4699333 68.5568,60.8512667 L62.9508,60.8512667 C62.2734667,58.4699333 60.0841333,56.7192667 57.4894667,56.7192667 C55.2501333,56.7192667 53.3161333,58.0219333 52.3894667,59.9072667 L48.1608,55.6779333 C47.7281333,55.2452667 47.0268,55.2452667 46.5954667,55.6779333 C46.1628,56.1106 46.1628,56.8106 46.5954667,57.2432667 L51.8088,62.4566 C51.8388,65.5646 54.3734667,68.0832667 57.4894667,68.0832667 C60.3961333,68.0832667 62.7981333,65.8859333 63.1288,63.0652667 L68.3788,63.0652667 C68.7101333,65.8859333 71.1114667,68.0832667 74.0188,68.0832667 C77.1341333,68.0832667 79.6688,65.5646 79.6988,62.4566 L84.9128,57.2432667 C85.3434667,56.8106 85.3434667,56.1106 84.9114667,55.6779333" id="Fill-17" fill="#666769" mask="url(#mask-2)"></path>
            <path d="M74.0188,65.8692667 C72.1061333,65.8692667 70.5508,64.3126 70.5508,62.4012667 C70.5508,60.4886 72.1074667,58.9326 74.0188,58.9326 C75.9314667,58.9326 77.4881333,60.4886 77.4881333,62.4012667 C77.4881333,64.3126 75.9314667,65.8692667 74.0188,65.8692667 M84.9114667,55.6779333 C84.4794667,55.2452667 83.7788,55.2452667 83.3461333,55.6779333 L79.1168,59.9072667 C78.1914667,58.0219333 76.2561333,56.7192667 74.0188,56.7192667 C71.4228,56.7192667 69.2328,58.4699333 68.5568,60.8512667 L65.6061333,60.8512667 L65.6061333,63.0652667 L68.3788,63.0652667 C68.7088,65.8872667 71.1101333,68.0846 74.0188,68.0846 C77.1328,68.0846 79.6674667,65.5646 79.6988,62.4566 L84.9114667,57.2432667 C85.3434667,56.8106 85.3434667,56.1106 84.9114667,55.6779333" id="Fill-18" fill="#666769" mask="url(#mask-2)"></path>
            <path d="M51.6134667,42.6686 C51.6134667,42.6686 47.6128,43.0072667 49.1128,47.9379333 C50.6141333,52.8686 46.6468,66.4812667 46.6468,66.4812667 C46.6468,66.4812667 46.4221333,59.8746 42.9974667,58.1939333 C39.5721333,56.5119333 42.0654667,28.9659333 65.7541333,28.9659333 C89.4421333,28.9659333 91.9341333,56.5132667 88.5094667,58.1939333 C85.0854667,59.8746 84.8594667,66.4812667 84.8594667,66.4812667 C84.8594667,66.4812667 80.8941333,52.8672667 82.3941333,47.9379333 C83.8954667,43.0072667 79.8934667,42.6686 79.8934667,42.6686 C79.8934667,42.6686 66.7621333,47.6552667 51.6134667,42.6686" id="Fill-19" fill="#D8DADB" mask="url(#mask-2)"></path>
            <path d="M65.7539333,28.9659333 C65.7039333,28.9659333 65.6559333,28.9686 65.6059333,28.9686 L65.6059333,44.8812667 C74.0226,44.8932667 79.8946,42.6686 79.8946,42.6686 C79.8946,42.6686 83.8952667,43.0072667 82.3952667,47.9379333 C80.8939333,52.8686 84.8606,66.4812667 84.8606,66.4812667 C84.8606,66.4812667 85.0852667,59.8746 88.5106,58.1939333 C91.9359333,56.5132667 89.4419333,28.9659333 65.7539333,28.9659333" id="Fill-20" fill="#B0B2B4" mask="url(#mask-2)"></path>
            <path d="M60.8514667,73.6502 C57.4941333,75.8262 53.0654667,73.3175333 53.0654667,73.3175333 C53.0654667,73.3175333 55.4308,77.9128667 61.2214667,77.3395333 C63.5154667,77.1115333 64.9788,76.2262 65.6061333,75.2795333 L65.6061333,73.2715333 C64.9741333,72.3335333 63.8861333,71.6822 60.8514667,73.6502" id="Fill-21" fill="#AEB0B3" mask="url(#mask-2)"></path>
            <path d="M70.655,73.6502 C67.3716667,71.5208667 66.3656667,72.4562 65.7536667,73.5042 C65.7076667,73.4255333 65.6576667,73.3475333 65.6063333,73.2715333 L65.6063333,75.2795333 C65.6576667,75.2015333 65.7136667,75.1248667 65.7536667,75.0468667 C66.2843333,76.0782 67.807,77.0942 70.2863333,77.3395333 C76.077,77.9128667 78.4423333,73.3175333 78.4423333,73.3175333 C78.4423333,73.3175333 74.0136667,75.8262 70.655,73.6502" id="Fill-22" fill="#9A9C9E" mask="url(#mask-2)"></path>
        </g>
    </g>
</svg>