<?xml version="1.0" encoding="UTF-8"?>
<svg width="132px" height="132px" viewBox="0 0 132 132" version="1.1" xmlns="http://www.w3.org/2000/svg" xmlns:xlink="http://www.w3.org/1999/xlink">
    <!-- Generator: Sketch 49.1 (51147) - http://www.bohemiancoding.com/sketch -->
    <title>Icon / Avatar / Female / j-avatar-8</title>
    <desc>Created with Sketch.</desc>
    <defs>
        <polygon id="path-1" points="0 0 132 0 132 131 0 131"></polygon>
        <polygon id="path-3" points="0 131 132 131 132 0 0 0"></polygon>
    </defs>
    <g id="Icon-/-Avatar-/-Female-/-j-avatar-8" stroke="none" stroke-width="1" fill="none" fill-rule="evenodd">
        <g id="Group-32" transform="translate(0.000000, 1.000000)">
            <g id="Group-3">
                <mask id="mask-2" fill="white">
                    <use xlink:href="#path-1"></use>
                </mask>
                <g id="Clip-2"></g>
                <path d="M132,65.5 C132,101.67376 102.449859,131 66,131 C29.5488031,131 0,101.67376 0,65.5 C0,29.3248815 29.5488031,0 66,0 C102.449859,0 132,29.3248815 132,65.5" id="Fill-1" fill="#F49D75" mask="url(#mask-2)"></path>
            </g>
            <polygon id="Fill-4" fill="#C97F62" points="32 58 67.1112376 93 71 64.2146007"></polygon>
            <path d="M58,94.2697896 L90.1541541,126 C114.681283,116.274289 132,92.5861653 132,64.9049793 C132,64.1740666 131.982417,63.4472486 131.959424,62.7211131 L108.230975,39.4506543 L99.1242609,39.9993507 L78.1874743,23 L58,94.2697896 Z" id="Fill-6" fill="#C17A5E"></path>
            <mask id="mask-4" fill="white">
                <use xlink:href="#path-3"></use>
            </mask>
            <g id="Clip-9"></g>
            <polygon id="Fill-8" fill="#FDCB86" mask="url(#mask-4)" points="55 99 77 99 77 75 55 75"></polygon>
            <polygon id="Fill-10" fill="#D5A565" mask="url(#mask-4)" points="66 99 77 99 77 75 66 75"></polygon>
            <path d="M91.776314,91.9583824 L80.1003351,89.6280194 L78.0368327,86.6218716 C77.6508056,86.0589457 76.9196328,85.8469079 76.2916686,86.1157171 L65.5003351,96.8667138 L54.7740096,86.119821 C54.1500666,85.8496439 53.4209043,86.0534737 53.0301859,86.6081918 L50.9010053,89.6280194 L39.2250264,91.9583824 C33.279137,93.1444257 29,98.3537139 29,104.404997 L29,120.03423 C39.4595915,126.961023 52.0061418,131 65.5003351,131 C78.9945283,131 91.5404085,126.961023 102,120.03423 L102,104.404997 C102,98.3537139 97.720863,93.1444257 91.776314,91.9583824" id="Fill-11" fill="#B47E59" mask="url(#mask-4)"></path>
            <path d="M91.9572087,91.9583824 L80.4878209,89.6280194 L78.4608295,86.6218716 C78.0816327,86.0589457 77.363397,85.8469079 76.7465438,86.1157171 L66.1461488,96.8667138 L66,96.7182874 L66,130.997264 C66.0487163,130.997264 66.0967742,131 66.1461488,131 C79.4002633,131 91.7254773,126.961023 102,120.032862 L102,104.404997 C102,98.3537139 97.7965767,93.1444257 91.9572087,91.9583824" id="Fill-12" fill="#745137" mask="url(#mask-4)"></path>
            <path d="M89.1938918,52.128841 C89.3128181,51.0458423 89.3746329,49.9784215 89.3746329,48.936738 C89.3746329,35.1632168 78.6853735,24 65.5006768,24 C52.3146364,24 41.624705,35.1632168 41.624705,48.936738 C41.624705,49.9784215 41.6865198,51.0458423 41.8054461,52.128841 C39.4900782,52.7214763 38.388162,56.2339409 39.3449478,59.9922646 C40.3050931,63.7634568 42.9725367,66.3514104 45.3040302,65.774353 C45.5163507,65.7222011 45.7138893,65.6375389 45.9060527,65.5393308 C50.2196517,74.0753107 57.3868106,81 65.5006768,81 C73.6138711,81 80.78103,74.0753107 85.094629,65.5393308 C85.2854486,65.6375389 85.4843311,65.7222011 85.6966515,65.774353 C88.0274731,66.3514104 90.6955886,63.7634568 91.6550621,59.9922646 C92.6118479,56.2339409 91.5099316,52.7214763 89.1938918,52.128841" id="Fill-13" fill="#FDE8AE" mask="url(#mask-4)"></path>
            <path d="M89.2621778,52.128841 C89.3782101,51.0458423 89.4385207,49.9784215 89.4385207,48.936738 C89.4385207,35.1632168 79.009382,24 66.145532,24 C66.0963658,24 66.0491662,24.0020319 66,24.0033865 L66,80.9966135 C66.0478551,80.9966135 66.0963658,81 66.145532,81 C74.0612935,81 81.0540412,74.0753107 85.2626697,65.5393308 C85.4488458,65.6388935 85.6428884,65.7222011 85.8500421,65.7757076 C88.1241437,66.3514104 90.7273312,63.7634568 91.663456,59.9929418 C92.5969587,56.2339409 91.5218573,52.7214763 89.2621778,52.128841" id="Fill-14" fill="#E0C785" mask="url(#mask-4)"></path>
            <path d="M61,101.423141 L63.8078099,104.882211 L63.8078099,130.962527 C64.5359922,130.985011 65.2648694,131 66,131 C66.7330461,131 67.4640078,130.985011 68.1921901,130.962527 L68.1921901,104.882211 L71,101.423141 L66,97 L61,101.423141 Z" id="Fill-15" fill="#BF4F40" mask="url(#mask-4)"></path>
            <path d="M66.149636,97 L66,97.1369457 L66,130.997275 C66.0492046,130.997275 66.0990833,131 66.149636,131 C66.8607441,131 67.5698301,130.985011 68.27622,130.96389 L68.27622,104.882211 L71,101.423141 L66.149636,97 Z" id="Fill-16" fill="#8E1539" mask="url(#mask-4)"></path>
            <path d="M61,101.303875 L63.8971896,104.777214 L63.8971896,130.965109 C64.5954976,130.984949 65.2973903,130.997948 66,131 L66,97 L61,101.303875 Z" id="Fill-17" fill="#BF4F40" mask="url(#mask-4)"></path>
            <path d="M65,96.7725169 L54.0215353,83.3903185 C53.5550008,82.868746 52.708759,82.8701258 52.2435204,83.3930782 L48,89.8465031 L57.1531483,102.108286 C57.9151547,103.270786 59.6789145,103.302522 60.4875743,102.168999 L65,96.7725169 Z" id="Fill-18" fill="#E44A25" mask="url(#mask-4)"></path>
            <path d="M66,96.7725169 L76.9777761,83.3903185 C77.4463081,82.868746 78.2926467,82.8701258 78.7579385,83.3930782 L83,89.8465031 L73.847101,102.108286 C73.0843594,103.270786 71.320398,103.302522 70.5116456,102.168999 L66,96.7725169 Z" id="Fill-19" fill="#E44A25" mask="url(#mask-4)"></path>
            <path d="M42,47 C42,47 46.6056257,13.3679644 65.5003307,22.6059397 C84.395697,13.3679644 89,47 89,47 L42,47 Z" id="Fill-20" fill="#FADC86" mask="url(#mask-4)"></path>
            <path d="M66.1490183,22.6054483 C66.0986743,22.5817116 66.050344,22.5620441 66,22.5383073 L66,47 L90,47 C90,47 85.3267327,13.369157 66.1490183,22.6054483" id="Fill-21" fill="#FEC333" mask="url(#mask-4)"></path>
            <path d="M44.38482,37 C42.6315871,42.3663528 42,47 42,47 L89,47 C89,47 88.3677516,42.3663528 86.6158414,37 L44.38482,37 Z" id="Fill-22" fill="#BF4F40" mask="url(#mask-4)"></path>
            <path d="M87.5808021,37 L66,37 L66,47 L90,47 C90,47 89.3602954,42.3663528 87.5808021,37" id="Fill-23" fill="#8E1539" mask="url(#mask-4)"></path>
            <path d="M66.0006686,43.8721803 C47.9425941,43.8721803 23,34.9723368 23,41.2296723 C23,44.970653 29.8798395,59.9372601 40.4837516,62 C40.60343,59.7037424 41.5922816,57.8993483 43.1708337,57.4967315 C43.0551668,56.4573093 42.9956619,55.4339916 42.9956619,54.43416 C42.9956619,53.8523788 43.0230743,53.2773079 43.0625214,52.7055921 C48.0796561,49.5651813 56.4792114,47.5037835 66.0006686,47.5037835 C75.5207886,47.5037835 83.9210125,49.5645103 88.9388158,52.7055921 C88.9775943,53.2773079 89.0043381,53.8523788 89.0043381,54.43416 C89.0043381,55.4339916 88.9448332,56.4573093 88.8305035,57.4967315 C90.4077184,57.8993483 91.3979071,59.7037424 91.516917,62 C102.121498,59.9372601 109,44.969311 109,41.2296723 C109.001337,34.9723368 84.6524551,43.8721803 66.0006686,43.8721803" id="Fill-24" fill="#FEC333" mask="url(#mask-4)"></path>
            <path d="M66.1479197,43.8716818 L66,43.8716818 L66,47.507142 C66.0499729,47.507142 66.0979469,47.504458 66.1479197,47.504458 C75.6354381,47.504458 84.0068955,49.5644179 89.0075153,52.7046825 C89.046161,53.2763717 89.0728132,53.8514159 89.0728132,54.4345121 C89.0728132,55.4329552 89.013512,56.4575672 88.8995739,57.4955991 C90.4713876,57.8988681 91.4581855,59.7038493 91.5767878,62 C102.145053,59.9360141 109,44.9701034 109,41.2299678 C109.001333,34.9722524 84.7358333,43.8716818 66.1479197,43.8716818" id="Fill-25" fill="#CF8A27" mask="url(#mask-4)"></path>
            <path d="M69,31.5 C69,33.4327309 67.6566558,35 66.0003387,35 C64.3433442,35 63,33.4327309 63,31.5 C63,29.5672691 64.3433442,28 66.0003387,28 C67.6566558,28 69,29.5672691 69,31.5" id="Fill-26" fill="#FEC333" mask="url(#mask-4)"></path>
            <path d="M66.1432258,28 C66.0948387,28 66.0470968,28.0063253 66,28.0091365 L66,34.9908635 C66.0470968,34.9929719 66.0948387,35 66.1432258,35 C67.7212903,35 69,33.4327309 69,31.5 C69,29.5672691 67.7212903,28 66.1432258,28" id="Fill-27" fill="#CF8A27" mask="url(#mask-4)"></path>
            <path d="M89,107 C89,109.761099 87.2090498,112 84.999683,112 C82.7903162,112 81,109.761099 81,107 C81,104.238901 82.7903162,102 84.999683,102 C87.2090498,102 89,104.238901 89,107" id="Fill-28" fill="#FEC333" mask="url(#mask-4)"></path>
            <path d="M66,48 C66,48 81.3723864,52.1322387 80.5188947,66 C85.2972221,60.7175505 89,53.1566452 89,53.1566452 C89,53.1566452 83.8082094,48.3441314 66,48" id="Fill-29" fill="#64422B" mask="url(#mask-4)"></path>
            <path d="M83.9677023,66 C83.9677023,66 87.7085458,72.904614 80.9478772,79.4437457 C78.6381848,81.9243882 76.314405,84 76.314405,84 L76,77.1499356 C76,77.1499356 81.7815948,72.6789151 83.9677023,66" id="Fill-30" fill="#442815" mask="url(#mask-4)"></path>
            <path d="M51,49 C51,49 47.536904,54.1281015 48.1561071,60 C44.6708034,58.752699 43.1032005,57.5074815 43.1032005,57.5074815 L43,52.5488352 C43,52.5488352 45.2011757,50.2452175 51,49" id="Fill-31" fill="#64422B" mask="url(#mask-4)"></path>
        </g>
    </g>
</svg>