
<svg width="74px" height="75px" viewBox="0 0 74 75" version="1.1" xmlns="http://www.w3.org/2000/svg" xmlns:xlink="http://www.w3.org/1999/xlink">
    <!-- Generator: Sketch 51.2 (57519) - http://www.bohemiancoding.com/sketch -->
    <desc>Created with Sketch.</desc>
    <defs>
        <polygon id="path-1" points="0 0.278140704 73.2954173 0.278140704 73.2954173 74.6230779 0 74.6230779"></polygon>
        <polygon id="path-3" points="0.103357753 0.167374372 12.7715656 0.167374372 12.7715656 11.3065327 0.103357753 11.3065327"></polygon>
    </defs>
    <g id="D.-Personalise-screens" stroke="none" stroke-width="1" fill="none" fill-rule="evenodd">
        <g id="Personalise---Landing-Page---A-width" transform="translate(-124.000000, -150.000000)">
            <g id="Stacked-Group" transform="translate(21.000000, 150.000000)">
                <g id="Icon-/-Avatar-/-Male-/-j-avatar-3" transform="translate(102.000000, 0.000000)">
                    <g id="Group-35" transform="translate(1.704545, 0.000000)">
                        <g id="Group-3" transform="translate(0.000000, 0.098744)">
                            <mask id="mask-2" fill="white">
                                <use xlink:href="#path-1"></use>
                            </mask>
                            <g id="Clip-2"></g>
                            <path d="M73.2954173,37.4505905 C73.2954173,57.9798618 56.886909,74.6230779 36.6476901,74.6230779 C16.4073549,74.6230779 -3.72058145e-05,57.9798618 -3.72058145e-05,37.4505905 C-3.72058145e-05,16.9209422 16.4073549,0.278103015 36.6476901,0.278103015 C56.886909,0.278103015 73.2954173,16.9209422 73.2954173,37.4505905" id="Fill-1" fill="#1B8C92" mask="url(#mask-2)"></path>
                        </g>
                        <path d="M34.9610017,34.6708794 C34.9610017,34.6708794 36.9489083,62.7446231 37.9757888,74.6948744 C54.8259301,74.0850754 68.7769944,61.9407286 72.3859584,45.8085678 L51.8249091,24.9532915 L34.9610017,34.6708794 Z" id="Fill-4" fill="#075558"></path>
                        <path d="M54.1071882,37.0771357 L19.187671,37.0771357 C16.813568,37.0771357 14.8892833,39.0290201 14.8892833,41.4369347 L14.8892833,64.7853015 C20.9746663,69.3467337 28.5002864,72.0452261 36.6476157,72.0452261 C44.795317,72.0452261 52.320565,69.3467337 58.405948,64.7853015 L58.405948,41.4376884 C58.405948,39.0290201 56.4816633,37.0771357 54.1071882,37.0771357" id="Fill-6" fill="#87898C"></path>
                        <path d="M54.1071882,37.0771357 L36.5653908,37.0771357 L36.5653908,72.0440955 C36.592551,72.0440955 36.6204554,72.0448492 36.6476157,72.0448492 C44.795317,72.0448492 52.320565,69.3463568 58.405948,64.7845477 L58.405948,41.4376884 C58.405948,39.0290201 56.4816633,37.0771357 54.1071882,37.0771357" id="Fill-8" fill="#6C6D70"></path>
                        <path d="M53.0665044,48.120603 L45.7700721,46.8075377 L44.4805186,45.1138191 C44.2394249,44.7968593 43.7832816,44.6770101 43.3900162,44.8285176 L36.6475784,44.5869347 L29.944951,44.8307789 C29.5557781,44.6777638 29.1000069,44.7923367 28.8551927,45.1059045 L27.5250848,46.8075377 L20.2290246,48.120603 C16.5143961,48.789196 13.8400421,51.7247487 13.8400421,55.1340452 L13.8400421,66.6448492 C20.0995483,71.6992462 28.0247589,74.7218593 36.6468343,74.7218593 C45.2689098,74.7218593 53.1948644,71.6992462 59.4543707,66.6448492 L59.4543707,55.1340452 C59.4543707,51.7251256 56.7807608,48.789196 53.0665044,48.120603" id="Fill-10" fill="#EDEEEE"></path>
                        <path d="M53.0657603,48.120603 L45.7700721,46.8075377 L44.4805186,45.1138191 C44.2394249,44.7968593 43.7832816,44.6770101 43.3900162,44.8285176 L36.6475784,44.5869347 L36.5653536,44.5899497 L36.5653536,74.7203518 C36.5925138,74.7203518 36.6196741,74.7218593 36.6475784,74.7218593 C45.2696539,74.7218593 53.1956086,71.6992462 59.4543707,66.6448492 L59.4543707,55.134799 C59.4543707,51.7251256 56.7807608,48.789196 53.0657603,48.120603" id="Fill-12" fill="#C3C5C7"></path>
                        <path d="M51.5565436,47.8490578 L45.7702953,46.8077261 L44.4807418,45.1136307 C44.2396481,44.7970477 43.7831328,44.6771985 43.3902394,44.828706 L36.6478017,44.5867462 L29.9451742,44.8309673 C29.5556293,44.6783291 29.0998581,44.7932789 28.8554159,45.106093 L27.5241919,46.8077261 L21.7379436,47.8490578 C23.8966249,50.1740578 26.9568032,51.6265704 30.353322,51.6265704 L42.9415373,51.6265704 C46.337684,51.6265704 49.3982343,50.1740578 51.5565436,47.8490578" id="Fill-14" fill="#CBCDCF"></path>
                        <path d="M45.7702209,46.8075754 L44.4806674,45.1138568 C44.2395737,44.796897 43.7830584,44.6770477 43.390165,44.8285553 L36.6477273,44.5869724 L36.5651304,44.5896106 L36.5651304,51.6267965 L42.9414629,51.6267965 C46.3387258,51.6267965 49.3981599,50.173907 51.5564692,47.848907 L45.7702209,46.8075754 Z" id="Fill-16" fill="#929497"></path>
                        <path d="M42.9415373,48.3730779 L30.353322,48.3730779 C23.8162604,48.3730779 18.5170362,42.9983291 18.5170362,36.3674246 L18.5170362,33.8449372 C18.5170362,25.7279774 25.0046141,19.148706 33.0057245,19.148706 L40.2880186,19.148706 C48.2902452,19.148706 54.777451,25.7279774 54.777451,33.8449372 L54.777451,36.3666709 C54.777451,42.9983291 49.4785989,48.3730779 42.9415373,48.3730779" id="Fill-18" fill="#EDEEEE"></path>
                        <path d="M40.2887255,19.1485176 L36.5651676,19.1485176 L36.5651676,48.3728894 L42.9415001,48.3728894 C49.4785617,48.3728894 54.7774138,42.9981407 54.7774138,36.3676131 L54.7774138,33.8455025 C54.7774138,25.7281658 48.2909521,19.1485176 40.2887255,19.1485176" id="Fill-20" fill="#DADBDD"></path>
                        <path d="M25.6064181,29.3172362 C24.1259988,29.3172362 22.8312364,30.3367085 22.4707121,31.7929899 C22.2210611,32.8011558 22.0889804,33.8560553 22.0889804,34.9429899 C22.0889804,40.7696231 26.7456602,45.4938693 32.49061,45.4938693 L40.8038772,45.4938693 C46.5491991,45.4938693 51.2055067,40.7696231 51.2055067,34.9429899 C51.2055067,33.8560553 51.0734261,32.8011558 50.8241472,31.7929899 C50.4639949,30.3367085 49.1688605,29.3172362 47.6884411,29.3172362 L25.6064181,29.3172362 Z" id="Fill-22" fill="#89D0C7"></path>
                        <path d="M50.8239611,31.7936683 C50.4641809,30.3366332 49.1686744,29.3179146 47.6882551,29.3179146 L36.5652048,29.3179146 L36.5652048,45.4945477 L40.8036912,45.4945477 C46.549013,45.4945477 51.2064369,40.7703015 51.2064369,34.9440452 C51.2064369,33.8567337 51.0736121,32.8010804 50.8239611,31.7936683" id="Fill-24" fill="#37A3A8"></path>
                        <path d="M24.0615955,72.471407 C27.9864369,73.9269347 32.2260395,74.7217839 36.6475784,74.7217839 C41.0694895,74.7217839 45.3083479,73.9269347 49.2339334,72.471407 L49.2339334,66.1691457 C49.2339334,64.7403769 48.0917149,63.5825879 46.6838469,63.5825879 L26.6120541,63.5825879 C25.203814,63.5825879 24.0615955,64.7403769 24.0615955,66.1691457 L24.0615955,72.471407 Z" id="Fill-26" fill="#C1C3C5"></path>
                        <g id="Group-30" transform="translate(36.461698, 63.415327)">
                            <mask id="mask-4" fill="white">
                                <use xlink:href="#path-3"></use>
                            </mask>
                            <g id="Clip-29"></g>
                            <path d="M10.221479,0.167374372 L0.103357753,0.167374372 L0.103357753,11.3050628 C0.130890055,11.3050628 0.1580503,11.3065704 0.185210545,11.3065704 C4.6071216,11.3065704 8.8463521,10.5117211 12.7715655,9.05619347 L12.7715655,2.75393216 C12.7719376,1.32516332 11.6300911,0.167374372 10.221479,0.167374372" id="Fill-28" fill="#929497" mask="url(#mask-4)"></path>
                        </g>
                        <path d="M51.8249836,47.8973744 L51.8249836,71.3915955 C52.8812566,70.903907 53.9099974,70.3649623 54.9097176,69.7807915 L54.9097176,48.671495 C54.3322834,48.4253894 53.7157831,48.2384548 53.0665416,48.1212437 L51.8249836,47.8973744 Z" id="Fill-31" fill="#929497"></path>
                        <path d="M18.3856997,48.6714573 L18.3856997,69.7807538 C19.3854199,70.3649246 20.4141607,70.9038693 21.4704338,71.3915578 L21.4704338,47.8973367 L20.2288757,48.1204523 C19.5796343,48.2376633 18.9623898,48.4253518 18.3856997,48.6714573" id="Fill-33" fill="#C1C3C5"></path>
                    </g>
                </g>
            </g>
        </g>
    </g>
</svg>