<?xml version="1.0" encoding="UTF-8"?>
<svg width="132px" height="132px" viewBox="0 0 132 132" version="1.1" xmlns="http://www.w3.org/2000/svg" xmlns:xlink="http://www.w3.org/1999/xlink">
    <!-- Generator: Sketch 51.2 (57519) - http://www.bohemiancoding.com/sketch -->
    <title>Icon / Avatar / Male / j-avatar-9</title>
    <desc>Created with Sketch.</desc>
    <defs>
        <polygon id="path-1" points="6.66666667e-05 0.48959397 131.508 0.48959397 131.508 131.336683 6.66666667e-05 131.336683"></polygon>
        <polygon id="path-3" points="0 131.510472 131.508 131.510472 131.508 0.663316583 0 0.663316583"></polygon>
    </defs>
    <g id="Icon-/-Avatar-/-Male-/-j-avatar-9" stroke="none" stroke-width="1" fill="none" fill-rule="evenodd">
        <g id="Group-21">
            <g id="Group-3" transform="translate(0.000000, 0.173789)">
                <mask id="mask-2" fill="white">
                    <use xlink:href="#path-1"></use>
                </mask>
                <g id="Clip-2"></g>
                <path d="M131.508067,65.9131719 C131.508067,102.044689 102.068067,131.33675 65.7540667,131.33675 C29.4387333,131.33675 6.66666667e-05,102.044689 6.66666667e-05,65.9131719 C6.66666667e-05,29.7803276 29.4387333,0.48959397 65.7540667,0.48959397 C102.068067,0.48959397 131.508067,29.7803276 131.508067,65.9131719" id="Fill-1" fill="#075558" mask="url(#mask-2)"></path>
            </g>
            <path d="M49.5554667,108.490004 L72.3608,131.182064 C101.617467,128.277401 125.223467,106.292436 130.4328,77.9150894 L82.5748,30.2975819 L49.5554667,108.490004 Z" id="Fill-4" fill="#003A3D"></path>
            <mask id="mask-4" fill="white">
                <use xlink:href="#path-3"></use>
            </mask>
            <g id="Clip-7"></g>
            <polygon id="Fill-6" fill="#FDCB86" mask="url(#mask-4)" points="54.7953333 97.1506734 76.7126667 97.1506734 76.7126667 75.3421508 54.7953333 75.3421508"></polygon>
            <polygon id="Fill-8" fill="#D5A565" mask="url(#mask-4)" points="65.6073333 97.1506734 76.7126667 97.1506734 76.7126667 75.3421508 65.6073333 75.3421508"></polygon>
            <path d="M91.8917333,92.7922191 L80.2770667,90.4812241 L78.2244,87.4996161 C77.8404,86.9417668 77.1130667,86.7314955 76.4884,86.9981487 L65.7537333,91.5989126 L55.0837333,87.0021286 C54.4630667,86.7334854 53.7377333,86.935797 53.3490667,87.4863497 L51.2310667,90.4812241 L39.6164,92.7922191 C33.7017333,93.9702693 29.4450667,99.1361789 29.4450667,105.135877 L29.4450667,120.635596 C39.8497333,127.504903 52.3304,131.510671 65.7537333,131.510671 C79.1757333,131.510671 91.6570667,127.504903 102.061733,120.634269 L102.061733,105.135877 C102.061733,99.1348523 97.8050667,93.9689427 91.8917333,92.7922191" id="Fill-9" fill="#F38059" mask="url(#mask-4)"></path>
            <path d="M91.8917333,92.7922191 L80.2770667,90.4812241 L78.2244,87.4996161 C77.8404,86.9417668 77.1130667,86.7314955 76.4884,86.9981487 L65.7537333,91.5989126 L65.6064,91.5352342 L65.6064,131.508018 C65.6550667,131.508018 65.7050667,131.510671 65.7537333,131.510671 C79.1757333,131.510671 91.6570667,127.504903 102.061733,120.635596 L102.061733,105.135877 C102.061733,99.1348523 97.8050667,93.9689427 91.8917333,92.7922191" id="Fill-10" fill="#F06134" mask="url(#mask-4)"></path>
            <path d="M89.2628,53.1655538 C89.3808,52.0810312 89.4421333,51.0117648 89.4421333,49.9683678 C89.4421333,36.1746995 78.8361333,24.9938352 65.7528,24.9938352 C52.6708,24.9938352 42.0641333,36.1746995 42.0641333,49.9683678 C42.0641333,51.0117648 42.1254667,52.0810312 42.2434667,53.1655538 C39.9461333,53.7592221 38.8528,57.2767899 39.8021333,61.0404482 C40.7554667,64.8173729 43.4014667,67.4096141 45.7148,66.8318653 C45.9254667,66.7794633 46.1214667,66.6945588 46.3121333,66.5963879 C50.5921333,75.1445487 57.7034667,82.0801869 65.7541333,82.0801869 C73.8041333,82.0801869 80.9154667,75.1445487 85.1954667,66.5963879 C85.3848,66.6945588 85.5821333,66.7794633 85.7928,66.8318653 C88.1054667,67.4096141 90.7528,64.8173729 91.7048,61.0404482 C92.6541333,57.2767899 91.5608,53.7592221 89.2628,53.1655538" id="Fill-11" fill="#FDE8AE" mask="url(#mask-4)"></path>
            <path d="M89.2628,53.1655538 C89.3808,52.0810312 89.4421333,51.0117648 89.4421333,49.9683678 C89.4421333,36.1746995 78.8361333,24.9938352 65.7528,24.9938352 C65.7041333,24.9938352 65.6548,24.9964884 65.6061333,24.9978151 L65.6061333,82.0768704 C65.6548,82.0768704 65.7041333,82.0801869 65.7528,82.0801869 C73.8028,82.0801869 80.9141333,75.1445487 85.1948,66.5950613 C85.3848,66.6945588 85.5821333,66.7794633 85.7928,66.8318653 C88.1054667,67.4096141 90.7514667,64.8167095 91.7048,61.0404482 C92.6541333,57.2767899 91.5608,53.7592221 89.2628,53.1655538" id="Fill-12" fill="#E0C785" mask="url(#mask-4)"></path>
            <polygon id="Fill-13" fill="#B06B5E" mask="url(#mask-4)" points="65.754 114.283809 54.2773333 103.216372 65.754 91.8351859 77.2293333 103.216372"></polygon>
            <polygon id="Fill-14" fill="#80433A" mask="url(#mask-4)" points="77.2294 103.216505 65.7540667 91.8353186 65.6060667 91.9812482 65.6060667 114.141329 65.7540667 114.283942"></polygon>
            <path d="M82.8454667,90.9914472 L65.7541333,110.505558 L48.6621333,90.9914472 L39.4554667,92.692191 C39.3141333,92.7207136 39.1781333,92.7625025 39.0394667,92.7943417 L39.0394667,125.87394 C47.2028,129.491005 56.2401333,131.510141 65.7541333,131.510141 C75.0948,131.510141 83.9788,129.568613 92.0261333,126.074925 L92.0261333,92.6875477 L82.8454667,90.9914472 Z" id="Fill-15" fill="#F06134" mask="url(#mask-4)"></path>
            <path d="M82.8454667,90.9914472 L65.7541333,110.505558 L65.6061333,110.337075 L65.6061333,131.508151 C65.6548,131.508151 65.7048,131.508814 65.7541333,131.508814 C75.0948,131.508814 83.9788,129.567286 92.0261333,126.073598 L92.0261333,92.6875477 L82.8454667,90.9914472 Z" id="Fill-16" fill="#EE363F" mask="url(#mask-4)"></path>
            <path d="M76.1886,62.2497407 C73.6866,62.2497407 69.8272667,60.6352281 69.8272667,58.4887357 C69.8272667,57.4055397 70.4232667,56.1618211 75.0699333,56.1618211 C78.7019333,56.1618211 79.3652667,56.9465246 79.3652667,58.4887357 C79.3652667,61.8590472 77.5519333,62.2497407 76.1886,62.2497407 M54.4339333,62.2072884 C52.9539333,62.2072884 51.2559333,61.7840925 51.2559333,58.4900623 C51.2559333,56.9465246 51.9206,56.1631477 55.5512667,56.1631477 C60.1979333,56.1631477 60.7939333,57.4055397 60.7939333,58.4900623 C60.7939333,60.6100221 56.9359333,62.2072884 54.4339333,62.2072884 M87.7906,50.7312482 C87.3579333,50.3014191 86.6566,50.3014191 86.2252667,50.7312482 L80.9252667,56.0039518 C79.5932667,53.9616 76.5632667,53.9589467 75.0699333,53.9589467 C73.4792667,53.9589467 69.0899333,53.9616 67.9112667,56.8675899 L62.7112667,56.8675899 C61.5326,53.9616 57.1426,53.9589467 55.5526,53.9589467 C54.0592667,53.9589467 51.0292667,53.9616 49.6986,56.0039518 L44.3966,50.7312482 C43.9659333,50.3014191 43.2646,50.3014191 42.8319333,50.7312482 C42.3999333,51.1610774 42.3999333,51.8588864 42.8319333,52.2880523 L49.0432667,58.4688362 L49.0432667,58.4887357 C49.0432667,62.2510673 51.0086,64.4088362 54.4339333,64.4088362 C57.8212667,64.4088362 62.4706,62.3930171 62.9632667,59.0704643 L67.6599333,59.0704643 C68.1492667,62.4195497 72.8012667,64.4526151 76.1899333,64.4526151 C79.6159333,64.4526151 81.5799333,62.2782633 81.5799333,58.4887357 L81.5799333,58.4688362 L87.7919333,52.2880523 C88.2219333,51.8588864 88.2219333,51.1610774 87.7906,50.7312482" id="Fill-17" fill="#666769" mask="url(#mask-4)"></path>
            <path d="M76.1886,62.2497407 C73.6866,62.2497407 69.8272667,60.6352281 69.8272667,58.4887357 C69.8272667,57.4055397 70.4232667,56.1618211 75.0699333,56.1618211 C78.7019333,56.1618211 79.3652667,56.9465246 79.3652667,58.4887357 C79.3652667,61.8590472 77.5519333,62.2497407 76.1886,62.2497407 M87.7906,50.7312482 C87.3579333,50.3014191 86.6566,50.3014191 86.2252667,50.7312482 L80.9252667,56.0039518 C79.5932667,53.9616 76.5632667,53.9589467 75.0699333,53.9589467 C73.4792667,53.9589467 69.0899333,53.9616 67.9112667,56.8675899 L65.6059333,56.8675899 L65.6059333,59.0704643 L67.6586,59.0704643 C68.1492667,62.4195497 72.7999333,64.4526151 76.1886,64.4526151 C79.6146,64.4526151 81.5799333,62.2782633 81.5799333,58.4887357 C81.5799333,58.4827658 81.5786,58.4761327 81.5786,58.4688362 L87.7906,52.2893789 C88.2219333,51.8588864 88.2219333,51.1610774 87.7906,50.7312482" id="Fill-18" fill="#58585B" mask="url(#mask-4)"></path>
            <path d="M58.5210667,40.9753206 L87.9670667,58.0457729 C87.9670667,58.0457729 97.4864,32.9339337 72.5424,24.8202452 C52.0370667,18.150597 49.1490667,31.5024965 49.1490667,31.5024965 C49.1490667,31.5024965 36.4444,32.2401045 42.2437333,53.1657528 C42.2437333,53.1657528 53.8724,49.4916422 58.5210667,40.9753206" id="Fill-19" fill="#CF8A27" mask="url(#mask-4)"></path>
            <path d="M72.5426,24.8204442 C69.9612667,23.9806854 67.6586,23.4593186 65.6059333,23.1873588 L65.6059333,45.0821126 L87.9672667,58.0459719 C87.9672667,58.0472985 97.4866,32.9341327 72.5426,24.8204442" id="Fill-20" fill="#926021" mask="url(#mask-4)"></path>
        </g>
    </g>
</svg>