<?xml version="1.0" encoding="UTF-8"?>
<svg width="132px" height="132px" viewBox="0 0 132 132" version="1.1" xmlns="http://www.w3.org/2000/svg" xmlns:xlink="http://www.w3.org/1999/xlink">
    <!-- Generator: Sketch 51.2 (57519) - http://www.bohemiancoding.com/sketch -->
    <title>Icon / Avatar / Male / j-avatar-2</title>
    <desc>Created with Sketch.</desc>
    <defs>
        <polygon id="path-1" points="0.244133333 0.417666667 78.1746667 0.417666667 78.1746667 108.591 0.244133333 108.591"></polygon>
        <polygon id="path-3" points="0 131.508 131.508 131.508 131.508 0 0 0"></polygon>
    </defs>
    <g id="Icon-/-Avatar-/-Male-/-j-avatar-2" stroke="none" stroke-width="1" fill="none" fill-rule="evenodd">
        <g id="Group-23">
            <path d="M131.508,65.754 C131.508,102.068 102.068,131.508 65.754,131.508 C29.4386667,131.508 0,102.068 0,65.754 C0,29.4386667 29.4386667,0 65.754,0 C102.068,0 131.508,29.4386667 131.508,65.754" id="Fill-1" fill="#89D0C7"></path>
            <g id="Group-5" transform="translate(53.333333, 19.508000)">
                <mask id="mask-2" fill="white">
                    <use xlink:href="#path-1"></use>
                </mask>
                <g id="Clip-4"></g>
                <path d="M78.1194667,43.6823333 L34.8548,0.417666667 L0.244133333,75.4703333 L33.3648,108.591 C59.4114667,99.8443333 78.1748,75.237 78.1748,46.2456667 C78.1748,45.387 78.1521333,44.533 78.1194667,43.6823333" id="Fill-3" fill="#3DB3B8" mask="url(#mask-2)"></path>
            </g>
            <mask id="mask-4" fill="white">
                <use xlink:href="#path-3"></use>
            </mask>
            <g id="Clip-7"></g>
            <polygon id="Fill-6" fill="#A6875E" mask="url(#mask-4)" points="54.7953333 96.9746667 76.7133333 96.9746667 76.7133333 75.056 54.7953333 75.056"></polygon>
            <polygon id="Fill-8" fill="#836A48" mask="url(#mask-4)" points="65.8293333 96.9746667 76.714 96.9746667 76.714 75.056 65.8293333 75.056"></polygon>
            <path d="M91.8918,92.5938667 L80.2771333,90.2712 L78.2244667,87.2752 C77.8398,86.7145333 77.1131333,86.5025333 76.4884667,86.7712 L65.7538,91.3952 L55.0838,86.7745333 C54.4631333,86.5052 53.7378,86.7078667 53.3491333,87.2612 L51.2304667,90.2712 L39.6164667,92.5938667 C33.7018,93.7778667 29.4451333,98.9698667 29.4451333,104.999867 L29.4451333,120.577867 C39.8491333,127.481867 52.3304667,131.507867 65.7538,131.507867 C79.1771333,131.507867 91.6571333,127.481867 102.0618,120.576533 L102.0618,104.999867 C102.0618,98.9692 97.8051333,93.7765333 91.8918,92.5938667" id="Fill-9" fill="#CEE9E6" mask="url(#mask-4)"></path>
            <path d="M102.061667,105.000067 C102.061667,98.9687333 97.805,93.7767333 91.8916667,92.5940667 L80.277,90.2714 L78.2243333,87.2754 C77.8396667,86.7134 77.113,86.5027333 76.4883333,86.7700667 L65.8276667,91.3620667 L65.8276667,131.5054 C79.2223333,131.490067 91.677,127.468067 102.063,120.576733 L102.063,105.000067 L102.061667,105.000067 Z" id="Fill-10" fill="#AAC6C3" mask="url(#mask-4)"></path>
            <path d="M89.2628667,52.7673333 C89.3808667,51.6773333 89.4422,50.6026667 89.4422,49.554 C89.4422,35.6906667 78.8362,24.4533333 65.7542,24.4533333 C52.6708667,24.4533333 42.0642,35.6906667 42.0642,49.554 C42.0642,50.6026667 42.1255333,51.6773333 42.2435333,52.7673333 C39.9462,53.364 38.8522,56.8993333 39.8015333,60.682 C40.7548667,64.4786667 43.4015333,67.0833333 45.7148667,66.5026667 C45.9255333,66.45 46.1215333,66.3646667 46.3122,66.266 C50.5922,74.8573333 57.7035333,81.8286667 65.7542,81.8286667 C73.8042,81.8286667 80.9155333,74.8573333 85.1955333,66.266 C85.3848667,66.3646667 85.5822,66.45 85.7928667,66.5026667 C88.1055333,67.0833333 90.7528667,64.4786667 91.7048667,60.682 C92.6542,56.8993333 91.5608667,53.364 89.2628667,52.7673333" id="Fill-11" fill="#CFA775" mask="url(#mask-4)"></path>
            <path d="M89.2628667,52.7673333 C89.3808667,51.6773333 89.4422,50.6026667 89.4422,49.554 C89.4422,35.7173333 78.8762,24.4973333 65.8275333,24.4546667 L65.8275333,81.826 C73.8468667,81.7833333 80.9275333,74.83 85.1955333,66.2646667 C85.3848667,66.3646667 85.5822,66.45 85.7928667,66.5026667 C88.1055333,67.0833333 90.7528667,64.4773333 91.7048667,60.682 C92.6542,56.8993333 91.5608667,53.364 89.2628667,52.7673333" id="Fill-12" fill="#A6875E" mask="url(#mask-4)"></path>
            <path d="M52.4334667,43.8363333 C52.4334667,43.8363333 62.7274667,53.6876667 83.7608,50.1456667 C83.7608,50.1456667 85.8001333,49.633 89.2628,52.767 C89.2628,52.767 101.9148,41.401 88.1881333,19.9256667 C88.1881333,19.9256667 83.5388,28.339 76.0128,24.243 C70.8581333,21.4383333 57.7474667,17.8216667 54.7588,27.121 C54.7588,27.121 45.1281333,25.9036667 42.4721333,35.865 C39.8141333,45.8276667 42.2448,52.767 42.2448,52.767 C42.2448,52.767 47.2301333,40.7363333 52.4334667,43.8363333" id="Fill-13" fill="#3E4247" mask="url(#mask-4)"></path>
            <path d="M88.1883333,19.9258667 C88.1883333,19.9258667 83.539,28.3392 76.0116667,24.2425333 C73.685,22.9758667 69.7356667,21.5485333 65.8276667,21.2152 L65.8276667,49.9865333 C70.5436667,50.9952 76.513,51.3658667 83.761,50.1452 C83.761,50.1452 85.8003333,49.6318667 89.263,52.7658667 C89.263,52.7672 101.915,41.4005333 88.1883333,19.9258667" id="Fill-14" fill="#212D37" mask="url(#mask-4)"></path>
            <path d="M74.5491333,91.4188667 L68.3684667,93.6828667 C68.2671333,93.3628667 67.9711333,93.1308667 67.6178,93.1308667 L64.1124667,93.1308667 C63.7598,93.1308667 63.4638,93.3615333 63.3611333,93.6788667 L57.1918,91.4188667 C56.1231333,91.0275333 54.9918,91.8188667 54.9918,92.9562 L54.9918,100.763533 C54.9918,101.900867 56.1231333,102.692867 57.1918,102.300867 L63.3611333,100.041533 C63.4638,100.3582 63.7598,100.589533 64.1124667,100.589533 L67.6178,100.589533 C67.9711333,100.589533 68.2671333,100.3562 68.3684667,100.037533 L74.5491333,102.300867 C75.6178,102.692867 76.7491333,101.900867 76.7491333,100.763533 L76.7491333,92.9562 C76.7491333,91.8188667 75.6178,91.0275333 74.5491333,91.4188667" id="Fill-15" fill="#234481" mask="url(#mask-4)"></path>
            <path d="M74.5491333,91.4188667 L68.3684667,93.6828667 C68.2671333,93.3628667 67.9711333,93.1308667 67.6178,93.1308667 L65.8278,93.1308667 L65.8278,100.589533 L67.6178,100.589533 C67.9711333,100.589533 68.2671333,100.356867 68.3684667,100.037533 L74.5491333,102.300867 C75.6178,102.692867 76.7491333,101.9022 76.7491333,100.763533 L76.7491333,92.9562 C76.7491333,91.8188667 75.6178,91.0275333 74.5491333,91.4188667" id="Fill-16" fill="#191B46" mask="url(#mask-4)"></path>
            <path d="M66.8600667,105.3824 C66.8600667,105.9944 66.3647333,106.4904 65.7540667,106.4904 C65.1420667,106.4904 64.6467333,105.9944 64.6467333,105.3824 C64.6467333,104.771733 65.1420667,104.2764 65.7540667,104.2764 C66.3647333,104.2764 66.8600667,104.771733 66.8600667,105.3824" id="Fill-17" fill="#386A96" mask="url(#mask-4)"></path>
            <path d="M66.8600667,111.2496 C66.8600667,111.8616 66.3647333,112.356933 65.7540667,112.356933 C65.1420667,112.356933 64.6467333,111.8616 64.6467333,111.2496 C64.6467333,110.638933 65.1420667,110.1436 65.7540667,110.1436 C66.3647333,110.1436 66.8600667,110.638933 66.8600667,111.2496" id="Fill-18" fill="#386A96" mask="url(#mask-4)"></path>
            <path d="M66.8600667,117.116267 C66.8600667,117.728267 66.3647333,118.224267 65.7540667,118.224267 C65.1420667,118.224267 64.6467333,117.728267 64.6467333,117.116267 C64.6467333,116.5056 65.1420667,116.010267 65.7540667,116.010267 C66.3647333,116.010267 66.8600667,116.5056 66.8600667,117.116267" id="Fill-19" fill="#386A96" mask="url(#mask-4)"></path>
            <path d="M70.9259333,131.303467 C82.3786,130.411467 93.0066,126.586133 102.061933,120.5768 L102.061933,105.000133 C102.061933,98.9688 97.8052667,93.7768 91.8919333,92.5941333 L81.6992667,90.5548 L70.9259333,131.303467 Z" id="Fill-20" fill="#EE363F" mask="url(#mask-4)"></path>
            <path d="M70.9259333,131.303467 C82.3786,130.411467 93.0066,126.586133 102.061933,120.5768 L102.061933,105.000133 C102.061933,98.9688 97.8052667,93.7768 91.8919333,92.5941333 L81.6992667,90.5548 L70.9259333,131.303467 Z" id="Fill-21" fill="#191B46" mask="url(#mask-4)"></path>
            <path d="M60.5807333,131.303467 C49.1294,130.411467 38.5000667,126.586133 29.4447333,120.5768 L29.4447333,105.000133 C29.4447333,98.9688 33.7027333,93.7768 39.6160667,92.5941333 L49.8087333,90.5548 L60.5807333,131.303467 Z" id="Fill-22" fill="#234481" mask="url(#mask-4)"></path>
        </g>
    </g>
</svg>