<?xml version="1.0" encoding="UTF-8"?>
<svg width="132px" height="132px" viewBox="0 0 132 132" version="1.1" xmlns="http://www.w3.org/2000/svg" xmlns:xlink="http://www.w3.org/1999/xlink">
    <!-- Generator: Sketch 51.2 (57519) - http://www.bohemiancoding.com/sketch -->
    <title>Icon / Avatar / Female / j-avatar-2</title>
    <desc>Created with Sketch.</desc>
    <defs>
        <polygon id="path-1" points="0.0004 0.489660302 131.507733 0.489660302 131.507733 131.336683 0.0004 131.336683"></polygon>
        <polygon id="path-3" points="0 131.510472 131.508 131.510472 131.508 0.663316583 0 0.663316583"></polygon>
    </defs>
    <g id="Icon-/-Avatar-/-Female-/-j-avatar-2" stroke="none" stroke-width="1" fill="none" fill-rule="evenodd">
        <g id="Group-27">
            <g id="Group-3" transform="translate(0.000000, 0.173789)">
                <mask id="mask-2" fill="white">
                    <use xlink:href="#path-1"></use>
                </mask>
                <g id="Clip-2"></g>
                <path d="M131.507733,65.9132382 C131.507733,102.044756 102.067733,131.336816 65.7537333,131.336816 C29.4384,131.336816 0.0004,102.044756 0.0004,65.9132382 C0.0004,29.780394 29.4384,0.489660302 65.7537333,0.489660302 C102.067733,0.489660302 131.507733,29.780394 131.507733,65.9132382" id="Fill-1" fill="#89D0C7" mask="url(#mask-2)"></path>
            </g>
            <path d="M31.8015333,121.487759 L100.736867,121.487759 C116.254867,111.765528 127.398867,95.7709749 130.5782,77.0780503 L82.8002,29.5401407 L31.8015333,121.487759 Z" id="Fill-4" fill="#71CCDC"></path>
            <path d="M31.8015333,121.487759 L100.736867,121.487759 C116.254867,111.765528 127.398867,95.7709749 130.5782,77.0780503 L82.8002,29.5401407 L31.8015333,121.487759 Z" id="Fill-6" fill="#3DB3B8"></path>
            <path d="M51.991,26.6561065 C51.991,26.6561065 48.5316667,24.6449307 43.2456667,29.5203075 C34.1683333,37.8906995 32.5076667,67.4082874 48.7803333,92.8504583 L86.085,92.8504583 C86.085,92.8504583 103.981667,51.915202 85.5316667,31.2084482 C73.013,17.1574131 51.991,26.6561065 51.991,26.6561065" id="Fill-8" fill="#212D37"></path>
            <path d="M85.5316667,31.2096422 C79.735,24.7031698 72.117,23.2471899 65.6056667,23.5576221 L65.6056667,92.8509889 L86.085,92.8509889 C86.085,92.8509889 103.981667,51.9150693 85.5316667,31.2096422" id="Fill-10" fill="#3E4247"></path>
            <mask id="mask-4" fill="white">
                <use xlink:href="#path-3"></use>
            </mask>
            <g id="Clip-13"></g>
            <polygon id="Fill-12" fill="#A6875E" mask="url(#mask-4)" points="54.7953333 101.996201 76.7126667 101.996201 76.7126667 75.3421508 54.7953333 75.3421508"></polygon>
            <polygon id="Fill-14" fill="#836A48" mask="url(#mask-4)" points="65.6073333 101.996201 76.7126667 101.996201 76.7126667 75.3421508 65.6073333 75.3421508"></polygon>
            <path d="M51.2305333,90.4810915 L39.6158667,92.7920864 C33.7018667,93.9688101 29.4452,99.1347196 29.4452,105.135745 L29.4452,120.420549 C39.8305333,127.337614 52.3178667,131.374559 65.7538667,131.374559 C79.1892,131.374559 91.6772,127.337614 102.0612,120.420549 L102.0612,105.135745 C102.0612,99.1347196 97.8052,93.9688101 91.8912,92.7920864 L80.2765333,90.4810915 L78.2238667,87.5001467 C77.8398667,86.9409709 77.1125333,86.7313628 76.4878667,86.9973528 L65.7538667,99.1360462 L55.0832,87.001996 C54.4625333,86.7326894 53.7378667,86.9343377 53.3492,87.4862171 L51.2305333,90.4810915 Z" id="Fill-15" fill="#CEE9E6" mask="url(#mask-4)"></path>
            <path d="M91.8915333,92.7920201 L80.2768667,90.4810251 L78.2242,87.5000804 C77.8402,86.9422312 77.1128667,86.7312965 76.4882,86.9986131 L65.7535333,99.1359799 L65.6062,98.9688241 L65.6062,131.371839 C65.6548667,131.371839 65.7042,131.374492 65.7535333,131.374492 C79.1895333,131.374492 91.6768667,127.337548 102.061533,120.421146 L102.061533,105.135678 C102.061533,99.1353166 97.8048667,93.9687437 91.8915333,92.7920201" id="Fill-16" fill="#9DB1B1" mask="url(#mask-4)"></path>
            <path d="M89.2626,53.1656201 C89.3806,52.0810975 89.4419333,51.0118312 89.4419333,49.9684342 C89.4419333,36.1747658 78.8359333,24.9939015 65.7539333,24.9939015 C52.6706,24.9939015 42.0646,36.1747658 42.0646,49.9684342 C42.0646,51.0118312 42.1252667,52.0810975 42.2432667,53.1656201 C39.9459333,53.7592884 38.8526,57.2768563 39.8019333,61.0405146 C40.7552667,64.8181025 43.4012667,67.4096804 45.7152667,66.8319317 C45.9259333,66.7795296 46.1212667,66.6946251 46.3119333,66.5964543 C50.5926,75.1446151 57.7032667,82.0802533 65.7539333,82.0802533 C73.8039333,82.0802533 80.9152667,75.1446151 85.1952667,66.5964543 C85.3846,66.6946251 85.5819333,66.7795296 85.7926,66.8319317 C88.1052667,67.4096804 90.7526,64.8181025 91.7046,61.0405146 C92.6539333,57.2768563 91.5606,53.7592884 89.2626,53.1656201" id="Fill-17" fill="#CFA775" mask="url(#mask-4)"></path>
            <path d="M89.2626,53.1656201 C89.3806,52.0810975 89.4419333,51.0118312 89.4419333,49.9684342 C89.4419333,36.1747658 78.8359333,24.9939015 65.7539333,24.9939015 C65.7039333,24.9939015 65.6559333,24.9965548 65.6059333,24.9978814 L65.6059333,82.0769367 C65.6546,82.0769367 65.7039333,82.0802533 65.7539333,82.0802533 C73.8039333,82.0802533 80.9152667,75.1446151 85.1952667,66.5951276 C85.3846,66.6946251 85.5819333,66.7795296 85.7926,66.8319317 C88.1052667,67.4096804 90.7526,64.8167759 91.7046,61.0405146 C92.6539333,57.2768563 91.5606,53.7592884 89.2626,53.1656201" id="Fill-18" fill="#A6875E" mask="url(#mask-4)"></path>
            <polygon id="Fill-19" fill="#AAC6C3" mask="url(#mask-4)" points="65.7538 123.705027 54.2771333 103.216505 65.7538 99.1364442 77.2291333 103.216505"></polygon>
            <polygon id="Fill-20" fill="#839C9A" mask="url(#mask-4)" points="77.2292667 103.216571 65.7539333 99.1365106 65.6059333 99.1882492 65.6059333 123.441757 65.7539333 123.705093"></polygon>
            <path d="M48.6335333,90.9976824 L39.4555333,92.6924563 C33.5055333,93.8764764 29.2242,99.0748884 29.2242,105.112396 L29.2242,120.489401 C39.6335333,127.423713 52.1448667,131.477904 65.6055333,131.507753 L65.6055333,119.678165 L48.6335333,90.9976824 Z" id="Fill-21" fill="#234481" mask="url(#mask-4)"></path>
            <path d="M92.0506667,92.6922573 L82.8366667,90.9901869 L65.754,119.92671 L65.606,119.677303 L65.606,131.50689 C65.6546667,131.50689 65.704,131.509544 65.754,131.509544 C79.2706667,131.509544 91.8353333,127.44872 102.283333,120.489202 L102.283333,105.11087 C102.283333,99.0746894 98.0006667,93.8762774 92.0506667,92.6922573" id="Fill-22" fill="#191B46" mask="url(#mask-4)"></path>
            <path d="M84.9774667,72.1441688 C84.8634667,48.642199 56.7501333,40.313596 56.7501333,40.313596 C56.7501333,40.313596 51.2041333,49.0547819 42.2434667,53.1653548 C42.2434667,53.1653548 40.7361333,53.421395 39.7028,56.0640482 C38.6688,58.7073648 36.3828,33.4854151 53.5394667,25.5554653 C70.6974667,17.6255156 83.7548,24.9213347 89.8488,38.4423799 C99.4794667,59.8091337 84.9774667,72.1441688 84.9774667,72.1441688" id="Fill-23" fill="#212D37" mask="url(#mask-4)"></path>
            <path d="M89.8485333,38.4423136 C85.2792,28.3048462 76.7965333,21.6670372 65.6058667,22.3210673 L65.6058667,44.1634191 C73.8565333,48.6620322 84.9058667,57.4277608 84.9772,72.1441025 C84.9772,72.1441025 99.4792,59.8090673 89.8485333,38.4423136" id="Fill-24" fill="#3E4247" mask="url(#mask-4)"></path>
            <path d="M66.8599333,103.90045 C66.8599333,104.508048 66.3646,105.000892 65.7539333,105.000892 C65.1419333,105.000892 64.6466,104.508048 64.6466,103.90045 C64.6466,103.291526 65.1419333,102.798681 65.7539333,102.798681 C66.3646,102.798681 66.8599333,103.291526 66.8599333,103.90045" id="Fill-25" fill="#386A96" mask="url(#mask-4)"></path>
            <path d="M66.8599333,108.455246 C66.8599333,109.064171 66.3646,109.557015 65.7539333,109.557015 C65.1419333,109.557015 64.6466,109.064171 64.6466,108.455246 C64.6466,107.846985 65.1419333,107.352814 65.7539333,107.352814 C66.3646,107.352814 66.8599333,107.846985 66.8599333,108.455246" id="Fill-26" fill="#386A96" mask="url(#mask-4)"></path>
        </g>
    </g>
</svg>