<?xml version="1.0" encoding="UTF-8"?>
<svg width="132px" height="132px" viewBox="0 0 132 132" version="1.1" xmlns="http://www.w3.org/2000/svg" xmlns:xlink="http://www.w3.org/1999/xlink">
    <!-- Generator: Sketch 51.2 (57519) - http://www.bohemiancoding.com/sketch -->
    <title>Icon / Avatar / Male / j-avatar-6</title>
    <desc>Created with Sketch.</desc>
    <defs>
        <polygon id="path-1" points="0 0.489527638 131.507933 0.489527638 131.507933 131.336484 0 131.336484"></polygon>
        <polygon id="path-3" points="0 131.510472 131.508 131.510472 131.508 0.663316583 0 0.663316583"></polygon>
    </defs>
    <g id="Icon-/-Avatar-/-Male-/-j-avatar-6" stroke="none" stroke-width="1" fill="none" fill-rule="evenodd">
        <g id="Group-31">
            <path d="M55.3268,115.403222 C55.3268,116.214458 54.6661333,116.871805 53.8521333,116.871805 C53.0368,116.871805 52.3761333,116.214458 52.3761333,115.403222 C52.3761333,114.591986 53.0368,113.934639 53.8521333,113.934639 C54.6661333,113.934639 55.3268,114.591986 55.3268,115.403222" id="Fill-1" fill="#707274"></path>
            <path d="M55.3268,121.04599 C55.3268,121.857226 54.6661333,122.514573 53.8521333,122.514573 C53.0368,122.514573 52.3761333,121.857226 52.3761333,121.04599 C52.3761333,120.23608 53.0368,119.578734 53.8521333,119.578734 C54.6661333,119.578734 55.3268,120.23608 55.3268,121.04599" id="Fill-3" fill="#707274"></path>
            <path d="M79.1269333,115.403222 C79.1269333,116.214458 78.4662667,116.871805 77.6509333,116.871805 C76.8356,116.871805 76.1762667,116.214458 76.1762667,115.403222 C76.1762667,114.591986 76.8356,113.934639 77.6509333,113.934639 C78.4662667,113.934639 79.1269333,114.591986 79.1269333,115.403222" id="Fill-5" fill="#707274"></path>
            <path d="M79.1269333,121.04599 C79.1269333,121.857226 78.4662667,122.514573 77.6509333,122.514573 C76.8356,122.514573 76.1762667,121.857226 76.1762667,121.04599 C76.1762667,120.23608 76.8356,119.578734 77.6509333,119.578734 C78.4662667,119.578734 79.1269333,120.23608 79.1269333,121.04599" id="Fill-7" fill="#707274"></path>
            <g id="Group-11" transform="translate(0.000000, 0.173789)">
                <mask id="mask-2" fill="white">
                    <use xlink:href="#path-1"></use>
                </mask>
                <g id="Clip-10"></g>
                <path d="M131.507933,65.9129065 C131.507933,102.044424 102.067933,131.336484 65.7539333,131.336484 C29.4386,131.336484 -6.66666667e-05,102.044424 -6.66666667e-05,65.9129065 C-6.66666667e-05,29.7800623 29.4386,0.489328643 65.7539333,0.489328643 C102.067933,0.489328643 131.507933,29.7800623 131.507933,65.9129065" id="Fill-9" fill="#FCB614" mask="url(#mask-2)"></path>
            </g>
            <path d="M49.2418,65.6636985 L101.729133,120.854291 L103.505133,119.655678 C120.438467,107.820121 131.5078,88.2396784 131.5078,66.0868945 C131.5078,65.7260503 131.499133,65.3665327 131.494467,65.0070151 L90.3738,20.2032965 L49.2418,65.6636985 Z" id="Fill-12" fill="#CF8A27"></path>
            <mask id="mask-4" fill="white">
                <use xlink:href="#path-3"></use>
            </mask>
            <g id="Clip-15"></g>
            <polygon id="Fill-14" fill="#9E8059" mask="url(#mask-4)" points="54.7953333 97.1506734 76.7126667 97.1506734 76.7126667 75.3421508 54.7953333 75.3421508"></polygon>
            <polygon id="Fill-16" fill="#6A5538" mask="url(#mask-4)" points="65.3866667 97.1506734 76.714 97.1506734 76.714 75.3421508 65.3866667 75.3421508"></polygon>
            <path d="M91.8917333,92.7921528 L80.2770667,90.4811578 L78.2244,87.5002131 C77.8404,86.9423638 77.1130667,86.7314291 76.4884,86.9980824 L74.2317333,87.9658613 C68.8217333,90.2841528 62.6890667,90.2788462 57.2824,87.9492784 L55.0837333,87.0020623 C54.4644,86.7334191 53.7377333,86.9357307 53.3490667,87.4862834 L51.2310667,90.4811578 L39.6164,92.7921528 C33.7017333,93.970203 29.4450667,99.1361126 29.4450667,105.135811 L29.4450667,120.63553 C39.8497333,127.504836 52.3304,131.510605 65.7537333,131.510605 C79.1757333,131.510605 91.6570667,127.504836 102.061733,120.634203 L102.061733,105.135811 C102.061733,99.1347859 97.8050667,93.9688764 91.8917333,92.7921528" id="Fill-17" fill="#E2E3E4" mask="url(#mask-4)"></path>
            <path d="M91.8917333,92.7921528 L80.2770667,90.4811578 L78.2244,87.5002131 C77.8404,86.9423638 77.1130667,86.7314291 76.4884,86.9980824 L74.2317333,87.9658613 C71.4117333,89.1744241 68.3937333,89.746203 65.3850667,89.6911477 L65.3850667,131.503309 C65.5084,131.504635 65.6310667,131.510605 65.7537333,131.510605 C79.1770667,131.510605 91.6584,127.506163 102.063067,120.63553 L102.063067,105.135811 C102.061733,99.1347859 97.8050667,93.9688764 91.8917333,92.7921528" id="Fill-18" fill="#ACAEB0" mask="url(#mask-4)"></path>
            <path d="M48.1166667,129.118486 C53.7306667,130.671974 59.6426667,131.510406 65.754,131.510406 C71.8653333,131.510406 77.7773333,130.671974 83.3906667,129.118486 L83.3906667,91.1011598 L80.2766667,90.4809588 L78.224,87.5000141 C77.84,86.9408382 77.1126667,86.7312302 76.488,86.9972201 L74.232,87.9656623 C68.8213333,90.2839538 62.6886667,90.2793106 57.282,87.9490794 L55.0833333,87.0018633 C54.464,86.7338834 53.738,86.936195 53.3493333,87.4867477 L51.2306667,90.4809588 L48.1166667,91.0998332 L48.1166667,129.118486 Z" id="Fill-19" fill="#F9F9F9" mask="url(#mask-4)"></path>
            <path d="M80.277,90.4812241 L78.2243333,87.5002794 C77.8403333,86.9411035 77.113,86.7308322 76.4883333,86.9968221 L74.2323333,87.9659276 C71.4116667,89.1744905 68.3936667,89.7449427 65.385,89.6912141 L65.385,131.503375 C65.5083333,131.504038 65.631,131.509345 65.7543333,131.509345 C71.8656667,131.509345 77.779,130.670913 83.3923333,129.118752 L83.3923333,91.1000985 L80.277,90.4812241 Z" id="Fill-20" fill="#EDEEEE" mask="url(#mask-4)"></path>
            <path d="M87.9247333,56.3923236 C88.0360667,55.3694894 88.0940667,54.3605849 88.0940667,53.3762231 C88.0940667,40.3685849 78.0920667,29.8231779 65.7540667,29.8231779 C53.4154,29.8231779 43.4127333,40.3685849 43.4127333,53.3762231 C43.4127333,54.3605849 43.4714,55.3694894 43.5814,56.3923236 C41.4147333,56.9528261 40.3834,60.269409 41.2787333,63.8194794 C42.1780667,67.3794995 44.6740667,69.8251477 46.8554,69.2799015 C47.0547333,69.2301528 47.2387333,69.1512181 47.4180667,69.0570271 C51.4554,77.1203035 58.1614,83.660605 65.7540667,83.660605 C73.3454,83.660605 80.0527333,77.1203035 84.0880667,69.0570271 C84.2674,69.1512181 84.4534,69.2314794 84.6527333,69.2799015 C86.8340667,69.8251477 89.3294,67.3794995 90.2274,63.8194794 C91.1240667,60.269409 90.0920667,56.9528261 87.9247333,56.3923236" id="Fill-21" fill="#CBA472" mask="url(#mask-4)"></path>
            <path d="M87.9247333,56.3923236 C88.0360667,55.3694894 88.0940667,54.3605849 88.0940667,53.3762231 C88.0940667,40.3685849 78.0920667,29.8231779 65.7540667,29.8231779 C65.6294,29.8231779 65.5080667,29.8304744 65.3847333,29.831801 L65.3847333,83.6513186 C65.5080667,83.6539719 65.6294,83.660605 65.7540667,83.660605 C73.3454,83.660605 80.0527333,77.1189769 84.0880667,69.0570271 C84.2674,69.1498915 84.4534,69.2314794 84.6527333,69.2799015 C86.8340667,69.8251477 89.3294,67.3794995 90.2274,63.8181528 C91.1240667,60.269409 90.0920667,56.9528261 87.9247333,56.3923236" id="Fill-22" fill="#907551" mask="url(#mask-4)"></path>
            <path d="M44.2929333,57.1910231 C47.5222667,58.7683899 47.7356,64.9670834 47.7356,64.9670834 C47.7356,64.9670834 51.4756,52.1929327 50.0609333,47.5662995 C48.6449333,42.9403296 52.4189333,42.6219377 52.4189333,42.6219377 C57.1516,44.1721085 61.6729333,44.6921487 65.6069333,44.6987819 L65.6069333,29.7668623 C43.4049333,29.8816161 41.0709333,55.6163095 44.2929333,57.1910231" id="Fill-23" fill="#212D37" mask="url(#mask-4)"></path>
            <path d="M65.754,29.7642754 C65.704,29.7642754 65.656,29.7669286 65.606,29.7669286 L65.606,44.6988482 C73.5473333,44.7107879 79.0893333,42.622004 79.0893333,42.622004 C79.0893333,42.622004 82.8633333,42.9390693 81.4473333,47.5663658 C80.032,52.192999 83.7726667,64.9671497 83.7726667,64.9671497 C83.7726667,64.9671497 83.9853333,58.7684563 87.2153333,57.1910894 C90.4453333,55.612396 88.094,29.7642754 65.754,29.7642754" id="Fill-24" fill="#212D37" mask="url(#mask-4)"></path>
            <path d="M55.3268,104.120207 C55.3268,104.931443 54.6661333,105.58879 53.8521333,105.58879 C53.0368,105.58879 52.3761333,104.931443 52.3761333,104.120207 C52.3761333,103.308971 53.0368,102.651624 53.8521333,102.651624 C54.6661333,102.651624 55.3268,103.308971 55.3268,104.120207" id="Fill-25" fill="#707274" mask="url(#mask-4)"></path>
            <path d="M55.3268,109.764235 C55.3268,110.575471 54.6661333,111.232818 53.8521333,111.232818 C53.0368,111.232818 52.3761333,110.575471 52.3761333,109.764235 C52.3761333,108.952999 53.0368,108.295652 53.8521333,108.295652 C54.6661333,108.295652 55.3268,108.952999 55.3268,109.764235" id="Fill-26" fill="#707274" mask="url(#mask-4)"></path>
            <path d="M79.1269333,104.120207 C79.1269333,104.931443 78.4662667,105.58879 77.6509333,105.58879 C76.8356,105.58879 76.1762667,104.931443 76.1762667,104.120207 C76.1762667,103.308971 76.8356,102.651624 77.6509333,102.651624 C78.4662667,102.651624 79.1269333,103.308971 79.1269333,104.120207" id="Fill-27" fill="#707274" mask="url(#mask-4)"></path>
            <path d="M79.1269333,109.764235 C79.1269333,110.575471 78.4662667,111.232818 77.6509333,111.232818 C76.8356,111.232818 76.1762667,110.575471 76.1762667,109.764235 C76.1762667,108.952999 76.8356,108.295652 77.6509333,108.295652 C78.4662667,108.295652 79.1269333,108.952999 79.1269333,109.764235" id="Fill-28" fill="#707274" mask="url(#mask-4)"></path>
            <path d="M92.7634667,27.7965467 C92.7634667,20.4363859 86.7661333,14.4691899 79.3674667,14.4691899 C76.8821333,14.4691899 74.5568,15.1457729 72.5614667,16.3185166 C70.5661333,15.1457729 68.2394667,14.4691899 65.7541333,14.4691899 C63.2681333,14.4691899 60.9414667,15.1457729 58.9468,16.3185166 C56.9508,15.1457729 54.6248,14.4691899 52.1388,14.4691899 C44.7408,14.4691899 38.7434667,20.4363859 38.7434667,27.7965467 C38.7434667,31.7611899 40.4854667,35.3185568 43.2454667,37.7595618 L43.2454667,50.7380141 L88.2621333,50.7380141 L88.2621333,37.7602251 C91.0228,35.3185568 92.7634667,31.7611899 92.7634667,27.7965467" id="Fill-29" fill="#EDEEEE" mask="url(#mask-4)"></path>
            <path d="M79.3689333,14.4693226 C76.8822667,14.4693226 74.5569333,15.1459055 72.5616,16.3186492 C70.5662667,15.1459055 68.2396,14.4693226 65.7542667,14.4693226 C65.6296,14.4693226 65.5082667,14.4779457 65.3849333,14.4819256 L65.3849333,50.7381467 L88.2622667,50.7381467 L88.2622667,37.7603578 C91.0222667,35.3186894 92.7649333,31.7606593 92.7649333,27.7966794 C92.7636,20.4365186 86.7656,14.4693226 79.3689333,14.4693226" id="Fill-30" fill="#ACAEB0" mask="url(#mask-4)"></path>
        </g>
    </g>
</svg>