<?xml version="1.0" encoding="UTF-8"?>
<svg width="132px" height="132px" viewBox="0 0 132 132" version="1.1" xmlns="http://www.w3.org/2000/svg" xmlns:xlink="http://www.w3.org/1999/xlink">
    <!-- Generator: Sketch 51.2 (57519) - http://www.bohemiancoding.com/sketch -->
    <title>Icon / Avatar / Female / j-avatar-5</title>
    <desc>Created with Sketch.</desc>
    <defs>
        <polygon id="path-1" points="0 0.48959397 131.507933 0.48959397 131.507933 131.336683 0 131.336683"></polygon>
        <polygon id="path-3" points="0 131.510472 131.508 131.510472 131.508 0.663316583 0 0.663316583"></polygon>
    </defs>
    <g id="Icon-/-Avatar-/-Female-/-j-avatar-5" stroke="none" stroke-width="1" fill="none" fill-rule="evenodd">
        <g id="Group-26">
            <g id="Group-3" transform="translate(0.000000, 0.173789)">
                <mask id="mask-2" fill="white">
                    <use xlink:href="#path-1"></use>
                </mask>
                <g id="Clip-2"></g>
                <path d="M131.507933,65.9131719 C131.507933,102.044689 102.067933,131.33675 65.7539333,131.33675 C29.4386,131.33675 -6.66666667e-05,102.044689 -6.66666667e-05,65.9131719 C-6.66666667e-05,29.7803276 29.4386,0.48959397 65.7539333,0.48959397 C102.067933,0.48959397 131.507933,29.7803276 131.507933,65.9131719" id="Fill-1" fill="#F06134" mask="url(#mask-2)"></path>
            </g>
            <path d="M52.4286667,107.50929 L75.79,130.752567 C105.312667,126.254617 128.364667,102.218014 131.208,72.3263156 L87.1926667,28.5315015 L52.4286667,107.50929 Z" id="Fill-4" fill="#8E1539"></path>
            <path d="M88.1882667,70.2720905 L87.3762667,77.0266432 C87.3762667,77.0266432 58.3742667,85.1774774 47.9689333,77.1002714 L44.7956,66.4533769 L88.9269333,64.4707236 L88.1882667,70.2720905 Z" id="Fill-6" fill="#454446"></path>
            <path d="M44.7956667,66.4536422 L47.969,77.1005367 C51.9883333,80.2201146 58.781,80.9185869 65.6063333,80.600195 L65.6063333,65.5190291 L44.7956667,66.4536422 Z" id="Fill-8" fill="#5F6363"></path>
            <path d="M65.6060667,65.5188965 L65.6060667,80.6007256 C76.4520667,80.096605 87.3767333,77.0267759 87.3767333,77.0267759 L88.1880667,70.2722231 L88.9267333,64.4708563 L65.6060667,65.5188965 Z" id="Fill-10" fill="#5F6363"></path>
            <mask id="mask-4" fill="white">
                <use xlink:href="#path-3"></use>
            </mask>
            <g id="Clip-13"></g>
            <polygon id="Fill-12" fill="#E0C785" mask="url(#mask-4)" points="54.7953333 101.996201 76.7126667 101.996201 76.7126667 75.3421508 54.7953333 75.3421508"></polygon>
            <polygon id="Fill-14" fill="#A89866" mask="url(#mask-4)" points="65.6073333 101.996201 76.7126667 101.996201 76.7126667 75.3421508 65.6073333 75.3421508"></polygon>
            <path d="M91.8917333,94.1135457 L80.2770667,91.8025508 L78.2244,88.821606 C77.8404,88.2637568 77.1130667,88.0528221 76.4884,88.3194754 L65.7537333,100.457506 L55.0837333,88.3234553 C54.4630667,88.0548121 53.7377333,88.2571236 53.3490667,88.8076764 L51.2310667,91.8025508 L39.6164,94.1135457 C33.7017333,95.291596 29.4450667,100.457506 29.4450667,106.457204 L29.4450667,120.634269 C39.8497333,127.504903 52.3304,131.510671 65.7537333,131.510671 C79.1757333,131.510671 91.6570667,127.504903 102.061733,120.634269 L102.061733,106.457204 C102.061733,100.457506 97.8050667,95.291596 91.8917333,94.1135457" id="Fill-15" fill="#386A96" mask="url(#mask-4)"></path>
            <path d="M91.8917333,94.1135457 L80.2770667,91.8025508 L78.2244,88.821606 C77.8404,88.2637568 77.1130667,88.0528221 76.4884,88.3194754 L65.7537333,100.457506 L65.6064,100.29035 L65.6064,131.508018 C65.6550667,131.508018 65.7037333,131.510671 65.7537333,131.510671 C79.1757333,131.510671 91.6570667,127.504903 102.061733,120.634269 L102.061733,106.457204 C102.061733,100.457506 97.8050667,95.291596 91.8917333,94.1135457" id="Fill-16" fill="#234481" mask="url(#mask-4)"></path>
            <path d="M89.2628,53.1654211 C89.3808,52.0808985 89.4421333,51.0116322 89.4421333,49.9682352 C89.4421333,36.1745668 78.8361333,24.9937025 65.7541333,24.9937025 C52.6708,24.9937025 42.0641333,36.1745668 42.0641333,49.9682352 C42.0641333,51.0116322 42.1254667,52.0808985 42.2434667,53.1654211 C39.9461333,53.7590894 38.8528,57.2773206 39.8021333,61.0403156 C40.7554667,64.8179035 43.4014667,67.4094814 45.7148,66.8317327 C45.9254667,66.7793307 46.1214667,66.6944261 46.3121333,66.5962553 C50.5921333,75.1450794 57.7034667,82.0807176 65.7541333,82.0807176 C73.8041333,82.0807176 80.9154667,75.1450794 85.1954667,66.5962553 C85.3848,66.6944261 85.5821333,66.7793307 85.7928,66.8317327 C88.1054667,67.4094814 90.7528,64.8179035 91.7048,61.0403156 C92.6541333,57.2773206 91.5621333,53.7590894 89.2628,53.1654211" id="Fill-17" fill="#FDE8AE" mask="url(#mask-4)"></path>
            <path d="M89.2628,53.1654211 C89.3808,52.0808985 89.4421333,51.0116322 89.4421333,49.9682352 C89.4421333,36.1745668 78.8361333,24.9937025 65.7541333,24.9937025 C65.7041333,24.9937025 65.6561333,24.9963558 65.6061333,24.9976824 L65.6061333,82.0767377 C65.6548,82.0767377 65.7048,82.0807176 65.7541333,82.0807176 C73.8041333,82.0807176 80.9154667,75.1450794 85.1954667,66.5949286 C85.3848,66.6944261 85.5821333,66.7793307 85.7928,66.8317327 C88.1054667,67.4094814 90.7528,64.8165769 91.7048,61.0403156 C92.6541333,57.2773206 91.5621333,53.7590894 89.2628,53.1654211" id="Fill-18" fill="#E0C785" mask="url(#mask-4)"></path>
            <path d="M67.9040667,106.255821 C67.9040667,107.439178 66.9414,108.397007 65.7547333,108.397007 C64.5654,108.397007 63.6027333,107.439178 63.6027333,106.255821 C63.6027333,105.075118 64.5654,104.117288 65.7547333,104.117288 C66.9414,104.117288 67.9040667,105.075118 67.9040667,106.255821" id="Fill-19" fill="#191B46" mask="url(#mask-4)"></path>
            <path d="M65.754,100.487487 L55.412,87.4400503 C54.972,86.9273065 54.1753333,86.9286332 53.7353333,87.4413769 L49.74,92.1157688 L58.362,105.843106 C59.0793333,106.986663 60.742,107.017839 61.5026667,105.903467 L65.754,100.487487 Z" id="Fill-20" fill="#3BC1D2" mask="url(#mask-4)"></path>
            <path d="M65.754,100.487487 L76.0946667,87.4400503 C76.5346667,86.9273065 77.332,86.9286332 77.7713333,87.4413769 L81.768,92.1157688 L73.146,105.843106 C72.4273333,106.986663 70.7653333,107.017839 70.004,105.903467 L65.754,100.487487 Z" id="Fill-21" fill="#3BC1D2" mask="url(#mask-4)"></path>
            <path d="M73.7716,62.1511055 C71.8562667,62.1511055 70.2982667,60.6002714 70.2982667,58.6952261 C70.2982667,56.7895176 71.8569333,55.2386834 73.7716,55.2386834 C75.6876,55.2386834 77.2462667,56.7895176 77.2462667,58.6952261 C77.2462667,60.6002714 75.6876,62.1511055 73.7716,62.1511055 M57.2142667,62.1511055 C55.2989333,62.1511055 53.7409333,60.6002714 53.7409333,58.6952261 C53.7409333,56.7895176 55.2996,55.2386834 57.2142667,55.2386834 C59.1296,55.2386834 60.6882667,56.7895176 60.6882667,58.6952261 C60.6882667,60.6002714 59.1296,62.1511055 57.2142667,62.1511055 M84.6816,51.9950653 C84.2496,51.5639095 83.5469333,51.5639095 83.1136,51.9950653 L78.8776,56.2091156 C77.9509333,54.330603 76.0129333,53.0324925 73.7716,53.0324925 C71.1716,53.0324925 68.9782667,54.7770151 68.3009333,57.1503618 L62.6856,57.1503618 C62.0076,54.7770151 59.8142667,53.0324925 57.2156,53.0324925 C54.9729333,53.0324925 53.0362667,54.330603 52.1076,56.2091156 L47.8722667,51.9950653 C47.4382667,51.5639095 46.7369333,51.5639095 46.3042667,51.9950653 C45.8709333,52.4262211 45.8709333,53.1233668 46.3042667,53.5545226 L51.5262667,58.7502814 C51.5562667,61.8473065 54.0949333,64.3572965 57.2156,64.3572965 C60.1269333,64.3572965 62.5329333,62.1676884 62.8642667,59.3565528 L68.1229333,59.3565528 C68.4542667,62.1676884 70.8596,64.3572965 73.7716,64.3572965 C76.8916,64.3572965 79.4309333,61.8473065 79.4609333,58.7502814 L84.6829333,53.5545226 C85.1149333,53.1233668 85.1149333,52.4262211 84.6816,51.9950653" id="Fill-22" fill="#666769" mask="url(#mask-4)"></path>
            <path d="M73.7716,62.1511055 C71.8562667,62.1511055 70.2982667,60.6002714 70.2982667,58.6952261 C70.2982667,56.7895176 71.8569333,55.2386834 73.7716,55.2386834 C75.6876,55.2386834 77.2462667,56.7895176 77.2462667,58.6952261 C77.2462667,60.6002714 75.6876,62.1511055 73.7716,62.1511055 M84.6816,51.9950653 C84.2496,51.5639095 83.5469333,51.5639095 83.1136,51.9950653 L78.8776,56.2091156 C77.9509333,54.330603 76.0129333,53.0324925 73.7716,53.0324925 C71.1716,53.0324925 68.9782667,54.7770151 68.3009333,57.1503618 L65.3456,57.1503618 L65.3456,59.3565528 L68.1229333,59.3565528 C68.4529333,62.1690151 70.8582667,64.3586231 73.7716,64.3586231 C76.8902667,64.3586231 79.4296,61.8473065 79.4609333,58.7502814 L84.6816,53.5545226 C85.1149333,53.1233668 85.1149333,52.4262211 84.6816,51.9950653" id="Fill-23" fill="#666769" mask="url(#mask-4)"></path>
            <path d="M58.0787333,37.6709427 C58.0787333,37.6709427 65.8280667,47.5822191 79.5534,49.1250935 C93.2800667,50.6673045 81.3254,79.8167518 81.3254,79.8167518 C81.3254,79.8167518 85.0887333,79.0831236 93.0594,74.6767116 C93.0594,74.6767116 108.408733,20.9294955 65.6060667,20.9294955 C21.1060667,20.9294955 41.9174,78.2022392 41.9174,78.2022392 L51.2160667,80.1855558 C51.2160667,80.1855558 45.9020667,70.4931739 46.5667333,59.6990231 C47.2300667,48.9055357 54.0940667,38.1113849 58.0787333,37.6709427" id="Fill-24" fill="#B0B2B4" mask="url(#mask-4)"></path>
            <path d="M65.6060667,20.9294955 L65.6060667,44.1376161 C69.1267333,46.3723296 73.8140667,48.4796864 79.5534,49.1250935 C93.2800667,50.6673045 81.3254,79.8167518 81.3254,79.8167518 C81.3254,79.8167518 85.0887333,79.0831236 93.0594,74.6767116 C93.0594,74.6767116 108.408733,20.9294955 65.6060667,20.9294955" id="Fill-25" fill="#D8DADB" mask="url(#mask-4)"></path>
        </g>
    </g>
</svg>