<?xml version="1.0" encoding="UTF-8"?>
<svg width="132px" height="132px" viewBox="0 0 132 132" version="1.1" xmlns="http://www.w3.org/2000/svg" xmlns:xlink="http://www.w3.org/1999/xlink">
    <!-- Generator: Sketch 51.2 (57519) - http://www.bohemiancoding.com/sketch -->
    <title>Icon / Avatar / Male / j-avatar-10</title>
    <desc>Created with Sketch.</desc>
    <defs>
        <polygon id="path-1" points="6.66666667e-05 0.489527638 131.508 0.489527638 131.508 131.336683 6.66666667e-05 131.336683"></polygon>
        <polygon id="path-3" points="0.511666667 0.454438191 68.1746667 0.454438191 68.1746667 107.18871 0.511666667 107.18871"></polygon>
        <polygon id="path-5" points="0 131.510472 131.508 131.510472 131.508 0.663316583 0 0.663316583"></polygon>
    </defs>
    <g id="Icon-/-Avatar-/-Male-/-j-avatar-10" stroke="none" stroke-width="1" fill="none" fill-rule="evenodd">
        <g id="Group-41">
            <g id="Group-3" transform="translate(0.000000, 0.173789)">
                <mask id="mask-2" fill="white">
                    <use xlink:href="#path-1"></use>
                </mask>
                <g id="Clip-2"></g>
                <path d="M131.508067,65.9131055 C131.508067,102.044623 102.068067,131.336683 65.7540667,131.336683 C29.4387333,131.336683 6.66666667e-05,102.044623 6.66666667e-05,65.9131055 C6.66666667e-05,29.7802613 29.4387333,0.489527638 65.7540667,0.489527638 C102.068067,0.489527638 131.508067,29.7802613 131.508067,65.9131055" id="Fill-1" fill="#234481" mask="url(#mask-2)"></path>
            </g>
            <g id="Group-6" transform="translate(63.333333, 23.389869)">
                <mask id="mask-4" fill="white">
                    <use xlink:href="#path-3"></use>
                </mask>
                <g id="Clip-5"></g>
                <path d="M0.511666667,37.409795 L13.515,107.18871 C44.545,101.941212 68.1736667,75.067604 68.175,42.6970915 L24.4236667,0.454438191 L0.511666667,37.409795 Z" id="Fill-4" fill="#191B46" mask="url(#mask-4)"></path>
            </g>
            <path d="M91.5642,93.7867296 L80.2768667,90.6611819 L78.1475333,87.6968201 C77.7662,87.1429508 77.0435333,86.9333427 76.4228667,87.198006 L65.7542,98.7980864 L55.1488667,87.2026492 C54.5315333,86.935996 53.8115333,87.1369809 53.4242,87.6835538 L51.2895333,90.6611819 L39.9248667,93.6766191 C34.0475333,94.8460462 29.6668667,99.2617447 29.6668667,105.225624 L29.6668667,120.780398 C40.0275333,127.56082 52.4262,131.510207 65.7542,131.510207 C79.0815333,131.510207 91.4802,127.56082 101.840867,120.780398 L101.840867,105.225624 C101.840867,99.2617447 97.4428667,94.9568201 91.5642,93.7867296" id="Fill-7" fill="#D6DAD9"></path>
            <path d="M58.4298,40.6371618 C58.4298,40.6371618 56.0058,39.6667296 51.6504667,42.6941065 C37.9031333,52.2485186 39.2284667,78.3407397 55.9411333,88.1777246 L77.7591333,88.1777246 C77.7591333,88.1777246 101.841133,68.0367799 84.4304667,43.9066492 C76.0151333,32.2428905 58.4298,40.6371618 58.4298,40.6371618" id="Fill-9" fill="#F9A51A"></path>
            <path d="M84.4306,43.9074452 C79.9372667,39.2343799 74.0319333,38.1883296 68.9839333,38.4118673 L68.9839333,88.1778573 L77.7592667,88.1778573 C77.7592667,88.1778573 101.295267,65.8618975 84.4306,43.9074452" id="Fill-11" fill="#CF8A14"></path>
            <mask id="mask-6" fill="white">
                <use xlink:href="#path-5"></use>
            </mask>
            <g id="Clip-14"></g>
            <polygon id="Fill-13" fill="#FDCB86" mask="url(#mask-6)" points="54.7953333 99.2434372 76.7126667 99.2434372 76.7126667 75.3421508 54.7953333 75.3421508"></polygon>
            <polygon id="Fill-15" fill="#D5A565" mask="url(#mask-6)" points="65.6073333 99.2434372 76.7126667 99.2434372 76.7126667 75.3421508 65.6073333 75.3421508"></polygon>
            <path d="M88.4159333,55.6986271 C88.5279333,54.5862452 88.5866,53.4897829 88.5866,52.4191899 C88.5866,38.2759538 78.5279333,26.8098633 66.1199333,26.8098633 C53.7119333,26.8098633 43.6519333,38.2759538 43.6519333,52.4191899 C43.6519333,53.4897829 43.7112667,54.5862452 43.8226,55.6986271 C41.6432667,56.3075518 40.6059333,59.914004 41.5066,63.7745065 C42.4112667,67.6449588 44.9212667,70.304195 47.1146,69.7111899 C47.3146,69.6574613 47.4999333,69.5718935 47.6806,69.4684161 C51.7406,78.2361347 58.4839333,85.3475518 66.1199333,85.3475518 C73.7539333,85.3475518 80.4992667,78.2361347 84.5579333,69.4684161 C84.7386,69.5718935 84.9246,69.6587879 85.1252667,69.7111899 C87.3186,70.304195 89.8286,67.6449588 90.7312667,63.7745065 C91.6332667,59.914004 90.5952667,56.3075518 88.4159333,55.6986271" id="Fill-16" fill="#FEDCAD" mask="url(#mask-6)"></path>
            <path d="M88.4159333,55.6986271 C88.5279333,54.5862452 88.5866,53.4897829 88.5866,52.4191899 C88.5866,38.2759538 78.5279333,26.8098633 66.1199333,26.8098633 C65.9946,26.8098633 65.8726,26.8178231 65.7492667,26.8191497 L65.7492667,85.3382653 C65.8726,85.3409186 65.9946,85.3475518 66.1199333,85.3475518 C73.7539333,85.3475518 80.4992667,78.2354714 84.5579333,69.4684161 C84.7386,69.5705668 84.9246,69.6587879 85.1252667,69.7111899 C87.3186,70.304195 89.8286,67.6449588 90.7312667,63.7731799 C91.6332667,59.914004 90.5952667,56.3075518 88.4159333,55.6986271" id="Fill-17" fill="#FDCB86" mask="url(#mask-6)"></path>
            <path d="M65.7489333,49.5508101 C65.7489333,49.5508101 77.6016,56.626408 90.0169333,55.6984281 C89.7196,51.6594935 88.7549333,49.5508101 88.7549333,49.5508101 L65.7489333,49.5508101 Z" id="Fill-18" fill="#CF8A14" mask="url(#mask-6)"></path>
            <path d="M43.4857333,55.6986271 C43.4857333,55.6986271 49.2664,58.3943457 55.0990667,49.5503457 L43.4844,49.5503457 C43.4844,49.5503457 42.5757333,50.8564161 42.5384,52.8503457 C42.5004,54.8449387 43.4857333,55.6986271 43.4857333,55.6986271" id="Fill-19" fill="#F9A51A" mask="url(#mask-6)"></path>
            <path d="M96.1156,36.9949568 C96.4042667,45.487399 82.9789333,49.1270171 66.3269333,49.6868563 C49.6749333,50.2466955 36.1016,47.5151578 35.8129333,39.0227156 C35.5242667,30.5309367 48.5636,16.5349568 65.2156,15.9751176 C81.8676,15.4152784 95.8269333,28.5031779 96.1156,36.9949568" id="Fill-20" fill="#FEFEFE" mask="url(#mask-6)"></path>
            <path d="M65.2159333,15.9751176 C65.1679333,15.9764442 65.1219333,15.9817508 65.0739333,15.9837407 L66.2186,49.6908362 C66.2546,49.6895095 66.2912667,49.6881829 66.3272667,49.6868563 C82.9792667,49.1270171 96.4039333,45.4860724 96.1159333,36.9949568 C95.8272667,28.5031779 81.8679333,15.4152784 65.2159333,15.9751176" id="Fill-21" fill="#E2E3E4" mask="url(#mask-6)"></path>
            <path d="M66.6262,57.5021849 C75.8648667,57.1917528 84.1475333,54.2532603 90.1142,49.7440342 C90.5702,49.3991095 90.3402,48.5865467 89.6575333,44.7008382 L42.7788667,46.2768784 C42.3615333,50.1997327 42.1862,51.0262251 42.6648667,51.3393106 C48.9242,55.4372804 57.3875333,57.8126171 66.6262,57.5021849" id="Fill-22" fill="#243143" mask="url(#mask-6)"></path>
            <path d="M89.6578,44.7011035 L66.0764667,45.4937668 L66.4844667,57.5044402 C66.5324667,57.5024503 66.5784667,57.5037769 66.6264667,57.5024503 C75.8651333,57.1913548 84.1478,54.2528623 90.1144667,49.7442995 C90.5698,49.3993749 90.3398,48.5868121 89.6578,44.7011035" id="Fill-23" fill="#191B46" mask="url(#mask-6)"></path>
            <path d="M89.7559333,49.434995 C74.2019333,47.6778693 58.5012667,48.2005628 43.1012667,50.989809 C42.7432667,51.0541508 42.4026,50.807397 42.3392667,50.4359397 C42.0486,48.7252462 41.7606,47.0145528 41.4712667,45.3038593 C41.3766,44.7473367 41.7352667,44.2146935 42.2719333,44.1191759 C58.0352667,41.2947739 74.0966,40.7548342 90.0159333,42.5139497 C90.5586,42.5736482 90.9512667,43.0810854 90.8959333,43.6422513 C90.7199333,45.4033568 90.5432667,47.1631357 90.3672667,48.9249045 C90.3359333,49.2419698 90.0619333,49.4694874 89.7559333,49.434995" id="Fill-24" fill="#424545" mask="url(#mask-6)"></path>
            <path d="M90.0168667,42.5129548 C82.0102,41.6287538 73.9668667,41.3256181 65.9442,41.6028844 L66.1788667,48.5146432 C74.0368667,48.2440101 81.9155333,48.5484724 89.7562,49.4353266 C90.0615333,49.4698191 90.3355333,49.2409749 90.3675333,48.9239095 C90.5435333,47.1621407 90.7195333,45.4023618 90.8962,43.640593 C90.9528667,43.0794271 90.5582,42.5733166 90.0168667,42.5129548" id="Fill-25" fill="#5C5D5F" mask="url(#mask-6)"></path>
            <path d="M42.4061333,48.0816965 C42.2421333,48.1108824 42.0981333,48.1845106 41.9761333,48.2833447 C42.0968,49.0010533 42.2174667,49.7187618 42.3394667,50.4344804 C42.4028,50.8059377 42.7434667,51.0540181 43.1008,50.9883497 C58.5021333,48.1997668 74.2014667,47.6770734 89.7574667,49.4348623 C90.0628,49.4693548 90.3368,49.2405106 90.3681333,48.9241085 C90.4434667,48.1646111 90.5201333,47.4064402 90.5954667,46.6489327 C90.4661333,46.5567317 90.3168,46.4930533 90.1514667,46.4751437 C74.2328,44.7166915 58.1701333,45.2566312 42.4061333,48.0816965" id="Fill-26" fill="#FEC333" mask="url(#mask-6)"></path>
            <path d="M90.1514667,46.4763377 C82.1448,45.5908101 74.1014667,45.289001 66.0788,45.5649407 L66.1788,48.5147095 C74.0368,48.2427497 81.9154667,48.5485387 89.7561333,49.4347296 C90.0614667,49.4692221 90.3354667,49.2403779 90.3674667,48.9239759 C90.4434667,48.1644784 90.5194667,47.4063075 90.5948,46.6474734 C90.4661333,46.5579256 90.3174667,46.4942472 90.1514667,46.4763377" id="Fill-27" fill="#CF8A27" mask="url(#mask-6)"></path>
            <path d="M63.7894667,26.7923518 C63.7534667,25.7310452 64.5574667,24.8388844 65.5821333,24.804392 C66.6061333,24.7698995 67.4688,25.6063417 67.5048,26.6676482 C67.5408,27.7302814 66.7368,28.6224422 65.7128,28.6569347 C64.6881333,28.6914271 63.8254667,27.8549849 63.7894667,26.7923518 Z M69.9974667,33.1900402 C69.2621333,34.3773769 68.1014667,35.1839698 66.7948,35.4638894 L66.7101333,32.9757889 L67.6914667,32.9426231 L67.6314667,31.1815176 L66.6501333,31.2146834 L66.6181333,30.2780804 C68.1568,29.831005 69.2634667,28.3398693 69.2048,26.610603 C69.1354667,24.5775377 67.4828,22.9762915 65.5228,23.0426231 C63.5608,23.1082915 62.0221333,24.816995 62.0908,26.849397 C62.1494667,28.5793266 63.3548,29.9908643 64.9201333,30.3351256 L64.9514667,31.2717286 L63.9694667,31.3048945 L64.0288,33.066 L65.0114667,33.0328342 L65.0961333,35.5209347 C63.7734667,35.3292362 62.5601333,34.6022412 61.7461333,33.4673065 L60.3834667,34.5173367 C61.7034667,36.3567136 63.8054667,37.4120503 66.0081333,37.3384221 C68.2101333,37.2641307 70.2361333,36.0694975 71.4281333,34.1458794 L69.9974667,33.1900402 Z" id="Fill-28" fill="#424545" mask="url(#mask-6)"></path>
            <path d="M69.9974667,33.1899075 C69.2621333,34.3772442 68.1014667,35.1838372 66.7948,35.4637568 L66.7101333,32.9756563 L67.6914667,32.9431538 L67.6314667,31.1820482 L66.6501333,31.2145508 L66.6181333,30.2779477 C68.1568,29.8308724 69.2634667,28.3404 69.2048,26.6104704 C69.1354667,24.577405 67.4828,22.9768221 65.5228,23.0424905 C65.4748,23.0438171 65.4274667,23.0517769 65.3808,23.0544302 L65.4408,24.8228322 C65.4888,24.8175256 65.5341333,24.8049226 65.5821333,24.8029327 C66.6061333,24.7684402 67.4688,25.6048824 67.5048,26.6675156 C67.5408,27.7301487 66.7368,28.6223095 65.7128,28.656802 C65.6641333,28.6581286 65.6188,28.6488422 65.5708,28.6455256 L65.8654667,37.3376261 C65.9128,37.3362995 65.9601333,37.3382894 66.0081333,37.3369628 C68.2101333,37.2626714 70.2361333,36.0700281 71.4281333,34.1444201 L69.9974667,33.1899075 Z" id="Fill-29" fill="#5C5D5F" mask="url(#mask-6)"></path>
            <path d="M91.5642,93.7867296 L80.2768667,90.6611819 L78.1475333,87.6968201 C77.7662,87.1429508 77.0435333,86.9333427 76.4228667,87.198006 L65.7542,98.7980864 L65.6062,98.6369005 L65.6062,131.508217 C65.6548667,131.508217 65.7035333,131.510207 65.7542,131.510207 C79.0815333,131.510207 91.4802,127.56082 101.840867,120.780398 L101.840867,105.225624 C101.840867,99.2617447 97.4428667,94.9568201 91.5642,93.7867296" id="Fill-30" fill="#C7C9CB" mask="url(#mask-6)"></path>
            <path d="M60.9566,103.01678 L63.6506,106.462046 L63.6506,131.473061 C64.3492667,131.495614 65.0486,131.50888 65.7539333,131.50888 C66.4572667,131.50888 67.1586,131.494287 67.8572667,131.473061 L67.8572667,106.462046 L70.5512667,103.01678 L65.7539333,98.6143477 L60.9566,103.01678 Z" id="Fill-31" fill="#234481" mask="url(#mask-6)"></path>
            <path d="M65.754,98.6145467 L65.606,98.7492 L65.606,131.507753 C65.6546667,131.507753 65.704,131.510406 65.754,131.510406 C66.4573333,131.510406 67.1586667,131.495813 67.8573333,131.472597 L67.8573333,106.462245 L70.5513333,103.018306 L65.754,98.6145467 Z" id="Fill-32" fill="#243143" mask="url(#mask-6)"></path>
            <path d="M37.8526,97.8046372 L51.4639333,94.6280141 C51.8819333,94.5305065 52.1412667,94.114607 52.0439333,93.6993709 L51.3186,90.6295417 C51.2206,90.2136422 50.8032667,89.9556121 50.3859333,90.0531196 L36.7726,93.230406 C36.3552667,93.3272503 36.0959333,93.7431497 36.1946,94.1597126 L36.9186,97.2295417 C37.0179333,97.6447779 37.4352667,97.9021447 37.8526,97.8046372" id="Fill-33" fill="#243143" mask="url(#mask-6)"></path>
            <polygon id="Fill-34" fill="#FEC333" mask="url(#mask-6)" points="39.2287333 92.6574995 40.3400667 97.2244342 41.8934 96.8616 40.7234 92.3079317"></polygon>
            <polygon id="Fill-35" fill="#FEC333" mask="url(#mask-6)" points="42.335 91.9322955 43.593 96.465401 45.1643333 96.0985869 43.8856667 91.5701246"></polygon>
            <path d="M93.655,97.8046372 L80.0423333,94.6280141 C79.625,94.5305065 79.365,94.114607 79.4643333,93.6993709 L80.1883333,90.6295417 C80.2856667,90.2136422 80.7036667,89.9556121 81.1223333,90.0531196 L94.7336667,93.230406 C95.151,93.3272503 95.411,93.7431497 95.313,94.1597126 L94.5876667,97.2295417 C94.4903333,97.6447779 94.0723333,97.9021447 93.655,97.8046372" id="Fill-36" fill="#243143" mask="url(#mask-6)"></path>
            <polygon id="Fill-37" fill="#FEC333" mask="url(#mask-6)" points="92.2792 92.6574995 91.1665333 97.2244342 89.6125333 96.8616 90.7832 92.3079317"></polygon>
            <polygon id="Fill-38" fill="#FEC333" mask="url(#mask-6)" points="89.1712667 91.9322955 87.9146 96.465401 86.3419333 96.0985869 87.6212667 91.5701246"></polygon>
            <path d="M65.754,98.7243256 L54.4593333,85.6782151 C53.9786667,85.164808 53.108,85.164808 52.6293333,85.6795417 L48.2633333,90.6106372 L57.6806667,104.08127 C58.4646667,105.224165 60.2793333,105.255341 61.1113333,104.141632 L65.754,98.7243256 Z" id="Fill-39" fill="#FEFEFE" mask="url(#mask-6)"></path>
            <path d="M65.754,98.7243256 L77.048,85.6782151 C77.5293333,85.164808 78.4,85.164808 78.8786667,85.6795417 L83.2426667,90.6106372 L73.8266667,104.079944 C73.042,105.222838 71.2273333,105.255341 70.3953333,104.140306 L65.754,98.7243256 Z" id="Fill-40" fill="#BBBDBF" mask="url(#mask-6)"></path>
        </g>
    </g>
</svg>