<?xml version="1.0" encoding="UTF-8"?>
<svg width="132px" height="132px" viewBox="0 0 132 132" version="1.1" xmlns="http://www.w3.org/2000/svg" xmlns:xlink="http://www.w3.org/1999/xlink">
    <!-- Generator: Sketch 51.2 (57519) - http://www.bohemiancoding.com/sketch -->
    <title>Icon / Avatar / Female / j-avatar-9</title>
    <desc>Created with Sketch.</desc>
    <defs>
        <polygon id="path-1" points="0 131.508 131.508 131.508 131.508 0 0 0"></polygon>
    </defs>
    <g id="Icon-/-Avatar-/-Female-/-j-avatar-9" stroke="none" stroke-width="1" fill="none" fill-rule="evenodd">
        <g id="Group-21">
            <path d="M131.508,65.754 C131.508,102.068 102.068,131.508 65.754,131.508 C29.4386667,131.508 0,102.068 0,65.754 C0,29.4386667 29.4386667,0 65.754,0 C102.068,0 131.508,29.4386667 131.508,65.754" id="Fill-1" fill="#075558"></path>
            <path d="M59.7026667,97.0438667 L89.6766667,127.017867 C111.924,118.323867 128.272,97.8632 131.075333,73.2865333 L78.018,20.2298667 L59.7026667,97.0438667 Z" id="Fill-3" fill="#003A3D"></path>
            <mask id="mask-2" fill="white">
                <use xlink:href="#path-1"></use>
            </mask>
            <g id="Clip-6"></g>
            <polygon id="Fill-5" fill="#FDCB86" mask="url(#mask-2)" points="54.7953333 101.844667 76.7133333 101.844667 76.7133333 75.056 54.7953333 75.056"></polygon>
            <polygon id="Fill-7" fill="#D5A565" mask="url(#mask-2)" points="65.6073333 101.844667 76.7126667 101.844667 76.7126667 75.056 65.6073333 75.056"></polygon>
            <path d="M91.8918,93.9221333 L80.2771333,91.5994667 L78.2244667,88.6034667 C77.8398,88.0428 77.1131333,87.8308 76.4884667,88.0988 L65.7538,100.298133 L55.0838,88.1028 C54.4631333,87.8334667 53.7378,88.0361333 53.3491333,88.5894667 L51.2304667,91.5994667 L39.6164667,93.9221333 C33.7018,95.1061333 29.4451333,100.298133 29.4451333,106.328133 L29.4451333,120.5768 C39.8491333,127.482133 52.3304667,131.508133 65.7538,131.508133 C79.1758,131.508133 91.6571333,127.482133 102.0618,120.5768 L102.0618,106.328133 C102.0618,100.298133 97.8051333,95.1061333 91.8918,93.9221333" id="Fill-8" fill="#F06134" mask="url(#mask-2)"></path>
            <path d="M91.8918,93.9221333 L80.2771333,91.5994667 L78.2244667,88.6034667 C77.8398,88.0428 77.1131333,87.8308 76.4884667,88.0988 L65.7538,100.298133 L65.6058,100.130133 L65.6058,131.504133 C65.6551333,131.504133 65.7038,131.5068 65.7538,131.5068 C79.1758,131.5068 91.6571333,127.482133 102.0618,120.5768 L102.0618,106.328133 C102.0618,100.298133 97.8051333,95.1061333 91.8918,93.9221333" id="Fill-9" fill="#EE363F" mask="url(#mask-2)"></path>
            <path d="M89.2628667,52.7673333 C89.3808667,51.6773333 89.4422,50.6026667 89.4422,49.554 C89.4422,35.6906667 78.8362,24.4533333 65.7542,24.4533333 C52.6708667,24.4533333 42.0642,35.6906667 42.0642,49.554 C42.0642,50.6026667 42.1255333,51.6773333 42.2435333,52.7673333 C39.9462,53.364 38.8522,56.8993333 39.8015333,60.682 C40.7548667,64.4786667 43.4015333,67.0833333 45.7148667,66.5026667 C45.9255333,66.45 46.1215333,66.3646667 46.3122,66.266 C50.5922,74.8573333 57.7035333,81.8286667 65.7542,81.8286667 C73.8042,81.8286667 80.9155333,74.8573333 85.1955333,66.266 C85.3848667,66.3646667 85.5822,66.45 85.7928667,66.5026667 C88.1055333,67.0833333 90.7528667,64.4786667 91.7048667,60.682 C92.6542,56.8993333 91.5622,53.364 89.2628667,52.7673333" id="Fill-10" fill="#FDE8AE" mask="url(#mask-2)"></path>
            <path d="M89.2628667,52.7673333 C89.3808667,51.6773333 89.4422,50.6026667 89.4422,49.554 C89.4422,35.6906667 78.8362,24.4533333 65.7542,24.4533333 C65.7042,24.4533333 65.6562,24.456 65.6062,24.4573333 L65.6062,81.8246667 C65.6548667,81.8246667 65.7048667,81.8286667 65.7542,81.8286667 C73.8042,81.8286667 80.9155333,74.8573333 85.1955333,66.2646667 C85.3848667,66.3646667 85.5822,66.45 85.7928667,66.5026667 C88.1055333,67.0833333 90.7528667,64.4773333 91.7048667,60.682 C92.6542,56.8993333 91.5622,53.364 89.2628667,52.7673333" id="Fill-11" fill="#E0C785" mask="url(#mask-2)"></path>
            <path d="M66.8600667,106.1264 C66.8600667,106.7384 66.3647333,107.233733 65.7540667,107.233733 C65.1420667,107.233733 64.6467333,106.7384 64.6467333,106.1264 C64.6467333,105.515733 65.1420667,105.0204 65.7540667,105.0204 C66.3647333,105.0204 66.8600667,105.515733 66.8600667,106.1264" id="Fill-12" fill="#80433A" mask="url(#mask-2)"></path>
            <path d="M66.8600667,110.7016 C66.8600667,111.312267 66.3647333,111.8076 65.7540667,111.8076 C65.1420667,111.8076 64.6467333,111.312267 64.6467333,110.7016 C64.6467333,110.0896 65.1420667,109.594267 65.7540667,109.594267 C66.3647333,109.594267 66.8600667,110.0896 66.8600667,110.7016" id="Fill-13" fill="#80433A" mask="url(#mask-2)"></path>
            <path d="M65.7539333,100.3284 L55.4126,87.2150667 C54.9719333,86.6997333 54.1752667,86.7010667 53.7352667,87.2164 L49.7399333,91.9144 L58.3619333,105.711067 C59.0792667,106.859733 60.7419333,106.891733 61.5026,105.771067 L65.7539333,100.3284 Z" id="Fill-14" fill="#F38059" mask="url(#mask-2)"></path>
            <path d="M65.7539333,100.3284 L76.0946,87.2150667 C76.5346,86.6997333 77.3319333,86.7010667 77.7712667,87.2164 L81.7679333,91.9144 L73.1459333,105.711067 C72.4272667,106.859733 70.7652667,106.891733 70.0039333,105.771067 L65.7539333,100.3284 Z" id="Fill-15" fill="#F06134" mask="url(#mask-2)"></path>
            <path d="M75.9464667,62.7613333 C73.4458,62.7613333 71.4118,60.7273333 71.4118,58.2266667 C71.4118,55.726 73.4458,53.6913333 75.9464667,53.6913333 C78.4471333,53.6913333 80.4811333,55.726 80.4811333,58.2266667 C80.4811333,60.7273333 78.4471333,62.7613333 75.9464667,62.7613333 M55.5618,62.7613333 C53.0604667,62.7613333 51.0251333,60.7273333 51.0251333,58.2266667 C51.0251333,55.726 53.0604667,53.6913333 55.5618,53.6913333 C58.0624667,53.6913333 60.0964667,55.726 60.0964667,58.2266667 C60.0964667,60.7273333 58.0624667,62.7613333 55.5618,62.7613333 M75.9464667,51.4766667 C72.7958,51.4766667 70.1511333,53.65 69.4111333,56.5733333 L62.0964667,56.5733333 C61.3564667,53.65 58.7118,51.4766667 55.5618,51.4766667 C52.7744667,51.4766667 50.3764667,53.1746667 49.3484667,55.5906667 L43.8764667,50.1173333 C43.4438,49.686 42.7431333,49.686 42.3111333,50.1173333 C41.8784667,50.55 41.8784667,51.2506667 42.3111333,51.6826667 L48.8144667,58.186 C48.8144667,58.2 48.8118,58.2126667 48.8118,58.2266667 C48.8118,61.9473333 51.8391333,64.9753333 55.5618,64.9753333 C59.0931333,64.9753333 61.9951333,62.2473333 62.2824667,58.7873333 L69.2251333,58.7873333 C69.5111333,62.246 72.4131333,64.9753333 75.9464667,64.9753333 C79.6678,64.9753333 82.6964667,61.9473333 82.6964667,58.2266667 C82.6964667,54.5053333 79.6684667,51.4766667 75.9464667,51.4766667" id="Fill-16" fill="#666769" mask="url(#mask-2)"></path>
            <path d="M75.9464667,62.7613333 C73.4458,62.7613333 71.4118,60.7273333 71.4118,58.2266667 C71.4118,55.726 73.4458,53.6913333 75.9464667,53.6913333 C78.4471333,53.6913333 80.4811333,55.726 80.4811333,58.2266667 C80.4811333,60.7273333 78.4471333,62.7613333 75.9464667,62.7613333 M75.9464667,51.4766667 C72.7958,51.4766667 70.1511333,53.65 69.4111333,56.5733333 L65.6058,56.5733333 L65.6058,58.7873333 L69.2251333,58.7873333 C69.5124667,62.2473333 72.4144667,64.9766667 75.9464667,64.9766667 C79.6684667,64.9766667 82.6964667,61.9486667 82.6964667,58.2266667 C82.6964667,54.5053333 79.6684667,51.4766667 75.9464667,51.4766667" id="Fill-17" fill="#58585B" mask="url(#mask-2)"></path>
            <path d="M81.7256,58.6966667 C81.4422667,58.6966667 81.1596,58.5873333 80.9429333,58.372 C80.5102667,57.9406667 80.5102667,57.2393333 80.9429333,56.8066667 L87.6309333,50.1186667 C88.0642667,49.686 88.7649333,49.686 89.1962667,50.1186667 C89.6289333,50.55 89.6289333,51.2506667 89.1962667,51.6833333 L82.5082667,58.372 C82.2922667,58.5873333 82.0089333,58.6966667 81.7256,58.6966667" id="Fill-18" fill="#666769" mask="url(#mask-2)"></path>
            <path d="M90.1069333,37.1203333 C86.8976,31.8816667 82.6349333,27.2943333 77.3549333,24.5576667 C77.9616,23.697 78.2989333,22.7563333 78.2989333,21.7696667 C78.2989333,17.6936667 72.5842667,14.3903333 65.5329333,14.3903333 C58.4822667,14.3903333 52.7662667,17.6936667 52.7662667,21.7696667 C52.7662667,22.8683333 53.1849333,23.9103333 53.9296,24.8476667 C53.7989333,24.905 53.6716,24.9563333 53.5409333,25.0176667 C36.3829333,32.9863333 38.6702667,58.337 39.7042667,55.6803333 C40.7376,53.023 42.2449333,52.767 42.2449333,52.767 C51.2056,48.6356667 56.7516,39.8503333 56.7516,39.8503333 C56.7516,39.8503333 87.4509333,45.6796667 83.0236,79.6276667 C83.0222667,79.6276667 102.402933,57.1883333 90.1069333,37.1203333" id="Fill-19" fill="#CF8A27" mask="url(#mask-2)"></path>
            <path d="M90.1069333,37.1203333 C86.8976,31.8816667 82.6349333,27.2943333 77.3549333,24.5576667 C77.9616,23.697 78.2989333,22.7563333 78.2989333,21.7696667 C78.2989333,17.7083333 72.6229333,14.4143333 65.6062667,14.391 L65.6062667,43.153 C74.2936,47.685 85.8576,57.8943333 83.0222667,79.6276667 C83.0222667,79.6276667 102.402933,57.1883333 90.1069333,37.1203333" id="Fill-20" fill="#926021" mask="url(#mask-2)"></path>
        </g>
    </g>
</svg>