<?xml version="1.0" encoding="UTF-8"?>
<svg width="132px" height="132px" viewBox="0 0 132 132" version="1.1" xmlns="http://www.w3.org/2000/svg" xmlns:xlink="http://www.w3.org/1999/xlink">
    <!-- Generator: Sketch 51.2 (57519) - http://www.bohemiancoding.com/sketch -->
    <title>Icon / Avatar / Male / j-avatar-1</title>
    <desc>Created with Sketch.</desc>
    <defs>
        <polygon id="path-1" points="0 0.489527638 131.507933 0.489527638 131.507933 131.336683 0 131.336683"></polygon>
        <polygon id="path-3" points="0 131.510472 131.508 131.510472 131.508 0.663316583 0 0.663316583"></polygon>
    </defs>
    <g id="Icon-/-Avatar-/-Male-/-j-avatar-1" stroke="none" stroke-width="1" fill="none" fill-rule="evenodd">
        <g id="Group-29">
            <g id="Group-3" transform="translate(0.000000, 0.173789)">
                <mask id="mask-2" fill="white">
                    <use xlink:href="#path-1"></use>
                </mask>
                <g id="Clip-2"></g>
                <path d="M131.507933,65.9131055 C131.507933,102.044623 102.067933,131.336683 65.7539333,131.336683 C29.4386,131.336683 -6.66666667e-05,102.044623 -6.66666667e-05,65.9131055 C-6.66666667e-05,29.7802613 29.4386,0.489527638 65.7539333,0.489527638 C102.067933,0.489527638 131.507933,29.7802613 131.507933,65.9131055" id="Fill-1" fill="#FEC333" mask="url(#mask-2)"></path>
            </g>
            <path d="M80.9557333,30.8188824 L55.9050667,88.1539779 L93.3977333,125.459566 C112.911733,116.449737 127.237733,98.1999075 130.699067,76.3555658 L80.9557333,30.8188824 Z" id="Fill-4" fill="#CF8A27"></path>
            <mask id="mask-4" fill="white">
                <use xlink:href="#path-3"></use>
            </mask>
            <g id="Clip-7"></g>
            <polygon id="Fill-6" fill="#D0D2D3" mask="url(#mask-4)" points="54.7953333 101.996201 76.7126667 101.996201 76.7126667 75.3421508 54.7953333 75.3421508"></polygon>
            <polygon id="Fill-8" fill="#AAADAF" mask="url(#mask-4)" points="65.3866667 101.996201 76.714 101.996201 76.714 75.3421508 65.3866667 75.3421508"></polygon>
            <path d="M91.8917333,94.1133467 L80.2770667,91.8023518 L78.2244,88.821407 C77.8404,88.2635578 80.2877333,100.331276 79.6630667,100.59793 L65.7537333,100.45797 C65.7537333,100.45797 60.6990667,100.31602 57.7510667,96.2545327 C55.1070667,92.6122613 55.0837333,88.3232563 55.0837333,88.3232563 C54.4630667,88.0539497 53.7377333,88.2562613 53.3490667,88.8074774 L51.2310667,91.8023518 L41.9524,93.653005 C36.0377333,94.830392 31.1384,95.2728241 29.4450667,96.1172261 L29.4450667,120.63407 C32.4404,122.61208 35.6084,124.353286 38.9210667,125.829166 C47.1144,129.479397 56.1957333,131.510472 65.7537333,131.510472 C79.1757333,131.510472 91.6570667,127.504704 102.061733,120.63407 L102.061733,96.3427538 C102.061733,96.3427538 97.8050667,95.291397 91.8917333,94.1133467" id="Fill-9" fill="#FEFEFE" mask="url(#mask-4)"></path>
            <path d="M91.8917333,94.1134794 L80.2770667,91.8024844 L78.2244,88.8215397 C77.8404,88.2636905 77.1130667,88.0527558 76.4884,88.3200724 C76.4884,88.3200724 76.0304,92.7291377 73.5397333,95.9442332 C71.0504,99.1593286 66.1590667,100.346002 66.1590667,100.346002 L65.3850667,100.430243 L65.3850667,131.502645 C65.5084,131.502645 65.6297333,131.510605 65.7537333,131.510605 C79.1757333,131.510605 91.6570667,127.504836 102.061733,120.63553 L102.061733,106.457138 C102.061733,100.457439 97.8050667,95.2915296 91.8917333,94.1134794" id="Fill-10" fill="#FEFEFE" mask="url(#mask-4)"></path>
            <path d="M65.7540667,24.9938352 C51.5680667,24.9938352 39.0887333,37.1484482 40.0680667,52.0730714 C40.7427333,62.3531518 44.4667333,70.2081467 44.6740667,70.1013528 C49.3147333,79.371202 57.0254,86.8905588 65.7540667,86.8905588 C74.4827333,86.8905588 79.9387333,24.9938352 65.7540667,24.9938352" id="Fill-11" fill="#FEFEFE" mask="url(#mask-4)"></path>
            <path d="M91.4384667,52.0728724 C91.7731333,37.1203899 79.9384667,24.9936362 65.7538,24.9936362 C65.6191333,24.9936362 65.4871333,25.0022593 65.3538,25.0035859 L65.3538,86.8797467 C65.4871333,86.8830633 65.6204667,86.8910231 65.7538,86.8910231 C74.4824667,86.8910231 82.1931333,79.371003 86.8338,70.1004905 C87.0391333,70.2086111 91.2438,60.7583397 91.4384667,52.0728724" id="Fill-12" fill="#D0D2D3" mask="url(#mask-4)"></path>
            <path d="M78.7062,58.7761508 C70.1002,58.1008945 61.4075333,58.1008945 52.8002,58.7761508 C51.2635333,58.8962111 49.8402,58.1844724 49.6148667,57.1530151 C49.3182,55.7501005 49.0208667,54.3485126 48.7242,52.945598 C48.4988667,51.9154673 49.7035333,50.9437085 51.4188667,50.8097186 C60.9428667,50.0621608 70.5648667,50.0621608 80.0882,50.8097186 C81.8028667,50.9450352 83.0075333,51.9154673 82.7822,52.945598 C82.4855333,54.3485126 82.1902,55.7501005 81.8928667,57.1530151 C81.6668667,58.1831457 80.2422,58.8975377 78.7062,58.7761508" id="Fill-13" fill="#3BC1D2" mask="url(#mask-4)"></path>
            <path d="M80.0880667,50.8097186 C75.1887333,50.424995 70.2634,50.2425829 65.3400667,50.253196 L65.3400667,58.2733568 C69.8034,58.2627437 74.2667333,58.4272462 78.7060667,58.7761508 C80.2427333,58.8962111 81.6680667,58.1831457 81.8934,57.1530151 L82.7827333,52.9449347 C83.0074,51.9161307 81.8040667,50.9450352 80.0880667,50.8097186" id="Fill-14" fill="#2D9AA8" mask="url(#mask-4)"></path>
            <path d="M77.1512,56.9509025 C69.5932,56.5807719 61.9585333,56.5807719 54.3998667,56.9509025 C53.0505333,57.0165709 51.7998667,56.6265407 51.6025333,56.0620583 C51.3418667,55.2932744 51.0812,54.5258171 50.8198667,53.7576965 C50.6225333,53.1932141 51.6798667,52.6612342 53.1865333,52.587606 C61.5512,52.1783397 70.0012,52.1783397 78.3645333,52.587606 C79.8712,52.6618975 80.9285333,53.1932141 80.7312,53.7576965 C80.4705333,54.5258171 80.2112,55.2932744 79.9498667,56.0620583 C79.7512,56.6258774 78.5005333,57.0172342 77.1512,56.9509025" id="Fill-15" fill="#86D2E0" mask="url(#mask-4)"></path>
            <path d="M78.3647333,52.5877387 C74.0620667,52.3774673 69.7367333,52.2766432 65.4127333,52.2832764 L65.4127333,56.6757588 C69.3327333,56.6697889 73.2527333,56.76 77.1514,56.9510352 C78.5007333,57.0167035 79.7520667,56.6260101 79.9500667,56.062191 L80.7314,53.7571658 C80.9287333,53.1940101 79.8720667,52.6620302 78.3647333,52.5877387" id="Fill-16" fill="#3BC1D2" mask="url(#mask-4)"></path>
            <polygon id="Fill-17" fill="#D0D2D3" mask="url(#mask-4)" points="77.2984667 123.032225 57.1918 123.032225 51.6964667 119.180346 51.6964667 105.014557 73.6764667 105.014557 77.2984667 109.174878"></polygon>
            <polygon id="Fill-18" fill="#FEFEFE" mask="url(#mask-4)" points="53.584 117.127116 72.0093333 117.127116 72.0093333 106.921327 53.584 106.921327"></polygon>
            <polygon id="Fill-19" fill="#47BCC6" mask="url(#mask-4)" points="55.188 110.835558 57.306 110.835558 57.306 108.430372 55.188 108.430372"></polygon>
            <polygon id="Fill-20" fill="#47BCC6" mask="url(#mask-4)" points="55.188 114.813467 57.306 114.813467 57.306 112.408281 55.188 112.408281"></polygon>
            <polygon id="Fill-21" fill="#47BCC6" mask="url(#mask-4)" points="59.4666667 110.835558 61.5846667 110.835558 61.5846667 108.430372 59.4666667 108.430372"></polygon>
            <polygon id="Fill-22" fill="#47BCC6" mask="url(#mask-4)" points="59.4666667 114.813467 61.5846667 114.813467 61.5846667 112.408281 59.4666667 112.408281"></polygon>
            <polygon id="Fill-23" fill="#47BCC6" mask="url(#mask-4)" points="63.7446667 110.835558 65.8626667 110.835558 65.8626667 108.430372 63.7446667 108.430372"></polygon>
            <polygon id="Fill-24" fill="#47BCC6" mask="url(#mask-4)" points="63.7446667 114.813467 65.8626667 114.813467 65.8626667 112.408281 63.7446667 112.408281"></polygon>
            <polygon id="Fill-25" fill="#47BCC6" mask="url(#mask-4)" points="68.0233333 110.835558 70.1413333 110.835558 70.1413333 108.430372 68.0233333 108.430372"></polygon>
            <polygon id="Fill-26" fill="#47BCC6" mask="url(#mask-4)" points="68.0233333 114.813467 70.1413333 114.813467 70.1413333 112.408281 68.0233333 112.408281"></polygon>
            <path d="M40.894,126.619707 L43.162,127.617998 L43.162,110.695465 C43.162,110.695465 41.234,109.667988 40.894,113.960973 C40.554,118.253958 40.894,126.619707 40.894,126.619707" id="Fill-27" fill="#D0D2D3" mask="url(#mask-4)"></path>
            <path d="M88.5922667,127.465899 L86.3242667,128.244633 L86.3242667,111.541658 C86.3242667,111.541658 88.2522667,110.514181 88.5922667,114.807166 C88.9322667,119.100151 88.5922667,127.465899 88.5922667,127.465899" id="Fill-28" fill="#D0D2D3" mask="url(#mask-4)"></path>
        </g>
    </g>
</svg>