<?xml version="1.0" encoding="UTF-8"?>
<svg width="132px" height="132px" viewBox="0 0 132 132" version="1.1" xmlns="http://www.w3.org/2000/svg" xmlns:xlink="http://www.w3.org/1999/xlink">
    <!-- Generator: Sketch 51.2 (57519) - http://www.bohemiancoding.com/sketch -->
    <title>Icon / Avatar / Female / j-avatar-10</title>
    <desc>Created with Sketch.</desc>
    <defs>
        <polygon id="path-1" points="0.511533333 0.270066667 68.1746667 0.270066667 68.1746667 105.0634 0.511533333 105.0634"></polygon>
        <polygon id="path-3" points="0 131.508 131.508 131.508 131.508 0 0 0"></polygon>
    </defs>
    <g id="Icon-/-Avatar-/-Female-/-j-avatar-10" stroke="none" stroke-width="1" fill="none" fill-rule="evenodd">
        <g id="Group-37">
            <path d="M131.508,65.754 C131.508,102.068 102.068,131.508 65.754,131.508 C29.4386667,131.508 0,102.068 0,65.754 C0,29.4386667 29.4386667,0 65.754,0 C102.068,0 131.508,29.4386667 131.508,65.754" id="Fill-1" fill="#234481"></path>
            <g id="Group-5" transform="translate(63.333333, 25.508000)">
                <mask id="mask-2" fill="white">
                    <use xlink:href="#path-1"></use>
                </mask>
                <g id="Clip-4"></g>
                <path d="M0.511533333,34.9320667 L13.5148667,105.0634 C44.5448667,99.7894 68.1735333,72.7800667 68.1748667,40.2460667 L28.1975333,0.270066667 L0.511533333,34.9320667 Z" id="Fill-3" fill="#191B46" mask="url(#mask-2)"></path>
            </g>
            <mask id="mask-4" fill="white">
                <use xlink:href="#path-3"></use>
            </mask>
            <g id="Clip-7"></g>
            <polygon id="Fill-6" fill="#FDCB86" mask="url(#mask-4)" points="54.7953333 99.078 76.7133333 99.078 76.7133333 75.056 54.7953333 75.056"></polygon>
            <polygon id="Fill-8" fill="#D5A565" mask="url(#mask-4)" points="65.6073333 99.078 76.7126667 99.078 76.7126667 75.056 65.6073333 75.056"></polygon>
            <path d="M89.2628667,52.7674 C89.3808667,51.6774 89.4422,50.6020667 89.4422,49.5540667 C89.4422,35.6907333 78.8362,24.4534 65.7542,24.4534 C52.6708667,24.4534 42.0642,35.6907333 42.0642,49.5540667 C42.0642,50.6020667 42.1255333,51.6774 42.2435333,52.7674 C39.9462,53.3640667 38.8528667,56.8994 39.8022,60.6820667 C40.7548667,64.4787333 43.4015333,67.0834 45.7148667,66.5027333 C45.9255333,66.4500667 46.1215333,66.3647333 46.3122,66.2660667 C50.5922,74.8574 57.7035333,81.8280667 65.7542,81.8280667 C73.8042,81.8280667 80.9155333,74.8574 85.1955333,66.2660667 C85.3848667,66.3647333 85.5822,66.4500667 85.7928667,66.5027333 C88.1055333,67.0834 90.7528667,64.4787333 91.7048667,60.6820667 C92.6542,56.8994 91.5608667,53.3640667 89.2628667,52.7674" id="Fill-9" fill="#FEDCAD" mask="url(#mask-4)"></path>
            <path d="M89.2628667,52.7674 C89.3808667,51.6774 89.4422,50.6020667 89.4422,49.5540667 C89.4422,35.6907333 78.8362,24.4534 65.7542,24.4534 C65.7042,24.4534 65.6562,24.4560667 65.6062,24.4574 L65.6062,81.8247333 C65.6548667,81.8247333 65.7042,81.8280667 65.7542,81.8280667 C73.8042,81.8280667 80.9155333,74.8574 85.1955333,66.2660667 C85.3848667,66.3660667 85.5822,66.4500667 85.7928667,66.5040667 C88.1055333,67.0834 90.7528667,64.4787333 91.7048667,60.6834 C92.6542,56.8994 91.5608667,53.3640667 89.2628667,52.7674" id="Fill-10" fill="#FDCB86" mask="url(#mask-4)"></path>
            <path d="M41.3856,46.5204667 C41.3856,46.5204667 41.8282667,52.7984667 42.9356,56.6024667 L45.0016,56.5071333 C45.0016,56.5071333 44.4849333,51.3711333 48.8389333,46.1391333 C53.1936,40.9078 41.3856,46.5204667 41.3856,46.5204667" id="Fill-11" fill="#F9A51A" mask="url(#mask-4)"></path>
            <path d="M97.1918667,35.3282667 C97.1918667,43.9496 83.0812,47.1822667 65.7185333,47.1822667 C48.3565333,47.1822667 34.3165333,43.9496 34.3165333,35.3282667 C34.3165333,26.7082667 48.3918667,12.9609333 65.7538667,12.9609333 C83.1165333,12.9609333 97.1918667,26.7082667 97.1918667,35.3282667" id="Fill-12" fill="#FEFEFE" mask="url(#mask-4)"></path>
            <path d="M65.7540667,12.9610667 C65.7040667,12.9610667 65.6560667,12.9650667 65.6060667,12.9650667 L65.6060667,47.1824 L65.7187333,47.1824 C83.0814,47.1824 97.1920667,43.9477333 97.1920667,35.3284 C97.1920667,26.7084 83.1160667,12.9610667 65.7540667,12.9610667" id="Fill-13" fill="#E2E3E4" mask="url(#mask-4)"></path>
            <path d="M90.1220667,46.5204667 C90.1220667,46.5204667 89.6794,52.7984667 88.5720667,56.6024667 L86.5054,56.5071333 C86.5054,56.5071333 87.0220667,51.3711333 82.6674,46.1391333 C78.3140667,40.9078 90.1220667,46.5204667 90.1220667,46.5204667" id="Fill-14" fill="#CF8A14" mask="url(#mask-4)"></path>
            <path d="M65.7540667,55.3132667 C75.3874,55.3132667 84.1174,52.5812667 90.4907333,48.1572667 C90.9774,47.8186 90.7667333,46.9759333 90.1934,42.9619333 L41.3140667,42.9619333 C40.7414,46.9759333 40.5287333,47.8186 41.0174,48.1572667 C47.3907333,52.5812667 56.1207333,55.3132667 65.7540667,55.3132667" id="Fill-15" fill="#243143" mask="url(#mask-4)"></path>
            <path d="M90.1936667,42.9620667 L65.6056667,42.9620667 L65.6056667,55.3100667 C65.6563333,55.3100667 65.7036667,55.3134 65.7543333,55.3134 C75.387,55.3134 84.117,52.5814 90.491,48.1567333 C90.9776667,47.8187333 90.767,46.9760667 90.1936667,42.9620667" id="Fill-16" fill="#191B46" mask="url(#mask-4)"></path>
            <path d="M71.5126667,67.0938667 C67.6553333,64.4552 66.4733333,65.6152 65.754,66.9152 C65.0333333,65.6152 63.8513333,64.4552 59.996,67.0938667 C56.0513333,69.7938667 50.8486667,66.6838667 50.8486667,66.6838667 C50.8486667,66.6838667 53.6273333,72.3812 60.4286667,71.6692 C63.3413333,71.3645333 65.13,70.1065333 65.754,68.8285333 C66.376,70.1065333 68.1646667,71.3645333 71.0793333,71.6692 C77.8806667,72.3785333 80.6573333,66.6838667 80.6573333,66.6838667 C80.6573333,66.6838667 75.4573333,69.7938667 71.5126667,67.0938667" id="Fill-17" fill="#F9A51A" mask="url(#mask-4)"></path>
            <path d="M71.5126667,67.0938667 C67.6553333,64.4552 66.4733333,65.6152 65.754,66.9152 C65.696,66.8118667 65.6353333,66.7105333 65.5693333,66.6092 L65.5693333,69.1325333 C65.6353333,69.0312 65.704,68.9298667 65.754,68.8285333 C66.376,70.1065333 68.1646667,71.3645333 71.0793333,71.6692 C77.8806667,72.3812 80.6573333,66.6838667 80.6573333,66.6838667 C80.6573333,66.6838667 75.4573333,69.7938667 71.5126667,67.0938667" id="Fill-18" fill="#CF8A14" mask="url(#mask-4)"></path>
            <path d="M91.5642667,93.5937333 L80.2769333,90.4524 L78.1476,87.4730667 C77.7662667,86.9164 77.0436,86.7057333 76.4229333,86.9717333 L65.7542667,98.6304 L55.1489333,86.9764 C54.5316,86.7084 53.8116,86.9104 53.4242667,87.4597333 L51.2896,90.4524 L39.9249333,93.4830667 C34.0476,94.6584 29.6669333,99.0964 29.6669333,105.0904 L29.6669333,120.723733 C40.0276,127.5384 52.4262667,131.507733 65.7542667,131.507733 C79.0816,131.507733 91.4802667,127.5384 101.840933,120.723733 L101.840933,105.0904 C101.840933,99.0964 97.4422667,94.7697333 91.5642667,93.5937333" id="Fill-19" fill="#D6DAD9" mask="url(#mask-4)"></path>
            <path d="M91.5642667,93.5937333 L80.2769333,90.4524 L78.1476,87.4730667 C77.7662667,86.9164 77.0436,86.7057333 76.4229333,86.9717333 L65.7542667,98.6304 L65.6056,98.4684 L65.6056,131.505733 C65.6549333,131.505733 65.7036,131.507733 65.7542667,131.507733 C79.0816,131.507733 91.4802667,127.5384 101.840933,120.723733 L101.840933,105.0904 C101.840933,99.0964 97.4422667,94.7697333 91.5642667,93.5937333" id="Fill-20" fill="#C7C9CB" mask="url(#mask-4)"></path>
            <path d="M60.9567333,102.8704 L63.6507333,106.333067 L63.6507333,131.4704 C64.3494,131.493067 65.0487333,131.5064 65.7540667,131.5064 C66.4574,131.5064 67.1587333,131.491733 67.8574,131.4704 L67.8574,106.333067 L70.5507333,102.8704 L65.7540667,98.4457333 L60.9567333,102.8704 Z" id="Fill-21" fill="#234481" mask="url(#mask-4)"></path>
            <path d="M65.7540667,98.4459333 L65.6060667,98.5812667 L65.6060667,131.505267 C65.6547333,131.505267 65.7040667,131.507933 65.7540667,131.507933 C66.4574,131.507933 67.1587333,131.493267 67.8574,131.469933 L67.8574,106.333267 L70.5507333,102.871933 L65.7540667,98.4459333 Z" id="Fill-22" fill="#243143" mask="url(#mask-4)"></path>
            <path d="M37.8527333,97.6319333 L51.4640667,94.4392667 C51.8820667,94.3412667 52.1414,93.9232667 52.0434,93.5059333 L51.3187333,90.4206 C51.2207333,90.0026 50.8034,89.7432667 50.3860667,89.8412667 L36.7727333,93.0346 C36.3554,93.1319333 36.0960667,93.5499333 36.1947333,93.9686 L36.9187333,97.0539333 C37.0174,97.4712667 37.4354,97.7299333 37.8527333,97.6319333" id="Fill-23" fill="#243143" mask="url(#mask-4)"></path>
            <polygon id="Fill-24" fill="#FEC333" mask="url(#mask-4)" points="39.2286667 92.4588 40.34 97.0488 41.8933333 96.6841333 40.7233333 92.1074667"></polygon>
            <polygon id="Fill-25" fill="#FEC333" mask="url(#mask-4)" points="42.3349333 91.7299333 43.5929333 96.2859333 45.1642667 95.9172667 43.8856 91.3659333"></polygon>
            <path d="M93.6549333,97.6319333 L80.0429333,94.4392667 C79.6249333,94.3412667 79.3649333,93.9232667 79.4642667,93.5059333 L80.1882667,90.4206 C80.2856,90.0026 80.7036,89.7432667 81.1222667,89.8412667 L94.7336,93.0346 C95.1509333,93.1319333 95.4109333,93.5499333 95.3129333,93.9686 L94.5882667,97.0539333 C94.4902667,97.4712667 94.0729333,97.7299333 93.6549333,97.6319333" id="Fill-26" fill="#243143" mask="url(#mask-4)"></path>
            <polygon id="Fill-27" fill="#FEC333" mask="url(#mask-4)" points="92.2792667 92.4588 91.1666 97.0488 89.6126 96.6841333 90.7832667 92.1074667"></polygon>
            <polygon id="Fill-28" fill="#FEC333" mask="url(#mask-4)" points="89.1714 91.7299333 87.9147333 96.2859333 86.3420667 95.9172667 87.6214 91.3659333"></polygon>
            <path d="M65.7540667,98.5562667 L54.4587333,85.4442667 C53.9787333,84.9282667 53.1080667,84.9282667 52.6294,85.4456 L48.2634,90.4016 L57.6807333,103.940267 C58.4647333,105.088933 60.2794,105.120267 61.1114,104.000933 L65.7540667,98.5562667 Z" id="Fill-29" fill="#FEFEFE" mask="url(#mask-4)"></path>
            <path d="M65.7540667,98.5562667 L77.0474,85.4442667 C77.5294,84.9282667 78.4000667,84.9282667 78.8787333,85.4456 L83.2427333,90.4016 L73.8267333,103.938933 C73.0420667,105.0876 71.2274,105.120267 70.3954,103.9996 L65.7540667,98.5562667 Z" id="Fill-30" fill="#BBBDBF" mask="url(#mask-4)"></path>
            <path d="M90.1284,47.7205333 C73.9910667,45.4305333 57.6210667,45.4252 41.4837333,47.7065333 C41.1084,47.7592 40.7624,47.4998667 40.7097333,47.1245333 C40.4677333,45.3965333 40.2284,43.6685333 39.9877333,41.9398667 C39.9084,41.3785333 40.3010667,40.8552 40.8624,40.7772 C57.3797333,38.4725333 74.1264,38.4725333 90.6437333,40.7772 C91.2070667,40.8552 91.5984,41.3785333 91.5204,41.9398667 C91.2744,43.7032 91.0284,45.4652 90.7830667,47.2292 C90.7390667,47.5465333 90.4457333,47.7652 90.1284,47.7205333" id="Fill-31" fill="#424545" mask="url(#mask-4)"></path>
            <path d="M90.645,40.7763333 C82.3376667,39.6176667 73.9716667,39.0416667 65.6056667,39.0489309 L65.6056667,45.9996667 C73.799,45.9936667 81.9936667,46.5656667 90.1283333,47.7203333 C90.4456667,47.7656667 90.739,47.545 90.783,47.2276667 C91.0283333,45.4643333 91.2743333,43.7023333 91.5203333,41.939 C91.5996667,41.377 91.207,40.855 90.645,40.7763333" id="Fill-32" fill="#5C5D5F" mask="url(#mask-4)"></path>
            <path d="M40.8626,44.762 C40.6906,44.786 40.5379333,44.8546667 40.4072667,44.95 C40.5079333,45.6753333 40.6079333,46.4 40.7099333,47.1233333 C40.7626,47.498 41.1086,47.7593333 41.4832667,47.7053333 C57.6219333,45.424 73.9912667,45.4293333 90.1299333,47.7206667 C90.4466,47.7653333 90.7406,47.5446667 90.7846,47.2273333 C90.8899333,46.4673333 90.9959333,45.7086667 91.1012667,44.95 C90.9699333,44.8533333 90.8166,44.7846667 90.6452667,44.7606667 C74.1279333,42.4566667 57.3799333,42.4566667 40.8626,44.762" id="Fill-33" fill="#FEC333" mask="url(#mask-4)"></path>
            <path d="M90.645,44.762 C82.3376667,43.602 73.9716667,43.0273333 65.6056667,43.0332868 L65.6056667,45.9993333 C73.799,45.992 81.9936667,46.5653333 90.1283333,47.7206667 C90.4456667,47.7653333 90.739,47.5446667 90.783,47.2273333 C90.8896667,46.4673333 90.995,45.7086667 91.1003333,44.9486667 C90.9696667,44.8546667 90.817,44.786 90.645,44.762" id="Fill-34" fill="#CF8A27" mask="url(#mask-4)"></path>
            <path d="M63.8164,26.0686667 C63.8164,25.0013333 64.6857333,24.1326667 65.7537333,24.1326667 C66.8210667,24.1326667 67.6904,25.0013333 67.6904,26.0686667 C67.6904,27.1373333 66.8210667,28.006 65.7537333,28.006 C64.6857333,28.006 63.8164,27.1373333 63.8164,26.0686667 Z M70.0557333,32.7046667 C69.2477333,33.872 68.0104,34.6433333 66.6397333,34.8806667 L66.6397333,32.3786667 L67.6630667,32.3786667 L67.6630667,30.6073333 L66.6397333,30.6073333 L66.6397333,29.6653333 C68.2570667,29.268 69.4624,27.808 69.4624,26.0686667 C69.4624,24.0246667 67.7984,22.3606667 65.7537333,22.3606667 C63.7084,22.3606667 62.0457333,24.0246667 62.0457333,26.0686667 C62.0457333,27.808 63.2504,29.2666667 64.8684,29.6653333 L64.8684,30.6073333 L63.8444,30.6073333 L63.8444,32.3786667 L64.8684,32.3786667 L64.8684,34.8806667 C63.4977333,34.6433333 62.2597333,33.872 61.4524,32.7046667 L59.9964,33.7126667 C61.3050667,35.6053333 63.4570667,36.7366667 65.7537333,36.7366667 C68.0504,36.7366667 70.2024,35.6053333 71.5117333,33.7126667 L70.0557333,32.7046667 Z" id="Fill-35" fill="#424545" mask="url(#mask-4)"></path>
            <path d="M70.0556667,32.7044 C69.2483333,33.8724 68.0103333,34.6430667 66.6396667,34.8804 L66.6396667,32.3784 L67.663,32.3784 L67.663,30.6077333 L66.6396667,30.6077333 L66.6396667,29.6657333 C68.257,29.2677333 69.4623333,27.8084 69.4623333,26.0684 C69.4623333,24.0244 67.7983333,22.3604 65.7543333,22.3604 C65.7036667,22.3604 65.655,22.3664 65.6056667,22.3677333 L65.6056667,24.1464 C65.6563333,24.1424 65.7036667,24.1310667 65.7543333,24.1310667 C66.821,24.1310667 67.6903333,25.0004 67.6903333,26.0684 C67.6903333,27.1370667 66.821,28.0064 65.7543333,28.0064 C65.7023333,28.0064 65.6563333,27.9950667 65.6056667,27.9904 L65.6056667,36.7317333 C65.655,36.7317333 65.7036667,36.7350667 65.7543333,36.7350667 C68.0503333,36.7350667 70.2023333,35.6050667 71.5116667,33.7117333 L70.0556667,32.7044 Z" id="Fill-36" fill="#5C5D5F" mask="url(#mask-4)"></path>
        </g>
    </g>
</svg>