<?xml version="1.0" encoding="UTF-8"?>
<svg width="132px" height="132px" viewBox="0 0 132 132" version="1.1" xmlns="http://www.w3.org/2000/svg" xmlns:xlink="http://www.w3.org/1999/xlink">
    <!-- Generator: Sketch 51.2 (57519) - http://www.bohemiancoding.com/sketch -->
    <title>Icon / Avatar / Male / j-avatar-7</title>
    <desc>Created with Sketch.</desc>
    <defs>
        <polygon id="path-1" points="6.66666667e-05 0.48959397 131.508 0.48959397 131.508 131.336683 6.66666667e-05 131.336683"></polygon>
        <polygon id="path-3" points="0 131.510472 131.508 131.510472 131.508 0.663316583 0 0.663316583"></polygon>
    </defs>
    <g id="Icon-/-Avatar-/-Male-/-j-avatar-7" stroke="none" stroke-width="1" fill="none" fill-rule="evenodd">
        <g id="Group-21">
            <g id="Group-3" transform="translate(0.000000, 0.173789)">
                <mask id="mask-2" fill="white">
                    <use xlink:href="#path-1"></use>
                </mask>
                <g id="Clip-2"></g>
                <path d="M131.508067,65.9131719 C131.508067,102.044689 102.068067,131.33675 65.7540667,131.33675 C29.4387333,131.33675 6.66666667e-05,102.044689 6.66666667e-05,65.9131719 C6.66666667e-05,29.7803276 29.4387333,0.48959397 65.7540667,0.48959397 C102.068067,0.48959397 131.508067,29.7803276 131.508067,65.9131719" id="Fill-1" fill="#89D0C7" mask="url(#mask-2)"></path>
            </g>
            <path d="M81.7901333,29.7268643 L69.9694667,69.9105829 L51.2901333,60.2115678 L39.4821333,67.3170151 L59.9861333,87.7199698 L56.3074667,94.2821608 L89.3554667,127.16409 C112.606133,118.263045 129.490133,96.6004523 131.336133,70.7987638 L81.7901333,29.7268643 Z" id="Fill-4" fill="#77B5AF"></path>
            <mask id="mask-4" fill="white">
                <use xlink:href="#path-3"></use>
            </mask>
            <g id="Clip-7"></g>
            <polygon id="Fill-6" fill="#9E8059" mask="url(#mask-4)" points="54.7953333 97.1506734 76.7126667 97.1506734 76.7126667 75.3421508 54.7953333 75.3421508"></polygon>
            <polygon id="Fill-8" fill="#6A5538" mask="url(#mask-4)" points="65.6073333 97.1506734 76.7126667 97.1506734 76.7126667 75.3421508 65.6073333 75.3421508"></polygon>
            <path d="M91.8916667,92.7919538 L80.277,90.4809588 L78.2243333,87.5000141 C77.8403333,86.9421648 77.113,86.7312302 76.4883333,86.9985467 L74.8236667,87.7122754 C69.0356667,90.1930794 62.4756667,90.1864462 56.691,87.6943658 L55.0836667,87.0018633 C54.4643333,86.7338834 53.7376667,86.9355317 53.349,87.4860844 L51.231,90.4809588 L39.6163333,92.7919538 C33.7016667,93.970004 29.445,99.1352503 29.445,105.135612 L29.445,120.635331 C39.8496667,127.504637 52.3303333,131.510406 65.7536667,131.510406 C79.177,131.510406 91.657,127.504637 102.061667,120.634004 L102.061667,105.135612 C102.061667,99.1352503 97.805,93.9686774 91.8916667,92.7919538" id="Fill-9" fill="#F38059" mask="url(#mask-4)"></path>
            <path d="M91.8916667,92.7919538 L80.277,90.4809588 L78.2243333,87.5000141 C77.8403333,86.9421648 77.113,86.7312302 76.4883333,86.9985467 L74.8236667,87.7122754 C71.883,88.9719136 68.7423333,89.5874714 65.607,89.5642553 L65.607,131.507753 C65.6563333,131.507753 65.705,131.510406 65.7536667,131.510406 C79.177,131.510406 91.6583333,127.504637 102.063,120.634004 L102.063,105.135612 C102.061667,99.1352503 97.805,93.9686774 91.8916667,92.7919538" id="Fill-10" fill="#F06134" mask="url(#mask-4)"></path>
            <path d="M80.2769333,90.4810251 L78.2242667,87.5000804 C77.8402667,86.9409045 77.1129333,86.7312965 76.4882667,86.9972864 L74.8242667,87.7103518 C69.0356,90.1931457 62.4756,90.1865126 56.6916,87.6944322 L55.0836,87.0019296 C54.4642667,86.7326231 53.7376,86.9342714 53.3489333,87.4861508 L51.2309333,90.4810251 L39.6162667,92.7920201 C39.5709333,92.8006432 39.5269333,92.8158995 39.4836,92.8245226 L39.4836,126.06995 C47.5282667,129.564965 56.4116,131.510472 65.7542667,131.510472 C75.0382667,131.510472 83.8702667,129.591497 91.8776,126.135618 L91.8776,92.7893668 L80.2769333,90.4810251 Z" id="Fill-11" fill="#E66841" mask="url(#mask-4)"></path>
            <path d="M80.2769333,90.4810251 L78.2242667,87.5000804 C77.8402667,86.9409045 77.1129333,86.7312965 76.4882667,86.9972864 L74.8242667,87.7103518 C71.8829333,88.9706533 68.7422667,89.5862111 65.6076,89.5636583 L65.6076,131.507819 C65.6562667,131.507819 65.7049333,131.509146 65.7542667,131.509146 C75.0382667,131.509146 83.8716,129.591497 91.8789333,126.135618 L91.8789333,92.7893668 L80.2769333,90.4810251 Z" id="Fill-12" fill="#E44A25" mask="url(#mask-4)"></path>
            <path d="M89.2629333,53.1654211 C89.3809333,52.0808985 89.4422667,51.0116322 89.4422667,49.9682352 C89.4422667,36.1745668 78.8362667,24.9937025 65.7542667,24.9937025 C52.6709333,24.9937025 42.0642667,36.1745668 42.0642667,49.9682352 C42.0642667,51.0116322 42.1256,52.0808985 42.2436,53.1654211 C39.9462667,53.7590894 38.8522667,57.2773206 39.8016,61.0403156 C40.7549333,64.8179035 43.4016,67.4094814 45.7149333,66.8317327 C45.9256,66.7793307 46.1216,66.6944261 46.3122667,66.5962553 C50.5922667,75.1450794 57.7036,82.0807176 65.7542667,82.0807176 C73.8042667,82.0807176 80.9156,75.1450794 85.1956,66.5962553 C85.3849333,66.6944261 85.5822667,66.7793307 85.7929333,66.8317327 C88.1056,67.4094814 90.7529333,64.8179035 91.7049333,61.0403156 C92.6542667,57.2773206 91.5609333,53.7590894 89.2629333,53.1654211" id="Fill-13" fill="#CBA472" mask="url(#mask-4)"></path>
            <path d="M89.2629333,53.1654211 C89.3809333,52.0808985 89.4422667,51.0116322 89.4422667,49.9682352 C89.4422667,36.1745668 78.8362667,24.9937025 65.7542667,24.9937025 C65.7036,24.9937025 65.6562667,24.9963558 65.6062667,24.9976824 L65.6062667,82.0767377 C65.6549333,82.0767377 65.7036,82.0807176 65.7542667,82.0807176 C73.8042667,82.0807176 80.9156,75.1450794 85.1956,66.5949286 C85.3849333,66.6944261 85.5822667,66.7793307 85.7929333,66.8317327 C88.1056,67.4094814 90.7529333,64.8165769 91.7049333,61.0403156 C92.6542667,57.2773206 91.5609333,53.7590894 89.2629333,53.1654211" id="Fill-14" fill="#907551" mask="url(#mask-4)"></path>
            <path d="M79.9848,129.965674 C81.9888,127.143262 83.1701333,123.699986 83.1701333,119.981433 C83.1701333,110.411765 75.3734667,102.653614 65.7541333,102.653614 C56.1361333,102.653614 48.3388,110.411765 48.3388,119.981433 C48.3388,123.701313 49.5188,127.143262 51.5234667,129.965674 C56.1068,130.972589 60.8668,131.510539 65.7541333,131.510539 C70.6414667,131.510539 75.4008,130.972589 79.9848,129.965674" id="Fill-15" fill="#E44A25" mask="url(#mask-4)"></path>
            <path d="M65.754,102.652619 C65.704,102.652619 65.6546667,102.655936 65.606,102.655936 L65.606,131.507554 C65.6546667,131.507554 65.704,131.510207 65.754,131.510207 C70.6413333,131.510207 75.4006667,130.972257 79.9846667,129.966006 C81.9886667,127.142931 83.1706667,123.699654 83.1706667,119.981765 C83.1706667,110.412096 75.3733333,102.652619 65.754,102.652619" id="Fill-16" fill="#8E1539" mask="url(#mask-4)"></path>
            <path d="M38.9314,64.4497628 C37.6947333,64.4497628 36.6940667,63.452798 36.6940667,62.2223457 L36.6940667,55.044597 C36.6940667,53.8154714 37.6947333,52.8185065 38.9314,52.8185065 C40.1680667,52.8185065 41.1700667,53.8154714 41.1700667,55.044597 L41.1700667,62.2223457 C41.1687333,63.452798 40.1667333,64.4497628 38.9314,64.4497628" id="Fill-17" fill="#8E1539" mask="url(#mask-4)"></path>
            <path d="M92.5766,52.8185729 C93.8126,52.8185729 94.8139333,53.8155377 94.8139333,55.0446633 L94.8139333,62.2224121 C94.8139333,63.4528643 93.8126,64.4498291 92.5766,64.4498291 C91.3399333,64.4498291 90.3379333,63.4528643 90.3379333,62.2224121 L90.3379333,55.0446633 C90.3379333,53.8155377 91.3412667,52.8185729 92.5766,52.8185729" id="Fill-18" fill="#8E1539" mask="url(#mask-4)"></path>
            <path d="M91.6182667,49.5464985 C91.5769333,35.7030814 80.2482667,24.4538955 66.3256,24.4538955 C52.6169333,24.4538955 41.4282667,35.3621367 41.0496,48.9123678 C39.6722667,49.3435236 38.6729333,50.6237246 38.6729333,52.1360864 L38.6729333,65.1317849 C38.6729333,66.9976945 40.1936,68.5100563 42.0682667,68.5100563 L42.8796,68.5100563 C44.7549333,68.5100563 46.2742667,66.9976945 46.2742667,65.1317849 L46.2742667,52.1360864 C46.2742667,51.2989809 45.9656,50.5335136 45.4602667,49.9438251 L45.4602667,49.6201266 C45.4602667,38.1739357 54.8202667,28.8596442 66.3256,28.8596442 C77.6509333,28.8596442 86.8916,37.8840663 87.1782667,49.0848302 C86.0296,49.6260965 85.2336,50.7869005 85.2336,52.1360864 L85.2336,65.1317849 C85.2336,66.9976945 86.7536,68.5100563 88.6282667,68.5100563 L89.4396,68.5100563 C91.3149333,68.5100563 92.8349333,66.9976945 92.8349333,65.1317849 L92.8349333,52.1360864 C92.8349333,51.0953427 92.3622667,50.1653729 91.6182667,49.5464985" id="Fill-19" fill="#FEFEFE" mask="url(#mask-4)"></path>
            <path d="M91.6182667,49.5464985 C91.5769333,35.7030814 80.2482667,24.4538955 66.3256,24.4538955 C66.0836,24.4538955 65.8456,24.4645085 65.6062667,24.4724683 L65.6062667,28.8782171 C65.8456,28.869594 66.0849333,28.8596442 66.3256,28.8596442 C77.6509333,28.8596442 86.8916,37.885393 87.1782667,49.0848302 C86.0296,49.6260965 85.2336,50.7869005 85.2336,52.1360864 L85.2336,65.1317849 C85.2336,66.9976945 86.7522667,68.5100563 88.6282667,68.5100563 L89.4396,68.5100563 C91.3149333,68.5100563 92.8349333,66.9976945 92.8349333,65.1317849 L92.8349333,52.1360864 C92.8349333,51.0953427 92.3622667,50.1653729 91.6182667,49.5464985" id="Fill-20" fill="#FEFEFE" mask="url(#mask-4)"></path>
        </g>
    </g>
</svg>