<?xml version="1.0" encoding="UTF-8"?>
<svg width="132px" height="132px" viewBox="0 0 132 132" version="1.1" xmlns="http://www.w3.org/2000/svg" xmlns:xlink="http://www.w3.org/1999/xlink">
    <!-- Generator: Sketch 51.2 (57519) - http://www.bohemiancoding.com/sketch -->
    <title>Icon / Avatar / Male / j-avatar-8</title>
    <desc>Created with Sketch.</desc>
    <defs>
        <polygon id="path-1" points="0 0.48959397 131.508 0.48959397 131.508 131.336683 0 131.336683"></polygon>
        <polygon id="path-3" points="0.558933333 0.383264322 73.508 0.383264322 73.508 102.758882 0.558933333 102.758882"></polygon>
        <polygon id="path-5" points="0 131.510472 131.508 131.510472 131.508 0.663316583 0 0.663316583"></polygon>
    </defs>
    <g id="Icon-/-Avatar-/-Male-/-j-avatar-8" stroke="none" stroke-width="1" fill="none" fill-rule="evenodd">
        <g id="Group-32">
            <g id="Group-3" transform="translate(0.000000, 0.173789)">
                <mask id="mask-2" fill="white">
                    <use xlink:href="#path-1"></use>
                </mask>
                <g id="Clip-2"></g>
                <path d="M131.508,65.9131719 C131.508,102.044689 102.068,131.33675 65.754,131.33675 C29.4386667,131.33675 0,102.044689 0,65.9131719 C0,29.7803276 29.4386667,0.48959397 65.754,0.48959397 C102.068,0.48959397 131.508,29.7803276 131.508,65.9131719" id="Fill-1" fill="#F49D75" mask="url(#mask-2)"></path>
            </g>
            <polygon id="Fill-4" fill="#C97F62" points="31.9129333 58.3990553 66.6982667 93.0102513 70.5509333 64.5446834"></polygon>
            <g id="Group-8" transform="translate(58.000000, 24.053186)">
                <mask id="mask-4" fill="white">
                    <use xlink:href="#path-3"></use>
                </mask>
                <g id="Clip-7"></g>
                <path d="M0.558933333,71.2208322 L32.2562667,102.758882 C56.4349333,93.0917065 73.5082667,69.5479477 73.5082667,42.0335759 C73.5082667,41.3079075 73.4902667,40.5848925 73.4682667,39.8638673 L50.0762667,16.7333548 L41.0996,17.278601 L20.4596,0.383264322 L0.558933333,71.2208322 Z" id="Fill-6" fill="#C17A5E" mask="url(#mask-4)"></path>
            </g>
            <mask id="mask-6" fill="white">
                <use xlink:href="#path-5"></use>
            </mask>
            <g id="Clip-10"></g>
            <polygon id="Fill-9" fill="#FDCB86" mask="url(#mask-6)" points="54.7953333 99.2434372 76.7133333 99.2434372 76.7133333 75.3421508 54.7953333 75.3421508"></polygon>
            <polygon id="Fill-11" fill="#D5A565" mask="url(#mask-6)" points="65.6073333 99.2434372 76.7126667 99.2434372 76.7126667 75.3421508 65.6073333 75.3421508"></polygon>
            <path d="M91.8918,92.7922854 L80.2771333,90.4812905 L78.2244667,87.4996824 C77.8398,86.9418332 77.1131333,86.7315618 76.4884667,86.9982151 L65.7538,97.6603658 L55.0838,87.002195 C54.4631333,86.7335518 53.7378,86.9358633 53.3491333,87.4864161 L51.2304667,90.4812905 L39.6164667,92.7922854 C33.7018,93.969009 29.4451333,99.1349186 29.4451333,105.135944 L29.4451333,120.635662 C39.8491333,127.504969 52.3304667,131.510738 65.7538,131.510738 C79.1771333,131.510738 91.6571333,127.504969 102.0618,120.635662 L102.0618,105.135944 C102.0618,99.1349186 97.8051333,93.969009 91.8918,92.7922854" id="Fill-12" fill="#B47E59" mask="url(#mask-6)"></path>
            <path d="M91.8918,92.7922854 L80.2771333,90.4812905 L78.2244667,87.4996824 C77.8398,86.9418332 77.1131333,86.7315618 76.4884667,86.9982151 L65.7538,97.6603658 L65.6058,97.5124462 L65.6058,131.508084 C65.6551333,131.508084 65.7038,131.510738 65.7538,131.510738 C79.1758,131.510738 91.6571333,127.504969 102.0618,120.634336 L102.0618,105.135944 C102.0618,99.1349186 97.8051333,93.969009 91.8918,92.7922854" id="Fill-13" fill="#745137" mask="url(#mask-6)"></path>
            <path d="M89.2628667,53.1654211 C89.3808667,52.0808985 89.4422,51.0116322 89.4422,49.9682352 C89.4422,36.1745668 78.8362,24.9937025 65.7542,24.9937025 C52.6708667,24.9937025 42.0642,36.1745668 42.0642,49.9682352 C42.0642,51.0116322 42.1255333,52.0808985 42.2435333,53.1654211 C39.9462,53.7597528 38.8522,57.2773206 39.8015333,61.0403156 C40.7548667,64.8179035 43.4015333,67.4094814 45.7148667,66.8317327 C45.9255333,66.7793307 46.1215333,66.6944261 46.3122,66.5962553 C50.5922,75.1450794 57.7035333,82.0807176 65.7542,82.0807176 C73.8042,82.0807176 80.9155333,75.1450794 85.1955333,66.5962553 C85.3848667,66.6944261 85.5822,66.7793307 85.7928667,66.8317327 C88.1055333,67.4094814 90.7528667,64.8179035 91.7048667,61.0403156 C92.6542,57.2773206 91.5608667,53.7597528 89.2628667,53.1654211" id="Fill-14" fill="#FDE8AE" mask="url(#mask-6)"></path>
            <path d="M89.2628667,53.1654211 C89.3808667,52.0808985 89.4422,51.0116322 89.4422,49.9682352 C89.4422,36.1745668 78.8362,24.9937025 65.7542,24.9937025 C65.7042,24.9937025 65.6562,24.9963558 65.6062,24.9976824 L65.6062,82.0767377 C65.6548667,82.0767377 65.7042,82.0807176 65.7542,82.0807176 C73.8042,82.0807176 80.9155333,75.1450794 85.1955333,66.5962553 C85.3848667,66.6957528 85.5822,66.7793307 85.7928667,66.8330593 C88.1055333,67.4094814 90.7528667,64.8179035 91.7048667,61.0416422 C92.6542,57.2773206 91.5608667,53.7597528 89.2628667,53.1654211" id="Fill-15" fill="#E0C785" mask="url(#mask-6)"></path>
            <path d="M60.9567333,102.06366 L63.6507333,105.5076 L63.6507333,131.473128 C64.3494,131.49568 65.0487333,131.510273 65.7540667,131.510273 C66.4574,131.510273 67.1587333,131.49568 67.8574,131.473128 L67.8574,105.5076 L70.5507333,102.06366 L65.7540667,97.6599015 L60.9567333,102.06366 Z" id="Fill-16" fill="#BF4F40" mask="url(#mask-6)"></path>
            <path d="M65.7540667,97.6601005 L65.6060667,97.7960804 L65.6060667,131.507819 C65.6547333,131.507819 65.7040667,131.510472 65.7540667,131.510472 C66.4574,131.510472 67.1587333,131.495216 67.8574,131.47399 L67.8574,105.507799 L70.5507333,102.063859 L65.7540667,97.6601005 Z" id="Fill-17" fill="#8E1539" mask="url(#mask-6)"></path>
            <path d="M60.9567333,102.06366 L63.6507333,105.5076 L63.6507333,131.473128 C64.3000667,131.493027 64.9527333,131.50563 65.6060667,131.50762 L65.6060667,97.7958814 L60.9567333,102.06366 Z" id="Fill-18" fill="#BF4F40" mask="url(#mask-6)"></path>
            <path d="M65.7540667,97.6601005 L54.4587333,84.5025528 C53.9787333,83.989809 53.1080667,83.9911357 52.6294,84.505206 L48.2634,90.8504925 L57.6807333,102.906271 C58.4647333,104.049166 60.2794,104.080342 61.1114,102.96597 L65.7540667,97.6601005 Z" id="Fill-19" fill="#E44A25" mask="url(#mask-6)"></path>
            <path d="M65.7540667,97.6601005 L77.0474,84.5025528 C77.5294,83.989809 78.4000667,83.9911357 78.8787333,84.505206 L83.2427333,90.8504925 L73.8267333,102.906271 C73.0420667,104.049166 71.2274,104.080342 70.3954,102.96597 L65.7540667,97.6601005 Z" id="Fill-20" fill="#E44A25" mask="url(#mask-6)"></path>
            <path d="M48.8392,57.2935055 C54.5658667,58.7395357 60.4878667,56.969807 65.6072,54.2435759 L65.6072,29.4866111 C42.0565333,29.6007015 39.5812,56.8961789 42.9985333,58.5650834 C46.4225333,60.2366412 46.6478667,66.8107719 46.6478667,66.8107719 C46.6478667,66.8107719 48.0138667,62.1423497 48.8392,57.2935055" id="Fill-21" fill="#442815" mask="url(#mask-6)"></path>
            <path d="M65.7540667,29.4837588 C65.7040667,29.4837588 65.6560667,29.4864121 65.6060667,29.4864121 L65.6060667,54.2433769 C73.7740667,49.8940101 79.8934,43.1175678 79.8934,43.1175678 C79.8934,43.1175678 83.8954,43.4545327 82.3940667,48.3604221 C80.8940667,53.2663116 84.8600667,66.8105729 84.8600667,66.8105729 C84.8600667,66.8105729 85.0854,60.2371055 88.5094,58.5648844 C91.9347333,56.8913367 89.4420667,29.4837588 65.7540667,29.4837588" id="Fill-22" fill="#64422B" mask="url(#mask-6)"></path>
            <path d="M42.0644667,48.273793 C42.0644667,48.273793 46.7071333,14.637009 65.7538,23.8756824 C84.8004667,14.637009 89.4424667,48.273793 89.4424667,48.273793 L42.0644667,48.273793 Z" id="Fill-23" fill="#FADC86" mask="url(#mask-6)"></path>
            <path d="M65.7540667,23.8745548 C65.7040667,23.8506754 65.6560667,23.8314392 65.6060667,23.8068965 L65.6060667,48.273992 L89.4420667,48.273992 C89.4420667,48.273992 84.8007333,14.6365447 65.7540667,23.8745548" id="Fill-24" fill="#FEC333" mask="url(#mask-6)"></path>
            <path d="M44.4684667,38.3308101 C42.7011333,43.6665286 42.0644667,48.2739256 42.0644667,48.2739256 L89.4424667,48.2739256 C89.4424667,48.2739256 88.8051333,43.6665286 87.0398,38.3308101 L44.4684667,38.3308101 Z" id="Fill-25" fill="#BF4F40" mask="url(#mask-6)"></path>
            <path d="M87.0395333,38.3308101 L65.6062,38.3308101 L65.6062,48.2739256 L89.4422,48.2739256 C89.4422,48.2739256 88.8068667,43.6665286 87.0395333,38.3308101" id="Fill-26" fill="#8E1539" mask="url(#mask-6)"></path>
            <path d="M65.7540667,44.7923095 C47.7480667,44.7923095 22.8767333,35.7957467 22.8767333,42.1204704 C22.8767333,45.9027015 29.7374,61.0316261 40.3107333,63.1170935 C40.4300667,60.7954854 41.4160667,58.9720281 42.9900667,58.5647518 C42.8740667,57.5140583 42.8154,56.4799477 42.8154,55.4690533 C42.8154,54.8813548 42.8427333,54.2996261 42.8820667,53.7218774 C47.8847333,50.5472442 56.2600667,48.4637668 65.7540667,48.4637668 C75.2467333,48.4637668 83.6227333,50.5465809 88.6260667,53.7218774 C88.6647333,54.2996261 88.6914,54.8813548 88.6914,55.4690533 C88.6914,56.4799477 88.6320667,57.5140583 88.5180667,58.5647518 C90.0907333,58.9720281 91.0780667,60.7954854 91.1967333,63.1170935 C101.770733,61.0316261 108.6294,45.9013749 108.6294,42.1204704 C108.630733,35.7957467 84.3520667,44.7923095 65.7540667,44.7923095" id="Fill-27" fill="#FEC333" mask="url(#mask-6)"></path>
            <path d="M65.7540667,44.7923095 L65.6060667,44.7923095 L65.6060667,48.4670834 C65.6560667,48.4670834 65.7040667,48.4650935 65.7540667,48.4650935 C75.2467333,48.4650935 83.6227333,50.5472442 88.6260667,53.7218774 C88.6647333,54.2996261 88.6914,54.8813548 88.6914,55.4703799 C88.6914,56.4799477 88.6320667,57.5153849 88.5180667,58.5647518 C90.0907333,58.9726915 91.0780667,60.7968121 91.1967333,63.1184201 C101.770733,61.0316261 108.6294,45.9027015 108.6294,42.121797 C108.630733,35.7957467 84.3520667,44.7923095 65.7540667,44.7923095" id="Fill-28" fill="#CF8A27" mask="url(#mask-6)"></path>
            <path d="M68.7062,31.8696422 C68.7062,33.7355518 67.3842,35.2479136 65.7542,35.2479136 C64.1235333,35.2479136 62.8015333,33.7355518 62.8015333,31.8696422 C62.8015333,30.0037327 64.1235333,28.4913709 65.7542,28.4913709 C67.3842,28.4913709 68.7062,30.0037327 68.7062,31.8696422" id="Fill-29" fill="#FEC333" mask="url(#mask-6)"></path>
            <path d="M65.7540667,28.4915035 C65.7040667,28.4915035 65.6547333,28.4981367 65.6060667,28.5001266 L65.6060667,35.2387598 C65.6547333,35.2414131 65.7040667,35.2473829 65.7540667,35.2473829 C67.3840667,35.2473829 68.7060667,33.7350211 68.7060667,31.8697749 C68.7060667,30.0038653 67.3840667,28.4915035 65.7540667,28.4915035" id="Fill-30" fill="#CF8A27" mask="url(#mask-6)"></path>
            <path d="M89.7396,107.058898 C89.7396,109.716808 87.8562667,111.871924 85.5329333,111.871924 C83.2089333,111.871924 81.3269333,109.716808 81.3269333,107.058898 C81.3269333,104.400989 83.2089333,102.245873 85.5329333,102.245873 C87.8562667,102.245873 89.7396,104.400989 89.7396,107.058898" id="Fill-31" fill="#FEC333" mask="url(#mask-6)"></path>
        </g>
    </g>
</svg>