<?xml version="1.0" encoding="UTF-8"?>
<svg width="132px" height="132px" viewBox="0 0 132 132" version="1.1" xmlns="http://www.w3.org/2000/svg" xmlns:xlink="http://www.w3.org/1999/xlink">
    <!-- Generator: Sketch 51.2 (57519) - http://www.bohemiancoding.com/sketch -->
    <title>Icon / Avatar / Female / j-avatar-3</title>
    <desc>Created with Sketch.</desc>
    <defs>
        <polygon id="path-1" points="0 0.48959397 131.507933 0.48959397 131.507933 131.336683 0 131.336683"></polygon>
    </defs>
    <g id="Icon-/-Avatar-/-Female-/-j-avatar-3" stroke="none" stroke-width="1" fill="none" fill-rule="evenodd">
        <g id="Group-22">
            <g id="Group-3" transform="translate(0.000000, 0.173789)">
                <mask id="mask-2" fill="white">
                    <use xlink:href="#path-1"></use>
                </mask>
                <g id="Clip-2"></g>
                <path d="M131.507933,65.9131719 C131.507933,102.044689 102.067933,131.33675 65.7539333,131.33675 C29.4386,131.33675 -6.66666667e-05,102.044689 -6.66666667e-05,65.9131719 C-6.66666667e-05,29.7803276 29.4386,0.48959397 65.7539333,0.48959397 C102.067933,0.48959397 131.507933,29.7803276 131.507933,65.9131719" id="Fill-1" fill="#1B8C92" mask="url(#mask-2)"></path>
            </g>
            <path d="M65.7540667,131.510406 C96.0054,131.510406 121.480733,111.183069 129.146067,83.5081749 L82.4127333,37.0090191 L65.7540667,63.7201146 L58.6620667,131.129662 C60.9920667,131.379069 63.3574,131.510406 65.7540667,131.510406" id="Fill-4" fill="#00686B"></path>
            <path d="M91.8917333,92.7918874 L84.1477333,91.251003 C81.7897333,90.7813749 79.9224,88.9884302 79.3690667,86.6601889 L78.2244,81.8484905 C77.8404,81.2893146 77.1130667,81.0797065 76.4884,81.3450332 L76.4330667,81.3695759 C69.6177333,84.2901588 61.8937333,84.2841889 55.0837333,81.3503397 C54.4644,81.0810332 53.7377333,81.2833447 53.3490667,81.8332342 L52.1590667,86.6940181 C51.5930667,89.0050131 49.7317333,90.7793849 47.3897333,91.2463598 L39.6164,92.7932141 C33.7017333,93.9699377 29.4450667,99.1358472 29.4450667,105.135546 L29.4450667,120.635264 C39.8497333,127.504571 52.3304,131.51034 65.7537333,131.51034 C79.1757333,131.51034 91.6570667,127.504571 102.061733,120.633938 L102.061733,105.135546 C102.061733,99.1351839 97.8050667,93.9686111 91.8917333,92.7918874" id="Fill-6" fill="#5E6269"></path>
            <path d="M102.061667,105.135811 C102.061667,99.1347859 97.805,93.9688764 91.8916667,92.7921528 L84.1476667,91.250605 C81.7896667,90.7816402 79.9223333,88.9873688 79.369,86.6591276 L78.2243333,81.8474291 C77.8403333,81.2895799 77.113,81.0779819 76.4883333,81.3439719 L76.433,81.3678513 C73.0483333,82.8191879 69.4383333,83.5468462 65.8276667,83.5528161 L65.8276667,131.507952 C79.2223333,131.494022 91.677,127.492233 102.063,120.634203 L102.063,105.135811 L102.061667,105.135811 Z" id="Fill-8" fill="#5E6269"></path>
            <path d="M89.7384667,55.6722271 C89.7384667,71.4890111 79.0004667,88.2735739 65.7538,88.2735739 C52.5078,88.2735739 41.7698,71.4876844 41.7698,55.6722271 C41.7698,39.8567698 52.5078,30.7812724 65.7538,30.7812724 C79.0004667,30.7812724 89.7384667,39.8567698 89.7384667,55.6722271" id="Fill-10" fill="#D0D2D3"></path>
            <path d="M89.7384667,55.6722271 C89.7384667,39.8866191 79.0391333,30.8164281 65.8278,30.782599 L65.8278,88.2709206 C79.0404667,88.2085688 89.7384667,71.4584985 89.7384667,55.6722271" id="Fill-12" fill="#B4B6B8"></path>
            <path d="M40.2934667,55.3441508 C40.2934667,61.1388844 41.6528,67.0563317 44.0094667,72.322402 L87.4968,72.322402 C89.8534667,67.0563317 91.2134667,61.1388844 91.2134667,55.3441508 C91.2134667,53.3661407 91.0501333,51.491608 90.7474667,49.7178995 L40.7588,49.7178995 C40.4581333,51.491608 40.2934667,53.3661407 40.2934667,55.3441508" id="Fill-14" fill="#89D0C7"></path>
            <path d="M91.2146667,55.3441508 C91.2146667,53.3661407 91.05,51.491608 90.7493333,49.7185628 L65.828,49.7185628 L65.828,72.322402 L87.4973333,72.322402 C89.8546667,67.0563317 91.2146667,61.1388844 91.2146667,55.3441508" id="Fill-16" fill="#37A3A8"></path>
            <path d="M89.8121333,92.3779779 L84.1474667,91.251003 C83.1614667,91.0553246 82.2648,90.6241688 81.5108,90.0238673 C76.8968,94.0694352 71.5101333,96.5343196 65.7541333,96.5343196 C60.0021333,96.5343196 54.6181333,94.0734151 50.0081333,90.0331538 C49.2568,90.6268221 48.3668,91.0513447 47.3894667,91.2463598 L41.6954667,92.3786412 L41.6954667,126.984531 C49.1474667,129.901797 57.2608,131.51034 65.7541333,131.51034 C74.2468,131.51034 82.3601333,129.901797 89.8121333,126.984531 L89.8121333,92.3779779 Z" id="Fill-18" fill="#353F4A"></path>
            <path d="M89.8121333,92.3779779 L84.1474667,91.251003 C83.1614667,91.0553246 82.2648,90.6241688 81.5108,90.0238673 C76.9168,94.0521889 71.5568,96.5117668 65.8274667,96.5316663 L65.8274667,131.509013 C74.2948,131.499063 82.3828,129.893174 89.8121333,126.983204 L89.8121333,92.3779779 Z" id="Fill-20" fill="#212D37"></path>
        </g>
    </g>
</svg>