<?xml version="1.0" encoding="UTF-8"?>
<svg width="132px" height="132px" viewBox="0 0 132 132" version="1.1" xmlns="http://www.w3.org/2000/svg" xmlns:xlink="http://www.w3.org/1999/xlink">
    <!-- Generator: Sketch 51.2 (57519) - http://www.bohemiancoding.com/sketch -->
    <title>Icon / Avatar / Female / j-avatar-7</title>
    <desc>Created with Sketch.</desc>
    <defs>
        <polygon id="path-1" points="0 0.48959397 131.508 0.48959397 131.508 131.336683 0 131.336683"></polygon>
        <polygon id="path-3" points="0 131.510472 131.508 131.510472 131.508 0.663316583 0 0.663316583"></polygon>
    </defs>
    <g id="Icon-/-Avatar-/-Female-/-j-avatar-7" stroke="none" stroke-width="1" fill="none" fill-rule="evenodd">
        <g id="Group-27">
            <g id="Group-3" transform="translate(0.000000, 0.173789)">
                <mask id="mask-2" fill="white">
                    <use xlink:href="#path-1"></use>
                </mask>
                <g id="Clip-2"></g>
                <path d="M131.508,65.9131719 C131.508,102.044689 102.068,131.33675 65.754,131.33675 C29.4386667,131.33675 0,102.044689 0,65.9131719 C0,29.7803276 29.4386667,0.48959397 65.754,0.48959397 C102.068,0.48959397 131.508,29.7803276 131.508,65.9131719" id="Fill-1" fill="#89D0C7" mask="url(#mask-2)"></path>
            </g>
            <path d="M91.6194667,31.2819437 L69.9694667,69.9101849 L51.2894667,60.2118332 L39.4821333,67.3172804 L59.9861333,87.7195719 L56.3074667,94.2817628 L89.3554667,127.164356 C112.606133,118.263311 129.489467,96.6000543 131.336133,70.7990291 L91.6194667,31.2819437 Z" id="Fill-4" fill="#77B5AF"></path>
            <path d="M52.4334667,44.2793005 C52.4334667,44.2793005 62.7274667,54.0811296 83.7608,50.5569286 C83.7608,50.5569286 85.8001333,50.0468382 89.2628,53.1650894 C89.2628,53.1650894 95.0521333,44.8298533 91.6194667,31.2822754 C91.6194667,31.2822754 80.9934667,27.8675216 76.0114667,24.7844261 C71.0301333,21.7006673 57.7474667,18.3953608 54.7588,27.6479638 C54.7588,27.6479638 45.1281333,26.4367477 42.4708,36.3480241 C39.8141333,46.2606271 42.2434667,53.1650894 42.2434667,53.1650894 C42.2434667,53.1650894 47.2301333,41.1948784 52.4334667,44.2793005" id="Fill-6" fill="#3B4955"></path>
            <mask id="mask-4" fill="white">
                <use xlink:href="#path-3"></use>
            </mask>
            <g id="Clip-9"></g>
            <polygon id="Fill-8" fill="#9E8059" mask="url(#mask-4)" points="54.7953333 97.1506734 76.7133333 97.1506734 76.7133333 75.3421508 54.7953333 75.3421508"></polygon>
            <polygon id="Fill-10" fill="#6A5538" mask="url(#mask-4)" points="65.6073333 97.1506734 76.7126667 97.1506734 76.7126667 75.3421508 65.6073333 75.3421508"></polygon>
            <path d="M91.8918,92.7919538 L80.2771333,90.4809588 L78.2244667,87.5000141 C77.8398,86.9421648 77.1131333,86.7312302 76.4884667,86.9985467 L74.8238,87.7122754 C69.0358,90.1930794 62.4758,90.1864462 56.6911333,87.6943658 L55.0838,87.0018633 C54.4644667,86.7338834 53.7378,86.9355317 53.3491333,87.4860844 L51.2304667,90.4809588 L39.6164667,92.7919538 C33.7018,93.970004 29.4451333,99.1352503 29.4451333,105.135612 L29.4451333,120.635331 C39.8491333,127.504637 52.3304667,131.510406 65.7538,131.510406 C79.1771333,131.510406 91.6571333,127.504637 102.0618,120.634004 L102.0618,105.135612 C102.0618,99.1352503 97.8051333,93.9686774 91.8918,92.7919538" id="Fill-11" fill="#F38059" mask="url(#mask-4)"></path>
            <path d="M91.8918,92.7919538 L80.2771333,90.4809588 L78.2244667,87.5000141 C77.8398,86.9421648 77.1131333,86.7312302 76.4884667,86.9985467 L74.8238,87.7122754 C71.8831333,88.9719136 68.7424667,89.5874714 65.6071333,89.5642553 L65.6071333,131.507753 C65.6558,131.507753 65.7051333,131.510406 65.7538,131.510406 C79.1771333,131.510406 91.6584667,127.504637 102.063133,120.634004 L102.063133,105.135612 C102.0618,99.1352503 97.8051333,93.9686774 91.8918,92.7919538" id="Fill-12" fill="#F06134" mask="url(#mask-4)"></path>
            <path d="M80.2770667,90.4810251 L78.2244,87.5000804 C77.8397333,86.9409045 77.1130667,86.7312965 76.4884,86.9972864 L74.8244,87.7103518 C69.0357333,90.1931457 62.4757333,90.1865126 56.6917333,87.6944322 L55.0837333,87.0019296 C54.4644,86.7326231 53.7377333,86.9342714 53.3490667,87.4861508 L51.2304,90.4810251 L39.6164,92.7920201 C39.5710667,92.8006432 39.5270667,92.8158995 39.4837333,92.8245226 L39.4837333,126.06995 C47.5284,129.564965 56.4117333,131.510472 65.7537333,131.510472 C75.0384,131.510472 83.8704,129.591497 91.8777333,126.135618 L91.8777333,92.7893668 L80.2770667,90.4810251 Z" id="Fill-13" fill="#E66841" mask="url(#mask-4)"></path>
            <path d="M80.2770667,90.4810251 L78.2244,87.5000804 C77.8397333,86.9409045 77.1130667,86.7312965 76.4884,86.9972864 L74.8244,87.7103518 C71.8830667,88.9706533 68.7424,89.5862111 65.6070667,89.5636583 L65.6070667,131.507819 C65.6564,131.507819 65.7050667,131.509146 65.7537333,131.509146 C75.0384,131.509146 83.8710667,129.591497 91.8790667,126.135618 L91.8790667,92.7893668 L80.2770667,90.4810251 Z" id="Fill-14" fill="#E44A25" mask="url(#mask-4)"></path>
            <path d="M79.9847333,129.965674 C81.9887333,127.143262 83.1707333,123.699986 83.1707333,119.981433 C83.1707333,110.411765 75.3734,102.653614 65.7540667,102.653614 C56.1360667,102.653614 48.3387333,110.411765 48.3387333,119.981433 C48.3387333,123.701313 49.5187333,127.143262 51.5234,129.965674 C56.1067333,130.972589 60.8667333,131.510539 65.7540667,131.510539 C70.6414,131.510539 75.4007333,130.972589 79.9847333,129.965674" id="Fill-15" fill="#E44A25" mask="url(#mask-4)"></path>
            <path d="M65.7539333,102.652619 C65.7039333,102.652619 65.6546,102.655936 65.6059333,102.655936 L65.6059333,131.507554 C65.6546,131.507554 65.7039333,131.510207 65.7539333,131.510207 C70.6412667,131.510207 75.4006,130.972257 79.9846,129.966006 C81.9886,127.142931 83.1706,123.699654 83.1706,119.981765 C83.1706,110.412096 75.3732667,102.652619 65.7539333,102.652619" id="Fill-16" fill="#8E1539" mask="url(#mask-4)"></path>
            <path d="M89.2628667,53.1654211 C89.3808667,52.0808985 89.4422,51.0116322 89.4422,49.9682352 C89.4422,36.1745668 78.8362,24.9937025 65.7542,24.9937025 C52.6708667,24.9937025 42.0642,36.1745668 42.0642,49.9682352 C42.0642,51.0116322 42.1255333,52.0808985 42.2435333,53.1654211 C39.9462,53.7590894 38.8522,57.2773206 39.8015333,61.0403156 C40.7548667,64.8179035 43.4015333,67.4094814 45.7148667,66.8317327 C45.9255333,66.7793307 46.1215333,66.6944261 46.3122,66.5962553 C50.5922,75.1450794 57.7035333,82.0807176 65.7542,82.0807176 C73.8042,82.0807176 80.9155333,75.1450794 85.1955333,66.5962553 C85.3848667,66.6944261 85.5822,66.7793307 85.7928667,66.8317327 C88.1055333,67.4094814 90.7528667,64.8179035 91.7048667,61.0403156 C92.6542,57.2773206 91.5608667,53.7590894 89.2628667,53.1654211" id="Fill-17" fill="#CBA472" mask="url(#mask-4)"></path>
            <path d="M89.2628667,53.1654211 C89.3808667,52.0808985 89.4422,51.0116322 89.4422,49.9682352 C89.4422,36.1745668 78.8362,24.9937025 65.7542,24.9937025 C65.7042,24.9937025 65.6562,24.9963558 65.6062,24.9976824 L65.6062,82.0767377 C65.6548667,82.0767377 65.7042,82.0807176 65.7542,82.0807176 C73.8042,82.0807176 81.4735333,74.9653206 85.8028667,65.7604764 C85.7115333,65.9535015 85.5822,66.7793307 85.7928667,66.8317327 C88.1055333,67.4094814 90.7528667,64.8165769 91.7048667,61.0403156 C92.6542,57.2773206 91.5608667,53.7590894 89.2628667,53.1654211" id="Fill-18" fill="#907551" mask="url(#mask-4)"></path>
            <path d="M38.9314667,64.4497628 C37.6948,64.4497628 36.6941333,63.452798 36.6941333,62.2223457 L36.6941333,55.044597 C36.6941333,53.8154714 37.6948,52.8185065 38.9314667,52.8185065 C40.1674667,52.8185065 41.1701333,53.8154714 41.1701333,55.044597 L41.1701333,62.2223457 C41.1688,63.452798 40.1668,64.4497628 38.9314667,64.4497628" id="Fill-19" fill="#8E1539" mask="url(#mask-4)"></path>
            <path d="M91.6194667,31.2819437 C91.6194667,31.2819437 80.9934667,27.8678533 76.0114667,24.7840945 C71.0301333,21.6996724 57.7461333,18.3956925 54.7574667,27.6469688 C54.7574667,27.6469688 48.2308,26.8317528 44.4421333,32.0752704 C45.5808,36.1619638 42.0348,39.1422452 45.1454667,42.226004 C46.3961333,43.466406 47.2954667,44.2789688 51.8388,46.4818432 C51.8388,46.4818432 62.7288,54.0814613 83.7608,50.5559337 C83.7608,50.5559337 85.8001333,50.0458432 89.2641333,53.1654211 C89.2628,53.1654211 95.0521333,44.8295216 91.6194667,31.2819437" id="Fill-20" fill="#3B4955" mask="url(#mask-4)"></path>
            <path d="M91.6194667,31.2819437 C91.6194667,31.2819437 80.9934667,27.8678533 76.0114667,24.7840945 C73.7061333,23.3566372 69.6241333,21.885401 65.6061333,21.6293608 L65.6061333,51.0242352 C70.3554667,52.0643156 76.3974667,51.7903658 83.7594667,50.5572603 C83.7594667,50.5572603 85.7988,50.0458432 89.2628,53.1654211 C89.2628,53.1654211 95.0521333,44.8295216 91.6194667,31.2819437" id="Fill-21" fill="#212D37" mask="url(#mask-4)"></path>
            <path d="M92.5765333,52.8185729 C93.8132,52.8185729 94.8138667,53.8155377 94.8138667,55.0446633 L94.8138667,62.2224121 C94.8138667,63.4528643 93.8132,64.4498291 92.5765333,64.4498291 C91.3398667,64.4498291 90.3378667,63.4528643 90.3378667,62.2224121 L90.3378667,55.0446633 C90.3378667,53.8155377 91.3412,52.8185729 92.5765333,52.8185729" id="Fill-22" fill="#8E1539" mask="url(#mask-4)"></path>
            <path d="M91.6182,49.5464985 C91.5768667,35.7030814 80.2482,24.4538955 66.3262,24.4538955 C52.6168667,24.4538955 41.4282,35.3621367 41.0495333,48.9123678 C39.6722,49.3435236 38.6728667,50.6237246 38.6728667,52.1360864 L38.6728667,65.1317849 C38.6728667,66.9976945 40.1935333,68.5100563 42.0682,68.5100563 L42.8795333,68.5100563 C44.7548667,68.5100563 46.2742,66.9976945 46.2742,65.1317849 L46.2742,52.1360864 C46.2742,51.2989809 45.9662,50.5335136 45.4608667,49.9438251 L45.4608667,49.6201266 C45.4608667,38.1739357 54.8202,28.8596442 66.3262,28.8596442 C77.6508667,28.8596442 86.8915333,37.8840663 87.1788667,49.0848302 C86.0295333,49.6260965 85.2335333,50.7869005 85.2335333,52.1360864 L85.2335333,65.1317849 C85.2335333,66.9976945 86.7535333,68.5100563 88.6282,68.5100563 L89.4395333,68.5100563 C91.3148667,68.5100563 92.8348667,66.9976945 92.8348667,65.1317849 L92.8348667,52.1360864 C92.8348667,51.0953427 92.3622,50.1653729 91.6182,49.5464985" id="Fill-23" fill="#FEFEFE" mask="url(#mask-4)"></path>
            <path d="M66.3262,24.4538955 C66.0835333,24.4538955 65.8455333,24.4645085 65.6062,24.4724683 L65.6062,28.8782171 C65.8455333,28.869594 66.0848667,28.8596442 66.3262,28.8596442 C77.6508667,28.8596442 86.8915333,37.885393 87.1788667,49.0848302 C86.0295333,49.6260965 85.2335333,50.7869005 85.2335333,52.1360864 L85.2335333,65.1317849 C85.2335333,66.9976945 86.7522,68.5100563 88.6282,68.5100563 L89.4395333,68.5100563 C91.3148667,68.5100563 92.8348667,66.9976945 92.8348667,65.1317849 L92.8348667,52.1360864 C92.8348667,51.0953427 92.3622,50.1653729 91.6182,49.5464985 C91.5768667,35.7030814 80.2482,24.4538955 66.3262,24.4538955 Z" id="Fill-24" fill="#B1B3B5" mask="url(#mask-4)"></path>
            <path d="M46.312,66.5961226 C46.312,66.5961226 45.9373333,72.0658312 42.542,78.4456101 C47.0693333,79.9480221 54.7953333,82.0805849 54.7953333,82.0805849 L54.7953333,77.6874392 L46.312,66.5961226 Z" id="Fill-25" fill="#212D37" mask="url(#mask-4)"></path>
            <path d="M85.1956667,66.5961226 C85.1956667,66.5961226 86.227,71.728203 89.111,78.4456101 C84.5843333,79.9480221 76.8583333,82.0805849 76.8583333,82.0805849 L76.8583333,77.6874392 L85.1956667,66.5961226 Z" id="Fill-26" fill="#212D37" mask="url(#mask-4)"></path>
        </g>
    </g>
</svg>