<?xml version="1.0" encoding="UTF-8"?>
<svg width="132px" height="132px" viewBox="0 0 132 132" version="1.1" xmlns="http://www.w3.org/2000/svg" xmlns:xlink="http://www.w3.org/1999/xlink">
    <!-- Generator: Sketch 51.2 (57519) - http://www.bohemiancoding.com/sketch -->
    <title>Icon / Avatar / Male / j-avatar-4</title>
    <desc>Created with Sketch.</desc>
    <defs>
        <polygon id="path-1" points="0 0.489527638 131.507933 0.489527638 131.507933 131.336617 0 131.336617"></polygon>
        <polygon id="path-3" points="0 131.510472 131.508 131.510472 131.508 0.663316583 0 0.663316583"></polygon>
    </defs>
    <g id="Icon-/-Avatar-/-Male-/-j-avatar-4" stroke="none" stroke-width="1" fill="none" fill-rule="evenodd">
        <g id="Group-26">
            <g id="Group-3" transform="translate(0.000000, 0.173789)">
                <mask id="mask-2" fill="white">
                    <use xlink:href="#path-1"></use>
                </mask>
                <g id="Clip-2"></g>
                <path d="M131.507933,65.9130392 C131.507933,102.044557 102.067933,131.336617 65.7539333,131.336617 C29.4386,131.336617 -6.66666667e-05,102.044557 -6.66666667e-05,65.9130392 C-6.66666667e-05,29.780195 29.4386,0.489461307 65.7539333,0.489461307 C102.067933,0.489461307 131.507933,29.780195 131.507933,65.9130392" id="Fill-1" fill="#89D0C7" mask="url(#mask-2)"></path>
            </g>
            <path d="M52.5439333,98.0267819 L83.7119333,129.039485 C111.297267,121.264088 131.507933,96.0242291 131.507933,66.0867618 C131.507933,65.9123095 131.501933,65.7398472 131.5006,65.565395 L92.1739333,26.4363497 L52.5439333,98.0267819 Z" id="Fill-4" fill="#77B5AF"></path>
            <mask id="mask-4" fill="white">
                <use xlink:href="#path-3"></use>
            </mask>
            <g id="Clip-7"></g>
            <polygon id="Fill-6" fill="#FDCB86" mask="url(#mask-4)" points="54.7953333 101.996201 76.7126667 101.996201 76.7126667 75.3421508 54.7953333 75.3421508"></polygon>
            <polygon id="Fill-8" fill="#D5A565" mask="url(#mask-4)" points="65.8993333 101.996201 76.7113333 101.996201 76.7113333 75.3421508 65.8993333 75.3421508"></polygon>
            <path d="M89.2628,53.1654211 C89.3808,52.0808985 89.4421333,51.0116322 89.4421333,49.9682352 C89.4421333,36.1745668 78.8361333,24.9937025 65.7528,24.9937025 C52.6708,24.9937025 42.0641333,36.1745668 42.0641333,49.9682352 C42.0641333,51.0116322 42.1254667,52.0808985 42.2434667,53.1654211 C39.9461333,53.7590894 38.8528,57.2773206 39.8021333,61.0403156 C40.7548,64.8179035 43.4014667,67.4094814 45.7148,66.8317327 C45.9254667,66.7793307 46.1214667,66.6944261 46.3121333,66.5962553 C50.5921333,75.1450794 57.7034667,82.0807176 65.7541333,82.0807176 C73.8041333,82.0807176 80.9154667,75.1450794 85.1954667,66.5962553 C85.3848,66.6944261 85.5821333,66.7793307 85.7928,66.8317327 C88.1054667,67.4094814 90.7528,64.8179035 91.7048,61.0403156 C92.6541333,57.2773206 91.5608,53.7590894 89.2628,53.1654211" id="Fill-9" fill="#FDE8AE" mask="url(#mask-4)"></path>
            <path d="M89.2628,53.1654211 C89.3808,52.0808985 89.4421333,51.0116322 89.4421333,49.9682352 C89.4421333,36.2269688 78.9161333,25.0812603 65.9008,24.9976824 L65.9008,82.0767377 C73.8894667,81.9918332 80.9408,75.0913508 85.1948,66.5962553 C85.3848,66.6944261 85.5821333,66.7793307 85.7928,66.8317327 C88.1054667,67.4094814 90.7514667,64.8179035 91.7048,61.0403156 C92.6541333,57.2773206 91.5608,53.7590894 89.2628,53.1654211" id="Fill-10" fill="#E0C785" mask="url(#mask-4)"></path>
            <path d="M52.4334,44.2793005 C52.4334,44.2793005 62.7274,54.0811296 83.7614,50.5569286 C83.7614,50.5569286 85.8000667,50.0468382 89.2627333,53.1650894 C89.2627333,53.1650894 95.6054,39.982999 92.1740667,26.4367477 C92.1740667,26.4367477 80.9934,27.8675216 76.0114,24.7844261 C71.0300667,21.7006673 57.7474,18.3953608 54.7587333,27.6479638 C54.7587333,27.6479638 45.1280667,26.4367477 42.4707333,36.3480241 C39.8147333,46.2606271 42.2447333,53.1650894 42.2447333,53.1650894 C42.2447333,53.1650894 47.2300667,41.1948784 52.4334,44.2793005" id="Fill-11" fill="#424545" mask="url(#mask-4)"></path>
            <path d="M92.1739333,26.4364824 C92.1739333,26.4364824 80.9932667,27.8672563 76.0119333,24.7841608 C73.7632667,23.391196 69.8226,21.9590955 65.9019333,21.6519799 L65.9019333,50.4147136 C70.6046,51.4057085 76.5512667,51.7638995 83.7599333,50.556 C83.7599333,50.556 85.7986,50.0459095 89.2626,53.1654874 C89.2626,53.1654874 95.6052667,39.983397 92.1739333,26.4364824" id="Fill-12" fill="#58585B" mask="url(#mask-4)"></path>
            <path d="M99.2586,101.399879 L93.9446,101.399879 L93.9446,82.8953367 C93.9446,80.2188543 91.7639333,78.049809 89.0739333,78.049809 L70.4772667,78.049809 L70.4772667,72.7625126 L90.4566,72.7625126 C95.3179333,72.7625126 99.2586,76.6827136 99.2586,81.5189548 L99.2586,101.399879 Z" id="Fill-13" fill="#191B46" mask="url(#mask-4)"></path>
            <path d="M72.6905333,75.6253869 C72.6905333,79.4361407 69.5852,82.527196 65.7538667,82.527196 C61.9225333,82.527196 58.8172,79.4361407 58.8172,75.6253869 C58.8172,71.8133065 61.9225333,68.7222513 65.7538667,68.7222513 C69.5852,68.7222513 72.6905333,71.8133065 72.6905333,75.6253869" id="Fill-14" fill="#A5DBDC" mask="url(#mask-4)"></path>
            <path d="M72.6905333,75.6265146 C72.6905333,71.8641829 69.6632,68.8109367 65.9018667,68.7306754 L65.9018667,82.5210271 C69.6638667,82.4420925 72.6905333,79.3888462 72.6905333,75.6265146" id="Fill-15" fill="#3BC1D2" mask="url(#mask-4)"></path>
            <path d="M65.7540667,70.4866734 C62.9047333,70.4866734 60.5880667,72.7916985 60.5880667,75.6267136 C60.5880667,78.460402 62.9047333,80.7667538 65.7540667,80.7667538 C68.6020667,80.7667538 70.9200667,78.460402 70.9200667,75.6267136 C70.9200667,72.7930251 68.6020667,70.4866734 65.7540667,70.4866734 M65.7540667,84.2902915 C60.9520667,84.2902915 57.0454,80.4045829 57.0454,75.6267136 C57.0454,70.8488442 60.9520667,66.961809 65.7540667,66.961809 C70.5560667,66.961809 74.4614,70.8488442 74.4614,75.6267136 C74.4614,80.4032563 70.5560667,84.2902915 65.7540667,84.2902915" id="Fill-16" fill="#3B6B95" mask="url(#mask-4)"></path>
            <path d="M74.4615333,75.6265146 C74.4615333,70.898394 70.6348667,67.0485045 65.9022,66.9689065 L65.9022,70.4944342 C68.6822,70.5727055 70.9202,72.8412482 70.9202,75.6265146 C70.9202,78.4104543 68.6808667,80.678997 65.9022,80.7579317 L65.9022,84.282796 C70.6348667,84.203198 74.4615333,80.3546352 74.4615333,75.6265146" id="Fill-17" fill="#3B6B95" mask="url(#mask-4)"></path>
            <path d="M95.2128667,94.1134131 L82.1215333,91.8024181 L79.8082,88.8214734 C79.3755333,88.2636241 78.5562,88.0526894 77.8515333,88.3193427 L75.0675333,91.1125688 C69.9402,96.2559256 61.5788667,96.2446492 56.4668667,91.0866995 L53.7282,88.3233226 C53.0295333,88.0540161 52.2115333,88.2563276 51.7728667,88.8075437 L49.3848667,91.8024181 L36.2955333,94.1134131 C29.6302,95.2901367 24.8322,100.45671 24.8322,106.457071 L24.8322,117.295001 C36.0628667,126.19074 50.2828667,131.510539 65.7542,131.510539 C81.2235333,131.510539 95.4448667,126.19074 106.6742,117.295001 L106.6742,106.457071 C106.6742,100.457373 101.876867,95.2914633 95.2128667,94.1134131" id="Fill-18" fill="#386A96" mask="url(#mask-4)"></path>
            <path d="M106.674467,106.457337 C106.674467,100.456312 101.877133,95.290402 95.2131333,94.1136784 L82.1218,91.8026834 L79.8078,88.8217387 C79.3758,88.2638894 78.5564667,88.0522915 77.8511333,88.3189447 L75.0671333,91.1128342 C72.5404667,93.6493568 69.2251333,94.9295578 65.9018,94.9600704 L65.9018,131.508151 C81.3144667,131.474322 95.4798,126.163146 106.674467,117.295266 L106.674467,106.457337 Z" id="Fill-19" fill="#234481" mask="url(#mask-4)"></path>
            <path d="M88.1882667,127.600685 C90.5156,126.7596 92.7809333,125.789831 94.9782667,124.703319 L94.9782667,92.372605 L88.1882667,90.9053487 L88.1882667,127.600685 Z" id="Fill-20" fill="#191B46" mask="url(#mask-4)"></path>
            <path d="M36.5296,124.704712 C38.7269333,125.789897 40.9909333,126.759666 43.3196,127.600752 L43.3196,90.9054151 L36.5296,92.373998 L36.5296,124.704712 Z" id="Fill-21" fill="#234481" mask="url(#mask-4)"></path>
            <path d="M65.7540667,57.6138211 C67.7707333,57.6138211 67.0367333,62.5389467 68.9620667,63.8158312 C70.8874,65.0920523 77.0040667,66.1865246 82.0454,66.3689367 C87.0860667,66.5526754 89.6760667,52.0519116 85.0014,50.9581025 C80.3274,49.8623035 70.6020667,48.587409 65.7540667,48.587409 C60.9054,48.587409 51.1807333,49.8636302 46.5074,50.9581025 C41.8320667,52.0519116 44.4220667,66.5513487 49.4634,66.3689367 C54.5040667,66.1865246 60.6220667,65.0920523 62.5467333,63.8158312 C64.4707333,62.5389467 63.7374,57.6138211 65.7540667,57.6138211" id="Fill-22" fill="#71CCDC" mask="url(#mask-4)"></path>
            <path d="M85.0014667,50.9565106 C80.3721333,49.8733146 70.7968,48.6123497 65.9021333,48.5871437 L65.9021333,57.6261588 C67.7328,57.8642894 67.0854667,62.5718472 68.9621333,63.8155658 C70.8861333,65.0924503 77.0034667,66.1862593 82.0454667,66.3686714 C87.0854667,66.5510834 89.6754667,52.0523095 85.0014667,50.9565106" id="Fill-23" fill="#3BC1D2" mask="url(#mask-4)"></path>
            <path d="M65.7540667,56.072804 C68.0587333,56.072804 68.5967333,58.5085025 68.9534,60.1210251 C69.1314,60.9256281 69.4274,62.2721608 69.8214,62.5328442 C71.2180667,63.4588342 76.6047333,64.6289246 82.1020667,64.8285829 L82.1380667,64.8285829 C83.5894,64.8285829 85.2774,61.7003819 85.7667333,58.0866332 C86.2000667,54.8748543 85.5234,52.6633568 84.6467333,52.4590553 C80.1667333,51.4110151 70.5700667,50.1294874 65.7540667,50.1294874 C60.9380667,50.1294874 51.3400667,51.4110151 46.8614,52.4590553 C45.9847333,52.6646834 45.3060667,54.8748543 45.7414,58.0866332 C46.2340667,61.7315578 47.9360667,64.8816482 49.4060667,64.8285829 C54.9027333,64.6289246 60.2894,63.4588342 61.6854,62.5328442 C62.0794,62.2721608 62.3767333,60.9256281 62.5547333,60.1196985 C62.9094,58.5071759 63.4474,56.072804 65.7540667,56.072804 M82.1454,67.9123417 C82.0927333,67.9123417 82.0414,67.9123417 81.9887333,67.9096884 C76.9720667,67.7292663 70.4067333,66.6268342 68.1014,65.0985528 C66.6694,64.1486834 66.2747333,62.3597186 65.9260667,60.7810251 C65.8754,60.5561608 65.8180667,60.2901709 65.7540667,60.0321407 C65.6900667,60.2901709 65.6307333,60.5561608 65.5807333,60.7810251 C65.2334,62.3597186 64.8380667,64.1473568 63.4047333,65.0985528 C61.1000667,66.6268342 54.5340667,67.7292663 49.5174,67.9096884 C49.4660667,67.9123417 49.4134,67.9123417 49.3620667,67.9123417 C45.6387333,67.9123417 43.2860667,63.0648241 42.6687333,58.4972261 C42.0040667,53.579397 43.3380667,50.1155578 46.1500667,49.4568844 C50.8154,48.3650653 60.6007333,47.044402 65.7527333,47.044402 C70.9060667,47.044402 80.6894,48.3650653 85.3560667,49.4568844 C88.1680667,50.1155578 89.5027333,53.579397 88.8380667,58.4972261 C88.2207333,63.0634975 85.8680667,67.9123417 82.1454,67.9123417" id="Fill-24" fill="#386A96" mask="url(#mask-4)"></path>
            <path d="M85.3560667,49.4566191 C80.7334,48.3734231 71.0914,47.070006 65.9020667,47.0454633 L65.9020667,50.1292221 C70.7627333,50.1544281 80.2114,51.4193729 84.6467333,52.4581266 C85.5227333,52.6637548 86.2014,54.8739256 85.7660667,58.0857045 C85.2774,61.6994533 83.5894,64.8289809 82.1380667,64.8289809 C82.1254,64.8289809 82.1127333,64.8276543 82.1020667,64.8276543 C76.6047333,64.6293226 71.2180667,63.4585688 69.8214,62.5319156 C69.4274,62.2705688 69.1314,60.9246995 68.9534,60.1194332 C68.6047333,58.543393 68.0787333,56.1872925 65.9020667,56.0811618 L65.9020667,60.6726392 C65.9094,60.7071317 65.9180667,60.7469307 65.9254,60.7807598 C66.2740667,62.3594533 66.6694,64.1477548 68.1014,65.0982874 C70.4067333,66.6272322 76.9720667,67.7276744 81.9887333,67.9100864 C82.0414,67.9114131 82.0927333,67.9127397 82.1454,67.9127397 C85.8680667,67.9114131 88.2220667,63.0632322 88.8387333,58.4976241 C89.5034,53.5784683 88.1680667,50.1146291 85.3560667,49.4566191" id="Fill-25" fill="#234481" mask="url(#mask-4)"></path>
        </g>
    </g>
</svg>