<?xml version="1.0" encoding="UTF-8"?>
<svg width="132px" height="132px" viewBox="0 0 132 132" version="1.1" xmlns="http://www.w3.org/2000/svg" xmlns:xlink="http://www.w3.org/1999/xlink">
    <!-- Generator: Sketch 51.2 (57519) - http://www.bohemiancoding.com/sketch -->
    <title>Icon / Avatar / Female / j-avatar-1</title>
    <desc>Created with Sketch.</desc>
    <defs>
        <polygon id="path-1" points="0 0.489527638 131.507933 0.489527638 131.507933 131.336683 0 131.336683"></polygon>
        <polygon id="path-3" points="0.6482 0.448534673 92.9508667 0.448534673 92.9508667 103.477387 0.6482 103.477387"></polygon>
    </defs>
    <g id="Icon-/-Avatar-/-Female-/-j-avatar-1" stroke="none" stroke-width="1" fill="none" fill-rule="evenodd">
        <g id="Group-22">
            <g id="Group-3" transform="translate(0.000000, 0.173789)">
                <mask id="mask-2" fill="white">
                    <use xlink:href="#path-1"></use>
                </mask>
                <g id="Clip-2"></g>
                <path d="M131.507933,65.9131055 C131.507933,102.044623 102.067933,131.336683 65.7539333,131.336683 C29.4386,131.336683 -6.66666667e-05,102.044623 -6.66666667e-05,65.9131055 C-6.66666667e-05,29.7802613 29.4386,0.489527638 65.7539333,0.489527638 C102.067933,0.489527638 131.507933,29.7802613 131.507933,65.9131055" id="Fill-1" fill="#FEC333" mask="url(#mask-2)"></path>
            </g>
            <g id="Group-6" transform="translate(38.000000, 28.033085)">
                <mask id="mask-4" fill="white">
                    <use xlink:href="#path-3"></use>
                </mask>
                <g id="Clip-5"></g>
                <path d="M46.5802,0.448534673 L0.6482,39.4316503 L25.1082,63.769399 L13.1415333,95.1787658 L14.2475333,102.092515 C18.6062,102.997942 23.1235333,103.47752 27.7542,103.47752 C61.1608667,103.47752 88.7482,78.6860623 92.9508667,46.5868462 L46.5802,0.448534673 Z" id="Fill-4" fill="#CF8A27" mask="url(#mask-4)"></path>
            </g>
            <polygon id="Fill-7" fill="#384049" points="54.7953333 101.996201 76.7126667 101.996201 76.7126667 75.3421508 54.7953333 75.3421508"></polygon>
            <polygon id="Fill-9" fill="#222B33" points="65.6073333 101.996201 76.7126667 101.996201 76.7126667 75.3421508 65.6073333 75.3421508"></polygon>
            <path d="M95.2128667,94.1134794 L82.1222,91.8024844 L79.8082,88.8215397 C79.3755333,88.2636905 78.5562,88.0527558 77.8515333,88.319409 L75.0675333,91.1126352 C69.9402,96.255992 61.5788667,96.2447156 56.4668667,91.0861025 L53.7282,88.3233889 C53.0295333,88.0534191 52.2115333,88.2557307 51.7728667,88.8076101 L49.3848667,91.8024844 L36.2955333,94.1134794 C29.6308667,95.290203 24.8322,100.456776 24.8322,106.457138 L24.8322,117.295067 C36.0628667,126.190806 50.2828667,131.510605 65.7542,131.510605 C81.2235333,131.510605 95.4448667,126.190806 106.6742,117.295067 L106.6742,106.457138 C106.6742,100.457439 101.876867,95.2915296 95.2128667,94.1134794" id="Fill-10" fill="#243143"></path>
            <path d="M95.2128667,94.1134794 L82.1222,91.8024844 L79.8082,88.8215397 C79.3755333,88.2636905 78.5562,88.0527558 77.8515333,88.319409 L75.0675333,91.1126352 C72.4648667,93.7241126 69.0288667,95.0043136 65.6062,94.9598714 L65.6062,131.507952 C65.6562,131.507952 65.7042,131.510605 65.7542,131.510605 C81.2248667,131.510605 95.4448667,126.190806 106.6742,117.295067 L106.6742,106.457138 C106.6742,100.457439 101.876867,95.2915296 95.2128667,94.1134794" id="Fill-11" fill="#162231"></path>
            <path d="M41.6216667,49.1985889 C41.6216667,49.1985889 42.0643333,54.0447799 43.1716667,56.982609 L45.2383333,56.9089809 C45.2383333,56.9089809 44.7216667,52.9430111 49.0763333,48.905403 C53.429,44.865805 41.6216667,49.1985889 41.6216667,49.1985889" id="Fill-12" fill="#424545"></path>
            <path d="M89.8850667,49.1985889 C89.8850667,49.1985889 89.4424,54.0447799 88.3364,56.982609 L86.2690667,56.9089809 C86.2690667,56.9089809 86.7864,52.9430111 82.4317333,48.905403 C78.0777333,44.865805 89.8850667,49.1985889 89.8850667,49.1985889" id="Fill-13" fill="#424545"></path>
            <path d="M91.4352,48.8177126 L91.4352,45.1276824 C91.4352,32.0192201 80.7545333,21.3928884 67.5798667,21.3928884 L63.9265333,21.3928884 C50.7532,21.3928884 40.0725333,32.0192201 40.0725333,45.1276824 L40.0725333,48.8177126 C38.4072,49.0339538 37.1205333,50.4474814 37.1205333,52.1634814 L37.1205333,64.6457729 C37.1205333,66.5110191 38.6405333,68.0233809 40.5152,68.0233809 L42.4345333,68.0233809 C43.4352,68.0233809 44.3318667,67.5895719 44.9538667,66.9043658 C45.2098667,66.9129889 45.4638667,66.8944161 45.7152,66.8320643 C45.9258667,66.7796623 46.1212,66.6947578 46.3118667,66.594597 C50.5925333,75.1434211 57.7038667,82.0790593 65.7538667,82.0790593 C73.8045333,82.0790593 80.9152,75.1434211 85.1958667,66.594597 C85.3852,66.6947578 85.5818667,66.7796623 85.7925333,66.8320643 C86.0438667,66.8944161 86.2978667,66.9129889 86.5538667,66.9043658 C87.1752,67.5895719 88.0712,68.0233809 89.0738667,68.0233809 L90.9925333,68.0233809 C92.8658667,68.0233809 94.3858667,66.5110191 94.3858667,64.6457729 L94.3858667,52.1634814 C94.3872,50.4474814 93.1012,49.0339538 91.4352,48.8177126" id="Fill-14" fill="#424C58"></path>
            <path d="M91.4352,48.8177126 L91.4352,45.1276824 C91.4352,32.0192201 80.7545333,21.3928884 67.5798667,21.3928884 L65.6058667,21.3928884 L65.6058667,82.0757427 C65.6545333,82.076406 65.7052,82.0803859 65.7538667,82.0803859 C73.8045333,82.0803859 80.9152,75.1447477 85.1958667,66.594597 C85.3852,66.6947578 85.5818667,66.7796623 85.7925333,66.8320643 C86.0438667,66.8944161 86.2978667,66.9129889 86.5538667,66.9043658 C87.1752,67.5895719 88.0712,68.0233809 89.0738667,68.0233809 L90.9925333,68.0233809 C92.8658667,68.0233809 94.3858667,66.5110191 94.3858667,64.6457729 L94.3858667,52.1634814 C94.3872,50.4474814 93.1012,49.0339538 91.4352,48.8177126" id="Fill-15" fill="#2E3945"></path>
            <path d="M65.754,57.6262251 C67.9473333,57.6262251 67.15,62.9831698 69.244,64.3721548 C71.3373333,65.7624663 77.9933333,66.951793 83.4786667,67.1514513 C88.9633333,67.3497829 91.78,51.572798 86.6946667,50.382808 C81.6086667,49.1921548 71.0286667,47.8031698 65.754,47.8031698 C60.4773333,47.8031698 49.898,49.1921548 44.812,50.382808 C39.726,51.572798 42.5433333,67.3497829 48.0293333,67.1514513 C53.5133333,66.9531196 60.1693333,65.7624663 62.264,64.3721548 C64.358,62.9844965 63.5606667,57.6262251 65.754,57.6262251" id="Fill-16" fill="#71CCDC"></path>
            <path d="M86.6944667,50.3826754 C81.6091333,49.1920221 71.0284667,47.8030372 65.7538,47.8030372 C65.7064667,47.8030372 65.6544667,47.8043638 65.6058,47.8043638 L65.6058,57.6380322 C65.6544667,57.631399 65.7024667,57.6260925 65.7538,57.6260925 C67.9478,57.6260925 67.1498,62.9837005 69.2444667,64.3726854 C71.3371333,65.7623337 77.9944667,66.9516603 83.4791333,67.1513186 C88.9631333,67.3496503 91.7798,51.573992 86.6944667,50.3826754" id="Fill-17" fill="#3BC1D2"></path>
            <path d="M65.754,56.0838814 C68.1526667,56.0838814 68.7006667,58.5673387 69.102,60.3815095 C69.3133333,61.3353588 69.6306667,62.7760824 70.1033333,63.0898312 C71.8313333,64.2367055 78.1086667,65.4127658 83.5353333,65.6104342 L83.578,65.6104342 C85.222,65.6104342 87.1233333,62.1532281 87.6626667,58.1567457 C88.1526667,54.5390171 87.3753333,52.127198 86.3406667,51.8850874 C81.4613333,50.742193 71.0026667,49.3459116 65.7553333,49.3459116 C60.508,49.3459116 50.0493333,50.742193 45.1686667,51.8850874 C44.1346667,52.127198 43.356,54.5390171 43.846,58.1567457 C44.386,62.1532281 46.2873333,65.6104342 47.9313333,65.6104342 L47.974,65.6104342 C53.402,65.4140925 59.6773333,64.2367055 61.406,63.0898312 C61.8786667,62.7760824 62.1973333,61.3353588 62.408,60.3815095 C62.8066667,58.5686653 63.3546667,56.0838814 65.754,56.0838814 M83.588,68.6948563 C83.5326667,68.6948563 83.4773333,68.6935296 83.4226667,68.692203 C77.9833333,68.495198 70.8706667,67.3058714 68.384,65.656203 C66.8713333,64.6519417 66.4473333,62.7336302 66.074,61.0428362 C65.9906667,60.6687256 65.878,60.152002 65.754,59.7314593 C65.63,60.152002 65.516,60.6687256 65.4326667,61.0428362 C65.0593333,62.7336302 64.636,64.6519417 63.1226667,65.656203 C60.636,67.3058714 53.5233333,68.495198 48.084,68.692203 C44.028,68.8182332 41.446,63.5475196 40.7726667,58.5686653 C40.0593333,53.2926452 41.4706667,49.5813889 44.4573333,48.8815899 C49.5266667,47.6949166 60.1566667,46.2608261 65.7526667,46.2608261 C71.35,46.2608261 81.9786667,47.6949166 87.0493333,48.8815899 C90.0353333,49.5813889 91.448,53.2926452 90.734,58.5686653 C90.0706667,63.4798613 87.556,68.6948563 83.588,68.6948563" id="Fill-18" fill="#1E2534"></path>
            <path d="M87.0494,48.8826513 C81.9800667,47.6959779 71.3500667,46.2625508 65.7540667,46.2625508 L65.6060667,46.2625508 L65.6060667,49.3469729 C65.6547333,49.3469729 65.7060667,49.3456462 65.7540667,49.3456462 C71.0014,49.3456462 81.4594,50.7412643 86.3394,51.8841588 C87.3740667,52.1262693 88.1514,54.5394151 87.6627333,58.1571437 C87.1220667,62.1522995 85.2207333,65.6101688 83.5767333,65.6101688 C83.5634,65.6101688 83.5494,65.6101688 83.5340667,65.6088422 C78.1074,65.4131638 71.8307333,64.2364402 70.1034,63.0895658 C69.6294,62.7751538 69.3120667,61.3350935 69.1014,60.3812442 C68.7007333,58.5677367 68.1520667,56.0836161 65.7527333,56.0836161 C65.7014,56.0836161 65.6560667,56.0902492 65.6060667,56.0929025 L65.6060667,60.2903698 C65.6520667,60.099998 65.7014,59.9063095 65.7527333,59.731194 C65.8767333,60.1524 65.9907333,60.6684603 66.0740667,61.0419075 C66.4474,62.7340281 66.8700667,64.6516764 68.3840667,65.6552744 C70.8707333,67.3042794 77.9834,68.493606 83.4227333,68.692601 C83.4774,68.6932643 83.5327333,68.694591 83.5867333,68.694591 C87.5560667,68.694591 90.0707333,63.4789327 90.7340667,58.5684 C91.4474,53.2923799 90.0354,49.5817869 87.0494,48.8826513" id="Fill-19" fill="#162231"></path>
            <path d="M88.1882667,127.600818 C90.5156,126.759733 92.7809333,125.789964 94.9782667,124.703451 L94.9782667,92.3727377 L88.1882667,90.9054814 L88.1882667,127.600818 Z" id="Fill-20" fill="#424C58"></path>
            <path d="M36.5296,124.704645 C38.7269333,125.789831 40.9909333,126.7596 43.3196,127.600685 L43.3196,90.9053487 L36.5296,92.3739317 L36.5296,124.704645 Z" id="Fill-21" fill="#424C58"></path>
        </g>
    </g>
</svg>