<?xml version="1.0" encoding="utf-8"?>
<!-- Generator: Adobe Illustrator 21.0.0, SVG Export Plug-In . SVG Version: 6.00 Build 0)  -->
<svg version="1.1" id="Layer_1" xmlns="http://www.w3.org/2000/svg" xmlns:xlink="http://www.w3.org/1999/xlink" x="0px" y="0px"
	 viewBox="0 0 100 100" style="enable-background:new 0 0 100 100;" xml:space="preserve">
<style type="text/css">
	.st0{filter:url(#Adobe_OpacityMaskFilter);}
	.st1{fill:#FFFFFF;}
	.st2{mask:url(#mask-2);fill:#94C34A;}
	.st3{filter:url(#Adobe_OpacityMaskFilter_1_);}
	.st4{mask:url(#mask-4);fill:#94C34A;}
	.st5{fill:#94C34A;}
</style>
<title>Icon / General / Green / icon-green-ThumbsUp</title>
<desc>Created with Sketch.</desc>
<g id="Group-11" transform="translate(20.454545, 15.151515)">
	<g id="Group-3" transform="translate(26.515152, 23.255227)">
		<g id="Clip-2">
		</g>
		<defs>
			<filter id="Adobe_OpacityMaskFilter" filterUnits="userSpaceOnUse" x="0.7" y="0" width="28.3" height="40.9">
				<feColorMatrix  type="matrix" values="1 0 0 0 0  0 1 0 0 0  0 0 1 0 0  0 0 0 1 0"/>
			</filter>
		</defs>
		<mask maskUnits="userSpaceOnUse" x="0.7" y="0" width="28.3" height="40.9" id="mask-2">
			<g class="st0">
				<polygon id="path-1" class="st1" points="0.7,0 29.1,0 29.1,40.9 0.7,40.9 				"/>
			</g>
		</mask>
		<path id="Fill-1" class="st2" d="M22.8,28.4H7c-1.8,0-3.2-1.4-3.2-3.2S5.2,22,7,22h15.9c1.8,0,3.2,1.4,3.2,3.2
			S24.6,28.4,22.8,28.4 M8.3,12.5h14.5c1.8,0,3.2,1.4,3.2,3.2s-1.4,3.2-3.2,3.2H8.3c-1.5,0-2.8-1-3.1-2.4v0
			c-0.1-0.3-0.1-0.5-0.1-0.8C5.1,14,6.5,12.5,8.3,12.5 M29.1,6.3c0-3.4-2.8-6.2-6.2-6.2h-6.2c-0.8,0-1.5,0.7-1.5,1.5
			c0,0.8,0.7,1.5,1.5,1.5h6.2C24.6,3,26,4.5,26,6.3s-1.4,3.2-3.2,3.2H10.4C8.6,9.5,7.2,8,7.2,6.3S8.6,3,10.4,3
			c0.8,0,1.5-0.7,1.5-1.5c0-0.8-0.7-1.5-1.5-1.5C6.9,0,4.1,2.8,4.1,6.3c0,1.5,0.5,2.8,1.4,3.9c-2,1-3.5,3.1-3.5,5.6
			c0,0.5,0.1,1,0.2,1.5v0c0.3,1,0.8,1.9,1.4,2.7C1.9,21,0.7,23,0.7,25.2c0,2.8,1.9,5.2,4.5,6c-0.7,1-1.1,2.2-1.1,3.5
			c0,4.1,2.2,6.2,6.6,6.2c0.8,0,1.5-0.7,1.5-1.5c0-0.8-0.7-1.5-1.5-1.5c-3,0-3.6-1.1-3.6-3.2c0-1.8,1.4-3.2,3.2-3.2h10.2
			c1.8,0,3.2,1.4,3.2,3.2s-1.4,3.2-3.2,3.2h-5c-0.8,0-1.5,0.7-1.5,1.5c0,0.8,0.7,1.5,1.5,1.5h5c3.4,0,6.2-2.8,6.2-6.2
			c0-1.4-0.5-2.8-1.3-3.8c2.1-1,3.6-3.1,3.6-5.6c0-1.9-0.9-3.6-2.2-4.7c1.3-1.1,2.2-2.8,2.2-4.7c0-1.9-0.9-3.6-2.2-4.7
			C28.2,9.8,29.1,8.1,29.1,6.3"/>
	</g>
	<g id="Group-6" transform="translate(0.000000, 50.527955)">
		<g id="Clip-5">
		</g>
		<defs>
			<filter id="Adobe_OpacityMaskFilter_1_" filterUnits="userSpaceOnUse" x="0" y="0.5" width="30.3" height="13.1">
				<feColorMatrix  type="matrix" values="1 0 0 0 0  0 1 0 0 0  0 0 1 0 0  0 0 0 1 0"/>
			</filter>
		</defs>
		<mask maskUnits="userSpaceOnUse" x="0" y="0.5" width="30.3" height="13.1" id="mask-4">
			<g class="st3">
				<polygon id="path-3" class="st1" points="0,0.5 30.3,0.5 30.3,13.6 0,13.6 				"/>
			</g>
		</mask>
		<path id="Fill-4" class="st4" d="M28.8,10.6h-2c-1-0.3-6.2-1.9-8.8-5c-0.5-0.6-0.9-1.2-1.2-1.8C16,2.2,15,0.5,11.6,0.5H1.5
			C0.7,0.5,0,1.2,0,2c0,0.8,0.7,1.5,1.5,1.5h10.1c1.6,0,1.8,0.4,2.5,1.7c0.4,0.7,0.8,1.5,1.5,2.3c3.4,4.2,10.2,6,10.5,6.1
			c0.1,0,0.3,0,0.4,0h2.2c0.8,0,1.5-0.7,1.5-1.5S29.6,10.6,28.8,10.6"/>
	</g>
	<path id="Fill-7" class="st5" d="M1.5,46.8c0.8,0,1.5-0.7,1.5-1.5V29.4c2.4,0,7.1,0,9.5,0c0.1,0,0.2,0,0.3,0
		c4.5-0.9,5.6-2.2,7.7-4.6c0.5-0.5,1-1.2,1.7-1.9c0,0,0,0,0.1-0.1c3.6-4.4,8.1-6.7,10.1-7.8c0.2-0.1,0.4-0.2,0.6-0.3
		c1.4-0.7,3.1-3.3,5.9-8c0.5-0.8,0.9-1.5,1.2-1.9c0-0.1,0.1-0.1,0.1-0.2c0.8-1.7,1.8-2.1,3.4-1.5c2.6,1.7,0.8,7.8-0.1,9.9l-3.3,6.1
		c-0.4,0.7-0.1,1.7,0.6,2c0.7,0.4,1.7,0.1,2-0.6l3.3-6.2c0,0,0-0.1,0.1-0.1C46.3,14,50.6,4,45,0.7c-0.1,0-0.1-0.1-0.2-0.1
		c-3-1.3-5.8-0.3-7.4,2.8c-0.3,0.5-0.7,1.2-1.2,2c-1.1,1.9-3.8,6.3-4.8,6.9c-0.1,0.1-0.3,0.2-0.5,0.3c-2.1,1.1-6.9,3.7-10.9,8.5
		c-0.7,0.7-1.2,1.4-1.7,1.9c-1.9,2.1-2.5,2.9-5.9,3.6c-3.4-0.1-10.6,0-10.9,0c-0.8,0-1.5,0.7-1.5,1.5v17.4C0,46.2,0.7,46.8,1.5,46.8
		"/>
	<path id="Fill-9" class="st5" d="M23.7,40.2c-1.2,0.9-3.1,2-5.2,2.1c-0.8,0-1.5,0.7-1.5,1.6c0,0.8,0.7,1.5,1.5,1.5c0,0,0,0,0,0
		c2.3-0.1,4.8-1,7-2.7c0.7-0.5,0.8-1.5,0.3-2.1C25.3,39.8,24.4,39.7,23.7,40.2"/>
</g>
</svg>
