
<svg width="75px" height="75px" viewBox="0 0 75 75" version="1.1" xmlns="http://www.w3.org/2000/svg" xmlns:xlink="http://www.w3.org/1999/xlink">
    <!-- Generator: Sketch 51.2 (57519) - http://www.bohemiancoding.com/sketch -->
    <desc>Created with Sketch.</desc>
    <defs></defs>
    <g id="D.-Personalise-screens" stroke="none" stroke-width="1" fill="none" fill-rule="evenodd">
        <g id="Personalisation---Step-2-of-4---A-width" transform="translate(-122.000000, -115.000000)" fill="#47BCC6">
            <g id="Stacked-Group-2" transform="translate(20.000000, 115.000000)">
                <g id="Icon-/-General-/-Blue-/-icon-blue-QuestionMark" transform="translate(102.000000, 0.000000)">
                    <g id="Group">
                        <path d="M37.499714,1.58622715 C17.6967578,1.58622715 1.58622715,17.6973298 1.58622715,37.500286 C1.58622715,57.3026702 17.6967578,73.4137729 37.499714,73.4137729 C57.3026702,73.4137729 73.4137729,57.3026702 73.4137729,37.500286 C73.4137729,17.6973298 57.3026702,1.58622715 37.499714,1.58622715 M37.499714,75 C16.8221305,75 0,58.1778695 0,37.500286 C0,16.8227026 16.8221305,0 37.499714,0 C58.1772974,0 75,16.8227026 75,37.500286 C75,58.1778695 58.1772974,75 37.499714,75" id="Fill-3"></path>
                        <path d="M38.2186877,19.1727691 C43.6792158,19.1727691 47.069833,22.0335291 47.069833,26.6407999 C47.069833,31.9760616 43.7099299,34.0743234 40.45972,36.1024575 C40.1481913,36.2972563 39.8355656,36.4920552 39.52294,36.6913066 L39.4768688,36.7235875 C36.3473215,38.8619221 33.6422868,40.7108414 33.6422868,46.5202992 C33.6422868,47.7213731 33.7914696,47.8738728 34.9761563,47.8738728 L37.5704008,47.8738728 C38.7550875,47.8738728 38.9042703,47.7213731 38.9042703,46.5202992 C38.9042703,43.4925687 40.7855089,42.2992867 42.9640161,40.9189978 L43.3380699,40.6818998 C43.8273017,40.3757874 44.339569,40.0752406 44.8682903,39.7657887 C48.9752042,37.3591883 53.6294872,34.6308915 53.6294872,26.3113115 C53.6294872,18.6117485 47.5151875,13.4390046 38.4139416,13.4390046 C30.1551396,13.4390046 24.8448911,16.83407 22.1760552,23.8189996 C21.9478934,24.3766808 21.8853682,24.7640522 21.986286,24.9889057 C22.0926884,25.2260038 22.4612576,25.4530835 23.0799273,25.6623531 L26.2072808,26.7866207 C27.3053099,27.2040468 27.464365,27.2029336 28.0687747,25.8104003 C30.1244255,21.1563778 33.1607336,19.1727691 38.2186877,19.1727691 Z M37.5704008,49.3810592 L34.9761563,49.3810592 C32.9742551,49.3810592 32.1581376,48.5528858 32.1581376,46.5202992 C32.1581376,39.9082702 35.4566126,37.6541694 38.6486851,35.4735356 L38.7123071,35.4290101 C39.0479684,35.2141748 39.3649817,35.0160366 39.6808982,34.8190115 C42.8499351,32.8409685 45.5856839,31.1334175 45.5856839,26.6407999 C45.5856839,22.9073411 42.8312873,20.6799555 38.2186877,20.6799555 C33.7750156,20.6799555 31.2279392,22.3440941 29.4256797,26.421512 C28.6545364,28.2003037 27.8307404,29.0151194 25.6994012,28.2014168 L22.5983741,27.0871675 C21.889756,26.8489563 21.0144041,26.4604718 20.6359625,25.6133751 C20.2586179,24.7740705 20.548208,23.8668645 20.7983085,23.2568658 C23.666786,15.7476491 29.5957042,11.9318182 38.4139416,11.9318182 C48.2468412,11.9318182 55.1136364,17.8447976 55.1136364,26.3113115 C55.1136364,35.5002508 49.6212972,38.7205538 45.6109133,41.0703843 C45.0953552,41.3731574 44.5940572,41.6659122 44.1223764,41.9620064 L43.7505164,42.1979913 C41.7266766,43.4803242 40.3895164,44.3274208 40.3895164,46.5202992 C40.3895164,48.5528858 39.5723019,49.3810592 37.5704008,49.3810592 Z M36.0785731,54.0495524 C33.3702476,54.0495524 32.669308,54.7619595 32.669308,57.5091797 L32.669308,58.1024813 C32.669308,60.8830955 33.3384366,61.5609954 36.0785731,61.5609954 L36.597422,61.5609954 C39.3386554,61.5609954 40.006687,60.8830955 40.006687,58.1024813 L40.006687,57.5091797 C40.006687,54.7619595 39.3057474,54.0495524 36.597422,54.0495524 L36.0785731,54.0495524 Z M36.597422,63.0681818 L36.0785731,63.0681818 C32.5113498,63.0681818 31.1840619,61.7224002 31.1840619,58.1024813 L31.1840619,57.5091797 C31.1840619,53.9348993 32.5574209,52.5434791 36.0785731,52.5434791 L36.597422,52.5434791 C40.1185741,52.5434791 41.4908362,53.9348993 41.4908362,57.5091797 L41.4908362,58.1024813 C41.4908362,61.7224002 40.1646453,63.0681818 36.597422,63.0681818 Z" id="Fill-1"></path>
                    </g>
                </g>
            </g>
        </g>
    </g>
</svg>