
<svg width="75px" height="75px" viewBox="0 0 75 75" version="1.1" xmlns="http://www.w3.org/2000/svg" xmlns:xlink="http://www.w3.org/1999/xlink">
    <!-- Generator: Sketch 51.2 (57519) - http://www.bohemiancoding.com/sketch -->
    <desc>Created with Sketch.</desc>
    <defs>
        <polygon id="path-1" points="0 46.205625 45.9613636 46.205625 45.9613636 -5.68181818e-05 0 -5.68181818e-05"></polygon>
    </defs>
    <g id="D.-Personalise-screens" stroke="none" stroke-width="1" fill="none" fill-rule="evenodd">
        <g id="Personalisation---Step-3-of-4---A-width" transform="translate(-122.000000, -115.000000)">
            <g id="Stacked-Group-2" transform="translate(20.000000, 115.000000)">
                <g id="Icon-/-General-/-Blue-/-Calendar-SML" transform="translate(102.000000, 0.000000)">
                    <g id="Group">
                        <path d="M37.499714,1.58622715 C17.6967578,1.58622715 1.58622715,17.6973298 1.58622715,37.500286 C1.58622715,57.3026702 17.6967578,73.4137729 37.499714,73.4137729 C57.3026702,73.4137729 73.4137729,57.3026702 73.4137729,37.500286 C73.4137729,17.6973298 57.3026702,1.58622715 37.499714,1.58622715 M37.499714,75 C16.8221305,75 0,58.1778695 0,37.500286 C0,16.8227026 16.8221305,0 37.499714,0 C58.1772974,0 75,16.8227026 75,37.500286 C75,58.1778695 58.1772974,75 37.499714,75" id="Fill-3" fill="#47BCC6"></path>
                        <g id="Group-32" transform="translate(14.772727, 14.204545)">
                            <path d="M4.90159091,3.20869318 C2.66863636,3.20869318 0.852159091,5.02517045 0.852159091,7.25755682 L0.852159091,41.3041477 C0.852159091,43.5371023 2.66863636,45.3535795 4.90159091,45.3535795 L41.0601136,45.3535795 C43.2930682,45.3535795 45.1095455,43.5371023 45.1095455,41.3041477 L45.1095455,7.25755682 C45.1095455,5.02517045 43.2930682,3.20869318 41.0601136,3.20869318 L4.90159091,3.20869318 Z" id="Stroke-1" stroke="#47BCC6" stroke-width="1.71" stroke-linecap="round" stroke-linejoin="round"></path>
                            <path d="M6.64857955,0.852215909 L6.64857955,5.34823864" id="Stroke-3" stroke="#47BCC6" stroke-width="1.71" stroke-linecap="round" stroke-linejoin="round"></path>
                            <path d="M13.0519886,0.852215909 L13.0519886,5.34823864" id="Stroke-5" stroke="#47BCC6" stroke-width="1.71" stroke-linecap="round" stroke-linejoin="round"></path>
                            <path d="M19.4553977,0.852215909 L19.4553977,5.34823864" id="Stroke-7" stroke="#47BCC6" stroke-width="1.71" stroke-linecap="round" stroke-linejoin="round"></path>
                            <path d="M25.8589773,0.852215909 L25.8589773,5.34823864" id="Stroke-9" stroke="#47BCC6" stroke-width="1.71" stroke-linecap="round" stroke-linejoin="round"></path>
                            <path d="M32.2623864,0.852215909 L32.2623864,5.34823864" id="Stroke-11" stroke="#47BCC6" stroke-width="1.71" stroke-linecap="round" stroke-linejoin="round"></path>
                            <path d="M38.6657955,0.852215909 L38.6657955,5.34823864" id="Stroke-13" stroke="#47BCC6" stroke-width="1.71" stroke-linecap="round" stroke-linejoin="round"></path>
                            <path d="M14.0486932,13.8981818 L5.14698864,13.8981818" id="Stroke-15" stroke="#47BCC6" stroke-width="1.71" stroke-linecap="round" stroke-linejoin="round"></path>
                            <path d="M39.4275,13.8981818 L19.5411364,13.8981818" id="Stroke-17" stroke="#47BCC6" stroke-width="1.71" stroke-linecap="round" stroke-linejoin="round"></path>
                            <mask id="mask-2" fill="white">
                                <use xlink:href="#path-1"></use>
                            </mask>
                            <g id="Clip-20"></g>
                            <polygon id="Stroke-19" stroke="#47BCC6" stroke-width="1.71" stroke-linecap="round" stroke-linejoin="round" mask="url(#mask-2)" points="13.4914773 23.1027841 17.3835227 23.1027841 17.3835227 19.0221023 13.4914773 19.0221023"></polygon>
                            <polygon id="Stroke-21" stroke="#47BCC6" stroke-width="1.71" stroke-linecap="round" stroke-linejoin="round" mask="url(#mask-2)" points="20.8369318 23.1027841 24.7289773 23.1027841 24.7289773 19.0221023 20.8369318 19.0221023"></polygon>
                            <polygon id="Stroke-22" stroke="#47BCC6" stroke-width="1.71" stroke-linecap="round" stroke-linejoin="round" mask="url(#mask-2)" points="28.1818182 23.1027841 32.0738636 23.1027841 32.0738636 19.0221023 28.1818182 19.0221023"></polygon>
                            <polygon id="Stroke-23" stroke="#47BCC6" stroke-width="1.71" stroke-linecap="round" stroke-linejoin="round" mask="url(#mask-2)" points="35.5272727 23.1027841 39.4193182 23.1027841 39.4193182 19.0221023 35.5272727 19.0221023"></polygon>
                            <polygon id="Stroke-24" stroke="#47BCC6" stroke-width="1.71" stroke-linecap="round" stroke-linejoin="round" mask="url(#mask-2)" points="13.4914773 31.099375 17.3835227 31.099375 17.3835227 27.0186932 13.4914773 27.0186932"></polygon>
                            <polygon id="Stroke-25" stroke="#47BCC6" stroke-width="1.71" stroke-linecap="round" stroke-linejoin="round" mask="url(#mask-2)" points="6.08352273 31.099375 9.97556818 31.099375 9.97556818 27.0186932 6.08352273 27.0186932"></polygon>
                            <polygon id="Stroke-26" stroke="#47BCC6" stroke-width="1.71" stroke-linecap="round" stroke-linejoin="round" mask="url(#mask-2)" points="20.8369318 31.099375 24.7289773 31.099375 24.7289773 27.0186932 20.8369318 27.0186932"></polygon>
                            <polygon id="Stroke-27" stroke="#47BCC6" stroke-width="1.71" stroke-linecap="round" stroke-linejoin="round" mask="url(#mask-2)" points="28.1818182 31.099375 32.0738636 31.099375 32.0738636 27.0186932 28.1818182 27.0186932"></polygon>
                            <polygon id="Stroke-28" stroke="#47BCC6" stroke-width="1.71" stroke-linecap="round" stroke-linejoin="round" mask="url(#mask-2)" points="35.5272727 31.099375 39.4193182 31.099375 39.4193182 27.0186932 35.5272727 27.0186932"></polygon>
                            <polygon id="Stroke-29" stroke="#47BCC6" stroke-width="1.71" stroke-linecap="round" stroke-linejoin="round" mask="url(#mask-2)" points="13.4914773 39.0971023 17.3835227 39.0971023 17.3835227 35.0164205 13.4914773 35.0164205"></polygon>
                            <polygon id="Stroke-30" stroke="#47BCC6" stroke-width="1.71" stroke-linecap="round" stroke-linejoin="round" mask="url(#mask-2)" points="6.08352273 39.0971023 9.97556818 39.0971023 9.97556818 35.0164205 6.08352273 35.0164205"></polygon>
                            <polygon id="Stroke-31" stroke="#47BCC6" stroke-width="1.71" stroke-linecap="round" stroke-linejoin="round" mask="url(#mask-2)" points="20.8369318 39.0971023 24.7289773 39.0971023 24.7289773 35.0164205 20.8369318 35.0164205"></polygon>
                        </g>
                    </g>
                </g>
            </g>
        </g>
    </g>
</svg>