
<svg width="75px" height="75px" viewBox="0 0 75 75" version="1.1" xmlns="http://www.w3.org/2000/svg" xmlns:xlink="http://www.w3.org/1999/xlink">
    <!-- Generator: Sketch 51.2 (57519) - http://www.bohemiancoding.com/sketch -->
    <desc>Created with Sketch.</desc>
    <defs></defs>
    <g id="D.-Personalise-screens" stroke="none" stroke-width="1" fill="none" fill-rule="evenodd">
        <g id="Personalisation---Step-1-of-4---A-width" transform="translate(-122.000000, -115.000000)" fill="#47BCC6">
            <g id="Stacked-Group-2" transform="translate(20.000000, 115.000000)">
                <g id="Icon-/-General-/-Blue-/-NoSmoking-SML" transform="translate(102.000000, 0.000000)">
                    <g id="Group-2">
                        <path d="M37.499714,1.58622715 C17.6967578,1.58622715 1.58622715,17.6973298 1.58622715,37.500286 C1.58622715,57.3026702 17.6967578,73.4137729 37.499714,73.4137729 C57.3026702,73.4137729 73.4137729,57.3026702 73.4137729,37.500286 C73.4137729,17.6973298 57.3026702,1.58622715 37.499714,1.58622715 M37.499714,75 C16.8221305,75 0,58.1778695 0,37.500286 C0,16.8227026 16.8221305,0 37.499714,0 C58.1772974,0 75,16.8227026 75,37.500286 C75,58.1778695 58.1772974,75 37.499714,75" id="Fill-3"></path>
                        <g id="Group" transform="translate(9.659091, 9.659091)">
                            <path d="M46.5582386,26.7623864 C46.428125,26.7623864 46.2980114,26.7277273 46.1809659,26.6572727 C45.9178977,26.4976136 45.7832386,26.1890909 45.8457386,25.8873864 C46.2985795,23.7055682 46.240625,22.3027273 45.6730114,21.7192045 C45.1548295,21.18625 44.015625,21.0998864 42.0883523,21.4453409 C41.6190341,21.53 41.1048295,21.6942045 40.559375,21.8686364 C38.8338068,22.4197727 36.6872159,23.105 34.9497159,21.3175 C33.7951705,20.1288636 33.7002841,19.03 33.8241477,18.3175 C33.8559659,18.1345455 33.9053977,17.9561364 33.9713068,17.7834091 C31.4690341,18.1169318 29.3042614,17.4072727 27.8196023,15.7095455 C25.9525568,13.5748864 25.578125,10.2294318 26.9298295,7.755 C28.2553977,5.32772727 30.8991477,4.21465909 34.184375,4.705 C34.5815341,4.76409091 34.8559659,5.13454545 34.796875,5.53170455 C34.7377841,5.92886364 34.3678977,6.20670455 33.9701705,6.14420455 C31.2872159,5.74761364 29.2383523,6.56409091 28.2071023,8.45215909 C27.1372159,10.4106818 27.4355114,13.0601136 28.9150568,14.7515909 C30.4894886,16.5521591 33.0173295,16.9061364 36.0338068,15.74875 C36.396875,15.6089773 36.8053977,15.7811364 36.9610795,16.1368182 C37.1167614,16.4942045 36.9639205,16.9101136 36.6150568,17.0811364 C35.8508523,17.4555682 35.3565341,17.9970455 35.2576705,18.5663636 C35.1383523,19.2532955 35.5917614,19.8902273 35.9934659,20.3038636 C37.028125,21.3692045 38.2417614,21.0822727 40.1167614,20.4822727 C40.6826705,20.3015909 41.2678977,20.1146591 41.8315341,20.0135227 C43.6053977,19.6964773 45.5724432,19.5294318 46.715625,20.7044318 C47.3252841,21.3311364 47.6178977,22.2368182 47.6042614,23.5243182 C48.2315341,22.24875 48.4565341,20.7254545 47.8940341,19.43 C46.3059659,15.7703409 42.3991477,15.955 40.2133523,16.3902273 C39.8911932,16.4544318 39.5650568,16.2936364 39.4190341,15.99875 C39.2735795,15.7032955 39.3440341,15.3470455 39.5917614,15.13 C41.0105114,13.8839773 41.4173295,12.5947727 40.7684659,11.4027273 C39.8644886,9.74079545 37.2150568,8.80727273 35.096875,9.40897727 C34.709375,9.5175 34.3076705,9.29420455 34.1985795,8.90727273 C34.0889205,8.52090909 34.3133523,8.11863636 34.7002841,8.00897727 C37.5088068,7.21636364 40.8042614,8.42375 42.0463068,10.7067045 C42.7519886,12.0032955 42.6713068,13.4038636 41.8565341,14.7186364 C45.3491477,14.5527273 47.990625,15.9964773 49.2292614,18.8510227 C50.4190341,21.5942045 49.0400568,24.9442045 47.0190341,26.5981818 C46.8860795,26.7067045 46.7224432,26.7623864 46.5582386,26.7623864" id="Fill-1"></path>
                            <path d="M48.786875,39.5908523 L42.143125,39.5908523 C41.7414205,39.5908523 41.4158523,39.2652841 41.4158523,38.8635795 C41.4158523,38.461875 41.7414205,38.1357386 42.143125,38.1357386 L48.786875,38.1357386 C49.2652841,38.1357386 49.6539205,37.7465341 49.6539205,37.2686932 L49.6539205,34.9573295 C49.6539205,34.5550568 49.9800568,34.2294886 50.3817614,34.2294886 C50.7834659,34.2294886 51.1090341,34.5550568 51.1090341,34.9573295 L51.1090341,37.2686932 C51.1090341,38.549375 50.0675568,39.5908523 48.786875,39.5908523" id="Fill-6"></path>
                            <path d="M50.3817045,32.1101705 C49.98,32.1101705 49.6538636,31.7846023 49.6538636,31.3828977 C49.6538636,30.9044886 49.2652273,30.5152841 48.7868182,30.5152841 L33.9044318,30.5152841 C33.5027273,30.5152841 33.1771591,30.1897159 33.1771591,29.7880114 C33.1771591,29.3863068 33.5027273,29.0601705 33.9044318,29.0601705 L48.7868182,29.0601705 C50.0675,29.0601705 51.1089773,30.1022159 51.1089773,31.3828977 C51.1089773,31.7846023 50.7834091,32.1101705 50.3817045,32.1101705" id="Fill-8"></path>
                            <path d="M30.8492045,39.5908523 L2.38670455,39.5908523 C1.10602273,39.5908523 0.0639772727,38.549375 0.0639772727,37.2686932 L0.0639772727,31.3828977 C0.0639772727,30.1022159 1.10602273,29.0601705 2.38670455,29.0601705 L23.2832955,29.0601705 C23.685,29.0601705 24.0105682,29.3863068 24.0105682,29.7880114 C24.0105682,30.1897159 23.685,30.5152841 23.2832955,30.5152841 L2.38670455,30.5152841 C1.90829545,30.5152841 1.51909091,30.9044886 1.51909091,31.3828977 L1.51909091,37.2686932 C1.51909091,37.7465341 1.90829545,38.1357386 2.38670455,38.1357386 L30.8492045,38.1357386 C31.2509091,38.1357386 31.5764773,38.461875 31.5764773,38.8635795 C31.5764773,39.2652841 31.2509091,39.5908523 30.8492045,39.5908523" id="Fill-10"></path>
                            <path d="M46.2718182,39.4199432 C45.8701136,39.4199432 45.5445455,39.094375 45.5445455,38.6921023 L45.5445455,33.2438068 C45.5445455,32.8421023 45.8701136,32.5165341 46.2718182,32.5165341 C46.6735227,32.5165341 46.9996591,32.8421023 46.9996591,33.2438068 L46.9996591,38.6921023 C46.9996591,39.094375 46.6735227,39.4199432 46.2718182,39.4199432" id="Fill-12"></path>
                            <path d="M18.1889773,36.7632386 C17.7872727,36.7632386 17.4611364,36.4376705 17.4611364,36.0359659 L17.4611364,30.3013068 C17.4611364,29.8996023 17.7872727,29.5740341 18.1889773,29.5740341 C18.5906818,29.5740341 18.91625,29.8996023 18.91625,30.3013068 L18.91625,36.0359659 C18.91625,36.4376705 18.5906818,36.7632386 18.1889773,36.7632386" id="Fill-14"></path>
                            <path d="M50.8266545,56.0833194 C50.5831476,56.0833194 50.3413554,55.9827156 50.1675852,55.7860809 L2.74546482,1.98819411 C2.42479018,1.62407692 2.45965855,1.06904113 2.82320413,0.74836649 C3.1861781,0.426548624 3.7417855,0.461988602 4.06246014,0.826105797 L51.4851522,54.6239926 C51.8058268,54.9881098 51.7709584,55.5431456 51.4068412,55.8638202 C51.240502,56.0112963 51.0330066,56.0833194 50.8266545,56.0833194" id="Fill-16"></path>
                        </g>
                    </g>
                </g>
            </g>
        </g>
    </g>
</svg>