
<svg width="75px" height="75px" viewBox="0 0 75 75" version="1.1" xmlns="http://www.w3.org/2000/svg" xmlns:xlink="http://www.w3.org/1999/xlink">
    <!-- Generator: Sketch 51.2 (57519) - http://www.bohemiancoding.com/sketch -->
    <desc>Created with Sketch.</desc>
    <defs></defs>
    <g id="D.-Personalise-screens" stroke="none" stroke-width="1" fill="none" fill-rule="evenodd">
        <g id="Personalisation---Step-4-of-4---A-width" transform="translate(-122.000000, -115.000000)" fill="#47BCC6">
            <g id="Stacked-Group-2" transform="translate(20.000000, 115.000000)">
                <g id="Icon-/-General-/-Blue-/-PaperClips-SML" transform="translate(102.000000, 0.000000)">
                    <g id="Group-2">
                        <path d="M37.499714,1.58622715 C17.6967578,1.58622715 1.58622715,17.6973298 1.58622715,37.500286 C1.58622715,57.3032422 17.6967578,73.4137729 37.499714,73.4137729 C57.3026702,73.4137729 73.4137729,57.3032422 73.4137729,37.500286 C73.4137729,17.6973298 57.3026702,1.58622715 37.499714,1.58622715 M37.499714,75 C16.8221305,75 0,58.1778695 0,37.500286 C0,16.8227026 16.8221305,0 37.499714,0 C58.1772974,0 75,16.8227026 75,37.500286 C75,58.1778695 58.1772974,75 37.499714,75" id="Fill-17"></path>
                        <g id="Group" transform="translate(9.090909, 19.318182)">
                            <path d="M37.116875,11.8938636 C37.0253977,11.8938636 36.9327841,11.8768182 36.8430114,11.8404545 C36.4708523,11.6893182 36.291875,11.2654545 36.4430114,10.8927273 C36.9282386,9.69784091 37.0538068,8.42 36.8060795,7.19897727 C36.035625,3.40693182 31.9390341,1.02340909 27.6748295,1.89159091 L10.7134659,5.33704545 C10.3134659,5.42113636 9.935625,5.16318182 9.85551136,4.76886364 C9.77539773,4.37568182 10.0299432,3.99159091 10.423125,3.91204545 L27.3850568,0.466590909 C32.4384659,-0.562386364 37.3021023,2.33193182 38.2316477,6.91034091 C38.5367614,8.41204545 38.3844886,9.97852273 37.7907386,11.4404545 C37.6759659,11.7222727 37.4038068,11.8938636 37.116875,11.8938636" id="Fill-1"></path>
                            <path d="M9.12795455,21.2594318 C4.86886364,21.2594318 1.12909091,18.5639773 0.325681818,14.6082955 C-0.126022727,12.385 0.41375,10.0969318 1.84670455,8.16568182 C3.26204545,6.25829545 5.37625,4.93727273 7.79897727,4.44522727 C8.19443182,4.36227273 8.57738636,4.61909091 8.65693182,5.01340909 C8.73704545,5.40659091 8.48306818,5.79068182 8.08931818,5.87079545 C6.01772727,6.29125 4.21602273,7.41397727 3.01545455,9.03272727 C1.83193182,10.6276136 1.38306818,12.5054545 1.75125,14.3196591 C2.52227273,18.1117045 6.61261364,20.4940909 10.8825,19.6270455 L15.4853409,18.69125 C15.8807955,18.6117045 16.2631818,18.8668182 16.3427273,19.26 C16.4228409,19.6531818 16.1688636,20.0372727 15.7751136,20.1168182 L11.1722727,21.0526136 C10.4842045,21.1923864 9.79954545,21.2594318 9.12795455,21.2594318" id="Fill-3"></path>
                            <path d="M27.4069886,30.0951136 L25.5621023,30.0951136 C20.408125,30.0951136 17.3791477,26.2939773 17.3791477,21.6218182 C17.3791477,16.9502273 21.5723295,13.1490909 26.7263068,13.1490909 L43.8416477,13.1490909 C44.2433523,13.1490909 44.5694886,13.4752273 44.5694886,13.8763636 C44.5694886,14.2775 44.2433523,14.6036364 43.8416477,14.6036364 L26.7263068,14.6036364 C22.3740341,14.6036364 18.8336932,17.7525 18.8336932,21.6218182 C18.8336932,25.4911364 21.2103977,28.64 25.5621023,28.64 L27.4069886,28.64 C27.8086932,28.64 28.1348295,28.9661364 28.1348295,29.3678409 C28.1348295,29.7689773 27.8086932,30.0951136 27.4069886,30.0951136" id="Fill-5"></path>
                            <path d="M31.8394318,30.0951136 L30.10875,30.0951136 C29.7070455,30.0951136 29.3814773,29.7689773 29.3814773,29.3678409 C29.3814773,28.9661364 29.7070455,28.64 30.10875,28.64 L31.8394318,28.64 C32.2411364,28.64 32.5667045,28.9661364 32.5667045,29.3678409 C32.5667045,29.7689773 32.2411364,30.0951136 31.8394318,30.0951136" id="Fill-7"></path>
                            <path d="M46.711875,30.0951136 L34.6385795,30.0951136 C34.236875,30.0951136 33.9113068,29.7689773 33.9113068,29.3678409 C33.9113068,28.9661364 34.236875,28.64 34.6385795,28.64 L46.711875,28.64 C51.0635795,28.64 54.6039205,25.4911364 54.6039205,21.6218182 C54.6039205,17.7525 51.0635795,14.6036364 46.711875,14.6036364 C46.3101705,14.6036364 45.9846023,14.2775 45.9846023,13.8763636 C45.9846023,13.4752273 46.3101705,13.1490909 46.711875,13.1490909 C51.8658523,13.1490909 56.0590341,16.9502273 56.0590341,21.6218182 C56.0590341,26.2939773 51.8658523,30.0951136 46.711875,30.0951136" id="Fill-9"></path>
                            <path d="M40.3490909,18.9278977 L28.1564773,18.9278977 C27.8365909,18.9278977 27.5769318,18.6688068 27.5769318,18.3477841 C27.5769318,18.0278977 27.8365909,17.7682386 28.1564773,17.7682386 L40.3490909,17.7682386 C40.6689773,17.7682386 40.9292045,18.0278977 40.9292045,18.3477841 C40.9292045,18.6688068 40.6689773,18.9278977 40.3490909,18.9278977" id="Fill-11"></path>
                            <path d="M46.0242614,25.1365341 L34.6753977,25.1365341 C34.3549432,25.1365341 34.0952841,24.8774432 34.0952841,24.5569886 C34.0952841,24.2365341 34.3549432,23.976875 34.6753977,23.976875 L46.0242614,23.976875 C46.3441477,23.976875 46.6038068,24.2365341 46.6038068,24.5569886 C46.6038068,24.8774432 46.3441477,25.1365341 46.0242614,25.1365341" id="Fill-13"></path>
                            <path d="M26.4394886,9.04102273 L14.5076705,11.5495455 C14.1946023,11.6154545 13.8872159,11.4154545 13.8213068,11.10125 C13.7553977,10.7876136 13.9565341,10.4807955 14.2696023,10.4148864 L26.2008523,7.90636364 C26.5139205,7.84045455 26.8213068,8.04045455 26.8877841,8.35465909 C26.9536932,8.66772727 26.7525568,8.97511364 26.4394886,9.04102273" id="Fill-15"></path>
                        </g>
                    </g>
                </g>
            </g>
        </g>
    </g>
</svg>