
<svg width="132px" height="132px" viewBox="0 0 132 132" version="1.1" xmlns="http://www.w3.org/2000/svg" xmlns:xlink="http://www.w3.org/1999/xlink">
    <!-- Generator: Sketch 51.2 (57519) - http://www.bohemiancoding.com/sketch -->
    <desc>Created with Sketch.</desc>
    <defs>
        <polygon id="path-1" points="0.8004 0.609 72.428 0.609 72.428 54.9996 0.8004 54.9996"></polygon>
        <polygon id="path-3" points="0.800095536 0.663164169 72.428 0.663164169 72.428 30.231 0.800095536 30.231"></polygon>
    </defs>
    <g id="B.-Sign-in" stroke="none" stroke-width="1" fill="none" fill-rule="evenodd">
        <g id="Sign-In---ResetPassword---B-width" transform="translate(-141.000000, -150.000000)">
            <g id="Stacked-Group" transform="translate(42.000000, 150.000000)">
                <g id="Icon-/-General-/-Blue-/-icon-blue-SendMesage" transform="translate(99.000000, 0.000000)">
                    <g id="Group">
                        <path d="M65.9994966,2.79175978 C31.1462937,2.79175978 2.79175978,31.1473004 2.79175978,66.0005034 C2.79175978,100.8527 31.1462937,129.20824 65.9994966,129.20824 C100.8527,129.20824 129.20824,100.8527 129.20824,66.0005034 C129.20824,31.1473004 100.8527,2.79175978 65.9994966,2.79175978 M65.9994966,132 C29.6069497,132 0,102.39305 0,66.0005034 C0,29.6079565 29.6069497,0 65.9994966,0 C102.392044,0 132,29.6079565 132,66.0005034 C132,102.39305 102.392044,132 65.9994966,132" id="Fill-3" fill="#47BCC6"></path>
                        <g id="Group-15" transform="translate(14.000000, 38.000000)">
                            <g id="Group-3" transform="translate(22.000000, 0.391500)">
                                <mask id="mask-2" fill="white">
                                    <use xlink:href="#path-1"></use>
                                </mask>
                                <g id="Clip-2"></g>
                                <path d="M6.1964,3.2896 C4.6994,3.2896 3.4814,4.5076 3.4814,6.0046 L3.4814,49.6036 C3.4814,51.1016 4.6994,52.3186 6.1964,52.3186 L67.0314,52.3186 C68.5294,52.3186 69.7474,51.1016 69.7474,49.6036 L69.7474,6.0046 C69.7474,4.5076 68.5294,3.2896 67.0314,3.2896 L6.1964,3.2896 Z M67.0314,54.9996 L6.1964,54.9996 C3.2214,54.9996 0.8004,52.5796 0.8004,49.6036 L0.8004,6.0046 C0.8004,3.0286 3.2214,0.6086 6.1964,0.6086 L67.0314,0.6086 C70.0074,0.6086 72.4284,3.0286 72.4284,6.0046 L72.4284,49.6036 C72.4284,52.5796 70.0074,54.9996 67.0314,54.9996 Z" id="Fill-1" fill="#42C0C5" mask="url(#mask-2)"></path>
                            </g>
                            <g id="Group-6" transform="translate(22.000000, 4.391500)">
                                <mask id="mask-4" fill="white">
                                    <use xlink:href="#path-3"></use>
                                </mask>
                                <g id="Clip-5"></g>
                                <path d="M36.6141,30.231 C35.1811,30.231 33.7481,29.771 32.6311,28.851 L1.2881,3.039 C0.7171,2.568 0.6351,1.724 1.1061,1.152 C1.5771,0.582 2.4221,0.5 2.9931,0.97 L34.3351,26.782 C35.5711,27.799 37.6571,27.799 38.8921,26.782 L70.2351,0.97 C70.8071,0.497 71.6511,0.581 72.1221,1.152 C72.5931,1.724 72.5111,2.568 71.9401,3.039 L40.5971,28.851 C39.4801,29.771 38.0471,30.231 36.6141,30.231" id="Fill-4" fill="#42C0C5" mask="url(#mask-4)"></path>
                            </g>
                            <path d="M22.7977,22.0537 L7.0457,22.0537 C6.3057,22.0537 5.7047,21.4537 5.7047,20.7137 C5.7047,19.9727 6.3057,19.3727 7.0457,19.3727 L22.7977,19.3727 C23.5377,19.3727 24.1387,19.9727 24.1387,20.7137 C24.1387,21.4537 23.5377,22.0537 22.7977,22.0537" id="Fill-7" fill="#42C0C5"></path>
                            <path d="M19.4554,30.7182 L11.5794,30.7182 C10.8394,30.7182 10.2384,30.1182 10.2384,29.3772 C10.2384,28.6362 10.8394,28.0372 11.5794,28.0372 L19.4554,28.0372 C20.1954,28.0372 20.7964,28.6362 20.7964,29.3772 C20.7964,30.1182 20.1954,30.7182 19.4554,30.7182" id="Fill-9" fill="#42C0C5"></path>
                            <path d="M6.0663,30.7182 L1.3403,30.7182 C0.6003,30.7182 0.0003,30.1182 0.0003,29.3772 C0.0003,28.6362 0.6003,28.0372 1.3403,28.0372 L6.0663,28.0372 C6.8063,28.0372 7.4073,28.6362 7.4073,29.3772 C7.4073,30.1182 6.8063,30.7182 6.0663,30.7182" id="Fill-11" fill="#42C0C5"></path>
                            <path d="M22.1331,39.3818 L5.7511,39.3818 C5.0101,39.3818 4.4101,38.7818 4.4101,38.0408 C4.4101,37.2998 5.0101,36.7008 5.7511,36.7008 L22.1331,36.7008 C22.8731,36.7008 23.4741,37.2998 23.4741,38.0408 C23.4741,38.7818 22.8731,39.3818 22.1331,39.3818" id="Fill-13" fill="#42C0C5"></path>
                        </g>
                    </g>
                </g>
            </g>
        </g>
    </g>
</svg>