<?xml version="1.0" encoding="utf-8"?>
<!-- Generator: Adobe Illustrator 22.0.1, SVG Export Plug-In . SVG Version: 6.00 Build 0)  -->
<svg version="1.1" id="Layer_1" xmlns="http://www.w3.org/2000/svg" xmlns:xlink="http://www.w3.org/1999/xlink" x="0px" y="0px"
	 viewBox="0 0 91.4 91.8" style="enable-background:new 0 0 91.4 91.8;" xml:space="preserve">
<metadata><?xpacket begin="﻿" id="W5M0MpCehiHzreSzNTczkc9d"?>
<x:xmpmeta xmlns:x="adobe:ns:meta/" x:xmptk="Adobe XMP Core 5.6-c143 79.161210, 2017/08/11-10:28:36        ">
   <rdf:RDF xmlns:rdf="http://www.w3.org/1999/02/22-rdf-syntax-ns#">
      <rdf:Description rdf:about=""/>
   </rdf:RDF>
</x:xmpmeta>
                                                                                                    
                                                                                                    
                                                                                                    
                                                                                                    
                                                                                                    
                                                                                                    
                                                                                                    
                                                                                                    
                                                                                                    
                                                                                                    
                                                                                                    
                                                                                                    
                                                                                                    
                                                                                                    
                                                                                                    
                                                                                                    
                                                                                                    
                                                                                                    
                                                                                                    
                                                                                                    
                           
<?xpacket end="w"?></metadata>
<style type="text/css">
	.st0{fill:#93C14A;}
</style>
<g id="Confetti">
</g>
<g id="Sparkler">
</g>
<g>
	<g>
		<g>
			<path class="st0" d="M45.5,89.5c-23.9,0-43.3-19.4-43.3-43.3S21.7,2.9,45.5,2.9s43.3,19.4,43.3,43.3S69.4,89.5,45.5,89.5z
				 M45.5,4.8C22.7,4.8,4.1,23.4,4.1,46.2s18.6,41.5,41.5,41.5S87,69.1,87,46.2S68.4,4.8,45.5,4.8z"/>
		</g>
	</g>
</g>
<g>
	<g>
		<path class="st0" d="M16.7,34v0.8c1.5,0.2,2.3,1,2.9,2.2c0.2,0.4,0.1,0.6-0.3,0.8l-0.8,0.3c-0.4,0.2-0.5,0.1-0.7-0.3
			c-0.4-0.8-0.9-1.2-2-1.2c-1.3,0-2,0.4-2,1.3c0,0.9,1,1.1,2.2,1.2c1.8,0.2,3.9,0.5,3.9,3.1c0,1.7-1.1,2.9-3.2,3.2v0.8
			c0,0.4-0.1,0.5-0.5,0.5h-0.9c-0.4,0-0.5-0.1-0.5-0.5v-0.8c-1.6-0.2-2.7-1.1-3.2-2.4c-0.1-0.4,0-0.6,0.4-0.7l0.8-0.3
			c0.4-0.1,0.6-0.1,0.7,0.3c0.3,0.9,1,1.3,2.1,1.3c1.4,0,2.2-0.4,2.2-1.4c0-1-1-1.2-2.3-1.3c-1.8-0.2-3.9-0.6-3.9-3.1
			c0-1.7,1-2.9,3.1-3.1V34c0-0.4,0.1-0.5,0.5-0.5h0.9C16.6,33.5,16.7,33.6,16.7,34z"/>
	</g>
	<g>
		<path class="st0" d="M30,35.1v14.7c0,0.6-0.2,0.8-0.8,0.8h-1.3c-0.6,0-0.8-0.2-0.8-0.8v-12l-3.2,1.8c-0.6,0.3-0.9,0.2-1.2-0.3
			l-0.6-1c-0.3-0.5-0.1-0.8,0.4-1.1l4.5-2.6c0.4-0.3,0.6-0.3,1.1-0.3h1.1C29.8,34.3,30,34.5,30,35.1z"/>
		<path class="st0" d="M33.4,53.4h-0.5c-0.4,0-0.5-0.1-0.5-0.5l0.6-4.3c0.1-0.6,0.3-0.8,0.9-0.8h1c0.7,0,0.9,0.3,0.7,0.8l-1.4,4.1
			C34.1,53.2,33.9,53.4,33.4,53.4z"/>
		<path class="st0" d="M43.8,34c3.9,0,6.1,2.2,6.1,5.5v5.9c0,3.4-2.2,5.6-6.1,5.6s-6.1-2.2-6.1-5.6v-5.9C37.7,36.1,39.9,34,43.8,34z
			 M43.8,36.7c-2,0-3.2,1-3.2,2.8v5.9c0,1.8,1.2,2.9,3.2,2.9s3.2-1.1,3.2-2.9v-5.9C47,37.7,45.8,36.7,43.8,36.7z"/>
		<path class="st0" d="M58.3,34c3.9,0,6.1,2.2,6.1,5.5v5.9c0,3.4-2.2,5.6-6.1,5.6s-6.1-2.2-6.1-5.6v-5.9C52.2,36.1,54.5,34,58.3,34z
			 M58.3,36.7c-2,0-3.2,1-3.2,2.8v5.9c0,1.8,1.2,2.9,3.2,2.9s3.2-1.1,3.2-2.9v-5.9C61.5,37.7,60.3,36.7,58.3,36.7z"/>
		<path class="st0" d="M72.9,34c3.9,0,6.1,2.2,6.1,5.5v5.9c0,3.4-2.2,5.6-6.1,5.6s-6.1-2.2-6.1-5.6v-5.9C66.8,36.1,69,34,72.9,34z
			 M72.9,36.7c-2,0-3.2,1-3.2,2.8v5.9c0,1.8,1.2,2.9,3.2,2.9s3.2-1.1,3.2-2.9v-5.9C76.1,37.7,74.9,36.7,72.9,36.7z"/>
	</g>
</g>
<g>
	<path class="st0" d="M35.9,61.6c1.2,0,1.8,0.4,2.1,1.1c0.1,0.2,0.1,0.3-0.2,0.5l-0.5,0.2c-0.2,0.1-0.3,0.1-0.4-0.1
		c-0.2-0.3-0.4-0.5-1.1-0.5c-0.6,0-0.9,0.2-0.9,0.5c0,0.5,0.4,0.5,1.2,0.6c1.2,0.1,2,0.4,2,1.6c0,1-0.7,1.7-2.2,1.7
		c-1.2,0-1.9-0.4-2.2-1.2c-0.1-0.2,0-0.3,0.2-0.4l0.4-0.1c0.2-0.1,0.3,0,0.4,0.2c0.2,0.4,0.5,0.5,1.1,0.5c0.7,0,1.1-0.2,1.1-0.6
		c0-0.5-0.4-0.6-1.2-0.6c-1-0.1-2-0.3-2-1.6C33.9,62.2,34.5,61.6,35.9,61.6z"/>
	<path class="st0" d="M41.1,61.6c1.6,0,2.1,0.9,2.1,2.1v2.6c0,0.3-0.1,0.5-0.4,0.6c-0.4,0.2-1,0.3-1.8,0.3c-1.8,0-2.2-0.6-2.2-1.6
		c0-1.2,0.7-1.6,2.3-1.6c0.4,0,0.8,0,1,0v-0.3c0-0.6-0.2-1-1-1c-0.5,0-0.8,0.2-1,0.5c-0.1,0.2-0.2,0.2-0.4,0.2l-0.4-0.2
		C39,63,38.9,62.8,39,62.6C39.3,62,40,61.6,41.1,61.6z M41,64.8c-0.8,0-1,0.2-1,0.6c0,0.4,0.2,0.7,0.9,0.7c0.5,0,0.8,0,1-0.1
		c0.1,0,0.1,0,0.1-0.1v-1C41.8,64.8,41.4,64.8,41,64.8z"/>
	<path class="st0" d="M48.6,62.1l-1.8,4.6c-0.1,0.2-0.2,0.3-0.4,0.3H46c-0.2,0-0.3-0.1-0.4-0.3l-1.8-4.5c-0.1-0.3-0.1-0.4,0.2-0.4
		h0.4c0.4,0,0.5,0.1,0.5,0.3l0.9,2.4c0.2,0.5,0.3,1,0.3,1.1h0c0,0,0.1-0.6,0.3-1.1l0.9-2.4c0.1-0.2,0.2-0.3,0.6-0.3h0.4
		C48.7,61.7,48.7,61.8,48.6,62.1z"/>
	<path class="st0" d="M51.3,61.6c1.6,0,2.3,0.9,2.3,2.1v0.6c0,0.3-0.1,0.4-0.5,0.4h-3V65c0,0.6,0.4,1,1.1,1c0.6,0,1-0.2,1.2-0.5
		c0.2-0.2,0.3-0.2,0.5-0.1l0.3,0.2c0.2,0.1,0.3,0.3,0.1,0.5c-0.4,0.6-1,1-2.2,1c-1.6,0-2.3-0.9-2.3-2.1v-1.2
		C49,62.3,49.8,61.6,51.3,61.6z M51.3,62.5c-0.8,0-1.2,0.4-1.2,1v0.2h2.3v-0.2C52.5,62.9,52.1,62.5,51.3,62.5z"/>
	<path class="st0" d="M56.5,61.6c0.5,0,0.9,0.1,1.2,0.1v-1.9c0-0.2,0.1-0.3,0.3-0.3h0.5c0.2,0,0.3,0.1,0.3,0.3v6.4
		c0,0.3-0.1,0.4-0.4,0.5c-0.4,0.2-1,0.3-1.9,0.3c-1.5,0-2.2-0.7-2.2-2v-1.4C54.4,62.3,55.1,61.6,56.5,61.6z M56.7,62.6
		c-0.8,0-1.1,0.3-1.1,1.1V65c0,0.6,0.4,1,1.1,1c0.4,0,0.7,0,0.9-0.1c0.1,0,0.1,0,0.1-0.1v-3C57.5,62.7,57.1,62.6,56.7,62.6z"/>
</g>
</svg>
