<?xml version="1.0" encoding="utf-8"?>
<!-- Generator: Adobe Illustrator 22.0.1, SVG Export Plug-In . SVG Version: 6.00 Build 0)  -->
<svg version="1.1" id="Layer_1" xmlns="http://www.w3.org/2000/svg" xmlns:xlink="http://www.w3.org/1999/xlink" x="0px" y="0px"
	 viewBox="0 0 90.1 90.5" style="enable-background:new 0 0 90.1 90.5;" xml:space="preserve">
<metadata><?xpacket begin="﻿" id="W5M0MpCehiHzreSzNTczkc9d"?>
<x:xmpmeta xmlns:x="adobe:ns:meta/" x:xmptk="Adobe XMP Core 5.6-c143 79.161210, 2017/08/11-10:28:36        ">
   <rdf:RDF xmlns:rdf="http://www.w3.org/1999/02/22-rdf-syntax-ns#">
      <rdf:Description rdf:about=""/>
   </rdf:RDF>
</x:xmpmeta>
                                                                                                    
                                                                                                    
                                                                                                    
                                                                                                    
                                                                                                    
                                                                                                    
                                                                                                    
                                                                                                    
                                                                                                    
                                                                                                    
                                                                                                    
                                                                                                    
                                                                                                    
                                                                                                    
                                                                                                    
                                                                                                    
                                                                                                    
                                                                                                    
                                                                                                    
                                                                                                    
                           
<?xpacket end="w"?></metadata>
<style type="text/css">
	.st0{fill:#93C14A;}
	.st1{fill:#FFFFFF;}
</style>
<g>
	<g>
		<g>
			<path class="st0" d="M44.9,88.3C21,88.3,1.6,68.9,1.6,45S21,1.8,44.9,1.8S88.1,21.2,88.1,45S68.7,88.3,44.9,88.3z"/>
		</g>
	</g>
</g>
<g id="Confetti">
</g>
<g id="Sparkler">
</g>
<g>
	<g>
		<path class="st1" d="M16.2,33.4v0.7c1.4,0.2,2.2,0.9,2.8,2.1c0.2,0.4,0.1,0.6-0.3,0.7L18,37.2c-0.3,0.2-0.5,0.1-0.7-0.3
			c-0.4-0.7-0.8-1.2-1.9-1.2c-1.3,0-1.9,0.4-1.9,1.2c0,0.9,1,1.1,2.1,1.2c1.7,0.2,3.7,0.5,3.7,3c0,1.6-1.1,2.8-3,3v0.8
			c0,0.3-0.1,0.5-0.5,0.5H15c-0.3,0-0.5-0.1-0.5-0.5v-0.8c-1.5-0.2-2.5-1.1-3-2.3c-0.1-0.4,0-0.6,0.3-0.7l0.7-0.3
			c0.4-0.1,0.5-0.1,0.7,0.3c0.3,0.8,0.9,1.3,2,1.3c1.4,0,2.1-0.4,2.1-1.3c0-0.9-1-1.1-2.1-1.2c-1.7-0.2-3.7-0.6-3.7-3
			c0-1.6,1-2.7,2.9-3v-0.7c0-0.3,0.1-0.5,0.5-0.5h0.8C16.2,32.7,16.2,33.1,16.2,33.4z"/>
	</g>
</g>
<g>
	<g>
		<path class="st1" d="M27.2,33.4c3.3,0,5.3,2.3,5.3,4.9c0,3.3-1.7,4.5-6.1,6.2c-0.9,0.3-2.2,0.7-2.2,1.7v0.4h7.3
			c0.5,0,0.7,0.2,0.7,0.7v1.1c0,0.5-0.2,0.7-0.7,0.7h-9.4c-0.5,0-0.7-0.2-0.7-0.7v-1.6c0-3,2.2-4,4.3-4.8c2-0.8,4-1.5,4-3.6
			c0-1.3-1-2.4-2.5-2.4s-2.4,0.7-3,1.9c-0.2,0.5-0.4,0.7-1,0.5L22.1,38c-0.5-0.2-0.7-0.4-0.5-0.9C22.4,34.8,24.2,33.4,27.2,33.4z"/>
	</g>
	<g>
		<path class="st1" d="M35.1,51.8h-0.5c-0.4,0-0.5-0.1-0.5-0.5l0.5-4c0.1-0.6,0.3-0.8,0.9-0.8h1c0.7,0,0.9,0.3,0.7,0.8l-1.3,3.9
			C35.8,51.6,35.6,51.8,35.1,51.8z"/>
	</g>
	<g>
		<path class="st1" d="M44.9,33.4c3.7,0,5.7,2,5.7,5.2v5.6c0,3.2-2.1,5.3-5.7,5.3s-5.8-2-5.8-5.3v-5.6
			C39.2,35.4,41.2,33.4,44.9,33.4z M44.9,35.9c-1.9,0-3,1-3,2.7v5.6c0,1.7,1.1,2.7,3,2.7s3-1,3-2.7v-5.6
			C47.9,36.9,46.8,35.9,44.9,35.9z"/>
	</g>
	<g>
		<path class="st1" d="M58.8,33.4c3.7,0,5.7,2,5.7,5.2v5.6c0,3.2-2.1,5.3-5.7,5.3c-3.7,0-5.8-2-5.8-5.3v-5.6
			C52.9,35.4,55.1,33.4,58.8,33.4z M58.8,35.9c-1.9,0-3,1-3,2.7v5.6c0,1.7,1.1,2.7,3,2.7s3-1,3-2.7v-5.6
			C61.8,36.9,60.7,35.9,58.8,35.9z"/>
	</g>
	<g>
		<path class="st1" d="M72.6,33.4c3.7,0,5.7,2,5.7,5.2v5.6c0,3.2-2.1,5.3-5.7,5.3s-5.8-2-5.8-5.3v-5.6
			C66.8,35.4,68.8,33.4,72.6,33.4z M72.6,35.9c-1.9,0-3,1-3,2.7v5.6c0,1.7,1.1,2.7,3,2.7s3-1,3-2.7v-5.6
			C75.6,36.9,74.4,35.9,72.6,35.9z"/>
	</g>
</g>
<g id="Layer_4">
</g>
<g>
	<path class="st1" d="M35.3,60.4c1.2,0,1.8,0.4,2.1,1.1c0.1,0.2,0.1,0.3-0.2,0.5l-0.4,0.2c-0.2,0.1-0.3,0.1-0.4-0.1
		c-0.2-0.3-0.4-0.5-1.1-0.5c-0.6,0-0.9,0.2-0.9,0.5c0,0.5,0.4,0.5,1.2,0.6c1.2,0.1,2,0.4,2,1.6c0,1-0.7,1.7-2.2,1.7
		c-1.2,0-1.9-0.4-2.2-1.2c-0.1-0.2,0-0.3,0.2-0.4l0.4-0.1c0.2-0.1,0.3,0,0.4,0.2c0.2,0.4,0.5,0.5,1.1,0.5c0.7,0,1.1-0.2,1.1-0.6
		c0-0.5-0.4-0.6-1.2-0.6c-1-0.1-2-0.3-2-1.6C33.2,61.1,33.9,60.4,35.3,60.4z"/>
	<path class="st1" d="M40.4,60.4c1.6,0,2.1,0.9,2.1,2.1V65c0,0.3-0.1,0.5-0.4,0.6c-0.4,0.2-1,0.3-1.8,0.3c-1.8,0-2.2-0.6-2.2-1.6
		c0-1.2,0.7-1.6,2.3-1.6c0.4,0,0.8,0,1,0v-0.3c0-0.6-0.2-1-1-1c-0.5,0-0.8,0.2-1,0.5c-0.1,0.2-0.2,0.2-0.4,0.2l-0.4-0.2
		c-0.2-0.1-0.3-0.2-0.2-0.5C38.7,60.8,39.4,60.4,40.4,60.4z M40.3,63.6c-0.8,0-1,0.2-1,0.6c0,0.4,0.2,0.7,0.9,0.7c0.5,0,0.8,0,1-0.1
		c0.1,0,0.1,0,0.1-0.1v-1C41.2,63.6,40.7,63.6,40.3,63.6z"/>
	<path class="st1" d="M48,60.9l-1.8,4.6c-0.1,0.2-0.2,0.3-0.4,0.3h-0.3c-0.2,0-0.3-0.1-0.4-0.3l-1.8-4.5c-0.1-0.3-0.1-0.4,0.2-0.4
		h0.4c0.4,0,0.5,0.1,0.5,0.3l0.9,2.4c0.2,0.5,0.3,1,0.3,1.1h0.1c0,0,0.1-0.6,0.3-1.1l0.9-2.4c0.1-0.2,0.2-0.3,0.6-0.3h0.4
		C48,60.6,48.1,60.6,48,60.9z"/>
	<path class="st1" d="M50.7,60.4c1.6,0,2.3,0.9,2.3,2.1v0.6c0,0.3-0.1,0.4-0.4,0.4h-3v0.4c0,0.6,0.4,1,1.1,1c0.6,0,1-0.2,1.2-0.5
		c0.2-0.2,0.3-0.2,0.5-0.1l0.3,0.2c0.2,0.1,0.3,0.3,0.1,0.5c-0.4,0.6-1,1-2.2,1c-1.6,0-2.3-0.9-2.3-2.1v-1.2
		C48.4,61.2,49.2,60.4,50.7,60.4z M50.7,61.4c-0.8,0-1.2,0.4-1.2,1v0.2h2.3v-0.2C51.8,61.8,51.4,61.4,50.7,61.4z"/>
	<path class="st1" d="M55.8,60.4c0.5,0,0.9,0.1,1.2,0.1v-1.9c0-0.2,0.1-0.3,0.3-0.3h0.6c0.2,0,0.3,0.1,0.3,0.3V65
		c0,0.3-0.1,0.4-0.4,0.5c-0.4,0.2-1,0.3-1.9,0.3c-1.5,0-2.2-0.7-2.2-2v-1.4C53.7,61.1,54.4,60.4,55.8,60.4z M56.1,61.5
		c-0.8,0-1.1,0.3-1.1,1.1v1.3c0,0.6,0.4,1,1.1,1c0.4,0,0.7,0,0.9-0.1c0.1,0,0.1,0,0.1-0.1v-3C56.8,61.5,56.5,61.5,56.1,61.5z"/>
</g>
</svg>
