<?xml version="1.0" encoding="utf-8"?>
<!-- Generator: Adobe Illustrator 22.0.1, SVG Export Plug-In . SVG Version: 6.00 Build 0)  -->
<svg version="1.1" id="Layer_1" xmlns="http://www.w3.org/2000/svg" xmlns:xlink="http://www.w3.org/1999/xlink" x="0px" y="0px"
	 viewBox="0 0 91.4 91.8" style="enable-background:new 0 0 91.4 91.8;" xml:space="preserve">
<metadata><?xpacket begin="﻿" id="W5M0MpCehiHzreSzNTczkc9d"?>
<x:xmpmeta xmlns:x="adobe:ns:meta/" x:xmptk="Adobe XMP Core 5.6-c143 79.161210, 2017/08/11-10:28:36        ">
   <rdf:RDF xmlns:rdf="http://www.w3.org/1999/02/22-rdf-syntax-ns#">
      <rdf:Description rdf:about=""/>
   </rdf:RDF>
</x:xmpmeta>
                                                                                                    
                                                                                                    
                                                                                                    
                                                                                                    
                                                                                                    
                                                                                                    
                                                                                                    
                                                                                                    
                                                                                                    
                                                                                                    
                                                                                                    
                                                                                                    
                                                                                                    
                                                                                                    
                                                                                                    
                                                                                                    
                                                                                                    
                                                                                                    
                                                                                                    
                                                                                                    
                           
<?xpacket end="w"?></metadata>
<style type="text/css">
	.st0{fill:#93C14A;}
	.st1{fill:#94C24A;}
</style>
<g>
	<g>
		<g>
			<g>
				<path class="st0" d="M45.6,89.4C21.8,89.4,2.4,70,2.4,46.1S21.8,2.8,45.6,2.8s43.3,19.4,43.3,43.3S69.5,89.4,45.6,89.4z
					 M45.6,4.6C22.8,4.6,4.2,23.2,4.2,46.1s18.6,41.5,41.5,41.5s41.5-18.6,41.5-41.5S68.5,4.6,45.6,4.6z"/>
			</g>
		</g>
	</g>
	<g>
		<path class="st0" d="M36,61.4c1.2,0,1.8,0.4,2.1,1.1c0.1,0.2,0.1,0.3-0.2,0.5l-0.5,0.2c-0.2,0.1-0.3,0.1-0.4-0.1
			c-0.2-0.3-0.4-0.5-1.1-0.5c-0.6,0-0.9,0.2-0.9,0.5c0,0.5,0.4,0.5,1.2,0.6c1.2,0.1,2,0.4,2,1.6c0,1-0.7,1.7-2.2,1.7
			c-1.2,0-1.9-0.4-2.2-1.2c-0.1-0.2,0-0.3,0.2-0.4l0.4-0.1c0.2-0.1,0.3,0,0.4,0.2c0.2,0.4,0.5,0.5,1.1,0.5c0.7,0,1.1-0.2,1.1-0.6
			c0-0.5-0.4-0.6-1.2-0.6c-1-0.1-2-0.3-2-1.6C34,62.1,34.7,61.4,36,61.4z"/>
		<path class="st0" d="M41.2,61.4c1.6,0,2.1,0.9,2.1,2.1v2.6c0,0.3-0.1,0.5-0.4,0.6c-0.4,0.2-1,0.3-1.8,0.3c-1.8,0-2.2-0.6-2.2-1.6
			c0-1.2,0.7-1.6,2.3-1.6c0.4,0,0.8,0,1,0v-0.3c0-0.6-0.2-1-1-1c-0.5,0-0.8,0.2-1,0.5c-0.1,0.2-0.2,0.2-0.4,0.2l-0.4-0.2
			c-0.2-0.1-0.3-0.2-0.2-0.5C39.5,61.8,40.2,61.4,41.2,61.4z M41.1,64.6c-0.8,0-1,0.2-1,0.6c0,0.4,0.2,0.7,0.9,0.7
			c0.5,0,0.8,0,1-0.1c0.1,0,0.1,0,0.1-0.1v-1C42,64.7,41.5,64.6,41.1,64.6z"/>
		<path class="st0" d="M48.7,61.9l-1.8,4.6c-0.1,0.2-0.2,0.3-0.4,0.3h-0.3c-0.2,0-0.3-0.1-0.4-0.3L43.9,62c-0.1-0.3-0.1-0.4,0.2-0.4
			h0.4c0.4,0,0.5,0.1,0.5,0.3l0.9,2.4c0.2,0.5,0.3,1,0.3,1.1h0c0,0,0.1-0.6,0.3-1.1l0.9-2.4c0.1-0.2,0.2-0.3,0.6-0.3h0.4
			C48.8,61.6,48.9,61.7,48.7,61.9z"/>
		<path class="st0" d="M51.5,61.4c1.6,0,2.3,0.9,2.3,2.1v0.6c0,0.3-0.1,0.4-0.5,0.4h-3v0.4c0,0.6,0.4,1,1.1,1c0.6,0,1-0.2,1.2-0.5
			c0.2-0.2,0.3-0.2,0.5-0.1l0.3,0.2c0.2,0.1,0.3,0.3,0.1,0.5c-0.4,0.6-1,1-2.2,1c-1.6,0-2.3-0.9-2.3-2.1v-1.2
			C49.2,62.2,50,61.4,51.5,61.4z M51.5,62.4c-0.8,0-1.2,0.4-1.2,1v0.2h2.3v-0.2C52.6,62.8,52.2,62.4,51.5,62.4z"/>
		<path class="st0" d="M56.6,61.4c0.5,0,0.9,0.1,1.2,0.1v-1.9c0-0.2,0.1-0.3,0.3-0.3h0.5c0.2,0,0.3,0.1,0.3,0.3V66
			c0,0.3-0.1,0.4-0.4,0.5c-0.4,0.2-1,0.3-1.9,0.3c-1.5,0-2.2-0.7-2.2-2v-1.4C54.5,62.2,55.2,61.4,56.6,61.4z M56.8,62.5
			c-0.8,0-1.1,0.3-1.1,1.1v1.3c0,0.6,0.4,1,1.1,1c0.4,0,0.7,0,0.9-0.1c0.1,0,0.1,0,0.1-0.1v-3C57.6,62.6,57.2,62.5,56.8,62.5z"/>
	</g>
</g>
<g id="Confetti">
</g>
<g id="Sparkler">
</g>
<g>
	<g>
		<path class="st1" d="M16.9,34.1v0.7c1.4,0.2,2.2,0.9,2.8,2.1c0.2,0.4,0.1,0.6-0.3,0.7l-0.7,0.3c-0.3,0.2-0.5,0.1-0.7-0.3
			c-0.4-0.7-0.8-1.2-1.9-1.2c-1.3,0-1.9,0.4-1.9,1.2c0,0.9,1,1.1,2.1,1.2c1.7,0.2,3.7,0.5,3.7,3c0,1.6-1.1,2.8-3,3v0.8
			c0,0.3-0.1,0.5-0.5,0.5h-0.8c-0.3,0-0.5-0.1-0.5-0.5V45c-1.5-0.2-2.5-1.1-3-2.3c-0.1-0.4,0-0.6,0.3-0.7l0.7-0.3
			c0.4-0.1,0.5-0.1,0.7,0.3c0.3,0.8,0.9,1.3,2,1.3c1.4,0,2.1-0.4,2.1-1.3c0-0.9-1-1.1-2.1-1.2c-1.7-0.2-3.7-0.6-3.7-3
			c0-1.6,1-2.7,2.9-3v-0.7c0-0.3,0.1-0.5,0.5-0.5h0.8C16.8,33.6,16.9,33.7,16.9,34.1z"/>
	</g>
</g>
<g>
	<g>
		<path class="st1" d="M27.1,34c3.3,0,5.3,2.3,5.3,4.9c0,3.3-1.7,4.5-6.1,6.2c-0.9,0.3-2.2,0.7-2.2,1.7v0.4h7.3
			c0.5,0,0.7,0.2,0.7,0.7V49c0,0.5-0.2,0.7-0.7,0.7H22c-0.5,0-0.7-0.2-0.7-0.7v-1.6c0-3,2.2-4,4.3-4.8c2-0.8,4-1.5,4-3.6
			c0-1.3-1-2.4-2.5-2.4s-2.4,0.7-3,1.9c-0.2,0.5-0.4,0.7-1,0.5l-1.2-0.4c-0.5-0.2-0.7-0.4-0.5-0.9C22.3,35.4,24,34,27.1,34z"/>
	</g>
	<g>
		<path class="st1" d="M34.9,52.4h-0.5c-0.4,0-0.5-0.1-0.5-0.5l0.5-4c0.1-0.6,0.3-0.8,0.9-0.8h1c0.7,0,0.9,0.3,0.7,0.8l-1.3,3.9
			C35.5,52.2,35.4,52.4,34.9,52.4z"/>
	</g>
	<g>
		<path class="st1" d="M44.8,34c3.7,0,5.7,2,5.7,5.2v5.6c0,3.2-2.1,5.3-5.7,5.3c-3.7,0-5.8-2-5.8-5.3v-5.6C39,36.1,41.1,34,44.8,34z
			 M44.8,36.6c-1.9,0-3,1-3,2.7v5.6c0,1.7,1.1,2.7,3,2.7s3-1,3-2.7v-5.6C47.8,37.5,46.7,36.6,44.8,36.6z"/>
	</g>
	<g>
		<path class="st1" d="M58.5,34c3.7,0,5.7,2,5.7,5.2v5.6c0,3.2-2.1,5.3-5.7,5.3c-3.7,0-5.8-2-5.8-5.3v-5.6
			C52.8,36.1,54.9,34,58.5,34z M58.5,36.6c-1.9,0-3,1-3,2.7v5.6c0,1.7,1.1,2.7,3,2.7s3-1,3-2.7v-5.6C61.6,37.5,60.5,36.6,58.5,36.6z
			"/>
	</g>
	<g>
		<path class="st1" d="M72.3,34c3.7,0,5.7,2,5.7,5.2v5.6c0,3.2-2.1,5.3-5.7,5.3c-3.7,0-5.8-2-5.8-5.3v-5.6
			C66.6,36.1,68.7,34,72.3,34z M72.3,36.6c-1.9,0-3,1-3,2.7v5.6c0,1.7,1.1,2.7,3,2.7s3-1,3-2.7v-5.6C75.4,37.5,74.3,36.6,72.3,36.6z
			"/>
	</g>
</g>
</svg>
