<?xml version="1.0" encoding="utf-8"?>
<!-- Generator: Adobe Illustrator 22.0.1, SVG Export Plug-In . SVG Version: 6.00 Build 0)  -->
<svg version="1.1" id="Layer_1" xmlns="http://www.w3.org/2000/svg" xmlns:xlink="http://www.w3.org/1999/xlink" x="0px" y="0px"
	 viewBox="0 0 91.4 91.8" style="enable-background:new 0 0 91.4 91.8;" xml:space="preserve">
<metadata><?xpacket begin="﻿" id="W5M0MpCehiHzreSzNTczkc9d"?>
<x:xmpmeta xmlns:x="adobe:ns:meta/" x:xmptk="Adobe XMP Core 5.6-c143 79.161210, 2017/08/11-10:28:36        ">
   <rdf:RDF xmlns:rdf="http://www.w3.org/1999/02/22-rdf-syntax-ns#">
      <rdf:Description rdf:about=""/>
   </rdf:RDF>
</x:xmpmeta>
                                                                                                    
                                                                                                    
                                                                                                    
                                                                                                    
                                                                                                    
                                                                                                    
                                                                                                    
                                                                                                    
                                                                                                    
                                                                                                    
                                                                                                    
                                                                                                    
                                                                                                    
                                                                                                    
                                                                                                    
                                                                                                    
                                                                                                    
                                                                                                    
                                                                                                    
                                                                                                    
                           
<?xpacket end="w"?></metadata>
<style type="text/css">
	.st0{fill:#93C14A;}
	.st1{fill:#FFFFFF;}
</style>
<g>
	<g>
		<g>
			<path class="st0" d="M45.6,89.1c-23.9,0-43.3-19.4-43.3-43.3S21.7,2.6,45.6,2.6S88.8,22,88.8,45.8S69.4,89.1,45.6,89.1z"/>
		</g>
	</g>
</g>
<g>
	<g>
		<path class="st1" d="M16,33.6v0.8c1.5,0.2,2.3,1,2.9,2.2c0.2,0.4,0.1,0.6-0.3,0.8l-0.8,0.3c-0.4,0.2-0.5,0.1-0.7-0.3
			c-0.4-0.8-0.9-1.2-2-1.2c-1.3,0-2,0.4-2,1.3c0,0.9,1,1.1,2.2,1.2c1.8,0.2,3.9,0.5,3.9,3.1c0,1.7-1.1,2.9-3.2,3.2v0.8
			c0,0.4-0.1,0.5-0.5,0.5h-0.9c-0.4,0-0.5-0.1-0.5-0.5v-0.8c-1.6-0.2-2.7-1.1-3.2-2.4c-0.1-0.4,0-0.6,0.4-0.7l0.8-0.3
			c0.4-0.1,0.6-0.1,0.7,0.3c0.3,0.9,1,1.3,2.1,1.3c1.4,0,2.2-0.4,2.2-1.4c0-1-1-1.2-2.3-1.3c-1.8-0.2-3.9-0.6-3.9-3.1
			c0-1.7,1-2.9,3.1-3.1v-0.8c0-0.4,0.1-0.5,0.5-0.5h0.9C15.9,33.1,16,33.3,16,33.6z"/>
	</g>
	<g>
		<path class="st1" d="M26.7,33.6c3.5,0,5.6,2.4,5.6,5.1c0,3.4-1.8,4.8-6.4,6.6c-1,0.4-2.3,0.8-2.3,1.8v0.4h7.7
			c0.6,0,0.8,0.2,0.8,0.8v1.1c0,0.6-0.2,0.8-0.8,0.8h-9.9c-0.6,0-0.8-0.2-0.8-0.8v-1.7c0-3.1,2.3-4.2,4.5-5.1
			c2.1-0.8,4.2-1.5,4.2-3.8c0-1.4-1.1-2.6-2.7-2.6c-1.6,0-2.6,0.7-3.2,2c-0.3,0.6-0.5,0.7-1,0.5l-1.2-0.5c-0.6-0.2-0.7-0.5-0.5-1
			C21.6,35.1,23.4,33.6,26.7,33.6z"/>
		<path class="st1" d="M34.9,53h-0.5c-0.4,0-0.5-0.1-0.5-0.5l0.6-4.3c0.1-0.6,0.3-0.8,0.9-0.8h1c0.7,0,0.9,0.3,0.7,0.8l-1.4,4.1
			C35.5,52.8,35.4,53,34.9,53z"/>
		<path class="st1" d="M50.4,34.7v1.1c0,0.6-0.2,0.8-0.8,0.8h-6.6L42.7,40h2.8c3.8,0,5.6,2.3,5.6,5.2c0,2.9-2.1,5.4-5.8,5.4
			c-3.4,0-5.3-1.3-6.2-3.7c-0.2-0.6-0.1-0.8,0.5-1l1.3-0.4c0.6-0.2,0.8-0.1,1,0.5c0.5,1.3,1.5,2,3.5,2c1.6,0,2.8-1,2.8-2.7
			c0-1.5-1.1-2.5-2.7-2.5h-4.8c-0.7,0-0.9-0.3-0.8-0.9l0.7-6.7c0.1-0.8,0.4-1.1,1.3-1.1h8C50.2,33.9,50.4,34.1,50.4,34.7z"/>
		<path class="st1" d="M59.2,33.6c3.9,0,6.1,2.2,6.1,5.5V45c0,3.4-2.2,5.6-6.1,5.6s-6.1-2.2-6.1-5.6v-5.9
			C53.1,35.8,55.4,33.6,59.2,33.6z M59.2,36.3c-2,0-3.2,1-3.2,2.8V45c0,1.8,1.2,2.9,3.2,2.9s3.2-1.1,3.2-2.9v-5.9
			C62.4,37.3,61.2,36.3,59.2,36.3z"/>
		<path class="st1" d="M73.8,33.6c3.9,0,6.1,2.2,6.1,5.5V45c0,3.4-2.2,5.6-6.1,5.6s-6.1-2.2-6.1-5.6v-5.9
			C67.7,35.8,69.9,33.6,73.8,33.6z M73.8,36.3c-2,0-3.2,1-3.2,2.8V45c0,1.8,1.2,2.9,3.2,2.9s3.2-1.1,3.2-2.9v-5.9
			C76.9,37.3,75.8,36.3,73.8,36.3z"/>
	</g>
</g>
<g>
	<path class="st1" d="M35,61.2c1.2,0,1.8,0.4,2.1,1.1c0.1,0.2,0.1,0.3-0.2,0.5l-0.5,0.2c-0.2,0.1-0.3,0.1-0.4-0.1
		c-0.2-0.3-0.4-0.5-1.1-0.5c-0.7,0-0.9,0.2-0.9,0.5c0,0.5,0.4,0.5,1.2,0.6c1.2,0.1,2,0.4,2,1.6c0,1-0.7,1.7-2.2,1.7
		c-1.2,0-1.9-0.4-2.2-1.2c-0.1-0.2,0-0.3,0.2-0.4l0.4-0.1c0.2-0.1,0.3,0,0.4,0.2c0.2,0.4,0.5,0.5,1.1,0.5c0.7,0,1.1-0.2,1.1-0.6
		c0-0.5-0.4-0.6-1.2-0.6c-1-0.1-2-0.3-2-1.6C32.9,61.9,33.6,61.2,35,61.2z"/>
	<path class="st1" d="M40.1,61.2c1.6,0,2.1,0.9,2.1,2.1v2.6c0,0.3-0.1,0.5-0.4,0.6c-0.4,0.2-1,0.3-1.8,0.3c-1.8,0-2.2-0.6-2.2-1.6
		c0-1.2,0.7-1.6,2.3-1.6c0.4,0,0.8,0,1,0v-0.3c0-0.6-0.2-1-1-1c-0.5,0-0.8,0.2-1.1,0.5c-0.1,0.2-0.2,0.2-0.4,0.2l-0.4-0.2
		c-0.2-0.1-0.3-0.2-0.2-0.5C38.4,61.6,39.1,61.2,40.1,61.2z M40,64.4c-0.8,0-1,0.2-1,0.6c0,0.4,0.2,0.7,0.9,0.7c0.5,0,0.8,0,1-0.1
		c0.1,0,0.1,0,0.1-0.1v-1C40.9,64.4,40.4,64.4,40,64.4z"/>
	<path class="st1" d="M47.7,61.7l-1.8,4.6c-0.1,0.2-0.2,0.3-0.4,0.3h-0.3c-0.2,0-0.3-0.1-0.4-0.3l-1.8-4.5c-0.1-0.3-0.1-0.4,0.2-0.4
		h0.4c0.4,0,0.5,0.1,0.5,0.3l0.9,2.4c0.2,0.5,0.3,1,0.3,1.1h0c0,0,0.1-0.6,0.3-1.1l0.9-2.4c0.1-0.2,0.2-0.3,0.6-0.3h0.4
		C47.7,61.3,47.8,61.4,47.7,61.7z"/>
	<path class="st1" d="M50.4,61.2c1.6,0,2.3,0.9,2.3,2.1v0.6c0,0.3-0.1,0.4-0.5,0.4h-3v0.4c0,0.6,0.4,1,1.1,1c0.6,0,1-0.2,1.2-0.5
		c0.2-0.2,0.3-0.2,0.5-0.1l0.3,0.2c0.2,0.1,0.3,0.3,0.1,0.5c-0.4,0.6-1,1-2.2,1c-1.6,0-2.3-0.9-2.3-2.1v-1.2
		C48.1,62,48.9,61.2,50.4,61.2z M50.4,62.2c-0.8,0-1.2,0.4-1.2,1v0.2h2.3v-0.2C51.5,62.5,51.1,62.2,50.4,62.2z"/>
	<path class="st1" d="M55.5,61.2c0.5,0,0.9,0.1,1.2,0.1v-1.9c0-0.2,0.1-0.3,0.3-0.3h0.5c0.2,0,0.3,0.1,0.3,0.3v6.4
		c0,0.3-0.1,0.4-0.4,0.5c-0.4,0.2-1,0.3-1.9,0.3c-1.5,0-2.2-0.7-2.2-2v-1.4C53.5,61.9,54.2,61.2,55.5,61.2z M55.8,62.3
		c-0.8,0-1.2,0.3-1.2,1.1v1.3c0,0.6,0.4,1,1.1,1c0.4,0,0.7,0,0.9-0.1c0.1,0,0.1,0,0.1-0.1v-3C56.5,62.3,56.2,62.3,55.8,62.3z"/>
</g>
<g id="Confetti">
</g>
<g id="Sparkler">
</g>
</svg>
