<?xml version="1.0" encoding="utf-8"?>
<!-- Generator: Adobe Illustrator 22.0.1, SVG Export Plug-In . SVG Version: 6.00 Build 0)  -->
<svg version="1.1" id="Layer_1" xmlns="http://www.w3.org/2000/svg" xmlns:xlink="http://www.w3.org/1999/xlink" x="0px" y="0px"
	 viewBox="0 0 89.9 90.2" style="enable-background:new 0 0 89.9 90.2;" xml:space="preserve">
<metadata><?xpacket begin="﻿" id="W5M0MpCehiHzreSzNTczkc9d"?>
<x:xmpmeta xmlns:x="adobe:ns:meta/" x:xmptk="Adobe XMP Core 5.6-c143 79.161210, 2017/08/11-10:28:36        ">
   <rdf:RDF xmlns:rdf="http://www.w3.org/1999/02/22-rdf-syntax-ns#">
      <rdf:Description rdf:about=""/>
   </rdf:RDF>
</x:xmpmeta>
                                                                                                    
                                                                                                    
                                                                                                    
                                                                                                    
                                                                                                    
                                                                                                    
                                                                                                    
                                                                                                    
                                                                                                    
                                                                                                    
                                                                                                    
                                                                                                    
                                                                                                    
                                                                                                    
                                                                                                    
                                                                                                    
                                                                                                    
                                                                                                    
                                                                                                    
                                                                                                    
                           
<?xpacket end="w"?></metadata>
<style type="text/css">
	.st0{fill:#93C14A;}
	.st1{fill:#FFFFFF;}
</style>
<g>
	<g>
		<g>
			<path class="st0" d="M44.9,88.2C21,88.2,1.6,68.8,1.6,45S21,1.7,44.9,1.7S88.2,21.1,88.2,45S68.8,88.2,44.9,88.2z"/>
		</g>
	</g>
</g>
<g>
	<path class="st1" d="M35.3,60.3c1.2,0,1.8,0.4,2.1,1.1c0.1,0.2,0.1,0.3-0.2,0.5L36.8,62c-0.2,0.1-0.3,0.1-0.4-0.1
		c-0.2-0.3-0.4-0.5-1.1-0.5c-0.6,0-0.9,0.2-0.9,0.5c0,0.5,0.4,0.5,1.2,0.6c1.2,0.1,2,0.4,2,1.6c0,1-0.7,1.7-2.2,1.7
		c-1.2,0-1.9-0.4-2.2-1.2c-0.1-0.2,0-0.3,0.2-0.4l0.4-0.1c0.2-0.1,0.3,0,0.4,0.2c0.2,0.4,0.5,0.5,1.1,0.5c0.7,0,1.1-0.2,1.1-0.6
		c0-0.5-0.4-0.6-1.2-0.6c-1-0.1-2-0.3-2-1.6C33.2,61,33.9,60.3,35.3,60.3z"/>
	<path class="st1" d="M40.5,60.3c1.6,0,2.1,0.9,2.1,2.1V65c0,0.3-0.1,0.5-0.4,0.6c-0.4,0.2-1,0.3-1.8,0.3c-1.8,0-2.2-0.6-2.2-1.6
		c0-1.2,0.7-1.6,2.3-1.6c0.4,0,0.8,0,1,0v-0.3c0-0.6-0.2-1-1-1c-0.5,0-0.8,0.2-1,0.5C39.2,62,39.2,62.1,39,62l-0.4-0.2
		c-0.2-0.1-0.3-0.2-0.2-0.5C38.7,60.7,39.4,60.3,40.5,60.3z M40.3,63.5c-0.8,0-1,0.2-1,0.6c0,0.4,0.2,0.7,0.9,0.7c0.5,0,0.8,0,1-0.1
		c0.1,0,0.1,0,0.1-0.1v-1C41.2,63.6,40.7,63.5,40.3,63.5z"/>
	<path class="st1" d="M48,60.8l-1.8,4.6c-0.1,0.2-0.2,0.3-0.4,0.3h-0.3c-0.2,0-0.3-0.1-0.4-0.3l-1.8-4.5c-0.1-0.3-0.1-0.4,0.2-0.4
		h0.4c0.4,0,0.5,0.1,0.5,0.3l0.9,2.4c0.2,0.5,0.3,1,0.3,1.1h0.1c0,0,0.1-0.6,0.3-1.1l0.9-2.4c0.1-0.2,0.2-0.3,0.6-0.3h0.4
		C48,60.5,48.1,60.5,48,60.8z"/>
	<path class="st1" d="M50.7,60.3c1.6,0,2.3,0.9,2.3,2.1V63c0,0.3-0.1,0.4-0.4,0.4h-3v0.4c0,0.6,0.4,1,1.1,1c0.6,0,1-0.2,1.2-0.5
		c0.2-0.2,0.3-0.2,0.5-0.1l0.3,0.2c0.2,0.1,0.3,0.3,0.1,0.5c-0.4,0.6-1,1-2.2,1c-1.6,0-2.3-0.9-2.3-2.1v-1.2
		C48.4,61.1,49.2,60.3,50.7,60.3z M50.7,61.3c-0.8,0-1.2,0.4-1.2,1v0.2h2.3v-0.2C51.9,61.7,51.5,61.3,50.7,61.3z"/>
	<path class="st1" d="M55.9,60.3c0.5,0,0.9,0.1,1.2,0.1v-1.9c0-0.2,0.1-0.3,0.3-0.3h0.6c0.2,0,0.3,0.1,0.3,0.3v6.4
		c0,0.3-0.1,0.4-0.4,0.5c-0.4,0.2-1,0.3-1.9,0.3c-1.5,0-2.2-0.7-2.2-2v-1.4C53.8,61.1,54.5,60.3,55.9,60.3z M56.1,61.4
		c-0.8,0-1.1,0.3-1.1,1.1v1.3c0,0.6,0.4,1,1.1,1c0.4,0,0.7,0,0.9-0.1c0.1,0,0.1,0,0.1-0.1v-3C56.8,61.5,56.5,61.4,56.1,61.4z"/>
</g>
<g id="Confetti">
</g>
<g id="Sparkler">
</g>
<g>
	<g>
		<path class="st1" d="M15.7,33.2v0.7c1.4,0.2,2.2,0.9,2.8,2.1c0.2,0.4,0.1,0.6-0.3,0.7L17.5,37c-0.3,0.2-0.5,0.1-0.7-0.3
			c-0.4-0.7-0.8-1.2-1.9-1.2c-1.3,0-1.9,0.4-1.9,1.2c0,0.9,1,1.1,2.1,1.2c1.7,0.2,3.7,0.5,3.7,3c0,1.6-1.1,2.8-3,3v0.8
			c0,0.3-0.1,0.5-0.5,0.5h-0.8c-0.3,0-0.5-0.1-0.5-0.5v-0.8c-1.5-0.2-2.5-1.1-3-2.3c-0.1-0.4,0-0.6,0.3-0.7l0.7-0.3
			c0.4-0.1,0.5-0.1,0.7,0.3c0.3,0.8,0.9,1.3,2,1.3c1.4,0,2.1-0.4,2.1-1.3c0-0.9-1-1.1-2.1-1.2c-1.7-0.2-3.7-0.6-3.7-3
			c0-1.6,1-2.7,2.9-3V33c0-0.3,0.1-0.5,0.5-0.5h0.8C15.7,32.5,15.7,32.9,15.7,33.2z"/>
	</g>
</g>
<g>
	<g>
		<path class="st1" d="M30,40.9c1.5,0.7,2.2,2.1,2.2,3.7c0,2.8-1.8,4.7-5.6,4.7c-3.3,0-5.1-1.3-5.9-3.7c-0.2-0.5,0-0.8,0.5-1
			l1.2-0.4c0.5-0.2,0.7-0.1,1,0.5c0.5,1.3,1.2,2,3.3,2c1.9,0,2.7-0.8,2.7-2.2s-0.8-2.2-2.3-2.2h-2.3c-0.6,0-0.7-0.2-0.7-0.7v-1
			c0-0.6,0.2-0.7,0.7-0.7h1.9c1.4,0,2.3-0.8,2.3-2c0-1.4-0.8-2.1-2.4-2.1c-2,0-2.6,0.7-3.1,2c-0.2,0.5-0.4,0.6-1,0.5l-1.2-0.4
			c-0.5-0.2-0.7-0.4-0.5-1c0.8-2.3,2.5-3.6,5.7-3.6c3.3,0,5.1,1.7,5.1,4.4C31.7,39,31.1,40.2,30,40.9z"/>
	</g>
	<g>
		<path class="st1" d="M34.7,51.6h-0.5c-0.4,0-0.5-0.1-0.5-0.5l0.5-4c0.1-0.6,0.3-0.8,0.9-0.8h1c0.7,0,0.9,0.3,0.7,0.8L35.5,51
			C35.3,51.4,35.2,51.6,34.7,51.6z"/>
	</g>
	<g>
		<path class="st1" d="M44.5,33.2c3.7,0,5.7,2,5.7,5.2V44c0,3.2-2.1,5.3-5.7,5.3c-3.7,0-5.8-2-5.8-5.3v-5.6
			C38.8,35.2,40.9,33.2,44.5,33.2z M44.5,35.7c-1.9,0-3,1-3,2.7V44c0,1.7,1.1,2.7,3,2.7s3-1,3-2.7v-5.6
			C47.5,36.7,46.4,35.7,44.5,35.7z"/>
	</g>
	<g>
		<path class="st1" d="M58.3,33.2c3.7,0,5.7,2,5.7,5.2V44c0,3.2-2.1,5.3-5.7,5.3c-3.7,0-5.8-2-5.8-5.3v-5.6
			C52.6,35.2,54.7,33.2,58.3,33.2z M58.3,35.7c-1.9,0-3,1-3,2.7V44c0,1.7,1.1,2.7,3,2.7s3-1,3-2.7v-5.6
			C61.3,36.7,60.2,35.7,58.3,35.7z"/>
	</g>
	<g>
		<path class="st1" d="M72.1,33.2c3.7,0,5.7,2,5.7,5.2V44c0,3.2-2.1,5.3-5.7,5.3c-3.7,0-5.8-2-5.8-5.3v-5.6
			C66.4,35.2,68.5,33.2,72.1,33.2z M72.1,35.7c-1.9,0-3,1-3,2.7V44c0,1.7,1.1,2.7,3,2.7s3-1,3-2.7v-5.6C75.1,36.7,74,35.7,72.1,35.7
			z"/>
	</g>
</g>
<g id="Layer_4">
</g>
</svg>
