<?xml version="1.0" encoding="utf-8"?>
<!-- Generator: Adobe Illustrator 22.0.1, SVG Export Plug-In . SVG Version: 6.00 Build 0)  -->
<svg version="1.1" id="Layer_1" xmlns="http://www.w3.org/2000/svg" xmlns:xlink="http://www.w3.org/1999/xlink" x="0px" y="0px"
	 viewBox="0 0 91.1 91" style="enable-background:new 0 0 91.1 91;" xml:space="preserve">
<metadata><?xpacket begin="﻿" id="W5M0MpCehiHzreSzNTczkc9d"?>
<x:xmpmeta xmlns:x="adobe:ns:meta/" x:xmptk="Adobe XMP Core 5.6-c143 79.161210, 2017/08/11-10:28:36        ">
   <rdf:RDF xmlns:rdf="http://www.w3.org/1999/02/22-rdf-syntax-ns#">
      <rdf:Description rdf:about=""/>
   </rdf:RDF>
</x:xmpmeta>
                                                                                                    
                                                                                                    
                                                                                                    
                                                                                                    
                                                                                                    
                                                                                                    
                                                                                                    
                                                                                                    
                                                                                                    
                                                                                                    
                                                                                                    
                                                                                                    
                                                                                                    
                                                                                                    
                                                                                                    
                                                                                                    
                                                                                                    
                                                                                                    
                                                                                                    
                                                                                                    
                           
<?xpacket end="w"?></metadata>
<style type="text/css">
	.st0{fill:#93C14A;}
	.st1{fill:#94C24A;}
</style>
<g>
	<g>
		<g>
			<g>
				<path class="st0" d="M45.6,88.7c-23.9,0-43.3-19.4-43.3-43.3S21.7,2.1,45.6,2.1s43.3,19.4,43.3,43.3S69.4,88.7,45.6,88.7z
					 M45.6,3.9C22.7,3.9,4.1,22.5,4.1,45.4s18.6,41.5,41.5,41.5S87,68.2,87,45.4S68.4,3.9,45.6,3.9z"/>
			</g>
		</g>
	</g>
	<g>
		<path class="st0" d="M36,60.7c1.2,0,1.8,0.4,2.1,1.1c0.1,0.2,0.1,0.3-0.2,0.5l-0.5,0.2c-0.2,0.1-0.3,0.1-0.4-0.1
			c-0.2-0.3-0.4-0.5-1.1-0.5c-0.6,0-0.9,0.2-0.9,0.5c0,0.5,0.4,0.5,1.2,0.6c1.2,0.1,2,0.4,2,1.6c0,1-0.7,1.7-2.2,1.7
			c-1.2,0-1.9-0.4-2.2-1.2c-0.1-0.2,0-0.3,0.2-0.4l0.4-0.1c0.2-0.1,0.3,0,0.4,0.2c0.2,0.4,0.5,0.5,1.1,0.5c0.7,0,1.1-0.2,1.1-0.6
			c0-0.5-0.4-0.6-1.2-0.6c-1-0.1-2-0.3-2-1.6C33.9,61.4,34.6,60.7,36,60.7z"/>
		<path class="st0" d="M41.1,60.7c1.6,0,2.1,0.9,2.1,2.1v2.6c0,0.3-0.1,0.5-0.4,0.6c-0.4,0.2-1,0.3-1.8,0.3c-1.8,0-2.2-0.6-2.2-1.6
			c0-1.2,0.7-1.6,2.3-1.6c0.4,0,0.8,0,1,0v-0.3c0-0.6-0.2-1-1-1c-0.5,0-0.8,0.2-1,0.5c-0.1,0.2-0.2,0.2-0.4,0.2l-0.4-0.2
			C39,62.1,38.9,62,39,61.8C39.4,61.1,40.1,60.7,41.1,60.7z M41,63.9c-0.8,0-1,0.2-1,0.6c0,0.4,0.2,0.7,0.9,0.7c0.5,0,0.8,0,1-0.1
			c0.1,0,0.1,0,0.1-0.1v-1C41.9,64,41.4,63.9,41,63.9z"/>
		<path class="st0" d="M48.7,61.2l-1.8,4.6c-0.1,0.2-0.2,0.3-0.4,0.3h-0.3c-0.2,0-0.3-0.1-0.4-0.3l-1.8-4.5
			c-0.1-0.3-0.1-0.4,0.2-0.4h0.4c0.4,0,0.5,0.1,0.5,0.3l0.9,2.4c0.2,0.5,0.3,1,0.3,1.1h0c0,0,0.1-0.6,0.3-1.1l0.9-2.4
			c0.1-0.2,0.2-0.3,0.6-0.3h0.4C48.7,60.9,48.8,61,48.7,61.2z"/>
		<path class="st0" d="M51.4,60.7c1.6,0,2.3,0.9,2.3,2.1v0.6c0,0.3-0.1,0.4-0.5,0.4h-3v0.4c0,0.6,0.4,1,1.1,1c0.6,0,1-0.2,1.2-0.5
			c0.2-0.2,0.3-0.2,0.5-0.1l0.3,0.2c0.2,0.1,0.3,0.3,0.1,0.5c-0.4,0.6-1,1-2.2,1c-1.6,0-2.3-0.9-2.3-2.1v-1.2
			C49.1,61.5,49.9,60.7,51.4,60.7z M51.4,61.7c-0.8,0-1.2,0.4-1.2,1V63h2.3v-0.2C52.5,62.1,52.1,61.7,51.4,61.7z"/>
		<path class="st0" d="M56.5,60.7c0.5,0,0.9,0.1,1.2,0.1V59c0-0.2,0.1-0.3,0.3-0.3h0.5c0.2,0,0.3,0.1,0.3,0.3v6.4
			c0,0.3-0.1,0.4-0.4,0.5c-0.4,0.2-1,0.3-1.9,0.3c-1.5,0-2.2-0.7-2.2-2v-1.4C54.5,61.5,55.1,60.7,56.5,60.7z M56.8,61.8
			c-0.8,0-1.1,0.3-1.1,1.1v1.3c0,0.6,0.4,1,1.1,1c0.4,0,0.7,0,0.9-0.1c0.1,0,0.1,0,0.1-0.1v-3C57.5,61.9,57.2,61.8,56.8,61.8z"/>
	</g>
</g>
<g id="Confetti">
</g>
<g id="Sparkler">
</g>
<g>
	<g>
		<path class="st1" d="M16.7,33.6v0.7c1.4,0.2,2.2,0.9,2.8,2.1c0.2,0.4,0.1,0.6-0.3,0.7l-0.7,0.3c-0.3,0.2-0.5,0.1-0.7-0.3
			c-0.4-0.7-0.8-1.2-1.9-1.2c-1.3,0-1.9,0.4-1.9,1.2c0,0.9,1,1.1,2.1,1.2c1.7,0.2,3.7,0.5,3.7,3c0,1.6-1.1,2.8-3,3v0.8
			c0,0.3-0.1,0.5-0.5,0.5h-0.8c-0.3,0-0.5-0.1-0.5-0.5v-0.6c-1.5-0.2-2.5-1.1-3-2.3c-0.1-0.4,0-0.6,0.3-0.7l0.7-0.3
			c0.4-0.1,0.5-0.1,0.7,0.3c0.3,0.8,0.9,1.3,2,1.3c1.4,0,2.1-0.4,2.1-1.3c0-0.9-1-1.1-2.1-1.2c-1.7-0.2-3.7-0.6-3.7-3
			c0-1.6,1-2.7,2.9-3v-0.7c0-0.3,0.1-0.5,0.5-0.5h0.8C16.6,33.1,16.7,33.2,16.7,33.6z"/>
	</g>
</g>
<g>
	<g>
		<path class="st1" d="M32.9,44v0.9c0,0.6-0.2,0.7-0.7,0.7h-1.5v2.9c0,0.5-0.2,0.7-0.7,0.7h-1.1c-0.5,0-0.7-0.2-0.7-0.7v-2.8H21
			c-0.5,0-0.7-0.2-0.7-0.7v-0.8c0-0.5,0-0.6,0.3-0.9l7.2-9c0.3-0.4,0.5-0.5,1-0.5H30c0.6,0,0.7,0.2,0.7,0.7v8.7h1.5
			C32.8,43.3,32.9,43.5,32.9,44z M23.4,43.3h4.7v-5.8L23.4,43.3z"/>
	</g>
	<g>
		<path class="st1" d="M34.9,51.9h-0.4c-0.4,0-0.5-0.1-0.5-0.5l0.5-4c0.1-0.6,0.3-0.8,0.9-0.8h1c0.7,0,0.9,0.3,0.7,0.8l-1.3,3.9
			C35.6,51.7,35.4,51.9,34.9,51.9z"/>
	</g>
	<g>
		<path class="st1" d="M44.8,33.5c3.7,0,5.7,2,5.7,5.2v5.6c0,3.2-2.1,5.3-5.7,5.3c-3.7,0-5.8-2-5.8-5.3v-5.6
			C39,35.6,41.1,33.5,44.8,33.5z M44.8,36.1c-1.9,0-3,1-3,2.7v5.6c0,1.7,1.1,2.7,3,2.7s3-1,3-2.7v-5.6C47.8,37,46.7,36.1,44.8,36.1z
			"/>
	</g>
	<g>
		<path class="st1" d="M58.6,33.5c3.7,0,5.7,2,5.7,5.2v5.6c0,3.2-2.1,5.3-5.7,5.3c-3.7,0-5.8-2-5.8-5.3v-5.6
			C52.8,35.6,54.9,33.5,58.6,33.5z M58.6,36.1c-1.9,0-3,1-3,2.7v5.6c0,1.7,1.1,2.7,3,2.7s3-1,3-2.7v-5.6
			C61.6,37,60.5,36.1,58.6,36.1z"/>
	</g>
	<g>
		<path class="st1" d="M72.4,33.5c3.7,0,5.7,2,5.7,5.2v5.6c0,3.2-2.1,5.3-5.7,5.3c-3.7,0-5.8-2-5.8-5.3v-5.6
			C66.6,35.6,68.7,33.5,72.4,33.5z M72.4,36.1c-1.9,0-3,1-3,2.7v5.6c0,1.7,1.1,2.7,3,2.7s3-1,3-2.7v-5.6
			C75.4,37,74.3,36.1,72.4,36.1z"/>
	</g>
</g>
</svg>
