<?xml version="1.0" encoding="utf-8"?>
<!-- Generator: Adobe Illustrator 22.0.1, SVG Export Plug-In . SVG Version: 6.00 Build 0)  -->
<svg version="1.1" id="Layer_1" xmlns="http://www.w3.org/2000/svg" xmlns:xlink="http://www.w3.org/1999/xlink" x="0px" y="0px"
	 viewBox="0 0 91.1 91" style="enable-background:new 0 0 91.1 91;" xml:space="preserve">
<metadata><?xpacket begin="﻿" id="W5M0MpCehiHzreSzNTczkc9d"?>
<x:xmpmeta xmlns:x="adobe:ns:meta/" x:xmptk="Adobe XMP Core 5.6-c143 79.161210, 2017/08/11-10:28:36        ">
   <rdf:RDF xmlns:rdf="http://www.w3.org/1999/02/22-rdf-syntax-ns#">
      <rdf:Description rdf:about=""/>
   </rdf:RDF>
</x:xmpmeta>
                                                                                                    
                                                                                                    
                                                                                                    
                                                                                                    
                                                                                                    
                                                                                                    
                                                                                                    
                                                                                                    
                                                                                                    
                                                                                                    
                                                                                                    
                                                                                                    
                                                                                                    
                                                                                                    
                                                                                                    
                                                                                                    
                                                                                                    
                                                                                                    
                                                                                                    
                                                                                                    
                           
<?xpacket end="w"?></metadata>
<style type="text/css">
	.st0{fill:#93C14A;}
	.st1{fill:#FFFFFF;}
</style>
<g>
	<g>
		<g>
			<path class="st0" d="M45.5,89C21.6,89,2.2,69.5,2.2,45.7S21.6,2.4,45.5,2.4s43.3,19.4,43.3,43.3S69.3,89,45.5,89z"/>
		</g>
	</g>
</g>
<g id="Confetti">
</g>
<g id="Sparkler">
</g>
<g>
	<g>
		<path class="st1" d="M16.9,33.9v0.7c1.4,0.2,2.2,0.9,2.8,2.1c0.2,0.4,0.1,0.6-0.3,0.7l-0.7,0.3c-0.3,0.2-0.5,0.1-0.7-0.3
			c-0.4-0.7-0.8-1.2-1.9-1.2c-1.3,0-1.9,0.4-1.9,1.2c0,0.9,1,1.1,2.1,1.2c1.7,0.2,3.7,0.5,3.7,3c0,1.6-1.1,2.8-3,3v0.8
			c0,0.3-0.1,0.5-0.5,0.5h-0.8c-0.3,0-0.5-0.1-0.5-0.5v-0.8c-1.5-0.2-2.5-1.1-3-2.3c-0.1-0.4,0-0.6,0.3-0.7l0.7-0.3
			c0.4-0.1,0.5-0.1,0.7,0.3c0.3,0.8,0.9,1.3,2,1.3c1.4,0,2.1-0.4,2.1-1.3c0-0.9-1-1.1-2.1-1.2c-1.7-0.2-3.7-0.6-3.7-3
			c0-1.6,1-2.7,2.9-3v-0.7c0-0.3,0.1-0.5,0.5-0.5h0.8C17,33.2,16.9,33.6,16.9,33.9z"/>
	</g>
</g>
<g>
	<g>
		<path class="st1" d="M34.1,44.4v0.9c0,0.6-0.2,0.7-0.7,0.7h-1.5v2.8c0,0.5-0.2,0.7-0.7,0.7h-1.1c-0.5,0-0.7-0.2-0.7-0.7V46h-7.2
			c-0.5,0-0.7-0.2-0.7-0.7v-0.8c0-0.5,0-0.6,0.3-0.9l7.2-9c0.3-0.4,0.5-0.5,1-0.5h1.2c0.6,0,0.7,0.2,0.7,0.7v8.7h1.5
			C33.8,43.6,34.1,43.8,34.1,44.4z M24.6,43.6h4.7v-5.8L24.6,43.6z"/>
	</g>
	<g>
		<path class="st1" d="M36.1,52.3h-0.5c-0.4,0-0.5-0.1-0.5-0.5l0.5-4c0.1-0.6,0.3-0.8,0.9-0.8h1c0.7,0,0.9,0.3,0.7,0.8l-1.3,3.9
			C36.7,52.1,36.6,52.3,36.1,52.3z"/>
	</g>
	<g>
		<path class="st1" d="M45.8,33.9c3.7,0,5.7,2,5.7,5.2v5.6c0,3.2-2.1,5.3-5.7,5.3c-3.7,0-5.8-2-5.8-5.3v-5.6
			C40.2,35.9,42.2,33.9,45.8,33.9z M45.8,36.4c-1.9,0-3,1-3,2.7v5.6c0,1.7,1.1,2.7,3,2.7s3-1,3-2.7v-5.6
			C48.9,37.4,47.8,36.4,45.8,36.4z"/>
	</g>
	<g>
		<path class="st1" d="M59.7,33.9c3.7,0,5.7,2,5.7,5.2v5.6c0,3.2-2.1,5.3-5.7,5.3c-3.7,0-5.8-2-5.8-5.3v-5.6
			C53.9,35.9,56.1,33.9,59.7,33.9z M59.7,36.4c-1.9,0-3,1-3,2.7v5.6c0,1.7,1.1,2.7,3,2.7s3-1,3-2.7v-5.6
			C62.8,37.4,61.6,36.4,59.7,36.4z"/>
	</g>
	<g>
		<path class="st1" d="M73.4,33.9c3.7,0,5.7,2,5.7,5.2v5.6c0,3.2-2.1,5.3-5.7,5.3c-3.7,0-5.8-2-5.8-5.3v-5.6
			C67.8,35.9,69.8,33.9,73.4,33.9z M73.4,36.4c-1.9,0-3,1-3,2.7v5.6c0,1.7,1.1,2.7,3,2.7s3-1,3-2.7v-5.6
			C76.6,37.4,75.3,36.4,73.4,36.4z"/>
	</g>
</g>
<g id="Layer_4">
</g>
<g>
	<path class="st1" d="M35.9,61c1.2,0,1.8,0.4,2.1,1.1c0.1,0.2,0.1,0.3-0.2,0.5l-0.4,0.2c-0.2,0.1-0.3,0.1-0.4-0.1
		c-0.2-0.3-0.4-0.5-1.1-0.5c-0.6,0-0.9,0.2-0.9,0.5c0,0.5,0.4,0.5,1.2,0.6c1.2,0.1,2,0.4,2,1.6c0,1-0.7,1.7-2.2,1.7
		c-1.2,0-1.9-0.4-2.2-1.2c-0.1-0.2,0-0.3,0.2-0.4l0.4-0.1c0.2-0.1,0.3,0,0.4,0.2c0.2,0.4,0.5,0.5,1.1,0.5c0.7,0,1.1-0.2,1.1-0.6
		c0-0.5-0.4-0.6-1.2-0.6c-1-0.1-2-0.3-2-1.6C33.8,61.7,34.5,61,35.9,61z"/>
	<path class="st1" d="M41,61c1.6,0,2.1,0.9,2.1,2.1v2.6c0,0.3-0.1,0.5-0.4,0.6c-0.4,0.2-1,0.3-1.8,0.3c-1.8,0-2.2-0.6-2.2-1.6
		c0-1.2,0.7-1.6,2.3-1.6c0.4,0,0.8,0,1,0V63c0-0.6-0.2-1-1-1c-0.5,0-0.8,0.2-1,0.5c-0.1,0.2-0.2,0.2-0.4,0.2l-0.4-0.2
		c-0.2-0.1-0.3-0.2-0.2-0.5C39.3,61.4,40,61,41,61z M40.9,64.2c-0.8,0-1,0.2-1,0.6c0,0.4,0.2,0.7,0.9,0.7c0.5,0,0.8,0,1-0.1
		c0.1,0,0.1,0,0.1-0.1v-1C41.8,64.3,41.3,64.2,40.9,64.2z"/>
	<path class="st1" d="M48.6,61.5l-1.8,4.6c-0.1,0.2-0.2,0.3-0.4,0.3H46c-0.2,0-0.3-0.1-0.4-0.3l-1.8-4.5c-0.1-0.3-0.1-0.4,0.2-0.4
		h0.4c0.4,0,0.5,0.1,0.5,0.3l0.9,2.4c0.2,0.5,0.3,1,0.3,1.1h0.1c0,0,0.1-0.6,0.3-1.1l0.9-2.4c0.1-0.2,0.2-0.3,0.6-0.3h0.4
		C48.6,61.2,48.7,61.2,48.6,61.5z"/>
	<path class="st1" d="M51.3,61c1.6,0,2.3,0.9,2.3,2.1v0.6c0,0.3-0.1,0.4-0.4,0.4h-3v0.4c0,0.6,0.4,1,1.1,1c0.6,0,1-0.2,1.2-0.5
		c0.2-0.2,0.3-0.2,0.5-0.1l0.3,0.2c0.2,0.1,0.3,0.3,0.1,0.5c-0.4,0.6-1,1-2.2,1c-1.6,0-2.3-0.9-2.3-2.1v-1.2
		C49,61.8,49.8,61,51.3,61z M51.3,62c-0.8,0-1.2,0.4-1.2,1v0.2h2.3V63C52.5,62.4,52.1,62,51.3,62z"/>
	<path class="st1" d="M56.5,61c0.5,0,0.9,0.1,1.2,0.1v-1.9c0-0.2,0.1-0.3,0.3-0.3h0.6c0.2,0,0.3,0.1,0.3,0.3v6.4
		c0,0.3-0.1,0.4-0.4,0.5c-0.4,0.2-1,0.3-1.9,0.3c-1.5,0-2.2-0.7-2.2-2v-1.4C54.4,61.8,55.1,61,56.5,61z M56.7,62.1
		c-0.8,0-1.1,0.3-1.1,1.1v1.3c0,0.6,0.4,1,1.1,1c0.4,0,0.7,0,0.9-0.1c0.1,0,0.1,0,0.1-0.1v-3C57.4,62.2,57.1,62.1,56.7,62.1z"/>
</g>
</svg>
