<?xml version="1.0" encoding="utf-8"?>
<!-- Generator: Adobe Illustrator 22.0.1, SVG Export Plug-In . SVG Version: 6.00 Build 0)  -->
<svg version="1.1" id="Layer_1" xmlns="http://www.w3.org/2000/svg" xmlns:xlink="http://www.w3.org/1999/xlink" x="0px" y="0px"
	 viewBox="0 0 91.4 91.8" style="enable-background:new 0 0 91.4 91.8;" xml:space="preserve">
<metadata><?xpacket begin="﻿" id="W5M0MpCehiHzreSzNTczkc9d"?>
<x:xmpmeta xmlns:x="adobe:ns:meta/" x:xmptk="Adobe XMP Core 5.6-c143 79.161210, 2017/08/11-10:28:36        ">
   <rdf:RDF xmlns:rdf="http://www.w3.org/1999/02/22-rdf-syntax-ns#">
      <rdf:Description rdf:about=""/>
   </rdf:RDF>
</x:xmpmeta>
                                                                                                    
                                                                                                    
                                                                                                    
                                                                                                    
                                                                                                    
                                                                                                    
                                                                                                    
                                                                                                    
                                                                                                    
                                                                                                    
                                                                                                    
                                                                                                    
                                                                                                    
                                                                                                    
                                                                                                    
                                                                                                    
                                                                                                    
                                                                                                    
                                                                                                    
                                                                                                    
                           
<?xpacket end="w"?></metadata>
<style type="text/css">
	.st0{fill:#93C14A;}
</style>
<g>
	<g>
		<g>
			<g>
				<path class="st0" d="M45.7,89.2c-23.9,0-43.3-19.4-43.3-43.3S21.9,2.6,45.7,2.6S89,22,89,45.9S69.6,89.2,45.7,89.2z M45.7,4.4
					C22.9,4.4,4.3,23,4.3,45.9s18.6,41.5,41.5,41.5s41.5-18.6,41.5-41.5S68.6,4.4,45.7,4.4z"/>
			</g>
		</g>
	</g>
	<g>
		<g>
			<path class="st0" d="M15.2,33.7v0.8c1.5,0.2,2.3,1,2.9,2.2c0.2,0.4,0.1,0.6-0.3,0.8L17,37.8c-0.4,0.2-0.5,0.1-0.7-0.3
				c-0.4-0.8-0.9-1.2-2-1.2c-1.3,0-2,0.4-2,1.3c0,0.9,1,1.1,2.2,1.2c1.8,0.2,3.9,0.5,3.9,3.1c0,1.7-1.1,2.9-3.2,3.2V46
				c0,0.4-0.1,0.5-0.5,0.5h-0.9c-0.4,0-0.5-0.1-0.5-0.5v-0.8c-1.6-0.2-2.7-1.1-3.2-2.4c-0.1-0.4,0-0.6,0.4-0.7l0.8-0.3
				c0.4-0.1,0.6-0.1,0.7,0.3c0.3,0.9,1,1.3,2.1,1.3c1.4,0,2.2-0.4,2.2-1.4c0-1-1-1.2-2.3-1.3c-1.8-0.2-3.9-0.6-3.9-3.1
				c0-1.7,1-2.9,3.1-3.1v-0.8c0-0.4,0.1-0.5,0.5-0.5h0.9C15.1,33.2,15.2,33.3,15.2,33.7z"/>
		</g>
		<g>
			<path class="st0" d="M31,34.8v1.1c0,0.6-0.2,0.8-0.8,0.8h-6.6L23.3,40h2.8c3.8,0,5.6,2.3,5.6,5.2c0,2.9-2.1,5.4-5.8,5.4
				c-3.4,0-5.3-1.3-6.2-3.7c-0.2-0.6-0.1-0.8,0.5-1l1.3-0.4c0.6-0.2,0.8-0.1,1,0.5c0.5,1.3,1.5,2,3.5,2c1.6,0,2.8-1,2.8-2.7
				c0-1.5-1.1-2.5-2.7-2.5h-4.8c-0.7,0-0.9-0.3-0.8-0.9l0.7-6.7c0.1-0.8,0.4-1.1,1.3-1.1h8C30.8,34,31,34.2,31,34.8z"/>
			<path class="st0" d="M34.1,53.1h-0.5c-0.4,0-0.5-0.1-0.5-0.5l0.6-4.3c0.1-0.6,0.3-0.8,0.9-0.8h1c0.7,0,0.9,0.3,0.7,0.8L35,52.4
				C34.8,52.9,34.7,53.1,34.1,53.1z"/>
			<path class="st0" d="M44.5,33.6c3.9,0,6.1,2.2,6.1,5.5v5.9c0,3.4-2.2,5.6-6.1,5.6s-6.1-2.2-6.1-5.6v-5.9
				C38.5,35.8,40.7,33.6,44.5,33.6z M44.5,36.3c-2,0-3.2,1-3.2,2.8v5.9c0,1.8,1.2,2.9,3.2,2.9s3.2-1.1,3.2-2.9v-5.9
				C47.7,37.4,46.6,36.3,44.5,36.3z"/>
			<path class="st0" d="M59.1,33.6c3.9,0,6.1,2.2,6.1,5.5v5.9c0,3.4-2.2,5.6-6.1,5.6S53,48.5,53,45.1v-5.9
				C53,35.8,55.2,33.6,59.1,33.6z M59.1,36.3c-2,0-3.2,1-3.2,2.8v5.9c0,1.8,1.2,2.9,3.2,2.9s3.2-1.1,3.2-2.9v-5.9
				C62.3,37.4,61.1,36.3,59.1,36.3z"/>
			<path class="st0" d="M73.6,33.6c3.9,0,6.1,2.2,6.1,5.5v5.9c0,3.4-2.2,5.6-6.1,5.6s-6.1-2.2-6.1-5.6v-5.9
				C67.5,35.8,69.8,33.6,73.6,33.6z M73.6,36.3c-2,0-3.2,1-3.2,2.8v5.9c0,1.8,1.2,2.9,3.2,2.9s3.2-1.1,3.2-2.9v-5.9
				C76.8,37.4,75.7,36.3,73.6,36.3z"/>
		</g>
	</g>
	<g>
		<path class="st0" d="M35.1,61.2c1.2,0,1.8,0.4,2.1,1.1c0.1,0.2,0.1,0.3-0.2,0.5l-0.5,0.2c-0.2,0.1-0.3,0.1-0.4-0.1
			c-0.2-0.3-0.4-0.5-1.1-0.5c-0.6,0-0.9,0.2-0.9,0.5c0,0.5,0.4,0.5,1.2,0.6c1.2,0.1,2,0.4,2,1.6c0,1-0.7,1.7-2.2,1.7
			c-1.2,0-1.9-0.4-2.2-1.2c-0.1-0.2,0-0.3,0.2-0.4l0.4-0.1c0.2-0.1,0.3,0,0.4,0.2c0.2,0.4,0.5,0.5,1.1,0.5c0.7,0,1.1-0.2,1.1-0.6
			c0-0.5-0.4-0.6-1.2-0.6c-1-0.1-2-0.3-2-1.6C33.1,61.9,33.8,61.2,35.1,61.2z"/>
		<path class="st0" d="M40.3,61.2c1.6,0,2.1,0.9,2.1,2.1v2.6c0,0.3-0.1,0.5-0.4,0.6c-0.4,0.2-1,0.3-1.8,0.3c-1.8,0-2.2-0.6-2.2-1.6
			c0-1.2,0.7-1.6,2.3-1.6c0.4,0,0.8,0,1,0v-0.3c0-0.6-0.2-1-1-1c-0.5,0-0.8,0.2-1,0.5C39.1,63,39,63,38.8,62.9l-0.4-0.2
			c-0.2-0.1-0.3-0.2-0.2-0.5C38.6,61.6,39.2,61.2,40.3,61.2z M40.2,64.4c-0.8,0-1,0.2-1,0.6c0,0.4,0.2,0.7,0.9,0.7
			c0.5,0,0.8,0,1-0.1c0.1,0,0.1,0,0.1-0.1v-1C41.1,64.5,40.6,64.4,40.2,64.4z"/>
		<path class="st0" d="M47.8,61.7L46,66.3c-0.1,0.2-0.2,0.3-0.4,0.3h-0.3c-0.2,0-0.3-0.1-0.4-0.3L43,61.7c-0.1-0.3-0.1-0.4,0.2-0.4
			h0.4c0.4,0,0.5,0.1,0.5,0.3l0.9,2.4c0.2,0.5,0.3,1,0.3,1.1h0c0,0,0.1-0.6,0.3-1.1l0.9-2.4c0.1-0.2,0.2-0.3,0.6-0.3h0.4
			C47.9,61.4,47.9,61.5,47.8,61.7z"/>
		<path class="st0" d="M50.6,61.2c1.6,0,2.3,0.9,2.3,2.1v0.6c0,0.3-0.1,0.4-0.5,0.4h-3v0.4c0,0.6,0.4,1,1.1,1c0.6,0,1-0.2,1.2-0.5
			c0.2-0.2,0.3-0.2,0.5-0.1l0.3,0.2c0.2,0.1,0.3,0.3,0.1,0.5c-0.4,0.6-1,1-2.2,1c-1.6,0-2.3-0.9-2.3-2.1v-1.2
			C48.2,62,49,61.2,50.6,61.2z M50.6,62.2c-0.8,0-1.2,0.4-1.2,1v0.2h2.3v-0.2C51.7,62.6,51.3,62.2,50.6,62.2z"/>
		<path class="st0" d="M55.7,61.2c0.5,0,0.9,0.1,1.2,0.1v-1.9c0-0.2,0.1-0.3,0.3-0.3h0.5c0.2,0,0.3,0.1,0.3,0.3v6.4
			c0,0.3-0.1,0.4-0.4,0.5c-0.4,0.2-1,0.3-1.9,0.3c-1.5,0-2.2-0.7-2.2-2v-1.4C53.6,62,54.3,61.2,55.7,61.2z M55.9,62.3
			c-0.8,0-1.1,0.3-1.1,1.1v1.3c0,0.6,0.4,1,1.1,1c0.4,0,0.7,0,0.9-0.1c0.1,0,0.1,0,0.1-0.1v-3C56.7,62.4,56.3,62.3,55.9,62.3z"/>
	</g>
</g>
<g id="Confetti">
</g>
</svg>
