<?xml version="1.0" encoding="utf-8"?>
<!-- Generator: Adobe Illustrator 22.0.1, SVG Export Plug-In . SVG Version: 6.00 Build 0)  -->
<svg version="1.1" id="Layer_1" xmlns="http://www.w3.org/2000/svg" xmlns:xlink="http://www.w3.org/1999/xlink" x="0px" y="0px"
	 viewBox="0 0 91.1 91" style="enable-background:new 0 0 91.1 91;" xml:space="preserve">
<metadata><?xpacket begin="﻿" id="W5M0MpCehiHzreSzNTczkc9d"?>
<x:xmpmeta xmlns:x="adobe:ns:meta/" x:xmptk="Adobe XMP Core 5.6-c143 79.161210, 2017/08/11-10:28:36        ">
   <rdf:RDF xmlns:rdf="http://www.w3.org/1999/02/22-rdf-syntax-ns#">
      <rdf:Description rdf:about=""/>
   </rdf:RDF>
</x:xmpmeta>
                                                                                                    
                                                                                                    
                                                                                                    
                                                                                                    
                                                                                                    
                                                                                                    
                                                                                                    
                                                                                                    
                                                                                                    
                                                                                                    
                                                                                                    
                                                                                                    
                                                                                                    
                                                                                                    
                                                                                                    
                                                                                                    
                                                                                                    
                                                                                                    
                                                                                                    
                                                                                                    
                           
<?xpacket end="w"?></metadata>
<style type="text/css">
	.st0{fill:#93C14A;}
	.st1{fill:#FFFFFF;}
</style>
<g>
	<g>
		<g>
			<g>
				<path class="st0" d="M45.6,89C21.7,89,2.3,69.6,2.3,45.7S21.7,2.4,45.6,2.4s43.3,19.4,43.3,43.3S69.5,89,45.6,89z"/>
			</g>
		</g>
	</g>
	<g>
		<g>
			<path class="st1" d="M37.6,31.2v1.6c0,0.8-0.3,1.1-1.1,1.1h-9.1l-0.5,4.7h3.8c5.2,0,7.7,3.2,7.7,7.1c0,4.1-2.9,7.5-8,7.5
				c-4.8,0-7.4-1.8-8.6-5.2c-0.3-0.8-0.1-1.1,0.7-1.4l1.7-0.6c0.8-0.3,1.1-0.1,1.4,0.7c0.7,1.8,2.1,2.8,4.8,2.8
				c2.2,0,3.8-1.4,3.8-3.8c0-2.1-1.5-3.5-3.7-3.5h-6.7c-1,0-1.2-0.4-1.1-1.3l1-9.2c0.1-1.2,0.5-1.6,1.7-1.6h11.1
				C37.3,30.2,37.6,30.4,37.6,31.2z"/>
			<path class="st1" d="M49.7,29.7c5.3,0,8.4,3,8.4,7.6v8.2c0,4.7-3,7.7-8.4,7.7s-8.4-3-8.4-7.7v-8.2C41.3,32.7,44.4,29.7,49.7,29.7
				z M49.7,33.4c-2.8,0-4.4,1.4-4.4,3.9v8.2c0,2.5,1.6,4,4.4,4s4.4-1.5,4.4-4v-8.2C54.1,34.8,52.5,33.4,49.7,33.4z"/>
			<path class="st1" d="M69.8,29.7c5.3,0,8.4,3,8.4,7.6v8.2c0,4.7-3,7.7-8.4,7.7s-8.4-3-8.4-7.7v-8.2C61.4,32.7,64.5,29.7,69.8,29.7
				z M69.8,33.4c-2.8,0-4.4,1.4-4.4,3.9v8.2c0,2.5,1.6,4,4.4,4s4.4-1.5,4.4-4v-8.2C74.3,34.8,72.6,33.4,69.8,33.4z"/>
		</g>
		<g>
			<path class="st1" d="M17.9,31.5v0.8c1.5,0.2,2.3,1,2.9,2.2c0.2,0.4,0.1,0.6-0.3,0.8l-0.8,0.3c-0.4,0.2-0.5,0.1-0.7-0.3
				c-0.4-0.8-0.9-1.2-2-1.2c-1.3,0-1.9,0.4-1.9,1.3c0,0.9,1,1.1,2.2,1.2c1.7,0.2,3.9,0.5,3.9,3.1c0,1.7-1.1,2.9-3.2,3.2v0.8
				c0,0.4-0.1,0.5-0.5,0.5h-0.9c-0.4,0-0.5-0.1-0.5-0.5v-0.8c-1.6-0.2-2.7-1.1-3.1-2.4c-0.1-0.4,0-0.6,0.4-0.7l0.8-0.3
				c0.4-0.1,0.6-0.1,0.7,0.3c0.3,0.8,1,1.3,2.1,1.3c1.4,0,2.2-0.4,2.2-1.4c0-1-1-1.2-2.2-1.3c-1.8-0.2-3.9-0.6-3.9-3.1
				c0-1.7,1-2.8,3.1-3.1v-0.8c0-0.4,0.1-0.5,0.5-0.5h0.9C17.8,31,17.9,31.1,17.9,31.5z"/>
		</g>
	</g>
	<g>
		<path class="st1" d="M35.7,61.1c1.2,0,1.8,0.4,2.1,1.1c0.1,0.2,0.1,0.3-0.2,0.5l-0.4,0.2c-0.2,0.1-0.3,0.1-0.4-0.1
			c-0.2-0.3-0.4-0.5-1.1-0.5c-0.6,0-0.9,0.2-0.9,0.5c0,0.5,0.4,0.5,1.2,0.6c1.2,0.1,2,0.4,2,1.6c0,1-0.7,1.7-2.2,1.7
			c-1.2,0-1.9-0.4-2.2-1.2c-0.1-0.2,0-0.3,0.2-0.4l0.4-0.1c0.2-0.1,0.3,0,0.4,0.2c0.2,0.4,0.5,0.5,1.1,0.5c0.7,0,1.1-0.2,1.1-0.6
			c0-0.5-0.4-0.6-1.2-0.6c-1-0.1-2-0.3-2-1.6C33.6,61.7,34.3,61.1,35.7,61.1z"/>
		<path class="st1" d="M40.8,61.1c1.6,0,2.1,0.9,2.1,2.1v2.6c0,0.3-0.1,0.5-0.4,0.6c-0.4,0.2-1,0.3-1.8,0.3c-1.8,0-2.2-0.6-2.2-1.6
			c0-1.2,0.7-1.6,2.3-1.6c0.4,0,0.8,0,1,0v-0.3c0-0.6-0.2-1-1-1c-0.5,0-0.8,0.2-1,0.5c-0.1,0.2-0.2,0.2-0.4,0.2l-0.4-0.2
			c-0.2-0.1-0.3-0.2-0.2-0.5C39.1,61.5,39.8,61.1,40.8,61.1z M40.7,64.3c-0.8,0-1,0.2-1,0.6c0,0.4,0.2,0.7,0.9,0.7
			c0.5,0,0.8,0,1-0.1c0.1,0,0.1,0,0.1-0.1v-1C41.6,64.3,41.1,64.3,40.7,64.3z"/>
		<path class="st1" d="M48.4,61.6l-1.8,4.6c-0.1,0.2-0.2,0.3-0.4,0.3h-0.3c-0.2,0-0.3-0.1-0.4-0.3l-1.8-4.5
			c-0.1-0.3-0.1-0.4,0.2-0.4h0.4c0.4,0,0.5,0.1,0.5,0.3l0.9,2.4c0.2,0.5,0.3,1,0.3,1.1H46c0,0,0.1-0.6,0.3-1.1l0.9-2.4
			c0.1-0.2,0.2-0.3,0.6-0.3h0.4C48.4,61.2,48.5,61.3,48.4,61.6z"/>
		<path class="st1" d="M51.1,61.1c1.6,0,2.3,0.9,2.3,2.1v0.6c0,0.3-0.1,0.4-0.4,0.4h-3v0.4c0,0.6,0.4,1,1.1,1c0.6,0,1-0.2,1.2-0.5
			c0.2-0.2,0.3-0.2,0.5-0.1l0.3,0.2c0.2,0.1,0.3,0.3,0.1,0.5c-0.4,0.6-1,1-2.2,1c-1.6,0-2.3-0.9-2.3-2.1v-1.2
			C48.8,61.8,49.6,61.1,51.1,61.1z M51.1,62c-0.8,0-1.2,0.4-1.2,1v0.2h2.3v-0.2C52.2,62.4,51.9,62,51.1,62z"/>
		<path class="st1" d="M56.2,61.1c0.5,0,0.9,0.1,1.2,0.1v-1.9c0-0.2,0.1-0.3,0.3-0.3h0.6c0.2,0,0.3,0.1,0.3,0.3v6.4
			c0,0.3-0.1,0.4-0.4,0.5c-0.4,0.2-1,0.3-1.9,0.3c-1.5,0-2.2-0.7-2.2-2v-1.4C54.2,61.8,54.9,61.1,56.2,61.1z M56.5,62.1
			c-0.8,0-1.1,0.3-1.1,1.1v1.3c0,0.6,0.4,1,1.1,1c0.4,0,0.7,0,0.9-0.1c0.1,0,0.1,0,0.1-0.1v-3C57.2,62.2,56.9,62.1,56.5,62.1z"/>
	</g>
</g>
<g id="Confetti">
</g>
<g id="Sparkler">
</g>
</svg>
