<?xml version="1.0" encoding="utf-8"?>
<!-- Generator: Adobe Illustrator 22.0.1, SVG Export Plug-In . SVG Version: 6.00 Build 0)  -->
<svg version="1.1" id="Layer_1" xmlns="http://www.w3.org/2000/svg" xmlns:xlink="http://www.w3.org/1999/xlink" x="0px" y="0px"
	 viewBox="0 0 91.4 91.8" style="enable-background:new 0 0 91.4 91.8;" xml:space="preserve">
<metadata><?xpacket begin="﻿" id="W5M0MpCehiHzreSzNTczkc9d"?>
<x:xmpmeta xmlns:x="adobe:ns:meta/" x:xmptk="Adobe XMP Core 5.6-c143 79.161210, 2017/08/11-10:28:36        ">
   <rdf:RDF xmlns:rdf="http://www.w3.org/1999/02/22-rdf-syntax-ns#">
      <rdf:Description rdf:about=""/>
   </rdf:RDF>
</x:xmpmeta>
                                                                                                    
                                                                                                    
                                                                                                    
                                                                                                    
                                                                                                    
                                                                                                    
                                                                                                    
                                                                                                    
                                                                                                    
                                                                                                    
                                                                                                    
                                                                                                    
                                                                                                    
                                                                                                    
                                                                                                    
                                                                                                    
                                                                                                    
                                                                                                    
                                                                                                    
                                                                                                    
                           
<?xpacket end="w"?></metadata>
<style type="text/css">
	.st0{fill:#93C14A;}
	.st1{fill:#FFFFFF;}
</style>
<g>
	<g>
		<g>
			<g>
				<path class="st0" d="M45.8,89.3C22,89.3,2.6,69.9,2.6,46S22,2.7,45.8,2.7S89.1,22.2,89.1,46S69.7,89.3,45.8,89.3z"/>
			</g>
		</g>
	</g>
	<g>
		<g>
			<path class="st1" d="M15.3,33.8v0.8c1.5,0.2,2.3,1,2.9,2.2c0.2,0.4,0.1,0.6-0.3,0.8l-0.8,0.3c-0.4,0.2-0.5,0.1-0.7-0.3
				c-0.4-0.8-0.9-1.2-2-1.2c-1.3,0-2,0.4-2,1.3c0,0.9,1,1.1,2.2,1.2c1.8,0.2,3.9,0.5,3.9,3.1c0,1.7-1.1,2.9-3.2,3.2v0.8
				c0,0.4-0.1,0.5-0.5,0.5H14c-0.4,0-0.5-0.1-0.5-0.5v-0.8c-1.6-0.2-2.7-1.1-3.2-2.4c-0.1-0.4,0-0.6,0.4-0.7l0.8-0.3
				c0.4-0.1,0.6-0.1,0.7,0.3c0.3,0.9,1,1.3,2.1,1.3c1.4,0,2.2-0.4,2.2-1.4c0-1-1-1.2-2.3-1.3c-1.8-0.2-3.9-0.6-3.9-3.1
				c0-1.7,1-2.9,3.1-3.1v-0.8c0-0.4,0.1-0.5,0.5-0.5h0.9C15.2,33.3,15.3,33.5,15.3,33.8z"/>
		</g>
		<g>
			<path class="st1" d="M31.1,34.9V36c0,0.6-0.2,0.8-0.8,0.8h-6.6l-0.3,3.4h2.8c3.8,0,5.6,2.3,5.6,5.2c0,2.9-2.1,5.4-5.8,5.4
				c-3.4,0-5.3-1.3-6.2-3.7c-0.2-0.6-0.1-0.8,0.5-1l1.3-0.4c0.6-0.2,0.8-0.1,1,0.5c0.5,1.3,1.5,2,3.5,2c1.6,0,2.8-1,2.8-2.7
				c0-1.5-1.1-2.5-2.7-2.5h-4.8c-0.7,0-0.9-0.3-0.8-0.9l0.7-6.7c0.1-0.8,0.4-1.1,1.3-1.1h8C30.9,34.1,31.1,34.3,31.1,34.9z"/>
			<path class="st1" d="M34.2,53.2h-0.5c-0.4,0-0.5-0.1-0.5-0.5l0.6-4.3c0.1-0.6,0.3-0.8,0.9-0.8h1c0.7,0,0.9,0.3,0.7,0.8l-1.4,4.1
				C34.9,53,34.8,53.2,34.2,53.2z"/>
			<path class="st1" d="M44.6,33.8c3.9,0,6.1,2.2,6.1,5.5v5.9c0,3.4-2.2,5.6-6.1,5.6s-6.1-2.2-6.1-5.6v-5.9
				C38.6,35.9,40.8,33.8,44.6,33.8z M44.6,36.5c-2,0-3.2,1-3.2,2.8v5.9c0,1.8,1.2,2.9,3.2,2.9s3.2-1.1,3.2-2.9v-5.9
				C47.8,37.5,46.7,36.5,44.6,36.5z"/>
			<path class="st1" d="M59.2,33.8c3.9,0,6.1,2.2,6.1,5.5v5.9c0,3.4-2.2,5.6-6.1,5.6s-6.1-2.2-6.1-5.6v-5.9
				C53.1,35.9,55.3,33.8,59.2,33.8z M59.2,36.5c-2,0-3.2,1-3.2,2.8v5.9c0,1.8,1.2,2.9,3.2,2.9s3.2-1.1,3.2-2.9v-5.9
				C62.4,37.5,61.2,36.5,59.2,36.5z"/>
			<path class="st1" d="M73.7,33.8c3.9,0,6.1,2.2,6.1,5.5v5.9c0,3.4-2.2,5.6-6.1,5.6s-6.1-2.2-6.1-5.6v-5.9
				C67.7,35.9,69.9,33.8,73.7,33.8z M73.7,36.5c-2,0-3.2,1-3.2,2.8v5.9c0,1.8,1.2,2.9,3.2,2.9s3.2-1.1,3.2-2.9v-5.9
				C76.9,37.5,75.8,36.5,73.7,36.5z"/>
		</g>
	</g>
	<g>
		<path class="st1" d="M36.2,61.4c1.2,0,1.8,0.4,2.1,1.1c0.1,0.2,0.1,0.3-0.2,0.5l-0.5,0.2c-0.2,0.1-0.3,0.1-0.4-0.1
			c-0.2-0.3-0.4-0.5-1.1-0.5c-0.6,0-0.9,0.2-0.9,0.5c0,0.5,0.4,0.5,1.2,0.6c1.2,0.1,2,0.4,2,1.6c0,1-0.7,1.7-2.2,1.7
			c-1.2,0-1.9-0.4-2.2-1.2c-0.1-0.2,0-0.3,0.2-0.4l0.4-0.1c0.2-0.1,0.3,0,0.4,0.2c0.2,0.4,0.5,0.5,1.1,0.5c0.7,0,1.1-0.2,1.1-0.6
			c0-0.5-0.4-0.6-1.2-0.6c-1-0.1-2-0.3-2-1.6C34.2,62,34.9,61.4,36.2,61.4z"/>
		<path class="st1" d="M41.4,61.4c1.6,0,2.1,0.9,2.1,2.1V66c0,0.3-0.1,0.5-0.4,0.6c-0.4,0.2-1,0.3-1.8,0.3c-1.8,0-2.2-0.6-2.2-1.6
			c0-1.2,0.7-1.6,2.3-1.6c0.4,0,0.8,0,1,0v-0.3c0-0.6-0.2-1-1-1c-0.5,0-0.8,0.2-1,0.5c-0.1,0.2-0.2,0.2-0.4,0.2l-0.4-0.2
			c-0.2-0.1-0.3-0.2-0.2-0.5C39.7,61.8,40.4,61.4,41.4,61.4z M41.3,64.6c-0.8,0-1,0.2-1,0.6c0,0.4,0.2,0.7,0.9,0.7
			c0.5,0,0.8,0,1-0.1c0.1,0,0.1,0,0.1-0.1v-1C42.2,64.6,41.7,64.6,41.3,64.6z"/>
		<path class="st1" d="M48.9,61.9l-1.8,4.6c-0.1,0.2-0.2,0.3-0.4,0.3h-0.3c-0.2,0-0.3-0.1-0.4-0.3l-1.8-4.5
			c-0.1-0.3-0.1-0.4,0.2-0.4h0.4c0.4,0,0.5,0.1,0.5,0.3l0.9,2.4c0.2,0.5,0.3,1,0.3,1.1h0c0,0,0.1-0.6,0.3-1.1l0.9-2.4
			c0.1-0.2,0.2-0.3,0.6-0.3h0.4C49,61.5,49,61.6,48.9,61.9z"/>
		<path class="st1" d="M51.7,61.4c1.6,0,2.3,0.9,2.3,2.1v0.6c0,0.3-0.1,0.4-0.5,0.4h-3v0.4c0,0.6,0.4,1,1.1,1c0.6,0,1-0.2,1.2-0.5
			c0.2-0.2,0.3-0.2,0.5-0.1l0.3,0.2c0.2,0.1,0.3,0.3,0.1,0.5c-0.4,0.6-1,1-2.2,1c-1.6,0-2.3-0.9-2.3-2.1v-1.2
			C49.3,62.1,50.1,61.4,51.7,61.4z M51.7,62.4c-0.8,0-1.2,0.4-1.2,1v0.2h2.3v-0.2C52.8,62.7,52.4,62.4,51.7,62.4z"/>
		<path class="st1" d="M56.8,61.4c0.5,0,0.9,0.1,1.2,0.1v-1.9c0-0.2,0.1-0.3,0.3-0.3h0.5c0.2,0,0.3,0.1,0.3,0.3V66
			c0,0.3-0.1,0.4-0.4,0.5c-0.4,0.2-1,0.3-1.9,0.3c-1.5,0-2.2-0.7-2.2-2v-1.4C54.7,62.1,55.4,61.4,56.8,61.4z M57,62.4
			c-0.8,0-1.1,0.3-1.1,1.1v1.3c0,0.6,0.4,1,1.1,1c0.4,0,0.7,0,0.9-0.1c0.1,0,0.1,0,0.1-0.1v-3C57.8,62.5,57.4,62.4,57,62.4z"/>
	</g>
</g>
</svg>
