<?xml version="1.0" encoding="utf-8"?>
<!-- Generator: Adobe Illustrator 22.0.1, SVG Export Plug-In . SVG Version: 6.00 Build 0)  -->
<svg version="1.1" id="Layer_1" xmlns="http://www.w3.org/2000/svg" xmlns:xlink="http://www.w3.org/1999/xlink" x="0px" y="0px"
	 viewBox="0 0 91.1 91" style="enable-background:new 0 0 91.1 91;" xml:space="preserve">
<metadata><?xpacket begin="﻿" id="W5M0MpCehiHzreSzNTczkc9d"?>
<x:xmpmeta xmlns:x="adobe:ns:meta/" x:xmptk="Adobe XMP Core 5.6-c143 79.161210, 2017/08/11-10:28:36        ">
   <rdf:RDF xmlns:rdf="http://www.w3.org/1999/02/22-rdf-syntax-ns#">
      <rdf:Description rdf:about=""/>
   </rdf:RDF>
</x:xmpmeta>
                                                                                                    
                                                                                                    
                                                                                                    
                                                                                                    
                                                                                                    
                                                                                                    
                                                                                                    
                                                                                                    
                                                                                                    
                                                                                                    
                                                                                                    
                                                                                                    
                                                                                                    
                                                                                                    
                                                                                                    
                                                                                                    
                                                                                                    
                                                                                                    
                                                                                                    
                                                                                                    
                           
<?xpacket end="w"?></metadata>
<style type="text/css">
	.st0{fill:#93C14A;}
</style>
<g id="Confetti">
</g>
<g id="Sparkler">
</g>
<g>
	<g>
		<g>
			<g>
				<path class="st0" d="M45.7,89C21.9,89,2.4,69.6,2.4,45.7S21.9,2.4,45.7,2.4S89,21.8,89,45.7S69.6,89,45.7,89z M45.7,4.3
					C22.9,4.3,4.3,22.9,4.3,45.7s18.6,41.5,41.5,41.5s41.5-18.6,41.5-41.5S68.6,4.3,45.7,4.3z"/>
			</g>
		</g>
	</g>
	<g>
		<g>
			<path class="st0" d="M47.2,28.4v1.9c0,1-0.3,1.3-1.3,1.3H34.8l-0.6,5.7h4.7c6.4,0,9.5,4,9.5,8.8c0,5-3.5,9.2-9.8,9.2
				c-5.8,0-9.1-2.3-10.6-6.3c-0.4-0.9-0.1-1.4,0.8-1.7l2.1-0.7c0.9-0.4,1.3-0.2,1.7,0.8c0.9,2.3,2.5,3.4,5.9,3.4
				c2.7,0,4.7-1.7,4.7-4.6c0-2.6-1.9-4.2-4.6-4.2h-8.2c-1.2,0-1.5-0.5-1.4-1.6L30.2,29c0.2-1.4,0.7-1.9,2.1-1.9h13.6
				C46.9,27.1,47.2,27.4,47.2,28.4z"/>
			<path class="st0" d="M62.1,26.5c6.5,0,10.3,3.7,10.3,9.4v10c0,5.8-3.7,9.4-10.3,9.4c-6.5,0-10.3-3.7-10.3-9.4v-10
				C51.8,30.2,55.6,26.5,62.1,26.5z M62.1,31.1c-3.4,0-5.4,1.8-5.4,4.8v10c0,3.1,2,4.9,5.4,4.9s5.4-1.8,5.4-4.9v-10
				C67.6,32.8,65.6,31.1,62.1,31.1z"/>
		</g>
		<g>
			<path class="st0" d="M22,28.5v0.9c1.8,0.3,2.7,1.1,3.4,2.6c0.2,0.4,0.1,0.7-0.4,0.9l-0.9,0.4c-0.4,0.2-0.6,0.1-0.9-0.3
				c-0.5-0.9-1-1.4-2.4-1.4c-1.6,0-2.3,0.4-2.3,1.5c0,1.1,1.2,1.3,2.6,1.4c2,0.2,4.5,0.6,4.5,3.6c0,2-1.3,3.4-3.7,3.7v1
				c0,0.4-0.1,0.6-0.6,0.6h-1c-0.4,0-0.6-0.1-0.6-0.6v-0.9c-1.9-0.2-3.1-1.3-3.7-2.8c-0.2-0.4,0-0.7,0.4-0.8l0.9-0.3
				c0.5-0.2,0.7-0.1,0.9,0.4c0.4,1,1.1,1.5,2.5,1.5c1.7,0,2.5-0.5,2.5-1.6c0-1.2-1.2-1.4-2.6-1.5c-2.1-0.2-4.5-0.7-4.5-3.6
				c0-2,1.2-3.3,3.6-3.6v-0.9c0-0.4,0.1-0.6,0.6-0.6h1C21.9,28.1,22,28.2,22,28.5z"/>
		</g>
	</g>
	<g>
		<path class="st0" d="M35.4,61.1c1.2,0,1.8,0.4,2.1,1.1c0.1,0.2,0.1,0.3-0.2,0.5l-0.5,0.2c-0.2,0.1-0.3,0.1-0.4-0.1
			c-0.2-0.3-0.4-0.5-1.1-0.5c-0.7,0-0.9,0.2-0.9,0.5c0,0.5,0.4,0.5,1.2,0.6c1.2,0.1,2,0.4,2,1.6c0,1-0.7,1.7-2.2,1.7
			c-1.2,0-1.9-0.4-2.2-1.2c-0.1-0.2,0-0.3,0.2-0.4l0.4-0.1c0.2-0.1,0.3,0,0.4,0.2c0.2,0.4,0.5,0.5,1.1,0.5c0.7,0,1.1-0.2,1.1-0.6
			c0-0.5-0.4-0.6-1.2-0.6c-1-0.1-2-0.3-2-1.6C33.3,61.7,34,61.1,35.4,61.1z"/>
		<path class="st0" d="M40.5,61.1c1.6,0,2.1,0.9,2.1,2.1v2.6c0,0.3-0.1,0.5-0.4,0.6c-0.4,0.2-1,0.3-1.8,0.3c-1.8,0-2.2-0.6-2.2-1.6
			c0-1.2,0.7-1.6,2.3-1.6c0.4,0,0.8,0,1,0v-0.3c0-0.6-0.2-1-1-1c-0.5,0-0.8,0.2-1.1,0.5c-0.1,0.2-0.2,0.2-0.4,0.2l-0.4-0.2
			c-0.2-0.1-0.3-0.2-0.2-0.5C38.8,61.5,39.5,61.1,40.5,61.1z M40.4,64.3c-0.8,0-1,0.2-1,0.6s0.2,0.7,0.9,0.7c0.5,0,0.8,0,1-0.1
			c0.1,0,0.1,0,0.1-0.1v-1C41.3,64.3,40.8,64.3,40.4,64.3z"/>
		<path class="st0" d="M48.1,61.6l-1.8,4.6c-0.1,0.2-0.2,0.3-0.4,0.3h-0.3c-0.2,0-0.3-0.1-0.4-0.3l-1.8-4.5
			c-0.1-0.3-0.1-0.4,0.2-0.4H44c0.4,0,0.5,0.1,0.5,0.3l0.9,2.4c0.2,0.5,0.3,1,0.3,1.1l0,0c0,0,0.1-0.6,0.3-1.1l0.9-2.4
			c0.1-0.2,0.2-0.3,0.6-0.3h0.4C48.1,61.2,48.2,61.3,48.1,61.6z"/>
		<path class="st0" d="M50.8,61.1c1.6,0,2.3,0.9,2.3,2.1v0.6c0,0.3-0.1,0.4-0.5,0.4h-3v0.4c0,0.6,0.4,1,1.1,1c0.6,0,1-0.2,1.2-0.5
			c0.2-0.2,0.3-0.2,0.5-0.1l0.3,0.2c0.2,0.1,0.3,0.3,0.1,0.5c-0.4,0.6-1,1-2.2,1c-1.6,0-2.3-0.9-2.3-2.1v-1.2
			C48.5,61.8,49.3,61.1,50.8,61.1z M50.8,62c-0.8,0-1.2,0.4-1.2,1v0.2H52V63C52,62.4,51.6,62,50.8,62z"/>
		<path class="st0" d="M56,61.1c0.5,0,0.9,0.1,1.2,0.1v-1.9c0-0.2,0.1-0.3,0.3-0.3H58c0.2,0,0.3,0.1,0.3,0.3v6.4
			c0,0.3-0.1,0.4-0.4,0.5c-0.4,0.2-1,0.3-1.9,0.3c-1.5,0-2.2-0.7-2.2-2v-1.4C53.9,61.8,54.6,61.1,56,61.1z M56.2,62.1
			c-0.8,0-1.2,0.3-1.2,1.1v1.3c0,0.6,0.4,1,1.1,1c0.4,0,0.7,0,0.9-0.1c0.1,0,0.1,0,0.1-0.1v-3C56.9,62.2,56.6,62.1,56.2,62.1z"/>
	</g>
</g>
</svg>
