<?xml version="1.0" encoding="utf-8"?>
<!-- Generator: Adobe Illustrator 22.0.1, SVG Export Plug-In . SVG Version: 6.00 Build 0)  -->
<svg version="1.1" id="Layer_1" xmlns="http://www.w3.org/2000/svg" xmlns:xlink="http://www.w3.org/1999/xlink" x="0px" y="0px"
	 viewBox="0 0 91.4 91.8" style="enable-background:new 0 0 91.4 91.8;" xml:space="preserve">
<metadata><?xpacket begin="﻿" id="W5M0MpCehiHzreSzNTczkc9d"?>
<x:xmpmeta xmlns:x="adobe:ns:meta/" x:xmptk="Adobe XMP Core 5.6-c143 79.161210, 2017/08/11-10:28:36        ">
   <rdf:RDF xmlns:rdf="http://www.w3.org/1999/02/22-rdf-syntax-ns#">
      <rdf:Description rdf:about=""/>
   </rdf:RDF>
</x:xmpmeta>
                                                                                                    
                                                                                                    
                                                                                                    
                                                                                                    
                                                                                                    
                                                                                                    
                                                                                                    
                                                                                                    
                                                                                                    
                                                                                                    
                                                                                                    
                                                                                                    
                                                                                                    
                                                                                                    
                                                                                                    
                                                                                                    
                                                                                                    
                                                                                                    
                                                                                                    
                                                                                                    
                           
<?xpacket end="w"?></metadata>
<style type="text/css">
	.st0{fill:#93C14A;}
</style>
<g>
	<g>
		<g>
			<path class="st0" d="M45.6,89.2C21.7,89.2,2.3,69.8,2.3,46S21.7,2.7,45.6,2.7S88.8,22.1,88.8,46S69.4,89.2,45.6,89.2z M45.6,4.5
				C22.7,4.5,4.1,23.1,4.1,46s18.6,41.5,41.5,41.5S87,68.8,87,46S68.4,4.5,45.6,4.5z"/>
		</g>
	</g>
</g>
<g>
	<path class="st0" d="M25.9,55.2c1.5,0,2.3,0.8,2.3,2v1.5c0,1.2-0.8,2-2.3,2c-1.5,0-2.3-0.8-2.3-2v-1.5
		C23.6,55.9,24.4,55.2,25.9,55.2z M25.9,56.2c-0.7,0-1.1,0.3-1.1,0.9v1.5c0,0.6,0.4,0.9,1.1,0.9c0.7,0,1.2-0.3,1.2-0.9v-1.5
		C27.1,56.6,26.7,56.2,25.9,56.2z"/>
	<path class="st0" d="M32.3,53.4v0.4c0,0.2-0.1,0.3-0.3,0.3c-0.8,0-1.1,0.3-1.1,1v0.1H32c0.2,0,0.3,0.1,0.3,0.3v0.5
		c0,0.2-0.1,0.3-0.3,0.3h-1.1v3.8c0,0.2-0.1,0.3-0.3,0.3H30c-0.2,0-0.3-0.1-0.3-0.3v-3.8H29c-0.2,0-0.3-0.1-0.3-0.3v-0.5
		c0-0.2,0.1-0.3,0.3-0.3h0.6v-0.1c0-1.4,0.7-2.1,2.2-2.1h0.1C32.2,53.1,32.3,53.2,32.3,53.4z"/>
	<path class="st0" d="M36.7,55.2c1.2,0,1.8,0.4,2.1,1.1c0.1,0.2,0.1,0.3-0.2,0.5l-0.4,0.2C38,57,38,57,37.8,56.7
		c-0.2-0.3-0.4-0.5-1.1-0.5c-0.6,0-0.9,0.2-0.9,0.5c0,0.5,0.4,0.5,1.2,0.6c1.2,0.1,2,0.4,2,1.6c0,1-0.7,1.7-2.2,1.7
		c-1.2,0-1.9-0.4-2.2-1.2c-0.1-0.2,0-0.3,0.2-0.4l0.4-0.1c0.2-0.1,0.3,0,0.4,0.2c0.2,0.4,0.5,0.5,1.1,0.5c0.7,0,1.1-0.2,1.1-0.6
		c0-0.5-0.4-0.6-1.2-0.6c-1-0.1-2-0.3-2-1.6C34.7,55.8,35.3,55.2,36.7,55.2z"/>
	<path class="st0" d="M41.9,55.2c1.6,0,2.1,0.9,2.1,2.1v2.6c0,0.3-0.1,0.5-0.4,0.6c-0.4,0.2-1,0.3-1.8,0.3c-1.8,0-2.2-0.6-2.2-1.6
		c0-1.2,0.7-1.6,2.3-1.6c0.4,0,0.8,0,1,0v-0.3c0-0.6-0.2-1-1-1c-0.5,0-0.8,0.2-1,0.5c-0.1,0.2-0.2,0.2-0.4,0.2L40,56.7
		c-0.2-0.1-0.3-0.2-0.2-0.5C40.2,55.6,40.8,55.2,41.9,55.2z M41.8,58.4c-0.8,0-1,0.2-1,0.6c0,0.4,0.2,0.7,0.9,0.7c0.5,0,0.8,0,1-0.1
		c0.1,0,0.1,0,0.1-0.1v-1C42.7,58.4,42.2,58.4,41.8,58.4z"/>
	<path class="st0" d="M49.4,55.7l-1.8,4.6c-0.1,0.2-0.2,0.3-0.4,0.3h-0.3c-0.2,0-0.3-0.1-0.4-0.3l-1.8-4.5c-0.1-0.3,0-0.4,0.2-0.4
		h0.4c0.4,0,0.5,0.1,0.5,0.3l0.9,2.4c0.2,0.5,0.3,1,0.3,1.1h0c0,0,0.1-0.6,0.3-1.1l0.9-2.4c0.1-0.2,0.2-0.3,0.6-0.3h0.4
		C49.5,55.3,49.5,55.4,49.4,55.7z"/>
	<path class="st0" d="M51.4,54L51.4,54c0,0.5-0.2,0.7-0.6,0.7h-0.1c-0.5,0-0.6-0.2-0.6-0.6V54c0-0.5,0.1-0.6,0.6-0.6h0.1
		C51.2,53.4,51.4,53.5,51.4,54z M51.3,55.6v4.6c0,0.2-0.1,0.3-0.3,0.3h-0.5c-0.2,0-0.3-0.1-0.3-0.3v-4.6c0-0.2,0.1-0.3,0.3-0.3H51
		C51.2,55.3,51.3,55.4,51.3,55.6z"/>
	<path class="st0" d="M54.8,55.2c1.4,0,2.1,0.7,2.1,2v3c0,0.2-0.1,0.3-0.3,0.3H56c-0.2,0-0.3-0.1-0.3-0.3v-3c0-0.7-0.4-1-1.1-1
		c-0.4,0-0.7,0.1-1,0.1c0,0-0.1,0.1-0.1,0.1v3.7c0,0.2-0.1,0.3-0.3,0.3h-0.6c-0.2,0-0.3-0.1-0.3-0.3v-4.1c0-0.3,0.1-0.4,0.4-0.6
		C53.2,55.4,53.8,55.2,54.8,55.2z"/>
	<path class="st0" d="M60.1,55.2c0.8,0,1.5,0.2,1.8,0.3c0.3,0.2,0.4,0.2,0.4,0.5v4.6c0,1.3-0.6,2.2-2.2,2.2c-1.1,0-1.7-0.4-2.1-1
		c-0.1-0.2-0.1-0.4,0.1-0.5l0.4-0.2c0.2-0.1,0.3-0.1,0.5,0.1c0.2,0.3,0.5,0.5,1,0.5c0.7,0,1.1-0.4,1.1-1.1v-0.5
		c-0.3,0.1-0.7,0.2-1.2,0.2c-1.4,0-2.1-0.8-2.1-2v-1.1C57.8,55.9,58.5,55.2,60.1,55.2z M60.1,56.2c-0.8,0-1.2,0.3-1.2,1.1v1.1
		c0,0.6,0.4,1,1.1,1c0.4,0,0.8-0.1,1-0.1v-2.7c0-0.1,0-0.1-0.1-0.1C60.8,56.3,60.5,56.2,60.1,56.2z"/>
	<path class="st0" d="M65.2,55.2c1.2,0,1.8,0.4,2.1,1.1c0.1,0.2,0.1,0.3-0.2,0.5l-0.5,0.2c-0.2,0.1-0.3,0.1-0.4-0.1
		c-0.2-0.3-0.4-0.5-1.1-0.5c-0.7,0-0.9,0.2-0.9,0.5c0,0.5,0.4,0.5,1.2,0.6c1.2,0.1,2,0.4,2,1.6c0,1-0.7,1.7-2.2,1.7
		c-1.2,0-1.9-0.4-2.2-1.2c-0.1-0.2,0-0.3,0.2-0.4l0.5-0.1c0.2-0.1,0.3,0,0.4,0.2c0.2,0.4,0.5,0.5,1.1,0.5c0.7,0,1.1-0.2,1.1-0.6
		c0-0.5-0.4-0.6-1.2-0.6c-1-0.1-2-0.3-2-1.6C63.2,55.8,63.9,55.2,65.2,55.2z"/>
	<path class="st0" d="M34.2,64.8v0.9h1.1c0.2,0,0.3,0.1,0.3,0.3v0.5c0,0.2-0.1,0.3-0.3,0.3h-1.1v2c0,1,0.3,1.1,1.1,1.1
		c0.2,0,0.3,0.1,0.3,0.3v0.5c0,0.2-0.1,0.3-0.3,0.3c-1.6,0-2.3-0.5-2.3-2.2v-2h-0.7c-0.2,0-0.3-0.1-0.3-0.3V66
		c0-0.2,0.1-0.3,0.3-0.3H33v-0.9c0-0.2,0.1-0.3,0.3-0.3h0.5C34.1,64.5,34.2,64.6,34.2,64.8z"/>
	<path class="st0" d="M38.4,65.5c1.6,0,2.1,0.9,2.1,2.1v2.6c0,0.3-0.1,0.5-0.4,0.6c-0.4,0.2-1,0.3-1.8,0.3c-1.8,0-2.2-0.6-2.2-1.6
		c0-1.2,0.7-1.6,2.3-1.6c0.4,0,0.8,0,1,0v-0.3c0-0.6-0.2-1-1-1c-0.5,0-0.8,0.2-1,0.5c-0.1,0.2-0.2,0.2-0.4,0.2L36.5,67
		c-0.2-0.1-0.3-0.2-0.2-0.5C36.7,65.9,37.4,65.5,38.4,65.5z M38.3,68.7c-0.8,0-1,0.2-1,0.6c0,0.4,0.2,0.7,0.9,0.7c0.5,0,0.8,0,1-0.1
		c0.1,0,0.1,0,0.1-0.1v-1C39.2,68.8,38.7,68.7,38.3,68.7z"/>
	<path class="st0" d="M44.2,65.5c0.2,0,0.3,0.1,0.3,0.3v0.4c0,0.2-0.1,0.3-0.3,0.3h-0.4c-0.4,0-0.7,0-0.9,0.1
		c-0.1,0-0.1,0.1-0.1,0.1v3.7c0,0.2-0.1,0.3-0.3,0.3h-0.5c-0.2,0-0.3-0.1-0.3-0.3v-4.1c0-0.3,0.1-0.4,0.4-0.6c0.4-0.1,1-0.3,1.9-0.3
		H44.2z"/>
	<path class="st0" d="M47.1,65.5c0.8,0,1.5,0.2,1.8,0.3c0.3,0.2,0.4,0.2,0.4,0.5V71c0,1.3-0.6,2.2-2.2,2.2c-1.1,0-1.7-0.4-2.1-1
		c-0.1-0.2-0.1-0.4,0.1-0.5l0.4-0.2c0.2-0.1,0.3-0.1,0.5,0.1c0.2,0.3,0.5,0.5,1,0.5c0.7,0,1.1-0.4,1.1-1.1v-0.5
		c-0.3,0.1-0.7,0.2-1.2,0.2c-1.4,0-2.1-0.8-2.1-2v-1.1C44.8,66.3,45.6,65.5,47.1,65.5z M47.2,66.6c-0.8,0-1.2,0.3-1.2,1.1v1.1
		c0,0.6,0.4,1,1.1,1c0.4,0,0.8-0.1,1-0.1v-2.7c0-0.1,0-0.1-0.1-0.1C47.8,66.7,47.5,66.6,47.2,66.6z"/>
	<path class="st0" d="M52.6,65.5c1.6,0,2.3,0.9,2.3,2.1v0.6c0,0.3-0.1,0.4-0.5,0.4h-3V69c0,0.6,0.4,1,1.1,1c0.6,0,1-0.2,1.2-0.5
		c0.2-0.2,0.3-0.2,0.5-0.1l0.3,0.2c0.2,0.1,0.3,0.3,0.1,0.5c-0.4,0.6-1,1-2.2,1c-1.6,0-2.3-0.9-2.3-2.1v-1.2
		C50.2,66.3,51,65.5,52.6,65.5z M52.6,66.5c-0.7,0-1.2,0.4-1.2,1v0.2h2.3v-0.2C53.7,66.9,53.3,66.5,52.6,66.5z"/>
	<path class="st0" d="M57.4,64.8v0.9h1.1c0.2,0,0.3,0.1,0.3,0.3v0.5c0,0.2-0.1,0.3-0.3,0.3h-1.1v2c0,1,0.3,1.1,1.1,1.1
		c0.2,0,0.3,0.1,0.3,0.3v0.5c0,0.2-0.1,0.3-0.3,0.3c-1.6,0-2.3-0.5-2.3-2.2v-2h-0.7c-0.2,0-0.3-0.1-0.3-0.3V66
		c0-0.2,0.1-0.3,0.3-0.3h0.7v-0.9c0-0.2,0.1-0.3,0.3-0.3h0.5C57.4,64.5,57.4,64.6,57.4,64.8z"/>
</g>
<g>
	<path class="st0" d="M24.5,28.1v20.1c0,0.8-0.3,1.1-1.1,1.1h-1.8c-0.8,0-1.1-0.3-1.1-1.1V31.8l-4.4,2.4c-0.8,0.5-1.2,0.3-1.6-0.4
		l-0.8-1.4c-0.4-0.7-0.2-1,0.5-1.4l6.1-3.5c0.6-0.3,0.8-0.4,1.5-0.4h1.5C24.2,27.1,24.5,27.3,24.5,28.1z"/>
	<path class="st0" d="M36.8,26.6c5.3,0,8.3,2.9,8.3,7.6v8.1c0,4.6-3,7.6-8.3,7.6s-8.3-2.9-8.3-7.6v-8.1
		C28.5,29.5,31.6,26.6,36.8,26.6z M36.8,30.3c-2.8,0-4.4,1.4-4.4,3.9v8.1c0,2.5,1.6,3.9,4.4,3.9s4.4-1.4,4.4-3.9v-8.1
		C41.2,31.7,39.6,30.3,36.8,30.3z"/>
	<path class="st0" d="M56.7,26.6c5.3,0,8.3,2.9,8.3,7.6v8.1c0,4.6-3,7.6-8.3,7.6s-8.3-2.9-8.3-7.6v-8.1
		C48.4,29.5,51.5,26.6,56.7,26.6z M56.7,30.3c-2.8,0-4.4,1.4-4.4,3.9v8.1c0,2.5,1.6,3.9,4.4,3.9s4.4-1.4,4.4-3.9v-8.1
		C61.1,31.7,59.5,30.3,56.7,30.3z"/>
</g>
<g>
	<path class="st0" d="M70.4,28.9c1.7,0,2.5,0.9,2.5,2.3v1.1c0,1.4-0.9,2.2-2.5,2.2s-2.5-0.9-2.5-2.2v-1.1
		C67.9,29.8,68.7,28.9,70.4,28.9z M78.2,29.6l-7.3,9.9c-0.3,0.4-0.4,0.5-1,0.5h-0.6c-0.4,0-0.5-0.2-0.3-0.5l7.3-9.9
		c0.3-0.4,0.4-0.4,1-0.4H78C78.3,29.1,78.4,29.4,78.2,29.6z M70.4,30.3c-0.7,0-1.1,0.3-1.1,0.9v0.9c0,0.6,0.4,0.9,1.1,0.9
		c0.7,0,1.1-0.3,1.1-0.9v-0.9C71.5,30.6,71.1,30.3,70.4,30.3z M76.9,34.6c1.7,0,2.5,0.9,2.5,2.3V38c0,1.4-0.9,2.2-2.5,2.2
		c-1.7,0-2.5-0.9-2.5-2.2v-1.1C74.3,35.5,75.2,34.6,76.9,34.6z M76.9,36c-0.7,0-1.1,0.3-1.1,0.9v0.9c0,0.6,0.4,0.9,1.1,0.9
		c0.7,0,1.1-0.3,1.1-0.9V37C77.9,36.4,77.6,36,76.9,36z"/>
</g>
</svg>
