<?xml version="1.0" encoding="utf-8"?>
<!-- Generator: Adobe Illustrator 22.0.1, SVG Export Plug-In . SVG Version: 6.00 Build 0)  -->
<svg version="1.1" id="Layer_1" xmlns="http://www.w3.org/2000/svg" xmlns:xlink="http://www.w3.org/1999/xlink" x="0px" y="0px"
	 viewBox="0 0 91.4 91.8" style="enable-background:new 0 0 91.4 91.8;" xml:space="preserve">
<metadata><?xpacket begin="﻿" id="W5M0MpCehiHzreSzNTczkc9d"?>
<x:xmpmeta xmlns:x="adobe:ns:meta/" x:xmptk="Adobe XMP Core 5.6-c143 79.161210, 2017/08/11-10:28:36        ">
   <rdf:RDF xmlns:rdf="http://www.w3.org/1999/02/22-rdf-syntax-ns#">
      <rdf:Description rdf:about=""/>
   </rdf:RDF>
</x:xmpmeta>
                                                                                                    
                                                                                                    
                                                                                                    
                                                                                                    
                                                                                                    
                                                                                                    
                                                                                                    
                                                                                                    
                                                                                                    
                                                                                                    
                                                                                                    
                                                                                                    
                                                                                                    
                                                                                                    
                                                                                                    
                                                                                                    
                                                                                                    
                                                                                                    
                                                                                                    
                                                                                                    
                           
<?xpacket end="w"?></metadata>
<style type="text/css">
	.st0{fill:#93C14A;}
	.st1{fill:#FFFFFF;}
</style>
<g>
	<g>
		<g>
			<g>
				<path class="st0" d="M45.7,89.2c-23.9,0-43.3-19.4-43.3-43.3S21.8,2.6,45.7,2.6S89,22,89,45.9S69.6,89.2,45.7,89.2z"/>
			</g>
		</g>
	</g>
	<g>
		<path class="st1" d="M26,55.1c1.5,0,2.3,0.8,2.3,2v1.5c0,1.2-0.8,2-2.3,2c-1.5,0-2.3-0.8-2.3-2v-1.5C23.7,55.9,24.6,55.1,26,55.1z
			 M26,56.1c-0.7,0-1.1,0.3-1.1,0.9v1.5c0,0.6,0.4,0.9,1.1,0.9c0.7,0,1.1-0.3,1.1-0.9v-1.5C27.2,56.5,26.8,56.1,26,56.1z"/>
		<path class="st1" d="M32.4,53.4v0.4c0,0.2-0.1,0.3-0.3,0.3c-0.8,0-1.1,0.3-1.1,1v0.1h1.1c0.2,0,0.3,0.1,0.3,0.3V56
			c0,0.2-0.1,0.3-0.3,0.3h-1.1v3.8c0,0.2-0.1,0.3-0.3,0.3h-0.5c-0.2,0-0.3-0.1-0.3-0.3v-3.8h-0.6c-0.2,0-0.3-0.1-0.3-0.3v-0.5
			c0-0.2,0.1-0.3,0.3-0.3h0.6v-0.1c0-1.4,0.7-2.1,2.2-2.1h0.1C32.3,53,32.4,53.1,32.4,53.4z"/>
		<path class="st1" d="M36.9,55.1c1.2,0,1.8,0.4,2.1,1.1c0.1,0.2,0.1,0.3-0.2,0.5l-0.4,0.2c-0.2,0.1-0.3,0.1-0.4-0.1
			c-0.2-0.3-0.4-0.5-1.1-0.5c-0.6,0-0.9,0.2-0.9,0.5c0,0.5,0.4,0.5,1.2,0.6c1.2,0.1,2,0.4,2,1.6c0,1-0.7,1.7-2.2,1.7
			c-1.2,0-1.9-0.4-2.2-1.2c-0.1-0.2,0-0.3,0.2-0.4l0.4-0.1c0.2-0.1,0.3,0,0.4,0.2c0.2,0.4,0.5,0.5,1.1,0.5c0.7,0,1.1-0.2,1.1-0.6
			c0-0.5-0.4-0.6-1.2-0.6c-1-0.1-2-0.3-2-1.6C34.8,55.8,35.5,55.1,36.9,55.1z"/>
		<path class="st1" d="M42,55.1c1.6,0,2.1,0.9,2.1,2.1v2.6c0,0.3-0.1,0.5-0.4,0.6c-0.4,0.2-1,0.3-1.8,0.3c-1.8,0-2.2-0.6-2.2-1.6
			c0-1.2,0.7-1.6,2.3-1.6c0.4,0,0.8,0,1,0v-0.3c0-0.6-0.2-1-1-1c-0.5,0-0.8,0.2-1,0.5c-0.1,0.2-0.2,0.2-0.4,0.2l-0.4-0.2
			c-0.2-0.1-0.3-0.2-0.2-0.5C40.3,55.5,41,55.1,42,55.1z M41.9,58.3c-0.8,0-1,0.2-1,0.6c0,0.4,0.2,0.7,0.9,0.7c0.5,0,0.8,0,1-0.1
			c0.1,0,0.1,0,0.1-0.1v-1C42.8,58.3,42.3,58.3,41.9,58.3z"/>
		<path class="st1" d="M49.5,55.6l-1.8,4.6c-0.1,0.2-0.2,0.3-0.4,0.3h-0.3c-0.2,0-0.3-0.1-0.4-0.3l-1.8-4.5c-0.1-0.3,0-0.4,0.2-0.4
			h0.4c0.4,0,0.5,0.1,0.5,0.3l0.9,2.4c0.2,0.5,0.3,1,0.3,1.1h0c0,0,0.1-0.6,0.3-1.1l0.9-2.4c0.1-0.2,0.2-0.3,0.6-0.3h0.4
			C49.6,55.2,49.7,55.3,49.5,55.6z"/>
		<path class="st1" d="M51.5,53.9L51.5,53.9c0,0.5-0.2,0.7-0.6,0.7h-0.1c-0.5,0-0.6-0.2-0.6-0.6v-0.1c0-0.5,0.2-0.6,0.6-0.6h0.1
			C51.3,53.3,51.5,53.4,51.5,53.9z M51.4,55.5v4.6c0,0.2-0.1,0.3-0.3,0.3h-0.6c-0.2,0-0.3-0.1-0.3-0.3v-4.6c0-0.2,0.1-0.3,0.3-0.3
			h0.6C51.3,55.2,51.4,55.3,51.4,55.5z"/>
		<path class="st1" d="M54.9,55.1c1.4,0,2.1,0.7,2.1,2v3c0,0.2-0.1,0.3-0.3,0.3h-0.5c-0.2,0-0.3-0.1-0.3-0.3v-3c0-0.7-0.4-1-1.1-1
			c-0.4,0-0.7,0.1-1,0.1c0,0-0.1,0.1-0.1,0.1v3.7c0,0.2-0.1,0.3-0.3,0.3h-0.5c-0.2,0-0.3-0.1-0.3-0.3V56c0-0.3,0.1-0.4,0.4-0.6
			C53.3,55.3,53.9,55.1,54.9,55.1z"/>
		<path class="st1" d="M60.2,55.1c0.8,0,1.5,0.2,1.8,0.3c0.3,0.2,0.4,0.2,0.4,0.5v4.6c0,1.3-0.6,2.2-2.2,2.2c-1.1,0-1.7-0.4-2.1-1
			c-0.1-0.2-0.1-0.4,0.1-0.5l0.4-0.2c0.2-0.1,0.3-0.1,0.5,0.1c0.2,0.3,0.5,0.5,1,0.5c0.7,0,1.1-0.4,1.1-1.1v-0.5
			c-0.3,0.1-0.7,0.2-1.2,0.2c-1.4,0-2.1-0.8-2.1-2v-1.1C57.9,55.8,58.7,55.1,60.2,55.1z M60.3,56.2c-0.8,0-1.2,0.3-1.2,1.1v1.1
			c0,0.6,0.4,1,1.1,1c0.4,0,0.8-0.1,1-0.1v-2.7c0-0.1,0-0.1-0.1-0.1C60.9,56.2,60.6,56.2,60.3,56.2z"/>
		<path class="st1" d="M65.4,55.1c1.2,0,1.8,0.4,2.1,1.1c0.1,0.2,0.1,0.3-0.2,0.5l-0.4,0.2c-0.2,0.1-0.3,0.1-0.4-0.1
			c-0.2-0.3-0.4-0.5-1.1-0.5c-0.6,0-0.9,0.2-0.9,0.5c0,0.5,0.4,0.5,1.2,0.6c1.2,0.1,2,0.4,2,1.6c0,1-0.7,1.7-2.2,1.7
			c-1.2,0-1.9-0.4-2.2-1.2c-0.1-0.2,0-0.3,0.2-0.4l0.4-0.1c0.2-0.1,0.3,0,0.4,0.2c0.2,0.4,0.5,0.5,1.1,0.5c0.7,0,1.1-0.2,1.1-0.6
			c0-0.5-0.4-0.6-1.2-0.6c-1-0.1-2-0.3-2-1.6C63.3,55.8,64,55.1,65.4,55.1z"/>
		<path class="st1" d="M34.3,64.7v0.9h1.1c0.2,0,0.3,0.1,0.3,0.3v0.5c0,0.2-0.1,0.3-0.3,0.3h-1.1v2c0,1,0.3,1.1,1.1,1.1
			c0.2,0,0.3,0.1,0.3,0.3v0.5c0,0.2-0.1,0.3-0.3,0.3c-1.6,0-2.3-0.5-2.3-2.2v-2h-0.7c-0.2,0-0.3-0.1-0.3-0.3v-0.5
			c0-0.2,0.1-0.3,0.3-0.3h0.7v-0.9c0-0.2,0.1-0.3,0.3-0.3H34C34.2,64.4,34.3,64.5,34.3,64.7z"/>
		<path class="st1" d="M38.5,65.5c1.6,0,2.1,0.9,2.1,2.1v2.6c0,0.3-0.1,0.5-0.4,0.6c-0.4,0.2-1,0.3-1.8,0.3c-1.8,0-2.2-0.6-2.2-1.6
			c0-1.2,0.7-1.6,2.3-1.6c0.4,0,0.8,0,1,0v-0.3c0-0.6-0.2-1-1-1c-0.5,0-0.8,0.2-1,0.5c-0.1,0.2-0.2,0.2-0.4,0.2l-0.4-0.2
			c-0.2-0.1-0.3-0.2-0.2-0.5C36.8,65.8,37.5,65.5,38.5,65.5z M38.4,68.7c-0.8,0-1,0.2-1,0.6c0,0.4,0.2,0.7,0.9,0.7
			c0.5,0,0.8,0,1-0.1c0.1,0,0.1,0,0.1-0.1v-1C39.3,68.7,38.8,68.7,38.4,68.7z"/>
		<path class="st1" d="M44.3,65.5c0.2,0,0.3,0.1,0.3,0.3v0.4c0,0.2-0.1,0.3-0.3,0.3h-0.4c-0.4,0-0.7,0-1,0.1c-0.1,0-0.1,0.1-0.1,0.1
			v3.7c0,0.2-0.1,0.3-0.3,0.3H42c-0.2,0-0.3-0.1-0.3-0.3v-4.1c0-0.3,0.1-0.4,0.4-0.6c0.4-0.1,1-0.3,1.9-0.3H44.3z"/>
		<path class="st1" d="M47.2,65.5c0.8,0,1.5,0.2,1.8,0.3c0.3,0.2,0.4,0.2,0.4,0.5V71c0,1.3-0.6,2.2-2.2,2.2c-1.1,0-1.7-0.4-2.1-1
			C45,72,45,71.8,45.3,71.7l0.4-0.2c0.2-0.1,0.3-0.1,0.5,0.1c0.2,0.3,0.5,0.5,1,0.5c0.7,0,1.1-0.4,1.1-1.1v-0.5
			c-0.3,0.1-0.7,0.2-1.2,0.2c-1.4,0-2.1-0.8-2.1-2v-1.1C45,66.2,45.7,65.5,47.2,65.5z M47.3,66.5c-0.8,0-1.2,0.3-1.2,1.1v1.1
			c0,0.6,0.4,1,1.1,1c0.4,0,0.8-0.1,1-0.1v-2.7c0-0.1,0-0.1-0.1-0.1C47.9,66.6,47.6,66.5,47.3,66.5z"/>
		<path class="st1" d="M52.7,65.5c1.6,0,2.3,0.9,2.3,2.1v0.6c0,0.3-0.1,0.4-0.4,0.4h-3v0.4c0,0.6,0.4,1,1.1,1c0.6,0,1-0.2,1.2-0.5
			c0.2-0.2,0.3-0.2,0.5-0.1l0.3,0.2c0.2,0.1,0.3,0.3,0.1,0.5c-0.4,0.6-1,1-2.2,1c-1.6,0-2.3-0.9-2.3-2.1v-1.2
			C50.4,66.2,51.2,65.5,52.7,65.5z M52.7,66.4c-0.8,0-1.2,0.4-1.2,1v0.2h2.3v-0.2C53.8,66.8,53.4,66.4,52.7,66.4z"/>
		<path class="st1" d="M57.6,64.7v0.9h1.1c0.2,0,0.3,0.1,0.3,0.3v0.5c0,0.2-0.1,0.3-0.3,0.3h-1.1v2c0,1,0.3,1.1,1.1,1.1
			c0.2,0,0.3,0.1,0.3,0.3v0.5c0,0.2-0.1,0.3-0.3,0.3c-1.6,0-2.3-0.5-2.3-2.2v-2h-0.7c-0.2,0-0.3-0.1-0.3-0.3v-0.5
			c0-0.2,0.1-0.3,0.3-0.3h0.7v-0.9c0-0.2,0.1-0.3,0.3-0.3h0.5C57.5,64.4,57.6,64.5,57.6,64.7z"/>
	</g>
	<g>
		<path class="st1" d="M24.6,28v20.1c0,0.8-0.2,1.1-1.1,1.1h-1.8c-0.8,0-1.1-0.3-1.1-1.1V31.7l-4.4,2.4c-0.8,0.5-1.2,0.3-1.6-0.4
			l-0.8-1.4c-0.4-0.7-0.2-1,0.5-1.4l6.1-3.5c0.6-0.3,0.8-0.4,1.5-0.4h1.5C24.4,27,24.6,27.3,24.6,28z"/>
		<path class="st1" d="M37,26.5c5.3,0,8.3,2.9,8.3,7.6v8.1c0,4.6-3,7.6-8.3,7.6c-5.3,0-8.3-2.9-8.3-7.6v-8.1
			C28.7,29.5,31.7,26.5,37,26.5z M37,30.2c-2.8,0-4.4,1.4-4.4,3.9v8.1c0,2.5,1.6,3.9,4.4,3.9c2.8,0,4.4-1.4,4.4-3.9v-8.1
			C41.3,31.6,39.7,30.2,37,30.2z"/>
		<path class="st1" d="M56.9,26.5c5.3,0,8.3,2.9,8.3,7.6v8.1c0,4.6-3,7.6-8.3,7.6c-5.3,0-8.3-2.9-8.3-7.6v-8.1
			C48.5,29.5,51.6,26.5,56.9,26.5z M56.9,30.2c-2.8,0-4.4,1.4-4.4,3.9v8.1c0,2.5,1.6,3.9,4.4,3.9c2.8,0,4.4-1.4,4.4-3.9v-8.1
			C61.2,31.6,59.6,30.2,56.9,30.2z"/>
	</g>
	<g>
		<path class="st1" d="M70.5,28.8c1.7,0,2.5,0.9,2.5,2.3v1.1c0,1.4-0.9,2.2-2.5,2.2c-1.7,0-2.5-0.9-2.5-2.2v-1.1
			C68,29.7,68.9,28.8,70.5,28.8z M78.4,29.5l-7.3,9.9c-0.3,0.4-0.4,0.5-1,0.5h-0.6c-0.4,0-0.5-0.2-0.3-0.5l7.3-9.9
			c0.3-0.4,0.4-0.4,1-0.4h0.7C78.5,29,78.5,29.3,78.4,29.5z M70.5,30.2c-0.7,0-1.1,0.3-1.1,0.9v0.9c0,0.6,0.4,0.9,1.1,0.9
			c0.7,0,1.1-0.3,1.1-0.9v-0.9C71.6,30.5,71.2,30.2,70.5,30.2z M77,34.5c1.7,0,2.5,0.9,2.5,2.3v1.1c0,1.4-0.9,2.2-2.5,2.2
			s-2.5-0.9-2.5-2.2v-1.1C74.5,35.4,75.3,34.5,77,34.5z M77,36c-0.7,0-1.1,0.3-1.1,0.9v0.9c0,0.6,0.4,0.9,1.1,0.9
			c0.7,0,1.1-0.3,1.1-0.9v-0.9C78,36.3,77.7,36,77,36z"/>
	</g>
</g>
</svg>
