<?xml version="1.0" encoding="utf-8"?>
<!-- Generator: Adobe Illustrator 22.0.1, SVG Export Plug-In . SVG Version: 6.00 Build 0)  -->
<svg version="1.1" id="Layer_1" xmlns="http://www.w3.org/2000/svg" xmlns:xlink="http://www.w3.org/1999/xlink" x="0px" y="0px"
	 viewBox="0 0 91.4 91.8" style="enable-background:new 0 0 91.4 91.8;" xml:space="preserve">
<metadata><?xpacket begin="﻿" id="W5M0MpCehiHzreSzNTczkc9d"?>
<x:xmpmeta xmlns:x="adobe:ns:meta/" x:xmptk="Adobe XMP Core 5.6-c143 79.161210, 2017/08/11-10:28:36        ">
   <rdf:RDF xmlns:rdf="http://www.w3.org/1999/02/22-rdf-syntax-ns#">
      <rdf:Description rdf:about=""/>
   </rdf:RDF>
</x:xmpmeta>
                                                                                                    
                                                                                                    
                                                                                                    
                                                                                                    
                                                                                                    
                                                                                                    
                                                                                                    
                                                                                                    
                                                                                                    
                                                                                                    
                                                                                                    
                                                                                                    
                                                                                                    
                                                                                                    
                                                                                                    
                                                                                                    
                                                                                                    
                                                                                                    
                                                                                                    
                                                                                                    
                           
<?xpacket end="w"?></metadata>
<style type="text/css">
	.st0{fill:#93C14A;}
	.st1{fill:#FFFFFF;}
</style>
<g>
	<g>
		<g>
			<path class="st0" d="M45.5,89.3C21.7,89.3,2.2,69.9,2.2,46S21.7,2.8,45.5,2.8S88.8,22.2,88.8,46S69.4,89.3,45.5,89.3z"/>
		</g>
	</g>
</g>
<g>
	<path class="st1" d="M25.7,55.3c1.5,0,2.3,0.8,2.3,2v1.5c0,1.2-0.8,2-2.3,2c-1.5,0-2.3-0.8-2.3-2v-1.5
		C23.4,56.1,24.2,55.3,25.7,55.3z M25.7,56.4c-0.7,0-1.1,0.3-1.1,0.9v1.5c0,0.6,0.4,0.9,1.1,0.9c0.7,0,1.1-0.3,1.1-0.9v-1.5
		C26.9,56.7,26.5,56.4,25.7,56.4z"/>
	<path class="st1" d="M32.1,53.6V54c0,0.2-0.1,0.3-0.3,0.3c-0.8,0-1.1,0.3-1.1,1v0.1h1.1c0.2,0,0.3,0.1,0.3,0.3v0.5
		c0,0.2-0.1,0.3-0.3,0.3h-1.1v3.8c0,0.2-0.1,0.3-0.3,0.3h-0.5c-0.2,0-0.3-0.1-0.3-0.3v-3.8h-0.6c-0.2,0-0.3-0.1-0.3-0.3v-0.5
		c0-0.2,0.1-0.3,0.3-0.3h0.6v-0.1c0-1.4,0.7-2.1,2.2-2.1h0.1C32,53.3,32.1,53.4,32.1,53.6z"/>
	<path class="st1" d="M36.5,55.3c1.2,0,1.8,0.4,2.1,1.1c0.1,0.2,0.1,0.3-0.2,0.5L38.1,57c-0.2,0.1-0.3,0.1-0.4-0.1
		c-0.2-0.3-0.4-0.5-1.1-0.5c-0.6,0-0.9,0.2-0.9,0.5c0,0.5,0.4,0.5,1.2,0.6c1.2,0.1,2,0.4,2,1.6c0,1-0.7,1.7-2.2,1.7
		c-1.2,0-1.9-0.4-2.2-1.2c-0.1-0.2,0-0.3,0.2-0.4l0.4-0.1c0.2-0.1,0.3,0,0.4,0.2c0.2,0.4,0.5,0.5,1.1,0.5c0.7,0,1.1-0.2,1.1-0.6
		c0-0.5-0.4-0.6-1.2-0.6c-1-0.1-2-0.3-2-1.6C34.5,56,35.1,55.3,36.5,55.3z"/>
	<path class="st1" d="M41.7,55.3c1.6,0,2.1,0.9,2.1,2.1V60c0,0.3-0.1,0.5-0.4,0.6c-0.4,0.2-1,0.3-1.8,0.3c-1.8,0-2.2-0.6-2.2-1.6
		c0-1.2,0.7-1.6,2.3-1.6c0.4,0,0.8,0,1,0v-0.3c0-0.6-0.2-1-1-1c-0.5,0-0.8,0.2-1,0.5c-0.1,0.2-0.2,0.2-0.4,0.2l-0.4-0.2
		c-0.2-0.1-0.3-0.2-0.2-0.5C39.9,55.7,40.6,55.3,41.7,55.3z M41.6,58.5c-0.8,0-1,0.2-1,0.6c0,0.4,0.2,0.7,0.9,0.7c0.5,0,0.8,0,1-0.1
		c0.1,0,0.1,0,0.1-0.1v-1C42.4,58.6,42,58.5,41.6,58.5z"/>
	<path class="st1" d="M49.2,55.8l-1.8,4.6c-0.1,0.2-0.2,0.3-0.4,0.3h-0.3c-0.2,0-0.3-0.1-0.4-0.3l-1.8-4.5c-0.1-0.3,0-0.4,0.2-0.4
		H45c0.4,0,0.5,0.1,0.5,0.3l0.9,2.4c0.2,0.5,0.3,1,0.3,1.1h0c0,0,0.1-0.6,0.3-1.1l0.9-2.4c0.1-0.2,0.2-0.3,0.6-0.3H49
		C49.3,55.5,49.3,55.6,49.2,55.8z"/>
	<path class="st1" d="M51.2,54.2L51.2,54.2c0,0.5-0.2,0.7-0.6,0.7h-0.1c-0.5,0-0.6-0.2-0.6-0.6v-0.1c0-0.5,0.2-0.6,0.6-0.6h0.1
		C51,53.6,51.2,53.7,51.2,54.2z M51.1,55.8v4.6c0,0.2-0.1,0.3-0.3,0.3h-0.6c-0.2,0-0.3-0.1-0.3-0.3v-4.6c0-0.2,0.1-0.3,0.3-0.3h0.6
		C51,55.5,51.1,55.6,51.1,55.8z"/>
	<path class="st1" d="M54.6,55.3c1.4,0,2.1,0.7,2.1,2v3c0,0.2-0.1,0.3-0.3,0.3h-0.5c-0.2,0-0.3-0.1-0.3-0.3v-3c0-0.7-0.4-1-1.1-1
		c-0.4,0-0.7,0.1-1,0.1c0,0-0.1,0.1-0.1,0.1v3.7c0,0.2-0.1,0.3-0.3,0.3h-0.5c-0.2,0-0.3-0.1-0.3-0.3v-4.1c0-0.3,0.1-0.4,0.4-0.6
		C53,55.5,53.6,55.3,54.6,55.3z"/>
	<path class="st1" d="M59.9,55.3c0.8,0,1.5,0.2,1.8,0.3c0.3,0.2,0.4,0.2,0.4,0.5v4.6c0,1.3-0.6,2.2-2.2,2.2c-1.1,0-1.7-0.4-2.1-1
		c-0.1-0.2-0.1-0.4,0.1-0.5l0.4-0.2c0.2-0.1,0.3-0.1,0.5,0.1c0.2,0.3,0.5,0.5,1,0.5c0.7,0,1.1-0.4,1.1-1.1v-0.5
		c-0.3,0.1-0.7,0.2-1.2,0.2c-1.4,0-2.1-0.8-2.1-2v-1.1C57.6,56.1,58.3,55.3,59.9,55.3z M59.9,56.4c-0.8,0-1.2,0.3-1.2,1.1v1.1
		c0,0.6,0.4,1,1.1,1c0.4,0,0.8-0.1,1-0.1v-2.7c0-0.1,0-0.1-0.1-0.1C60.6,56.5,60.3,56.4,59.9,56.4z"/>
	<path class="st1" d="M65,55.3c1.2,0,1.8,0.4,2.1,1.1c0.1,0.2,0.1,0.3-0.2,0.5L66.6,57c-0.2,0.1-0.3,0.1-0.4-0.1
		c-0.2-0.3-0.4-0.5-1.1-0.5c-0.6,0-0.9,0.2-0.9,0.5c0,0.5,0.4,0.5,1.2,0.6c1.2,0.1,2,0.4,2,1.6c0,1-0.7,1.7-2.2,1.7
		c-1.2,0-1.9-0.4-2.2-1.2c-0.1-0.2,0-0.3,0.2-0.4l0.4-0.1c0.2-0.1,0.3,0,0.4,0.2c0.2,0.4,0.5,0.5,1.1,0.5c0.7,0,1.1-0.2,1.1-0.6
		c0-0.5-0.4-0.6-1.2-0.6c-1-0.1-2-0.3-2-1.6C63,56,63.6,55.3,65,55.3z"/>
	<path class="st1" d="M34,64.9v0.9h1.1c0.2,0,0.3,0.1,0.3,0.3v0.5c0,0.2-0.1,0.3-0.3,0.3H34v2c0,1,0.3,1.1,1.1,1.1
		c0.2,0,0.3,0.1,0.3,0.3v0.5c0,0.2-0.1,0.3-0.3,0.3c-1.6,0-2.3-0.5-2.3-2.2v-2h-0.7c-0.2,0-0.3-0.1-0.3-0.3v-0.5
		c0-0.2,0.1-0.3,0.3-0.3h0.7v-0.9c0-0.2,0.1-0.3,0.3-0.3h0.5C33.9,64.6,34,64.7,34,64.9z"/>
	<path class="st1" d="M38.2,65.7c1.6,0,2.1,0.9,2.1,2.1v2.6c0,0.3-0.1,0.5-0.4,0.6c-0.4,0.2-1,0.3-1.8,0.3c-1.8,0-2.2-0.6-2.2-1.6
		c0-1.2,0.7-1.6,2.3-1.6c0.4,0,0.8,0,1,0v-0.3c0-0.6-0.2-1-1-1c-0.5,0-0.8,0.2-1,0.5c-0.1,0.2-0.2,0.2-0.4,0.2l-0.4-0.2
		c-0.2-0.1-0.3-0.2-0.2-0.5C36.5,66.1,37.2,65.7,38.2,65.7z M38.1,68.9c-0.8,0-1,0.2-1,0.6c0,0.4,0.2,0.7,0.9,0.7c0.5,0,0.8,0,1-0.1
		c0.1,0,0.1,0,0.1-0.1v-1C39,68.9,38.5,68.9,38.1,68.9z"/>
	<path class="st1" d="M44,65.7c0.2,0,0.3,0.1,0.3,0.3v0.4c0,0.2-0.1,0.3-0.3,0.3h-0.4c-0.4,0-0.7,0-1,0.1c-0.1,0-0.1,0.1-0.1,0.1
		v3.7c0,0.2-0.1,0.3-0.3,0.3h-0.6c-0.2,0-0.3-0.1-0.3-0.3v-4.1c0-0.3,0.1-0.4,0.4-0.6c0.4-0.1,1-0.3,1.9-0.3H44z"/>
	<path class="st1" d="M46.9,65.7c0.8,0,1.5,0.2,1.8,0.3c0.3,0.2,0.4,0.2,0.4,0.5v4.6c0,1.3-0.6,2.2-2.2,2.2c-1.1,0-1.7-0.4-2.1-1
		c-0.1-0.2-0.1-0.4,0.1-0.5l0.4-0.2c0.2-0.1,0.3-0.1,0.5,0.1c0.2,0.3,0.5,0.5,1,0.5c0.7,0,1.1-0.4,1.1-1.1v-0.5
		c-0.3,0.1-0.7,0.2-1.2,0.2c-1.4,0-2.1-0.8-2.1-2v-1.1C44.6,66.4,45.4,65.7,46.9,65.7z M47,66.8c-0.8,0-1.2,0.3-1.2,1.1v1.1
		c0,0.6,0.4,1,1.1,1c0.4,0,0.8-0.1,1-0.1V67c0-0.1,0-0.1-0.1-0.1C47.6,66.8,47.3,66.8,47,66.8z"/>
	<path class="st1" d="M52.4,65.7c1.6,0,2.3,0.9,2.3,2.1v0.6c0,0.3-0.1,0.4-0.4,0.4h-3v0.4c0,0.6,0.4,1,1.1,1c0.6,0,1-0.2,1.2-0.5
		c0.2-0.2,0.3-0.2,0.5-0.1l0.3,0.2c0.2,0.1,0.3,0.3,0.1,0.5c-0.4,0.6-1,1-2.2,1c-1.6,0-2.3-0.9-2.3-2.1v-1.2
		C50,66.5,50.8,65.7,52.4,65.7z M52.4,66.7c-0.8,0-1.2,0.4-1.2,1v0.2h2.3v-0.2C53.5,67,53.1,66.7,52.4,66.7z"/>
	<path class="st1" d="M57.2,64.9v0.9h1.1c0.2,0,0.3,0.1,0.3,0.3v0.5c0,0.2-0.1,0.3-0.3,0.3h-1.1v2c0,1,0.3,1.1,1.1,1.1
		c0.2,0,0.3,0.1,0.3,0.3v0.5c0,0.2-0.1,0.3-0.3,0.3c-1.6,0-2.3-0.5-2.3-2.2v-2h-0.7c-0.2,0-0.3-0.1-0.3-0.3v-0.5
		c0-0.2,0.1-0.3,0.3-0.3h0.7v-0.9c0-0.2,0.1-0.3,0.3-0.3h0.5C57.1,64.6,57.2,64.7,57.2,64.9z"/>
</g>
<g>
	<g>
		<path class="st1" d="M32.5,25c4.8,0,7.6,3.3,7.6,7c0,4.7-2.4,6.5-8.7,9c-1.3,0.5-3.2,1.1-3.2,2.5v0.6h10.5c0.8,0,1.1,0.3,1.1,1.1
			v1.5c0,0.8-0.3,1.1-1.1,1.1H25.1c-0.8,0-1.1-0.3-1.1-1.1v-2.4c0-4.3,3.1-5.7,6.2-6.9c2.9-1.1,5.7-2.1,5.7-5.2
			c0-1.9-1.4-3.5-3.6-3.5c-2.2,0-3.5,0.9-4.3,2.8c-0.3,0.8-0.6,0.9-1.4,0.7l-1.7-0.6c-0.8-0.3-1-0.6-0.7-1.3C25.5,27,28,25,32.5,25z
			"/>
		<path class="st1" d="M58,26.5v1.5c0,0.8-0.3,1.1-1.1,1.1h-9l-0.5,4.6h3.8c5.2,0,7.6,3.2,7.6,7.1c0,4-2.9,7.4-7.9,7.4
			c-4.7,0-7.3-1.8-8.5-5.1c-0.3-0.8-0.1-1.1,0.7-1.4l1.7-0.6c0.8-0.3,1.1-0.1,1.3,0.7c0.7,1.8,2,2.8,4.7,2.8c2.2,0,3.8-1.3,3.8-3.7
			c0-2.1-1.5-3.4-3.7-3.4h-6.6c-0.9,0-1.2-0.4-1.1-1.3l0.9-9.1c0.1-1.2,0.5-1.5,1.7-1.5H57C57.8,25.5,58,25.7,58,26.5z"/>
	</g>
	<g>
		<path class="st1" d="M63.7,26.3c1.7,0,2.5,0.9,2.5,2.3v1.1c0,1.4-0.9,2.2-2.5,2.2c-1.7,0-2.5-0.9-2.5-2.2v-1.1
			C61.2,27.2,62,26.3,63.7,26.3z M71.5,27l-7.3,9.9c-0.3,0.4-0.4,0.5-1,0.5h-0.6c-0.4,0-0.5-0.2-0.3-0.5l7.3-9.9
			c0.3-0.4,0.4-0.4,1-0.4h0.7C71.6,26.5,71.7,26.8,71.5,27z M63.7,27.7c-0.7,0-1.1,0.3-1.1,0.9v0.9c0,0.6,0.4,0.9,1.1,0.9
			c0.7,0,1.1-0.3,1.1-0.9v-0.9C64.8,28,64.4,27.7,63.7,27.7z M70.2,32c1.7,0,2.5,0.9,2.5,2.3v1.1c0,1.4-0.9,2.2-2.5,2.2
			s-2.5-0.9-2.5-2.2v-1.1C67.6,32.9,68.5,32,70.2,32z M70.2,33.4c-0.7,0-1.1,0.3-1.1,0.9v0.9c0,0.6,0.4,0.9,1.1,0.9
			c0.7,0,1.1-0.3,1.1-0.9v-0.9C71.2,33.8,70.9,33.4,70.2,33.4z"/>
	</g>
</g>
</svg>
