<?xml version="1.0" encoding="utf-8"?>
<!-- Generator: Adobe Illustrator 22.0.1, SVG Export Plug-In . SVG Version: 6.00 Build 0)  -->
<svg version="1.1" id="Layer_1" xmlns="http://www.w3.org/2000/svg" xmlns:xlink="http://www.w3.org/1999/xlink" x="0px" y="0px"
	 viewBox="0 0 91.4 91.8" style="enable-background:new 0 0 91.4 91.8;" xml:space="preserve">
<metadata><?xpacket begin="﻿" id="W5M0MpCehiHzreSzNTczkc9d"?>
<x:xmpmeta xmlns:x="adobe:ns:meta/" x:xmptk="Adobe XMP Core 5.6-c143 79.161210, 2017/08/11-10:28:36        ">
   <rdf:RDF xmlns:rdf="http://www.w3.org/1999/02/22-rdf-syntax-ns#">
      <rdf:Description rdf:about=""/>
   </rdf:RDF>
</x:xmpmeta>
                                                                                                    
                                                                                                    
                                                                                                    
                                                                                                    
                                                                                                    
                                                                                                    
                                                                                                    
                                                                                                    
                                                                                                    
                                                                                                    
                                                                                                    
                                                                                                    
                                                                                                    
                                                                                                    
                                                                                                    
                                                                                                    
                                                                                                    
                                                                                                    
                                                                                                    
                                                                                                    
                           
<?xpacket end="w"?></metadata>
<style type="text/css">
	.st0{fill:#93C14A;}
</style>
<g>
	<g>
		<path class="st0" d="M25.8,55.2c1.5,0,2.3,0.8,2.3,2v1.5c0,1.2-0.8,2-2.3,2c-1.5,0-2.3-0.8-2.3-2v-1.5
			C23.5,55.9,24.3,55.2,25.8,55.2z M25.8,56.2c-0.7,0-1.1,0.3-1.1,0.9v1.5c0,0.6,0.4,0.9,1.1,0.9c0.7,0,1.2-0.3,1.2-0.9v-1.5
			C26.9,56.6,26.5,56.2,25.8,56.2z"/>
		<path class="st0" d="M32.1,53.4v0.4c0,0.2-0.1,0.3-0.3,0.3c-0.8,0-1.1,0.3-1.1,1v0.1h1.1c0.2,0,0.3,0.1,0.3,0.3v0.5
			c0,0.2-0.1,0.3-0.3,0.3h-1.1v3.8c0,0.2-0.1,0.3-0.3,0.3h-0.5c-0.2,0-0.3-0.1-0.3-0.3v-3.8h-0.6c-0.2,0-0.3-0.1-0.3-0.3v-0.5
			c0-0.2,0.1-0.3,0.3-0.3h0.6v-0.1c0-1.4,0.7-2.1,2.2-2.1h0.1C32,53.1,32.1,53.2,32.1,53.4z"/>
		<path class="st0" d="M36.6,55.2c1.2,0,1.8,0.4,2.1,1.1c0.1,0.2,0.1,0.3-0.2,0.5l-0.4,0.2c-0.2,0.1-0.3,0.1-0.4-0.1
			c-0.2-0.3-0.4-0.5-1.1-0.5c-0.6,0-0.9,0.2-0.9,0.5c0,0.5,0.4,0.5,1.2,0.6c1.2,0.1,2,0.4,2,1.6c0,1-0.7,1.7-2.2,1.7
			c-1.2,0-1.9-0.4-2.2-1.2c-0.1-0.2,0-0.3,0.2-0.4l0.4-0.1c0.2-0.1,0.3,0,0.4,0.2c0.2,0.4,0.5,0.5,1.1,0.5c0.7,0,1.1-0.2,1.1-0.6
			c0-0.5-0.4-0.6-1.2-0.6c-1-0.1-2-0.3-2-1.6C34.5,55.8,35.2,55.2,36.6,55.2z"/>
		<path class="st0" d="M41.7,55.2c1.6,0,2.1,0.9,2.1,2.1v2.6c0,0.3-0.1,0.5-0.4,0.6c-0.4,0.2-1,0.3-1.8,0.3c-1.8,0-2.2-0.6-2.2-1.6
			c0-1.2,0.7-1.6,2.3-1.6c0.4,0,0.8,0,1,0v-0.3c0-0.6-0.2-1-1-1c-0.5,0-0.8,0.2-1,0.5c-0.1,0.2-0.2,0.2-0.4,0.2l-0.4-0.2
			c-0.2-0.1-0.3-0.2-0.2-0.5C40,55.6,40.7,55.2,41.7,55.2z M41.6,58.4c-0.8,0-1,0.2-1,0.6c0,0.4,0.2,0.7,0.9,0.7c0.5,0,0.8,0,1-0.1
			c0.1,0,0.1,0,0.1-0.1v-1C42.5,58.4,42,58.4,41.6,58.4z"/>
		<path class="st0" d="M49.3,55.7l-1.8,4.6c-0.1,0.2-0.2,0.3-0.4,0.3h-0.3c-0.2,0-0.3-0.1-0.4-0.3l-1.8-4.5c-0.1-0.3,0-0.4,0.2-0.4
			H45c0.4,0,0.5,0.1,0.5,0.3l0.9,2.4c0.2,0.5,0.3,1,0.3,1.1h0c0,0,0.1-0.6,0.3-1.1l0.9-2.4c0.1-0.2,0.2-0.3,0.6-0.3H49
			C49.3,55.3,49.4,55.4,49.3,55.7z"/>
		<path class="st0" d="M51.2,54L51.2,54c0,0.5-0.2,0.7-0.6,0.7h-0.1c-0.5,0-0.6-0.2-0.6-0.6V54c0-0.5,0.1-0.6,0.6-0.6h0.1
			C51,53.4,51.2,53.5,51.2,54z M51.1,55.6v4.6c0,0.2-0.1,0.3-0.3,0.3h-0.5c-0.2,0-0.3-0.1-0.3-0.3v-4.6c0-0.2,0.1-0.3,0.3-0.3h0.5
			C51.1,55.3,51.1,55.4,51.1,55.6z"/>
		<path class="st0" d="M54.6,55.2c1.4,0,2.1,0.7,2.1,2v3c0,0.2-0.1,0.3-0.3,0.3h-0.5c-0.2,0-0.3-0.1-0.3-0.3v-3c0-0.7-0.4-1-1.1-1
			c-0.4,0-0.7,0.1-1,0.1c0,0-0.1,0.1-0.1,0.1v3.7c0,0.2-0.1,0.3-0.3,0.3h-0.6c-0.2,0-0.3-0.1-0.3-0.3v-4.1c0-0.3,0.1-0.4,0.4-0.6
			C53.1,55.4,53.7,55.2,54.6,55.2z"/>
		<path class="st0" d="M59.9,55.2c0.8,0,1.5,0.2,1.8,0.3c0.3,0.2,0.4,0.2,0.4,0.5v4.6c0,1.3-0.6,2.2-2.2,2.2c-1.1,0-1.7-0.4-2.1-1
			c-0.1-0.2-0.1-0.4,0.1-0.5l0.4-0.2c0.2-0.1,0.3-0.1,0.5,0.1c0.2,0.3,0.5,0.5,1,0.5c0.7,0,1.1-0.4,1.1-1.1v-0.5
			c-0.3,0.1-0.7,0.2-1.2,0.2c-1.4,0-2.1-0.8-2.1-2v-1.1C57.6,55.9,58.4,55.2,59.9,55.2z M60,56.2c-0.8,0-1.2,0.3-1.2,1.1v1.1
			c0,0.6,0.4,1,1.1,1c0.4,0,0.8-0.1,1-0.1v-2.7c0-0.1,0-0.1-0.1-0.1C60.6,56.3,60.3,56.2,60,56.2z"/>
		<path class="st0" d="M65.1,55.2c1.2,0,1.8,0.4,2.1,1.1c0.1,0.2,0.1,0.3-0.2,0.5l-0.5,0.2c-0.2,0.1-0.3,0.1-0.4-0.1
			c-0.2-0.3-0.4-0.5-1.1-0.5c-0.7,0-0.9,0.2-0.9,0.5c0,0.5,0.4,0.5,1.2,0.6c1.2,0.1,2,0.4,2,1.6c0,1-0.7,1.7-2.2,1.7
			c-1.2,0-1.9-0.4-2.2-1.2c-0.1-0.2,0-0.3,0.2-0.4l0.5-0.1c0.2-0.1,0.3,0,0.4,0.2c0.2,0.4,0.5,0.5,1.1,0.5c0.7,0,1.1-0.2,1.1-0.6
			c0-0.5-0.4-0.6-1.2-0.6c-1-0.1-2-0.3-2-1.6C63,55.8,63.7,55.2,65.1,55.2z"/>
		<path class="st0" d="M34,64.8v0.9h1.1c0.2,0,0.3,0.1,0.3,0.3v0.5c0,0.2-0.1,0.3-0.3,0.3H34v2c0,1,0.3,1.1,1.1,1.1
			c0.2,0,0.3,0.1,0.3,0.3v0.5c0,0.2-0.1,0.3-0.3,0.3c-1.6,0-2.3-0.5-2.3-2.2v-2h-0.7c-0.2,0-0.3-0.1-0.3-0.3V66
			c0-0.2,0.1-0.3,0.3-0.3h0.7v-0.9c0-0.2,0.1-0.3,0.3-0.3h0.5C34,64.5,34,64.6,34,64.8z"/>
		<path class="st0" d="M38.2,65.5c1.6,0,2.1,0.9,2.1,2.1v2.6c0,0.3-0.1,0.5-0.4,0.6c-0.4,0.2-1,0.3-1.8,0.3c-1.8,0-2.2-0.6-2.2-1.6
			c0-1.2,0.7-1.6,2.3-1.6c0.4,0,0.8,0,1,0v-0.3c0-0.6-0.2-1-1-1c-0.5,0-0.8,0.2-1,0.5c-0.1,0.2-0.2,0.2-0.4,0.2L36.3,67
			c-0.2-0.1-0.3-0.2-0.2-0.5C36.5,65.9,37.2,65.5,38.2,65.5z M38.1,68.7c-0.8,0-1,0.2-1,0.6c0,0.4,0.2,0.7,0.9,0.7
			c0.5,0,0.8,0,1-0.1c0.1,0,0.1,0,0.1-0.1v-1C39,68.8,38.5,68.7,38.1,68.7z"/>
		<path class="st0" d="M44,65.5c0.2,0,0.3,0.1,0.3,0.3v0.4c0,0.2-0.1,0.3-0.3,0.3h-0.4c-0.4,0-0.7,0-0.9,0.1c-0.1,0-0.1,0.1-0.1,0.1
			v3.7c0,0.2-0.1,0.3-0.3,0.3h-0.5c-0.2,0-0.3-0.1-0.3-0.3v-4.1c0-0.3,0.1-0.4,0.4-0.6c0.4-0.1,1-0.3,1.9-0.3H44z"/>
		<path class="st0" d="M46.9,65.5c0.8,0,1.5,0.2,1.8,0.3c0.3,0.2,0.4,0.2,0.4,0.5V71c0,1.3-0.6,2.2-2.2,2.2c-1.1,0-1.7-0.4-2.1-1
			c-0.2-0.2-0.1-0.4,0.1-0.5l0.4-0.2c0.2-0.1,0.3-0.1,0.5,0.1c0.2,0.3,0.5,0.5,1,0.5c0.7,0,1.1-0.4,1.1-1.1v-0.5
			c-0.3,0.1-0.7,0.2-1.2,0.2c-1.4,0-2.1-0.8-2.1-2v-1.1C44.7,66.3,45.4,65.5,46.9,65.5z M47,66.6c-0.8,0-1.2,0.3-1.2,1.1v1.1
			c0,0.6,0.4,1,1.1,1c0.4,0,0.8-0.1,1-0.1v-2.7c0-0.1,0-0.1-0.1-0.1C47.7,66.6,47.4,66.6,47,66.6z"/>
		<path class="st0" d="M52.4,65.5c1.6,0,2.3,0.9,2.3,2.1v0.6c0,0.3-0.1,0.4-0.5,0.4h-3V69c0,0.6,0.4,1,1.1,1c0.6,0,1-0.2,1.2-0.5
			c0.2-0.2,0.3-0.2,0.5-0.1l0.3,0.2c0.2,0.1,0.3,0.3,0.1,0.5c-0.4,0.6-1,1-2.2,1c-1.6,0-2.3-0.9-2.3-2.1v-1.2
			C50.1,66.3,50.9,65.5,52.4,65.5z M52.4,66.5c-0.8,0-1.2,0.4-1.2,1v0.2h2.3v-0.2C53.5,66.9,53.2,66.5,52.4,66.5z"/>
		<path class="st0" d="M57.3,64.8v0.9h1.1c0.2,0,0.3,0.1,0.3,0.3v0.5c0,0.2-0.1,0.3-0.3,0.3h-1.1v2c0,1,0.3,1.1,1.1,1.1
			c0.2,0,0.3,0.1,0.3,0.3v0.5c0,0.2-0.1,0.3-0.3,0.3c-1.6,0-2.3-0.5-2.3-2.2v-2h-0.7c-0.2,0-0.3-0.1-0.3-0.3V66
			c0-0.2,0.1-0.3,0.3-0.3h0.7v-0.9c0-0.2,0.1-0.3,0.3-0.3H57C57.2,64.5,57.3,64.6,57.3,64.8z"/>
	</g>
	<g>
		<g>
			<g>
				<path class="st0" d="M45.6,89.2c-23.9,0-43.3-19.4-43.3-43.3S21.7,2.6,45.6,2.6S88.8,22,88.8,45.9S69.4,89.2,45.6,89.2z
					 M45.6,4.4C22.7,4.4,4.1,23,4.1,45.9s18.6,41.5,41.5,41.5S87,68.7,87,45.9S68.4,4.4,45.6,4.4z"/>
			</g>
		</g>
	</g>
	<g>
		<g>
			<path class="st0" d="M32.5,24.8c4.8,0,7.6,3.3,7.6,7c0,4.7-2.4,6.5-8.7,9c-1.3,0.5-3.2,1.1-3.2,2.5v0.6h10.5
				c0.8,0,1.1,0.3,1.1,1.1v1.5c0,0.8-0.3,1.1-1.1,1.1H25.2c-0.8,0-1.1-0.3-1.1-1.1v-2.4c0-4.3,3.1-5.7,6.2-6.9
				c2.9-1.1,5.7-2.1,5.7-5.2c0-1.9-1.4-3.5-3.6-3.5c-2.2,0-3.5,0.9-4.3,2.8c-0.3,0.8-0.6,0.9-1.4,0.7L25,31.3
				c-0.8-0.3-1-0.6-0.7-1.3C25.6,26.9,28,24.8,32.5,24.8z"/>
			<path class="st0" d="M58.1,26.4v1.5c0,0.8-0.2,1.1-1.1,1.1h-9l-0.5,4.6h3.8c5.2,0,7.6,3.2,7.6,7.1c0,4-2.9,7.4-7.9,7.4
				c-4.7,0-7.3-1.8-8.5-5.1c-0.3-0.8-0.1-1.1,0.7-1.4l1.7-0.6c0.8-0.3,1.1-0.1,1.3,0.7c0.7,1.8,2,2.8,4.7,2.8c2.2,0,3.8-1.3,3.8-3.7
				c0-2.1-1.5-3.4-3.7-3.4h-6.6c-0.9,0-1.2-0.4-1.1-1.3l0.9-9.1c0.1-1.2,0.5-1.5,1.7-1.5H57C57.8,25.3,58.1,25.6,58.1,26.4z"/>
		</g>
		<g>
			<path class="st0" d="M63.7,26.1c1.7,0,2.5,0.9,2.5,2.3v1.1c0,1.4-0.9,2.2-2.5,2.2s-2.5-0.9-2.5-2.2v-1.1
				C61.2,27,62.1,26.1,63.7,26.1z M71.6,26.9l-7.3,9.9c-0.3,0.4-0.4,0.5-1,0.5h-0.6c-0.4,0-0.5-0.2-0.3-0.5l7.3-9.9
				c0.3-0.4,0.4-0.4,1-0.4h0.7C71.7,26.4,71.8,26.6,71.6,26.9z M63.7,27.5c-0.7,0-1.1,0.3-1.1,0.9v0.9c0,0.6,0.4,0.9,1.1,0.9
				c0.7,0,1.1-0.3,1.1-0.9v-0.9C64.8,27.9,64.4,27.5,63.7,27.5z M70.2,31.9c1.7,0,2.5,0.9,2.5,2.3v1.1c0,1.4-0.9,2.2-2.5,2.2
				c-1.7,0-2.5-0.9-2.5-2.2v-1.1C67.7,32.7,68.6,31.9,70.2,31.9z M70.2,33.3c-0.7,0-1.1,0.3-1.1,0.9v0.9c0,0.6,0.4,0.9,1.1,0.9
				c0.7,0,1.1-0.3,1.1-0.9v-0.9C71.3,33.6,70.9,33.3,70.2,33.3z"/>
		</g>
	</g>
</g>
</svg>
