<?xml version="1.0" encoding="utf-8"?>
<!-- Generator: Adobe Illustrator 22.0.1, SVG Export Plug-In . SVG Version: 6.00 Build 0)  -->
<svg version="1.1" id="Layer_1" xmlns="http://www.w3.org/2000/svg" xmlns:xlink="http://www.w3.org/1999/xlink" x="0px" y="0px"
	 viewBox="0 0 91.4 91.8" style="enable-background:new 0 0 91.4 91.8;" xml:space="preserve">
<metadata><?xpacket begin="﻿" id="W5M0MpCehiHzreSzNTczkc9d"?>
<x:xmpmeta xmlns:x="adobe:ns:meta/" x:xmptk="Adobe XMP Core 5.6-c143 79.161210, 2017/08/11-10:28:36        ">
   <rdf:RDF xmlns:rdf="http://www.w3.org/1999/02/22-rdf-syntax-ns#">
      <rdf:Description rdf:about=""/>
   </rdf:RDF>
</x:xmpmeta>
                                                                                                    
                                                                                                    
                                                                                                    
                                                                                                    
                                                                                                    
                                                                                                    
                                                                                                    
                                                                                                    
                                                                                                    
                                                                                                    
                                                                                                    
                                                                                                    
                                                                                                    
                                                                                                    
                                                                                                    
                                                                                                    
                                                                                                    
                                                                                                    
                                                                                                    
                                                                                                    
                           
<?xpacket end="w"?></metadata>
<style type="text/css">
	.st0{fill:#93C14A;}
</style>
<g>
	<g>
		<g>
			<path class="st0" d="M45.6,89.2C21.7,89.2,2.3,69.8,2.3,46S21.7,2.7,45.6,2.7S88.8,22.1,88.8,46S69.4,89.2,45.6,89.2z M45.6,4.5
				C22.7,4.5,4.1,23.1,4.1,46s18.6,41.5,41.5,41.5S87,68.8,87,46S68.4,4.5,45.6,4.5z"/>
		</g>
	</g>
</g>
<g>
	<path class="st0" d="M26.3,55.2c1.5,0,2.3,0.8,2.3,2v1.5c0,1.2-0.8,2-2.3,2c-1.5,0-2.3-0.8-2.3-2v-1.5C24,55.9,24.8,55.2,26.3,55.2
		z M26.3,56.2c-0.7,0-1.1,0.3-1.1,0.9v1.5c0,0.6,0.4,0.9,1.1,0.9c0.7,0,1.1-0.3,1.1-0.9v-1.5C27.4,56.6,27,56.2,26.3,56.2z"/>
	<path class="st0" d="M32.6,53.4v0.4c0,0.2-0.1,0.3-0.3,0.3c-0.8,0-1.1,0.3-1.1,1v0.1h1.2c0.2,0,0.3,0.1,0.3,0.3v0.5
		c0,0.2-0.1,0.3-0.3,0.3h-1.2v3.8c0,0.2-0.1,0.3-0.3,0.3h-0.5c-0.2,0-0.3-0.1-0.3-0.3v-3.8h-0.6c-0.2,0-0.3-0.1-0.3-0.3v-0.5
		c0-0.2,0.1-0.3,0.3-0.3H30v-0.1c0-1.4,0.7-2.1,2.2-2.1h0.1C32.5,53.1,32.6,53.2,32.6,53.4z"/>
	<path class="st0" d="M37.1,55.2c1.2,0,1.8,0.4,2.1,1.1c0.1,0.2,0.1,0.3-0.2,0.5l-0.5,0.2c-0.2,0.1-0.3,0.1-0.4-0.1
		c-0.2-0.3-0.4-0.5-1.1-0.5c-0.7,0-0.9,0.2-0.9,0.5c0,0.5,0.4,0.5,1.2,0.6c1.2,0.1,2,0.4,2,1.6c0,1-0.7,1.7-2.2,1.7
		c-1.2,0-1.9-0.4-2.2-1.2c-0.1-0.2,0-0.3,0.2-0.4l0.5-0.1c0.2-0.1,0.3,0,0.4,0.2c0.2,0.4,0.5,0.5,1.1,0.5c0.7,0,1.1-0.2,1.1-0.6
		c0-0.5-0.4-0.6-1.2-0.6c-1-0.1-2-0.3-2-1.6C35,55.8,35.7,55.2,37.1,55.2z"/>
	<path class="st0" d="M42.2,55.2c1.6,0,2.1,0.9,2.1,2.1v2.6c0,0.3-0.1,0.5-0.4,0.6c-0.4,0.2-1,0.3-1.8,0.3c-1.8,0-2.2-0.6-2.2-1.6
		c0-1.2,0.7-1.6,2.3-1.6c0.4,0,0.8,0,1,0v-0.3c0-0.6-0.2-1-1-1c-0.5,0-0.8,0.2-1,0.5c-0.1,0.2-0.2,0.2-0.4,0.2l-0.4-0.2
		c-0.2-0.1-0.3-0.2-0.2-0.5C40.5,55.6,41.2,55.2,42.2,55.2z M42.1,58.4c-0.8,0-1,0.2-1,0.6c0,0.4,0.2,0.7,0.9,0.7c0.5,0,0.8,0,1-0.1
		c0.1,0,0.1,0,0.1-0.1v-1C43,58.4,42.5,58.4,42.1,58.4z"/>
	<path class="st0" d="M49.8,55.7l-1.8,4.6c-0.1,0.2-0.2,0.3-0.4,0.3h-0.3c-0.2,0-0.3-0.1-0.4-0.3l-1.8-4.5c-0.1-0.3,0-0.4,0.2-0.4
		h0.4c0.4,0,0.5,0.1,0.5,0.3L47,58c0.2,0.5,0.3,1,0.3,1.1h0.1c0,0,0.1-0.6,0.3-1.1l0.9-2.4c0.1-0.2,0.2-0.3,0.6-0.3h0.4
		C49.8,55.3,49.9,55.4,49.8,55.7z"/>
	<path class="st0" d="M51.7,54L51.7,54c0,0.5-0.1,0.7-0.6,0.7H51c-0.5,0-0.6-0.2-0.6-0.6V54c0-0.5,0.1-0.6,0.6-0.6h0.1
		C51.5,53.4,51.7,53.5,51.7,54z M51.6,55.6v4.6c0,0.2-0.1,0.3-0.3,0.3h-0.5c-0.2,0-0.3-0.1-0.3-0.3v-4.6c0-0.2,0.1-0.3,0.3-0.3h0.5
		C51.6,55.3,51.6,55.4,51.6,55.6z"/>
	<path class="st0" d="M55.1,55.2c1.4,0,2.1,0.7,2.1,2v3c0,0.2-0.1,0.3-0.3,0.3h-0.6c-0.2,0-0.3-0.1-0.3-0.3v-3c0-0.7-0.4-1-1.1-1
		c-0.4,0-0.7,0.1-1,0.1c-0.1,0-0.1,0.1-0.1,0.1v3.7c0,0.2-0.1,0.3-0.3,0.3h-0.5c-0.2,0-0.3-0.1-0.3-0.3v-4.1c0-0.3,0.1-0.4,0.4-0.6
		C53.5,55.4,54.2,55.2,55.1,55.2z"/>
	<path class="st0" d="M60.4,55.2c0.8,0,1.5,0.2,1.8,0.3c0.3,0.2,0.4,0.2,0.4,0.5v4.6c0,1.3-0.6,2.2-2.2,2.2c-1.1,0-1.7-0.4-2.1-1
		c-0.2-0.2-0.1-0.4,0.1-0.5l0.4-0.2c0.2-0.1,0.3-0.1,0.5,0.1c0.2,0.3,0.5,0.5,1,0.5c0.7,0,1.1-0.4,1.1-1.1v-0.5
		c-0.3,0.1-0.7,0.2-1.2,0.2c-1.4,0-2.1-0.8-2.1-2v-1.1C58.1,55.9,58.9,55.2,60.4,55.2z M60.5,56.2c-0.8,0-1.2,0.3-1.2,1.1v1.1
		c0,0.6,0.4,1,1.1,1c0.4,0,0.8-0.1,1-0.1v-2.7c0-0.1,0-0.1-0.1-0.1C61.1,56.3,60.8,56.2,60.5,56.2z"/>
	<path class="st0" d="M65.6,55.2c1.2,0,1.8,0.4,2.1,1.1c0.1,0.2,0.1,0.3-0.2,0.5l-0.5,0.2c-0.2,0.1-0.3,0.1-0.4-0.1
		c-0.2-0.3-0.4-0.5-1.1-0.5c-0.7,0-0.9,0.2-0.9,0.5c0,0.5,0.4,0.5,1.2,0.6c1.2,0.1,2,0.4,2,1.6c0,1-0.7,1.7-2.2,1.7
		c-1.2,0-1.9-0.4-2.2-1.2c-0.1-0.2,0-0.3,0.2-0.4l0.5-0.1c0.2-0.1,0.3,0,0.4,0.2c0.2,0.4,0.5,0.5,1.1,0.5c0.7,0,1.1-0.2,1.1-0.6
		c0-0.5-0.4-0.6-1.2-0.6c-1-0.1-2-0.3-2-1.6C63.5,55.8,64.2,55.2,65.6,55.2z"/>
	<path class="st0" d="M34.5,64.8v0.9h1.1c0.2,0,0.3,0.1,0.3,0.3v0.5c0,0.2-0.1,0.3-0.3,0.3h-1.1v2c0,1,0.3,1.1,1.1,1.1
		c0.2,0,0.3,0.1,0.3,0.3v0.5c0,0.2-0.1,0.3-0.3,0.3c-1.6,0-2.3-0.5-2.3-2.2v-2h-0.7c-0.2,0-0.3-0.1-0.3-0.3V66
		c0-0.2,0.1-0.3,0.3-0.3h0.7v-0.9c0-0.2,0.1-0.3,0.3-0.3h0.5C34.5,64.5,34.5,64.6,34.5,64.8z"/>
	<path class="st0" d="M38.7,65.5c1.6,0,2.1,0.9,2.1,2.1v2.6c0,0.3-0.1,0.5-0.4,0.6c-0.4,0.2-1,0.3-1.8,0.3c-1.8,0-2.2-0.6-2.2-1.6
		c0-1.2,0.7-1.6,2.3-1.6c0.4,0,0.8,0,1,0v-0.3c0-0.6-0.2-1-1-1c-0.5,0-0.8,0.2-1,0.5c-0.1,0.2-0.2,0.2-0.4,0.2L36.8,67
		c-0.2-0.1-0.3-0.2-0.2-0.5C37,65.9,37.7,65.5,38.7,65.5z M38.6,68.7c-0.8,0-1,0.2-1,0.6c0,0.4,0.2,0.7,0.9,0.7c0.5,0,0.8,0,1-0.1
		c0.1,0,0.1,0,0.1-0.1v-1C39.5,68.8,39,68.7,38.6,68.7z"/>
	<path class="st0" d="M44.5,65.5c0.2,0,0.3,0.1,0.3,0.3v0.4c0,0.2-0.1,0.3-0.3,0.3h-0.4c-0.4,0-0.7,0-0.9,0.1
		c-0.1,0-0.1,0.1-0.1,0.1v3.7c0,0.2-0.1,0.3-0.3,0.3h-0.5c-0.2,0-0.3-0.1-0.3-0.3v-4.1c0-0.3,0.1-0.4,0.4-0.6c0.4-0.1,1-0.3,1.9-0.3
		H44.5z"/>
	<path class="st0" d="M47.4,65.5c0.8,0,1.5,0.2,1.8,0.3c0.3,0.2,0.4,0.2,0.4,0.5V71c0,1.3-0.6,2.2-2.2,2.2c-1.1,0-1.7-0.4-2.1-1
		c-0.2-0.2-0.1-0.4,0.1-0.5l0.4-0.2c0.2-0.1,0.3-0.1,0.5,0.1c0.2,0.3,0.5,0.5,1,0.5c0.7,0,1.1-0.4,1.1-1.1v-0.5
		c-0.3,0.1-0.7,0.2-1.2,0.2c-1.4,0-2.1-0.8-2.1-2v-1.1C45.2,66.3,45.9,65.5,47.4,65.5z M47.5,66.6c-0.8,0-1.2,0.3-1.2,1.1v1.1
		c0,0.6,0.4,1,1.1,1c0.4,0,0.8-0.1,1-0.1v-2.7c0-0.1,0-0.1-0.1-0.1C48.1,66.7,47.8,66.6,47.5,66.6z"/>
	<path class="st0" d="M52.9,65.5c1.6,0,2.3,0.9,2.3,2.1v0.6c0,0.3-0.1,0.4-0.5,0.4h-3V69c0,0.6,0.4,1,1.1,1c0.6,0,1-0.2,1.2-0.5
		c0.2-0.2,0.3-0.2,0.5-0.1l0.3,0.2c0.2,0.1,0.3,0.3,0.1,0.5c-0.4,0.6-1,1-2.2,1c-1.6,0-2.3-0.9-2.3-2.1v-1.2
		C50.6,66.3,51.4,65.5,52.9,65.5z M52.9,66.5c-0.7,0-1.2,0.4-1.2,1v0.2H54v-0.2C54,66.9,53.6,66.5,52.9,66.5z"/>
	<path class="st0" d="M57.8,64.8v0.9h1.1c0.2,0,0.3,0.1,0.3,0.3v0.5c0,0.2-0.1,0.3-0.3,0.3h-1.1v2c0,1,0.3,1.1,1.1,1.1
		c0.2,0,0.3,0.1,0.3,0.3v0.5c0,0.2-0.1,0.3-0.3,0.3c-1.6,0-2.3-0.5-2.3-2.2v-2h-0.7c-0.2,0-0.3-0.1-0.3-0.3V66
		c0-0.2,0.1-0.3,0.3-0.3h0.7v-0.9c0-0.2,0.1-0.3,0.3-0.3h0.5C57.7,64.5,57.8,64.6,57.8,64.8z"/>
</g>
<g>
	<g>
		<path class="st0" d="M38,26.4v1.5c0,0.8-0.3,1.1-1.1,1.1h-9l-0.5,4.6h3.8c5.2,0,7.6,3.2,7.6,7.1c0,4-2.9,7.4-7.9,7.4
			c-4.7,0-7.3-1.8-8.5-5.1c-0.3-0.8-0.1-1.1,0.7-1.4l1.7-0.6c0.8-0.3,1.1-0.1,1.3,0.7c0.7,1.8,2,2.8,4.7,2.8c2.2,0,3.8-1.3,3.8-3.7
			c0-2.1-1.5-3.4-3.7-3.4h-6.6c-0.9,0-1.2-0.4-1.1-1.3l0.9-9.1c0.1-1.2,0.5-1.5,1.7-1.5H37C37.8,25.3,38,25.6,38,26.4z"/>
		<path class="st0" d="M50.1,24.8c5.3,0,8.3,2.9,8.3,7.6v8.1c0,4.6-3,7.6-8.3,7.6s-8.3-2.9-8.3-7.6v-8.1
			C41.8,27.8,44.8,24.8,50.1,24.8z M50.1,28.5c-2.8,0-4.4,1.4-4.4,3.9v8.1c0,2.5,1.6,3.9,4.4,3.9s4.4-1.4,4.4-3.9v-8.1
			C54.4,29.9,52.8,28.5,50.1,28.5z"/>
	</g>
	<g>
		<path class="st0" d="M63.8,26.1c1.7,0,2.5,0.9,2.5,2.3v1.1c0,1.4-0.9,2.2-2.5,2.2s-2.5-0.9-2.5-2.2v-1.1
			C61.3,27,62.2,26.1,63.8,26.1z M71.7,26.9l-7.3,9.9c-0.3,0.4-0.4,0.5-1,0.5h-0.6c-0.4,0-0.5-0.2-0.3-0.5l7.3-9.9
			c0.3-0.4,0.4-0.4,1-0.4h0.7C71.8,26.4,71.8,26.6,71.7,26.9z M63.8,27.5c-0.7,0-1.1,0.3-1.1,0.9v0.9c0,0.6,0.4,0.9,1.1,0.9
			c0.7,0,1.1-0.3,1.1-0.9v-0.9C64.9,27.9,64.5,27.5,63.8,27.5z M70.3,31.9c1.7,0,2.5,0.9,2.5,2.3v1.1c0,1.4-0.9,2.2-2.5,2.2
			c-1.7,0-2.5-0.9-2.5-2.2v-1.1C67.8,32.7,68.7,31.9,70.3,31.9z M70.3,33.3c-0.7,0-1.1,0.3-1.1,0.9v0.9c0,0.6,0.4,0.9,1.1,0.9
			c0.7,0,1.1-0.3,1.1-0.9v-0.9C71.4,33.6,71,33.3,70.3,33.3z"/>
	</g>
</g>
</svg>
