<?xml version="1.0" encoding="utf-8"?>
<!-- Generator: Adobe Illustrator 22.0.1, SVG Export Plug-In . SVG Version: 6.00 Build 0)  -->
<svg version="1.1" id="Layer_1" xmlns="http://www.w3.org/2000/svg" xmlns:xlink="http://www.w3.org/1999/xlink" x="0px" y="0px"
	 viewBox="0 0 91.4 91.8" style="enable-background:new 0 0 91.4 91.8;" xml:space="preserve">
<metadata><?xpacket begin="﻿" id="W5M0MpCehiHzreSzNTczkc9d"?>
<x:xmpmeta xmlns:x="adobe:ns:meta/" x:xmptk="Adobe XMP Core 5.6-c143 79.161210, 2017/08/11-10:28:36        ">
   <rdf:RDF xmlns:rdf="http://www.w3.org/1999/02/22-rdf-syntax-ns#">
      <rdf:Description rdf:about=""/>
   </rdf:RDF>
</x:xmpmeta>
                                                                                                    
                                                                                                    
                                                                                                    
                                                                                                    
                                                                                                    
                                                                                                    
                                                                                                    
                                                                                                    
                                                                                                    
                                                                                                    
                                                                                                    
                                                                                                    
                                                                                                    
                                                                                                    
                                                                                                    
                                                                                                    
                                                                                                    
                                                                                                    
                                                                                                    
                                                                                                    
                           
<?xpacket end="w"?></metadata>
<style type="text/css">
	.st0{fill:#93C14A;}
	.st1{fill:#FFFFFF;}
</style>
<g>
	<g>
		<g>
			<g>
				<path class="st0" d="M45.4,89.3C21.5,89.3,2.1,69.9,2.1,46S21.5,2.8,45.4,2.8S88.6,22.2,88.6,46S69.2,89.3,45.4,89.3z"/>
			</g>
		</g>
	</g>
	<g>
		<path class="st1" d="M26,55.3c1.5,0,2.3,0.8,2.3,2v1.5c0,1.2-0.8,2-2.3,2c-1.5,0-2.3-0.8-2.3-2v-1.5C23.7,56,24.6,55.3,26,55.3z
			 M26,56.3c-0.7,0-1.1,0.3-1.1,0.9v1.5c0,0.6,0.4,0.9,1.1,0.9c0.7,0,1.2-0.3,1.2-0.9v-1.5C27.2,56.7,26.8,56.3,26,56.3z"/>
		<path class="st1" d="M32.4,53.5V54c0,0.2-0.1,0.3-0.3,0.3c-0.8,0-1.1,0.3-1.1,1v0.1h1.1c0.2,0,0.3,0.1,0.3,0.3v0.5
			c0,0.2-0.1,0.3-0.3,0.3h-1.1v3.8c0,0.2-0.1,0.3-0.3,0.3h-0.5c-0.2,0-0.3-0.1-0.3-0.3v-3.8h-0.6c-0.2,0-0.3-0.1-0.3-0.3v-0.5
			c0-0.2,0.1-0.3,0.3-0.3h0.6v-0.1c0-1.4,0.7-2.1,2.2-2.1h0.1C32.3,53.2,32.4,53.3,32.4,53.5z"/>
		<path class="st1" d="M36.9,55.3c1.2,0,1.8,0.4,2.1,1.1c0.1,0.2,0.1,0.3-0.2,0.5L38.4,57c-0.2,0.1-0.3,0.1-0.4-0.1
			c-0.2-0.3-0.4-0.5-1.1-0.5c-0.6,0-0.9,0.2-0.9,0.5c0,0.5,0.4,0.5,1.2,0.6c1.2,0.1,2,0.4,2,1.6c0,1-0.7,1.7-2.2,1.7
			c-1.2,0-1.9-0.4-2.2-1.2c-0.1-0.2,0-0.3,0.2-0.4l0.4-0.1c0.2-0.1,0.3,0,0.4,0.2c0.2,0.4,0.5,0.5,1.1,0.5c0.7,0,1.1-0.2,1.1-0.6
			c0-0.5-0.4-0.6-1.2-0.6c-1-0.1-2-0.3-2-1.6C34.8,55.9,35.5,55.3,36.9,55.3z"/>
		<path class="st1" d="M42,55.3c1.6,0,2.1,0.9,2.1,2.1v2.6c0,0.3-0.1,0.5-0.4,0.6c-0.4,0.2-1,0.3-1.8,0.3c-1.8,0-2.2-0.6-2.2-1.6
			c0-1.2,0.7-1.6,2.3-1.6c0.4,0,0.8,0,1,0v-0.3c0-0.6-0.2-1-1-1c-0.5,0-0.8,0.2-1,0.5c-0.1,0.2-0.2,0.2-0.4,0.2l-0.4-0.2
			c-0.2-0.1-0.3-0.2-0.2-0.5C40.3,55.7,41,55.3,42,55.3z M41.9,58.5c-0.8,0-1,0.2-1,0.6c0,0.4,0.2,0.7,0.9,0.7c0.5,0,0.8,0,1-0.1
			c0.1,0,0.1,0,0.1-0.1v-1C42.8,58.5,42.3,58.5,41.9,58.5z"/>
		<path class="st1" d="M49.5,55.8l-1.8,4.6c-0.1,0.2-0.2,0.3-0.4,0.3H47c-0.2,0-0.3-0.1-0.4-0.3l-1.8-4.5c-0.1-0.3,0-0.4,0.2-0.4
			h0.4c0.4,0,0.5,0.1,0.5,0.3l0.9,2.4c0.2,0.5,0.3,1,0.3,1.1h0c0,0,0.1-0.6,0.3-1.1l0.9-2.4c0.1-0.2,0.2-0.3,0.6-0.3h0.4
			C49.6,55.4,49.7,55.5,49.5,55.8z"/>
		<path class="st1" d="M51.5,54.1L51.5,54.1c0,0.5-0.2,0.7-0.6,0.7h-0.1c-0.5,0-0.6-0.2-0.6-0.6v-0.1c0-0.5,0.1-0.6,0.6-0.6h0.1
			C51.3,53.5,51.5,53.6,51.5,54.1z M51.4,55.7v4.6c0,0.2-0.1,0.3-0.3,0.3h-0.5c-0.2,0-0.3-0.1-0.3-0.3v-4.6c0-0.2,0.1-0.3,0.3-0.3
			h0.5C51.3,55.4,51.4,55.5,51.4,55.7z"/>
		<path class="st1" d="M54.9,55.3c1.4,0,2.1,0.7,2.1,2v3c0,0.2-0.1,0.3-0.3,0.3h-0.5c-0.2,0-0.3-0.1-0.3-0.3v-3c0-0.7-0.4-1-1.1-1
			c-0.4,0-0.7,0.1-1,0.1c0,0-0.1,0.1-0.1,0.1v3.7c0,0.2-0.1,0.3-0.3,0.3h-0.6c-0.2,0-0.3-0.1-0.3-0.3v-4.1c0-0.3,0.1-0.4,0.4-0.6
			C53.3,55.4,54,55.3,54.9,55.3z"/>
		<path class="st1" d="M60.2,55.3c0.8,0,1.5,0.2,1.8,0.3c0.3,0.2,0.4,0.2,0.4,0.5v4.6c0,1.3-0.6,2.2-2.2,2.2c-1.1,0-1.7-0.4-2.1-1
			c-0.1-0.2-0.1-0.4,0.1-0.5l0.4-0.2c0.2-0.1,0.3-0.1,0.5,0.1c0.2,0.3,0.5,0.5,1,0.5c0.7,0,1.1-0.4,1.1-1.1v-0.5
			c-0.3,0.1-0.7,0.2-1.2,0.2c-1.4,0-2.1-0.8-2.1-2v-1.1C57.9,56,58.7,55.3,60.2,55.3z M60.3,56.3c-0.8,0-1.2,0.3-1.2,1.1v1.1
			c0,0.6,0.4,1,1.1,1c0.4,0,0.8-0.1,1-0.1v-2.7c0-0.1,0-0.1-0.1-0.1C60.9,56.4,60.6,56.3,60.3,56.3z"/>
		<path class="st1" d="M65.4,55.3c1.2,0,1.8,0.4,2.1,1.1c0.1,0.2,0.1,0.3-0.2,0.5L66.9,57c-0.2,0.1-0.3,0.1-0.4-0.1
			c-0.2-0.3-0.4-0.5-1.1-0.5c-0.7,0-0.9,0.2-0.9,0.5c0,0.5,0.4,0.5,1.2,0.6c1.2,0.1,2,0.4,2,1.6c0,1-0.7,1.7-2.2,1.7
			c-1.2,0-1.9-0.4-2.2-1.2c-0.1-0.2,0-0.3,0.2-0.4l0.5-0.1c0.2-0.1,0.3,0,0.4,0.2c0.2,0.4,0.5,0.5,1.1,0.5c0.7,0,1.1-0.2,1.1-0.6
			c0-0.5-0.4-0.6-1.2-0.6c-1-0.1-2-0.3-2-1.6C63.3,55.9,64,55.3,65.4,55.3z"/>
		<path class="st1" d="M34.3,64.9v0.9h1.1c0.2,0,0.3,0.1,0.3,0.3v0.5c0,0.2-0.1,0.3-0.3,0.3h-1.1v2c0,1,0.3,1.1,1.1,1.1
			c0.2,0,0.3,0.1,0.3,0.3v0.5c0,0.2-0.1,0.3-0.3,0.3c-1.6,0-2.3-0.5-2.3-2.2v-2h-0.7c-0.2,0-0.3-0.1-0.3-0.3v-0.5
			c0-0.2,0.1-0.3,0.3-0.3h0.7v-0.9c0-0.2,0.1-0.3,0.3-0.3H34C34.2,64.6,34.3,64.6,34.3,64.9z"/>
		<path class="st1" d="M38.5,65.6c1.6,0,2.1,0.9,2.1,2.1v2.6c0,0.3-0.1,0.5-0.4,0.6c-0.4,0.2-1,0.3-1.8,0.3c-1.8,0-2.2-0.6-2.2-1.6
			c0-1.2,0.7-1.6,2.3-1.6c0.4,0,0.8,0,1,0v-0.3c0-0.6-0.2-1-1-1c-0.5,0-0.8,0.2-1,0.5c-0.1,0.2-0.2,0.2-0.4,0.2l-0.4-0.2
			c-0.2-0.1-0.3-0.2-0.2-0.5C36.8,66,37.5,65.6,38.5,65.6z M38.4,68.8c-0.8,0-1,0.2-1,0.6c0,0.4,0.2,0.7,0.9,0.7c0.5,0,0.8,0,1-0.1
			c0.1,0,0.1,0,0.1-0.1v-1C39.3,68.9,38.8,68.8,38.4,68.8z"/>
		<path class="st1" d="M44.3,65.6c0.2,0,0.3,0.1,0.3,0.3v0.4c0,0.2-0.1,0.3-0.3,0.3h-0.4c-0.4,0-0.7,0-0.9,0.1
			c-0.1,0-0.1,0.1-0.1,0.1v3.7c0,0.2-0.1,0.3-0.3,0.3H42c-0.2,0-0.3-0.1-0.3-0.3v-4.1c0-0.3,0.1-0.4,0.4-0.6c0.4-0.1,1-0.3,1.9-0.3
			H44.3z"/>
		<path class="st1" d="M47.2,65.6c0.8,0,1.5,0.2,1.8,0.3c0.3,0.2,0.4,0.2,0.4,0.5v4.6c0,1.3-0.6,2.2-2.2,2.2c-1.1,0-1.7-0.4-2.1-1
			C45,72.1,45,72,45.3,71.8l0.4-0.2c0.2-0.1,0.3-0.1,0.5,0.1c0.2,0.3,0.5,0.5,1,0.5c0.7,0,1.1-0.4,1.1-1.1v-0.5
			c-0.3,0.1-0.7,0.2-1.2,0.2c-1.4,0-2.1-0.8-2.1-2v-1.1C45,66.4,45.7,65.6,47.2,65.6z M47.3,66.7c-0.8,0-1.2,0.3-1.2,1.1v1.1
			c0,0.6,0.4,1,1.1,1c0.4,0,0.8-0.1,1-0.1v-2.7c0-0.1,0-0.1-0.1-0.1C47.9,66.7,47.6,66.7,47.3,66.7z"/>
		<path class="st1" d="M52.7,65.6c1.6,0,2.3,0.9,2.3,2.1v0.6c0,0.3-0.1,0.4-0.5,0.4h-3v0.4c0,0.6,0.4,1,1.1,1c0.6,0,1-0.2,1.2-0.5
			c0.2-0.2,0.3-0.2,0.5-0.1l0.3,0.2c0.2,0.1,0.3,0.3,0.1,0.5c-0.4,0.6-1,1-2.2,1c-1.6,0-2.3-0.9-2.3-2.1v-1.2
			C50.4,66.4,51.2,65.6,52.7,65.6z M52.7,66.6c-0.7,0-1.2,0.4-1.2,1v0.2h2.3v-0.2C53.8,67,53.4,66.6,52.7,66.6z"/>
		<path class="st1" d="M57.6,64.9v0.9h1.1c0.2,0,0.3,0.1,0.3,0.3v0.5c0,0.2-0.1,0.3-0.3,0.3h-1.1v2c0,1,0.3,1.1,1.1,1.1
			c0.2,0,0.3,0.1,0.3,0.3v0.5c0,0.2-0.1,0.3-0.3,0.3c-1.6,0-2.3-0.5-2.3-2.2v-2h-0.7c-0.2,0-0.3-0.1-0.3-0.3v-0.5
			c0-0.2,0.1-0.3,0.3-0.3h0.7v-0.9c0-0.2,0.1-0.3,0.3-0.3h0.5C57.5,64.6,57.6,64.6,57.6,64.9z"/>
	</g>
	<g>
		<g>
			<path class="st1" d="M37.8,26.5V28c0,0.8-0.2,1.1-1.1,1.1h-9l-0.5,4.6h3.8c5.2,0,7.6,3.2,7.6,7.1c0,4-2.9,7.4-7.9,7.4
				c-4.7,0-7.3-1.8-8.5-5.1c-0.3-0.8-0.1-1.1,0.7-1.4l1.7-0.6c0.8-0.3,1.1-0.1,1.3,0.7c0.7,1.8,2,2.8,4.7,2.8c2.2,0,3.8-1.3,3.8-3.7
				c0-2.1-1.5-3.4-3.7-3.4h-6.6c-0.9,0-1.2-0.4-1.1-1.3l0.9-9.1c0.1-1.2,0.5-1.5,1.7-1.5h10.9C37.6,25.4,37.8,25.7,37.8,26.5z"/>
			<path class="st1" d="M49.9,24.9c5.3,0,8.3,2.9,8.3,7.6v8.1c0,4.6-3,7.6-8.3,7.6c-5.3,0-8.3-2.9-8.3-7.6v-8.1
				C41.5,27.9,44.6,24.9,49.9,24.9z M49.9,28.6c-2.8,0-4.4,1.4-4.4,3.9v8.1c0,2.5,1.6,3.9,4.4,3.9c2.8,0,4.4-1.4,4.4-3.9v-8.1
				C54.2,30,52.6,28.6,49.9,28.6z"/>
		</g>
		<g>
			<path class="st1" d="M63.6,26.2c1.7,0,2.5,0.9,2.5,2.3v1.1c0,1.4-0.9,2.2-2.5,2.2c-1.7,0-2.5-0.9-2.5-2.2v-1.1
				C61.1,27.1,62,26.2,63.6,26.2z M71.5,27l-7.3,9.9c-0.3,0.4-0.4,0.5-1,0.5h-0.6c-0.4,0-0.5-0.2-0.3-0.5l7.3-9.9
				c0.3-0.4,0.4-0.4,1-0.4h0.7C71.6,26.5,71.6,26.7,71.5,27z M63.6,27.6c-0.7,0-1.1,0.3-1.1,0.9v0.9c0,0.6,0.4,0.9,1.1,0.9
				c0.7,0,1.1-0.3,1.1-0.9v-0.9C64.7,28,64.3,27.6,63.6,27.6z M70.1,31.9c1.7,0,2.5,0.9,2.5,2.3v1.1c0,1.4-0.9,2.2-2.5,2.2
				s-2.5-0.9-2.5-2.2v-1.1C67.6,32.8,68.4,31.9,70.1,31.9z M70.1,33.4c-0.7,0-1.1,0.3-1.1,0.9v0.9c0,0.6,0.4,0.9,1.1,0.9
				c0.7,0,1.1-0.3,1.1-0.9v-0.9C71.1,33.7,70.8,33.4,70.1,33.4z"/>
		</g>
	</g>
</g>
</svg>
