<?xml version="1.0" encoding="utf-8"?>
<!-- Generator: Adobe Illustrator 22.0.1, SVG Export Plug-In . SVG Version: 6.00 Build 0)  -->
<svg version="1.1" id="Layer_1" xmlns="http://www.w3.org/2000/svg" xmlns:xlink="http://www.w3.org/1999/xlink" x="0px" y="0px"
	 viewBox="0 0 91.1 91" style="enable-background:new 0 0 91.1 91;" xml:space="preserve">
<metadata><?xpacket begin="﻿" id="W5M0MpCehiHzreSzNTczkc9d"?>
<x:xmpmeta xmlns:x="adobe:ns:meta/" x:xmptk="Adobe XMP Core 5.6-c143 79.161210, 2017/08/11-10:28:36        ">
   <rdf:RDF xmlns:rdf="http://www.w3.org/1999/02/22-rdf-syntax-ns#">
      <rdf:Description rdf:about=""/>
   </rdf:RDF>
</x:xmpmeta>
                                                                                                    
                                                                                                    
                                                                                                    
                                                                                                    
                                                                                                    
                                                                                                    
                                                                                                    
                                                                                                    
                                                                                                    
                                                                                                    
                                                                                                    
                                                                                                    
                                                                                                    
                                                                                                    
                                                                                                    
                                                                                                    
                                                                                                    
                                                                                                    
                                                                                                    
                                                                                                    
                           
<?xpacket end="w"?></metadata>
<style type="text/css">
	.st0{fill:#F39C75;}
	.st1{fill:#FFFFFF;}
</style>
<g>
	<g>
		<g>
			<g>
				<path class="st0" d="M45.9,89C22,89,2.6,69.6,2.6,45.7S22,2.4,45.9,2.4s43.3,19.4,43.3,43.3S69.8,89,45.9,89z"/>
			</g>
		</g>
	</g>
	<g>
		<g>
			<g>
				<g>
					<path class="st1" d="M49,39.6H23.4c-0.4,0-0.8-0.4-0.8-0.8S23,38,23.4,38H49c2.3,0,4.1-1.8,4.1-4.1c0-2.3-1.8-4.1-4.1-4.1
						c-2.3,0-4.1,1.8-4.1,4.1c0,0.4-0.4,0.8-0.8,0.8s-0.8-0.4-0.8-0.8c0-3.1,2.6-5.7,5.7-5.7s5.7,2.6,5.7,5.7S52.1,39.6,49,39.6z"/>
				</g>
			</g>
			<g>
				<g>
					<path class="st1" d="M19.6,39.6h-2.1c-0.4,0-0.8-0.4-0.8-0.8s0.4-0.8,0.8-0.8h2.1c0.4,0,0.8,0.4,0.8,0.8S20.1,39.6,19.6,39.6z"
						/>
				</g>
			</g>
			<g>
				<g>
					<path class="st1" d="M30.7,53.5h-4.2c-0.4,0-0.8-0.4-0.8-0.8s0.4-0.8,0.8-0.8h4.2c0.4,0,0.8,0.4,0.8,0.8S31.2,53.5,30.7,53.5z"
						/>
				</g>
			</g>
			<g>
				<g>
					<path class="st1" d="M66.9,46.6H14.2c-0.4,0-0.8-0.4-0.8-0.8s0.4-0.8,0.8-0.8h52.6c3.8,0,6.9-3.1,6.9-6.9
						c0-3.8-3.1-6.9-6.9-6.9c-3.8,0-6.9,3.1-6.9,6.9c0,0.4-0.4,0.8-0.8,0.8s-0.8-0.4-0.8-0.8c0-4.7,3.8-8.5,8.5-8.5s8.5,3.8,8.5,8.5
						S71.5,46.6,66.9,46.6z"/>
				</g>
			</g>
			<g>
				<g>
					<path class="st1" d="M64.8,64.6c-3.5,0-6.4-2.9-6.4-6.4c0-0.4,0.4-0.8,0.8-0.8s0.8,0.4,0.8,0.8c0,2.6,2.1,4.8,4.8,4.8
						c2.6,0,4.8-2.1,4.8-4.8s-2.1-4.8-4.8-4.8H36.3c-0.4,0-0.8-0.4-0.8-0.8s0.4-0.8,0.8-0.8h28.5c3.5,0,6.4,2.9,6.4,6.4
						C71.1,61.8,68.3,64.6,64.8,64.6z"/>
				</g>
			</g>
		</g>
	</g>
</g>
<g id="Confetti">
</g>
<g id="Sparkler">
</g>
</svg>
