<?xml version="1.0" encoding="utf-8"?>
<!-- Generator: Adobe Illustrator 22.0.1, SVG Export Plug-In . SVG Version: 6.00 Build 0)  -->
<svg version="1.1" id="Layer_1" xmlns="http://www.w3.org/2000/svg" xmlns:xlink="http://www.w3.org/1999/xlink" x="0px" y="0px"
	 viewBox="0 0 91.1 91" style="enable-background:new 0 0 91.1 91;" xml:space="preserve">
<metadata><?xpacket begin="﻿" id="W5M0MpCehiHzreSzNTczkc9d"?>
<x:xmpmeta xmlns:x="adobe:ns:meta/" x:xmptk="Adobe XMP Core 5.6-c143 79.161210, 2017/08/11-10:28:36        ">
   <rdf:RDF xmlns:rdf="http://www.w3.org/1999/02/22-rdf-syntax-ns#">
      <rdf:Description rdf:about=""/>
   </rdf:RDF>
</x:xmpmeta>
                                                                                                    
                                                                                                    
                                                                                                    
                                                                                                    
                                                                                                    
                                                                                                    
                                                                                                    
                                                                                                    
                                                                                                    
                                                                                                    
                                                                                                    
                                                                                                    
                                                                                                    
                                                                                                    
                                                                                                    
                                                                                                    
                                                                                                    
                                                                                                    
                                                                                                    
                                                                                                    
                           
<?xpacket end="w"?></metadata>
<style type="text/css">
	.st0{fill:#F39C75;}
	.st1{fill:#FFFFFF;}
</style>
<g>
	<g>
		<g>
			<g>
				<path class="st0" d="M46.1,89C22.2,89,2.8,69.6,2.8,45.7S22.2,2.4,46.1,2.4s43.3,19.4,43.3,43.3S69.9,89,46.1,89z"/>
			</g>
		</g>
	</g>
	<g>
		<g>
			<g>
				<g>
					<path class="st1" d="M23,60.9c-0.3,0-0.5-0.1-0.7-0.4c-7.2-11.1-5.7-25.8,3.6-35.1c5.3-5.3,12.2-8.1,19.7-8.1c0,0,0.1,0,0.1,0
						c7.5,0,14.6,3,19.9,8.3c0.3,0.3,0.3,0.8,0,1.1c-0.3,0.3-0.8,0.3-1.1,0c-5-5-11.7-7.8-18.8-7.9c0,0-0.1,0-0.1,0
						c-7,0-13.6,2.7-18.6,7.7c-8.7,8.7-10.2,22.7-3.4,33.1c0.2,0.4,0.1,0.9-0.2,1.1C23.3,60.8,23.1,60.9,23,60.9z"/>
				</g>
			</g>
			<g>
				<g>
					<path class="st1" d="M25.1,54.8c0.1-0.6,0-1.2-0.4-1.2s-0.7,0.4-0.9,1L23,58.5c-0.1,0.6-0.7,1-1.3,0.8l-3.9-1.1
						c-0.6-0.2-1.2,0-1.3,0.3c-0.1,0.3,0.3,0.8,0.9,0.9l5.2,1.5c0.6,0.2,1.2-0.2,1.3-0.8L25.1,54.8z"/>
				</g>
				<g>
					<g>
						<path class="st1" d="M23,61.2c-0.1,0-0.2,0-0.4-0.1l-5.2-1.5c-0.7-0.2-1.2-0.7-1-1.2c0.1-0.2,0.3-0.4,0.6-0.5
							c0.3-0.1,0.6,0,0.9,0l3.9,1.1c0.2,0.1,0.5,0,0.7-0.1c0.2-0.1,0.3-0.3,0.4-0.6l0.8-3.9c0.1-0.3,0.2-0.6,0.4-0.8
							c0.2-0.2,0.5-0.3,0.7-0.3c0.5,0.1,0.7,0.7,0.5,1.5l-1.1,5.3c-0.1,0.3-0.3,0.6-0.6,0.8C23.4,61.1,23.2,61.2,23,61.2z
							 M17.3,58.3c-0.1,0-0.2,0-0.3,0c-0.2,0-0.3,0.1-0.3,0.2c-0.1,0.2,0.3,0.5,0.8,0.7l5.2,1.5c0.2,0.1,0.5,0,0.7-0.1
							c0.2-0.1,0.3-0.3,0.4-0.6l1.1-5.3l0,0c0.1-0.5,0-1-0.2-1c-0.1,0-0.2,0-0.3,0.2c-0.1,0.2-0.2,0.4-0.3,0.7l-0.8,3.9
							c-0.1,0.3-0.3,0.6-0.6,0.8c-0.3,0.2-0.7,0.2-1,0.1l-3.9-1.1C17.6,58.3,17.5,58.3,17.3,58.3z"/>
					</g>
				</g>
			</g>
			<g>
				<g>
					<path class="st1" d="M46.1,73.4c0,0-0.1,0-0.1,0c-7.5,0-14.6-3-19.9-8.3c-0.3-0.3-0.3-0.8,0-1.1c0.3-0.3,0.8-0.3,1.1,0
						c5,5,11.7,7.8,18.8,7.9c7.1,0,13.7-2.7,18.7-7.7c8.7-8.7,10.1-22.6,3.4-33c-0.2-0.4-0.1-0.9,0.2-1.1c0.4-0.2,0.9-0.1,1.1,0.2
						c7.1,11.1,5.6,25.8-3.6,35C60.5,70.6,53.5,73.4,46.1,73.4z"/>
				</g>
			</g>
			<g>
				<g>
					<g>
						<path class="st1" d="M66.6,36c-0.1,0.6,0,1.2,0.4,1.2c0.3,0.1,0.7-0.4,0.9-1l0.8-3.9c0.1-0.6,0.7-1,1.3-0.8l3.9,1.1
							c0.6,0.2,1.2,0,1.3-0.3c0.1-0.3-0.3-0.8-0.9-0.9L69,29.9c-0.6-0.2-1.2,0.2-1.3,0.8L66.6,36z"/>
					</g>
					<g>
						<g>
							<path class="st1" d="M67,37.4c0,0-0.1,0-0.1,0c-0.5-0.1-0.7-0.7-0.5-1.5l0,0l1.1-5.3c0.1-0.3,0.3-0.6,0.6-0.8
								c0.3-0.2,0.7-0.2,1-0.1l5.2,1.5c0.7,0.2,1.2,0.7,1,1.2c0,0.2-0.2,0.3-0.3,0.4c-0.3,0.2-0.7,0.2-1.2,0.1l-3.9-1.1
								c-0.2-0.1-0.5,0-0.7,0.1c-0.2,0.1-0.3,0.3-0.4,0.6L68,36.3c-0.1,0.5-0.3,0.8-0.6,1C67.3,37.4,67.2,37.4,67,37.4z M66.8,36
								c-0.1,0.5,0,1,0.2,1c0.1,0,0.1,0,0.2,0c0.2-0.1,0.4-0.4,0.4-0.8l0.8-3.9c0.1-0.3,0.3-0.6,0.6-0.8c0.3-0.2,0.7-0.2,1-0.1
								l3.9,1.1c0.3,0.1,0.7,0.1,0.9,0c0.1,0,0.1-0.1,0.1-0.1c0.1-0.2-0.3-0.5-0.8-0.7L69,30.1c-0.2-0.1-0.5,0-0.7,0.1
								c-0.2,0.1-0.3,0.3-0.4,0.6L66.8,36z"/>
						</g>
					</g>
				</g>
			</g>
			<g>
				<g>
					<path class="st1" d="M45.9,60.8c-6,0-11-4.9-11-11c0-5.8,9.9-20.2,10.3-20.8c0.1-0.2,0.4-0.3,0.7-0.3s0.5,0.1,0.7,0.3
						c0.4,0.6,10.3,15,10.3,20.8C56.8,55.9,51.9,60.8,45.9,60.8z M45.9,30.9c-0.9,1.4-2.7,4.1-4.4,7.1c-4.1,7.1-5,10.4-5,11.9
						c0,5.2,4.2,9.4,9.4,9.4s9.4-4.2,9.4-9.4c0-1.5-0.9-4.8-5-11.9C48.5,34.9,46.8,32.3,45.9,30.9z"/>
				</g>
			</g>
		</g>
	</g>
</g>
<g id="Confetti">
</g>
<g id="Sparkler">
</g>
</svg>
