<?xml version="1.0" encoding="utf-8"?>
<!-- Generator: Adobe Illustrator 22.0.1, SVG Export Plug-In . SVG Version: 6.00 Build 0)  -->
<svg version="1.1" id="Layer_1" xmlns="http://www.w3.org/2000/svg" xmlns:xlink="http://www.w3.org/1999/xlink" x="0px" y="0px"
	 viewBox="0 0 91.1 91" style="enable-background:new 0 0 91.1 91;" xml:space="preserve">
<metadata><?xpacket begin="﻿" id="W5M0MpCehiHzreSzNTczkc9d"?>
<x:xmpmeta xmlns:x="adobe:ns:meta/" x:xmptk="Adobe XMP Core 5.6-c143 79.161210, 2017/08/11-10:28:36        ">
   <rdf:RDF xmlns:rdf="http://www.w3.org/1999/02/22-rdf-syntax-ns#">
      <rdf:Description rdf:about=""/>
   </rdf:RDF>
</x:xmpmeta>
                                                                                                    
                                                                                                    
                                                                                                    
                                                                                                    
                                                                                                    
                                                                                                    
                                                                                                    
                                                                                                    
                                                                                                    
                                                                                                    
                                                                                                    
                                                                                                    
                                                                                                    
                                                                                                    
                                                                                                    
                                                                                                    
                                                                                                    
                                                                                                    
                                                                                                    
                                                                                                    
                           
<?xpacket end="w"?></metadata>
<style type="text/css">
	.st0{fill:#F39C75;}
</style>
<g id="Confetti">
</g>
<g id="Sparkler">
</g>
<g>
	<g>
		<g>
			<g>
				<path class="st0" d="M45.9,89C22,89,2.6,69.6,2.6,45.7S22,2.4,45.9,2.4s43.3,19.4,43.3,43.3S69.7,89,45.9,89z M45.9,4.3
					C23,4.3,4.4,22.9,4.4,45.7S23,87.2,45.9,87.2s41.5-18.6,41.5-41.5S68.7,4.3,45.9,4.3z"/>
			</g>
		</g>
	</g>
	<g>
		<g>
			<g>
				<g>
					<path class="st0" d="M22.8,60.9c-0.3,0-0.5-0.1-0.7-0.4c-7.2-11.1-5.7-25.8,3.6-35.1c5.3-5.3,12.2-8.1,19.7-8.1
						c0,0,0.1,0,0.1,0c7.5,0,14.6,3,19.9,8.3c0.3,0.3,0.3,0.8,0,1.1c-0.3,0.3-0.8,0.3-1.1,0c-5-5-11.7-7.8-18.8-7.9c0,0-0.1,0-0.1,0
						c-7,0-13.6,2.7-18.6,7.7c-8.7,8.7-10.2,22.7-3.4,33.1c0.2,0.4,0.1,0.9-0.2,1.1C23.1,60.8,22.9,60.9,22.8,60.9z"/>
				</g>
			</g>
			<g>
				<g>
					<path class="st0" d="M24.9,54.8c0.1-0.6,0-1.2-0.4-1.2s-0.7,0.4-0.9,1l-0.8,3.9c-0.1,0.6-0.7,1-1.3,0.8l-3.9-1.1
						c-0.6-0.2-1.2,0-1.3,0.3c-0.1,0.3,0.3,0.8,0.9,0.9l5.2,1.5c0.6,0.2,1.2-0.2,1.3-0.8L24.9,54.8z"/>
				</g>
				<g>
					<g>
						<path class="st0" d="M22.8,61.2c-0.1,0-0.2,0-0.4-0.1l-5.2-1.5c-0.7-0.2-1.2-0.7-1-1.2c0.1-0.2,0.3-0.4,0.6-0.5
							c0.3-0.1,0.6,0,0.9,0l3.9,1.1c0.2,0.1,0.5,0,0.7-0.1c0.2-0.1,0.3-0.3,0.4-0.6l0.8-3.9c0.1-0.3,0.2-0.6,0.4-0.8
							c0.2-0.2,0.5-0.3,0.7-0.3c0.5,0.1,0.7,0.7,0.5,1.5L24,60.2c-0.1,0.3-0.3,0.6-0.6,0.8C23.2,61.1,23,61.2,22.8,61.2z M17.1,58.3
							c-0.1,0-0.2,0-0.3,0c-0.2,0-0.3,0.1-0.3,0.2c-0.1,0.2,0.3,0.5,0.8,0.7l5.2,1.5c0.2,0.1,0.5,0,0.7-0.1c0.2-0.1,0.3-0.3,0.4-0.6
							l1.1-5.3l0,0c0.1-0.5,0-1-0.2-1c-0.1,0-0.2,0-0.3,0.2c-0.1,0.2-0.2,0.4-0.3,0.7L23,58.6c-0.1,0.3-0.3,0.6-0.6,0.8
							c-0.3,0.2-0.7,0.2-1,0.1l-3.9-1.1C17.4,58.3,17.3,58.3,17.1,58.3z"/>
					</g>
				</g>
			</g>
			<g>
				<g>
					<path class="st0" d="M45.9,73.4c0,0-0.1,0-0.1,0c-7.5,0-14.6-3-19.9-8.3c-0.3-0.3-0.3-0.8,0-1.1c0.3-0.3,0.8-0.3,1.1,0
						c5,5,11.7,7.8,18.8,7.9c7.1,0,13.7-2.7,18.7-7.7c8.7-8.7,10.1-22.6,3.4-33c-0.2-0.4-0.1-0.9,0.2-1.1c0.4-0.2,0.9-0.1,1.1,0.2
						c7.1,11.1,5.6,25.8-3.6,35C60.3,70.6,53.3,73.4,45.9,73.4z"/>
				</g>
			</g>
			<g>
				<g>
					<g>
						<path class="st0" d="M66.4,36c-0.1,0.6,0,1.2,0.4,1.2c0.3,0.1,0.7-0.4,0.9-1l0.8-3.9c0.1-0.6,0.7-1,1.3-0.8l3.9,1.1
							c0.6,0.2,1.2,0,1.3-0.3c0.1-0.3-0.3-0.8-0.9-0.9l-5.2-1.5c-0.6-0.2-1.2,0.2-1.3,0.8L66.4,36z"/>
					</g>
					<g>
						<g>
							<path class="st0" d="M66.8,37.4c0,0-0.1,0-0.1,0c-0.5-0.1-0.7-0.7-0.5-1.5l0,0l1.1-5.3c0.1-0.3,0.3-0.6,0.6-0.8
								c0.3-0.2,0.7-0.2,1-0.1l5.2,1.5c0.7,0.2,1.2,0.7,1,1.2c0,0.2-0.2,0.3-0.3,0.4c-0.3,0.2-0.7,0.2-1.2,0.1l-3.9-1.1
								c-0.2-0.1-0.5,0-0.7,0.1c-0.2,0.1-0.3,0.3-0.4,0.6l-0.8,3.9c-0.1,0.5-0.3,0.8-0.6,1C67.1,37.4,67,37.4,66.8,37.4z M66.6,36
								c-0.1,0.5,0,1,0.2,1c0.1,0,0.1,0,0.2,0c0.2-0.1,0.4-0.4,0.4-0.8l0.8-3.9c0.1-0.3,0.3-0.6,0.6-0.8c0.3-0.2,0.7-0.2,1-0.1
								l3.9,1.1c0.3,0.1,0.7,0.1,0.9,0c0.1,0,0.1-0.1,0.1-0.1c0.1-0.2-0.3-0.5-0.8-0.7l-5.2-1.5c-0.2-0.1-0.5,0-0.7,0.1
								c-0.2,0.1-0.3,0.3-0.4,0.6L66.6,36z"/>
						</g>
					</g>
				</g>
			</g>
			<g>
				<g>
					<path class="st0" d="M45.7,60.8c-6,0-11-4.9-11-11C34.7,44,44.6,29.6,45,29c0.1-0.2,0.4-0.3,0.7-0.3c0.3,0,0.5,0.1,0.7,0.3
						c0.4,0.6,10.3,15,10.3,20.8C56.6,55.9,51.7,60.8,45.7,60.8z M45.7,30.9c-0.9,1.4-2.7,4.1-4.4,7.1c-4.1,7.1-5,10.4-5,11.9
						c0,5.2,4.2,9.4,9.4,9.4S55,55,55,49.8c0-1.5-0.9-4.8-5-11.9C48.3,34.9,46.6,32.3,45.7,30.9z"/>
				</g>
			</g>
		</g>
	</g>
</g>
</svg>
