<?xml version="1.0" encoding="utf-8"?>
<!-- Generator: Adobe Illustrator 22.0.1, SVG Export Plug-In . SVG Version: 6.00 Build 0)  -->
<svg version="1.1" id="Layer_1" xmlns="http://www.w3.org/2000/svg" xmlns:xlink="http://www.w3.org/1999/xlink" x="0px" y="0px"
	 viewBox="0 0 91.1 91" style="enable-background:new 0 0 91.1 91;" xml:space="preserve">
<metadata><?xpacket begin="﻿" id="W5M0MpCehiHzreSzNTczkc9d"?>
<x:xmpmeta xmlns:x="adobe:ns:meta/" x:xmptk="Adobe XMP Core 5.6-c143 79.161210, 2017/08/11-10:28:36        ">
   <rdf:RDF xmlns:rdf="http://www.w3.org/1999/02/22-rdf-syntax-ns#">
      <rdf:Description rdf:about=""/>
   </rdf:RDF>
</x:xmpmeta>
                                                                                                    
                                                                                                    
                                                                                                    
                                                                                                    
                                                                                                    
                                                                                                    
                                                                                                    
                                                                                                    
                                                                                                    
                                                                                                    
                                                                                                    
                                                                                                    
                                                                                                    
                                                                                                    
                                                                                                    
                                                                                                    
                                                                                                    
                                                                                                    
                                                                                                    
                                                                                                    
                           
<?xpacket end="w"?></metadata>
<style type="text/css">
	.st0{fill:#F39C75;}
</style>
<g id="Confetti">
</g>
<g id="Sparkler">
</g>
<g>
	<g>
		<g>
			<g>
				<path class="st0" d="M45.9,89C22,89,2.6,69.6,2.6,45.7S22,2.4,45.9,2.4s43.3,19.4,43.3,43.3S69.8,89,45.9,89z M45.9,4.3
					C23,4.3,4.4,22.9,4.4,45.7S23,87.2,45.9,87.2s41.5-18.6,41.5-41.5S68.8,4.3,45.9,4.3z"/>
			</g>
		</g>
	</g>
	<g>
		<g>
			<path class="st0" d="M32.3,45.9"/>
		</g>
		<g>
			<path class="st0" d="M32.2,45.9"/>
		</g>
		<g>
			<g>
				<circle class="st0" cx="16.2" cy="51.8" r="1.4"/>
			</g>
			<g>
				<circle class="st0" cx="24.4" cy="56.5" r="1.4"/>
			</g>
			<g>
				<circle class="st0" cx="16.2" cy="61.2" r="1.4"/>
			</g>
			<g>
				<circle class="st0" cx="16.2" cy="56.5" r="1.4"/>
			</g>
			<g>
				<circle class="st0" cx="20.3" cy="59" r="1.4"/>
			</g>
			<g>
				<circle class="st0" cx="20.3" cy="54.3" r="1.4"/>
			</g>
			<g>
				<g>
					<path class="st0" d="M48.8,72.3c-0.4,0-0.8-0.4-0.8-0.8v-8.9c0-1.6-1.3-2.9-2.9-2.9H30.4v0.8c0,1.5,2.3,4.4,5.2,4.4h7.6
						c0.4,0,0.8,0.4,0.8,0.8v5.8c0,0.4-0.4,0.8-0.8,0.8c-0.4,0-0.8-0.4-0.8-0.8v-5h-6.8c-3.9,0-6.8-3.6-6.8-6v-1.6
						c0-0.4,0.4-0.8,0.8-0.8c0.1,0,0.1,0,0.2,0h15.3c2.5,0,4.5,2,4.5,4.5v8.9C49.6,72,49.2,72.3,48.8,72.3z"/>
				</g>
			</g>
			<g>
				<g>
					<path class="st0" d="M62.7,72.3c-0.4,0-0.8-0.4-0.8-0.8V49.5c0-0.2,0.1-0.4,0.2-0.6c3.4-3.4,5.3-7.9,5.3-12.6
						c0-9.9-8.3-18-18.5-18s-18.5,8.1-18.5,18c0,0.3,0,0.6,0,1c0,0.2,0,0.3-0.1,0.5c-4.8,7-5.9,10.1-5.9,10.9h5.2
						c0.4,0,0.8,0.4,0.8,0.8v2.8h15.4c5.4,0,9.7,4.4,9.7,9.7v9.5c0,0.4-0.4,0.8-0.8,0.8c-0.4,0-0.8-0.4-0.8-0.8v-9.5
						c0-4.5-3.6-8.1-8.1-8.1H29.6c-0.4,0-0.8-0.4-0.8-0.8v-2.8h-4.5c-0.8,0-1.2-0.5-1.3-0.7c-0.3-0.5-1.2-2.2,5.8-12.5
						c0-0.3,0-0.5,0-0.8c0-10.8,9-19.6,20.1-19.6C60,16.8,69,25.5,69,36.3c0,5.1-2,9.8-5.6,13.5v21.7C63.5,72,63.1,72.3,62.7,72.3z"
						/>
				</g>
			</g>
		</g>
	</g>
</g>
</svg>
