<?xml version="1.0" encoding="utf-8"?>
<!-- Generator: Adobe Illustrator 22.0.1, SVG Export Plug-In . SVG Version: 6.00 Build 0)  -->
<svg version="1.1" id="Layer_1" xmlns="http://www.w3.org/2000/svg" xmlns:xlink="http://www.w3.org/1999/xlink" x="0px" y="0px"
	 viewBox="0 0 91.1 91" style="enable-background:new 0 0 91.1 91;" xml:space="preserve">
<metadata><?xpacket begin="﻿" id="W5M0MpCehiHzreSzNTczkc9d"?>
<x:xmpmeta xmlns:x="adobe:ns:meta/" x:xmptk="Adobe XMP Core 5.6-c143 79.161210, 2017/08/11-10:28:36        ">
   <rdf:RDF xmlns:rdf="http://www.w3.org/1999/02/22-rdf-syntax-ns#">
      <rdf:Description rdf:about=""/>
   </rdf:RDF>
</x:xmpmeta>
                                                                                                    
                                                                                                    
                                                                                                    
                                                                                                    
                                                                                                    
                                                                                                    
                                                                                                    
                                                                                                    
                                                                                                    
                                                                                                    
                                                                                                    
                                                                                                    
                                                                                                    
                                                                                                    
                                                                                                    
                                                                                                    
                                                                                                    
                                                                                                    
                                                                                                    
                                                                                                    
                           
<?xpacket end="w"?></metadata>
<style type="text/css">
	.st0{fill:#F39C75;}
	.st1{fill:#FFFFFF;}
</style>
<g>
	<g>
		<g>
			<path class="st0" d="M45.4,88.8c-23.9,0-43.3-19.4-43.3-43.3S21.5,2.3,45.4,2.3s43.3,19.4,43.3,43.3S69.3,88.8,45.4,88.8z"/>
		</g>
	</g>
</g>
<g>
	<g>
		<g>
			<path class="st1" d="M45.8,72.1c-0.1,0-0.2,0-0.3,0c-0.1,0-0.3-0.1-0.4-0.2c-0.4-0.1-0.6-0.3-0.8-0.6c-1.6-1.1-6-4.1-10.5-8.1
				C26,56.3,21.1,49.8,19.4,43.8c-2.1-7.3,0.8-15.1,7.3-19.4c3.9-2.5,10.2-4.3,18.7,1.6c8.5-5.9,14.9-4.2,18.7-1.6l0,0
				c6.5,4.2,9.4,12,7.3,19.4c-1.7,6-6.4,12.5-14.1,19.4c-5.7,5.1-10.9,8.5-10.9,8.6C46.5,71.9,46.2,72.1,45.8,72.1z M45.5,70.4
				C45.5,70.4,45.5,70.4,45.5,70.4C45.5,70.4,45.5,70.4,45.5,70.4z M45.7,70.1c0.1,0,0.1,0.1,0.2,0.1c2.7-1.9,20.4-14.2,24-26.8
				c1.9-6.6-0.8-13.6-6.6-17.4c-6.3-4.1-12.8-1.2-17.2,1.9c0,0-0.1,0.1-0.1,0.1c-0.3,0.2-0.6,0.2-0.9,0c0,0-0.1,0-0.1-0.1
				C40.6,24.7,34,21.8,27.7,26c-5.8,3.8-8.4,10.8-6.6,17.4C24.8,56,43,68.3,45.7,70.1z"/>
		</g>
	</g>
	<g>
		<g>
			<path class="st1" d="M63.5,34c-0.3,0-0.5-0.1-0.7-0.3c-2.2-2.8-5.2-3.9-8.8-3.1c-2.8,0.6-4.9,2.1-4.9,2.1c-0.4,0.3-1,0.2-1.2-0.2
				c-0.3-0.4-0.2-1,0.2-1.2c0.1-0.1,9.8-6.7,16.1,1.4c0.3,0.4,0.2,0.9-0.2,1.3C63.9,34,63.7,34,63.5,34z"/>
		</g>
	</g>
</g>
<g id="Confetti">
</g>
<g id="Sparkler">
</g>
</svg>
