<?xml version="1.0" encoding="utf-8"?>
<!-- Generator: Adobe Illustrator 22.0.1, SVG Export Plug-In . SVG Version: 6.00 Build 0)  -->
<svg version="1.1" id="Layer_1" xmlns="http://www.w3.org/2000/svg" xmlns:xlink="http://www.w3.org/1999/xlink" x="0px" y="0px"
	 viewBox="0 0 91.1 91" style="enable-background:new 0 0 91.1 91;" xml:space="preserve">
<metadata><?xpacket begin="﻿" id="W5M0MpCehiHzreSzNTczkc9d"?>
<x:xmpmeta xmlns:x="adobe:ns:meta/" x:xmptk="Adobe XMP Core 5.6-c143 79.161210, 2017/08/11-10:28:36        ">
   <rdf:RDF xmlns:rdf="http://www.w3.org/1999/02/22-rdf-syntax-ns#">
      <rdf:Description rdf:about=""/>
   </rdf:RDF>
</x:xmpmeta>
                                                                                                    
                                                                                                    
                                                                                                    
                                                                                                    
                                                                                                    
                                                                                                    
                                                                                                    
                                                                                                    
                                                                                                    
                                                                                                    
                                                                                                    
                                                                                                    
                                                                                                    
                                                                                                    
                                                                                                    
                                                                                                    
                                                                                                    
                                                                                                    
                                                                                                    
                                                                                                    
                           
<?xpacket end="w"?></metadata>
<style type="text/css">
	.st0{fill:#F39C75;}
</style>
<g id="Confetti">
</g>
<g id="Sparkler">
</g>
<g>
	<g>
		<g>
			<g>
				<path class="st0" d="M45.7,89C21.9,89,2.4,69.6,2.4,45.7S21.9,2.4,45.7,2.4S89,21.8,89,45.7S69.6,89,45.7,89z M45.7,4.3
					C22.9,4.3,4.3,22.9,4.3,45.7s18.6,41.5,41.5,41.5s41.5-18.6,41.5-41.5S68.6,4.3,45.7,4.3z"/>
			</g>
		</g>
	</g>
	<g>
		<g>
			<g>
				<path class="st0" d="M45.2,72c-0.1,0-0.2,0-0.3,0c-10.6-3.8-17.8-12.7-20.7-25.8C22.1,36.3,23,27.7,23,27.4
					c0-0.4,0.4-0.7,0.8-0.7c0,0,0,0,0,0c13,0.3,20.8-6.5,20.8-6.6c0.3-0.3,0.8-0.3,1.1,0c0.1,0.1,7.8,6.9,20.9,6.6
					c0.4,0,0.8,0.3,0.8,0.7c0,0.4,0.9,8.9-1.4,18.8c-3,13.1-10.1,22-20.6,25.8C45.4,72,45.3,72,45.2,72z M24.6,28.3
					c-0.2,2.3-0.5,9.6,1.3,17.6c2.8,12.6,9.3,20.8,19.4,24.5c9.9-3.7,16.4-11.9,19.3-24.5c1.8-8,1.6-15.3,1.4-17.6
					c-0.1,0-0.2,0-0.3,0c-11.3,0-18.4-5-20.4-6.5c-2,1.6-9.1,6.5-20.4,6.5C24.8,28.3,24.7,28.3,24.6,28.3z"/>
			</g>
		</g>
		<g>
			<g>
				<line class="st0" x1="45.1" y1="33.5" x2="45.1" y2="55.1"/>
			</g>
			<g>
				<path class="st0" d="M45.1,55.9c-0.4,0-0.8-0.4-0.8-0.8V33.5c0-0.4,0.4-0.8,0.8-0.8s0.8,0.4,0.8,0.8v21.6
					C45.9,55.5,45.5,55.9,45.1,55.9z"/>
			</g>
		</g>
		<g>
			<g>
				<line class="st0" x1="54.3" y1="44.3" x2="35.5" y2="44.3"/>
			</g>
			<g>
				<path class="st0" d="M54.3,45.1H35.5c-0.4,0-0.8-0.4-0.8-0.8c0-0.4,0.4-0.8,0.8-0.8h18.8c0.4,0,0.8,0.4,0.8,0.8
					C55.1,44.7,54.7,45.1,54.3,45.1z"/>
			</g>
		</g>
	</g>
</g>
</svg>
