<?xml version="1.0" encoding="utf-8"?>
<!-- Generator: Adobe Illustrator 22.0.1, SVG Export Plug-In . SVG Version: 6.00 Build 0)  -->
<svg version="1.1" id="Layer_1" xmlns="http://www.w3.org/2000/svg" xmlns:xlink="http://www.w3.org/1999/xlink" x="0px" y="0px"
	 viewBox="0 0 91.1 91" style="enable-background:new 0 0 91.1 91;" xml:space="preserve">
<metadata><?xpacket begin="﻿" id="W5M0MpCehiHzreSzNTczkc9d"?>
<x:xmpmeta xmlns:x="adobe:ns:meta/" x:xmptk="Adobe XMP Core 5.6-c143 79.161210, 2017/08/11-10:28:36        ">
   <rdf:RDF xmlns:rdf="http://www.w3.org/1999/02/22-rdf-syntax-ns#">
      <rdf:Description rdf:about=""/>
   </rdf:RDF>
</x:xmpmeta>
                                                                                                    
                                                                                                    
                                                                                                    
                                                                                                    
                                                                                                    
                                                                                                    
                                                                                                    
                                                                                                    
                                                                                                    
                                                                                                    
                                                                                                    
                                                                                                    
                                                                                                    
                                                                                                    
                                                                                                    
                                                                                                    
                                                                                                    
                                                                                                    
                                                                                                    
                                                                                                    
                           
<?xpacket end="w"?></metadata>
<style type="text/css">
	.st0{fill:#F39C75;}
	.st1{fill:#FFFFFF;}
</style>
<g id="Confetti">
</g>
<g id="Sparkler">
</g>
<g>
	<g>
		<g>
			<g>
				<path class="st0" d="M45.9,89.2C22,89.2,2.6,69.7,2.6,45.9S22,2.6,45.9,2.6S89.2,22,89.2,45.9S69.8,89.2,45.9,89.2z"/>
			</g>
		</g>
	</g>
	<g>
		<g>
			<g>
				<path class="st1" d="M45.4,72.1c-0.1,0-0.2,0-0.3,0c-10.6-3.8-17.8-12.7-20.7-25.8c-2.2-9.8-1.3-18.4-1.2-18.8
					c0-0.4,0.4-0.7,0.8-0.7c0,0,0,0,0,0c13,0.3,20.8-6.5,20.8-6.6c0.3-0.3,0.8-0.3,1.1,0c0.1,0.1,7.8,6.9,20.9,6.6
					c0.4,0,0.8,0.3,0.8,0.7c0,0.4,0.9,8.9-1.4,18.8c-3,13.1-10.1,22-20.6,25.8C45.6,72.1,45.5,72.1,45.4,72.1z M24.7,28.4
					C24.6,30.7,24.2,38,26,46c2.8,12.6,9.3,20.8,19.4,24.5c9.9-3.7,16.4-11.9,19.3-24.5c1.8-8,1.6-15.3,1.4-17.6c-0.1,0-0.2,0-0.3,0
					c-11.3,0-18.4-5-20.4-6.5c-2,1.6-9.1,6.5-20.4,6.5C24.9,28.4,24.8,28.4,24.7,28.4z"/>
			</g>
		</g>
		<g>
			<g>
				<line class="st1" x1="45.3" y1="33.7" x2="45.3" y2="55.2"/>
			</g>
			<g>
				<path class="st1" d="M45.3,56c-0.4,0-0.8-0.4-0.8-0.8V33.7c0-0.4,0.4-0.8,0.8-0.8c0.4,0,0.8,0.4,0.8,0.8v21.6
					C46.1,55.7,45.7,56,45.3,56z"/>
			</g>
		</g>
		<g>
			<g>
				<line class="st1" x1="54.4" y1="44.4" x2="35.7" y2="44.4"/>
			</g>
			<g>
				<path class="st1" d="M54.4,45.2H35.7c-0.4,0-0.8-0.4-0.8-0.8s0.4-0.8,0.8-0.8h18.8c0.4,0,0.8,0.4,0.8,0.8S54.9,45.2,54.4,45.2z"
					/>
			</g>
		</g>
	</g>
</g>
</svg>
