<?xml version="1.0" encoding="utf-8"?>
<!-- Generator: Adobe Illustrator 22.0.1, SVG Export Plug-In . SVG Version: 6.00 Build 0)  -->
<svg version="1.1" id="Layer_1" xmlns="http://www.w3.org/2000/svg" xmlns:xlink="http://www.w3.org/1999/xlink" x="0px" y="0px"
	 viewBox="0 0 91.1 91" style="enable-background:new 0 0 91.1 91;" xml:space="preserve">
<metadata><?xpacket begin="﻿" id="W5M0MpCehiHzreSzNTczkc9d"?>
<x:xmpmeta xmlns:x="adobe:ns:meta/" x:xmptk="Adobe XMP Core 5.6-c143 79.161210, 2017/08/11-10:28:36        ">
   <rdf:RDF xmlns:rdf="http://www.w3.org/1999/02/22-rdf-syntax-ns#">
      <rdf:Description rdf:about=""/>
   </rdf:RDF>
</x:xmpmeta>
                                                                                                    
                                                                                                    
                                                                                                    
                                                                                                    
                                                                                                    
                                                                                                    
                                                                                                    
                                                                                                    
                                                                                                    
                                                                                                    
                                                                                                    
                                                                                                    
                                                                                                    
                                                                                                    
                                                                                                    
                                                                                                    
                                                                                                    
                                                                                                    
                                                                                                    
                                                                                                    
                           
<?xpacket end="w"?></metadata>
<style type="text/css">
	.st0{fill:#F39C75;}
	.st1{fill:#FFFFFF;}
</style>
<g>
	<g>
		<g>
			<path class="st0" d="M46.1,88.8c-23.9,0-43.3-19.4-43.3-43.3S22.2,2.3,46.1,2.3s43.3,19.4,43.3,43.3S69.9,88.8,46.1,88.8z"/>
		</g>
	</g>
</g>
<g>
	<g>
		<g>
			<g>
				<path class="st1" d="M41.1,41.8c-0.9,0-1.3-0.4-1.4-0.6c-0.2-0.3-0.1-0.6,0.2-0.8c0.2-0.1,0.6-0.1,0.7,0.1c0.1,0,0.4,0.2,1.2,0
					c0.8-0.2,1.3-1.9,1.3-2.8c0-0.1,0.3-18.3,0-21.4c-0.1-1.1,0.1-1.9,0.6-2.4c0.6-0.6,1.4-0.6,1.5-0.6l0.7,0c0.3,0,0.6,0.3,0.6,0.6
					c0,0.3-0.3,0.6-0.6,0.6h-0.7c0,0-0.4,0-0.6,0.3c-0.3,0.3-0.4,0.8-0.3,1.5c0.3,3.2,0,20.8,0,21.6c0,0.4-0.4,3.5-2.3,3.8
					C41.7,41.8,41.4,41.8,41.1,41.8z M40.7,40.7L40.7,40.7L40.7,40.7z M40.7,40.7C40.7,40.7,40.7,40.7,40.7,40.7
					C40.7,40.7,40.7,40.7,40.7,40.7z M40.7,40.7C40.7,40.7,40.7,40.7,40.7,40.7C40.7,40.7,40.7,40.7,40.7,40.7z M40.7,40.7
					L40.7,40.7L40.7,40.7z"/>
			</g>
		</g>
		<g>
			<g>
				<path class="st1" d="M51.4,41.9h-2.2c0,0-0.1,0-0.1,0c-2.4-0.4-2.5-3.9-2.5-4c0-0.7-0.3-18.4,0-21.6c0.1-0.7,0-1.2-0.3-1.5
					c-0.2-0.2-0.5-0.3-0.6-0.3h0c-0.3,0-0.6-0.2-0.6-0.6c0-0.3,0.2-0.6,0.6-0.6c0.1,0,0.9,0,1.5,0.6c0.5,0.5,0.7,1.4,0.6,2.4
					c-0.3,3.1,0,21.3,0,21.4c0,0,0,2.6,1.5,2.9h2.2c0.3,0,0.6,0.3,0.6,0.6S51.7,41.9,51.4,41.9z"/>
			</g>
		</g>
		<g>
			<g>
				<path class="st1" d="M51.5,46.8c-0.3,0-0.5-0.2-0.6-0.5c-0.3-1.8-3.5-2.1-5.3-2.1c0,0,0,0,0,0c-3.4,0-4.9,2-4.9,2.1
					c-0.2,0.3-0.6,0.3-0.8,0.1c-0.3-0.2-0.3-0.5-0.1-0.8c0.1-0.1,1.9-2.6,5.9-2.6c0,0,0,0,0,0c4.8,0,6.2,1.7,6.4,3.1
					c0.1,0.3-0.1,0.6-0.5,0.7C51.6,46.8,51.5,46.8,51.5,46.8z"/>
			</g>
		</g>
		<g>
			<g>
				<path class="st1" d="M67.2,69.5c-1.5,0-2.6-0.3-2.7-0.4c0,0,0,0-0.1,0c-0.4-0.2-10.1-4.2-11.7-5.5c-1.8-1.4-1.9-4.3-1.9-4.4
					V30.9c0-2.2,0.9-3.9,2.6-4.9c2.3-1.3,5.4-0.3,9.3,2.9c4,3.4,7.4,8.2,10.8,15.3c3,6.5,2.1,14.6,1.5,17.8
					c-0.6,3.5-2.1,5.5-4.9,6.7C69.3,69.3,68.2,69.5,67.2,69.5z M64.9,68c0.3,0.1,2.8,0.7,5-0.2c2.5-1.1,3.6-2.7,4.2-5.9
					c0.5-3.1,1.5-10.9-1.5-17.1c-3.2-7-6.6-11.7-10.4-14.9c-5.2-4.4-7.3-3.2-8-2.8c-1.7,0.9-2,2.6-2,3.8v28.3c0,0,0,2.4,1.4,3.5
					C54.7,63.6,62.1,66.8,64.9,68z"/>
			</g>
		</g>
		<g>
			<g>
				<g>
					<g>
						<path class="st1" d="M65.1,44.3c-0.2,0-0.5-0.1-0.6-0.3c0,0-1.2-1.5-4-2.2c-3.3-0.9-8.4,0.6-8.4,0.6c-0.4,0.1-0.8-0.1-1-0.5
							c-0.1-0.4,0.1-0.8,0.5-0.9c0.2-0.1,5.6-1.6,9.4-0.6c3.3,0.9,4.7,2.6,4.8,2.7c0.3,0.3,0.2,0.8-0.2,1
							C65.5,44.3,65.3,44.3,65.1,44.3z"/>
					</g>
				</g>
			</g>
			<g>
				<g>
					<g>
						<path class="st1" d="M54.9,41.6c-0.4,0-0.7-0.2-0.8-0.6c0-0.1-1-5.6,4.2-8.1c0.4-0.2,0.8-0.1,1,0.3c0.2,0.3,0.1,0.8-0.3,1
							c-4.2,2-3.4,6.6-3.4,6.6c0.1,0.4-0.2,0.7-0.6,0.8C55,41.6,54.9,41.6,54.9,41.6z"/>
					</g>
				</g>
			</g>
			<g>
				<g>
					<g>
						<path class="st1" d="M58.9,41.3c-0.1,0-0.1,0-0.2,0c-0.4-0.1-0.7-0.5-0.6-0.9c0.5-1.7,1.3-2.8,2.6-3.2c2-0.6,4.1,0.8,4.2,0.9
							c0.3,0.2,0.4,0.7,0.1,1c-0.3,0.3-0.7,0.4-1.1,0.1c-0.4-0.3-1.7-1-2.7-0.7c-0.7,0.2-1.2,1-1.6,2.2
							C59.6,41.1,59.3,41.3,58.9,41.3z"/>
					</g>
				</g>
			</g>
			<g>
				<g>
					<g>
						<path class="st1" d="M62.9,48.6c-0.1,0-0.3,0-0.4-0.1c-3.8-2.2-3.3-5.9-2.5-7.6c0.2-0.4,0.6-0.5,1-0.4
							c0.4,0.2,0.6,0.6,0.4,0.9c-0.1,0.2-1.7,3.7,1.9,5.8c0.4,0.2,0.5,0.6,0.2,1C63.4,48.4,63.2,48.6,62.9,48.6z"/>
					</g>
				</g>
			</g>
		</g>
		<g>
			<g>
				<g>
					<g>
						<path class="st1" d="M63.3,62.6c-0.1,0-0.2,0-0.3-0.1c-0.4-0.2-0.5-0.6-0.4-0.9c0.2-0.4,0.9-3.5-1.8-6.3c-2-2-2.8-3.6-3.4-4.5
							c-0.1-0.2-0.2-0.4-0.3-0.5c-3.1-4.7-5.2-4.9-5.2-4.9l0,0l-0.1-1.4c0.3,0,3,0,6.6,5.6c0.1,0.2,0.2,0.4,0.4,0.6
							c0.5,0.9,1.3,2.3,3.1,4.2c3,3.1,2.6,6.9,2.1,7.9C63.8,62.4,63.5,62.6,63.3,62.6z"/>
					</g>
				</g>
			</g>
			<g>
				<g>
					<g>
						<path class="st1" d="M57.5,60.9c-0.3,0-0.6-0.1-0.7-0.4c-1.7-3.3-1.3-5.7-0.6-7.1c0.8-1.6,2-2.3,2-2.3
							c0.4-0.2,0.8-0.1,1.1,0.2c0.2,0.3,0.1,0.8-0.2,1c-0.2,0.1-3.6,2.3-0.9,7.7c0.2,0.4,0,0.8-0.4,0.9
							C57.8,60.8,57.7,60.9,57.5,60.9z"/>
					</g>
				</g>
			</g>
			<g>
				<g>
					<g>
						<path class="st1" d="M68.8,59.9C68.8,59.9,68.8,59.9,68.8,59.9c-0.5,0-0.8-0.4-0.8-0.8c0.2-2.1-0.1-3.7-2.1-5.8
							c-1.6-1.7-6.8-3.2-8.6-3.6c-0.4-0.1-0.7-0.5-0.6-0.9c0.1-0.4,0.5-0.6,0.9-0.5c0.3,0.1,7.2,1.6,9.5,4.1
							c2.3,2.5,2.6,4.5,2.4,6.9C69.6,59.6,69.2,59.9,68.8,59.9z"/>
					</g>
				</g>
			</g>
			<g>
				<g>
					<g>
						<path class="st1" d="M64.9,52.1c-0.3,0-0.5,0-0.5,0c-0.4,0-0.7-0.4-0.7-0.8c0-0.4,0.4-0.7,0.8-0.7l0,0c0.7,0,2.8,0,3.9-0.8
							c0.3-0.3,0.8-0.2,1.1,0.1c0.3,0.3,0.2,0.7-0.1,1C68,52,65.9,52.1,64.9,52.1z"/>
					</g>
				</g>
			</g>
		</g>
		<g>
			<g>
				<path class="st1" d="M23.5,69.4c-0.8,0-1.6-0.1-2.3-0.4c-2.7-1.2-4.2-3.2-4.8-6.9C15.9,59,15,50.9,18,44.3
					c3.3-7.1,6.7-12,10.8-15.3c3.9-3.3,7-4.2,9.3-2.9c1.7,1,2.6,2.7,2.6,4.9v28.3c0,0.1,0,2.7-1.9,4.1c-1.6,1.2-10.4,5-10.7,5.2
					C28,68.6,25.8,69.4,23.5,69.4z M35.9,26.6c-1.2,0-3.3,0.6-6.4,3.3c-3.9,3.2-7.2,8-10.4,14.9c-2.9,6.2-2,14-1.5,17.1
					c0.6,3.3,1.8,5,4.1,6c2.2,1,5.9-0.5,6-0.5c2.5-1.1,9.2-4.1,10.5-5c1.4-1,1.4-3.2,1.4-3.2V30.9c0-1.2-0.4-2.9-2-3.8
					C37.2,26.9,36.7,26.6,35.9,26.6z"/>
			</g>
		</g>
		<g>
			<g>
				<g>
					<g>
						<path class="st1" d="M27.2,44.1c-0.1,0-0.3,0-0.4-0.1c-0.3-0.2-0.4-0.7-0.1-1c0.1-0.1,1.4-1.8,4.5-2.7c3.5-1,8.6,0.5,8.8,0.5
							c0.4,0.1,0.6,0.5,0.5,0.9c-0.1,0.4-0.5,0.6-0.9,0.5c0,0-4.9-1.4-8-0.5c-2.6,0.7-3.7,2.2-3.7,2.2C27.6,44,27.4,44.1,27.2,44.1z
							"/>
					</g>
				</g>
			</g>
			<g>
				<g>
					<g>
						<path class="st1" d="M36.8,41.4c0,0-0.1,0-0.1,0c-0.4-0.1-0.6-0.4-0.6-0.8l0,0c0-0.2,0.7-4.6-3.2-6.6c-0.3-0.2-0.5-0.6-0.3-1
							c0.2-0.3,0.6-0.5,1-0.3c4.8,2.5,3.9,8.1,3.9,8.1C37.4,41.1,37.1,41.4,36.8,41.4z"/>
					</g>
				</g>
			</g>
			<g>
				<g>
					<g>
						<path class="st1" d="M33,41.1c-0.3,0-0.6-0.2-0.7-0.5c-0.3-1.2-0.8-2-1.5-2.2C29.7,38,28.3,39,28.3,39c-0.3,0.2-0.8,0.2-1-0.1
							c-0.2-0.3-0.2-0.8,0.1-1c0.1-0.1,2-1.5,3.9-0.9c1.1,0.4,1.9,1.5,2.4,3.2c0.1,0.4-0.1,0.8-0.5,0.9C33.1,41.1,33.1,41.1,33,41.1
							z"/>
					</g>
				</g>
			</g>
			<g>
				<g>
					<g>
						<path class="st1" d="M29.2,48.4c-0.2,0-0.5-0.1-0.6-0.3c-0.2-0.3-0.1-0.8,0.2-1c3.4-2.1,1.8-5.7,1.8-5.8
							c-0.2-0.4,0-0.8,0.4-0.9c0.4-0.2,0.8,0,0.9,0.4c0.7,1.7,1.2,5.4-2.3,7.6C29.5,48.3,29.4,48.4,29.2,48.4z"/>
					</g>
				</g>
			</g>
		</g>
		<g>
			<g>
				<g>
					<g>
						<path class="st1" d="M29.2,61.7c-0.3,0-0.5-0.1-0.6-0.4c-0.5-1-0.9-4.7,1.9-7.9c1.7-1.9,2.5-3.3,2.9-4.2
							c0.1-0.2,0.2-0.4,0.3-0.6c3.3-5.6,5.9-5.4,6.2-5.4l-0.2,1.4l0,0c0,0-2,0-4.9,4.7c-0.1,0.1-0.2,0.3-0.3,0.5
							c-0.5,0.9-1.3,2.5-3.1,4.5c-2.5,2.8-1.9,5.9-1.7,6.3c0.2,0.3,0,0.8-0.3,0.9C29.4,61.7,29.3,61.7,29.2,61.7z"/>
					</g>
				</g>
			</g>
			<g>
				<g>
					<g>
						<path class="st1" d="M34.5,60c-0.1,0-0.2,0-0.3-0.1c-0.4-0.2-0.5-0.6-0.3-0.9c2.6-5.4-0.8-7.6-0.8-7.6c-0.3-0.2-0.4-0.6-0.2-1
							c0.2-0.3,0.6-0.4,1-0.2c0,0,4.5,3,1.3,9.5C35.1,59.9,34.8,60,34.5,60z"/>
					</g>
				</g>
			</g>
			<g>
				<g>
					<g>
						<path class="st1" d="M24,59c-0.4,0-0.7-0.3-0.7-0.7c-0.2-2.4,0.1-4.4,2.3-6.9c2.1-2.4,8.5-4,8.8-4.1c0.4-0.1,0.8,0.1,0.9,0.5
							s-0.1,0.8-0.5,0.9c-1.7,0.4-6.6,1.9-8.1,3.6c-1.8,2.1-2.1,3.7-1.9,5.8C24.7,58.7,24.4,59,24,59C24,59,24,59,24,59z"/>
					</g>
				</g>
			</g>
			<g>
				<g>
					<g>
						<path class="st1" d="M27.7,51.2c-0.9,0-2.9-0.1-4.2-1.2c-0.3-0.2-0.3-0.7-0.1-1c0.2-0.3,0.7-0.3,1-0.1c1,0.8,3,0.9,3.7,0.8
							c0.4,0,0.7,0.3,0.8,0.7c0,0.4-0.3,0.7-0.7,0.8C28.2,51.2,28,51.2,27.7,51.2z"/>
					</g>
				</g>
			</g>
		</g>
	</g>
</g>
<g id="Confetti">
</g>
<g id="Sparkler">
</g>
</svg>
