<?xml version="1.0" encoding="utf-8"?>
<!-- Generator: Adobe Illustrator 22.0.1, SVG Export Plug-In . SVG Version: 6.00 Build 0)  -->
<svg version="1.1" id="Layer_1" xmlns="http://www.w3.org/2000/svg" xmlns:xlink="http://www.w3.org/1999/xlink" x="0px" y="0px"
	 viewBox="0 0 91.1 91" style="enable-background:new 0 0 91.1 91;" xml:space="preserve">
<metadata><?xpacket begin="﻿" id="W5M0MpCehiHzreSzNTczkc9d"?>
<x:xmpmeta xmlns:x="adobe:ns:meta/" x:xmptk="Adobe XMP Core 5.6-c143 79.161210, 2017/08/11-10:28:36        ">
   <rdf:RDF xmlns:rdf="http://www.w3.org/1999/02/22-rdf-syntax-ns#">
      <rdf:Description rdf:about=""/>
   </rdf:RDF>
</x:xmpmeta>
                                                                                                    
                                                                                                    
                                                                                                    
                                                                                                    
                                                                                                    
                                                                                                    
                                                                                                    
                                                                                                    
                                                                                                    
                                                                                                    
                                                                                                    
                                                                                                    
                                                                                                    
                                                                                                    
                                                                                                    
                                                                                                    
                                                                                                    
                                                                                                    
                                                                                                    
                                                                                                    
                           
<?xpacket end="w"?></metadata>
<style type="text/css">
	.st0{fill:#F39C75;}
</style>
<g id="Confetti">
</g>
<g id="Sparkler">
</g>
<g>
	<g>
		<g>
			<g>
				<path class="st0" d="M45.4,89C21.5,89,2.1,69.6,2.1,45.7S21.5,2.4,45.4,2.4s43.3,19.4,43.3,43.3S69.3,89,45.4,89z M45.4,4.3
					C22.5,4.3,3.9,22.9,3.9,45.7s18.6,41.5,41.5,41.5s41.5-18.6,41.5-41.5S68.3,4.3,45.4,4.3z"/>
			</g>
		</g>
	</g>
	<g>
		<g>
			<g>
				<g>
					<path class="st0" d="M62.5,52.3c2.6,0,4.2,1.8,4.2,3.8c0,2.6-1.3,3.6-4.8,4.9c-0.7,0.3-1.7,0.6-1.7,1.4v0.3h5.7
						c0.4,0,0.6,0.2,0.6,0.6v0.8c0,0.4-0.2,0.6-0.6,0.6h-7.4c-0.4,0-0.6-0.2-0.6-0.6v-1.3c0-2.3,1.7-3.1,3.4-3.8
						c1.6-0.6,3.1-1.2,3.1-2.9c0-1-0.8-1.9-2-1.9c-1.2,0-1.9,0.5-2.4,1.5c-0.2,0.4-0.3,0.5-0.8,0.4l-0.9-0.3
						c-0.4-0.2-0.5-0.3-0.4-0.7C58.6,53.4,60,52.3,62.5,52.3z"/>
				</g>
			</g>
		</g>
		<g>
			<g>
				<g>
					<g>
						<g>
							<path class="st0" d="M40,63.6c-9.8,0-15.7-5.4-15.7-14.4V37.8c0-9,5.9-14.4,15.7-14.4c9.8,0,15.7,5.4,15.7,14.4v11.4
								C55.6,58.2,49.8,63.6,40,63.6z M40,25c-9,0-14.1,4.7-14.1,12.8v11.4C25.8,57.4,31,62,40,62C48.9,62,54,57.4,54,49.2V37.8
								C54,29.7,48.9,25,40,25z M40,57.5c-5.8,0-9.1-3-9.1-8.3V37.8c0-5.2,3.3-8.3,9.1-8.3s9.1,3,9.1,8.3v11.5
								C49.1,54.5,45.8,57.5,40,57.5z M40,31.1c-3.4,0-7.5,1.2-7.5,6.7v11.5c0,5.5,4.1,6.7,7.5,6.7s7.5-1.2,7.5-6.7V37.8
								C47.5,32.3,43.4,31.1,40,31.1z"/>
						</g>
					</g>
				</g>
			</g>
		</g>
	</g>
</g>
</svg>
