<?xml version="1.0" encoding="utf-8"?>
<!-- Generator: Adobe Illustrator 22.0.1, SVG Export Plug-In . SVG Version: 6.00 Build 0)  -->
<svg version="1.1" id="Layer_1" xmlns="http://www.w3.org/2000/svg" xmlns:xlink="http://www.w3.org/1999/xlink" x="0px" y="0px"
	 viewBox="0 0 91.1 91" style="enable-background:new 0 0 91.1 91;" xml:space="preserve">
<metadata><?xpacket begin="﻿" id="W5M0MpCehiHzreSzNTczkc9d"?>
<x:xmpmeta xmlns:x="adobe:ns:meta/" x:xmptk="Adobe XMP Core 5.6-c143 79.161210, 2017/08/11-10:28:36        ">
   <rdf:RDF xmlns:rdf="http://www.w3.org/1999/02/22-rdf-syntax-ns#">
      <rdf:Description rdf:about=""/>
   </rdf:RDF>
</x:xmpmeta>
                                                                                                    
                                                                                                    
                                                                                                    
                                                                                                    
                                                                                                    
                                                                                                    
                                                                                                    
                                                                                                    
                                                                                                    
                                                                                                    
                                                                                                    
                                                                                                    
                                                                                                    
                                                                                                    
                                                                                                    
                                                                                                    
                                                                                                    
                                                                                                    
                                                                                                    
                                                                                                    
                           
<?xpacket end="w"?></metadata>
<style type="text/css">
	.st0{fill:#F39C75;}
	.st1{fill:#FFFFFF;}
</style>
<g>
	<g>
		<g>
			<path class="st0" d="M45.6,89.1c-23.9,0-43.3-19.4-43.3-43.3S21.7,2.6,45.6,2.6S88.9,22,88.9,45.8S69.5,89.1,45.6,89.1z"/>
		</g>
	</g>
</g>
<g>
	<g>
		<g>
			<g>
				<path class="st1" d="M62.7,52.4c2.6,0,4.2,1.8,4.2,3.8c0,2.6-1.3,3.6-4.8,4.9c-0.7,0.3-1.7,0.6-1.7,1.4v0.3h5.7
					c0.4,0,0.6,0.2,0.6,0.6v0.8c0,0.4-0.2,0.6-0.6,0.6h-7.4c-0.4,0-0.6-0.2-0.6-0.6V63c0-2.3,1.7-3.1,3.4-3.8
					c1.6-0.6,3.1-1.2,3.1-2.9c0-1-0.8-1.9-2-1.9c-1.2,0-1.9,0.5-2.4,1.5c-0.2,0.4-0.3,0.5-0.8,0.4L58.5,56c-0.4-0.2-0.5-0.3-0.4-0.7
					C58.9,53.5,60.2,52.4,62.7,52.4z"/>
			</g>
		</g>
	</g>
	<g>
		<g>
			<g>
				<g>
					<g>
						<path class="st1" d="M40.2,63.7c-9.8,0-15.7-5.4-15.7-14.4V38c0-9,5.9-14.4,15.7-14.4c9.8,0,15.7,5.4,15.7,14.4v11.4
							C55.8,58.4,50,63.7,40.2,63.7z M40.2,25.1c-9,0-14.1,4.7-14.1,12.8v11.4c0,8.1,5.1,12.8,14.1,12.8c8.9,0,14.1-4.7,14.1-12.8
							V38C54.2,29.8,49.1,25.1,40.2,25.1z M40.2,57.6c-5.8,0-9.1-3-9.1-8.3V37.9c0-5.2,3.3-8.3,9.1-8.3s9.1,3,9.1,8.3v11.5
							C49.3,54.6,46,57.6,40.2,57.6z M40.2,31.2c-3.4,0-7.5,1.2-7.5,6.7v11.5c0,5.5,4.1,6.7,7.5,6.7s7.5-1.2,7.5-6.7V37.9
							C47.7,32.4,43.6,31.2,40.2,31.2z"/>
					</g>
				</g>
			</g>
		</g>
	</g>
</g>
<g id="Confetti">
</g>
<g id="Sparkler">
</g>
</svg>
