<?xml version="1.0" encoding="utf-8"?>
<!-- Generator: Adobe Illustrator 22.0.1, SVG Export Plug-In . SVG Version: 6.00 Build 0)  -->
<svg version="1.1" id="Layer_1" xmlns="http://www.w3.org/2000/svg" xmlns:xlink="http://www.w3.org/1999/xlink" x="0px" y="0px"
	 viewBox="0 0 91.1 91" style="enable-background:new 0 0 91.1 91;" xml:space="preserve">
<metadata><?xpacket begin="﻿" id="W5M0MpCehiHzreSzNTczkc9d"?>
<x:xmpmeta xmlns:x="adobe:ns:meta/" x:xmptk="Adobe XMP Core 5.6-c143 79.161210, 2017/08/11-10:28:36        ">
   <rdf:RDF xmlns:rdf="http://www.w3.org/1999/02/22-rdf-syntax-ns#">
      <rdf:Description rdf:about=""/>
   </rdf:RDF>
</x:xmpmeta>
                                                                                                    
                                                                                                    
                                                                                                    
                                                                                                    
                                                                                                    
                                                                                                    
                                                                                                    
                                                                                                    
                                                                                                    
                                                                                                    
                                                                                                    
                                                                                                    
                                                                                                    
                                                                                                    
                                                                                                    
                                                                                                    
                                                                                                    
                                                                                                    
                                                                                                    
                                                                                                    
                           
<?xpacket end="w"?></metadata>
<style type="text/css">
	.st0{fill:#F39C75;}
</style>
<g id="Confetti">
</g>
<g id="Sparkler">
</g>
<g>
	<g>
		<g>
			<g>
				<path class="st0" d="M45.6,89C21.7,89,2.3,69.6,2.3,45.7S21.7,2.4,45.6,2.4s43.3,19.4,43.3,43.3S69.4,89,45.6,89z M45.6,4.3
					C22.7,4.3,4.1,22.9,4.1,45.7s18.6,41.5,41.5,41.5S87,68.6,87,45.7S68.4,4.3,45.6,4.3z"/>
			</g>
		</g>
	</g>
	<g>
		<g>
			<path class="st0" d="M23.9,37.4c2.1,0,3,1.1,3,2.9v4.4c0,0.3-0.1,0.5-0.5,0.5h-0.8c-0.3,0-0.4-0.1-0.4-0.5v-4.4
				c0-1-0.5-1.4-1.6-1.4c-0.6,0-1,0.1-1.4,0.2c-0.1,0-0.1,0.1-0.1,0.1v5.5c0,0.3-0.1,0.5-0.4,0.5h-0.8c-0.3,0-0.5-0.1-0.5-0.5v-6
				c0-0.5,0.1-0.6,0.6-0.8C21.6,37.7,22.5,37.4,23.9,37.4z"/>
			<path class="st0" d="M30.4,35.6v0.1c0,0.7-0.2,0.9-0.9,0.9h-0.1c-0.7,0-0.9-0.2-0.9-0.9v-0.1c0-0.7,0.2-0.9,0.9-0.9h0.1
				C30.1,34.8,30.4,35,30.4,35.6z M30.3,38v6.7c0,0.3-0.1,0.5-0.5,0.5H29c-0.3,0-0.4-0.1-0.4-0.5V38c0-0.3,0.1-0.4,0.4-0.4h0.8
				C30.1,37.6,30.3,37.7,30.3,38z"/>
			<path class="st0" d="M35.1,37.4c1.7,0,2.8,0.8,3.1,1.9c0.1,0.4,0,0.5-0.3,0.7l-0.6,0.2c-0.4,0.1-0.5,0-0.6-0.3
				c-0.2-0.6-0.7-1-1.6-1c-1.1,0-1.6,0.5-1.6,1.4v2.2c0,0.9,0.5,1.4,1.6,1.4c0.8,0,1.4-0.4,1.6-1c0.1-0.4,0.3-0.4,0.6-0.3l0.7,0.2
				c0.3,0.1,0.5,0.3,0.3,0.7c-0.5,1.2-1.5,1.9-3.3,1.9c-2.2,0-3.2-1.1-3.2-3v-2C31.7,38.5,32.8,37.4,35.1,37.4z"/>
			<path class="st0" d="M42.6,37.4c2.2,0,3.4,1.1,3.4,2.9v2.2c0,1.8-1.2,2.9-3.4,2.9c-2.2,0-3.4-1.1-3.4-2.9v-2.2
				C39.3,38.5,40.5,37.4,42.6,37.4z M42.6,38.9c-1.1,0-1.7,0.5-1.7,1.4v2.2c0,0.9,0.6,1.4,1.7,1.4c1.1,0,1.7-0.5,1.7-1.4v-2.2
				C44.3,39.4,43.7,38.9,42.6,38.9z"/>
			<path class="st0" d="M49.9,36.3v1.3h1.7c0.3,0,0.5,0.1,0.5,0.4v0.7c0,0.3-0.1,0.5-0.5,0.5h-1.7v2.9c0,1.4,0.4,1.7,1.7,1.7
				c0.4,0,0.5,0.1,0.5,0.5v0.7c0,0.4-0.1,0.5-0.5,0.5c-2.4,0.1-3.4-0.7-3.4-3.2v-3h-1c-0.3,0-0.4-0.1-0.4-0.5V38
				c0-0.3,0.1-0.4,0.4-0.4h1v-1.3c0-0.3,0.1-0.4,0.5-0.4h0.8C49.7,35.9,49.9,36,49.9,36.3z"/>
			<path class="st0" d="M54.9,35.6v0.1c0,0.7-0.2,0.9-0.9,0.9h-0.1c-0.7,0-0.9-0.2-0.9-0.9v-0.1c0-0.7,0.2-0.9,0.9-0.9H54
				C54.7,34.8,54.9,35,54.9,35.6z M54.8,38v6.7c0,0.3-0.1,0.5-0.5,0.5h-0.8c-0.3,0-0.4-0.1-0.4-0.5V38c0-0.3,0.1-0.4,0.4-0.4h0.8
				C54.7,37.6,54.8,37.7,54.8,38z"/>
			<path class="st0" d="M59.9,37.4c2.1,0,3,1.1,3,2.9v4.4c0,0.3-0.1,0.5-0.5,0.5h-0.8c-0.3,0-0.4-0.1-0.4-0.5v-4.4
				c0-1-0.5-1.4-1.6-1.4c-0.6,0-1,0.1-1.4,0.2c-0.1,0-0.1,0.1-0.1,0.1v5.5c0,0.3-0.1,0.5-0.4,0.5h-0.8c-0.3,0-0.5-0.1-0.5-0.5v-6
				c0-0.5,0.1-0.6,0.6-0.8C57.6,37.7,58.5,37.4,59.9,37.4z"/>
			<path class="st0" d="M67.7,37.4c2.3,0,3.4,1.3,3.4,3v0.9c0,0.4-0.1,0.6-0.7,0.6H66v0.5c0,1,0.6,1.5,1.7,1.5
				c0.9,0,1.4-0.3,1.7-0.8c0.2-0.3,0.4-0.4,0.7-0.2l0.5,0.3c0.3,0.2,0.4,0.4,0.2,0.7c-0.5,0.9-1.5,1.4-3.2,1.4
				c-2.4,0-3.4-1.3-3.4-3.1v-1.7C64.3,38.5,65.5,37.4,67.7,37.4z M67.7,38.8c-1.1,0-1.7,0.5-1.7,1.5v0.3h3.4v-0.3
				C69.4,39.4,68.8,38.8,67.7,38.8z"/>
			<path class="st0" d="M37.9,49.8v0.6c0,0.4-0.1,0.5-0.5,0.5c-1.2,0-1.7,0.4-1.7,1.5v0.1h1.7c0.3,0,0.4,0.1,0.4,0.4v0.7
				c0,0.3-0.1,0.5-0.4,0.5h-1.7v5.6c0,0.3-0.1,0.5-0.5,0.5h-0.8c-0.4,0-0.5-0.1-0.5-0.5v-5.6h-0.9c-0.3,0-0.4-0.1-0.4-0.5v-0.7
				c0-0.3,0.1-0.4,0.4-0.4h0.9v-0.1c0-2,1-3.1,3.2-3.1h0.1C37.8,49.4,37.9,49.5,37.9,49.8z"/>
			<path class="st0" d="M42.5,52.4c0.3,0,0.5,0.1,0.5,0.5v0.6c0,0.3-0.1,0.5-0.5,0.5H42c-0.6,0-1,0.1-1.4,0.2
				c-0.1,0-0.1,0.1-0.1,0.2v5.4c0,0.3-0.1,0.5-0.4,0.5h-0.8c-0.3,0-0.5-0.1-0.5-0.5v-6.1c0-0.5,0.1-0.6,0.6-0.8
				c0.5-0.2,1.4-0.4,2.7-0.4H42.5z"/>
			<path class="st0" d="M46.9,52.4c2.3,0,3.4,1.3,3.4,3v0.9c0,0.4-0.1,0.6-0.7,0.6h-4.4v0.5c0,1,0.6,1.5,1.7,1.5
				c0.9,0,1.4-0.3,1.7-0.8c0.2-0.3,0.4-0.4,0.7-0.2l0.5,0.3c0.3,0.2,0.4,0.4,0.2,0.7c-0.5,0.9-1.5,1.4-3.2,1.4
				c-2.4,0-3.4-1.3-3.4-3.1v-1.7C43.5,53.5,44.7,52.4,46.9,52.4z M46.9,53.8c-1.1,0-1.7,0.5-1.7,1.5v0.3h3.4v-0.3
				C48.6,54.4,48,53.8,46.9,53.8z"/>
			<path class="st0" d="M54.8,52.4c2.3,0,3.4,1.3,3.4,3v0.9c0,0.4-0.1,0.6-0.7,0.6h-4.4v0.5c0,1,0.6,1.5,1.7,1.5
				c0.9,0,1.4-0.3,1.7-0.8c0.2-0.3,0.4-0.4,0.7-0.2l0.5,0.3c0.3,0.2,0.4,0.4,0.2,0.7c-0.5,0.9-1.5,1.4-3.2,1.4
				c-2.4,0-3.4-1.3-3.4-3.1v-1.7C51.4,53.5,52.6,52.4,54.8,52.4z M54.8,53.8c-1.1,0-1.7,0.5-1.7,1.5v0.3h3.4v-0.3
				C56.5,54.4,55.9,53.8,54.8,53.8z"/>
		</g>
		<g>
			<g>
				<g>
					<path class="st0" d="M17.8,14.4c-0.4-0.4-1-0.4-1.4-0.1c-0.4,0.4-0.4,1-0.1,1.4l8.3,9.3c0.2,0.2,0.5,0.3,0.7,0.3
						c0.2,0,0.5-0.1,0.6-0.2c0.2-0.2,0.3-0.4,0.3-0.7c0-0.3-0.1-0.5-0.2-0.7L17.8,14.4z"/>
				</g>
				<g>
					<path class="st0" d="M76.5,74.1l-8.2-9.2c-0.4-0.4-1-0.4-1.4-0.1c-0.4,0.4-0.4,1-0.1,1.4l8.2,9.2c0.2,0.2,0.5,0.3,0.7,0.3
						c0.2,0,0.5-0.1,0.6-0.2C76.8,75.1,76.8,74.5,76.5,74.1z"/>
				</g>
			</g>
		</g>
	</g>
</g>
</svg>
