<?xml version="1.0" encoding="utf-8"?>
<!-- Generator: Adobe Illustrator 22.0.1, SVG Export Plug-In . SVG Version: 6.00 Build 0)  -->
<svg version="1.1" id="Layer_1" xmlns="http://www.w3.org/2000/svg" xmlns:xlink="http://www.w3.org/1999/xlink" x="0px" y="0px"
	 viewBox="0 0 91.1 91" style="enable-background:new 0 0 91.1 91;" xml:space="preserve">
<metadata><?xpacket begin="﻿" id="W5M0MpCehiHzreSzNTczkc9d"?>
<x:xmpmeta xmlns:x="adobe:ns:meta/" x:xmptk="Adobe XMP Core 5.6-c143 79.161210, 2017/08/11-10:28:36        ">
   <rdf:RDF xmlns:rdf="http://www.w3.org/1999/02/22-rdf-syntax-ns#">
      <rdf:Description rdf:about=""/>
   </rdf:RDF>
</x:xmpmeta>
                                                                                                    
                                                                                                    
                                                                                                    
                                                                                                    
                                                                                                    
                                                                                                    
                                                                                                    
                                                                                                    
                                                                                                    
                                                                                                    
                                                                                                    
                                                                                                    
                                                                                                    
                                                                                                    
                                                                                                    
                                                                                                    
                                                                                                    
                                                                                                    
                                                                                                    
                                                                                                    
                           
<?xpacket end="w"?></metadata>
<style type="text/css">
	.st0{fill:#F39C75;}
	.st1{fill:#FFFFFF;}
</style>
<g>
	<g>
		<g>
			<path class="st0" d="M67.2,64.9c0.4-0.4,1-0.3,1.4,0.1l9.2,10.1c7.1-7.7,11.4-18,11.4-29.3C89.2,22,69.8,2.6,45.9,2.6
				c-11.1,0-21.2,4.2-28.8,11l9.4,10.3c0.2,0.2,0.3,0.4,0.2,0.7c0,0.3-0.1,0.5-0.3,0.7c-0.2,0.2-0.4,0.2-0.6,0.2
				c-0.3,0-0.5-0.1-0.7-0.3L15.7,15c-8,7.9-13,18.8-13,30.9c0,23.9,19.4,43.3,43.3,43.3c11.9,0,22.7-4.8,30.5-12.6l-9.3-10.2
				C66.8,65.9,66.8,65.3,67.2,64.9z"/>
		</g>
		<g>
			<path class="st1" d="M25.7,25.6c0.2,0,0.5-0.1,0.6-0.2c0.2-0.2,0.3-0.4,0.3-0.7c0-0.3-0.1-0.5-0.2-0.7l-9.4-10.3
				c-0.5,0.4-1,0.9-1.4,1.3L25,25.2C25.2,25.4,25.4,25.6,25.7,25.6z"/>
		</g>
		<g>
			<path class="st1" d="M77.7,75.2L68.6,65c-0.4-0.4-1-0.4-1.4-0.1c-0.4,0.4-0.4,1-0.1,1.4l9.3,10.2C76.8,76.1,77.3,75.6,77.7,75.2z
				"/>
		</g>
	</g>
	<g>
		<path class="st1" d="M24.2,37.6c2.1,0,3,1.1,3,2.9v4.4c0,0.3-0.1,0.5-0.5,0.5H26c-0.3,0-0.4-0.1-0.4-0.5v-4.4c0-1-0.5-1.4-1.6-1.4
			c-0.6,0-1,0.1-1.4,0.2c-0.1,0-0.1,0.1-0.1,0.1v5.5c0,0.3-0.1,0.5-0.4,0.5h-0.8c-0.3,0-0.5-0.1-0.5-0.5v-6c0-0.5,0.1-0.6,0.6-0.8
			C21.9,37.8,22.8,37.6,24.2,37.6z"/>
		<path class="st1" d="M30.7,35.8v0.1c0,0.7-0.2,0.9-0.9,0.9h-0.1c-0.7,0-0.9-0.2-0.9-0.9v-0.1c0-0.7,0.2-0.9,0.9-0.9h0.1
			C30.5,34.9,30.7,35.1,30.7,35.8z M30.6,38.2v6.7c0,0.3-0.1,0.5-0.5,0.5h-0.8c-0.3,0-0.4-0.1-0.4-0.5v-6.7c0-0.3,0.1-0.4,0.4-0.4
			h0.8C30.5,37.8,30.6,37.9,30.6,38.2z"/>
		<path class="st1" d="M35.4,37.6c1.7,0,2.8,0.8,3.1,1.9c0.1,0.4,0,0.5-0.3,0.7l-0.6,0.2c-0.4,0.1-0.5,0-0.6-0.3
			c-0.2-0.6-0.7-1-1.6-1c-1.1,0-1.6,0.5-1.6,1.4v2.2c0,0.9,0.5,1.4,1.6,1.4c0.8,0,1.4-0.4,1.6-1c0.1-0.4,0.3-0.4,0.6-0.3l0.7,0.2
			c0.3,0.1,0.5,0.3,0.3,0.7c-0.5,1.2-1.5,1.9-3.3,1.9c-2.2,0-3.2-1.1-3.2-3v-2C32,38.7,33.1,37.6,35.4,37.6z"/>
		<path class="st1" d="M43,37.6c2.2,0,3.4,1.1,3.4,2.9v2.2c0,1.8-1.2,2.9-3.4,2.9c-2.2,0-3.4-1.1-3.4-2.9v-2.2
			C39.6,38.7,40.8,37.6,43,37.6z M43,39.1c-1.1,0-1.7,0.5-1.7,1.4v2.2c0,0.9,0.6,1.4,1.7,1.4c1.1,0,1.7-0.5,1.7-1.4v-2.2
			C44.7,39.6,44.1,39.1,43,39.1z"/>
		<path class="st1" d="M50.2,36.5v1.3h1.7c0.3,0,0.5,0.1,0.5,0.4v0.7c0,0.3-0.1,0.5-0.5,0.5h-1.7v2.9c0,1.4,0.4,1.7,1.7,1.7
			c0.4,0,0.5,0.1,0.5,0.5v0.7c0,0.4-0.1,0.5-0.5,0.5c-2.4,0.1-3.4-0.7-3.4-3.2v-3h-1c-0.3,0-0.4-0.1-0.4-0.5v-0.7
			c0-0.3,0.1-0.4,0.4-0.4h1v-1.3c0-0.3,0.1-0.4,0.5-0.4h0.8C50.1,36,50.2,36.1,50.2,36.5z"/>
		<path class="st1" d="M55.2,35.8v0.1c0,0.7-0.2,0.9-0.9,0.9h-0.1c-0.7,0-0.9-0.2-0.9-0.9v-0.1c0-0.7,0.2-0.9,0.9-0.9h0.1
			C55,34.9,55.2,35.1,55.2,35.8z M55.1,38.2v6.7c0,0.3-0.1,0.5-0.5,0.5h-0.8c-0.3,0-0.4-0.1-0.4-0.5v-6.7c0-0.3,0.1-0.4,0.4-0.4h0.8
			C55,37.8,55.1,37.9,55.1,38.2z"/>
		<path class="st1" d="M60.3,37.6c2.1,0,3,1.1,3,2.9v4.4c0,0.3-0.1,0.5-0.5,0.5H62c-0.3,0-0.4-0.1-0.4-0.5v-4.4c0-1-0.5-1.4-1.6-1.4
			c-0.6,0-1,0.1-1.4,0.2c-0.1,0-0.1,0.1-0.1,0.1v5.5c0,0.3-0.1,0.5-0.4,0.5h-0.8c-0.3,0-0.5-0.1-0.5-0.5v-6c0-0.5,0.1-0.6,0.6-0.8
			C58,37.8,58.9,37.6,60.3,37.6z"/>
		<path class="st1" d="M68.1,37.6c2.3,0,3.4,1.3,3.4,3v0.9c0,0.4-0.1,0.6-0.7,0.6h-4.4v0.5c0,1,0.6,1.5,1.7,1.5
			c0.9,0,1.4-0.3,1.7-0.8c0.2-0.3,0.4-0.4,0.7-0.2l0.5,0.3c0.3,0.2,0.4,0.4,0.2,0.7c-0.5,0.9-1.5,1.4-3.2,1.4
			c-2.4,0-3.4-1.3-3.4-3.1v-1.7C64.7,38.7,65.9,37.6,68.1,37.6z M68.1,39c-1.1,0-1.7,0.5-1.7,1.5v0.3h3.4v-0.3
			C69.8,39.5,69.2,39,68.1,39z"/>
		<path class="st1" d="M38.2,50v0.6c0,0.4-0.1,0.5-0.5,0.5c-1.2,0-1.7,0.4-1.7,1.5v0.1h1.7c0.3,0,0.4,0.1,0.4,0.4v0.7
			c0,0.3-0.1,0.5-0.4,0.5h-1.7v5.6c0,0.3-0.1,0.5-0.5,0.5h-0.8c-0.4,0-0.5-0.1-0.5-0.5v-5.6h-0.9c-0.3,0-0.4-0.1-0.4-0.5v-0.7
			c0-0.3,0.1-0.4,0.4-0.4h0.9v-0.1c0-2,1-3.1,3.2-3.1h0.1C38.1,49.5,38.2,49.7,38.2,50z"/>
		<path class="st1" d="M42.9,52.6c0.3,0,0.5,0.1,0.5,0.5v0.6c0,0.3-0.1,0.5-0.5,0.5h-0.5c-0.6,0-1,0.1-1.4,0.2
			c-0.1,0-0.1,0.1-0.1,0.2v5.4c0,0.3-0.1,0.5-0.4,0.5h-0.8c-0.3,0-0.5-0.1-0.5-0.5v-6.1c0-0.5,0.1-0.6,0.6-0.8
			c0.5-0.2,1.4-0.4,2.7-0.4H42.9z"/>
		<path class="st1" d="M47.3,52.6c2.3,0,3.4,1.3,3.4,3v0.9c0,0.4-0.1,0.6-0.7,0.6h-4.4v0.5c0,1,0.6,1.5,1.7,1.5
			c0.9,0,1.4-0.3,1.7-0.8c0.2-0.3,0.4-0.4,0.7-0.2l0.5,0.3c0.3,0.2,0.4,0.4,0.2,0.7c-0.5,0.9-1.5,1.4-3.2,1.4
			c-2.4,0-3.4-1.3-3.4-3.1v-1.7C43.9,53.7,45,52.6,47.3,52.6z M47.3,54c-1.1,0-1.7,0.5-1.7,1.5v0.3h3.4v-0.3
			C48.9,54.6,48.4,54,47.3,54z"/>
		<path class="st1" d="M55.1,52.6c2.3,0,3.4,1.3,3.4,3v0.9c0,0.4-0.1,0.6-0.7,0.6h-4.4v0.5c0,1,0.6,1.5,1.7,1.5
			c0.9,0,1.4-0.3,1.7-0.8c0.2-0.3,0.4-0.4,0.7-0.2l0.5,0.3c0.3,0.2,0.4,0.4,0.2,0.7c-0.5,0.9-1.5,1.4-3.2,1.4
			c-2.4,0-3.4-1.3-3.4-3.1v-1.7C51.7,53.7,52.9,52.6,55.1,52.6z M55.1,54c-1.1,0-1.7,0.5-1.7,1.5v0.3h3.4v-0.3
			C56.8,54.6,56.2,54,55.1,54z"/>
	</g>
</g>
<g id="Confetti">
</g>
<g id="Sparkler">
</g>
</svg>
