<?xml version="1.0" encoding="utf-8"?>
<!-- Generator: Adobe Illustrator 22.0.1, SVG Export Plug-In . SVG Version: 6.00 Build 0)  -->
<svg version="1.1" id="Layer_1" xmlns="http://www.w3.org/2000/svg" xmlns:xlink="http://www.w3.org/1999/xlink" x="0px" y="0px"
	 viewBox="0 0 91.1 91" style="enable-background:new 0 0 91.1 91;" xml:space="preserve">
<metadata><?xpacket begin="﻿" id="W5M0MpCehiHzreSzNTczkc9d"?>
<x:xmpmeta xmlns:x="adobe:ns:meta/" x:xmptk="Adobe XMP Core 5.6-c143 79.161210, 2017/08/11-10:28:36        ">
   <rdf:RDF xmlns:rdf="http://www.w3.org/1999/02/22-rdf-syntax-ns#">
      <rdf:Description rdf:about=""/>
   </rdf:RDF>
</x:xmpmeta>
                                                                                                    
                                                                                                    
                                                                                                    
                                                                                                    
                                                                                                    
                                                                                                    
                                                                                                    
                                                                                                    
                                                                                                    
                                                                                                    
                                                                                                    
                                                                                                    
                                                                                                    
                                                                                                    
                                                                                                    
                                                                                                    
                                                                                                    
                                                                                                    
                                                                                                    
                                                                                                    
                           
<?xpacket end="w"?></metadata>
<style type="text/css">
	.st0{fill:#F39C75;}
</style>
<g id="Confetti">
</g>
<g id="Sparkler">
</g>
<g>
	<g>
		<g>
			<g>
				<path class="st0" d="M45.7,89C21.9,89,2.4,69.6,2.4,45.7S21.9,2.4,45.7,2.4S89,21.8,89,45.7S69.6,89,45.7,89z M45.7,4.3
					C22.9,4.3,4.3,22.9,4.3,45.7s18.6,41.5,41.5,41.5s41.5-18.6,41.5-41.5S68.6,4.3,45.7,4.3z"/>
			</g>
		</g>
	</g>
	<g>
		<g>
			<g>
				<path class="st0" d="M44.9,55.1c-0.8,0-1.6-0.1-2.5-0.3c-2.7-0.6-5-2.4-6.1-4.7c-0.8-1.7-1.3-4.6,0.6-8.3
					c5.4-10,8.3-29.4,8.3-29.6c0.1-0.4,0.5-0.7,0.9-0.7c0.4,0.1,0.7,0.5,0.7,0.9c-0.1,0.8-2.9,19.8-8.5,30.1
					c-1.3,2.4-1.5,4.8-0.6,6.8c0.9,1.9,2.7,3.3,4.9,3.8c2.1,0.5,3.8,0.3,5-0.5c1.3-0.8,2.2-2.5,2.6-4.8c0.1-0.4,0.5-0.7,0.9-0.6
					c0.4,0.1,0.7,0.5,0.6,0.9c-0.5,2.8-1.6,4.7-3.3,5.8C47.6,54.8,46.4,55.1,44.9,55.1z"/>
			</g>
		</g>
		<g>
			<g>
				<g>
					<path class="st0" d="M43.3,73.1c-0.5,0-0.9,0-1.4-0.1c-8.3-0.8-13.1-8.4-13.3-8.7c-0.2-0.3-0.2-0.6,0-0.9
						c0.2-0.3,0.5-0.4,0.8-0.3c7.4,1.9,29,0,29.2,0c0.3,0,0.6,0.1,0.8,0.4c0.1,0.3,0.1,0.7-0.1,0.9C54,70.2,48.6,73.1,43.3,73.1z
						 M31.2,65.1c1.8,2.2,5.7,5.9,10.9,6.4c4.8,0.5,9.7-1.8,14.7-6.6C51.6,65.3,38.4,66.1,31.2,65.1z"/>
				</g>
			</g>
		</g>
		<g>
			<g>
				<path class="st0" d="M32.9,54.7c-1.6,0-3.2-0.2-4.4-1c-1-0.6-1.6-1.5-1.8-2.6c-0.5-2.6-0.1-4.9,1.1-6.5c1-1.4,2.6-2.2,4.7-2.4
					c0.4,0,0.8,0.3,0.9,0.7c0,0.4-0.3,0.8-0.7,0.9c-1.6,0.2-2.8,0.8-3.6,1.8c-0.9,1.2-1.2,3.1-0.8,5.2c0.1,0.7,0.5,1.1,1,1.5
					c2.4,1.5,8.1,0.3,10.1-0.3c0.4-0.1,0.9,0.1,1,0.5c0.1,0.4-0.1,0.9-0.5,1C39.6,53.8,36.2,54.7,32.9,54.7z"/>
			</g>
		</g>
		<g>
			<g>
				<path class="st0" d="M55,54.5c-3.5,0-6.2-0.8-6.3-0.8c-0.4-0.1-0.7-0.6-0.5-1c0.1-0.4,0.6-0.7,1-0.5c0,0,4.5,1.3,9.4,0.4
					c2-0.4,2.5-1.7,2.5-2.8c0.1-1.9-1.1-4.1-2.6-4.5c-0.4-0.1-0.7-0.6-0.5-1c0.1-0.4,0.6-0.7,1-0.5c2.2,0.6,3.9,3.4,3.8,6.1
					c-0.1,2.3-1.5,3.9-3.8,4.3C57.5,54.4,56.2,54.5,55,54.5z"/>
			</g>
		</g>
	</g>
</g>
</svg>
