<?xml version="1.0" encoding="utf-8"?>
<!-- Generator: Adobe Illustrator 22.0.1, SVG Export Plug-In . SVG Version: 6.00 Build 0)  -->
<svg version="1.1" id="Layer_1" xmlns="http://www.w3.org/2000/svg" xmlns:xlink="http://www.w3.org/1999/xlink" x="0px" y="0px"
	 viewBox="0 0 91.1 91" style="enable-background:new 0 0 91.1 91;" xml:space="preserve">
<metadata><?xpacket begin="﻿" id="W5M0MpCehiHzreSzNTczkc9d"?>
<x:xmpmeta xmlns:x="adobe:ns:meta/" x:xmptk="Adobe XMP Core 5.6-c143 79.161210, 2017/08/11-10:28:36        ">
   <rdf:RDF xmlns:rdf="http://www.w3.org/1999/02/22-rdf-syntax-ns#">
      <rdf:Description rdf:about=""/>
   </rdf:RDF>
</x:xmpmeta>
                                                                                                    
                                                                                                    
                                                                                                    
                                                                                                    
                                                                                                    
                                                                                                    
                                                                                                    
                                                                                                    
                                                                                                    
                                                                                                    
                                                                                                    
                                                                                                    
                                                                                                    
                                                                                                    
                                                                                                    
                                                                                                    
                                                                                                    
                                                                                                    
                                                                                                    
                                                                                                    
                           
<?xpacket end="w"?></metadata>
<style type="text/css">
	.st0{fill:#F39C75;}
	.st1{fill:#FFFFFF;}
</style>
<g>
	<g>
		<g>
			<path class="st0" d="M45.6,89C21.7,89,2.3,69.6,2.3,45.7S21.7,2.4,45.6,2.4s43.3,19.4,43.3,43.3S69.4,89,45.6,89z"/>
		</g>
	</g>
</g>
<g>
	<g>
		<path class="st1" d="M45.4,77.9c-17.7,0-32.1-14.4-32.1-32.1s14.4-32.1,32.1-32.1s32.1,14.4,32.1,32.1S63.1,77.9,45.4,77.9z
			 M45.4,15.3c-16.8,0-30.5,13.7-30.5,30.5s13.7,30.5,30.5,30.5s30.5-13.7,30.5-30.5S62.2,15.3,45.4,15.3z"/>
	</g>
</g>
<g>
	<g>
		<path class="st1" d="M45.5,43.1C45.5,43.1,45.5,43.1,45.5,43.1c-0.4,0-0.6-0.2-0.7-0.5c-0.6-1.5-5.8-14.8-5.9-16.9
			c-0.1-0.8,0.1-2.4,1.3-3.6c1.4-1.3,3.7-1.8,6.9-1.5c3.7,0.4,6,1.3,6.9,3c1,1.6,0.4,3.5-0.2,4.7c-1.1,2.6-7.3,13.9-7.6,14.4
			C46.1,43,45.8,43.1,45.5,43.1z M45.3,22.1c-1.8,0-3.2,0.4-4,1.2c-0.8,0.8-0.9,1.8-0.8,2.3c0.1,1.2,3,9.2,5.2,14.8
			c1.8-3.3,5.8-10.8,6.7-12.8c0.6-1.5,0.7-2.5,0.3-3.3c-0.7-1.1-2.6-1.9-5.7-2.2C46.3,22.2,45.8,22.1,45.3,22.1z"/>
	</g>
</g>
<g>
	<g>
		<path class="st1" d="M42.3,44.4c-0.1,0-0.1,0-0.2,0c-1.6-0.5-15.4-4.5-17.1-5.7c-0.7-0.5-1.8-1.5-2-3.3c-0.2-1.9,0.8-4,3.1-6.3
			c2.6-2.7,4.8-3.8,6.6-3.6c1.9,0.3,2.9,1.9,3.6,3c1.4,2.5,6.5,14.2,6.8,14.7c0.1,0.3,0.1,0.6-0.1,0.8
			C42.7,44.3,42.5,44.4,42.3,44.4z M32.2,27.1c-1.3,0-3,1.1-5,3.1c-1.9,1.9-2.8,3.7-2.6,5.1c0.1,1.1,0.9,1.8,1.3,2.1
			c1,0.7,9.1,3.2,15,5c-1.5-3.4-5-11.1-6-13c-0.8-1.4-1.5-2.1-2.4-2.2C32.3,27.1,32.3,27.1,32.2,27.1z"/>
	</g>
</g>
<g>
	<g>
		<path class="st1" d="M49.3,43.8c-0.2,0-0.5-0.1-0.6-0.3c-0.2-0.2-0.2-0.6-0.1-0.9c0.7-1.5,7.3-14.5,8.7-16
			c0.6-0.6,1.8-1.6,3.5-1.4c1.9,0.1,3.8,1.5,5.8,4c2.2,3,3,5.3,2.5,7.1c-0.5,1.8-2.3,2.6-3.6,3.1c-2.7,0.9-15.4,4.2-16,4.4
			C49.4,43.8,49.4,43.8,49.3,43.8z M60.5,26.8c-1,0-1.8,0.6-2.1,1c-0.9,0.9-4.8,8.5-7.6,14c3.7-1,12.1-3.2,14.1-3.9
			c1.5-0.5,2.3-1.2,2.6-2c0.4-1.2-0.4-3.2-2.2-5.7c-1.6-2.1-3.2-3.3-4.6-3.4C60.6,26.8,60.6,26.8,60.5,26.8z"/>
	</g>
</g>
<g>
	<g>
		<path class="st1" d="M36.9,69.3c-1.6,0-3.5-0.7-5.5-2.2c-3-2.2-4.5-4.1-4.5-6c0-1.9,1.4-3.2,2.5-4c2.2-1.7,13-8.6,13.5-8.9
			c0.3-0.2,0.6-0.2,0.9,0c0.3,0.2,0.4,0.5,0.4,0.8c-0.2,1.6-2.1,15.9-3,17.7c-0.4,0.7-1.2,2-2.9,2.5C37.7,69.3,37.3,69.3,36.9,69.3z
			 M42.2,50.5c-3.1,2-10.2,6.6-11.9,7.9c-1.3,1-1.9,1.8-1.8,2.7c0,1.3,1.4,2.9,3.9,4.7c2.2,1.5,4,2.2,5.4,1.8
			c1.1-0.3,1.6-1.1,1.9-1.6C40.1,64.9,41.4,56.5,42.2,50.5z"/>
	</g>
</g>
<g>
	<g>
		<path class="st1" d="M24.4,56.4c-0.8,0-1.7-0.2-2.6-0.8c-1.5-1.1-2.4-3.3-2.7-6.5c-0.3-3.7,0.3-6.1,1.7-7.3c1.4-1.2,3.3-1,4.7-0.6
			c2.7,0.6,14.9,4.6,15.5,4.7c0.3,0.1,0.5,0.4,0.5,0.7c0,0.3-0.1,0.6-0.4,0.8c-1.4,0.9-13.6,8.5-15.6,9
			C25.3,56.3,24.9,56.4,24.4,56.4z M23.6,42.4c-0.7,0-1.2,0.2-1.6,0.5c-1,0.8-1.4,2.9-1.2,6c0.2,2.7,0.9,4.5,2,5.3
			c0.9,0.7,1.9,0.5,2.4,0.4c1.2-0.3,8.5-4.7,13.7-7.9c-3.5-1.1-11.6-3.7-13.7-4.2C24.6,42.5,24,42.4,23.6,42.4z"/>
	</g>
</g>
<g>
	<g>
		<path class="st1" d="M50.8,70.2c-0.9,0-1.6-0.2-2.2-0.5c-1.6-0.9-2-2.8-2.2-4.2c-0.3-2.8-1-16.3-1-16.9c0-0.3,0.2-0.6,0.4-0.8
			c0.3-0.1,0.6-0.1,0.9,0.1c1.3,1.1,12.8,10.6,13.9,12.3c0.4,0.7,1.1,2.1,0.6,3.8c-0.5,1.8-2.3,3.4-5.2,4.7
			C53.9,69.8,52.2,70.2,50.8,70.2z M47,50.4c0.2,3.9,0.6,12.8,0.9,14.9c0.2,1.6,0.6,2.5,1.4,3c1.1,0.6,3.2,0.3,6-0.9
			c2.4-1.1,3.9-2.4,4.3-3.7c0.3-1.1-0.1-2-0.4-2.4C58.6,60.2,51.9,54.5,47,50.4z"/>
	</g>
</g>
<g>
	<g>
		<path class="st1" d="M64.7,57.7c-1.3,0-2.4-0.6-3.3-1.2C59.1,55,48.8,47.3,48.4,47c-0.2-0.2-0.4-0.5-0.3-0.8s0.3-0.5,0.6-0.6
			c1.6-0.4,15.6-3.6,17.7-3.4c0.8,0.1,2.3,0.4,3.3,1.9c1.1,1.6,1.2,3.9,0.4,7c-1,3.6-2.3,5.7-4,6.4C65.6,57.6,65.2,57.7,64.7,57.7z
			 M50.7,46.8c3,2.2,9.8,7.3,11.6,8.4c1.4,0.9,2.4,1.1,3.2,0.8c1.2-0.5,2.3-2.3,3.1-5.3c0.7-2.6,0.6-4.5-0.2-5.7
			c-0.6-0.9-1.6-1.1-2.2-1.2C65,43.7,56.7,45.4,50.7,46.8z"/>
	</g>
</g>
<g id="Confetti">
</g>
<g id="Sparkler">
</g>
</svg>
