<?xml version="1.0" encoding="utf-8"?>
<!-- Generator: Adobe Illustrator 22.0.1, SVG Export Plug-In . SVG Version: 6.00 Build 0)  -->
<svg version="1.1" id="Layer_1" xmlns="http://www.w3.org/2000/svg" xmlns:xlink="http://www.w3.org/1999/xlink" x="0px" y="0px"
	 viewBox="0 0 89.9 90" style="enable-background:new 0 0 89.9 90;" xml:space="preserve">
<metadata><?xpacket begin="﻿" id="W5M0MpCehiHzreSzNTczkc9d"?>
<x:xmpmeta xmlns:x="adobe:ns:meta/" x:xmptk="Adobe XMP Core 5.6-c143 79.161210, 2017/08/11-10:28:36        ">
   <rdf:RDF xmlns:rdf="http://www.w3.org/1999/02/22-rdf-syntax-ns#">
      <rdf:Description rdf:about=""/>
   </rdf:RDF>
</x:xmpmeta>
                                                                                                    
                                                                                                    
                                                                                                    
                                                                                                    
                                                                                                    
                                                                                                    
                                                                                                    
                                                                                                    
                                                                                                    
                                                                                                    
                                                                                                    
                                                                                                    
                                                                                                    
                                                                                                    
                                                                                                    
                                                                                                    
                                                                                                    
                                                                                                    
                                                                                                    
                                                                                                    
                           
<?xpacket end="w"?></metadata>
<style type="text/css">
	.st0{fill:#4DBCC5;}
	.st1{fill:#FFFFFF;}
</style>
<g>
	<g>
		<g>
			<path class="st0" d="M45.1,87.4C21.2,87.4,1.8,68,1.8,44.1S21.2,0.8,45.1,0.8s43.3,19.4,43.3,43.3S68.9,87.4,45.1,87.4z"/>
		</g>
	</g>
	<g>
		<path class="st1" d="M21.2,32.3v16.9c0,0.7-0.2,0.9-0.9,0.9h-1.5c-0.7,0-0.9-0.2-0.9-0.9V35.5l-3.7,2.1c-0.7,0.4-1,0.2-1.3-0.3
			L12.2,36c-0.3-0.6-0.2-0.9,0.4-1.2l5.1-3c0.5-0.3,0.7-0.4,1.3-0.4h1.3C21,31.5,21.2,31.7,21.2,32.3z"/>
		<path class="st1" d="M25.1,53.4h-0.6c-0.5,0-0.6-0.1-0.6-0.6l0.7-4.9c0.1-0.7,0.4-0.9,1.1-0.9h1.2c0.8,0,1.1,0.3,0.8,0.9l-1.6,4.7
			C25.9,53.1,25.7,53.4,25.1,53.4z"/>
		<path class="st1" d="M37,31.1c4.4,0,7,2.5,7,6.4v6.8c0,3.9-2.5,6.4-7,6.4c-4.4,0-7-2.5-7-6.4v-6.8C30.1,33.5,32.6,31.1,37,31.1z
			 M37,34.1c-2.3,0-3.7,1.2-3.7,3.3v6.8c0,2.1,1.3,3.3,3.7,3.3c2.3,0,3.7-1.2,3.7-3.3v-6.8C40.7,35.3,39.4,34.1,37,34.1z"/>
		<path class="st1" d="M53.7,31.1c4.4,0,7,2.5,7,6.4v6.8c0,3.9-2.5,6.4-7,6.4c-4.4,0-7-2.5-7-6.4v-6.8
			C46.8,33.5,49.3,31.1,53.7,31.1z M53.7,34.1c-2.3,0-3.7,1.2-3.7,3.3v6.8c0,2.1,1.3,3.3,3.7,3.3c2.3,0,3.7-1.2,3.7-3.3v-6.8
			C57.4,35.3,56.1,34.1,53.7,34.1z"/>
		<path class="st1" d="M70.5,31.1c4.4,0,7,2.5,7,6.4v6.8c0,3.9-2.5,6.4-7,6.4c-4.4,0-7-2.5-7-6.4v-6.8C63.5,33.5,66,31.1,70.5,31.1z
			 M70.5,34.1c-2.3,0-3.7,1.2-3.7,3.3v6.8c0,2.1,1.3,3.3,3.7,3.3c2.3,0,3.7-1.2,3.7-3.3v-6.8C74.1,35.3,72.8,34.1,70.5,34.1z"/>
	</g>
	<g>
		<path class="st1" d="M33.9,55.1v2c0.1-0.1,0.6-0.1,1.2-0.1c1.5,0,2.1,0.8,2.1,2.1v3.1c0,0.2-0.1,0.3-0.3,0.3h-0.6
			c-0.2,0-0.3-0.1-0.3-0.3V59c0-0.7-0.4-1-1.1-1c-0.5,0-1,0.1-1.1,0.2v3.9c0,0.2-0.1,0.3-0.3,0.3H33c-0.2,0-0.3-0.1-0.3-0.3v-7
			c0-0.2,0.1-0.3,0.3-0.3h0.6C33.8,54.8,33.9,54.9,33.9,55.1z"/>
		<path class="st1" d="M40.6,56.9c1.5,0,2.4,0.8,2.4,2.1v1.5c0,1.3-0.8,2.1-2.4,2.1c-1.5,0-2.4-0.8-2.4-2.1V59
			C38.2,57.7,39.1,56.9,40.6,56.9z M40.6,58c-0.8,0-1.2,0.3-1.2,1v1.5c0,0.6,0.4,1,1.2,1c0.8,0,1.2-0.4,1.2-1V59
			C41.8,58.4,41.4,58,40.6,58z"/>
		<path class="st1" d="M48.5,57.4v4.2c0,0.3-0.1,0.4-0.4,0.6c-0.4,0.2-1,0.4-2,0.4c-1.5,0-2.1-0.8-2.1-2.1v-3.1
			c0-0.2,0.1-0.3,0.3-0.3h0.6c0.2,0,0.3,0.1,0.3,0.3v3.1c0,0.7,0.4,1,1.1,1c0.4,0,0.7,0,0.9-0.1c0.1,0,0.1-0.1,0.1-0.2v-3.8
			c0-0.2,0.1-0.3,0.3-0.3h0.6C48.4,57.1,48.5,57.2,48.5,57.4z"/>
		<path class="st1" d="M52.3,56.9c0.2,0,0.3,0.1,0.3,0.3v0.5c0,0.2-0.1,0.3-0.3,0.3h-0.4c-0.4,0-0.7,0-1,0.1c-0.1,0-0.1,0.1-0.1,0.1
			v3.8c0,0.2-0.1,0.3-0.3,0.3H50c-0.2,0-0.3-0.1-0.3-0.3v-4.3c0-0.3,0.1-0.5,0.4-0.6c0.4-0.1,1-0.3,1.9-0.3H52.3z"/>
		<path class="st1" d="M55.2,56.9c1.2,0,1.9,0.4,2.2,1.1c0.1,0.2,0.1,0.4-0.2,0.5l-0.5,0.2c-0.2,0.1-0.3,0.1-0.4-0.1
			c-0.2-0.3-0.5-0.5-1.1-0.5c-0.7,0-1,0.2-1,0.6c0,0.5,0.4,0.6,1.2,0.6c1.2,0.1,2.1,0.4,2.1,1.7c0,1-0.8,1.7-2.2,1.7
			c-1.2,0-2-0.4-2.3-1.2c-0.1-0.2,0-0.3,0.2-0.4l0.5-0.1c0.2-0.1,0.3,0,0.4,0.2c0.2,0.4,0.5,0.6,1.2,0.6c0.7,0,1.1-0.2,1.1-0.6
			c0-0.5-0.4-0.6-1.2-0.7c-1-0.1-2.1-0.3-2.1-1.7C53.1,57.6,53.7,56.9,55.2,56.9z"/>
	</g>
</g>
<g id="Confetti">
</g>
<g id="Sparkler">
</g>
</svg>
