<?xml version="1.0" encoding="utf-8"?>
<!-- Generator: Adobe Illustrator 22.0.1, SVG Export Plug-In . SVG Version: 6.00 Build 0)  -->
<svg version="1.1" id="Layer_1" xmlns="http://www.w3.org/2000/svg" xmlns:xlink="http://www.w3.org/1999/xlink" x="0px" y="0px"
	 viewBox="0 0 89.9 90" style="enable-background:new 0 0 89.9 90;" xml:space="preserve">
<metadata><?xpacket begin="﻿" id="W5M0MpCehiHzreSzNTczkc9d"?>
<x:xmpmeta xmlns:x="adobe:ns:meta/" x:xmptk="Adobe XMP Core 5.6-c143 79.161210, 2017/08/11-10:28:36        ">
   <rdf:RDF xmlns:rdf="http://www.w3.org/1999/02/22-rdf-syntax-ns#">
      <rdf:Description rdf:about=""/>
   </rdf:RDF>
</x:xmpmeta>
                                                                                                    
                                                                                                    
                                                                                                    
                                                                                                    
                                                                                                    
                                                                                                    
                                                                                                    
                                                                                                    
                                                                                                    
                                                                                                    
                                                                                                    
                                                                                                    
                                                                                                    
                                                                                                    
                                                                                                    
                                                                                                    
                                                                                                    
                                                                                                    
                                                                                                    
                                                                                                    
                           
<?xpacket end="w"?></metadata>
<style type="text/css">
	.st0{fill:#4DBCC5;}
</style>
<g id="Confetti">
</g>
<g id="Sparkler">
</g>
<g>
	<g>
		<g>
			<g>
				<path class="st0" d="M45,87.9c-23.9,0-43.3-19.4-43.3-43.3S21.1,1.3,45,1.3s43.3,19.4,43.3,43.3S68.8,87.9,45,87.9z M45,3.2
					C22.1,3.2,3.5,21.8,3.5,44.6S22.1,86.1,45,86.1s41.5-18.6,41.5-41.5S67.8,3.2,45,3.2z"/>
			</g>
		</g>
	</g>
	<g>
		<path class="st0" d="M21.4,32.3v16.9c0,0.7-0.2,0.9-0.9,0.9H19c-0.7,0-0.9-0.2-0.9-0.9V35.4l-3.7,2.1c-0.7,0.4-1,0.2-1.3-0.3
			l-0.7-1.2c-0.3-0.6-0.2-0.9,0.4-1.2l5.1-3c0.5-0.3,0.7-0.4,1.3-0.4h1.3C21.1,31.4,21.4,31.6,21.4,32.3z"/>
		<path class="st0" d="M25.3,53.3h-0.6c-0.5,0-0.6-0.1-0.6-0.6l0.7-4.9c0.1-0.7,0.4-0.9,1.1-0.9h1.2c0.8,0,1.1,0.3,0.8,0.9l-1.6,4.7
			C26.1,53.1,25.9,53.3,25.3,53.3z"/>
		<path class="st0" d="M37.2,31c4.4,0,7,2.5,7,6.4v6.8c0,3.9-2.5,6.4-7,6.4c-4.4,0-7-2.5-7-6.4v-6.8C30.2,33.5,32.8,31,37.2,31z
			 M37.2,34.1c-2.3,0-3.7,1.2-3.7,3.3v6.8c0,2.1,1.3,3.3,3.7,3.3c2.3,0,3.7-1.2,3.7-3.3v-6.8C40.9,35.2,39.5,34.1,37.2,34.1z"/>
		<path class="st0" d="M53.9,31c4.4,0,7,2.5,7,6.4v6.8c0,3.9-2.5,6.4-7,6.4c-4.4,0-7-2.5-7-6.4v-6.8C46.9,33.5,49.5,31,53.9,31z
			 M53.9,34.1c-2.3,0-3.7,1.2-3.7,3.3v6.8c0,2.1,1.3,3.3,3.7,3.3c2.3,0,3.7-1.2,3.7-3.3v-6.8C57.6,35.2,56.3,34.1,53.9,34.1z"/>
		<path class="st0" d="M70.6,31c4.4,0,7,2.5,7,6.4v6.8c0,3.9-2.5,6.4-7,6.4c-4.4,0-7-2.5-7-6.4v-6.8C63.7,33.5,66.2,31,70.6,31z
			 M70.6,34.1c-2.3,0-3.7,1.2-3.7,3.3v6.8c0,2.1,1.3,3.3,3.7,3.3c2.3,0,3.7-1.2,3.7-3.3v-6.8C74.3,35.2,73,34.1,70.6,34.1z"/>
	</g>
	<g>
		<path class="st0" d="M34.1,55v2c0.1-0.1,0.6-0.1,1.2-0.1c1.5,0,2.1,0.8,2.1,2.1V62c0,0.2-0.1,0.3-0.3,0.3h-0.6
			c-0.2,0-0.3-0.1-0.3-0.3v-3.1c0-0.7-0.4-1-1.1-1c-0.5,0-1,0.1-1.1,0.2V62c0,0.2-0.1,0.3-0.3,0.3h-0.6c-0.2,0-0.3-0.1-0.3-0.3v-7
			c0-0.2,0.1-0.3,0.3-0.3h0.6C34,54.7,34.1,54.8,34.1,55z"/>
		<path class="st0" d="M40.8,56.9c1.5,0,2.4,0.8,2.4,2.1v1.5c0,1.3-0.8,2.1-2.4,2.1c-1.5,0-2.4-0.8-2.4-2.1v-1.5
			C38.4,57.6,39.3,56.9,40.8,56.9z M40.8,57.9c-0.7,0-1.2,0.3-1.2,1v1.5c0,0.6,0.4,1,1.2,1c0.8,0,1.2-0.4,1.2-1v-1.5
			C42,58.3,41.5,57.9,40.8,57.9z"/>
		<path class="st0" d="M48.7,57.3v4.2c0,0.3-0.1,0.4-0.4,0.6c-0.4,0.2-1,0.4-2,0.4c-1.5,0-2.1-0.8-2.1-2.1v-3.1
			c0-0.2,0.1-0.3,0.3-0.3H45c0.2,0,0.3,0.1,0.3,0.3v3.1c0,0.7,0.4,1,1.1,1c0.4,0,0.7,0,0.9-0.1c0.1,0,0.1-0.1,0.1-0.2v-3.8
			c0-0.2,0.1-0.3,0.3-0.3h0.6C48.6,57,48.7,57.1,48.7,57.3z"/>
		<path class="st0" d="M52.5,56.9c0.2,0,0.3,0.1,0.3,0.3v0.5c0,0.2-0.1,0.3-0.3,0.3h-0.4c-0.4,0-0.7,0-1,0.1c-0.1,0-0.1,0.1-0.1,0.1
			V62c0,0.2-0.1,0.3-0.3,0.3h-0.6c-0.2,0-0.3-0.1-0.3-0.3v-4.3c0-0.3,0.1-0.5,0.4-0.6c0.4-0.1,1-0.3,1.9-0.3H52.5z"/>
		<path class="st0" d="M55.4,56.9c1.2,0,1.9,0.4,2.2,1.1c0.1,0.2,0.1,0.4-0.2,0.5l-0.5,0.2c-0.2,0.1-0.3,0.1-0.4-0.1
			c-0.2-0.3-0.5-0.5-1.1-0.5c-0.7,0-1,0.2-1,0.6c0,0.5,0.4,0.6,1.2,0.6c1.2,0.1,2.1,0.4,2.1,1.7c0,1-0.8,1.7-2.2,1.7
			c-1.2,0-2-0.4-2.3-1.2c-0.1-0.2,0-0.3,0.2-0.4l0.5-0.1c0.2-0.1,0.3,0,0.4,0.2c0.2,0.4,0.5,0.6,1.2,0.6c0.7,0,1.1-0.2,1.1-0.6
			c0-0.5-0.4-0.6-1.2-0.7c-1-0.1-2.1-0.3-2.1-1.7C53.2,57.5,53.9,56.9,55.4,56.9z"/>
	</g>
</g>
</svg>
