<?xml version="1.0" encoding="utf-8"?>
<!-- Generator: Adobe Illustrator 22.0.1, SVG Export Plug-In . SVG Version: 6.00 Build 0)  -->
<svg version="1.1" id="Layer_1" xmlns="http://www.w3.org/2000/svg" xmlns:xlink="http://www.w3.org/1999/xlink" x="0px" y="0px"
	 viewBox="0 0 90.6 91" style="enable-background:new 0 0 90.6 91;" xml:space="preserve">
<metadata><?xpacket begin="﻿" id="W5M0MpCehiHzreSzNTczkc9d"?>
<x:xmpmeta xmlns:x="adobe:ns:meta/" x:xmptk="Adobe XMP Core 5.6-c143 79.161210, 2017/08/11-10:28:36        ">
   <rdf:RDF xmlns:rdf="http://www.w3.org/1999/02/22-rdf-syntax-ns#">
      <rdf:Description rdf:about=""/>
   </rdf:RDF>
</x:xmpmeta>
                                                                                                    
                                                                                                    
                                                                                                    
                                                                                                    
                                                                                                    
                                                                                                    
                                                                                                    
                                                                                                    
                                                                                                    
                                                                                                    
                                                                                                    
                                                                                                    
                                                                                                    
                                                                                                    
                                                                                                    
                                                                                                    
                                                                                                    
                                                                                                    
                                                                                                    
                                                                                                    
                           
<?xpacket end="w"?></metadata>
<style type="text/css">
	.st0{fill:#4DBDC6;}
</style>
<g id="Confetti">
</g>
<g id="Sparkler">
</g>
<g>
	<g>
		<path class="st0" d="M45.2,88.7c-23.9,0-43.3-19.4-43.3-43.3S21.3,2.1,45.2,2.1s43.3,19.4,43.3,43.3S69.1,88.7,45.2,88.7z
			 M45.2,3.9C22.3,3.9,3.7,22.5,3.7,45.4s18.6,41.5,41.5,41.5s41.5-18.6,41.5-41.5S68,3.9,45.2,3.9z"/>
	</g>
</g>
<g>
	<g>
		<path class="st0" d="M29,24.5v22.9c0,0.9-0.3,1.2-1.2,1.2h-2c-0.9,0-1.2-0.3-1.2-1.2V28.7l-5,2.8c-0.9,0.5-1.4,0.3-1.8-0.5
			l-0.9-1.6c-0.4-0.8-0.2-1.2,0.6-1.6l7-4c0.6-0.4,1-0.5,1.7-0.5h1.7C28.7,23.3,29,23.6,29,24.5z"/>
	</g>
	<g>
		<path class="st0" d="M43.6,32.8c6.3,0,9.2,2.8,9.2,8.1c0,5-3.6,8.2-9.6,8.2c-6.3,0-9.6-3.6-9.6-9.3V32c0-5.8,3.4-9.3,9.6-9.3
			c4.9,0,7.8,2,9.2,5.6c0.4,0.9,0.1,1.2-0.7,1.6l-1.9,0.7c-0.9,0.4-1.2,0.1-1.5-0.7c-0.8-1.9-2.4-3-5-3c-3.4,0-5.1,1.7-5.1,5.1v1.5
			C39,33.3,40.8,32.8,43.6,32.8z M43.2,45c3.3,0,5.1-1.4,5.1-4s-1.4-4-5.1-4c-3,0-4.7,0.6-5.2,0.8v2C38.1,43.2,39.8,45,43.2,45z"/>
	</g>
</g>
<g>
	<g>
		<path class="st0" d="M35,56.7l-1.6,5.4c-0.1,0.3-0.2,0.3-0.5,0.3h-0.4c-0.3,0-0.4-0.1-0.5-0.3l-0.9-3c-0.2-0.6-0.2-1.2-0.2-1.2
			h-0.1c0,0-0.1,0.7-0.2,1.2l-0.9,3c-0.1,0.3-0.2,0.3-0.5,0.3h-0.4c-0.3,0-0.4-0.1-0.5-0.3l-1.6-5.4c-0.1-0.3-0.1-0.4,0.3-0.4h0.5
			c0.4,0,0.6,0.1,0.7,0.4l0.7,2.7c0.1,0.5,0.2,1.4,0.2,1.5h0.1c0-0.1,0.1-0.9,0.2-1.5l0.8-2.6c0.1-0.3,0.2-0.4,0.6-0.4h0.3
			c0.4,0,0.5,0.1,0.6,0.4l0.8,2.6c0.2,0.6,0.2,1.4,0.2,1.5h0.1c0-0.1,0-0.8,0.2-1.5l0.7-2.7c0.1-0.3,0.2-0.4,0.7-0.4h0.4
			C35.1,56.3,35.1,56.4,35,56.7z"/>
	</g>
	<g>
		<path class="st0" d="M38.9,56.1c1.9,0,2.7,1.1,2.7,2.5v0.7c0,0.3-0.1,0.5-0.5,0.5h-3.6v0.4c0,0.8,0.5,1.2,1.4,1.2
			c0.7,0,1.2-0.2,1.4-0.6c0.2-0.3,0.3-0.3,0.6-0.1l0.4,0.2c0.3,0.1,0.3,0.3,0.1,0.6c-0.4,0.7-1.2,1.1-2.6,1.1
			c-1.9,0-2.7-1.1-2.7-2.5v-1.4C36.1,57,37.1,56.1,38.9,56.1z M38.9,57.3c-0.9,0-1.4,0.4-1.4,1.2v0.3h2.7v-0.3
			C40.3,57.7,39.8,57.3,38.9,57.3z"/>
	</g>
	<g>
		<path class="st0" d="M45.8,56.1c1.9,0,2.7,1.1,2.7,2.5v0.7c0,0.3-0.1,0.5-0.5,0.5h-3.6v0.4c0,0.8,0.5,1.2,1.4,1.2
			c0.7,0,1.2-0.2,1.4-0.6c0.2-0.3,0.3-0.3,0.6-0.1l0.4,0.2c0.3,0.1,0.3,0.3,0.1,0.6c-0.4,0.7-1.2,1.1-2.6,1.1
			c-1.9,0-2.7-1.1-2.7-2.5v-1.4C43,57,44,56.1,45.8,56.1z M45.8,57.3c-0.9,0-1.4,0.4-1.4,1.2v0.3h2.7v-0.3
			C47.1,57.7,46.7,57.3,45.8,57.3z"/>
	</g>
	<g>
		<path class="st0" d="M55.1,62.4h-0.6c-0.4,0-0.5,0-0.6-0.3l-0.7-1.6c-0.2-0.4-0.5-0.6-1-0.6h-0.7V62c0,0.3-0.1,0.4-0.4,0.4h-0.6
			c-0.3,0-0.4-0.1-0.4-0.4v-8c0-0.3,0.1-0.4,0.4-0.4h0.6c0.3,0,0.4,0.1,0.4,0.4v4.6H52h0.1l1.6-2.1c0.2-0.3,0.3-0.3,0.7-0.3H55
			c0.4,0,0.5,0.2,0.2,0.4l-1.8,2.2c0.4,0.2,0.6,0.5,0.9,1l1,2.1C55.5,62.3,55.4,62.4,55.1,62.4z"/>
	</g>
	<g>
		<path class="st0" d="M58.9,56.1c1.4,0,2.2,0.5,2.5,1.3c0.1,0.3,0.1,0.4-0.2,0.5l-0.5,0.2c-0.3,0.1-0.3,0.1-0.5-0.2
			c-0.2-0.4-0.5-0.6-1.3-0.6s-1.1,0.2-1.1,0.6c0,0.6,0.5,0.7,1.4,0.7c1.4,0.1,2.4,0.5,2.4,1.9c0,1.2-0.9,2-2.6,2
			c-1.4,0-2.3-0.5-2.7-1.4c-0.1-0.2,0-0.4,0.2-0.5l0.5-0.2c0.2-0.1,0.4,0,0.5,0.2c0.2,0.5,0.6,0.7,1.3,0.7c0.8,0,1.3-0.2,1.3-0.7
			c0-0.6-0.5-0.7-1.4-0.8c-1.2-0.1-2.4-0.4-2.4-1.9C56.5,56.9,57.3,56.1,58.9,56.1z"/>
	</g>
	<g>
		<path class="st0" d="M33.6,68.6c0.6,0,1.1,0.1,1.4,0.2v-2.2c0-0.3,0.1-0.4,0.4-0.4h0.7c0.3,0,0.4,0.1,0.4,0.4v7.6
			c0,0.4-0.1,0.5-0.5,0.7c-0.5,0.2-1.1,0.4-2.2,0.4c-1.8,0-2.6-0.9-2.6-2.4v-1.6C31.1,69.5,32,68.6,33.6,68.6z M33.9,69.9
			c-0.9,0-1.4,0.4-1.4,1.3v1.5c0,0.8,0.5,1.2,1.3,1.2c0.4,0,0.8,0,1.1-0.1c0.1,0,0.1-0.1,0.1-0.1v-3.6C34.8,70,34.4,69.9,33.9,69.9z
			"/>
	</g>
	<g>
		<path class="st0" d="M40.8,68.6c1.8,0,2.7,0.9,2.7,2.4v1.8c0,1.5-1,2.4-2.7,2.4c-1.8,0-2.7-0.9-2.7-2.4V71
			C38,69.5,39,68.6,40.8,68.6z M40.8,69.9c-0.9,0-1.4,0.4-1.4,1.1v1.8c0,0.7,0.5,1.1,1.4,1.1s1.4-0.4,1.4-1.1V71
			C42.1,70.3,41.7,69.9,40.8,69.9z"/>
	</g>
	<g>
		<path class="st0" d="M48,68.6c1.7,0,2.5,0.9,2.5,2.4v3.6c0,0.3-0.1,0.4-0.4,0.4h-0.7c-0.3,0-0.4-0.1-0.4-0.4v-3.5
			c0-0.8-0.4-1.2-1.3-1.2c-0.5,0-0.8,0.1-1.1,0.2c-0.1,0-0.1,0.1-0.1,0.1v4.4c0,0.3-0.1,0.4-0.4,0.4h-0.7c-0.3,0-0.4-0.1-0.4-0.4
			v-4.9c0-0.4,0.1-0.5,0.5-0.7C46.1,68.9,46.8,68.6,48,68.6z"/>
	</g>
	<g>
		<path class="st0" d="M54.8,68.6c1.9,0,2.7,1.1,2.7,2.5v0.7c0,0.3-0.1,0.5-0.5,0.5h-3.6v0.4c0,0.8,0.5,1.2,1.4,1.2
			c0.7,0,1.2-0.2,1.4-0.6c0.2-0.3,0.3-0.3,0.6-0.1l0.4,0.2c0.3,0.1,0.3,0.3,0.1,0.6c-0.4,0.7-1.2,1.1-2.6,1.1
			c-1.9,0-2.7-1.1-2.7-2.5v-1.4C52,69.6,53,68.6,54.8,68.6z M54.8,69.8c-0.9,0-1.4,0.4-1.4,1.2v0.3h2.7V71
			C56.1,70.2,55.7,69.8,54.8,69.8z"/>
	</g>
</g>
<g>
	<path class="st0" d="M63,43c-0.1,0-0.3-0.1-0.4-0.2l-6.7-6.3c-0.2-0.2-0.2-0.6,0-0.8l2.4-2.6c0.2-0.2,0.5-0.2,0.8,0l3.6,3.1
		l7.4-8.9c0.1-0.1,0.3-0.2,0.4-0.2H75c0.2,0,0.4,0.1,0.5,0.3s0.1,0.4-0.1,0.6l-12,14.8C63.3,42.9,63.2,43,63,43L63,43z M57.1,36.1
		l5.9,5.6l10.9-13.4h-3.1l-7.6,9.1c-0.1,0.1-0.2,0.2-0.4,0.2c-0.1,0-0.3,0-0.4-0.1l-3.6-3.1L57.1,36.1z"/>
</g>
<g id="Layer_4">
</g>
</svg>
