<?xml version="1.0" encoding="utf-8"?>
<!-- Generator: Adobe Illustrator 22.0.1, SVG Export Plug-In . SVG Version: 6.00 Build 0)  -->
<svg version="1.1" id="Layer_1" xmlns="http://www.w3.org/2000/svg" xmlns:xlink="http://www.w3.org/1999/xlink" x="0px" y="0px"
	 viewBox="0 0 89.8 90" style="enable-background:new 0 0 89.8 90;" xml:space="preserve">
<metadata><?xpacket begin="﻿" id="W5M0MpCehiHzreSzNTczkc9d"?>
<x:xmpmeta xmlns:x="adobe:ns:meta/" x:xmptk="Adobe XMP Core 5.6-c143 79.161210, 2017/08/11-10:28:36        ">
   <rdf:RDF xmlns:rdf="http://www.w3.org/1999/02/22-rdf-syntax-ns#">
      <rdf:Description rdf:about=""/>
   </rdf:RDF>
</x:xmpmeta>
                                                                                                    
                                                                                                    
                                                                                                    
                                                                                                    
                                                                                                    
                                                                                                    
                                                                                                    
                                                                                                    
                                                                                                    
                                                                                                    
                                                                                                    
                                                                                                    
                                                                                                    
                                                                                                    
                                                                                                    
                                                                                                    
                                                                                                    
                                                                                                    
                                                                                                    
                                                                                                    
                           
<?xpacket end="w"?></metadata>
<style type="text/css">
	.st0{fill:#4DBDC6;}
	.st1{fill:#FFFFFF;}
</style>
<g id="Confetti">
</g>
<g id="Sparkler">
</g>
<g>
	<g>
		<path class="st0" d="M44.9,88.4C21,88.4,1.6,69,1.6,45.1S21,1.8,44.9,1.8s43.3,19.4,43.3,43.3S68.7,88.4,44.9,88.4z"/>
	</g>
</g>
<g>
	<g>
		<path class="st1" d="M30.7,24.2v22.9c0,0.9-0.3,1.2-1.2,1.2h-2c-0.9,0-1.2-0.3-1.2-1.2V28.4l-5,2.8c-0.9,0.5-1.4,0.3-1.8-0.5
			l-0.9-1.6c-0.4-0.8-0.2-1.2,0.6-1.6l7-4c0.6-0.4,1-0.5,1.7-0.5h1.7C30.4,23,30.7,23.3,30.7,24.2z"/>
	</g>
	<g>
		<path class="st1" d="M45.2,32.6c6.3,0,9.2,2.8,9.2,8.1c0,5-3.6,8.2-9.6,8.2c-6.3,0-9.6-3.6-9.6-9.3v-7.8c0-5.8,3.4-9.3,9.6-9.3
			c4.9,0,7.8,2,9.2,5.6c0.4,0.9,0.1,1.2-0.7,1.6l-1.9,0.7c-0.9,0.4-1.2,0.1-1.5-0.7c-0.8-1.9-2.4-3-5-3c-3.4,0-5.1,1.7-5.1,5.1v1.5
			C40.7,33,42.5,32.6,45.2,32.6z M44.9,44.7c3.3,0,5.1-1.4,5.1-4s-1.4-4-5.1-4c-3,0-4.7,0.6-5.2,0.8v2
			C39.8,42.9,41.5,44.7,44.9,44.7z"/>
	</g>
</g>
<g>
	<g>
		<path class="st1" d="M36.7,56.5l-1.6,5.4c-0.1,0.3-0.2,0.3-0.5,0.3h-0.4c-0.3,0-0.4-0.1-0.5-0.3l-0.9-3c-0.2-0.6-0.2-1.2-0.2-1.2
			h-0.1c0,0-0.1,0.7-0.2,1.2l-0.9,3c-0.1,0.3-0.2,0.3-0.5,0.3h-0.4c-0.3,0-0.4-0.1-0.5-0.3l-1.6-5.4c-0.1-0.3-0.1-0.4,0.3-0.4h0.5
			c0.4,0,0.6,0.1,0.7,0.4l0.7,2.7c0.1,0.5,0.2,1.4,0.2,1.5h0.1c0-0.1,0.1-0.9,0.2-1.5l0.8-2.6c0.1-0.3,0.2-0.4,0.6-0.4h0.3
			c0.4,0,0.5,0.1,0.6,0.4l0.8,2.6c0.2,0.6,0.2,1.4,0.2,1.5h0.1c0-0.1,0-0.8,0.2-1.5l0.7-2.7c0.1-0.3,0.2-0.4,0.7-0.4h0.4
			C36.7,56,36.8,56.1,36.7,56.5z"/>
	</g>
	<g>
		<path class="st1" d="M40.6,55.9c1.9,0,2.7,1.1,2.7,2.5v0.7c0,0.3-0.1,0.5-0.5,0.5h-3.6V60c0,0.8,0.5,1.2,1.4,1.2
			c0.7,0,1.2-0.2,1.4-0.6c0.2-0.3,0.3-0.3,0.6-0.1l0.4,0.2c0.3,0.1,0.3,0.3,0.1,0.6c-0.4,0.7-1.2,1.1-2.6,1.1
			c-1.9,0-2.7-1.1-2.7-2.5v-1.4C37.8,56.8,38.8,55.9,40.6,55.9z M40.6,57c-0.9,0-1.4,0.4-1.4,1.2v0.3h2.7v-0.3
			C41.9,57.5,41.5,57,40.6,57z"/>
	</g>
	<g>
		<path class="st1" d="M47.4,55.9c1.9,0,2.7,1.1,2.7,2.5v0.7c0,0.3-0.1,0.5-0.5,0.5H46V60c0,0.8,0.5,1.2,1.4,1.2
			c0.7,0,1.2-0.2,1.4-0.6c0.2-0.3,0.3-0.3,0.6-0.1l0.4,0.2c0.3,0.1,0.3,0.3,0.1,0.6c-0.4,0.7-1.2,1.1-2.6,1.1
			c-1.9,0-2.7-1.1-2.7-2.5v-1.4C44.7,56.8,45.6,55.9,47.4,55.9z M47.4,57c-0.9,0-1.4,0.4-1.4,1.2v0.3h2.7v-0.3
			C48.8,57.5,48.3,57,47.4,57z"/>
	</g>
	<g>
		<path class="st1" d="M56.7,62.2h-0.6c-0.4,0-0.5,0-0.6-0.3l-0.7-1.6c-0.2-0.4-0.5-0.6-1-0.6h-0.7v2.1c0,0.3-0.1,0.4-0.4,0.4h-0.6
			c-0.3,0-0.4-0.1-0.4-0.4v-8c0-0.3,0.1-0.4,0.4-0.4h0.6c0.3,0,0.4,0.1,0.4,0.4v4.6h0.5h0.1l1.6-2.1C55.5,56,55.6,56,56,56h0.6
			c0.4,0,0.5,0.2,0.2,0.4L55,58.6c0.4,0.2,0.6,0.5,0.9,1l1,2.1C57.1,62.1,57.1,62.2,56.7,62.2z"/>
	</g>
	<g>
		<path class="st1" d="M60.6,55.9c1.4,0,2.2,0.5,2.5,1.3c0.1,0.3,0.1,0.4-0.2,0.5l-0.5,0.2c-0.3,0.1-0.3,0.1-0.5-0.2
			c-0.2-0.4-0.5-0.6-1.3-0.6s-1.1,0.2-1.1,0.6c0,0.6,0.5,0.7,1.4,0.7c1.4,0.1,2.4,0.5,2.4,1.9c0,1.2-0.9,2-2.6,2
			c-1.4,0-2.3-0.5-2.7-1.4c-0.1-0.2,0-0.4,0.2-0.5l0.5-0.2c0.2-0.1,0.4,0,0.5,0.2c0.2,0.5,0.6,0.7,1.3,0.7c0.8,0,1.3-0.2,1.3-0.7
			c0-0.6-0.5-0.7-1.4-0.8c-1.2-0.1-2.4-0.4-2.4-1.9C58.1,56.7,58.9,55.9,60.6,55.9z"/>
	</g>
	<g>
		<path class="st1" d="M35.3,68.4c0.6,0,1.1,0.1,1.4,0.2v-2.2c0-0.3,0.1-0.4,0.4-0.4h0.7c0.3,0,0.4,0.1,0.4,0.4V74
			c0,0.4-0.1,0.5-0.5,0.7c-0.5,0.2-1.1,0.4-2.2,0.4c-1.8,0-2.6-0.9-2.6-2.4v-1.6C32.8,69.3,33.6,68.4,35.3,68.4z M35.5,69.7
			c-0.9,0-1.4,0.4-1.4,1.3v1.5c0,0.8,0.5,1.2,1.3,1.2c0.4,0,0.8,0,1.1-0.1c0.1,0,0.1-0.1,0.1-0.1v-3.6C36.4,69.8,36,69.7,35.5,69.7z
			"/>
	</g>
	<g>
		<path class="st1" d="M42.4,68.4c1.8,0,2.7,0.9,2.7,2.4v1.8c0,1.5-1,2.4-2.7,2.4c-1.8,0-2.7-0.9-2.7-2.4v-1.8
			C39.7,69.3,40.7,68.4,42.4,68.4z M42.4,69.6c-0.9,0-1.4,0.4-1.4,1.1v1.8c0,0.7,0.5,1.1,1.4,1.1s1.4-0.4,1.4-1.1v-1.8
			C43.8,70.1,43.3,69.6,42.4,69.6z"/>
	</g>
	<g>
		<path class="st1" d="M49.6,68.4c1.7,0,2.5,0.9,2.5,2.4v3.6c0,0.3-0.1,0.4-0.4,0.4H51c-0.3,0-0.4-0.1-0.4-0.4v-3.5
			c0-0.8-0.4-1.2-1.3-1.2c-0.5,0-0.8,0.1-1.1,0.2c-0.1,0-0.1,0.1-0.1,0.1v4.4c0,0.3-0.1,0.4-0.4,0.4H47c-0.3,0-0.4-0.1-0.4-0.4v-4.9
			c0-0.4,0.1-0.5,0.5-0.7C47.8,68.6,48.5,68.4,49.6,68.4z"/>
	</g>
	<g>
		<path class="st1" d="M56.4,68.4c1.9,0,2.7,1.1,2.7,2.5v0.7c0,0.3-0.1,0.5-0.5,0.5H55v0.4c0,0.8,0.5,1.2,1.4,1.2
			c0.7,0,1.2-0.2,1.4-0.6c0.2-0.3,0.3-0.3,0.6-0.1l0.4,0.2c0.3,0.1,0.3,0.3,0.1,0.6c-0.4,0.7-1.2,1.1-2.6,1.1
			c-1.9,0-2.7-1.1-2.7-2.5V71C53.7,69.3,54.6,68.4,56.4,68.4z M56.4,69.6c-0.9,0-1.4,0.4-1.4,1.2v0.3h2.7v-0.3
			C57.8,70,57.3,69.6,56.4,69.6z"/>
	</g>
</g>
<g>
	<path class="st1" d="M64.7,43.6c-0.1,0-0.3-0.1-0.4-0.2l-6.6-6.2c-0.2-0.2-0.2-0.6,0-0.8l2.4-2.6c0.2-0.2,0.5-0.2,0.8,0l3.5,3
		l7.3-8.7c0.1-0.1,0.3-0.2,0.4-0.2h4.4c0.2,0,0.4,0.1,0.5,0.3s0.1,0.4-0.1,0.6L65.1,43.3C65,43.5,64.9,43.6,64.7,43.6L64.7,43.6z
		 M58.9,36.8l5.7,5.4l10.7-13.1h-3L64.8,38c-0.1,0.1-0.2,0.2-0.4,0.2c-0.1,0-0.3,0-0.4-0.1l-3.5-3L58.9,36.8z"/>
</g>
</svg>
