<?xml version="1.0" encoding="utf-8"?>
<!-- Generator: Adobe Illustrator 22.0.1, SVG Export Plug-In . SVG Version: 6.00 Build 0)  -->
<svg version="1.1" id="Layer_1" xmlns="http://www.w3.org/2000/svg" xmlns:xlink="http://www.w3.org/1999/xlink" x="0px" y="0px"
	 viewBox="0 0 89.9 90" style="enable-background:new 0 0 89.9 90;" xml:space="preserve">
<metadata><?xpacket begin="﻿" id="W5M0MpCehiHzreSzNTczkc9d"?>
<x:xmpmeta xmlns:x="adobe:ns:meta/" x:xmptk="Adobe XMP Core 5.6-c143 79.161210, 2017/08/11-10:28:36        ">
   <rdf:RDF xmlns:rdf="http://www.w3.org/1999/02/22-rdf-syntax-ns#">
      <rdf:Description rdf:about=""/>
   </rdf:RDF>
</x:xmpmeta>
                                                                                                    
                                                                                                    
                                                                                                    
                                                                                                    
                                                                                                    
                                                                                                    
                                                                                                    
                                                                                                    
                                                                                                    
                                                                                                    
                                                                                                    
                                                                                                    
                                                                                                    
                                                                                                    
                                                                                                    
                                                                                                    
                                                                                                    
                                                                                                    
                                                                                                    
                                                                                                    
                           
<?xpacket end="w"?></metadata>
<style type="text/css">
	.st0{fill:#4DBCC5;}
	.st1{fill:#FFFFFF;}
</style>
<g>
	<g>
		<g>
			<path class="st0" d="M45,87.9c-23.9,0-43.3-19.4-43.3-43.3S21.1,1.3,45,1.3s43.3,19.4,43.3,43.3S68.8,87.9,45,87.9z"/>
		</g>
	</g>
	<g>
		<path class="st1" d="M51.5,18.4v36.4c0,1.4-0.5,1.9-1.9,1.9h-3.2c-1.5,0-1.9-0.5-1.9-1.9V25.1l-7.9,4.4c-1.5,0.8-2.2,0.5-2.9-0.7
			l-1.4-2.5c-0.7-1.2-0.3-1.9,0.9-2.6l11-6.3c1-0.6,1.5-0.8,2.7-0.8h2.7C51,16.5,51.5,17,51.5,18.4z"/>
	</g>
	<g>
		<path class="st1" d="M39.3,63.3l-1.6,5.4C37.7,69,37.5,69,37.3,69h-0.4c-0.3,0-0.4-0.1-0.5-0.3l-0.9-3c-0.2-0.6-0.2-1.2-0.2-1.2
			h-0.1c0,0-0.1,0.7-0.2,1.2l-0.9,3C34.1,69,33.9,69,33.6,69h-0.4c-0.3,0-0.4-0.1-0.5-0.3l-1.6-5.4c-0.1-0.3-0.1-0.4,0.3-0.4h0.5
			c0.4,0,0.6,0.1,0.7,0.4l0.7,2.6c0.1,0.5,0.2,1.4,0.2,1.4h0.1c0-0.1,0.1-0.9,0.2-1.5l0.8-2.6c0.1-0.3,0.2-0.4,0.6-0.4h0.3
			c0.4,0,0.5,0.1,0.6,0.4l0.8,2.6c0.2,0.6,0.2,1.4,0.2,1.5h0.1c0-0.1,0-0.8,0.2-1.5l0.7-2.6c0.1-0.3,0.2-0.4,0.7-0.4H39
			C39.4,62.9,39.4,63,39.3,63.3z"/>
		<path class="st1" d="M42.7,62.7c1.9,0,2.7,1.1,2.7,2.4v0.7c0,0.3-0.1,0.5-0.5,0.5h-3.6v0.4c0,0.8,0.5,1.2,1.3,1.2
			c0.7,0,1.1-0.2,1.4-0.6c0.2-0.3,0.3-0.3,0.6-0.1l0.4,0.2c0.3,0.1,0.3,0.3,0.1,0.6c-0.4,0.7-1.2,1.1-2.6,1.1
			c-1.9,0-2.7-1.1-2.7-2.5v-1.4C40,63.6,40.9,62.7,42.7,62.7z M42.7,63.9c-0.9,0-1.4,0.4-1.4,1.2v0.3h2.7v-0.3
			C44.1,64.3,43.6,63.9,42.7,63.9z"/>
		<path class="st1" d="M49.1,62.7c1.9,0,2.7,1.1,2.7,2.4v0.7c0,0.3-0.1,0.5-0.5,0.5h-3.6v0.4c0,0.8,0.5,1.2,1.3,1.2
			c0.7,0,1.1-0.2,1.4-0.6c0.2-0.3,0.3-0.3,0.6-0.1l0.4,0.2c0.3,0.1,0.3,0.3,0.1,0.6c-0.4,0.7-1.2,1.1-2.6,1.1
			c-1.9,0-2.7-1.1-2.7-2.5v-1.4C46.3,63.6,47.3,62.7,49.1,62.7z M49.1,63.9c-0.9,0-1.4,0.4-1.4,1.2v0.3h2.7v-0.3
			C50.4,64.3,50,63.9,49.1,63.9z"/>
		<path class="st1" d="M57.9,69h-0.6c-0.4,0-0.5,0-0.6-0.3l-0.7-1.6c-0.2-0.4-0.4-0.6-0.9-0.6h-0.7v2.1c0,0.3-0.1,0.4-0.4,0.4h-0.6
			c-0.3,0-0.4-0.1-0.4-0.4v-8c0-0.3,0.1-0.4,0.4-0.4h0.6c0.3,0,0.4,0.1,0.4,0.4v4.6h0.5h0.1l1.6-2.1c0.2-0.3,0.3-0.3,0.7-0.3h0.6
			c0.4,0,0.4,0.2,0.2,0.4l-1.8,2.2c0.4,0.2,0.6,0.5,0.9,1l1,2.1C58.3,68.9,58.2,69,57.9,69z"/>
	</g>
</g>
<g id="Confetti">
</g>
<g id="Sparkler">
</g>
<g id="Layer_4">
</g>
</svg>
