<?xml version="1.0" encoding="utf-8"?>
<!-- Generator: Adobe Illustrator 22.0.1, SVG Export Plug-In . SVG Version: 6.00 Build 0)  -->
<svg version="1.1" id="Layer_1" xmlns="http://www.w3.org/2000/svg" xmlns:xlink="http://www.w3.org/1999/xlink" x="0px" y="0px"
	 viewBox="0 0 89.8 89.6" style="enable-background:new 0 0 89.8 89.6;" xml:space="preserve">
<metadata><?xpacket begin="﻿" id="W5M0MpCehiHzreSzNTczkc9d"?>
<x:xmpmeta xmlns:x="adobe:ns:meta/" x:xmptk="Adobe XMP Core 5.6-c143 79.161210, 2017/08/11-10:28:36        ">
   <rdf:RDF xmlns:rdf="http://www.w3.org/1999/02/22-rdf-syntax-ns#">
      <rdf:Description rdf:about=""/>
   </rdf:RDF>
</x:xmpmeta>
                                                                                                    
                                                                                                    
                                                                                                    
                                                                                                    
                                                                                                    
                                                                                                    
                                                                                                    
                                                                                                    
                                                                                                    
                                                                                                    
                                                                                                    
                                                                                                    
                                                                                                    
                                                                                                    
                                                                                                    
                                                                                                    
                                                                                                    
                                                                                                    
                                                                                                    
                                                                                                    
                           
<?xpacket end="w"?></metadata>
<style type="text/css">
	.st0{fill:#4DBDC6;}
	.st1{fill:#FFFFFF;}
</style>
<g>
	<g>
		<path class="st0" d="M44.9,87.9C21,87.9,1.6,68.5,1.6,44.6S21,1.3,44.9,1.3s43.3,19.4,43.3,43.3S68.7,87.9,44.9,87.9z"/>
	</g>
</g>
<g id="Confetti">
</g>
<g id="Sparkler">
</g>
<g>
	<g>
		<path class="st1" d="M24.9,22c5.4,0,8.7,3.7,8.7,8c0,5.3-2.8,7.4-9.9,10.2c-1.5,0.6-3.6,1.2-3.6,2.9v0.6H32c0.9,0,1.2,0.3,1.2,1.2
			v1.7c0,0.9-0.3,1.2-1.2,1.2H16.6c-0.9,0-1.2-0.3-1.2-1.2v-2.7c0-4.8,3.5-6.5,7-7.9c3.3-1.3,6.5-2.4,6.5-5.9c0-2.2-1.6-4-4.1-4
			s-4,1.1-4.9,3.2c-0.4,0.9-0.7,1.1-1.6,0.8l-1.9-0.7c-0.9-0.3-1.1-0.7-0.8-1.5C17,24.3,19.8,22,24.9,22z"/>
	</g>
	<g>
		<path class="st1" d="M46.4,22c6,0,9.4,3.4,9.4,8.6v9.2c0,5.3-3.4,8.6-9.4,8.6S37,45,37,39.8v-9.2C36.9,25.3,40.4,22,46.4,22z
			 M46.4,26.2c-3.1,0-5,1.6-5,4.4v9.2c0,2.8,1.8,4.5,5,4.5c3.1,0,5-1.6,5-4.5v-9.2C51.3,27.8,49.5,26.2,46.4,26.2z"/>
	</g>
</g>
<g>
	<g>
		<path class="st1" d="M36.7,56l-1.6,5.4c-0.1,0.3-0.2,0.3-0.5,0.3h-0.4c-0.3,0-0.4-0.1-0.5-0.3l-0.9-3c-0.2-0.6-0.2-1.2-0.2-1.2
			h-0.1c0,0-0.1,0.7-0.2,1.2l-0.9,3c-0.1,0.3-0.2,0.3-0.5,0.3h-0.4c-0.3,0-0.4-0.1-0.5-0.3L28.4,56c-0.1-0.3-0.1-0.4,0.3-0.4h0.5
			c0.4,0,0.6,0.1,0.7,0.4l0.7,2.7c0.1,0.5,0.2,1.4,0.2,1.5h0.1c0-0.1,0.1-0.9,0.2-1.5l0.8-2.6c0.1-0.3,0.2-0.4,0.6-0.4h0.3
			c0.4,0,0.5,0.1,0.6,0.4l0.8,2.6c0.2,0.6,0.2,1.4,0.2,1.5h0.1c0-0.1,0-0.8,0.2-1.5l0.7-2.7c0.1-0.3,0.2-0.4,0.7-0.4h0.4
			C36.7,55.5,36.8,55.6,36.7,56z"/>
	</g>
	<g>
		<path class="st1" d="M40.6,55.4c1.9,0,2.7,1.1,2.7,2.5v0.7c0,0.3-0.1,0.5-0.5,0.5h-3.6v0.4c0,0.8,0.5,1.2,1.4,1.2
			c0.7,0,1.2-0.2,1.4-0.6c0.2-0.3,0.3-0.3,0.6-0.1l0.4,0.2c0.3,0.1,0.3,0.3,0.1,0.6c-0.4,0.7-1.2,1.1-2.6,1.1
			c-1.9,0-2.7-1.1-2.7-2.5V58C37.8,56.3,38.8,55.4,40.6,55.4z M40.6,56.5c-0.9,0-1.4,0.4-1.4,1.2V58h2.7v-0.3
			C41.9,57,41.5,56.5,40.6,56.5z"/>
	</g>
	<g>
		<path class="st1" d="M47.4,55.4c1.9,0,2.7,1.1,2.7,2.5v0.7c0,0.3-0.1,0.5-0.5,0.5H46v0.4c0,0.8,0.5,1.2,1.4,1.2
			c0.7,0,1.2-0.2,1.4-0.6c0.2-0.3,0.3-0.3,0.6-0.1l0.4,0.2c0.3,0.1,0.3,0.3,0.1,0.6c-0.4,0.7-1.2,1.1-2.6,1.1
			c-1.9,0-2.7-1.1-2.7-2.5V58C44.7,56.3,45.6,55.4,47.4,55.4z M47.4,56.5c-0.9,0-1.4,0.4-1.4,1.2V58h2.7v-0.3
			C48.8,57,48.3,56.5,47.4,56.5z"/>
	</g>
	<g>
		<path class="st1" d="M56.7,61.7h-0.6c-0.4,0-0.5,0-0.6-0.3l-0.7-1.6c-0.2-0.4-0.5-0.6-1-0.6h-0.7v2.1c0,0.3-0.1,0.4-0.4,0.4h-0.6
			c-0.3,0-0.4-0.1-0.4-0.4v-8c0-0.3,0.1-0.4,0.4-0.4h0.6c0.3,0,0.4,0.1,0.4,0.4v4.6h0.5h0.1l1.6-2.1c0.2-0.3,0.3-0.3,0.7-0.3h0.6
			c0.4,0,0.5,0.2,0.2,0.4L55,58.1c0.4,0.2,0.6,0.5,0.9,1l1,2.1C57.1,61.6,57.1,61.7,56.7,61.7z"/>
	</g>
	<g>
		<path class="st1" d="M60.6,55.4c1.4,0,2.2,0.5,2.5,1.3c0.1,0.3,0.1,0.4-0.2,0.5l-0.5,0.2c-0.3,0.1-0.3,0.1-0.5-0.2
			c-0.2-0.4-0.5-0.6-1.3-0.6s-1.1,0.2-1.1,0.6c0,0.6,0.5,0.7,1.4,0.7c1.4,0.1,2.4,0.5,2.4,1.9c0,1.2-0.9,2-2.6,2
			c-1.4,0-2.3-0.5-2.7-1.4c-0.1-0.2,0-0.4,0.2-0.5l0.5-0.2c0.2-0.1,0.4,0,0.5,0.2c0.2,0.5,0.6,0.7,1.3,0.7c0.8,0,1.3-0.2,1.3-0.7
			c0-0.6-0.5-0.7-1.4-0.8C59.2,59,58,58.7,58,57.2C58.1,56.2,58.9,55.4,60.6,55.4z"/>
	</g>
	<g>
		<path class="st1" d="M35.3,67.9c0.6,0,1.1,0.1,1.4,0.2v-2.2c0-0.3,0.1-0.4,0.4-0.4h0.7c0.3,0,0.4,0.1,0.4,0.4v7.6
			c0,0.4-0.1,0.5-0.5,0.7c-0.5,0.2-1.1,0.4-2.2,0.4c-1.8,0-2.6-0.9-2.6-2.4v-1.6C32.8,68.8,33.6,67.9,35.3,67.9z M35.5,69.2
			c-0.9,0-1.4,0.4-1.4,1.3V72c0,0.8,0.5,1.2,1.3,1.2c0.4,0,0.8,0,1.1-0.1c0.1,0,0.1-0.1,0.1-0.1v-3.6C36.4,69.3,36,69.2,35.5,69.2z"
			/>
	</g>
	<g>
		<path class="st1" d="M42.4,67.9c1.8,0,2.7,0.9,2.7,2.4v1.8c0,1.5-1,2.4-2.7,2.4c-1.8,0-2.7-0.9-2.7-2.4v-1.8
			C39.7,68.8,40.7,67.9,42.4,67.9z M42.4,69.1c-0.9,0-1.4,0.4-1.4,1.1V72c0,0.7,0.5,1.1,1.4,1.1s1.4-0.4,1.4-1.1v-1.8
			C43.8,69.6,43.3,69.1,42.4,69.1z"/>
	</g>
	<g>
		<path class="st1" d="M49.6,67.9c1.7,0,2.5,0.9,2.5,2.4v3.6c0,0.3-0.1,0.4-0.4,0.4H51c-0.3,0-0.4-0.1-0.4-0.4v-3.5
			c0-0.8-0.4-1.2-1.3-1.2c-0.5,0-0.8,0.1-1.1,0.2c-0.1,0-0.1,0.1-0.1,0.1v4.4c0,0.3-0.1,0.4-0.4,0.4H47c-0.3,0-0.4-0.1-0.4-0.4V69
			c0-0.4,0.1-0.5,0.5-0.7C47.8,68.1,48.5,67.9,49.6,67.9z"/>
	</g>
	<g>
		<path class="st1" d="M56.4,67.9c1.9,0,2.7,1.1,2.7,2.5v0.7c0,0.3-0.1,0.5-0.5,0.5H55V72c0,0.8,0.5,1.2,1.4,1.2
			c0.7,0,1.2-0.2,1.4-0.6c0.2-0.3,0.3-0.3,0.6-0.1l0.4,0.2c0.3,0.1,0.3,0.3,0.1,0.6c-0.4,0.7-1.2,1.1-2.6,1.1
			c-1.9,0-2.7-1.1-2.7-2.5v-1.4C53.7,68.8,54.6,67.9,56.4,67.9z M56.4,69.1c-0.9,0-1.4,0.4-1.4,1.2v0.3h2.7v-0.3
			C57.8,69.5,57.3,69.1,56.4,69.1z"/>
	</g>
</g>
<g>
	<path class="st1" d="M66.7,43.1c-0.1,0-0.3-0.1-0.4-0.2l-6.6-6.2c-0.2-0.2-0.2-0.6,0-0.8l2.4-2.6c0.2-0.2,0.5-0.2,0.8,0l3.5,3
		l7.3-8.7c0.1-0.1,0.3-0.2,0.4-0.2h4.4c0.2,0,0.4,0.1,0.5,0.3s0.1,0.4-0.1,0.6L67.1,42.8C67,43,66.9,43.1,66.7,43.1L66.7,43.1z
		 M60.9,36.3l5.7,5.4l10.7-13.1h-3l-7.5,8.9c-0.1,0.1-0.2,0.2-0.4,0.2c-0.1,0-0.3,0-0.4-0.1l-3.5-3L60.9,36.3z"/>
</g>
<g id="Layer_4">
</g>
</svg>
