<?xml version="1.0" encoding="utf-8"?>
<!-- Generator: Adobe Illustrator 22.0.1, SVG Export Plug-In . SVG Version: 6.00 Build 0)  -->
<svg version="1.1" id="Layer_1" xmlns="http://www.w3.org/2000/svg" xmlns:xlink="http://www.w3.org/1999/xlink" x="0px" y="0px"
	 viewBox="0 0 90.6 91.8" style="enable-background:new 0 0 90.6 91.8;" xml:space="preserve">
<metadata><?xpacket begin="﻿" id="W5M0MpCehiHzreSzNTczkc9d"?>
<x:xmpmeta xmlns:x="adobe:ns:meta/" x:xmptk="Adobe XMP Core 5.6-c143 79.161210, 2017/08/11-10:28:36        ">
   <rdf:RDF xmlns:rdf="http://www.w3.org/1999/02/22-rdf-syntax-ns#">
      <rdf:Description rdf:about=""/>
   </rdf:RDF>
</x:xmpmeta>
                                                                                                    
                                                                                                    
                                                                                                    
                                                                                                    
                                                                                                    
                                                                                                    
                                                                                                    
                                                                                                    
                                                                                                    
                                                                                                    
                                                                                                    
                                                                                                    
                                                                                                    
                                                                                                    
                                                                                                    
                                                                                                    
                                                                                                    
                                                                                                    
                                                                                                    
                                                                                                    
                           
<?xpacket end="w"?></metadata>
<style type="text/css">
	.st0{fill:#4DBDC6;}
</style>
<g id="Confetti">
</g>
<g id="Sparkler">
</g>
<g>
	<g>
		<path class="st0" d="M45.2,89.2C21.3,89.2,2,69.8,2,45.9S21.4,2.6,45.2,2.6c23.9,0,43.3,19.4,43.3,43.3S69.2,89.2,45.2,89.2z
			 M45.2,4.4C22.3,4.4,3.8,23,3.8,45.9s18.6,41.5,41.5,41.5s41.5-18.6,41.5-41.5S68.2,4.4,45.2,4.4z"/>
	</g>
</g>
<g>
	<g>
		<path class="st0" d="M25.3,23.2c5.4,0,8.7,3.7,8.7,8c0,5.3-2.8,7.4-9.9,10.2c-1.5,0.6-3.6,1.2-3.6,2.9v0.6h11.9
			c0.9,0,1.2,0.3,1.2,1.2v1.7c0,0.9-0.3,1.2-1.2,1.2H17c-0.9,0-1.2-0.3-1.2-1.2v-2.7c0-4.8,3.5-6.5,7-7.9c3.3-1.3,6.5-2.4,6.5-5.9
			c0-2.2-1.6-4-4.1-4s-4,1.1-4.9,3.2c-0.4,0.9-0.7,1.1-1.6,0.8l-1.9-0.7c-0.9-0.3-1.1-0.7-0.8-1.5C17.5,25.6,20.2,23.2,25.3,23.2z"
			/>
	</g>
	<g>
		<path class="st0" d="M46.8,23.2c6,0,9.4,3.4,9.4,8.6V41c0,5.3-3.4,8.6-9.4,8.6s-9.4-3.4-9.4-8.6v-9.2
			C37.3,26.6,40.8,23.2,46.8,23.2z M46.8,27.4c-3.1,0-5,1.6-5,4.4V41c0,2.8,1.8,4.5,5,4.5c3.1,0,5-1.6,5-4.5v-9.2
			C51.8,29,50,27.4,46.8,27.4z"/>
	</g>
</g>
<g>
	<g>
		<path class="st0" d="M36.2,57.2l-1.6,5.4c-0.1,0.3-0.2,0.3-0.5,0.3h-0.4c-0.3,0-0.4-0.1-0.5-0.3l-0.9-3C32,59,32,58.4,32,58.4H32
			c0,0-0.1,0.7-0.2,1.2l-0.9,3c-0.1,0.3-0.2,0.3-0.5,0.3h-0.4c-0.3,0-0.4-0.1-0.5-0.3l-1.6-5.4c-0.1-0.3-0.1-0.4,0.3-0.4h0.5
			c0.4,0,0.6,0.1,0.7,0.4l0.7,2.7c0.1,0.5,0.2,1.4,0.2,1.5h0.1c0-0.1,0.1-0.9,0.2-1.5l0.8-2.6c0.1-0.3,0.2-0.4,0.6-0.4h0.3
			c0.4,0,0.5,0.1,0.6,0.4l0.8,2.6c0.2,0.6,0.2,1.4,0.2,1.5h0.1c0-0.1,0-0.8,0.2-1.5l0.7-2.7c0.1-0.3,0.2-0.4,0.7-0.4h0.4
			C36.2,56.8,36.2,56.9,36.2,57.2z"/>
	</g>
	<g>
		<path class="st0" d="M40,56.6c1.9,0,2.7,1.1,2.7,2.5v0.7c0,0.3-0.1,0.5-0.5,0.5h-3.6v0.4c0,0.8,0.5,1.2,1.4,1.2
			c0.7,0,1.2-0.2,1.4-0.6c0.2-0.3,0.3-0.3,0.6-0.1l0.4,0.2c0.3,0.1,0.3,0.3,0.1,0.6c-0.4,0.7-1.2,1.1-2.6,1.1
			c-1.9,0-2.7-1.1-2.7-2.5v-1.4C37.2,57.5,38.2,56.6,40,56.6z M40,57.8c-0.9,0-1.4,0.4-1.4,1.2v0.3h2.7V59
			C41.3,58.2,40.8,57.8,40,57.8z"/>
	</g>
	<g>
		<path class="st0" d="M46.8,56.6c1.9,0,2.7,1.1,2.7,2.5v0.7c0,0.3-0.1,0.5-0.5,0.5h-3.6v0.4c0,0.8,0.5,1.2,1.4,1.2
			c0.7,0,1.2-0.2,1.4-0.6c0.2-0.3,0.3-0.3,0.6-0.1l0.4,0.2c0.3,0.1,0.3,0.3,0.1,0.6c-0.4,0.7-1.2,1.1-2.6,1.1
			c-1.9,0-2.7-1.1-2.7-2.5v-1.4C44,57.5,45,56.6,46.8,56.6z M46.8,57.8c-0.9,0-1.4,0.4-1.4,1.2v0.3h2.7V59
			C48.2,58.2,47.8,57.8,46.8,57.8z"/>
	</g>
	<g>
		<path class="st0" d="M56.2,62.9h-0.6c-0.4,0-0.5,0-0.6-0.3L54.3,61c-0.2-0.4-0.5-0.6-1-0.6h-0.7v2.1c0,0.3-0.1,0.4-0.4,0.4h-0.6
			c-0.3,0-0.4-0.1-0.4-0.4v-8c0-0.3,0.1-0.4,0.4-0.4h0.6c0.3,0,0.4,0.1,0.4,0.4v4.6h0.5h0.1l1.6-2.1c0.2-0.3,0.3-0.3,0.7-0.3H56
			c0.4,0,0.5,0.2,0.2,0.4l-1.8,2.2c0.4,0.2,0.6,0.5,0.9,1l1,2.1C56.5,62.8,56.5,62.9,56.2,62.9z"/>
	</g>
	<g>
		<path class="st0" d="M60,56.6c1.4,0,2.2,0.5,2.5,1.3c0.1,0.3,0.1,0.4-0.2,0.5l-0.5,0.2c-0.3,0.1-0.3,0.1-0.5-0.2
			c-0.2-0.4-0.5-0.6-1.3-0.6S59,58,59,58.4c0,0.6,0.5,0.7,1.4,0.7c1.4,0.1,2.4,0.5,2.4,1.9c0,1.2-0.9,2-2.6,2
			c-1.4,0-2.3-0.5-2.7-1.4c-0.1-0.2,0-0.4,0.2-0.5l0.5-0.2c0.2-0.1,0.4,0,0.5,0.2c0.2,0.5,0.6,0.7,1.3,0.7c0.8,0,1.3-0.2,1.3-0.7
			c0-0.6-0.5-0.7-1.4-0.8c-1.2-0.1-2.4-0.4-2.4-1.9C57.5,57.4,58.3,56.6,60,56.6z"/>
	</g>
	<g>
		<path class="st0" d="M34.8,69.1c0.6,0,1.1,0.1,1.4,0.2v-2.2c0-0.3,0.1-0.4,0.4-0.4h0.7c0.3,0,0.4,0.1,0.4,0.4v7.6
			c0,0.4-0.1,0.5-0.5,0.7c-0.5,0.2-1.1,0.4-2.2,0.4c-1.8,0-2.6-0.9-2.6-2.4v-1.6C32.2,70,33,69.1,34.8,69.1z M35,70.4
			c-0.9,0-1.4,0.4-1.4,1.3v1.5c0,0.8,0.5,1.2,1.3,1.2c0.4,0,0.8,0,1.1-0.1c0.1,0,0.1-0.1,0.1-0.1v-3.6C35.8,70.5,35.5,70.4,35,70.4z
			"/>
	</g>
	<g>
		<path class="st0" d="M41.8,69.1c1.8,0,2.7,0.9,2.7,2.4v1.8c0,1.5-1,2.4-2.7,2.4c-1.8,0-2.7-0.9-2.7-2.4v-1.8
			C39.2,70,40.2,69.1,41.8,69.1z M41.8,70.4c-0.9,0-1.4,0.4-1.4,1.1v1.8c0,0.7,0.5,1.1,1.4,1.1s1.4-0.4,1.4-1.1v-1.8
			C43.2,70.8,42.8,70.4,41.8,70.4z"/>
	</g>
	<g>
		<path class="st0" d="M49,69.1c1.7,0,2.5,0.9,2.5,2.4v3.6c0,0.3-0.1,0.4-0.4,0.4h-0.7c-0.3,0-0.4-0.1-0.4-0.4v-3.5
			c0-0.8-0.4-1.2-1.3-1.2c-0.5,0-0.8,0.1-1.1,0.2c-0.1,0-0.1,0.1-0.1,0.1v4.4c0,0.3-0.1,0.4-0.4,0.4h-0.7c-0.3,0-0.4-0.1-0.4-0.4
			v-4.9c0-0.4,0.1-0.5,0.5-0.7C47.2,69.4,48,69.1,49,69.1z"/>
	</g>
	<g>
		<path class="st0" d="M55.8,69.1c1.9,0,2.7,1.1,2.7,2.5v0.7c0,0.3-0.1,0.5-0.5,0.5h-3.6v0.4c0,0.8,0.5,1.2,1.4,1.2
			c0.7,0,1.2-0.2,1.4-0.6c0.2-0.3,0.3-0.3,0.6-0.1l0.4,0.2c0.3,0.1,0.3,0.3,0.1,0.6c-0.4,0.7-1.2,1.1-2.6,1.1
			c-1.9,0-2.7-1.1-2.7-2.5v-1.4C53.2,70.1,54,69.1,55.8,69.1z M55.8,70.3c-0.9,0-1.4,0.4-1.4,1.2v0.3h2.7v-0.3
			C57.2,70.7,56.8,70.3,55.8,70.3z"/>
	</g>
</g>
<g>
	<path class="st0" d="M66,43.5c-0.1,0-0.3-0.1-0.4-0.2L58.9,37c-0.2-0.2-0.2-0.6,0-0.8l2.4-2.6c0.2-0.2,0.5-0.2,0.8,0l3.6,3.1
		l7.4-8.9c0.1-0.1,0.3-0.2,0.4-0.2H78c0.2,0,0.4,0.1,0.5,0.3s0.1,0.4-0.1,0.6l-12,14.8C66.5,43.4,66.2,43.5,66,43.5L66,43.5z
		 M60.2,36.6l5.9,5.6L77,28.8h-3.1l-7.6,9.1c-0.1,0.1-0.2,0.2-0.4,0.2c-0.1,0-0.3,0-0.4-0.1l-3.6-3.1L60.2,36.6z"/>
</g>
<g id="Layer_4">
</g>
</svg>
