<?xml version="1.0" encoding="utf-8"?>
<!-- Generator: Adobe Illustrator 22.0.1, SVG Export Plug-In . SVG Version: 6.00 Build 0)  -->
<svg version="1.1" id="Layer_1" xmlns="http://www.w3.org/2000/svg" xmlns:xlink="http://www.w3.org/1999/xlink" x="0px" y="0px"
	 viewBox="0 0 89.9 90" style="enable-background:new 0 0 89.9 90;" xml:space="preserve">
<metadata><?xpacket begin="﻿" id="W5M0MpCehiHzreSzNTczkc9d"?>
<x:xmpmeta xmlns:x="adobe:ns:meta/" x:xmptk="Adobe XMP Core 5.6-c143 79.161210, 2017/08/11-10:28:36        ">
   <rdf:RDF xmlns:rdf="http://www.w3.org/1999/02/22-rdf-syntax-ns#">
      <rdf:Description rdf:about=""/>
   </rdf:RDF>
</x:xmpmeta>
                                                                                                    
                                                                                                    
                                                                                                    
                                                                                                    
                                                                                                    
                                                                                                    
                                                                                                    
                                                                                                    
                                                                                                    
                                                                                                    
                                                                                                    
                                                                                                    
                                                                                                    
                                                                                                    
                                                                                                    
                                                                                                    
                                                                                                    
                                                                                                    
                                                                                                    
                                                                                                    
                           
<?xpacket end="w"?></metadata>
<style type="text/css">
	.st0{fill:#4DBCC5;}
</style>
<g>
	<g>
		<g>
			<g>
				<path class="st0" d="M45,87.9c-23.9,0-43.3-19.4-43.3-43.3S21.1,1.3,45,1.3s43.3,19.4,43.3,43.3S68.8,87.9,45,87.9z M45,3.2
					C22.1,3.2,3.5,21.8,3.5,44.6S22.1,86.1,45,86.1s41.5-18.6,41.5-41.5S67.8,3.2,45,3.2z"/>
			</g>
		</g>
	</g>
	<g>
		<g>
			<path class="st0" d="M45.9,15.7c8.6,0,13.8,5.9,13.8,12.6c0,8.5-4.4,11.7-15.8,16.3c-2.4,0.9-5.7,1.9-5.7,4.5v1h18.9
				c1.4,0,1.9,0.5,1.9,1.9v2.8c0,1.4-0.5,1.9-1.9,1.9H32.7c-1.4,0-1.9-0.5-1.9-1.9v-4.2c0-7.7,5.6-10.3,11.2-12.5
				c5.2-2,10.3-3.8,10.3-9.4c0-3.5-2.6-6.3-6.6-6.3c-4,0-6.3,1.7-7.8,5c-0.6,1.4-1.1,1.7-2.5,1.2l-3.1-1.1c-1.4-0.5-1.8-1.1-1.2-2.4
				C33.4,19.3,37.8,15.7,45.9,15.7z"/>
		</g>
		<g>
			<path class="st0" d="M36.6,63.4l-1.6,5.4c-0.1,0.3-0.2,0.3-0.5,0.3h-0.4c-0.3,0-0.4-0.1-0.5-0.3l-0.9-3c-0.2-0.6-0.2-1.2-0.2-1.2
				h-0.1c0,0-0.1,0.7-0.2,1.2l-0.9,3c-0.1,0.3-0.2,0.3-0.5,0.3h-0.4c-0.3,0-0.4-0.1-0.5-0.3l-1.6-5.4c-0.1-0.3-0.1-0.4,0.3-0.4h0.5
				c0.4,0,0.6,0.1,0.7,0.4l0.7,2.6c0.1,0.5,0.2,1.4,0.2,1.4h0.1c0-0.1,0.1-0.9,0.2-1.5l0.8-2.6C31.9,63,32,63,32.4,63h0.3
				c0.4,0,0.5,0.1,0.6,0.4l0.8,2.6c0.2,0.6,0.2,1.4,0.2,1.5h0.1c0-0.1,0-0.8,0.2-1.5l0.7-2.6c0.1-0.3,0.2-0.4,0.7-0.4h0.4
				C36.7,62.9,36.7,63,36.6,63.4z"/>
			<path class="st0" d="M40,62.7c1.9,0,2.7,1.1,2.7,2.4v0.7c0,0.3-0.1,0.5-0.5,0.5h-3.6v0.4c0,0.8,0.5,1.2,1.3,1.2
				c0.7,0,1.1-0.2,1.4-0.6c0.2-0.3,0.3-0.3,0.6-0.1l0.4,0.2c0.3,0.1,0.3,0.3,0.1,0.6c-0.4,0.7-1.2,1.1-2.6,1.1
				c-1.9,0-2.7-1.1-2.7-2.5v-1.4C37.3,63.7,38.2,62.7,40,62.7z M40,63.9c-0.9,0-1.4,0.4-1.4,1.2v0.3h2.7v-0.3
				C41.4,64.3,40.9,63.9,40,63.9z"/>
			<path class="st0" d="M46.4,62.7c1.9,0,2.7,1.1,2.7,2.4v0.7c0,0.3-0.1,0.5-0.5,0.5H45v0.4c0,0.8,0.5,1.2,1.3,1.2
				c0.7,0,1.1-0.2,1.4-0.6c0.2-0.3,0.3-0.3,0.6-0.1l0.4,0.2c0.3,0.1,0.3,0.3,0.1,0.6c-0.4,0.7-1.2,1.1-2.6,1.1
				c-1.9,0-2.7-1.1-2.7-2.5v-1.4C43.6,63.7,44.6,62.7,46.4,62.7z M46.4,63.9c-0.9,0-1.4,0.4-1.4,1.2v0.3h2.7v-0.3
				C47.7,64.3,47.3,63.9,46.4,63.9z"/>
			<path class="st0" d="M55.2,69.1h-0.6c-0.4,0-0.5,0-0.6-0.3l-0.7-1.6c-0.2-0.4-0.4-0.6-0.9-0.6h-0.7v2.1c0,0.3-0.1,0.4-0.4,0.4
				h-0.6c-0.3,0-0.4-0.1-0.4-0.4v-8c0-0.3,0.1-0.4,0.4-0.4h0.6c0.3,0,0.4,0.1,0.4,0.4v4.6h0.5h0.1l1.6-2.1c0.2-0.3,0.3-0.3,0.7-0.3
				h0.6c0.4,0,0.4,0.2,0.2,0.4l-1.8,2.2c0.4,0.2,0.6,0.5,0.9,1l1,2.1C55.6,68.9,55.5,69.1,55.2,69.1z"/>
			<path class="st0" d="M58.5,62.7c1.4,0,2.2,0.5,2.5,1.3c0.1,0.3,0.1,0.4-0.2,0.5l-0.5,0.2c-0.3,0.1-0.3,0.1-0.5-0.2
				c-0.2-0.4-0.5-0.6-1.3-0.6c-0.8,0-1.1,0.2-1.1,0.6c0,0.6,0.5,0.7,1.4,0.7c1.4,0.1,2.4,0.5,2.4,1.9c0,1.2-0.9,2-2.6,2
				c-1.4,0-2.3-0.5-2.6-1.4c-0.1-0.2,0-0.4,0.2-0.5l0.5-0.2c0.2-0.1,0.4,0,0.5,0.2c0.2,0.5,0.6,0.7,1.3,0.7c0.8,0,1.3-0.2,1.3-0.7
				c0-0.6-0.5-0.7-1.4-0.8c-1.2-0.1-2.4-0.4-2.4-1.9C56.1,63.5,56.9,62.7,58.5,62.7z"/>
		</g>
	</g>
</g>
<g id="Confetti">
</g>
<g id="Sparkler">
</g>
<g id="Layer_4">
</g>
</svg>
