<?xml version="1.0" encoding="utf-8"?>
<!-- Generator: Adobe Illustrator 22.0.1, SVG Export Plug-In . SVG Version: 6.00 Build 0)  -->
<svg version="1.1" id="Layer_1" xmlns="http://www.w3.org/2000/svg" xmlns:xlink="http://www.w3.org/1999/xlink" x="0px" y="0px"
	 viewBox="0 0 89.9 90" style="enable-background:new 0 0 89.9 90;" xml:space="preserve">
<metadata><?xpacket begin="﻿" id="W5M0MpCehiHzreSzNTczkc9d"?>
<x:xmpmeta xmlns:x="adobe:ns:meta/" x:xmptk="Adobe XMP Core 5.6-c143 79.161210, 2017/08/11-10:28:36        ">
   <rdf:RDF xmlns:rdf="http://www.w3.org/1999/02/22-rdf-syntax-ns#">
      <rdf:Description rdf:about=""/>
   </rdf:RDF>
</x:xmpmeta>
                                                                                                    
                                                                                                    
                                                                                                    
                                                                                                    
                                                                                                    
                                                                                                    
                                                                                                    
                                                                                                    
                                                                                                    
                                                                                                    
                                                                                                    
                                                                                                    
                                                                                                    
                                                                                                    
                                                                                                    
                                                                                                    
                                                                                                    
                                                                                                    
                                                                                                    
                                                                                                    
                           
<?xpacket end="w"?></metadata>
<style type="text/css">
	.st0{fill:#4DBCC5;}
	.st1{fill:#FFFFFF;}
</style>
<g>
	<g>
		<path class="st0" d="M44.9,87.7C21,87.7,1.6,68.3,1.6,44.5S21,1.2,44.9,1.2s43.3,19.4,43.3,43.3S68.8,87.7,44.9,87.7z"/>
	</g>
</g>
<g>
	<g>
		<path class="st1" d="M40,38.1c2.8,1.3,4,3.7,4,6.6c0,5-3.3,8.5-10.1,8.5c-5.9,0-9.2-2.4-10.7-6.6c-0.3-0.9-0.1-1.4,0.9-1.7
			l2.1-0.7c0.9-0.4,1.3-0.1,1.7,0.8c0.9,2.4,2.2,3.7,5.9,3.7c3.4,0,5-1.5,5-4c0-2.6-1.4-3.9-4.1-3.9h-4.1c-1,0-1.3-0.3-1.3-1.3v-1.8
			c0-1,0.3-1.3,1.3-1.3H34c2.5,0,4.1-1.4,4.1-3.7c0-2.5-1.5-3.8-4.4-3.8c-3.6,0-4.7,1.2-5.6,3.6c-0.4,1-0.7,1.1-1.7,0.8l-2.1-0.7
			c-0.9-0.4-1.2-0.8-0.9-1.7c1.5-4.2,4.5-6.6,10.4-6.6c5.9,0,9.2,3,9.2,8C43.1,34.8,42.1,36.9,40,38.1z"/>
		<path class="st1" d="M57.3,24.2c6.6,0,10.4,3.7,10.4,9.5v10.1c0,5.8-3.8,9.5-10.4,9.5s-10.4-3.7-10.4-9.5V33.7
			C46.9,27.9,50.7,24.2,57.3,24.2z M57.3,28.8c-3.5,0-5.5,1.8-5.5,4.9v10.1c0,3.1,2,4.9,5.5,4.9s5.5-1.8,5.5-4.9V33.7
			C62.8,30.6,60.8,28.8,57.3,28.8z"/>
	</g>
	<g>
		<path class="st1" d="M33.8,59.7c0.7,0,1.2,0.1,1.6,0.2v-2.5c0-0.3,0.1-0.4,0.4-0.4h0.7c0.3,0,0.4,0.1,0.4,0.4v8.6
			c0,0.4-0.1,0.6-0.5,0.7c-0.5,0.2-1.3,0.4-2.5,0.4c-2,0-2.9-1-2.9-2.7v-1.8C31,60.7,32,59.7,33.8,59.7z M34.1,61.2
			c-1.1,0-1.5,0.5-1.5,1.4v1.8c0,0.9,0.5,1.3,1.5,1.3c0.5,0,0.9-0.1,1.2-0.1c0.1,0,0.1-0.1,0.1-0.1v-4.1
			C35.1,61.3,34.7,61.2,34.1,61.2z"/>
		<path class="st1" d="M41.2,59.7c2.2,0,2.9,1.2,2.9,2.8V66c0,0.5-0.1,0.6-0.5,0.8c-0.5,0.2-1.3,0.4-2.4,0.4c-2.4,0-3-0.8-3-2.2
			c0-1.6,0.9-2.2,3.1-2.2c0.5,0,1.1,0.1,1.3,0.1v-0.4c0-0.8-0.3-1.3-1.3-1.3c-0.7,0-1.1,0.2-1.4,0.6c-0.2,0.3-0.3,0.3-0.6,0.2
			l-0.5-0.2c-0.3-0.1-0.4-0.3-0.2-0.6C38.9,60.2,39.8,59.7,41.2,59.7z M41,64c-1,0-1.3,0.3-1.3,0.9s0.2,0.9,1.3,0.9
			c0.7,0,1.1-0.1,1.3-0.1c0.1,0,0.1-0.1,0.1-0.2v-1.4C42.2,64.1,41.6,64,41,64z"/>
		<path class="st1" d="M51.4,60.3v6.8c0,1.8-0.8,2.9-3,2.9c-1.5,0-2.3-0.5-2.8-1.3c-0.2-0.3-0.1-0.5,0.2-0.7l0.5-0.3
			c0.3-0.2,0.5-0.1,0.7,0.2c0.3,0.4,0.7,0.7,1.4,0.7c0.9,0,1.4-0.5,1.4-1.5v-0.6c-0.4,0.1-0.9,0.2-1.6,0.2c-1.9,0-2.8-1-2.8-2.7
			v-3.7c0-0.3,0.1-0.4,0.4-0.4h0.7c0.3,0,0.4,0.1,0.4,0.4V64c0,0.9,0.5,1.3,1.5,1.3c0.6,0,1-0.1,1.4-0.2v-4.8c0-0.3,0.1-0.4,0.4-0.4
			H51C51.3,59.9,51.4,60,51.4,60.3z"/>
		<path class="st1" d="M55.5,59.7c1.6,0,2.5,0.6,2.9,1.4c0.2,0.3,0.1,0.5-0.2,0.6L57.6,62c-0.3,0.1-0.4,0.1-0.6-0.2
			c-0.2-0.4-0.6-0.7-1.5-0.7c-0.9,0-1.3,0.2-1.3,0.7c0,0.6,0.5,0.7,1.6,0.8c1.6,0.2,2.7,0.5,2.7,2.2c0,1.3-1,2.2-2.9,2.2
			c-1.6,0-2.6-0.6-3-1.6c-0.1-0.3,0-0.5,0.3-0.6l0.6-0.2c0.3-0.1,0.4-0.1,0.6,0.3c0.2,0.5,0.7,0.7,1.5,0.7c1,0,1.4-0.3,1.4-0.8
			c0-0.6-0.5-0.8-1.6-0.9c-1.3-0.1-2.7-0.4-2.7-2.2C52.7,60.6,53.7,59.7,55.5,59.7z"/>
	</g>
</g>
<g id="Confetti">
</g>
<g id="Sparkler">
</g>
</svg>
