<?xml version="1.0" encoding="utf-8"?>
<!-- Generator: Adobe Illustrator 22.0.1, SVG Export Plug-In . SVG Version: 6.00 Build 0)  -->
<svg version="1.1" id="Layer_1" xmlns="http://www.w3.org/2000/svg" xmlns:xlink="http://www.w3.org/1999/xlink" x="0px" y="0px"
	 viewBox="0 0 89.9 90" style="enable-background:new 0 0 89.9 90;" xml:space="preserve">
<metadata><?xpacket begin="﻿" id="W5M0MpCehiHzreSzNTczkc9d"?>
<x:xmpmeta xmlns:x="adobe:ns:meta/" x:xmptk="Adobe XMP Core 5.6-c143 79.161210, 2017/08/11-10:28:36        ">
   <rdf:RDF xmlns:rdf="http://www.w3.org/1999/02/22-rdf-syntax-ns#">
      <rdf:Description rdf:about=""/>
   </rdf:RDF>
</x:xmpmeta>
                                                                                                    
                                                                                                    
                                                                                                    
                                                                                                    
                                                                                                    
                                                                                                    
                                                                                                    
                                                                                                    
                                                                                                    
                                                                                                    
                                                                                                    
                                                                                                    
                                                                                                    
                                                                                                    
                                                                                                    
                                                                                                    
                                                                                                    
                                                                                                    
                                                                                                    
                                                                                                    
                           
<?xpacket end="w"?></metadata>
<style type="text/css">
	.st0{fill:#4DBCC5;}
</style>
<g id="Confetti">
</g>
<g id="Sparkler">
</g>
<g>
	<g>
		<g>
			<g>
				<path class="st0" d="M44.9,87.9C21,87.9,1.6,68.5,1.6,44.6S21,1.3,44.9,1.3s43.3,19.4,43.3,43.3S68.7,87.9,44.9,87.9z M44.9,3.1
					C22,3.1,3.4,21.7,3.4,44.6S22,86,44.9,86s41.5-18.6,41.5-41.5S67.7,3.1,44.9,3.1z"/>
			</g>
		</g>
	</g>
	<g>
		<g>
			<path class="st0" d="M39.2,38.3c2.8,1.3,4,3.7,4,6.6c0,5-3.3,8.5-10.1,8.5c-5.9,0-9.2-2.4-10.7-6.6c-0.3-0.9-0.1-1.4,0.9-1.7
				l2.1-0.7c0.9-0.4,1.3-0.1,1.7,0.8c0.9,2.4,2.2,3.7,5.9,3.7c3.4,0,5-1.5,5-4c0-2.6-1.4-3.9-4.1-3.9h-4.1c-1,0-1.3-0.3-1.3-1.3
				v-1.8c0-1,0.3-1.3,1.3-1.3h3.4c2.5,0,4.1-1.4,4.1-3.7c0-2.5-1.5-3.8-4.4-3.8c-3.6,0-4.7,1.2-5.6,3.6c-0.4,1-0.7,1.1-1.7,0.8
				l-2.1-0.7c-0.9-0.4-1.2-0.8-0.9-1.7c1.5-4.2,4.5-6.6,10.4-6.6c5.9,0,9.2,3,9.2,8C42.3,35,41.3,37.1,39.2,38.3z"/>
			<path class="st0" d="M56.6,24.4c6.6,0,10.4,3.7,10.4,9.5V44c0,5.8-3.8,9.5-10.4,9.5S46.1,49.8,46.1,44V33.9
				C46.1,28.1,49.9,24.4,56.6,24.4z M56.6,29c-3.5,0-5.5,1.8-5.5,4.9V44c0,3.1,2,4.9,5.5,4.9S62,47.1,62,44V33.9
				C62,30.8,60,29,56.6,29z"/>
		</g>
		<g>
			<path class="st0" d="M33,59.9c0.7,0,1.2,0.1,1.6,0.2v-2.5c0-0.3,0.1-0.4,0.4-0.4h0.7c0.3,0,0.4,0.1,0.4,0.4v8.6
				c0,0.4-0.1,0.6-0.5,0.7c-0.5,0.2-1.3,0.4-2.5,0.4c-2,0-2.9-1-2.9-2.7v-1.8C30.2,60.9,31.2,59.9,33,59.9z M33.3,61.4
				c-1.1,0-1.5,0.5-1.5,1.4v1.8c0,0.9,0.5,1.3,1.5,1.3c0.5,0,0.9-0.1,1.2-0.1c0.1,0,0.1-0.1,0.1-0.1v-4.1
				C34.3,61.5,33.9,61.4,33.3,61.4z"/>
			<path class="st0" d="M40.4,59.9c2.2,0,2.9,1.2,2.9,2.8v3.5c0,0.5-0.1,0.6-0.5,0.8c-0.5,0.2-1.3,0.4-2.4,0.4c-2.4,0-3-0.8-3-2.2
				c0-1.6,0.9-2.2,3.1-2.2c0.5,0,1.1,0.1,1.3,0.1v-0.4c0-0.8-0.3-1.3-1.3-1.3c-0.7,0-1.1,0.2-1.4,0.6c-0.2,0.3-0.3,0.3-0.6,0.2
				l-0.5-0.2c-0.3-0.1-0.4-0.3-0.2-0.6C38.1,60.5,39,59.9,40.4,59.9z M40.3,64.2c-1,0-1.3,0.3-1.3,0.9s0.2,0.9,1.3,0.9
				c0.7,0,1.1-0.1,1.3-0.1c0.1,0,0.1-0.1,0.1-0.2v-1.4C41.5,64.3,40.8,64.2,40.3,64.2z"/>
			<path class="st0" d="M50.7,60.5v6.8c0,1.8-0.8,2.9-3,2.9c-1.5,0-2.3-0.5-2.8-1.3c-0.2-0.3-0.1-0.5,0.2-0.7l0.5-0.3
				c0.3-0.2,0.5-0.1,0.7,0.2c0.3,0.4,0.7,0.7,1.4,0.7c0.9,0,1.4-0.5,1.4-1.5v-0.6c-0.4,0.1-0.9,0.2-1.6,0.2c-1.9,0-2.8-1-2.8-2.7
				v-3.7c0-0.3,0.1-0.4,0.4-0.4h0.7c0.3,0,0.4,0.1,0.4,0.4v3.7c0,0.9,0.5,1.3,1.5,1.3c0.6,0,1-0.1,1.4-0.2v-4.8
				c0-0.3,0.1-0.4,0.4-0.4h0.7C50.6,60.1,50.7,60.2,50.7,60.5z"/>
			<path class="st0" d="M54.7,59.9c1.6,0,2.5,0.6,2.9,1.4c0.2,0.3,0.1,0.5-0.2,0.6l-0.6,0.2c-0.3,0.1-0.4,0.1-0.6-0.2
				c-0.2-0.4-0.6-0.7-1.5-0.7c-0.9,0-1.3,0.2-1.3,0.7c0,0.6,0.5,0.7,1.6,0.8c1.6,0.2,2.7,0.5,2.7,2.2c0,1.3-1,2.2-2.9,2.2
				c-1.6,0-2.6-0.6-3-1.6c-0.1-0.3,0-0.5,0.3-0.6l0.6-0.2c0.3-0.1,0.4-0.1,0.6,0.3c0.2,0.5,0.7,0.7,1.5,0.7c1,0,1.4-0.3,1.4-0.8
				c0-0.6-0.5-0.8-1.6-0.9c-1.3-0.1-2.7-0.4-2.7-2.2C52,60.8,52.9,59.9,54.7,59.9z"/>
		</g>
	</g>
</g>
</svg>
