<?xml version="1.0" encoding="utf-8"?>
<!-- Generator: Adobe Illustrator 22.0.1, SVG Export Plug-In . SVG Version: 6.00 Build 0)  -->
<svg version="1.1" id="Layer_1" xmlns="http://www.w3.org/2000/svg" xmlns:xlink="http://www.w3.org/1999/xlink" x="0px" y="0px"
	 viewBox="0 0 89.9 90" style="enable-background:new 0 0 89.9 90;" xml:space="preserve">
<metadata><?xpacket begin="﻿" id="W5M0MpCehiHzreSzNTczkc9d"?>
<x:xmpmeta xmlns:x="adobe:ns:meta/" x:xmptk="Adobe XMP Core 5.6-c143 79.161210, 2017/08/11-10:28:36        ">
   <rdf:RDF xmlns:rdf="http://www.w3.org/1999/02/22-rdf-syntax-ns#">
      <rdf:Description rdf:about=""/>
   </rdf:RDF>
</x:xmpmeta>
                                                                                                    
                                                                                                    
                                                                                                    
                                                                                                    
                                                                                                    
                                                                                                    
                                                                                                    
                                                                                                    
                                                                                                    
                                                                                                    
                                                                                                    
                                                                                                    
                                                                                                    
                                                                                                    
                                                                                                    
                                                                                                    
                                                                                                    
                                                                                                    
                                                                                                    
                                                                                                    
                           
<?xpacket end="w"?></metadata>
<style type="text/css">
	.st0{fill:#4DBCC5;}
</style>
<g id="Confetti">
</g>
<g id="Sparkler">
</g>
<g>
	<g>
		<g>
			<g>
				<path class="st0" d="M45,87.8c-23.9,0-43.3-19.4-43.3-43.3S21.2,1.2,45,1.2s43.3,19.4,43.3,43.3S68.9,87.8,45,87.8z M45,3.1
					C22.2,3.1,3.6,21.7,3.6,44.5S22.2,86,45,86s41.5-18.6,41.5-41.5S67.9,3.1,45,3.1z"/>
			</g>
		</g>
	</g>
	<g>
		<path class="st0" d="M53.9,35.7c4,1.8,5.7,5.4,5.7,9.6c0,7.2-4.7,12.3-14.6,12.3c-8.6,0-13.2-3.4-15.3-9.5c-0.5-1.4-0.1-2,1.2-2.5
			l3.1-1.1c1.4-0.5,1.9-0.2,2.5,1.2c1.2,3.5,3.1,5.3,8.6,5.3c4.9,0,7.1-2.2,7.1-5.8c0-3.7-2-5.7-5.9-5.7h-5.9
			c-1.5,0-1.9-0.5-1.9-1.9V35c0-1.5,0.5-1.9,1.9-1.9h4.9c3.6,0,5.9-2,5.9-5.3c0-3.6-2.2-5.5-6.3-5.5c-5.2,0-6.8,1.7-8,5.2
			c-0.6,1.4-1.1,1.6-2.5,1.2l-3.1-1.1c-1.4-0.5-1.7-1.1-1.2-2.5c2.2-6.1,6.5-9.5,14.9-9.5c8.6,0,13.3,4.4,13.3,11.5
			C58.3,30.9,56.9,33.9,53.9,35.7z"/>
	</g>
	<g>
		<path class="st0" d="M35.7,63.3l-1.6,5.4c-0.1,0.3-0.2,0.3-0.5,0.3h-0.4c-0.3,0-0.4-0.1-0.5-0.3l-0.9-3c-0.2-0.6-0.2-1.2-0.2-1.2
			h-0.1c0,0-0.1,0.7-0.2,1.2l-0.9,3c-0.1,0.3-0.2,0.3-0.5,0.3h-0.4c-0.3,0-0.4-0.1-0.5-0.3l-1.6-5.4c-0.1-0.3-0.1-0.4,0.3-0.4h0.5
			c0.4,0,0.6,0.1,0.7,0.4l0.7,2.6c0.1,0.5,0.2,1.4,0.2,1.4h0.1c0-0.1,0.1-0.9,0.2-1.5l0.8-2.6C31,63,31.1,63,31.5,63h0.3
			c0.4,0,0.5,0.1,0.6,0.4l0.8,2.6c0.2,0.6,0.2,1.4,0.2,1.5h0.1c0-0.1,0-0.8,0.2-1.5l0.7-2.6c0.1-0.3,0.2-0.4,0.7-0.4h0.4
			C35.8,62.9,35.8,63,35.7,63.3z"/>
		<path class="st0" d="M39.1,62.7c1.9,0,2.7,1.1,2.7,2.4v0.7c0,0.3-0.1,0.5-0.5,0.5h-3.6v0.4c0,0.8,0.5,1.2,1.3,1.2
			c0.7,0,1.1-0.2,1.4-0.6c0.2-0.3,0.3-0.3,0.6-0.1l0.4,0.2c0.3,0.1,0.3,0.3,0.1,0.6c-0.4,0.7-1.2,1.1-2.6,1.1
			c-1.9,0-2.7-1.1-2.7-2.5v-1.4C36.4,63.6,37.3,62.7,39.1,62.7z M39.1,63.9c-0.9,0-1.4,0.4-1.4,1.2v0.3h2.7v-0.3
			C40.5,64.3,40,63.9,39.1,63.9z"/>
		<path class="st0" d="M45.5,62.7c1.9,0,2.7,1.1,2.7,2.4v0.7c0,0.3-0.1,0.5-0.5,0.5h-3.6v0.4c0,0.8,0.5,1.2,1.3,1.2
			c0.7,0,1.1-0.2,1.4-0.6c0.2-0.3,0.3-0.3,0.6-0.1l0.4,0.2c0.3,0.1,0.3,0.3,0.1,0.6c-0.4,0.7-1.2,1.1-2.6,1.1
			c-1.9,0-2.7-1.1-2.7-2.5v-1.4C42.7,63.6,43.7,62.7,45.5,62.7z M45.5,63.9c-0.9,0-1.4,0.4-1.4,1.2v0.3h2.7v-0.3
			C46.8,64.3,46.4,63.9,45.5,63.9z"/>
		<path class="st0" d="M54.3,69h-0.6c-0.4,0-0.5,0-0.6-0.3l-0.7-1.6c-0.2-0.4-0.4-0.6-0.9-0.6h-0.7v2.1c0,0.3-0.1,0.4-0.4,0.4h-0.6
			c-0.3,0-0.4-0.1-0.4-0.4v-8c0-0.3,0.1-0.4,0.4-0.4h0.6c0.3,0,0.4,0.1,0.4,0.4v4.6h0.5h0.1l1.6-2.1c0.2-0.3,0.3-0.3,0.7-0.3h0.6
			c0.4,0,0.4,0.2,0.2,0.4l-1.8,2.2c0.4,0.2,0.6,0.5,0.9,1l1,2.1C54.7,68.9,54.6,69,54.3,69z"/>
		<path class="st0" d="M57.6,62.7c1.4,0,2.2,0.5,2.5,1.3c0.1,0.3,0.1,0.4-0.2,0.5l-0.5,0.2c-0.3,0.1-0.3,0.1-0.5-0.2
			c-0.2-0.4-0.5-0.6-1.3-0.6c-0.8,0-1.1,0.2-1.1,0.6c0,0.6,0.5,0.7,1.4,0.7c1.4,0.1,2.4,0.5,2.4,1.9c0,1.2-0.9,2-2.6,2
			c-1.4,0-2.3-0.5-2.6-1.4c-0.1-0.2,0-0.4,0.2-0.5l0.5-0.2c0.2-0.1,0.4,0,0.5,0.2c0.2,0.5,0.6,0.7,1.3,0.7c0.8,0,1.3-0.2,1.3-0.7
			c0-0.6-0.5-0.7-1.4-0.8c-1.2-0.1-2.4-0.4-2.4-1.9C55.2,63.5,56,62.7,57.6,62.7z"/>
	</g>
</g>
</svg>
