<?xml version="1.0" encoding="utf-8"?>
<!-- Generator: Adobe Illustrator 22.0.1, SVG Export Plug-In . SVG Version: 6.00 Build 0)  -->
<svg version="1.1" id="Layer_1" xmlns="http://www.w3.org/2000/svg" xmlns:xlink="http://www.w3.org/1999/xlink" x="0px" y="0px"
	 viewBox="0 0 89.9 90" style="enable-background:new 0 0 89.9 90;" xml:space="preserve">
<metadata><?xpacket begin="﻿" id="W5M0MpCehiHzreSzNTczkc9d"?>
<x:xmpmeta xmlns:x="adobe:ns:meta/" x:xmptk="Adobe XMP Core 5.6-c143 79.161210, 2017/08/11-10:28:36        ">
   <rdf:RDF xmlns:rdf="http://www.w3.org/1999/02/22-rdf-syntax-ns#">
      <rdf:Description rdf:about=""/>
   </rdf:RDF>
</x:xmpmeta>
                                                                                                    
                                                                                                    
                                                                                                    
                                                                                                    
                                                                                                    
                                                                                                    
                                                                                                    
                                                                                                    
                                                                                                    
                                                                                                    
                                                                                                    
                                                                                                    
                                                                                                    
                                                                                                    
                                                                                                    
                                                                                                    
                                                                                                    
                                                                                                    
                                                                                                    
                                                                                                    
                           
<?xpacket end="w"?></metadata>
<style type="text/css">
	.st0{fill:#4DBCC5;}
	.st1{fill:#FFFFFF;}
</style>
<g>
	<g>
		<g>
			<path class="st0" d="M44.9,87.7c-23.9,0-43.3-19.4-43.3-43.3S21.1,1.1,44.9,1.1s43.3,19.4,43.3,43.3S68.8,87.7,44.9,87.7z"/>
		</g>
	</g>
	<g>
		<g>
			<path class="st1" d="M54.1,35.5c4,1.8,5.7,5.4,5.7,9.6c0,7.2-4.7,12.3-14.6,12.3c-8.6,0-13.2-3.4-15.3-9.5
				c-0.5-1.4-0.1-2,1.2-2.5l3.1-1.1c1.4-0.5,1.9-0.2,2.5,1.2c1.2,3.5,3.1,5.3,8.6,5.3c4.9,0,7.1-2.2,7.1-5.8c0-3.7-2-5.7-5.9-5.7
				h-5.9c-1.5,0-1.9-0.5-1.9-1.9v-2.5c0-1.5,0.5-1.9,1.9-1.9h4.9c3.6,0,5.9-2,5.9-5.3c0-3.6-2.2-5.5-6.3-5.5c-5.2,0-6.8,1.7-8,5.2
				c-0.6,1.4-1.1,1.6-2.5,1.2l-3.1-1.1c-1.4-0.5-1.7-1.1-1.2-2.5c2.2-6.1,6.5-9.5,14.9-9.5c8.6,0,13.3,4.4,13.3,11.5
				C58.5,30.7,57.1,33.8,54.1,35.5z"/>
		</g>
		<g>
			<path class="st1" d="M36,63.2l-1.6,5.4c-0.1,0.3-0.2,0.3-0.5,0.3h-0.4c-0.3,0-0.4-0.1-0.5-0.3l-0.9-3c-0.2-0.6-0.2-1.2-0.2-1.2
				h-0.1c0,0-0.1,0.7-0.2,1.2l-0.9,3c-0.1,0.3-0.2,0.3-0.5,0.3h-0.4c-0.3,0-0.4-0.1-0.5-0.3l-1.6-5.4c-0.1-0.3-0.1-0.4,0.3-0.4h0.5
				c0.4,0,0.6,0.1,0.7,0.4l0.7,2.6c0.1,0.5,0.2,1.4,0.2,1.4h0.1c0-0.1,0.1-0.9,0.2-1.5l0.8-2.6c0.1-0.3,0.2-0.4,0.6-0.4H32
				c0.4,0,0.5,0.1,0.6,0.4l0.8,2.6c0.2,0.6,0.2,1.4,0.2,1.5h0.1c0-0.1,0-0.8,0.2-1.5l0.7-2.6c0.1-0.3,0.2-0.4,0.7-0.4h0.4
				C36,62.7,36,62.8,36,63.2z"/>
			<path class="st1" d="M39.3,62.5c1.9,0,2.7,1.1,2.7,2.4v0.7c0,0.3-0.1,0.5-0.5,0.5H38v0.4c0,0.8,0.5,1.2,1.3,1.2
				c0.7,0,1.1-0.2,1.4-0.6c0.2-0.3,0.3-0.3,0.6-0.1l0.4,0.2c0.3,0.1,0.3,0.3,0.1,0.6c-0.4,0.7-1.2,1.1-2.6,1.1
				c-1.9,0-2.7-1.1-2.7-2.5v-1.4C36.6,63.5,37.5,62.5,39.3,62.5z M39.3,63.7c-0.9,0-1.4,0.4-1.4,1.2v0.3h2.7v-0.3
				C40.7,64.1,40.2,63.7,39.3,63.7z"/>
			<path class="st1" d="M45.7,62.5c1.9,0,2.7,1.1,2.7,2.4v0.7c0,0.3-0.1,0.5-0.5,0.5h-3.6v0.4c0,0.8,0.5,1.2,1.3,1.2
				c0.7,0,1.1-0.2,1.4-0.6c0.2-0.3,0.3-0.3,0.6-0.1l0.4,0.2c0.3,0.1,0.3,0.3,0.1,0.6C47.8,68.6,47,69,45.7,69
				c-1.9,0-2.7-1.1-2.7-2.5v-1.4C42.9,63.5,43.9,62.5,45.7,62.5z M45.7,63.7c-0.9,0-1.4,0.4-1.4,1.2v0.3H47v-0.3
				C47,64.1,46.6,63.7,45.7,63.7z"/>
			<path class="st1" d="M54.5,68.9h-0.6c-0.4,0-0.5,0-0.6-0.3l-0.7-1.6c-0.2-0.4-0.4-0.6-0.9-0.6h-0.7v2.1c0,0.3-0.1,0.4-0.4,0.4
				h-0.6c-0.3,0-0.4-0.1-0.4-0.4v-8c0-0.3,0.1-0.4,0.4-0.4h0.6c0.3,0,0.4,0.1,0.4,0.4v4.6h0.5h0.1l1.6-2.1c0.2-0.3,0.3-0.3,0.7-0.3
				h0.6c0.4,0,0.4,0.2,0.2,0.4l-1.8,2.2c0.4,0.2,0.6,0.5,0.9,1l1,2.1C54.9,68.7,54.8,68.9,54.5,68.9z"/>
			<path class="st1" d="M57.8,62.5c1.4,0,2.2,0.5,2.5,1.3c0.1,0.3,0.1,0.4-0.2,0.5l-0.5,0.2c-0.3,0.1-0.3,0.1-0.5-0.2
				c-0.2-0.4-0.5-0.6-1.3-0.6c-0.8,0-1.1,0.2-1.1,0.6c0,0.6,0.5,0.7,1.4,0.7c1.4,0.1,2.4,0.5,2.4,1.9c0,1.2-0.9,2-2.6,2
				c-1.4,0-2.3-0.5-2.6-1.4c-0.1-0.2,0-0.4,0.2-0.5l0.5-0.2c0.2-0.1,0.4,0,0.5,0.2c0.2,0.5,0.6,0.7,1.3,0.7c0.8,0,1.3-0.2,1.3-0.7
				c0-0.6-0.5-0.7-1.4-0.8c-1.2-0.1-2.4-0.4-2.4-1.9C55.4,63.3,56.2,62.5,57.8,62.5z"/>
		</g>
	</g>
</g>
<g id="Confetti">
</g>
<g id="Sparkler">
</g>
</svg>
