<?xml version="1.0" encoding="utf-8"?>
<!-- Generator: Adobe Illustrator 22.0.1, SVG Export Plug-In . SVG Version: 6.00 Build 0)  -->
<svg version="1.1" id="Layer_1" xmlns="http://www.w3.org/2000/svg" xmlns:xlink="http://www.w3.org/1999/xlink" x="0px" y="0px"
	 viewBox="0 0 91.1 91" style="enable-background:new 0 0 91.1 91;" xml:space="preserve">
<metadata><?xpacket begin="﻿" id="W5M0MpCehiHzreSzNTczkc9d"?>
<x:xmpmeta xmlns:x="adobe:ns:meta/" x:xmptk="Adobe XMP Core 5.6-c143 79.161210, 2017/08/11-10:28:36        ">
   <rdf:RDF xmlns:rdf="http://www.w3.org/1999/02/22-rdf-syntax-ns#">
      <rdf:Description rdf:about=""/>
   </rdf:RDF>
</x:xmpmeta>
                                                                                                    
                                                                                                    
                                                                                                    
                                                                                                    
                                                                                                    
                                                                                                    
                                                                                                    
                                                                                                    
                                                                                                    
                                                                                                    
                                                                                                    
                                                                                                    
                                                                                                    
                                                                                                    
                                                                                                    
                                                                                                    
                                                                                                    
                                                                                                    
                                                                                                    
                                                                                                    
                           
<?xpacket end="w"?></metadata>
<style type="text/css">
	.st0{fill:#4DBDC6;}
	.st1{fill:#FFFFFF;}
</style>
<g>
	<g>
		<path class="st0" d="M45.4,88.7c-23.9,0-43.3-19.4-43.3-43.3S21.5,2.1,45.4,2.1s43.3,19.4,43.3,43.3S69.2,88.7,45.4,88.7z"/>
	</g>
</g>
<g id="Confetti">
</g>
<g id="Sparkler">
</g>
<g>
	<g>
		<path class="st1" d="M49.4,38.6v2c0,1.2-0.4,1.6-1.6,1.6h-3.2v6c0,1.2-0.4,1.6-1.6,1.6h-2.3c-1.2,0-1.6-0.4-1.6-1.6v-6H24
			c-1.2,0-1.6-0.4-1.6-1.6v-1.7c0-1.1,0.1-1.3,0.6-1.9l15.3-19c0.7-0.9,1.2-1.1,2.2-1.1H43c1.2,0,1.6,0.4,1.6,1.6V37h3.2
			C49.1,37,49.4,37.5,49.4,38.6z M29.2,37h10V24.7L29.2,37z"/>
	</g>
</g>
<g>
	<g>
		<path class="st1" d="M36.2,57.8l-1.6,5.4c-0.1,0.3-0.2,0.3-0.5,0.3h-0.4c-0.3,0-0.4-0.1-0.5-0.3l-0.9-3c-0.2-0.6-0.2-1.2-0.2-1.2
			h-0.1c0,0-0.1,0.7-0.2,1.2l-0.9,3c-0.1,0.3-0.2,0.3-0.5,0.3h-0.4c-0.3,0-0.4-0.1-0.5-0.3L28,57.8c-0.1-0.3-0.1-0.4,0.3-0.4h0.5
			c0.4,0,0.6,0.1,0.7,0.4l0.7,2.7c0.1,0.5,0.2,1.4,0.2,1.5h0.1c0-0.1,0.1-0.9,0.2-1.5l0.8-2.6c0.1-0.3,0.2-0.4,0.6-0.4h0.3
			c0.4,0,0.5,0.1,0.6,0.4l0.8,2.6c0.2,0.6,0.2,1.4,0.2,1.5H34c0-0.1,0-0.8,0.2-1.5l0.7-2.7c0.1-0.3,0.2-0.4,0.7-0.4H36
			C36.2,57.3,36.3,57.4,36.2,57.8z"/>
	</g>
	<g>
		<path class="st1" d="M40.2,57.2c1.9,0,2.7,1.1,2.7,2.5v0.7c0,0.3-0.1,0.5-0.5,0.5h-3.6v0.4c0,0.8,0.5,1.2,1.4,1.2
			c0.7,0,1.2-0.2,1.4-0.6c0.2-0.3,0.3-0.3,0.6-0.1l0.4,0.2c0.3,0.1,0.3,0.3,0.1,0.6c-0.4,0.7-1.2,1.1-2.6,1.1
			c-1.9,0-2.7-1.1-2.7-2.5v-1.4C37.3,58.1,38.3,57.2,40.2,57.2z M40.2,58.3c-0.9,0-1.4,0.4-1.4,1.2v0.3h2.7v-0.3
			C41.4,58.8,41.1,58.3,40.2,58.3z"/>
	</g>
	<g>
		<path class="st1" d="M46.9,57.2c1.9,0,2.7,1.1,2.7,2.5v0.7c0,0.3-0.1,0.5-0.5,0.5h-3.6v0.4c0,0.8,0.5,1.2,1.4,1.2
			c0.7,0,1.2-0.2,1.4-0.6c0.2-0.3,0.3-0.3,0.6-0.1l0.4,0.2c0.3,0.1,0.3,0.3,0.1,0.6c-0.4,0.7-1.2,1.1-2.6,1.1
			c-1.9,0-2.7-1.1-2.7-2.5v-1.4C44.2,58.1,45.2,57.2,46.9,57.2z M46.9,58.3c-0.9,0-1.4,0.4-1.4,1.2v0.3h2.7v-0.3
			C48.3,58.8,47.8,58.3,46.9,58.3z"/>
	</g>
	<g>
		<path class="st1" d="M56.2,63.5h-0.6c-0.4,0-0.5,0-0.6-0.3l-0.7-1.6c-0.2-0.4-0.5-0.6-1-0.6h-0.7v2.1c0,0.3-0.1,0.4-0.4,0.4h-0.6
			c-0.3,0-0.4-0.1-0.4-0.4v-8c0-0.3,0.1-0.4,0.4-0.4h0.6c0.3,0,0.4,0.1,0.4,0.4v4.6h0.5h0.1l1.6-2.1c0.2-0.3,0.3-0.3,0.7-0.3h0.6
			c0.4,0,0.5,0.2,0.2,0.4l-1.8,2.2c0.4,0.2,0.6,0.5,0.9,1l1,2.1C56.7,63.4,56.7,63.5,56.2,63.5z"/>
	</g>
	<g>
		<path class="st1" d="M60.2,57.2c1.4,0,2.2,0.5,2.5,1.3c0.1,0.3,0.1,0.4-0.2,0.5L62,59.2c-0.3,0.1-0.3,0.1-0.5-0.2
			c-0.2-0.4-0.5-0.6-1.3-0.6s-1.1,0.2-1.1,0.6c0,0.6,0.5,0.7,1.4,0.7c1.4,0.1,2.4,0.5,2.4,1.9c0,1.2-0.9,2-2.6,2
			c-1.4,0-2.3-0.5-2.7-1.4c-0.1-0.2,0-0.4,0.2-0.5l0.5-0.2c0.2-0.1,0.4,0,0.5,0.2c0.2,0.5,0.6,0.7,1.3,0.7c0.8,0,1.3-0.2,1.3-0.7
			c0-0.6-0.5-0.7-1.4-0.8c-1.2-0.1-2.4-0.4-2.4-1.9C57.7,58,58.4,57.2,60.2,57.2z"/>
	</g>
	<g>
		<path class="st1" d="M34.8,69.7c0.6,0,1.1,0.1,1.4,0.2v-2.2c0-0.3,0.1-0.4,0.4-0.4h0.7c0.3,0,0.4,0.1,0.4,0.4v7.6
			c0,0.4-0.1,0.5-0.5,0.7c-0.5,0.2-1.1,0.4-2.2,0.4c-1.8,0-2.6-0.9-2.6-2.4v-1.6C32.3,70.6,33.2,69.7,34.8,69.7z M35.1,71
			c-0.9,0-1.4,0.4-1.4,1.3v1.5c0,0.8,0.5,1.2,1.3,1.2c0.4,0,0.8,0,1.1-0.1c0.1,0,0.1-0.1,0.1-0.1v-3.6C35.9,71.1,35.6,71,35.1,71z"
			/>
	</g>
	<g>
		<path class="st1" d="M41.9,69.7c1.8,0,2.7,0.9,2.7,2.4v1.8c0,1.5-1,2.4-2.7,2.4c-1.8,0-2.7-0.9-2.7-2.4v-1.8
			C39.2,70.6,40.2,69.7,41.9,69.7z M41.9,70.9c-0.9,0-1.4,0.4-1.4,1.1v1.8c0,0.7,0.5,1.1,1.4,1.1s1.4-0.4,1.4-1.1V72
			C43.3,71.4,42.8,70.9,41.9,70.9z"/>
	</g>
	<g>
		<path class="st1" d="M49.2,69.7c1.7,0,2.5,0.9,2.5,2.4v3.6c0,0.3-0.1,0.4-0.4,0.4h-0.7c-0.3,0-0.4-0.1-0.4-0.4v-3.5
			c0-0.8-0.4-1.2-1.3-1.2c-0.5,0-0.8,0.1-1.1,0.2c-0.1,0-0.1,0.1-0.1,0.1v4.4c0,0.3-0.1,0.4-0.4,0.4h-0.7c-0.3,0-0.4-0.1-0.4-0.4
			v-4.9c0-0.4,0.1-0.5,0.5-0.7C47.3,69.9,48.1,69.7,49.2,69.7z"/>
	</g>
	<g>
		<path class="st1" d="M55.9,69.7c1.9,0,2.7,1.1,2.7,2.5v0.7c0,0.3-0.1,0.5-0.5,0.5h-3.6v0.4c0,0.8,0.5,1.2,1.4,1.2
			c0.7,0,1.2-0.2,1.4-0.6c0.2-0.3,0.3-0.3,0.6-0.1l0.4,0.2c0.3,0.1,0.3,0.3,0.1,0.6c-0.4,0.7-1.2,1.1-2.6,1.1
			c-1.9,0-2.7-1.1-2.7-2.5v-1.4C53.2,70.6,54.2,69.7,55.9,69.7z M55.9,70.9c-0.9,0-1.4,0.4-1.4,1.2v0.3h2.7v-0.3
			C57.3,71.3,56.8,70.9,55.9,70.9z"/>
	</g>
</g>
<g>
	<path class="st1" d="M60.2,43.9c-0.1,0-0.3-0.1-0.4-0.2l-6.6-6.2c-0.2-0.2-0.2-0.6,0-0.8l2.4-2.6c0.2-0.2,0.5-0.2,0.8,0l3.5,3
		l7.3-8.7c0.1-0.1,0.3-0.2,0.4-0.2h4.4c0.2,0,0.4,0.1,0.5,0.3s0.1,0.4-0.1,0.6L60.7,43.6C60.6,43.8,60.4,43.9,60.2,43.9L60.2,43.9z
		 M54.4,37.1l5.7,5.4l10.7-13.1h-3l-7.5,8.9c-0.1,0.1-0.2,0.2-0.4,0.2c-0.1,0-0.3,0-0.4-0.1l-3.5-3L54.4,37.1z"/>
</g>
<g id="Layer_4">
</g>
</svg>
