<?xml version="1.0" encoding="utf-8"?>
<!-- Generator: Adobe Illustrator 22.0.1, SVG Export Plug-In . SVG Version: 6.00 Build 0)  -->
<svg version="1.1" id="Layer_1" xmlns="http://www.w3.org/2000/svg" xmlns:xlink="http://www.w3.org/1999/xlink" x="0px" y="0px"
	 viewBox="0 0 91.1 91.5" style="enable-background:new 0 0 91.1 91.5;" xml:space="preserve">
<metadata><?xpacket begin="﻿" id="W5M0MpCehiHzreSzNTczkc9d"?>
<x:xmpmeta xmlns:x="adobe:ns:meta/" x:xmptk="Adobe XMP Core 5.6-c143 79.161210, 2017/08/11-10:28:36        ">
   <rdf:RDF xmlns:rdf="http://www.w3.org/1999/02/22-rdf-syntax-ns#">
      <rdf:Description rdf:about=""/>
   </rdf:RDF>
</x:xmpmeta>
                                                                                                    
                                                                                                    
                                                                                                    
                                                                                                    
                                                                                                    
                                                                                                    
                                                                                                    
                                                                                                    
                                                                                                    
                                                                                                    
                                                                                                    
                                                                                                    
                                                                                                    
                                                                                                    
                                                                                                    
                                                                                                    
                                                                                                    
                                                                                                    
                                                                                                    
                                                                                                    
                           
<?xpacket end="w"?></metadata>
<style type="text/css">
	.st0{fill:#4DBDC6;}
</style>
<g>
	<g>
		<path class="st0" d="M51.3,39.1v2c0,1.2-0.4,1.6-1.6,1.6h-3.2v6c0,1.2-0.4,1.6-1.6,1.6h-2.3c-1.2,0-1.6-0.4-1.6-1.6v-6H25.9
			c-1.2,0-1.6-0.4-1.6-1.6v-1.7c0-1.1,0.1-1.3,0.6-1.9l15.3-19c0.7-0.9,1.2-1.1,2.2-1.1h2.5c1.2,0,1.6,0.4,1.6,1.6v18.5h3.2
			C51,37.5,51.3,37.9,51.3,39.1z M31.2,37.5h10V25.2L31.2,37.5z"/>
	</g>
</g>
<g>
	<g>
		<path class="st0" d="M36.2,58.2l-1.6,5.4c-0.1,0.3-0.2,0.3-0.5,0.3h-0.4c-0.3,0-0.4-0.1-0.5-0.3l-0.9-3C32,60,32,59.4,32,59.4H32
			c0,0-0.1,0.7-0.2,1.2l-0.9,3c-0.1,0.3-0.2,0.3-0.5,0.3h-0.4c-0.3,0-0.4-0.1-0.5-0.3l-1.6-5.4c-0.1-0.3-0.1-0.4,0.3-0.4h0.5
			c0.4,0,0.6,0.1,0.7,0.4l0.7,2.7c0.1,0.5,0.2,1.4,0.2,1.5h0.1c0-0.1,0.1-0.9,0.2-1.5l0.8-2.6c0.1-0.3,0.2-0.4,0.6-0.4h0.3
			c0.4,0,0.5,0.1,0.6,0.4l0.8,2.6c0.2,0.6,0.2,1.4,0.2,1.5h0.1c0-0.1,0-0.8,0.2-1.5l0.7-2.7c0.1-0.3,0.2-0.4,0.7-0.4h0.4
			C36.2,57.8,36.2,57.9,36.2,58.2z"/>
	</g>
	<g>
		<path class="st0" d="M40,57.6c1.9,0,2.7,1.1,2.7,2.5v0.7c0,0.3-0.1,0.5-0.5,0.5h-3.6v0.4c0,0.8,0.5,1.2,1.4,1.2
			c0.7,0,1.2-0.2,1.4-0.6c0.2-0.3,0.3-0.3,0.6-0.1l0.4,0.2c0.3,0.1,0.3,0.3,0.1,0.6c-0.4,0.7-1.2,1.1-2.6,1.1
			c-1.9,0-2.7-1.1-2.7-2.5v-1.4C37.2,58.6,38.2,57.6,40,57.6z M40,58.8c-0.9,0-1.4,0.4-1.4,1.2v0.3h2.7V60
			C41.3,59.2,41,58.8,40,58.8z"/>
	</g>
	<g>
		<path class="st0" d="M46.8,57.6c1.9,0,2.7,1.1,2.7,2.5v0.7c0,0.3-0.1,0.5-0.5,0.5h-3.6v0.4c0,0.8,0.5,1.2,1.4,1.2
			c0.7,0,1.2-0.2,1.4-0.6c0.2-0.3,0.3-0.3,0.6-0.1l0.4,0.2c0.3,0.1,0.3,0.3,0.1,0.6c-0.4,0.7-1.2,1.1-2.6,1.1
			c-1.9,0-2.7-1.1-2.7-2.5v-1.4C44.2,58.6,45,57.6,46.8,57.6z M46.8,58.8c-0.9,0-1.4,0.4-1.4,1.2v0.3h2.7V60
			C48.2,59.2,47.8,58.8,46.8,58.8z"/>
	</g>
	<g>
		<path class="st0" d="M56.2,64h-0.6c-0.4,0-0.5,0-0.6-0.3l-0.7-1.6c-0.2-0.4-0.5-0.6-1-0.6h-0.7v2.1c0,0.3-0.1,0.4-0.4,0.4h-0.6
			c-0.3,0-0.4-0.1-0.4-0.4v-8c0-0.3,0.1-0.4,0.4-0.4h0.6c0.3,0,0.4,0.1,0.4,0.4v4.6h0.5h0.1l1.6-2.1c0.2-0.3,0.3-0.3,0.7-0.3h0.6
			c0.4,0,0.5,0.2,0.2,0.4l-1.8,2.2c0.4,0.2,0.6,0.5,0.9,1l1,2.1C56.7,63.9,56.5,64,56.2,64z"/>
	</g>
	<g>
		<path class="st0" d="M60,57.6c1.4,0,2.2,0.5,2.5,1.3c0.1,0.3,0.1,0.4-0.2,0.5l-0.5,0.2c-0.3,0.1-0.3,0.1-0.5-0.2
			c-0.2-0.4-0.5-0.6-1.3-0.6S59,59,59,59.4c0,0.6,0.5,0.7,1.4,0.7c1.4,0.1,2.4,0.5,2.4,1.9c0,1.2-0.9,2-2.6,2
			c-1.4,0-2.3-0.5-2.7-1.4c-0.1-0.2,0-0.4,0.2-0.5l0.5-0.2c0.2-0.1,0.4,0,0.5,0.2c0.2,0.5,0.6,0.7,1.3,0.7c0.8,0,1.3-0.2,1.3-0.7
			c0-0.6-0.5-0.7-1.4-0.8c-1.2-0.1-2.4-0.4-2.4-1.9C57.7,58.4,58.5,57.6,60,57.6z"/>
	</g>
	<g>
		<path class="st0" d="M34.8,70.2c0.6,0,1.1,0.1,1.4,0.2v-2.2c0-0.3,0.1-0.4,0.4-0.4h0.7c0.3,0,0.4,0.1,0.4,0.4v7.5
			c0,0.4-0.1,0.5-0.5,0.7c-0.5,0.2-1.1,0.4-2.2,0.4c-1.8,0-2.6-0.9-2.6-2.4v-1.7C32.2,71.1,33,70.2,34.8,70.2z M35,71.4
			c-0.9,0-1.4,0.4-1.4,1.3v1.5c0,0.8,0.5,1.2,1.3,1.2c0.4,0,0.8,0,1.1-0.1c0.1,0,0.1-0.1,0.1-0.1v-3.6C35.8,71.5,35.5,71.4,35,71.4z
			"/>
	</g>
	<g>
		<path class="st0" d="M42,70.2c1.8,0,2.7,0.9,2.7,2.4v1.8c0,1.5-1,2.4-2.7,2.4c-1.8,0-2.7-0.9-2.7-2.4v-1.8
			C39.2,71.1,40.2,70.2,42,70.2z M42,71.4c-0.9,0-1.4,0.4-1.4,1.1v1.8c0,0.7,0.5,1.1,1.4,1.1s1.4-0.4,1.4-1.1v-1.8
			C43.2,71.8,42.8,71.4,42,71.4z"/>
	</g>
	<g>
		<path class="st0" d="M49,70.2c1.7,0,2.5,0.9,2.5,2.4v3.6c0,0.3-0.1,0.4-0.4,0.4h-0.7c-0.3,0-0.4-0.1-0.4-0.4v-3.5
			c0-0.8-0.4-1.2-1.3-1.2c-0.5,0-0.8,0.1-1.1,0.2c-0.1,0-0.1,0.1-0.1,0.1v4.4c0,0.3-0.1,0.4-0.4,0.4h-0.7c-0.3,0-0.4-0.1-0.4-0.4
			v-4.9c0-0.4,0.1-0.5,0.5-0.7C47.2,70.4,48,70.2,49,70.2z"/>
	</g>
	<g>
		<path class="st0" d="M56,70.2c1.9,0,2.7,1.1,2.7,2.5v0.7c0,0.3-0.1,0.5-0.5,0.5h-3.6v0.4c0,0.8,0.5,1.2,1.4,1.2
			c0.7,0,1.2-0.2,1.4-0.6c0.2-0.3,0.3-0.3,0.6-0.1l0.4,0.2c0.3,0.1,0.3,0.3,0.1,0.6c-0.4,0.7-1.2,1.1-2.6,1.1
			c-1.9,0-2.7-1.1-2.7-2.5v-1.5C53.2,71.1,54.2,70.2,56,70.2z M56,71.3c-0.9,0-1.4,0.4-1.4,1.2v0.3h2.7v-0.3
			C57.2,71.8,56.8,71.3,56,71.3z"/>
	</g>
</g>
<g>
	<path class="st0" d="M61.2,43.5c-0.1,0-0.3-0.1-0.4-0.2L54,37c-0.2-0.2-0.2-0.6,0-0.8l2.4-2.6c0.2-0.2,0.5-0.2,0.8,0l3.6,3.1
		l7.4-8.9c0.1-0.1,0.3-0.2,0.4-0.2h4.5c0.2,0,0.4,0.1,0.5,0.3s0.1,0.4-0.1,0.6l-12,14.8C61.5,43.4,61.3,43.5,61.2,43.5L61.2,43.5z
		 M55.2,36.6l5.9,5.6L72,28.7h-3.1l-7.6,9.1c-0.1,0.1-0.2,0.2-0.4,0.2c-0.1,0-0.3,0-0.4-0.1l-3.6-3.1L55.2,36.6z"/>
</g>
<g id="Confetti">
</g>
<g id="Sparkler">
</g>
<g>
	<g>
		<path class="st0" d="M45.3,89C21.4,89,2,69.6,2,45.7S21.5,2.4,45.3,2.4s43.3,19.4,43.3,43.3S69.2,89,45.3,89z M45.3,4.3
			C22.4,4.3,3.8,22.9,3.8,45.8s18.6,41.5,41.5,41.5s41.5-18.6,41.5-41.5S68.2,4.3,45.3,4.3z"/>
	</g>
</g>
<g id="Layer_4">
</g>
</svg>
