<?xml version="1.0" encoding="utf-8"?>
<!-- Generator: Adobe Illustrator 22.0.1, SVG Export Plug-In . SVG Version: 6.00 Build 0)  -->
<svg version="1.1" id="Layer_1" xmlns="http://www.w3.org/2000/svg" xmlns:xlink="http://www.w3.org/1999/xlink" x="0px" y="0px"
	 viewBox="0 0 89.9 90" style="enable-background:new 0 0 89.9 90;" xml:space="preserve">
<metadata><?xpacket begin="﻿" id="W5M0MpCehiHzreSzNTczkc9d"?>
<x:xmpmeta xmlns:x="adobe:ns:meta/" x:xmptk="Adobe XMP Core 5.6-c143 79.161210, 2017/08/11-10:28:36        ">
   <rdf:RDF xmlns:rdf="http://www.w3.org/1999/02/22-rdf-syntax-ns#">
      <rdf:Description rdf:about=""/>
   </rdf:RDF>
</x:xmpmeta>
                                                                                                    
                                                                                                    
                                                                                                    
                                                                                                    
                                                                                                    
                                                                                                    
                                                                                                    
                                                                                                    
                                                                                                    
                                                                                                    
                                                                                                    
                                                                                                    
                                                                                                    
                                                                                                    
                                                                                                    
                                                                                                    
                                                                                                    
                                                                                                    
                                                                                                    
                                                                                                    
                           
<?xpacket end="w"?></metadata>
<style type="text/css">
	.st0{fill:#4DBCC5;}
	.st1{fill:#FFFFFF;}
</style>
<g>
	<g>
		<g>
			<path class="st0" d="M44.7,88.1c-23.9,0-43.3-19.4-43.3-43.3S20.8,1.5,44.7,1.5S88,20.9,88,44.8S68.6,88.1,44.7,88.1z"/>
		</g>
	</g>
	<g>
		<path class="st1" d="M32.6,35c6.9,0,10.2,3.1,10.2,9c0,5.5-4,9-10.6,9c-7,0-10.6-3.9-10.6-10.3v-8.6c0-6.4,3.7-10.3,10.6-10.3
			c5.4,0,8.7,2.2,10.1,6.2c0.4,0.9,0.1,1.3-0.8,1.7l-2.1,0.7c-0.9,0.4-1.3,0.2-1.7-0.8c-0.9-2.1-2.6-3.3-5.5-3.3
			c-3.7,0-5.7,1.9-5.7,5.6v1.7C27.6,35.5,29.6,35,32.6,35z M32.2,48.4c3.7,0,5.7-1.5,5.7-4.4c0-2.9-1.6-4.4-5.6-4.4
			c-3.3,0-5.2,0.6-5.7,0.9v2.2C26.6,46.4,28.5,48.4,32.2,48.4z"/>
		<path class="st1" d="M57,23.9c6.6,0,10.4,3.7,10.4,9.5v10.1c0,5.8-3.8,9.5-10.4,9.5c-6.6,0-10.4-3.7-10.4-9.5V33.3
			C46.6,27.6,50.4,23.9,57,23.9z M57,28.5c-3.5,0-5.5,1.8-5.5,4.9v10.1c0,3.1,2,4.9,5.5,4.9c3.5,0,5.5-1.8,5.5-4.9V33.3
			C62.5,30.2,60.5,28.5,57,28.5z"/>
	</g>
	<g>
		<path class="st1" d="M33.9,60.4c0.7,0,1.2,0.1,1.6,0.2V58c0-0.3,0.1-0.4,0.4-0.4h0.7c0.3,0,0.4,0.1,0.4,0.4v8.6
			c0,0.4-0.1,0.6-0.5,0.7c-0.5,0.2-1.3,0.4-2.5,0.4c-2,0-2.9-1-2.9-2.7v-1.8C31.1,61.4,32,60.4,33.9,60.4z M34.2,61.8
			c-1.1,0-1.6,0.5-1.6,1.4V65c0,0.9,0.5,1.3,1.5,1.3c0.5,0,0.9-0.1,1.2-0.1c0.1,0,0.1-0.1,0.1-0.1V62C35.2,61.9,34.7,61.8,34.2,61.8
			z"/>
		<path class="st1" d="M41.3,60.4c2.2,0,2.9,1.2,2.9,2.8v3.5c0,0.5-0.1,0.6-0.5,0.8c-0.5,0.2-1.3,0.4-2.4,0.4c-2.4,0-3-0.8-3-2.2
			c0-1.6,0.9-2.2,3.1-2.2c0.5,0,1.1,0.1,1.3,0.1v-0.4c0-0.8-0.3-1.3-1.3-1.3c-0.7,0-1.1,0.2-1.4,0.6c-0.2,0.3-0.3,0.3-0.6,0.2
			l-0.5-0.2c-0.3-0.1-0.4-0.3-0.2-0.6C38.9,60.9,39.9,60.4,41.3,60.4z M41.1,64.7c-1,0-1.3,0.3-1.3,0.9s0.2,0.9,1.3,0.9
			c0.7,0,1.1-0.1,1.3-0.1c0.1,0,0.1-0.1,0.1-0.2v-1.4C42.3,64.8,41.6,64.7,41.1,64.7z"/>
		<path class="st1" d="M51.5,61v6.8c0,1.8-0.8,2.9-3,2.9c-1.5,0-2.3-0.5-2.8-1.3c-0.2-0.3-0.1-0.5,0.2-0.7l0.5-0.3
			c0.3-0.2,0.5-0.1,0.7,0.2c0.3,0.4,0.7,0.7,1.4,0.7c0.9,0,1.4-0.5,1.4-1.5v-0.6c-0.4,0.1-0.9,0.2-1.6,0.2c-1.9,0-2.8-1-2.8-2.7V61
			c0-0.3,0.1-0.4,0.4-0.4h0.7c0.3,0,0.4,0.1,0.4,0.4v3.7c0,0.9,0.5,1.3,1.5,1.3c0.6,0,1-0.1,1.4-0.2V61c0-0.3,0.1-0.4,0.4-0.4h0.7
			C51.4,60.6,51.5,60.7,51.5,61z"/>
		<path class="st1" d="M55.6,60.4c1.6,0,2.5,0.6,2.9,1.4c0.2,0.3,0.1,0.5-0.2,0.6l-0.6,0.2c-0.3,0.1-0.4,0.1-0.6-0.2
			c-0.2-0.4-0.6-0.7-1.5-0.7c-0.9,0-1.3,0.2-1.3,0.7c0,0.6,0.5,0.7,1.6,0.8c1.6,0.2,2.7,0.5,2.7,2.2c0,1.3-1,2.2-2.9,2.2
			c-1.6,0-2.6-0.6-3-1.6c-0.1-0.3,0-0.5,0.3-0.6l0.6-0.2c0.3-0.1,0.4-0.1,0.6,0.3c0.2,0.5,0.7,0.7,1.5,0.7c1,0,1.4-0.3,1.4-0.8
			c0-0.6-0.5-0.8-1.6-0.9c-1.3-0.1-2.7-0.4-2.7-2.2C52.8,61.3,53.7,60.4,55.6,60.4z"/>
	</g>
</g>
<g id="Confetti">
</g>
<g id="Sparkler">
</g>
</svg>
