<?xml version="1.0" encoding="utf-8"?>
<!-- Generator: Adobe Illustrator 22.0.1, SVG Export Plug-In . SVG Version: 6.00 Build 0)  -->
<svg version="1.1" id="Layer_1" xmlns="http://www.w3.org/2000/svg" xmlns:xlink="http://www.w3.org/1999/xlink" x="0px" y="0px"
	 viewBox="0 0 89.9 90" style="enable-background:new 0 0 89.9 90;" xml:space="preserve">
<metadata><?xpacket begin="﻿" id="W5M0MpCehiHzreSzNTczkc9d"?>
<x:xmpmeta xmlns:x="adobe:ns:meta/" x:xmptk="Adobe XMP Core 5.6-c143 79.161210, 2017/08/11-10:28:36        ">
   <rdf:RDF xmlns:rdf="http://www.w3.org/1999/02/22-rdf-syntax-ns#">
      <rdf:Description rdf:about=""/>
   </rdf:RDF>
</x:xmpmeta>
                                                                                                    
                                                                                                    
                                                                                                    
                                                                                                    
                                                                                                    
                                                                                                    
                                                                                                    
                                                                                                    
                                                                                                    
                                                                                                    
                                                                                                    
                                                                                                    
                                                                                                    
                                                                                                    
                                                                                                    
                                                                                                    
                                                                                                    
                                                                                                    
                                                                                                    
                                                                                                    
                           
<?xpacket end="w"?></metadata>
<style type="text/css">
	.st0{fill:#4DBCC5;}
</style>
<g id="Confetti">
</g>
<g id="Sparkler">
</g>
<g>
	<g>
		<g>
			<g>
				<path class="st0" d="M44.9,87.9c-23.9,0-43.3-19.4-43.3-43.3S21.1,1.4,44.9,1.4s43.3,19.4,43.3,43.3S68.8,87.9,44.9,87.9z
					 M44.9,3.2C22.1,3.2,3.5,21.8,3.5,44.6s18.6,41.5,41.5,41.5s41.5-18.6,41.5-41.5S67.8,3.2,44.9,3.2z"/>
			</g>
		</g>
	</g>
	<g>
		<path class="st0" d="M33.5,35.8c6.9,0,10.2,3.1,10.2,9c0,5.5-4,9-10.6,9c-7,0-10.6-3.9-10.6-10.3v-8.6c0-6.4,3.7-10.3,10.6-10.3
			c5.4,0,8.6,2.2,10.1,6.2c0.4,0.9,0.1,1.3-0.8,1.7l-2.1,0.7c-0.9,0.4-1.3,0.2-1.7-0.8c-0.9-2.1-2.6-3.3-5.5-3.3
			c-3.7,0-5.7,1.9-5.7,5.6v1.7C28.5,36.3,30.5,35.8,33.5,35.8z M33.1,49.2c3.7,0,5.7-1.5,5.7-4.4c0-2.9-1.6-4.4-5.6-4.4
			c-3.3,0-5.1,0.6-5.7,0.9v2.2C27.5,47.2,29.4,49.2,33.1,49.2z"/>
		<path class="st0" d="M57.9,24.7c6.6,0,10.4,3.7,10.4,9.5v10.1c0,5.8-3.8,9.5-10.4,9.5s-10.4-3.7-10.4-9.5V34.2
			C47.5,28.4,51.3,24.7,57.9,24.7z M57.9,29.3c-3.5,0-5.5,1.8-5.5,4.9v10.1c0,3.1,2,4.9,5.5,4.9s5.5-1.8,5.5-4.9V34.2
			C63.3,31,61.3,29.3,57.9,29.3z"/>
	</g>
	<g>
		<path class="st0" d="M33.8,60.2c0.7,0,1.2,0.1,1.6,0.2v-2.5c0-0.3,0.1-0.4,0.4-0.4h0.7c0.3,0,0.4,0.1,0.4,0.4v8.6
			c0,0.4-0.1,0.6-0.5,0.7c-0.5,0.2-1.3,0.4-2.5,0.4c-2,0-2.9-1-2.9-2.7V63C31,61.2,31.9,60.2,33.8,60.2z M34.1,61.6
			c-1.1,0-1.5,0.5-1.5,1.4v1.8c0,0.9,0.5,1.3,1.5,1.3c0.5,0,0.9-0.1,1.2-0.1c0.1,0,0.1-0.1,0.1-0.1v-4.1
			C35.1,61.7,34.6,61.6,34.1,61.6z"/>
		<path class="st0" d="M41.1,60.2c2.2,0,2.9,1.2,2.9,2.8v3.5c0,0.5-0.1,0.6-0.5,0.8c-0.5,0.2-1.3,0.4-2.4,0.4c-2.4,0-3-0.8-3-2.2
			c0-1.6,0.9-2.2,3.1-2.2c0.5,0,1.1,0.1,1.3,0.1v-0.4c0-0.8-0.3-1.3-1.3-1.3c-0.7,0-1.1,0.2-1.4,0.6c-0.2,0.3-0.3,0.3-0.6,0.2
			l-0.5-0.2c-0.3-0.1-0.4-0.3-0.2-0.6C38.8,60.7,39.7,60.2,41.1,60.2z M41,64.5c-1,0-1.3,0.3-1.3,0.9s0.2,0.9,1.3,0.9
			c0.7,0,1.1-0.1,1.3-0.1c0.1,0,0.1-0.1,0.1-0.2v-1.4C42.2,64.6,41.5,64.5,41,64.5z"/>
		<path class="st0" d="M51.4,60.8v6.8c0,1.8-0.8,2.9-3,2.9c-1.5,0-2.3-0.5-2.8-1.3c-0.2-0.3-0.1-0.5,0.2-0.7l0.5-0.3
			c0.3-0.2,0.5-0.1,0.7,0.2c0.3,0.4,0.7,0.7,1.4,0.7c0.9,0,1.4-0.5,1.4-1.5V67c-0.4,0.1-0.9,0.2-1.6,0.2c-1.9,0-2.8-1-2.8-2.7v-3.7
			c0-0.3,0.1-0.4,0.4-0.4h0.7c0.3,0,0.4,0.1,0.4,0.4v3.7c0,0.9,0.5,1.3,1.5,1.3c0.6,0,1-0.1,1.4-0.2v-4.8c0-0.3,0.1-0.4,0.4-0.4H51
			C51.3,60.4,51.4,60.5,51.4,60.8z"/>
		<path class="st0" d="M55.5,60.2c1.6,0,2.5,0.6,2.9,1.4c0.2,0.3,0.1,0.5-0.2,0.6l-0.6,0.2c-0.3,0.1-0.4,0.1-0.6-0.2
			c-0.2-0.4-0.6-0.7-1.5-0.7c-0.9,0-1.3,0.2-1.3,0.7c0,0.6,0.5,0.7,1.6,0.8c1.6,0.2,2.8,0.5,2.8,2.2c0,1.3-1,2.2-2.9,2.2
			c-1.6,0-2.6-0.6-3-1.6c-0.1-0.3,0-0.5,0.3-0.6l0.6-0.2c0.3-0.1,0.4-0.1,0.6,0.3c0.2,0.5,0.7,0.7,1.5,0.7c1,0,1.4-0.3,1.4-0.8
			c0-0.6-0.5-0.8-1.6-0.9c-1.3-0.1-2.7-0.4-2.7-2.2C52.7,61.1,53.6,60.2,55.5,60.2z"/>
	</g>
</g>
</svg>
