<?xml version="1.0" encoding="utf-8"?>
<!-- Generator: Adobe Illustrator 22.0.1, SVG Export Plug-In . SVG Version: 6.00 Build 0)  -->
<svg version="1.1" id="Layer_1" xmlns="http://www.w3.org/2000/svg" xmlns:xlink="http://www.w3.org/1999/xlink" x="0px" y="0px"
	 viewBox="0 0 89.9 90" style="enable-background:new 0 0 89.9 90;" xml:space="preserve">
<metadata><?xpacket begin="﻿" id="W5M0MpCehiHzreSzNTczkc9d"?>
<x:xmpmeta xmlns:x="adobe:ns:meta/" x:xmptk="Adobe XMP Core 5.6-c143 79.161210, 2017/08/11-10:28:36        ">
   <rdf:RDF xmlns:rdf="http://www.w3.org/1999/02/22-rdf-syntax-ns#">
      <rdf:Description rdf:about=""/>
   </rdf:RDF>
</x:xmpmeta>
                                                                                                    
                                                                                                    
                                                                                                    
                                                                                                    
                                                                                                    
                                                                                                    
                                                                                                    
                                                                                                    
                                                                                                    
                                                                                                    
                                                                                                    
                                                                                                    
                                                                                                    
                                                                                                    
                                                                                                    
                                                                                                    
                                                                                                    
                                                                                                    
                                                                                                    
                                                                                                    
                           
<?xpacket end="w"?></metadata>
<style type="text/css">
	.st0{fill:#4DBDC6;}
	.st1{fill:#FFFFFF;}
</style>
<g>
	<g>
		<path class="st0" d="M45,88.2c-23.9,0-43.3-19.4-43.3-43.3S21.1,1.6,45,1.6S88.3,21,88.3,44.9S68.8,88.2,45,88.2z"/>
	</g>
</g>
<g id="Confetti">
</g>
<g id="Sparkler">
</g>
<g>
	<g>
		<path class="st1" d="M35.8,57.3l-1.6,5.4C34.1,63,34,63,33.7,63h-0.4c-0.3,0-0.4-0.1-0.5-0.3l-0.9-3c-0.2-0.6-0.2-1.2-0.2-1.2
			h-0.1c0,0-0.1,0.7-0.2,1.2l-0.9,3C30.4,63,30.3,63,30,63h-0.4c-0.3,0-0.4-0.1-0.5-0.3l-1.6-5.4c-0.1-0.3-0.1-0.4,0.3-0.4h0.5
			c0.4,0,0.6,0.1,0.7,0.4l0.7,2.7c0.1,0.5,0.2,1.4,0.2,1.5H30c0-0.1,0.1-0.9,0.2-1.5l0.8-2.6c0.1-0.3,0.2-0.4,0.6-0.4h0.3
			c0.4,0,0.5,0.1,0.6,0.4l0.8,2.6c0.2,0.6,0.2,1.4,0.2,1.5h0.1c0-0.1,0-0.8,0.2-1.5l0.7-2.7c0.1-0.3,0.2-0.4,0.7-0.4h0.4
			C35.8,56.8,35.9,56.9,35.8,57.3z"/>
	</g>
	<g>
		<path class="st1" d="M39.7,56.7c1.9,0,2.7,1.1,2.7,2.5v0.7c0,0.3-0.1,0.5-0.5,0.5h-3.6v0.4c0,0.8,0.5,1.2,1.4,1.2
			c0.7,0,1.2-0.2,1.4-0.6c0.2-0.3,0.3-0.3,0.6-0.1l0.4,0.2c0.3,0.1,0.3,0.3,0.1,0.6c-0.4,0.7-1.2,1.1-2.6,1.1
			c-1.9,0-2.7-1.1-2.7-2.5v-1.4C36.9,57.6,37.9,56.7,39.7,56.7z M39.7,57.8c-0.9,0-1.4,0.4-1.4,1.2v0.3H41V59
			C41,58.3,40.6,57.8,39.7,57.8z"/>
	</g>
	<g>
		<path class="st1" d="M46.5,56.7c1.9,0,2.7,1.1,2.7,2.5v0.7c0,0.3-0.1,0.5-0.5,0.5h-3.6v0.4c0,0.8,0.5,1.2,1.4,1.2
			c0.7,0,1.2-0.2,1.4-0.6c0.2-0.3,0.3-0.3,0.6-0.1l0.4,0.2c0.3,0.1,0.3,0.3,0.1,0.6c-0.4,0.7-1.2,1.1-2.6,1.1
			c-1.9,0-2.7-1.1-2.7-2.5v-1.4C43.8,57.6,44.7,56.7,46.5,56.7z M46.5,57.8c-0.9,0-1.4,0.4-1.4,1.2v0.3h2.7V59
			C47.9,58.3,47.4,57.8,46.5,57.8z"/>
	</g>
	<g>
		<path class="st1" d="M55.8,63h-0.6c-0.4,0-0.5,0-0.6-0.3l-0.7-1.6c-0.2-0.4-0.5-0.6-1-0.6h-0.7v2.1c0,0.3-0.1,0.4-0.4,0.4h-0.6
			c-0.3,0-0.4-0.1-0.4-0.4v-8c0-0.3,0.1-0.4,0.4-0.4h0.6c0.3,0,0.4,0.1,0.4,0.4v4.6h0.5h0.1l1.6-2.1c0.2-0.3,0.3-0.3,0.7-0.3h0.6
			c0.4,0,0.5,0.2,0.2,0.4l-1.8,2.2c0.4,0.2,0.6,0.5,0.9,1l1,2.1C56.2,62.9,56.2,63,55.8,63z"/>
	</g>
	<g>
		<path class="st1" d="M59.7,56.7c1.4,0,2.2,0.5,2.5,1.3c0.1,0.3,0.1,0.4-0.2,0.5l-0.5,0.2c-0.3,0.1-0.3,0.1-0.5-0.2
			c-0.2-0.4-0.5-0.6-1.3-0.6s-1.1,0.2-1.1,0.6c0,0.6,0.5,0.7,1.4,0.7c1.4,0.1,2.4,0.5,2.4,1.9c0,1.2-0.9,2-2.6,2
			c-1.4,0-2.3-0.5-2.7-1.4c-0.1-0.2,0-0.4,0.2-0.5l0.5-0.2c0.2-0.1,0.4,0,0.5,0.2c0.2,0.5,0.6,0.7,1.3,0.7c0.8,0,1.3-0.2,1.3-0.7
			c0-0.6-0.5-0.7-1.4-0.8c-1.2-0.1-2.4-0.4-2.4-1.9C57.2,57.5,58,56.7,59.7,56.7z"/>
	</g>
	<g>
		<path class="st1" d="M34.4,69.2c0.6,0,1.1,0.1,1.4,0.2v-2.2c0-0.3,0.1-0.4,0.4-0.4h0.7c0.3,0,0.4,0.1,0.4,0.4v7.6
			c0,0.4-0.1,0.5-0.5,0.7c-0.5,0.2-1.1,0.4-2.2,0.4c-1.8,0-2.6-0.9-2.6-2.4v-1.6C31.9,70.1,32.7,69.2,34.4,69.2z M34.6,70.5
			c-0.9,0-1.4,0.4-1.4,1.3v1.5c0,0.8,0.5,1.2,1.3,1.2c0.4,0,0.8,0,1.1-0.1c0.1,0,0.1-0.1,0.1-0.1v-3.6
			C35.5,70.6,35.1,70.5,34.6,70.5z"/>
	</g>
	<g>
		<path class="st1" d="M41.5,69.2c1.8,0,2.7,0.9,2.7,2.4v1.8c0,1.5-1,2.4-2.7,2.4c-1.8,0-2.7-0.9-2.7-2.4v-1.8
			C38.8,70.1,39.8,69.2,41.5,69.2z M41.5,70.4c-0.9,0-1.4,0.4-1.4,1.1v1.8c0,0.7,0.5,1.1,1.4,1.1s1.4-0.4,1.4-1.1v-1.8
			C42.9,70.9,42.4,70.4,41.5,70.4z"/>
	</g>
	<g>
		<path class="st1" d="M48.7,69.2c1.7,0,2.5,0.9,2.5,2.4v3.6c0,0.3-0.1,0.4-0.4,0.4h-0.7c-0.3,0-0.4-0.1-0.4-0.4v-3.5
			c0-0.8-0.4-1.2-1.3-1.2c-0.5,0-0.8,0.1-1.1,0.2c-0.1,0-0.1,0.1-0.1,0.1v4.4c0,0.3-0.1,0.4-0.4,0.4h-0.7c-0.3,0-0.4-0.1-0.4-0.4
			v-4.9c0-0.4,0.1-0.5,0.5-0.7C46.9,69.4,47.6,69.2,48.7,69.2z"/>
	</g>
	<g>
		<path class="st1" d="M55.5,69.2c1.9,0,2.7,1.1,2.7,2.5v0.7c0,0.3-0.1,0.5-0.5,0.5h-3.6v0.4c0,0.8,0.5,1.2,1.4,1.2
			c0.7,0,1.2-0.2,1.4-0.6c0.2-0.3,0.3-0.3,0.6-0.1l0.4,0.2c0.3,0.1,0.3,0.3,0.1,0.6c-0.4,0.7-1.2,1.1-2.6,1.1
			c-1.9,0-2.7-1.1-2.7-2.5v-1.4C52.8,70.1,53.7,69.2,55.5,69.2z M55.5,70.4c-0.9,0-1.4,0.4-1.4,1.2v0.3h2.7v-0.3
			C56.9,70.8,56.4,70.4,55.5,70.4z"/>
	</g>
</g>
<g>
	<path class="st1" d="M62.8,43.4c-0.1,0-0.3-0.1-0.4-0.2L55.8,37c-0.2-0.2-0.2-0.6,0-0.8l2.4-2.6c0.2-0.2,0.5-0.2,0.8,0l3.5,3
		l7.3-8.7c0.1-0.1,0.3-0.2,0.4-0.2h4.4c0.2,0,0.4,0.1,0.5,0.3s0.1,0.4-0.1,0.6L63.2,43.1C63.1,43.3,63,43.4,62.8,43.4L62.8,43.4z
		 M57,36.6l5.7,5.4l10.7-13.1h-3l-7.5,8.9c-0.1,0.1-0.2,0.2-0.4,0.2c-0.1,0-0.3,0-0.4-0.1l-3.5-3L57,36.6z"/>
</g>
<g>
	<g>
		<path class="st1" d="M40,15.8c7.5,0,11.5,3.1,11.5,8.8c0,4.2-2.8,6.4-4.7,7.5c3.2,1.4,5.7,3.6,5.7,8.2c0,5.7-3.6,9.6-12.6,9.6
			S27.4,46.4,27.4,41c0-4.7,3.5-7,5.6-8.1c-2.6-1.5-4.6-3.8-4.6-7.9C28.5,19.2,32.9,15.8,40,15.8z M38,34.9
			c-1.5,0.5-4.7,1.8-4.7,5.5c0,2.8,1.8,4.5,6.7,4.5c4.8,0,6.5-1.7,6.5-4.5C46.5,36.4,42.5,36,38,34.9z M40,20.9
			c-3.6,0-5.7,1.4-5.7,4.3c0,3,2.4,4,5.5,4.8l1.8,0.5c1.5-0.6,4.2-1.9,4.2-5.3C45.9,22.3,43.7,20.9,40,20.9z"/>
	</g>
</g>
<g id="Layer_4">
</g>
</svg>
