<?xml version="1.0" encoding="utf-8"?>
<!-- Generator: Adobe Illustrator 22.0.1, SVG Export Plug-In . SVG Version: 6.00 Build 0)  -->
<svg version="1.1" id="Layer_1" xmlns="http://www.w3.org/2000/svg" xmlns:xlink="http://www.w3.org/1999/xlink" x="0px" y="0px"
	 viewBox="0 0 90.9 92" style="enable-background:new 0 0 90.9 92;" xml:space="preserve">
<metadata><?xpacket begin="﻿" id="W5M0MpCehiHzreSzNTczkc9d"?>
<x:xmpmeta xmlns:x="adobe:ns:meta/" x:xmptk="Adobe XMP Core 5.6-c143 79.161210, 2017/08/11-10:28:36        ">
   <rdf:RDF xmlns:rdf="http://www.w3.org/1999/02/22-rdf-syntax-ns#">
      <rdf:Description rdf:about=""/>
   </rdf:RDF>
</x:xmpmeta>
                                                                                                    
                                                                                                    
                                                                                                    
                                                                                                    
                                                                                                    
                                                                                                    
                                                                                                    
                                                                                                    
                                                                                                    
                                                                                                    
                                                                                                    
                                                                                                    
                                                                                                    
                                                                                                    
                                                                                                    
                                                                                                    
                                                                                                    
                                                                                                    
                                                                                                    
                                                                                                    
                           
<?xpacket end="w"?></metadata>
<style type="text/css">
	.st0{fill:#4DBDC6;}
</style>
<g>
	<g>
		<path class="st0" d="M36.4,58.5l-1.6,5.4c-0.1,0.3-0.2,0.3-0.5,0.3h-0.4c-0.3,0-0.4-0.1-0.5-0.3l-0.9-3c-0.2-0.6-0.2-1.2-0.2-1.2
			h-0.1c0,0-0.1,0.7-0.2,1.2l-0.9,3c-0.1,0.3-0.2,0.3-0.5,0.3h-0.4c-0.3,0-0.4-0.1-0.5-0.3l-1.6-5.4c-0.1-0.3-0.1-0.4,0.3-0.4h0.5
			c0.4,0,0.6,0.1,0.7,0.4l0.7,2.7c0.1,0.5,0.2,1.4,0.2,1.5h0.1c0-0.1,0.1-0.9,0.2-1.5l0.8-2.6c0.1-0.3,0.2-0.4,0.6-0.4h0.3
			c0.4,0,0.5,0.1,0.6,0.4l0.8,2.6c0.2,0.6,0.2,1.4,0.2,1.5h0.1c0-0.1,0-0.8,0.2-1.5l0.7-2.7c0.1-0.3,0.2-0.4,0.7-0.4h0.4
			C36.4,58.1,36.5,58.2,36.4,58.5z"/>
	</g>
	<g>
		<path class="st0" d="M40.2,57.9c1.9,0,2.7,1.1,2.7,2.5v0.7c0,0.3-0.1,0.5-0.5,0.5h-3.6V62c0,0.8,0.5,1.2,1.4,1.2
			c0.7,0,1.2-0.2,1.4-0.6c0.2-0.3,0.3-0.3,0.6-0.1l0.4,0.2c0.3,0.1,0.3,0.3,0.1,0.6c-0.4,0.7-1.2,1.1-2.6,1.1
			c-1.9,0-2.7-1.1-2.7-2.5v-1.4C37.5,58.9,38.4,57.9,40.2,57.9z M40.2,59.1c-0.9,0-1.4,0.4-1.4,1.2v0.3h2.7v-0.3
			C41.6,59.5,41.1,59.1,40.2,59.1z"/>
	</g>
	<g>
		<path class="st0" d="M47.1,57.9c1.9,0,2.7,1.1,2.7,2.5v0.7c0,0.3-0.1,0.5-0.5,0.5h-3.6V62c0,0.8,0.5,1.2,1.4,1.2
			c0.7,0,1.2-0.2,1.4-0.6c0.2-0.3,0.3-0.3,0.6-0.1l0.4,0.2c0.3,0.1,0.3,0.3,0.1,0.6c-0.4,0.7-1.2,1.1-2.6,1.1
			c-1.9,0-2.7-1.1-2.7-2.5v-1.4C44.3,58.9,45.3,57.9,47.1,57.9z M47.1,59.1c-0.9,0-1.4,0.4-1.4,1.2v0.3h2.7v-0.3
			C48.5,59.5,48,59.1,47.1,59.1z"/>
	</g>
	<g>
		<path class="st0" d="M56.4,64.3h-0.6c-0.4,0-0.5,0-0.6-0.3l-0.7-1.6c-0.2-0.4-0.5-0.6-1-0.6h-0.7v2.1c0,0.3-0.1,0.4-0.4,0.4h-0.6
			c-0.3,0-0.4-0.1-0.4-0.4v-8c0-0.3,0.1-0.4,0.4-0.4h0.6c0.3,0,0.4,0.1,0.4,0.4v4.6h0.5h0.1l1.6-2.1c0.2-0.3,0.3-0.3,0.7-0.3h0.6
			c0.4,0,0.5,0.2,0.2,0.4l-1.8,2.2c0.4,0.2,0.6,0.5,0.9,1l1,2.1C56.8,64.2,56.8,64.3,56.4,64.3z"/>
	</g>
	<g>
		<path class="st0" d="M60.3,57.9c1.4,0,2.2,0.5,2.5,1.3c0.1,0.3,0.1,0.4-0.2,0.5l-0.5,0.2c-0.3,0.1-0.3,0.1-0.5-0.2
			c-0.2-0.4-0.5-0.6-1.3-0.6s-1.1,0.2-1.1,0.6c0,0.6,0.5,0.7,1.4,0.7c1.4,0.1,2.4,0.5,2.4,1.9c0,1.2-0.9,2-2.6,2
			c-1.4,0-2.3-0.5-2.7-1.4c-0.1-0.2,0-0.4,0.2-0.5l0.5-0.2c0.2-0.1,0.4,0,0.5,0.2c0.2,0.5,0.6,0.7,1.3,0.7c0.8,0,1.3-0.2,1.3-0.7
			c0-0.6-0.5-0.7-1.4-0.8c-1.2-0.1-2.4-0.4-2.4-1.9C57.8,58.7,58.6,57.9,60.3,57.9z"/>
	</g>
	<g>
		<path class="st0" d="M35,70.5c0.6,0,1.1,0.1,1.4,0.2v-2.2c0-0.3,0.1-0.4,0.4-0.4h0.7c0.3,0,0.4,0.1,0.4,0.4V76
			c0,0.4-0.1,0.5-0.5,0.7c-0.5,0.2-1.1,0.4-2.2,0.4c-1.8,0-2.6-0.9-2.6-2.4V73C32.5,71.4,33.3,70.5,35,70.5z M35.2,71.7
			c-0.9,0-1.4,0.4-1.4,1.3v1.5c0,0.8,0.5,1.2,1.3,1.2c0.4,0,0.8,0,1.1-0.1c0.1,0,0.1-0.1,0.1-0.1v-3.6
			C36.1,71.8,35.7,71.7,35.2,71.7z"/>
	</g>
	<g>
		<path class="st0" d="M42.1,70.5c1.8,0,2.7,0.9,2.7,2.4v1.8c0,1.5-1,2.4-2.7,2.4c-1.8,0-2.7-0.9-2.7-2.4v-1.8
			C39.4,71.4,40.4,70.5,42.1,70.5z M42.1,71.7c-0.9,0-1.4,0.4-1.4,1.1v1.8c0,0.7,0.5,1.1,1.4,1.1s1.4-0.4,1.4-1.1v-1.8
			C43.5,72.1,43,71.7,42.1,71.7z"/>
	</g>
	<g>
		<path class="st0" d="M49.3,70.5c1.7,0,2.5,0.9,2.5,2.4v3.6c0,0.3-0.1,0.4-0.4,0.4h-0.7c-0.3,0-0.4-0.1-0.4-0.4V73
			c0-0.8-0.4-1.2-1.3-1.2c-0.5,0-0.8,0.1-1.1,0.2c-0.1,0-0.1,0.1-0.1,0.1v4.4c0,0.3-0.1,0.4-0.4,0.4h-0.7c-0.3,0-0.4-0.1-0.4-0.4
			v-4.9c0-0.4,0.1-0.5,0.5-0.7C47.4,70.7,48.2,70.5,49.3,70.5z"/>
	</g>
	<g>
		<path class="st0" d="M56.1,70.5c1.9,0,2.7,1.1,2.7,2.5v0.7c0,0.3-0.1,0.5-0.5,0.5h-3.6v0.4c0,0.8,0.5,1.2,1.4,1.2
			c0.7,0,1.2-0.2,1.4-0.6c0.2-0.3,0.3-0.3,0.6-0.1l0.4,0.2c0.3,0.1,0.3,0.3,0.1,0.6C58.2,76.6,57.4,77,56,77c-1.9,0-2.7-1.1-2.7-2.5
			V73C53.4,71.4,54.3,70.5,56.1,70.5z M56.1,71.6c-0.9,0-1.4,0.4-1.4,1.2v0.3h2.7v-0.3C57.5,72.1,57,71.6,56.1,71.6z"/>
	</g>
</g>
<g>
	<path class="st0" d="M62.3,43.8c-0.1,0-0.3-0.1-0.4-0.2l-6.7-6.3c-0.2-0.2-0.2-0.6,0-0.8l2.4-2.6c0.2-0.2,0.5-0.2,0.8,0L62,37
		l7.4-8.9c0.1-0.1,0.3-0.2,0.4-0.2h4.5c0.2,0,0.4,0.1,0.5,0.3s0.1,0.4-0.1,0.6l-12,14.8C62.7,43.7,62.5,43.8,62.3,43.8L62.3,43.8z
		 M56.4,36.9l5.9,5.6L73.2,29h-3.1l-7.6,9.1c-0.1,0.1-0.2,0.2-0.4,0.2c-0.1,0-0.3,0-0.4-0.1l-3.6-3.1L56.4,36.9z"/>
</g>
<g>
	<g>
		<path class="st0" d="M40.6,17.1c7.5,0,11.5,3.1,11.5,8.8c0,4.2-2.8,6.4-4.7,7.5c3.2,1.4,5.7,3.6,5.7,8.2c0,5.7-3.6,9.6-12.6,9.6
			S28,47.7,28,42.3c0-4.7,3.5-7,5.6-8.1C31,32.7,29,30.4,29,26.3C29.1,20.5,33.5,17.1,40.6,17.1z M38.6,36.2
			c-1.5,0.5-4.7,1.8-4.7,5.5c0,2.8,1.8,4.5,6.7,4.5c4.8,0,6.5-1.7,6.5-4.5C47.1,37.7,43.1,37.3,38.6,36.2z M40.6,22.1
			c-3.6,0-5.7,1.4-5.7,4.3c0,3,2.4,4,5.5,4.8l1.8,0.5c1.5-0.6,4.2-1.9,4.2-5.3C46.5,23.6,44.2,22.1,40.6,22.1z"/>
	</g>
</g>
<g id="Confetti">
</g>
<g id="Sparkler">
</g>
<g>
	<g>
		<path class="st0" d="M45.5,89.3C21.6,89.3,2.2,69.9,2.2,46S21.6,2.7,45.5,2.7c23.9,0,43.3,19.4,43.3,43.3S69.4,89.3,45.5,89.3z
			 M45.5,4.6C22.6,4.6,4,23.2,4,46.1s18.6,41.5,41.5,41.5S87,69,87,46.1S68.4,4.6,45.5,4.6z"/>
	</g>
</g>
<g id="Layer_4">
</g>
</svg>
