<?xml version="1.0" encoding="utf-8"?>
<!-- Generator: Adobe Illustrator 22.0.1, SVG Export Plug-In . SVG Version: 6.00 Build 0)  -->
<svg version="1.1" id="Layer_1" xmlns="http://www.w3.org/2000/svg" xmlns:xlink="http://www.w3.org/1999/xlink" x="0px" y="0px"
	 viewBox="0 0 89.7 90.7" style="enable-background:new 0 0 89.7 90.7;" xml:space="preserve">
<metadata><?xpacket begin="﻿" id="W5M0MpCehiHzreSzNTczkc9d"?>
<x:xmpmeta xmlns:x="adobe:ns:meta/" x:xmptk="Adobe XMP Core 5.6-c143 79.161210, 2017/08/11-10:28:36        ">
   <rdf:RDF xmlns:rdf="http://www.w3.org/1999/02/22-rdf-syntax-ns#">
      <rdf:Description rdf:about=""/>
   </rdf:RDF>
</x:xmpmeta>
                                                                                                    
                                                                                                    
                                                                                                    
                                                                                                    
                                                                                                    
                                                                                                    
                                                                                                    
                                                                                                    
                                                                                                    
                                                                                                    
                                                                                                    
                                                                                                    
                                                                                                    
                                                                                                    
                                                                                                    
                                                                                                    
                                                                                                    
                                                                                                    
                                                                                                    
                                                                                                    
                           
<?xpacket end="w"?></metadata>
<style type="text/css">
	.st0{fill:#4DBDC6;}
</style>
<g id="Confetti">
</g>
<g id="Sparkler">
</g>
<g>
	<g>
		<path class="st0" d="M44.9,89C21,89,1.6,69.6,1.6,45.7S21,2.4,44.9,2.4s43.3,19.4,43.3,43.3S68.8,89,44.9,89z M44.9,4.3
			C22,4.3,3.4,22.9,3.4,45.8S22,87.3,44.9,87.3s41.5-18.6,41.5-41.5S67.8,4.3,44.9,4.3z"/>
	</g>
</g>
<g>
	<g>
		<g>
			<path class="st0" d="M42.1,59.2c-8-2.1-13-8.3-14.6-17.9c-1.2-7.2-0.1-13.7,0-13.9c0.1-0.4,0.4-0.6,0.7-0.6h24.2
				c0.4,0,0.8,0.3,0.8,0.8s-0.3,0.8-0.8,0.8H28.9c-0.2,1.8-0.8,7.2,0.1,12.8c1.5,9.1,6.1,14.7,13.5,16.7c2.9,0.6,5.7,0.2,5.7,0.2
				s0,0,0.1,0c0,0,3.7-0.3,7.2-4.1c5.8-6.5,6.5-17.9,6-26.3c0-0.4,0.3-0.8,0.7-0.8s0.8,0.3,0.8,0.7c0.8,12.7-1.4,22-6.5,27.5
				c-3.7,4-7.6,4.5-8.1,4.5C46.4,59.8,43.4,59.5,42.1,59.2z"/>
		</g>
	</g>
	<g>
		<g>
			<g>
				<path class="st0" d="M59.1,51c-0.4,0-0.7-0.3-0.7-0.6c-0.1-0.4,0.2-0.8,0.6-0.9c10.7-2.1,11.7-15.1,11.7-18.3h-8
					c-0.4,0-0.8-0.3-0.8-0.8s0.3-0.8,0.8-0.8h8.7c0.4,0,0.7,0.3,0.8,0.7C72.2,30.5,72.7,48.2,59.1,51C59.2,51,59.1,51,59.1,51z"/>
			</g>
		</g>
	</g>
	<g>
		<g>
			<g>
				<path class="st0" d="M31.2,51.4L31.2,51.4c-13.9-2.6-12.5-20.8-12.5-21c0-0.4,0.4-0.7,0.8-0.7h8.4c0.4,0,0.8,0.3,0.8,0.8
					s-0.3,0.8-0.8,0.8h-7.8C20,34.5,20.3,47.9,31.3,50c0.4,0.1,0.7,0.5,0.6,0.9C31.8,51.1,31.5,51.4,31.2,51.4z"/>
			</g>
		</g>
	</g>
	<g>
		<g>
			<path class="st0" d="M51,65.3c-0.4,0-0.8-0.3-0.8-0.8v-6.1c0-0.4,0.3-0.8,0.8-0.8s0.8,0.3,0.8,0.8v6.1C51.8,65,51.4,65.3,51,65.3
				z"/>
		</g>
	</g>
	<g>
		<g>
			<path class="st0" d="M40.6,65.5c-0.4,0-0.8-0.3-0.8-0.8v-6.5c0-0.4,0.3-0.8,0.8-0.8s0.8,0.3,0.8,0.8v6.5
				C41.3,65.2,41,65.5,40.6,65.5z"/>
		</g>
	</g>
	<g>
		<g>
			<path class="st0" d="M58.6,74H31.4c-0.4,0-0.8-0.3-0.8-0.7c0-3.1,2-4.6,4-4.7h21.5c0.7-0.1,1.4,0.2,1.9,0.7c1,1,1.4,2.8,1.3,4
				C59.4,73.7,59,74,58.6,74z M32.2,72.5h25.6c-0.1-0.8-0.4-1.7-0.9-2.1c-0.2-0.2-0.5-0.3-0.8-0.3c0,0,0,0-0.1,0H34.5
				C33.6,70.1,32.5,70.7,32.2,72.5z"/>
		</g>
	</g>
	<g>
		<g>
			<path class="st0" d="M55.5,69.7C55.5,69.7,55.4,69.7,55.5,69.7c-0.5,0-0.8-0.4-0.8-0.8c0.1-0.8-0.2-1.9-0.8-2.4
				c-0.3-0.3-0.6-0.4-0.9-0.3c0,0,0,0-0.1,0H38.6c-1.6,0.1-2.5,1-2.5,2.8c0,0.4-0.3,0.8-0.8,0.8l0,0c-0.4,0-0.8-0.3-0.8-0.7
				c0-2.6,1.5-4.2,4-4.3h14.3c0.8-0.1,1.5,0.2,2.1,0.8c0.9,0.9,1.3,2.5,1.2,3.6C56.2,69.4,55.9,69.7,55.5,69.7z"/>
		</g>
	</g>
	<g>
		<g>
			<path class="st0" d="M64.4,24.4h-4.9c-0.4,0-0.8-0.3-0.8-0.8s0.3-0.8,0.8-0.8h4.9c0.4,0,0.8,0.3,0.8,0.8S64.8,24.4,64.4,24.4z"/>
		</g>
	</g>
	<g>
		<g>
			<path class="st0" d="M54.5,24.4h-4.9c-0.4,0-0.8-0.3-0.8-0.8s0.3-0.8,0.8-0.8h4.9c0.4,0,0.8,0.3,0.8,0.8S54.9,24.4,54.5,24.4z"/>
		</g>
	</g>
	<g>
		<g>
			<path class="st0" d="M64.4,24.4h-4.9c-0.4,0-0.8-0.3-0.8-0.8s0.3-0.8,0.8-0.8h4.9c0.4,0,0.8,0.3,0.8,0.8S64.8,24.4,64.4,24.4z"/>
		</g>
	</g>
	<g>
		<g>
			<path class="st0" d="M54.5,24.4h-4.9c-0.4,0-0.8-0.3-0.8-0.8s0.3-0.8,0.8-0.8h4.9c0.4,0,0.8,0.3,0.8,0.8S54.9,24.4,54.5,24.4z"/>
		</g>
	</g>
	<g>
		<g>
			<path class="st0" d="M57,31.8c-0.4,0-0.8-0.3-0.8-0.8v-4.9c0-0.4,0.3-0.8,0.8-0.8s0.8,0.3,0.8,0.8V31
				C57.8,31.4,57.4,31.8,57,31.8z"/>
		</g>
	</g>
	<g>
		<g>
			<path class="st0" d="M57,21.9c-0.4,0-0.8-0.3-0.8-0.8v-4.9c0-0.4,0.3-0.8,0.8-0.8s0.8,0.3,0.8,0.8v4.9
				C57.8,21.6,57.4,21.9,57,21.9z"/>
		</g>
	</g>
	<g>
		<g>
			<path class="st0" d="M57,31.8c-0.4,0-0.8-0.3-0.8-0.8v-4.9c0-0.4,0.3-0.8,0.8-0.8s0.8,0.3,0.8,0.8V31
				C57.8,31.4,57.4,31.8,57,31.8z"/>
		</g>
	</g>
	<g>
		<g>
			<path class="st0" d="M57,21.9c-0.4,0-0.8-0.3-0.8-0.8v-4.9c0-0.4,0.3-0.8,0.8-0.8s0.8,0.3,0.8,0.8v4.9
				C57.8,21.6,57.4,21.9,57,21.9z"/>
		</g>
	</g>
	<g>
		<g>
			<path class="st0" d="M34.3,48.4c-3.9-7.8-3.2-16.3-3.2-16.7s0.4-0.7,0.8-0.7h7.3c0.4,0,0.8,0.3,0.8,0.8s-0.3,0.8-0.8,0.8h-6.6
				c-0.1,2.2,0,9,3.1,15.2c0.2,0.4,0,0.8-0.3,1C34.7,49,34.5,48.6,34.3,48.4z"/>
		</g>
	</g>
	<g>
		<g>
			<path class="st0" d="M48,54.8c-0.2-0.4-0.1-0.8,0.3-1c6.8-3.8,7.8-12.7,7.8-12.8c0-0.4,0.4-0.7,0.8-0.7s0.7,0.4,0.7,0.8
				c0,0.4-1.2,9.7-8.6,13.9C48.6,55.2,48.2,55.1,48,54.8z"/>
		</g>
	</g>
</g>
</svg>
