<?xml version="1.0" encoding="utf-8"?>
<!-- Generator: Adobe Illustrator 22.0.1, SVG Export Plug-In . SVG Version: 6.00 Build 0)  -->
<svg version="1.1" id="Layer_1" xmlns="http://www.w3.org/2000/svg" xmlns:xlink="http://www.w3.org/1999/xlink" x="0px" y="0px"
	 viewBox="0 0 90.4 90.2" style="enable-background:new 0 0 90.4 90.2;" xml:space="preserve">
<metadata><?xpacket begin="﻿" id="W5M0MpCehiHzreSzNTczkc9d"?>
<x:xmpmeta xmlns:x="adobe:ns:meta/" x:xmptk="Adobe XMP Core 5.6-c143 79.161210, 2017/08/11-10:28:36        ">
   <rdf:RDF xmlns:rdf="http://www.w3.org/1999/02/22-rdf-syntax-ns#">
      <rdf:Description rdf:about=""/>
   </rdf:RDF>
</x:xmpmeta>
                                                                                                    
                                                                                                    
                                                                                                    
                                                                                                    
                                                                                                    
                                                                                                    
                                                                                                    
                                                                                                    
                                                                                                    
                                                                                                    
                                                                                                    
                                                                                                    
                                                                                                    
                                                                                                    
                                                                                                    
                                                                                                    
                                                                                                    
                                                                                                    
                                                                                                    
                                                                                                    
                           
<?xpacket end="w"?></metadata>
<style type="text/css">
	.st0{fill:#4DBDC6;}
	.st1{fill:#FFFFFF;}
</style>
<g>
	<g>
		<path class="st0" d="M45.1,88.2c-23.9,0-43.3-19.4-43.3-43.3S21.2,1.6,45.1,1.6S88.4,21,88.4,44.9S69,88.2,45.1,88.2z"/>
	</g>
</g>
<g>
	<g>
		<g>
			<path class="st1" d="M42.3,57.4c-8-2.1-13-8.3-14.6-17.9c-1.2-7.2-0.1-13.7,0-13.9c0.1-0.4,0.4-0.6,0.7-0.6h24.2
				c0.4,0,0.8,0.3,0.8,0.8s-0.3,0.8-0.8,0.8H29.1c-0.2,1.8-0.8,7.2,0.1,12.8c1.5,9.1,6.1,14.7,13.5,16.7c2.9,0.6,5.7,0.2,5.7,0.2
				s0,0,0.1,0c0,0,3.7-0.3,7.2-4.1c5.8-6.5,6.5-17.9,6-26.3c0-0.4,0.3-0.8,0.7-0.8s0.8,0.3,0.8,0.7c0.8,12.7-1.4,22-6.5,27.5
				c-3.7,4-7.6,4.5-8.1,4.5C46.6,58,43.6,57.7,42.3,57.4z"/>
		</g>
	</g>
	<g>
		<g>
			<g>
				<path class="st1" d="M59.3,49.2c-0.4,0-0.7-0.3-0.7-0.6c-0.1-0.4,0.2-0.8,0.6-0.9c10.7-2.1,11.7-15.1,11.7-18.3h-8
					c-0.4,0-0.8-0.3-0.8-0.8s0.3-0.8,0.8-0.8h8.7c0.4,0,0.7,0.3,0.8,0.7C72.4,28.7,72.9,46.4,59.3,49.2
					C59.5,49.2,59.3,49.2,59.3,49.2z"/>
			</g>
		</g>
	</g>
	<g>
		<g>
			<g>
				<path class="st1" d="M31.5,49.6L31.5,49.6C17.6,47,19,28.8,19,28.6c0-0.4,0.4-0.7,0.8-0.7h8.4c0.4,0,0.8,0.3,0.8,0.8
					s-0.3,0.8-0.8,0.8h-7.8c-0.1,3.2,0.2,16.6,11.2,18.7c0.4,0.1,0.7,0.5,0.6,0.9C32,49.3,31.8,49.6,31.5,49.6z"/>
			</g>
		</g>
	</g>
	<g>
		<g>
			<path class="st1" d="M51.2,63.5c-0.4,0-0.8-0.3-0.8-0.8v-6.1c0-0.4,0.3-0.8,0.8-0.8s0.8,0.3,0.8,0.8v6.1
				C52,63.2,51.7,63.5,51.2,63.5z"/>
		</g>
	</g>
	<g>
		<g>
			<path class="st1" d="M40.8,63.8c-0.4,0-0.8-0.3-0.8-0.8v-6.5c0-0.4,0.3-0.8,0.8-0.8s0.8,0.3,0.8,0.8V63
				C41.5,63.5,41.2,63.8,40.8,63.8z"/>
		</g>
	</g>
	<g>
		<g>
			<path class="st1" d="M58.8,72.2H31.6c-0.4,0-0.8-0.3-0.8-0.7c0-3.1,2-4.6,4-4.7h21.5c0.7-0.1,1.4,0.2,1.9,0.7c1,1,1.4,2.8,1.3,4
				C59.7,71.9,59.2,72.2,58.8,72.2z M32.5,70.7h25.6c-0.1-0.8-0.4-1.7-0.9-2.1c-0.2-0.2-0.5-0.3-0.8-0.3c0,0,0,0-0.1,0H34.8
				C33.8,68.3,32.8,68.9,32.5,70.7z"/>
		</g>
	</g>
	<g>
		<g>
			<path class="st1" d="M55.8,67.9C55.8,67.9,55.7,67.9,55.8,67.9c-0.5,0-0.8-0.4-0.8-0.8c0.1-0.8-0.2-1.9-0.8-2.4
				c-0.3-0.3-0.6-0.4-0.9-0.3c0,0,0,0-0.1,0H38.8c-1.6,0.1-2.5,1-2.5,2.8c0,0.4-0.3,0.8-0.8,0.8l0,0c-0.4,0-0.8-0.3-0.8-0.7
				c0-2.6,1.5-4.2,4-4.3H53c0.8-0.1,1.5,0.2,2.1,0.8c0.9,0.9,1.3,2.5,1.2,3.6C56.5,67.6,56.2,67.9,55.8,67.9z"/>
		</g>
	</g>
	<g>
		<g>
			<path class="st1" d="M64.7,22.6h-4.9c-0.4,0-0.8-0.3-0.8-0.8s0.3-0.8,0.8-0.8h4.9c0.4,0,0.8,0.3,0.8,0.8S65.1,22.6,64.7,22.6z"/>
		</g>
	</g>
	<g>
		<g>
			<path class="st1" d="M54.8,22.6h-4.9c-0.4,0-0.8-0.3-0.8-0.8s0.3-0.8,0.8-0.8h4.9c0.4,0,0.8,0.3,0.8,0.8S55.2,22.6,54.8,22.6z"/>
		</g>
	</g>
	<g>
		<g>
			<path class="st1" d="M64.7,22.6h-4.9c-0.4,0-0.8-0.3-0.8-0.8s0.3-0.8,0.8-0.8h4.9c0.4,0,0.8,0.3,0.8,0.8S65.1,22.6,64.7,22.6z"/>
		</g>
	</g>
	<g>
		<g>
			<path class="st1" d="M54.8,22.6h-4.9c-0.4,0-0.8-0.3-0.8-0.8s0.3-0.8,0.8-0.8h4.9c0.4,0,0.8,0.3,0.8,0.8S55.2,22.6,54.8,22.6z"/>
		</g>
	</g>
	<g>
		<g>
			<path class="st1" d="M57.2,30c-0.4,0-0.8-0.3-0.8-0.8v-4.9c0-0.4,0.3-0.8,0.8-0.8s0.8,0.3,0.8,0.8v4.9C58,29.6,57.7,30,57.2,30z"
				/>
		</g>
	</g>
	<g>
		<g>
			<path class="st1" d="M57.2,20.1c-0.4,0-0.8-0.3-0.8-0.8v-4.9c0-0.4,0.3-0.8,0.8-0.8s0.8,0.3,0.8,0.8v4.9
				C58,19.8,57.7,20.1,57.2,20.1z"/>
		</g>
	</g>
	<g>
		<g>
			<path class="st1" d="M57.2,30c-0.4,0-0.8-0.3-0.8-0.8v-4.9c0-0.4,0.3-0.8,0.8-0.8s0.8,0.3,0.8,0.8v4.9C58,29.6,57.7,30,57.2,30z"
				/>
		</g>
	</g>
	<g>
		<g>
			<path class="st1" d="M57.2,20.1c-0.4,0-0.8-0.3-0.8-0.8v-4.9c0-0.4,0.3-0.8,0.8-0.8s0.8,0.3,0.8,0.8v4.9
				C58,19.8,57.7,20.1,57.2,20.1z"/>
		</g>
	</g>
	<g>
		<g>
			<path class="st1" d="M34.5,46.6c-3.9-7.8-3.2-16.3-3.2-16.7s0.4-0.7,0.8-0.7h7.3c0.4,0,0.8,0.3,0.8,0.8s-0.3,0.8-0.8,0.8h-6.6
				c-0.1,2.2,0,9,3.1,15.2c0.2,0.4,0,0.8-0.3,1C35,47.3,34.8,46.8,34.5,46.6z"/>
		</g>
	</g>
	<g>
		<g>
			<path class="st1" d="M48.2,53c-0.2-0.4-0.1-0.8,0.3-1c6.8-3.8,7.8-12.7,7.8-12.8c0-0.4,0.4-0.7,0.8-0.7s0.7,0.4,0.7,0.8
				c0,0.4-1.2,9.7-8.6,13.9C48.8,53.5,48.5,53.3,48.2,53z"/>
		</g>
	</g>
</g>
<g id="Confetti">
</g>
<g id="Sparkler">
</g>
</svg>
