<?xml version="1.0" encoding="utf-8"?>
<!-- Generator: Adobe Illustrator 22.0.1, SVG Export Plug-In . SVG Version: 6.00 Build 0)  -->
<svg version="1.1" id="Layer_1" xmlns="http://www.w3.org/2000/svg" xmlns:xlink="http://www.w3.org/1999/xlink" x="0px" y="0px"
	 viewBox="0 0 89.9 90" style="enable-background:new 0 0 89.9 90;" xml:space="preserve">
<metadata><?xpacket begin="﻿" id="W5M0MpCehiHzreSzNTczkc9d"?>
<x:xmpmeta xmlns:x="adobe:ns:meta/" x:xmptk="Adobe XMP Core 5.6-c143 79.161210, 2017/08/11-10:28:36        ">
   <rdf:RDF xmlns:rdf="http://www.w3.org/1999/02/22-rdf-syntax-ns#">
      <rdf:Description rdf:about=""/>
   </rdf:RDF>
</x:xmpmeta>
                                                                                                    
                                                                                                    
                                                                                                    
                                                                                                    
                                                                                                    
                                                                                                    
                                                                                                    
                                                                                                    
                                                                                                    
                                                                                                    
                                                                                                    
                                                                                                    
                                                                                                    
                                                                                                    
                                                                                                    
                                                                                                    
                                                                                                    
                                                                                                    
                                                                                                    
                                                                                                    
                           
<?xpacket end="w"?></metadata>
<style type="text/css">
	.st0{fill:#4DBCC5;}
</style>
<g id="Confetti">
</g>
<g id="Sparkler">
</g>
<g id="Layer_4">
</g>
<g>
	<g>
		<g>
			<g>
				<path class="st0" d="M44.9,88C21,88,1.6,68.6,1.6,44.7S21,1.4,44.9,1.4s43.3,19.4,43.3,43.3S68.8,88,44.9,88z M44.9,3.3
					C22,3.3,3.4,21.9,3.4,44.7S22,86.2,44.9,86.2s41.5-18.6,41.5-41.5S67.8,3.3,44.9,3.3z"/>
			</g>
		</g>
	</g>
	<g>
		<path class="st0" d="M32.2,40.2v4c0,3.6-2.3,5.8-6.4,5.8h-5c-0.6,0-0.8-0.2-0.8-0.8V35.1c0-0.6,0.2-0.8,0.8-0.8h5
			C29.9,34.4,32.2,36.6,32.2,40.2z M25.8,37h-3v10.5h3c2.3,0,3.6-1.1,3.6-3.2v-4.1C29.4,38.1,28.1,37,25.8,37z"/>
		<path class="st0" d="M38.9,38.3c3.6,0,4.7,1.9,4.7,4.6v5.7c0,0.8-0.2,1-0.8,1.3c-0.8,0.4-2.2,0.6-4,0.6c-3.9,0-4.9-1.3-4.9-3.6
			c0-2.7,1.5-3.6,5-3.6c0.9,0,1.7,0.1,2.1,0.1v-0.6c0-1.4-0.6-2.2-2.2-2.2c-1.1,0-1.9,0.4-2.3,1.1c-0.3,0.5-0.4,0.5-1,0.3l-0.9-0.4
			c-0.5-0.2-0.6-0.5-0.4-1C35.1,39.2,36.6,38.3,38.9,38.3z M38.7,45.4c-1.7,0-2.1,0.5-2.1,1.4s0.4,1.5,2.1,1.5
			c1.1,0,1.8-0.1,2.2-0.2c0.2-0.1,0.2-0.1,0.2-0.3v-2.3C40.6,45.5,39.6,45.4,38.7,45.4z"/>
		<path class="st0" d="M55.7,39.3v11.2c0,2.9-1.4,4.8-4.9,4.8c-2.4,0-3.8-0.8-4.6-2.1C46,52.7,46,52.3,46.6,52l0.8-0.5
			c0.5-0.3,0.8-0.2,1.1,0.3c0.5,0.7,1.1,1.1,2.3,1.1c1.5,0,2.3-0.8,2.3-2.4v-1c-0.7,0.2-1.5,0.3-2.6,0.3c-3.2,0-4.6-1.7-4.6-4.4
			v-6.1c0-0.5,0.2-0.7,0.7-0.7h1.2c0.5,0,0.7,0.2,0.7,0.7v6c0,1.5,0.8,2.2,2.4,2.2c0.9,0,1.7-0.2,2.3-0.3v-7.9
			c0-0.5,0.2-0.7,0.7-0.7h1.2C55.6,38.6,55.7,38.8,55.7,39.3z"/>
		<path class="st0" d="M69.9,35.1v14.2c0,0.6-0.2,0.8-0.8,0.8h-1.3c-0.6,0-0.8-0.2-0.8-0.8V37.7L64,39.5c-0.6,0.3-0.9,0.2-1.1-0.3
			l-0.6-1c-0.3-0.5-0.1-0.7,0.4-1l4.3-2.5c0.4-0.2,0.6-0.3,1.1-0.3h1.1C69.7,34.4,69.9,34.6,69.9,35.1z"/>
	</g>
</g>
</svg>
