<?xml version="1.0" encoding="utf-8"?>
<!-- Generator: Adobe Illustrator 22.0.1, SVG Export Plug-In . SVG Version: 6.00 Build 0)  -->
<svg version="1.1" id="Layer_1" xmlns="http://www.w3.org/2000/svg" xmlns:xlink="http://www.w3.org/1999/xlink" x="0px" y="0px"
	 viewBox="0 0 89.9 90" style="enable-background:new 0 0 89.9 90;" xml:space="preserve">
<metadata><?xpacket begin="﻿" id="W5M0MpCehiHzreSzNTczkc9d"?>
<x:xmpmeta xmlns:x="adobe:ns:meta/" x:xmptk="Adobe XMP Core 5.6-c143 79.161210, 2017/08/11-10:28:36        ">
   <rdf:RDF xmlns:rdf="http://www.w3.org/1999/02/22-rdf-syntax-ns#">
      <rdf:Description rdf:about=""/>
   </rdf:RDF>
</x:xmpmeta>
                                                                                                    
                                                                                                    
                                                                                                    
                                                                                                    
                                                                                                    
                                                                                                    
                                                                                                    
                                                                                                    
                                                                                                    
                                                                                                    
                                                                                                    
                                                                                                    
                                                                                                    
                                                                                                    
                                                                                                    
                                                                                                    
                                                                                                    
                                                                                                    
                                                                                                    
                                                                                                    
                           
<?xpacket end="w"?></metadata>
<style type="text/css">
	.st0{fill:#4DBCC5;}
	.st1{fill:#FFFFFF;}
</style>
<g>
	<g>
		<path class="st0" d="M44.9,88C21,88,1.6,68.6,1.6,44.7S21,1.4,44.9,1.4s43.3,19.4,43.3,43.3S68.8,88,44.9,88z"/>
	</g>
</g>
<g>
	<path class="st1" d="M29.9,40.1v4c0,3.6-2.3,5.8-6.4,5.8h-5c-0.6,0-0.8-0.2-0.8-0.8V35c0-0.6,0.2-0.8,0.8-0.8h5
		C27.6,34.3,29.9,36.5,29.9,40.1z M23.6,36.9h-3v10.5h3c2.3,0,3.6-1.1,3.6-3.2v-4.1C27.2,38,25.9,36.9,23.6,36.9z"/>
	<path class="st1" d="M36.7,38.2c3.6,0,4.7,1.9,4.7,4.6v5.7c0,0.8-0.2,1-0.8,1.3c-0.8,0.4-2.2,0.6-4,0.6c-3.9,0-4.9-1.3-4.9-3.6
		c0-2.7,1.5-3.6,5-3.6c0.9,0,1.7,0.1,2.1,0.1v-0.6c0-1.4-0.6-2.2-2.2-2.2c-1.1,0-1.9,0.4-2.3,1.1c-0.3,0.5-0.4,0.5-1,0.3l-0.9-0.4
		c-0.5-0.2-0.6-0.5-0.4-1C32.8,39.1,34.4,38.2,36.7,38.2z M36.4,45.3c-1.7,0-2.1,0.5-2.1,1.4s0.4,1.5,2.1,1.5c1.1,0,1.8-0.1,2.2-0.2
		c0.2-0.1,0.2-0.1,0.2-0.3v-2.3C38.4,45.4,37.3,45.3,36.4,45.3z"/>
	<path class="st1" d="M53.5,39.2v11.2c0,2.9-1.4,4.8-4.9,4.8c-2.4,0-3.8-0.8-4.6-2.1c-0.3-0.5-0.2-0.8,0.3-1.1l0.8-0.5
		c0.5-0.3,0.8-0.2,1.1,0.3c0.5,0.7,1.1,1.1,2.3,1.1c1.5,0,2.3-0.8,2.3-2.4v-1c-0.7,0.2-1.5,0.3-2.6,0.3c-3.2,0-4.6-1.7-4.6-4.4v-6.1
		c0-0.5,0.2-0.7,0.7-0.7h1.2c0.5,0,0.7,0.2,0.7,0.7v6c0,1.5,0.8,2.2,2.4,2.2c0.9,0,1.7-0.2,2.3-0.3v-7.9c0-0.5,0.2-0.7,0.7-0.7h1.2
		C53.3,38.5,53.5,38.7,53.5,39.2z"/>
	<path class="st1" d="M67.6,35v14.2c0,0.6-0.2,0.8-0.8,0.8h-1.3c-0.6,0-0.8-0.2-0.8-0.8V37.7l-3.1,1.7c-0.6,0.3-0.9,0.2-1.1-0.3
		l-0.6-1c-0.3-0.5-0.1-0.7,0.4-1l4.3-2.5c0.4-0.2,0.6-0.3,1.1-0.3h1.1C67.5,34.3,67.6,34.5,67.6,35z"/>
</g>
<g id="Confetti">
</g>
<g id="Sparkler">
</g>
<g id="Layer_4">
</g>
</svg>
