<?xml version="1.0" encoding="utf-8"?>
<!-- Generator: Adobe Illustrator 22.0.1, SVG Export Plug-In . SVG Version: 6.00 Build 0)  -->
<svg version="1.1" id="Layer_1" xmlns="http://www.w3.org/2000/svg" xmlns:xlink="http://www.w3.org/1999/xlink" x="0px" y="0px"
	 viewBox="0 0 89.9 90" style="enable-background:new 0 0 89.9 90;" xml:space="preserve">
<metadata><?xpacket begin="﻿" id="W5M0MpCehiHzreSzNTczkc9d"?>
<x:xmpmeta xmlns:x="adobe:ns:meta/" x:xmptk="Adobe XMP Core 5.6-c143 79.161210, 2017/08/11-10:28:36        ">
   <rdf:RDF xmlns:rdf="http://www.w3.org/1999/02/22-rdf-syntax-ns#">
      <rdf:Description rdf:about=""/>
   </rdf:RDF>
</x:xmpmeta>
                                                                                                    
                                                                                                    
                                                                                                    
                                                                                                    
                                                                                                    
                                                                                                    
                                                                                                    
                                                                                                    
                                                                                                    
                                                                                                    
                                                                                                    
                                                                                                    
                                                                                                    
                                                                                                    
                                                                                                    
                                                                                                    
                                                                                                    
                                                                                                    
                                                                                                    
                                                                                                    
                           
<?xpacket end="w"?></metadata>
<style type="text/css">
	.st0{fill:#4DBCC5;}
	.st1{fill:#FFFFFF;}
</style>
<g>
	<g>
		<g>
			<path class="st0" d="M44.8,87.8C21,87.8,1.5,68.4,1.5,44.5S21,1.3,44.8,1.3s43.3,19.4,43.3,43.3S68.7,87.8,44.8,87.8z"/>
		</g>
	</g>
	<g>
		<path class="st1" d="M41.6,61.7L41.6,61.7c-0.9,0-1.5-0.3-2-0.9c-1-1.2-0.6-3.3-0.5-3.4c0,0,0.4-4.3,0.6-6.5
			c0.1-1.6-1.4-1.9-1.6-1.9c-0.3-0.1-5.5-1.4-7.1-2.2c-1.9-1-1.4-3.4-1.4-3.6c0,0,0,0,0,0c0,0,0.1-4.5,0.1-9c0-0.6,0-1.2,0-1.7
			c-0.1-3.4-0.1-4.9,1.3-6.3c1.6-1.6,4.6-0.6,4.7-0.6c0.8,0.2,1.7,1.5,3,3.6c0.6,0.9,1.2,1.9,1.7,2.5c1.6,2,2.3,2.2,2.3,2.2h0
			c0.1,0,4.9,0.3,6.7,0.4c0.9,0.1,1.5,0.3,1.8,0.8c0.5,0.6,0.5,1.5,0.4,2.7c-0.2,1.9-2.2,2.1-3.3,2c-0.2,0-5.5-0.3-7.2-0.5
			c-0.3,0-0.5-0.3-0.4-0.6c0-0.3,0.3-0.5,0.6-0.4c1.7,0.2,7.1,0.5,7.2,0.5c0.1,0,2.1,0.2,2.2-1.1c0.1-1.1,0.1-1.6-0.2-1.9
			c-0.2-0.2-0.6-0.4-1.1-0.4c-1.8-0.1-6.7-0.4-6.7-0.4c0,0,0,0,0,0c-0.5,0-1.6-0.9-2.9-2.5c-0.5-0.6-1.1-1.6-1.8-2.6
			c-0.8-1.3-1.9-3-2.4-3.2c0,0-2.6-0.8-3.8,0.4c-1.1,1-1.1,2.3-1,5.5c0,0.5,0,1.1,0,1.7c0.1,4.5-0.1,9-0.1,9.1
			c0,0.1-0.3,1.9,0.9,2.6c1.5,0.8,6.7,2.1,6.8,2.2c0.9,0.1,2.6,0.9,2.4,3c-0.2,2.2-0.6,6.5-0.6,6.5c-0.1,0.5-0.2,1.9,0.3,2.6
			c0.3,0.3,0.7,0.5,1.2,0.5c2,0,2.2-1.4,2.3-3.1c0-0.3,0-0.6,0.1-0.8c0.2-1.3,0.7-8.6,0.7-8.6c0-0.1,0.3-2-1.4-2.8
			c-3.2-1.4-5.8-2.2-5.9-2.2c-0.2-0.1-0.3-0.2-0.4-0.4l-0.5-6.9c0-0.3,0.2-0.5,0.5-0.5c0.3,0,0.5,0.2,0.5,0.5l0.5,6.6
			c0.8,0.3,3.1,1,5.7,2.2c1.9,0.9,2.2,2.9,2,3.8c0,0.3-0.5,7.4-0.7,8.7c0,0.2,0,0.4-0.1,0.7C44.8,59.1,44.6,61.7,41.6,61.7z"/>
	</g>
	<g>
		<path class="st1" d="M51.8,68.2c-0.1,0-0.3,0-0.4-0.1c-0.2-0.2-0.2-0.5,0-0.7l21.4-21.5c0.2-0.2,0.5-0.2,0.7,0
			c0.2,0.2,0.2,0.5,0,0.7L52.2,68.1C52.1,68.2,51.9,68.2,51.8,68.2z"/>
	</g>
	<g>
		<path class="st1" d="M44,73.4c-0.8,0-1.6-0.1-2.3-0.4c-1.2-0.5-1.9-1.3-1.9-2.4v-4.4c0-1,0.8-1.8,1.8-1.8h5.7
			c0.5,0,0.8-0.4,0.8-0.8v-4.9c0-1,0.8-1.8,1.8-1.8h4.6c0.5,0,0.8-0.4,0.8-0.8v-4.4c0-1,0.8-1.8,1.8-1.8h4.2c0.5,0,0.8-0.4,0.8-0.8
			v-4.6c0-1,0.8-1.8,1.8-1.8h11c0.3,0,0.5,0.2,0.5,0.5s-0.2,0.5-0.5,0.5h-11c-0.5,0-0.8,0.4-0.8,0.8v4.6c0,1-0.8,1.8-1.8,1.8h-4.2
			c-0.5,0-0.8,0.4-0.8,0.8V56c0,1-0.8,1.8-1.8,1.8H50c-0.5,0-0.8,0.4-0.8,0.8v4.9c0,1-0.8,1.8-1.8,1.8h-5.7c-0.5,0-0.8,0.4-0.8,0.8
			v4.4c0,0.8,0.7,1.2,1.3,1.4c1.6,0.6,4.1,0.4,5.3-0.8c0.2-0.2,0.5-0.2,0.7,0c0.2,0.2,0.2,0.5,0,0.7C47.1,73,45.5,73.4,44,73.4z"/>
	</g>
	<g>
		<path class="st1" d="M23,47.2c-0.1,0-0.3,0-0.5,0c-0.8-0.1-1.5-0.4-1.9-0.9c-0.8-1-0.6-2.5-0.6-2.6l0,0c0,0,0.2-3.9,0.3-6.2
			C20.4,35,22,34,22,34l4.1-3.4c0.2-0.2,0.5-0.2,0.7,0.1c0.2,0.2,0.2,0.5-0.1,0.7l-4.1,3.5c-0.1,0.1-1.3,0.8-1.3,2.8
			c-0.1,2.2-0.3,6.2-0.3,6.2c0,0.1-0.2,1.2,0.4,1.9c0.3,0.3,0.7,0.5,1.2,0.6c0.7,0.1,1.1,0,1.4-0.3c0.4-0.3,0.4-1,0.5-1.7l0-0.4
			c0.1-1.4,0.1-5.6,0.1-5.6V38l2-1.5c0.2-0.2,0.5-0.1,0.7,0.1c0.2,0.2,0.1,0.5-0.1,0.7l-1.6,1.2c0,0.9,0,4.2-0.1,5.5l0,0.4
			c-0.1,0.8-0.1,1.8-0.8,2.4C24.3,47.1,23.7,47.2,23,47.2z"/>
	</g>
	<g>
		<path class="st1" d="M29,68.8c-0.4,0-0.8-0.1-1.3-0.2c-2.6-0.9-1.3-5.2-1.3-5.3l3-13.9c0.1-0.3,0.3-0.4,0.6-0.4
			c0.3,0.1,0.4,0.3,0.4,0.6l-3,14c0,0.1-1,3.6,0.6,4.2c0.7,0.2,1.2,0.2,1.6,0c0.6-0.3,1-1,1.3-2.2c0.5-1.8,3-13.6,3-13.7
			c0.1-0.3,0.3-0.4,0.6-0.4c0.3,0.1,0.4,0.3,0.4,0.6c-0.1,0.5-2.5,11.9-3,13.8c-0.3,0.9-0.8,2.2-1.8,2.8
			C29.8,68.7,29.4,68.8,29,68.8z"/>
	</g>
	<g>
		<path class="st1" d="M36.6,23.8c-0.3,0-0.6,0-0.9-0.1c-1.1-0.3-2.1-1.1-2.6-2.2c-0.5-1.1-0.7-2.4-0.4-3.6c0.7-2.6,3.1-4.3,5.4-3.7
			c1.1,0.3,2.1,1.1,2.6,2.2c0.5,1.1,0.7,2.4,0.4,3.6C40.5,22.2,38.6,23.8,36.6,23.8z M37.1,15c-1.5,0-3,1.3-3.5,3.1
			c-0.3,1-0.2,2.1,0.3,3c0.4,0.9,1.1,1.4,2,1.6c1.8,0.4,3.6-0.9,4.2-3c0.3-1,0.2-2.1-0.3-3c-0.4-0.9-1.1-1.4-2-1.6
			C37.6,15,37.4,15,37.1,15z"/>
	</g>
</g>
<g id="Confetti">
</g>
<g id="Sparkler">
</g>
<g id="Layer_4">
</g>
</svg>
