<?xml version="1.0" encoding="utf-8"?>
<!-- Generator: Adobe Illustrator 22.0.1, SVG Export Plug-In . SVG Version: 6.00 Build 0)  -->
<svg version="1.1" id="Layer_1" xmlns="http://www.w3.org/2000/svg" xmlns:xlink="http://www.w3.org/1999/xlink" x="0px" y="0px"
	 viewBox="0 0 89.9 90" style="enable-background:new 0 0 89.9 90;" xml:space="preserve">
<metadata><?xpacket begin="﻿" id="W5M0MpCehiHzreSzNTczkc9d"?>
<x:xmpmeta xmlns:x="adobe:ns:meta/" x:xmptk="Adobe XMP Core 5.6-c143 79.161210, 2017/08/11-10:28:36        ">
   <rdf:RDF xmlns:rdf="http://www.w3.org/1999/02/22-rdf-syntax-ns#">
      <rdf:Description rdf:about=""/>
   </rdf:RDF>
</x:xmpmeta>
                                                                                                    
                                                                                                    
                                                                                                    
                                                                                                    
                                                                                                    
                                                                                                    
                                                                                                    
                                                                                                    
                                                                                                    
                                                                                                    
                                                                                                    
                                                                                                    
                                                                                                    
                                                                                                    
                                                                                                    
                                                                                                    
                                                                                                    
                                                                                                    
                                                                                                    
                                                                                                    
                           
<?xpacket end="w"?></metadata>
<style type="text/css">
	.st0{fill:#4DBCC5;}
</style>
<g id="Confetti">
</g>
<g id="Sparkler">
</g>
<g id="Layer_4">
</g>
<g>
	<g>
		<path class="st0" d="M44.7,88C20.9,88,1.4,68.6,1.4,44.7S20.9,1.4,44.7,1.4S88,20.8,88,44.7S68.6,88,44.7,88z M44.7,3.3
			C21.9,3.3,3.3,21.9,3.3,44.7s18.6,41.5,41.5,41.5s41.5-18.6,41.5-41.5S67.6,3.3,44.7,3.3z"/>
	</g>
</g>
<g>
	<g>
		<path class="st0" d="M42.9,61.3c-0.9,0-1.6-0.3-2-0.9c-1-1.2-0.6-3.3-0.5-3.4c0,0,0.4-4.3,0.6-6.4c0.2-1.7-1.5-2-1.6-2
			c-0.3-0.1-5.4-1.4-7.1-2.2c-1.9-1-1.5-3.4-1.5-3.5l0,0c0,0,0.2-4.6,0.1-9l0-1.2c-0.1-3.6-0.1-5.3,1.3-6.7c1.6-1.6,4.6-0.7,4.7-0.6
			c0.8,0.2,1.6,1.4,2.8,3.4c0.6,1,1.2,2,1.8,2.6c1.7,1.9,2.3,2.1,2.3,2.1c0,0,4.9,0.3,6.6,0.4c2.4,0.3,2.5,1.7,2.3,3.5
			c-0.1,0.6-0.3,1.1-0.8,1.5c-1,0.8-2.4,0.6-2.5,0.6c-0.2,0-5.5-0.3-7.2-0.5c-0.3,0-0.5-0.3-0.4-0.6s0.3-0.5,0.6-0.4
			c1.7,0.2,7.1,0.5,7.2,0.5c0.3,0,1.3,0,1.8-0.4c0.2-0.2,0.4-0.4,0.4-0.8c0.2-1.8,0-2.2-1.4-2.4c-1.8-0.1-6.7-0.4-6.7-0.4h0
			c-0.5,0-1.6-0.9-2.9-2.5c-0.6-0.7-1.2-1.7-1.9-2.7c-0.7-1.1-1.8-2.9-2.3-3c0,0-2.5-0.8-3.7,0.4c-1.1,1.1-1.1,2.5-1,6l0,1.2
			c0.1,4.5-0.1,9.1-0.1,9.1c0,0.1-0.3,1.9,0.9,2.5c1.5,0.8,6.8,2.2,6.8,2.2c0.9,0.1,2.6,0.9,2.4,3c-0.2,2.2-0.6,6.5-0.6,6.5
			c-0.1,0.5-0.2,1.9,0.3,2.6c0.3,0.3,0.7,0.5,1.3,0.5c2,0,2.2-1.3,2.3-3.1c0-0.3,0-0.6,0.1-0.8c0.2-1.3,0.7-8.6,0.7-8.7
			c0-0.1,0.3-2-1.4-2.8c-3.1-1.5-5.8-2.2-5.8-2.2c-0.2-0.1-0.4-0.2-0.4-0.4l-0.5-6.9c0-0.3,0.2-0.5,0.5-0.5c0.3,0,0.5,0.2,0.5,0.5
			l0.5,6.5c0.8,0.2,3.1,0.9,5.6,2.1c1.9,0.9,2.1,2.9,2,3.8c0,0.3-0.5,7.4-0.7,8.7c0,0.2,0,0.4-0.1,0.7C46.1,58.7,46,61.3,42.9,61.3z
			"/>
	</g>
	<g>
		<path class="st0" d="M53.1,67.8c-0.1,0-0.3,0-0.4-0.1c-0.2-0.2-0.2-0.5,0-0.7l21.5-21.5c0.2-0.2,0.5-0.2,0.7,0s0.2,0.5,0,0.7
			L53.5,67.7C53.4,67.8,53.2,67.8,53.1,67.8z"/>
	</g>
	<g>
		<path class="st0" d="M45.4,73c-0.8,0-1.6-0.1-2.3-0.4c-1.2-0.5-1.9-1.4-1.9-2.4v-4.4c0-1,0.8-1.8,1.8-1.8h5.7
			c0.4,0,0.8-0.4,0.8-0.8v-4.9c0-1,0.8-1.8,1.8-1.8h4.6c0.4,0,0.8-0.4,0.8-0.8v-4.4c0-1,0.8-1.8,1.8-1.8h4.2c0.4,0,0.8-0.4,0.8-0.8
			v-4.6c0-1,0.8-1.8,1.8-1.8h11c0.3,0,0.5,0.2,0.5,0.5s-0.2,0.5-0.5,0.5h-11c-0.4,0-0.8,0.4-0.8,0.8v4.6c0,1-0.8,1.8-1.8,1.8h-4.2
			c-0.4,0-0.8,0.4-0.8,0.8v4.4c0,1-0.8,1.8-1.8,1.8h-4.6c-0.4,0-0.8,0.4-0.8,0.8v4.9c0,1-0.8,1.8-1.8,1.8H43c-0.4,0-0.8,0.4-0.8,0.8
			v4.4c0,0.8,0.7,1.3,1.3,1.5c1.5,0.6,4.1,0.4,5.3-0.9c0.2-0.2,0.5-0.2,0.7,0c0.2,0.2,0.2,0.5,0,0.7C48.5,72.6,46.9,73,45.4,73z"/>
	</g>
	<g>
		<path class="st0" d="M24.4,46.8c-0.1,0-0.3,0-0.4,0c-0.8-0.1-1.5-0.4-2-1c-0.8-1-0.6-2.4-0.6-2.5l0,0c0,0,0.2-3.9,0.3-6.1
			c0.1-2.5,1.7-3.6,1.7-3.6l4-3.5c0.2-0.2,0.5-0.2,0.7,0.1c0.2,0.2,0.2,0.5-0.1,0.7L24,34.4c-0.1,0.1-1.2,0.9-1.3,2.8
			c-0.1,2.3-0.3,6.2-0.3,6.2c0,0.1-0.1,1.1,0.4,1.8c0.3,0.3,0.7,0.5,1.2,0.6c1.7,0.1,1.8-0.6,1.9-1.8c0-0.2,0-0.4,0.1-0.6
			c0.2-1.3,0.1-5.6,0.1-5.6l0-0.3l2-1.5c0.2-0.2,0.5-0.1,0.7,0.1s0.1,0.5-0.1,0.7l-1.6,1.1c0,1,0.1,4.3-0.1,5.5c0,0.2,0,0.3-0.1,0.5
			C26.8,45.3,26.6,46.8,24.4,46.8z"/>
	</g>
	<g>
		<path class="st0" d="M30.6,68.3c-0.4,0-0.9-0.1-1.3-0.3c-2.6-0.8-1.4-5.1-1.3-5.3l3-14c0.1-0.3,0.3-0.4,0.6-0.4
			c0.3,0.1,0.4,0.3,0.4,0.6l-3,14c0,0.1-1,3.6,0.7,4.1c0.7,0.3,1.3,0.3,1.7,0c0.5-0.3,1-1,1.3-2.2c0.5-1.9,3-13.6,3-13.7
			c0.1-0.3,0.3-0.4,0.6-0.4c0.3,0.1,0.4,0.3,0.4,0.6c-0.1,0.5-2.5,11.8-3,13.7c-0.2,0.9-0.7,2.3-1.8,2.8
			C31.4,68.2,31,68.3,30.6,68.3z"/>
	</g>
	<g>
		<path class="st0" d="M37.9,23.3c-0.3,0-0.6,0-0.9-0.1c-1.1-0.3-2.1-1.1-2.6-2.2c-0.5-1.1-0.7-2.4-0.4-3.6l0,0c0.3-1.3,1-2.3,2-3
			c1-0.7,2.2-1,3.3-0.7c1.1,0.3,2.1,1.1,2.6,2.2c0.5,1.1,0.7,2.4,0.4,3.6c-0.3,1.3-1,2.3-2,3C39.6,23,38.8,23.3,37.9,23.3z M35,17.6
			c-0.3,1-0.2,2.1,0.3,2.9c0.4,0.8,1.1,1.4,2,1.6c0.8,0.2,1.7,0,2.5-0.5c0.8-0.6,1.4-1.4,1.6-2.5c0.3-1,0.2-2.1-0.3-2.9
			c-0.4-0.8-1.1-1.4-2-1.6c-0.8-0.2-1.7,0-2.5,0.5C35.8,15.7,35.2,16.6,35,17.6L35,17.6z"/>
	</g>
</g>
</svg>
