<?xml version="1.0" encoding="utf-8"?>
<!-- Generator: Adobe Illustrator 22.0.1, SVG Export Plug-In . SVG Version: 6.00 Build 0)  -->
<svg version="1.1" id="Layer_1" xmlns="http://www.w3.org/2000/svg" xmlns:xlink="http://www.w3.org/1999/xlink" x="0px" y="0px"
	 viewBox="0 0 89.9 90" style="enable-background:new 0 0 89.9 90;" xml:space="preserve">
<metadata><?xpacket begin="﻿" id="W5M0MpCehiHzreSzNTczkc9d"?>
<x:xmpmeta xmlns:x="adobe:ns:meta/" x:xmptk="Adobe XMP Core 5.6-c143 79.161210, 2017/08/11-10:28:36        ">
   <rdf:RDF xmlns:rdf="http://www.w3.org/1999/02/22-rdf-syntax-ns#">
      <rdf:Description rdf:about=""/>
   </rdf:RDF>
</x:xmpmeta>
                                                                                                    
                                                                                                    
                                                                                                    
                                                                                                    
                                                                                                    
                                                                                                    
                                                                                                    
                                                                                                    
                                                                                                    
                                                                                                    
                                                                                                    
                                                                                                    
                                                                                                    
                                                                                                    
                                                                                                    
                                                                                                    
                                                                                                    
                                                                                                    
                                                                                                    
                                                                                                    
                           
<?xpacket end="w"?></metadata>
<style type="text/css">
	.st0{fill:#4DBCC5;}
	.st1{fill:#FFFFFF;}
</style>
<g>
	<g>
		<g>
			<path class="st0" d="M45.1,87.8c-23.9,0-43.3-19.4-43.3-43.3S21.2,1.2,45.1,1.2s43.3,19.4,43.3,43.3S68.9,87.8,45.1,87.8z"/>
		</g>
	</g>
	<g>
		<g>
			<path class="st1" d="M40.7,56.6L38.2,65c-0.1,0.4-0.3,0.5-0.8,0.5h-0.6c-0.4,0-0.7-0.1-0.8-0.5l-1.3-4.7
				c-0.2-0.9-0.3-1.8-0.3-1.9h-0.1c0,0.1-0.1,1-0.3,1.9L32.6,65c-0.1,0.4-0.3,0.5-0.8,0.5h-0.6c-0.4,0-0.7-0.1-0.8-0.5L28,56.6
				C27.9,56.1,28,56,28.5,56h0.7c0.7,0,0.9,0.1,1,0.6l1,4.1c0.2,0.8,0.3,2.1,0.3,2.2h0.1c0-0.1,0.1-1.4,0.4-2.2l1.2-4
				c0.1-0.5,0.3-0.6,0.9-0.6h0.4c0.7,0,0.8,0.1,0.9,0.6l1.2,4c0.3,0.9,0.4,2.2,0.4,2.2h0.1c0-0.1,0.1-1.2,0.3-2.2l1-4.1
				c0.1-0.5,0.3-0.6,1-0.6h0.6C40.7,56,40.8,56.1,40.7,56.6z"/>
			<path class="st1" d="M45.6,55.7c3,0,3.9,1.6,3.9,3.8v4.7c0,0.6-0.1,0.8-0.7,1c-0.7,0.3-1.8,0.5-3.3,0.5c-3.2,0-4.1-1.1-4.1-3
				c0-2.2,1.2-2.9,4.1-2.9c0.7,0,1.4,0.1,1.8,0.1v-0.5c0-1.1-0.5-1.8-1.8-1.8c-0.9,0-1.5,0.3-1.9,0.9c-0.3,0.4-0.4,0.4-0.8,0.3
				l-0.7-0.3c-0.4-0.2-0.5-0.4-0.3-0.8C42.4,56.4,43.7,55.7,45.6,55.7z M45.4,61.6c-1.4,0-1.8,0.4-1.8,1.2s0.3,1.2,1.7,1.2
				c0.9,0,1.5-0.1,1.8-0.1c0.1-0.1,0.2-0.1,0.2-0.3v-1.9C47,61.6,46.1,61.6,45.4,61.6z"/>
			<path class="st1" d="M59.4,56.5v9.2c0,2.4-1.1,4-4,4c-2,0-3.1-0.7-3.8-1.8c-0.3-0.4-0.2-0.7,0.2-0.9l0.7-0.4
				c0.4-0.2,0.6-0.2,0.9,0.2c0.4,0.6,0.9,0.9,1.9,0.9c1.3,0,1.9-0.7,1.9-2V65c-0.6,0.1-1.3,0.3-2.2,0.3c-2.6,0-3.8-1.4-3.8-3.7v-5.1
				c0-0.4,0.1-0.5,0.6-0.5h1c0.4,0,0.5,0.1,0.5,0.5v5c0,1.2,0.7,1.8,2,1.8c0.8,0,1.4-0.1,1.9-0.3v-6.5c0-0.4,0.1-0.5,0.6-0.5h1
				C59.3,56,59.4,56.1,59.4,56.5z"/>
		</g>
		<g>
			<path class="st1" d="M37.6,20.4v13.5c0,1-0.4,1.4-1.4,1.4H35c-1,0-1.4-0.4-1.4-1.4v-9.9l-2.3,1.3c-0.9,0.5-1.5,0.3-2-0.5l-0.6-1
				c-0.5-1-0.2-1.4,0.6-1.9l4.5-2.6c0.5-0.3,1-0.4,1.7-0.4h0.8C37.3,19,37.6,19.4,37.6,20.4z M56.1,20.6L36.4,47.3
				c-0.8,1.1-1.1,1.2-2.8,1.2H32c-1,0-1.2-0.7-0.7-1.4L51,20.4c0.7-1,1.1-1.2,2.6-1.2h1.8C56.3,19.2,56.6,19.9,56.1,20.6z
				 M54.4,31.9c3.8,0,5.9,2.4,5.9,5.3c0,3.1-1.2,4.5-4.5,5.5l-2.3,0.7C52.6,43.7,52,44,52,44.5v0.4h6.8c0.9,0,1.2,0.4,1.2,1.2v1.2
				c0,0.8-0.3,1.2-1.2,1.2h-9.4c-0.9,0-1.3-0.3-1.3-1.2v-1.2c0-2.9,0.7-4.4,3.5-5.5l2.3-0.9c1.4-0.5,2.3-0.9,2.3-2.3
				c0-1-0.6-1.7-1.8-1.7c-1.4,0-1.9,0.9-2.2,1.6c-0.5,1-0.7,1.2-1.8,0.9l-1.2-0.4c-0.9-0.3-1.3-0.8-0.9-1.8
				C49,34,50.7,31.9,54.4,31.9z"/>
		</g>
	</g>
</g>
<g id="Confetti">
</g>
<g id="Sparkler">
</g>
</svg>
