<?xml version="1.0" encoding="utf-8"?>
<!-- Generator: Adobe Illustrator 22.0.1, SVG Export Plug-In . SVG Version: 6.00 Build 0)  -->
<svg version="1.1" id="Layer_1" xmlns="http://www.w3.org/2000/svg" xmlns:xlink="http://www.w3.org/1999/xlink" x="0px" y="0px"
	 viewBox="0 0 89.9 90" style="enable-background:new 0 0 89.9 90;" xml:space="preserve">
<metadata><?xpacket begin="﻿" id="W5M0MpCehiHzreSzNTczkc9d"?>
<x:xmpmeta xmlns:x="adobe:ns:meta/" x:xmptk="Adobe XMP Core 5.6-c143 79.161210, 2017/08/11-10:28:36        ">
   <rdf:RDF xmlns:rdf="http://www.w3.org/1999/02/22-rdf-syntax-ns#">
      <rdf:Description rdf:about=""/>
   </rdf:RDF>
</x:xmpmeta>
                                                                                                    
                                                                                                    
                                                                                                    
                                                                                                    
                                                                                                    
                                                                                                    
                                                                                                    
                                                                                                    
                                                                                                    
                                                                                                    
                                                                                                    
                                                                                                    
                                                                                                    
                                                                                                    
                                                                                                    
                                                                                                    
                                                                                                    
                                                                                                    
                                                                                                    
                                                                                                    
                           
<?xpacket end="w"?></metadata>
<style type="text/css">
	.st0{fill:#4DBCC5;}
</style>
<g id="Confetti">
</g>
<g id="Sparkler">
</g>
<g>
	<g>
		<g>
			<g>
				<path class="st0" d="M45,87.9c-23.9,0-43.3-19.4-43.3-43.3S21.1,1.3,45,1.3s43.3,19.4,43.3,43.3S68.8,87.9,45,87.9z M45,3.1
					C22.1,3.1,3.5,21.7,3.5,44.6S22.1,86,45,86s41.5-18.6,41.5-41.5S67.8,3.1,45,3.1z"/>
			</g>
		</g>
	</g>
	<g>
		<g>
			<path class="st0" d="M41.8,56.5l-2.4,8.3c-0.1,0.4-0.3,0.5-0.8,0.5h-0.6c-0.4,0-0.7-0.1-0.8-0.5l-1.3-4.7
				c-0.2-0.9-0.3-1.8-0.3-1.9h-0.1c0,0.1-0.1,1-0.3,1.9l-1.3,4.7c-0.1,0.4-0.3,0.5-0.8,0.5h-0.6c-0.4,0-0.7-0.1-0.8-0.5l-2.4-8.3
				c-0.2-0.5-0.1-0.7,0.5-0.7h0.7c0.7,0,0.9,0.1,1,0.6l1,4.1c0.2,0.8,0.3,2.1,0.3,2.2h0.1c0-0.1,0.1-1.4,0.4-2.2l1.2-4
				c0.1-0.5,0.3-0.6,0.9-0.6h0.4c0.7,0,0.8,0.1,0.9,0.6l1.2,4c0.3,0.9,0.4,2.2,0.4,2.2h0.1c0-0.1,0.1-1.2,0.3-2.2l1-4.1
				c0.1-0.5,0.3-0.6,1-0.6h0.6C41.8,55.9,41.9,56,41.8,56.5z"/>
			<path class="st0" d="M46.7,55.6c3,0,3.9,1.6,3.9,3.8v4.7c0,0.6-0.1,0.8-0.7,1c-0.7,0.3-1.8,0.5-3.3,0.5c-3.2,0-4.1-1.1-4.1-3
				c0-2.2,1.2-2.9,4.1-2.9c0.7,0,1.4,0.1,1.8,0.1v-0.5c0-1.1-0.5-1.8-1.8-1.8c-0.9,0-1.5,0.3-1.9,0.9c-0.3,0.4-0.4,0.4-0.8,0.3
				l-0.7-0.3c-0.4-0.2-0.5-0.4-0.3-0.8C43.5,56.3,44.8,55.6,46.7,55.6z M46.5,61.4c-1.4,0-1.8,0.4-1.8,1.2s0.3,1.2,1.7,1.2
				c0.9,0,1.5-0.1,1.8-0.1c0.1-0.1,0.2-0.1,0.2-0.3v-1.9C48.1,61.5,47.2,61.4,46.5,61.4z"/>
			<path class="st0" d="M60.5,56.4v9.2c0,2.4-1.1,4-4,4c-2,0-3.1-0.7-3.8-1.8c-0.3-0.4-0.2-0.7,0.2-0.9l0.7-0.4
				c0.4-0.2,0.6-0.2,0.9,0.2c0.4,0.6,0.9,0.9,1.9,0.9c1.3,0,1.9-0.7,1.9-2v-0.9c-0.6,0.1-1.3,0.3-2.2,0.3c-2.6,0-3.8-1.4-3.8-3.7
				v-5.1c0-0.4,0.1-0.5,0.6-0.5h1c0.4,0,0.5,0.1,0.5,0.5v5c0,1.2,0.7,1.8,2,1.8c0.8,0,1.4-0.1,1.9-0.3v-6.5c0-0.4,0.1-0.5,0.6-0.5h1
				C60.4,55.9,60.5,56,60.5,56.4z"/>
		</g>
		<g>
			<path class="st0" d="M38.7,20.3v13.5c0,1-0.4,1.4-1.4,1.4h-1.2c-1,0-1.4-0.4-1.4-1.4v-9.9l-2.3,1.3c-0.9,0.5-1.5,0.3-2-0.5
				l-0.6-1c-0.5-1-0.2-1.4,0.6-1.9l4.5-2.6c0.5-0.3,1-0.4,1.7-0.4h0.8C38.4,18.9,38.7,19.2,38.7,20.3z M57.2,20.5L37.5,47.2
				c-0.8,1.1-1.1,1.2-2.8,1.2h-1.6c-1,0-1.2-0.7-0.7-1.4l19.7-26.8c0.7-1,1.1-1.2,2.6-1.2h1.8C57.4,19.1,57.7,19.7,57.2,20.5z
				 M55.5,31.8c3.8,0,5.9,2.4,5.9,5.3c0,3.1-1.2,4.5-4.5,5.5l-2.3,0.7c-0.9,0.2-1.5,0.6-1.5,1.1v0.4h6.8c0.9,0,1.2,0.4,1.2,1.2v1.2
				c0,0.8-0.3,1.2-1.2,1.2h-9.4c-0.9,0-1.3-0.3-1.3-1.2V46c0-2.9,0.7-4.4,3.5-5.5l2.3-0.9c1.4-0.5,2.3-0.9,2.3-2.3
				c0-1-0.6-1.7-1.8-1.7c-1.4,0-1.9,0.9-2.2,1.6c-0.5,1-0.7,1.2-1.8,0.9l-1.2-0.4c-0.9-0.3-1.3-0.8-0.9-1.8
				C50.1,33.9,51.8,31.8,55.5,31.8z"/>
		</g>
	</g>
</g>
</svg>
