<?xml version="1.0" encoding="utf-8"?>
<!-- Generator: Adobe Illustrator 22.0.1, SVG Export Plug-In . SVG Version: 6.00 Build 0)  -->
<svg version="1.1" id="Layer_1" xmlns="http://www.w3.org/2000/svg" xmlns:xlink="http://www.w3.org/1999/xlink" x="0px" y="0px"
	 viewBox="0 0 89.9 90" style="enable-background:new 0 0 89.9 90;" xml:space="preserve">
<metadata><?xpacket begin="﻿" id="W5M0MpCehiHzreSzNTczkc9d"?>
<x:xmpmeta xmlns:x="adobe:ns:meta/" x:xmptk="Adobe XMP Core 5.6-c143 79.161210, 2017/08/11-10:28:36        ">
   <rdf:RDF xmlns:rdf="http://www.w3.org/1999/02/22-rdf-syntax-ns#">
      <rdf:Description rdf:about=""/>
   </rdf:RDF>
</x:xmpmeta>
                                                                                                    
                                                                                                    
                                                                                                    
                                                                                                    
                                                                                                    
                                                                                                    
                                                                                                    
                                                                                                    
                                                                                                    
                                                                                                    
                                                                                                    
                                                                                                    
                                                                                                    
                                                                                                    
                                                                                                    
                                                                                                    
                                                                                                    
                                                                                                    
                                                                                                    
                                                                                                    
                           
<?xpacket end="w"?></metadata>
<style type="text/css">
	.st0{fill:#048B92;}
	.st1{fill:#FFFFFF;}
</style>
<g>
	<g>
		<path class="st0" d="M44.8,88.4C20.9,88.4,1.5,69,1.5,45.1S20.9,1.8,44.8,1.8s43.3,19.4,43.3,43.3S68.7,88.4,44.8,88.4z"/>
	</g>
</g>
<g id="Confetti">
</g>
<g id="Sparkler">
</g>
<g>
	<g>
		<g>
			<g>
				<path class="st1" d="M47.4,43.6c0-0.7-0.5-1.2-1.2-1.2h-3v-2.2c0-0.9-0.7-1.7-1.6-1.7h-0.4c-0.1,0-0.2,0-0.3,0.1
					c-0.1,0.1-0.1,0.2-0.1,0.3v1.9l-1.5,2.6H37l0,0c-0.1,0-0.2,0-0.2,0.1c0,0-0.1,0.1-0.1,0.2c0,0,0,0.1,0,0.2V50
					c0,0.2,0.1,0.3,0.3,0.3l0,0l0,0h2.5c0.1,0,0.2,0,0.3-0.1l0,0c0.2,0.1,0.4,0.1,0.6,0.1H45c0.7,0,1.2-0.6,1.2-1.2
					c0-0.2,0-0.4-0.1-0.5c0.5-0.1,1-0.6,1-1.2c0-0.2-0.1-0.5-0.2-0.7c0.4-0.2,0.6-0.6,0.6-1.1c0-0.3-0.1-0.6-0.4-0.9
					C47.3,44.3,47.4,44,47.4,43.6z M39.2,49.4h-1.7V44h1.7V49.4z M45.8,44.9h0.4c0.3,0,0.5,0.2,0.5,0.5s-0.2,0.5-0.5,0.5h-0.6
					c-0.2,0-0.4,0.2-0.4,0.4s0.2,0.4,0.4,0.4h0.2l0,0l0,0c0.2,0,0.4,0.2,0.4,0.5s-0.2,0.5-0.5,0.5h-0.8c-0.2,0-0.4,0.2-0.4,0.4
					s0.2,0.4,0.4,0.4c0.3,0,0.5,0.2,0.5,0.5s-0.2,0.5-0.5,0.5h-4.6c-0.3,0-0.5-0.2-0.5-0.5v-5.1l1.6-2.7c0-0.1,0.1-0.1,0.1-0.2v-1.8
					h0.1c0.5,0,0.9,0.4,0.9,0.9v2.6c0,0.1,0,0.2,0.1,0.3s0.2,0.1,0.3,0.1l0,0h3.3c0.3,0,0.5,0.2,0.5,0.5s-0.2,0.5-0.5,0.5h-0.4l0,0
					c-0.1,0-0.2,0-0.2,0.1c-0.1,0.1-0.1,0.2-0.1,0.3C45.5,44.7,45.6,44.9,45.8,44.9z"/>
			</g>
		</g>
		<g>
			<g>
				<g>
					<circle class="st1" cx="38.3" cy="48.4" r="0.4"/>
				</g>
			</g>
		</g>
	</g>
	<g>
		<g>
			<g>
				<path class="st1" d="M70.8,43.6c0-0.7-0.5-1.2-1.2-1.2h-3v-2.2c0-0.9-0.7-1.7-1.6-1.7h-0.4c-0.1,0-0.2,0-0.3,0.1
					c-0.1,0.1-0.1,0.2-0.1,0.3v1.9l-1.5,2.6h-2.3l0,0c-0.1,0-0.2,0-0.2,0.1c0,0-0.1,0.1-0.1,0.2c0,0,0,0.1,0,0.2V50
					c0,0.2,0.1,0.3,0.3,0.3l0,0l0,0h2.5c0.1,0,0.2,0,0.3-0.1l0,0c0.2,0.1,0.4,0.1,0.6,0.1h4.6c0.7,0,1.2-0.6,1.2-1.2
					c0-0.2,0-0.4-0.1-0.5c0.5-0.1,1-0.6,1-1.2c0-0.2-0.1-0.5-0.2-0.7c0.4-0.2,0.6-0.6,0.6-1.1c0-0.3-0.1-0.6-0.4-0.9
					C70.6,44.3,70.8,44,70.8,43.6z M62.5,49.4h-1.7V44h1.7V49.4z M69.1,44.9h0.4c0.3,0,0.5,0.2,0.5,0.5s-0.2,0.5-0.5,0.5h-0.6
					c-0.2,0-0.4,0.2-0.4,0.4s0.2,0.4,0.4,0.4h0.2l0,0l0,0c0.2,0,0.4,0.2,0.4,0.5s-0.2,0.5-0.5,0.5h-0.8c-0.2,0-0.4,0.2-0.4,0.4
					s0.2,0.4,0.4,0.4c0.3,0,0.5,0.2,0.5,0.5s-0.2,0.5-0.5,0.5h-4.6c-0.3,0-0.5-0.2-0.5-0.5v-5.1l1.6-2.7c0-0.1,0.1-0.1,0.1-0.2v-1.8
					h0.1c0.5,0,0.9,0.4,0.9,0.9v2.6c0,0.1,0,0.2,0.1,0.3s0.2,0.1,0.3,0.1l0,0h3.3c0.3,0,0.5,0.2,0.5,0.5s-0.2,0.5-0.5,0.5h-0.4l0,0
					c-0.1,0-0.2,0-0.2,0.1c-0.1,0.1-0.1,0.2-0.1,0.3C68.8,44.7,68.9,44.9,69.1,44.9z"/>
			</g>
		</g>
		<g>
			<g>
				<g>
					<circle class="st1" cx="61.6" cy="48.4" r="0.4"/>
				</g>
			</g>
		</g>
	</g>
	<g>
		<g>
			<path class="st1" d="M26.6,57.8h-3.9c-1.4,0-2.1-0.7-2.1-2.1V42.4l-1.4,0.8c-0.7,0.4-1.3,0.5-1.8,0.4c-0.7-0.2-1-0.8-1.2-1.2
				l-1.6-2.9c-0.8-1.5,0-2.2,0.9-2.8l6.7-3.9c0.9-0.5,1.4-0.7,2.4-0.7h2.1c1.4,0,2.1,0.6,2.1,2.1v21.5C28.6,57.1,28,57.8,26.6,57.8z
				 M21.2,40.8c0.1,0,0.2,0,0.3,0.1c0.2,0.1,0.3,0.3,0.3,0.5v14.3c0,0.7,0.1,0.8,0.9,0.8h3.9c0.7,0,0.8-0.1,0.8-0.8V34.2
				c0-0.7-0.1-0.8-0.8-0.8h-2.1c-0.8,0-1,0.1-1.7,0.5l-6.7,3.9c-0.8,0.5-0.7,0.6-0.4,1.2l1.6,2.9c0.2,0.3,0.4,0.5,0.5,0.6
				c0.2,0.1,0.5,0,0.9-0.2L21,41C21,40.8,21.1,40.8,21.2,40.8z"/>
		</g>
	</g>
	<g>
		<g>
			<path class="st1" d="M41.7,58.3c-6.5,0-10.4-3.6-10.4-9.6v-7.5c0-5.9,4-9.5,10.4-9.5s10.4,3.7,10.4,9.5v7.5
				C52.1,54.7,48.2,58.3,41.7,58.3z M41.7,32.9c-5.7,0-9.2,3.1-9.2,8.3v7.5c0,5.3,3.3,8.3,9.2,8.3c5.8,0,9.2-3,9.2-8.3v-7.5
				C50.9,36,47.4,32.9,41.7,32.9z"/>
		</g>
	</g>
	<g>
		<g>
			<path class="st1" d="M65,58.3c-6.5,0-10.4-3.6-10.4-9.6v-7.5c0-5.9,4-9.5,10.4-9.5s10.4,3.7,10.4,9.5v7.5
				C75.4,54.7,71.5,58.3,65,58.3z M65,32.9c-5.7,0-9.2,3.1-9.2,8.3v7.5c0,5.3,3.3,8.3,9.2,8.3c5.8,0,9.2-3,9.2-8.3v-7.5
				C74.2,36,70.8,32.9,65,32.9z"/>
		</g>
	</g>
</g>
<g id="Layer_4">
</g>
</svg>
