<?xml version="1.0" encoding="utf-8"?>
<!-- Generator: Adobe Illustrator 22.0.1, SVG Export Plug-In . SVG Version: 6.00 Build 0)  -->
<svg version="1.1" id="Layer_1" xmlns="http://www.w3.org/2000/svg" xmlns:xlink="http://www.w3.org/1999/xlink" x="0px" y="0px"
	 viewBox="0 0 90.2 90.2" style="enable-background:new 0 0 90.2 90.2;" xml:space="preserve">
<metadata><?xpacket begin="﻿" id="W5M0MpCehiHzreSzNTczkc9d"?>
<x:xmpmeta xmlns:x="adobe:ns:meta/" x:xmptk="Adobe XMP Core 5.6-c143 79.161210, 2017/08/11-10:28:36        ">
   <rdf:RDF xmlns:rdf="http://www.w3.org/1999/02/22-rdf-syntax-ns#">
      <rdf:Description rdf:about=""/>
   </rdf:RDF>
</x:xmpmeta>
                                                                                                    
                                                                                                    
                                                                                                    
                                                                                                    
                                                                                                    
                                                                                                    
                                                                                                    
                                                                                                    
                                                                                                    
                                                                                                    
                                                                                                    
                                                                                                    
                                                                                                    
                                                                                                    
                                                                                                    
                                                                                                    
                                                                                                    
                                                                                                    
                                                                                                    
                                                                                                    
                           
<?xpacket end="w"?></metadata>
<style type="text/css">
	.st0{fill:#048B92;}
</style>
<g id="Confetti">
</g>
<g id="Sparkler">
</g>
<g>
	<g>
		<path class="st0" d="M45.1,88.3C21.3,88.3,1.8,68.9,1.8,45S21.4,1.8,45.1,1.8s43.3,19.4,43.3,43.3S69,88.3,45.1,88.3z M45.1,3.6
			C22.4,3.6,3.7,22.2,3.7,45s18.7,41.5,41.4,41.5S86.6,67.9,86.6,45S68,3.6,45.1,3.6z"/>
	</g>
</g>
<g>
	<g>
		<g>
			<g>
				<path class="st0" d="M47.8,43.8c0-0.7-0.5-1.2-1.2-1.2h-3v-2.2c0-0.9-0.7-1.7-1.6-1.7h-0.4c-0.1,0-0.2,0-0.3,0.1
					c0,0,0,0.1,0,0.2v1.9l-1.5,2.6h-2.2l0,0c-0.1,0-0.2,0-0.2,0.1c0,0-0.1,0.1-0.1,0.2c0,0,0,0.1,0,0.2v6.1c0,0.2,0.1,0.3,0.3,0.3
					l0,0l0,0h2.5c0.1,0,0.2,0,0.3-0.1l0,0c0.2,0.1,0.4,0.1,0.6,0.1h4.6c0.7,0,1.2-0.6,1.2-1.2c0-0.2,0-0.4-0.1-0.5
					c0.5-0.1,1-0.6,1-1.2c0-0.2-0.1-0.5-0.2-0.7c0.4-0.2,0.6-0.6,0.6-1.1c0-0.3-0.1-0.6-0.4-0.9C47.8,44.4,47.8,44.1,47.8,43.8z
					 M39.6,49.5h-1.7v-5.4h1.7V49.5z M46.3,45h0.4c0.3,0,0.5,0.2,0.5,0.5S47,46,46.7,46h-0.6c-0.2,0-0.4,0.2-0.4,0.4
					s0.2,0.4,0.4,0.4h0.2l0,0l0,0c0.2,0,0.4,0.2,0.4,0.5s-0.2,0.5-0.5,0.5h-0.8c-0.2,0-0.4,0.2-0.4,0.4s0.2,0.4,0.4,0.4
					c0.3,0,0.5,0.2,0.5,0.5s-0.2,0.5-0.5,0.5h-4.6c-0.3,0-0.5-0.2-0.5-0.5V44l1.6-2.7c0-0.1,0.1-0.1,0.1-0.2v-1.6h0.1
					c0.5,0,0.9,0.4,0.9,0.9V43c0,0.1,0,0.2,0.1,0.3s0.2,0.1,0.3,0.1l0,0h3.2c0.3,0,0.5,0.2,0.5,0.5s-0.2,0.5-0.5,0.5h-0.4l0,0
					c-0.1,0-0.2,0-0.2,0.1c-0.1,0.1-0.1,0.2-0.1,0.3C45.9,44.9,46.1,45,46.3,45z"/>
			</g>
		</g>
		<g>
			<g>
				<circle class="st0" cx="38.8" cy="48.6" r="0.4"/>
			</g>
		</g>
	</g>
	<g>
		<g>
			<g>
				<path class="st0" d="M71.3,43.8c0-0.7-0.5-1.2-1.2-1.2h-3v-2.2c0-0.9-0.7-1.7-1.6-1.7h-0.4c-0.1,0-0.2,0-0.3,0.1
					c-0.1,0.1-0.1,0.2-0.1,0.3V41l-1.5,2.6h-2.3l0,0c-0.1,0-0.2,0-0.2,0.1c0,0-0.1,0.1-0.1,0.2c0,0,0,0.1,0,0.2v6.1
					c0,0.2,0.1,0.3,0.3,0.3l0,0l0,0h2.5c0.1,0,0.2,0,0.3-0.1l0,0c0.2,0.1,0.4,0.1,0.6,0.1h4.6c0.7,0,1.2-0.6,1.2-1.2
					c0-0.2,0-0.4-0.1-0.5c0.5-0.1,1-0.6,1-1.2c0-0.2-0.1-0.5-0.2-0.7c0.4-0.2,0.6-0.6,0.6-1.1c0-0.3-0.1-0.6-0.4-0.9
					C71,44.4,71.3,44.1,71.3,43.8z M62.9,49.5h-1.7v-5.4h1.7V49.5z M69.7,45h0.4c0.3,0,0.5,0.2,0.5,0.5S70.4,46,70.1,46h-0.7
					c-0.2,0-0.4,0.2-0.4,0.4s0.2,0.4,0.4,0.4h0.2l0,0l0,0c0.2,0,0.4,0.2,0.4,0.5s-0.2,0.5-0.5,0.5h-0.9c-0.2,0-0.4,0.2-0.4,0.4
					s0.2,0.4,0.4,0.4c0.3,0,0.5,0.2,0.5,0.5s-0.2,0.5-0.5,0.5H64c-0.3,0-0.5-0.2-0.5-0.5V44l1.6-2.7c0.2-0.2,0.2-0.3,0.2-0.3v-1.6
					h0.1c0.5,0,0.9,0.4,0.9,0.9v2.6c0,0.1,0,0.2,0.1,0.3s0.2,0.1,0.3,0.1l0,0H70c0.3,0,0.5,0.2,0.5,0.5s-0.2,0.5-0.5,0.5h-0.4l0,0
					c-0.1,0-0.2,0-0.2,0.1c-0.1,0.1-0.1,0.2-0.1,0.3C69.3,44.9,69.4,45,69.7,45z"/>
			</g>
		</g>
		<g>
			<g>
				<circle class="st0" cx="62" cy="48.6" r="0.4"/>
			</g>
		</g>
	</g>
	<g>
		<g>
			<path class="st0" d="M27.1,58h-3.9c-1.4,0-2.1-0.7-2.1-2.1V42.6l-1.4,0.8c-0.7,0.4-1.3,0.5-1.8,0.4c-0.7-0.2-1-0.8-1.2-1.2
				l-1.6-2.9c-0.8-1.5,0-2.2,0.9-2.8l6.7-3.9c0.9-0.5,1.4-0.7,2.4-0.7h2.1c1.4,0,2.1,0.6,2.1,2.1v21.5C29.1,57.3,28.4,58,27.1,58z
				 M21.6,41c0.1,0,0.2,0,0.3,0.1c0.2,0.1,0.3,0.3,0.3,0.5v14.3c0,0.7,0.1,0.8,0.9,0.8H27c0.7,0,0.8-0.1,0.8-0.8V34.4
				c0-0.7-0.1-0.8-0.8-0.8h-2.1c-0.8,0-1,0.1-1.7,0.5L16.6,38c-0.8,0.5-0.7,0.6-0.5,1.2l1.6,2.9c0.2,0.3,0.4,0.5,0.5,0.6
				c0.2,0.1,0.5,0,0.9-0.2l2.3-1.5C21.5,41,21.6,41,21.6,41z"/>
		</g>
	</g>
	<g>
		<g>
			<path class="st0" d="M42.1,58.5c-6.5,0-10.4-3.6-10.4-9.6v-7.5c0-5.9,4-9.5,10.4-9.5s10.5,3.7,10.5,9.5v7.5
				C52.6,54.9,48.6,58.5,42.1,58.5z M42.1,33.1c-5.7,0-9.2,3.1-9.2,8.3v7.5c0,5.3,3.3,8.3,9.2,8.3c5.8,0,9.2-3,9.2-8.3v-7.5
				C51.4,36.2,47.8,33.1,42.1,33.1z"/>
		</g>
	</g>
	<g>
		<g>
			<path class="st0" d="M65.4,58.5c-6.5,0-10.4-3.6-10.4-9.6v-7.5c0-5.9,4-9.5,10.4-9.5s10.4,3.7,10.4,9.5v7.5
				C75.8,54.9,71.9,58.5,65.4,58.5z M65.4,33.1c-5.7,0-9.2,3.1-9.2,8.3v7.5c0,5.3,3.3,8.3,9.2,8.3c5.8,0,9.2-3,9.2-8.3v-7.5
				C74.7,36.2,71.3,33.1,65.4,33.1z"/>
		</g>
	</g>
</g>
</svg>
