<?xml version="1.0" encoding="utf-8"?>
<!-- Generator: Adobe Illustrator 22.0.1, SVG Export Plug-In . SVG Version: 6.00 Build 0)  -->
<svg version="1.1" id="Layer_1" xmlns="http://www.w3.org/2000/svg" xmlns:xlink="http://www.w3.org/1999/xlink" x="0px" y="0px"
	 viewBox="0 0 89.9 90" style="enable-background:new 0 0 89.9 90;" xml:space="preserve">
<metadata><?xpacket begin="﻿" id="W5M0MpCehiHzreSzNTczkc9d"?>
<x:xmpmeta xmlns:x="adobe:ns:meta/" x:xmptk="Adobe XMP Core 5.6-c143 79.161210, 2017/08/11-10:28:36        ">
   <rdf:RDF xmlns:rdf="http://www.w3.org/1999/02/22-rdf-syntax-ns#">
      <rdf:Description rdf:about=""/>
   </rdf:RDF>
</x:xmpmeta>
                                                                                                    
                                                                                                    
                                                                                                    
                                                                                                    
                                                                                                    
                                                                                                    
                                                                                                    
                                                                                                    
                                                                                                    
                                                                                                    
                                                                                                    
                                                                                                    
                                                                                                    
                                                                                                    
                                                                                                    
                                                                                                    
                                                                                                    
                                                                                                    
                                                                                                    
                                                                                                    
                           
<?xpacket end="w"?></metadata>
<style type="text/css">
	.st0{fill:#008A91;}
</style>
<g id="Confetti">
</g>
<g id="Sparkler">
</g>
<g id="Layer_4">
</g>
<g>
	<g>
		<path class="st0" d="M44.6,88C20.8,88,1.4,68.6,1.4,44.7S20.8,1.4,44.6,1.4s43.3,19.4,43.3,43.3S68.5,88,44.6,88z M44.6,3.3
			C21.8,3.3,3.2,21.9,3.2,44.7s18.6,41.5,41.5,41.5s41.5-18.6,41.5-41.5S67.5,3.3,44.6,3.3z"/>
	</g>
</g>
<g>
	<g>
		<g>
			<circle class="st0" cx="33.3" cy="54.3" r="1"/>
		</g>
		<g>
			<path class="st0" d="M60.9,42.5c0.8-0.6,1.3-1.6,1.3-2.7c0-1.8-1.5-3.3-3.3-3.3H49v-7.3c0-2.6-2.1-4.6-4.6-4.6l-1.3,0
				c-0.2,0-0.3,0.1-0.5,0.2c-0.1,0.1-0.2,0.3-0.2,0.5V31l-5,8.1h-7.4c-0.4,0-0.7,0.3-0.7,0.7c0,0.4,0.3,0.7,0.7,0.7H37v17.2h-7.1
				c-0.4,0-0.7,0.3-0.7,0.7c0,0.4,0.3,0.7,0.7,0.7h7.8c0.2,0,0.3-0.1,0.5-0.2c0.1-0.1,0.2-0.3,0.2-0.5v0c0.6,0.4,1.2,0.7,2,0.7h14.6
				c1.8,0,3.3-1.5,3.3-3.3c0-0.8-0.3-1.4-0.7-2h0c1.8,0,3.3-1.5,3.3-3.3c0-0.8-0.3-1.6-0.9-2.2c1.3-0.5,2.2-1.7,2.2-3.1
				C62.2,44,61.7,43.1,60.9,42.5z M58.9,47.1h-2c-0.4,0-0.7,0.3-0.7,0.7c0,0.4,0.3,0.7,0.7,0.7h0.7c0,0,0,0,0,0v0h0c1.1,0,2,0.9,2,2
				c0,1.1-0.9,2-2,2h-2.7c-0.4,0-0.7,0.3-0.7,0.7c0,0.4,0.3,0.7,0.7,0.7h0c1.1,0,2,0.9,2,2c0,1.1-0.9,2-2,2H40.3c-1.1,0-2-0.9-2-2
				V40l5.2-8.5c0.1-0.1,0.1-0.2,0.1-0.3v-5.3h0.7c1.8,0,3.3,1.5,3.3,3.3v8c0,0.2,0.1,0.3,0.2,0.5c0.1,0.1,0.3,0.2,0.5,0.2h10.6
				c1.1,0,2,0.9,2,2c0,1.1-0.9,2-2,2h-1.3c-0.4,0-0.7,0.3-0.7,0.7c0,0.4,0.3,0.7,0.7,0.7h1.3c1.1,0,2,0.9,2,2
				C60.9,46.2,60,47.1,58.9,47.1z"/>
		</g>
	</g>
	<g>
		<path class="st0" d="M29.7,59c-0.3,0-0.6-0.3-0.6-0.6V40c0-0.3,0.3-0.6,0.6-0.6s0.6,0.3,0.6,0.6v18.5C30.3,58.8,30,59,29.7,59z"/>
	</g>
</g>
</svg>
