<?xml version="1.0" encoding="utf-8"?>
<!-- Generator: Adobe Illustrator 22.0.1, SVG Export Plug-In . SVG Version: 6.00 Build 0)  -->
<svg version="1.1" id="Layer_1" xmlns="http://www.w3.org/2000/svg" xmlns:xlink="http://www.w3.org/1999/xlink" x="0px" y="0px"
	 viewBox="0 0 90.3 90" style="enable-background:new 0 0 90.3 90;" xml:space="preserve">
<metadata><?xpacket begin="﻿" id="W5M0MpCehiHzreSzNTczkc9d"?>
<x:xmpmeta xmlns:x="adobe:ns:meta/" x:xmptk="Adobe XMP Core 5.6-c143 79.161210, 2017/08/11-10:28:36        ">
   <rdf:RDF xmlns:rdf="http://www.w3.org/1999/02/22-rdf-syntax-ns#">
      <rdf:Description rdf:about=""/>
   </rdf:RDF>
</x:xmpmeta>
                                                                                                    
                                                                                                    
                                                                                                    
                                                                                                    
                                                                                                    
                                                                                                    
                                                                                                    
                                                                                                    
                                                                                                    
                                                                                                    
                                                                                                    
                                                                                                    
                                                                                                    
                                                                                                    
                                                                                                    
                                                                                                    
                                                                                                    
                                                                                                    
                                                                                                    
                                                                                                    
                           
<?xpacket end="w"?></metadata>
<style type="text/css">
	.st0{fill:#048B92;}
	.st1{fill:#FFFFFF;}
</style>
<g>
	<g>
		<path class="st0" d="M45,88.2c-23.9,0-43.3-19.4-43.3-43.3S21.1,1.6,45,1.6S88.3,21,88.3,44.9S68.9,88.2,45,88.2z"/>
	</g>
</g>
<g id="Confetti">
</g>
<g id="Sparkler">
</g>
<g>
	<g>
		<g>
			<g>
				<path class="st1" d="M51.1,43.6c0-0.7-0.5-1.2-1.2-1.2h-3v-2.3c0-0.9-0.7-1.7-1.6-1.7h-0.4c-0.1,0-0.2,0-0.3,0.1
					c-0.1,0.1-0.1,0.2-0.1,0.3v1.9L43,43.3h-2.3l0,0c-0.1,0-0.2,0-0.2,0.1c0,0-0.1,0.1-0.1,0.2c0,0,0,0.1,0,0.2v6.1
					c0,0.2,0.1,0.3,0.3,0.3l0,0l0,0h2.5c0.1,0,0.2,0,0.3-0.1l0,0c0.2,0.1,0.4,0.1,0.6,0.1h4.6c0.7,0,1.2-0.6,1.2-1.2
					c0-0.2,0-0.4-0.1-0.5c0.5-0.1,1-0.6,1-1.2c0-0.2-0.1-0.5-0.2-0.7c0.4-0.2,0.6-0.6,0.6-1.1c0-0.3-0.1-0.6-0.4-0.9
					C51,44.3,51.1,44,51.1,43.6z M42.9,49.4h-1.7V44h1.7V49.4z M49.5,44.9h0.4c0.3,0,0.5,0.2,0.5,0.5s-0.2,0.5-0.5,0.5h-0.6
					c-0.2,0-0.4,0.2-0.4,0.4s0.2,0.4,0.4,0.4h0.2l0,0l0,0c0.3,0,0.4,0.2,0.4,0.5s-0.2,0.5-0.5,0.5h-0.8c-0.2,0-0.4,0.2-0.4,0.4
					s0.2,0.4,0.4,0.4c0.3,0,0.5,0.2,0.5,0.5s-0.2,0.5-0.5,0.5H44c-0.3,0-0.5-0.2-0.5-0.5v-5.1l1.6-2.7c0-0.1,0.1-0.1,0.1-0.2v-1.6
					h0.1c0.5,0,0.9,0.4,0.9,0.9v2.6c0,0.1,0,0.2,0.1,0.3s0.2,0.1,0.3,0.1l0,0H50c0.3,0,0.5,0.2,0.5,0.5s-0.2,0.5-0.5,0.5h-0.4l0,0
					c-0.1,0-0.2,0-0.2,0.1c-0.1,0.1-0.1,0.2-0.1,0.3C49.2,44.7,49.3,44.9,49.5,44.9z"/>
			</g>
		</g>
		<g>
			<g>
				<g>
					<circle class="st1" cx="42" cy="48.4" r="0.4"/>
				</g>
			</g>
		</g>
	</g>
	<g>
		<g>
			<g>
				<path class="st1" d="M74.5,43.6c0-0.7-0.5-1.2-1.2-1.2h-3v-2.3c0-0.9-0.7-1.7-1.6-1.7h-0.4c-0.1,0-0.2,0-0.3,0.1
					c-0.1,0.1-0.1,0.2-0.1,0.3v1.9l-1.5,2.6h-2.3l0,0c-0.1,0-0.2,0-0.2,0.1c0,0-0.1,0.1-0.1,0.2c0,0,0,0.1,0,0.2v6.1
					c0,0.2,0.1,0.3,0.3,0.3l0,0l0,0h2.5c0.1,0,0.2,0,0.3-0.1l0,0c0.2,0.1,0.4,0.1,0.6,0.1h4.6c0.7,0,1.2-0.6,1.2-1.2
					c0-0.2,0-0.4-0.1-0.5c0.5-0.1,1-0.6,1-1.2c0-0.2-0.1-0.5-0.2-0.7c0.4-0.2,0.6-0.6,0.6-1.1c0-0.3-0.1-0.6-0.4-0.9
					C74.4,44.3,74.5,44,74.5,43.6z M66.3,49.4h-1.7V44h1.7V49.4z M72.9,44.9h0.4c0.3,0,0.5,0.2,0.5,0.5s-0.2,0.5-0.5,0.5h-0.6
					c-0.2,0-0.4,0.2-0.4,0.4s0.2,0.4,0.4,0.4h0.2l0,0l0,0c0.3,0,0.4,0.2,0.4,0.5s-0.2,0.5-0.5,0.5H72c-0.2,0-0.4,0.2-0.4,0.4
					s0.2,0.4,0.4,0.4c0.3,0,0.5,0.2,0.5,0.5s-0.2,0.5-0.5,0.5h-4.6c-0.3,0-0.5-0.2-0.5-0.5v-5.1l1.6-2.7c0-0.1,0.1-0.1,0.1-0.2v-1.6
					h0.1c0.5,0,0.9,0.4,0.9,0.9v2.6c0,0.1,0,0.2,0.1,0.3s0.2,0.1,0.3,0.1l0,0h3.4c0.3,0,0.5,0.2,0.5,0.5s-0.2,0.5-0.5,0.5H73l0,0
					c-0.1,0-0.2,0-0.2,0.1c-0.1,0.1-0.1,0.2-0.1,0.3C72.6,44.7,72.7,44.9,72.9,44.9z"/>
			</g>
		</g>
		<g>
			<g>
				<g>
					<circle class="st1" cx="65.4" cy="48.4" r="0.4"/>
				</g>
			</g>
		</g>
	</g>
	<g>
		<g>
			<path class="st1" d="M45.4,58.3c-6.5,0-10.4-3.6-10.4-9.6v-7.5c0-5.9,4-9.6,10.4-9.6s10.4,3.7,10.4,9.6v7.5
				C55.8,54.7,51.9,58.3,45.4,58.3z M45.4,32.9c-5.8,0-9.2,3.1-9.2,8.3v7.5c0,5.3,3.4,8.4,9.2,8.4c5.8,0,9.2-3.1,9.2-8.4v-7.5
				C54.6,36,51.1,32.9,45.4,32.9z"/>
		</g>
	</g>
	<g>
		<g>
			<path class="st1" d="M68.8,58.3c-6.5,0-10.4-3.6-10.4-9.6v-7.5c0-5.9,4-9.6,10.4-9.6s10.4,3.7,10.4,9.6v7.5
				C79.2,54.7,75.3,58.3,68.8,58.3z M68.8,32.9c-5.8,0-9.2,3.1-9.2,8.3v7.5c0,5.3,3.4,8.4,9.2,8.4c5.8,0,9.2-3.1,9.2-8.4v-7.5
				C78,36,74.5,32.9,68.8,32.9z"/>
		</g>
	</g>
	<g>
		<g>
			<g>
				<path class="st1" d="M30,57.3H14.5c-1.4,0-2.1-0.7-2.1-2.1v-2.8c0-5.2,4.1-7,7.1-8.2l0.3-0.1c2.9-1.2,4.7-2.1,4.7-4.1
					c0-1-0.6-1.7-1.7-1.7c-1.2,0-1.8,0.5-2.4,1.9c-0.5,1.2-1.1,1.8-2.6,1.3l-3.7-1.3c-0.5-0.2-1.1-0.5-1.4-1.1
					c-0.2-0.4-0.2-1,0.1-1.6c1.7-4.2,5.1-6.4,10.2-6.4c5.7,0,9.7,3.5,9.7,8.6c0,5.7-2.9,7.9-8.2,9.7c-0.5,0.2-1,0.3-1.5,0.4
					c-0.4,0.1-0.8,0.2-1.2,0.3h8.3c1.5,0,2.1,0.6,2.1,2.1v2.9C32.1,56.6,31.5,57.3,30,57.3z M22.7,37.1c1.7,0,3,1.2,3,2.9
					c0,2.9-2.8,4.1-5.4,5.3l-0.2,0.1c-3.6,1.5-6.3,3-6.3,7.1v2.8c0,0.7,0.1,0.8,0.9,0.8h15.5c0.8,0,0.9-0.1,0.9-0.8v-2.9
					c0-0.8-0.1-0.9-0.9-0.9h-9.9c-0.3,0-0.6-0.3-0.6-0.6v-0.2c0-1.1,1.4-1.5,3-2c0.5-0.1,1-0.3,1.4-0.4c5-1.8,7.4-3.5,7.4-8.6
					c0-4.4-3.4-7.4-8.5-7.4c-4.6,0-7.5,1.8-9,5.6c-0.1,0.3-0.2,0.5-0.1,0.6c0,0.1,0.2,0.2,0.7,0.4l3.6,1.3c0.6,0.2,0.7,0.2,1.1-0.6
					C20,37.9,21.1,37.1,22.7,37.1z"/>
			</g>
		</g>
	</g>
</g>
<g id="Layer_4">
</g>
</svg>
