<?xml version="1.0" encoding="utf-8"?>
<!-- Generator: Adobe Illustrator 22.0.1, SVG Export Plug-In . SVG Version: 6.00 Build 0)  -->
<svg version="1.1" id="Layer_1" xmlns="http://www.w3.org/2000/svg" xmlns:xlink="http://www.w3.org/1999/xlink" x="0px" y="0px"
	 viewBox="0 0 90.6 90.6" style="enable-background:new 0 0 90.6 90.6;" xml:space="preserve">
<metadata><?xpacket begin="﻿" id="W5M0MpCehiHzreSzNTczkc9d"?>
<x:xmpmeta xmlns:x="adobe:ns:meta/" x:xmptk="Adobe XMP Core 5.6-c143 79.161210, 2017/08/11-10:28:36        ">
   <rdf:RDF xmlns:rdf="http://www.w3.org/1999/02/22-rdf-syntax-ns#">
      <rdf:Description rdf:about=""/>
   </rdf:RDF>
</x:xmpmeta>
                                                                                                    
                                                                                                    
                                                                                                    
                                                                                                    
                                                                                                    
                                                                                                    
                                                                                                    
                                                                                                    
                                                                                                    
                                                                                                    
                                                                                                    
                                                                                                    
                                                                                                    
                                                                                                    
                                                                                                    
                                                                                                    
                                                                                                    
                                                                                                    
                                                                                                    
                                                                                                    
                           
<?xpacket end="w"?></metadata>
<style type="text/css">
	.st0{fill:#048B92;}
</style>
<g>
	<g>
		<path class="st0" d="M45.3,88.7C21.4,88.7,2,69.3,2,45.4S21.4,2.1,45.3,2.1s43.3,19.4,43.3,43.3S69.2,88.7,45.3,88.7z M45.3,4
			C22.4,4,3.8,22.6,3.8,45.5S22.4,87,45.3,87s41.5-18.6,41.5-41.5S68.2,4,45.3,4z"/>
	</g>
</g>
<g id="Confetti">
</g>
<g id="Sparkler">
</g>
<g>
	<g>
		<g>
			<g>
				<path class="st0" d="M51.3,44.4c0-0.7-0.5-1.2-1.2-1.2h-3v-2.3c0-0.9-0.7-1.7-1.6-1.7h-0.4c-0.1,0-0.2,0-0.3,0.1
					s-0.1,0.2-0.1,0.3v1.9l-1.5,2.6h-2.3l0,0c-0.1,0-0.2,0-0.2,0.1c0,0-0.1,0.1-0.1,0.2c0,0,0,0.1,0,0.2v6.1c0,0.2,0.1,0.3,0.3,0.3
					l0,0l0,0h2.5c0.1,0,0.2,0,0.3-0.1l0,0c0.2,0.1,0.4,0.1,0.6,0.1h4.6c0.7,0,1.2-0.6,1.2-1.2c0-0.2,0-0.4-0.1-0.5
					c0.5-0.1,1-0.6,1-1.2c0-0.2-0.1-0.5-0.2-0.7c0.4-0.2,0.6-0.6,0.6-1.1c0-0.3-0.1-0.6-0.4-0.9C51.2,45.1,51.3,44.8,51.3,44.4z
					 M43.1,50.2h-1.7v-5.4h1.7V50.2z M49.7,45.7h0.4c0.3,0,0.5,0.2,0.5,0.5s-0.2,0.5-0.5,0.5h-0.6c-0.2,0-0.4,0.2-0.4,0.4
					s0.2,0.4,0.4,0.4h0.2l0,0l0,0c0.3,0,0.4,0.2,0.4,0.5s-0.2,0.5-0.5,0.5h-0.8c-0.2,0-0.4,0.2-0.4,0.4s0.2,0.4,0.4,0.4
					c0.3,0,0.5,0.2,0.5,0.5s-0.2,0.5-0.5,0.5h-4.6c-0.3,0-0.5-0.2-0.5-0.5v-5.1l1.6-2.7c0-0.1,0.1-0.1,0.1-0.2v-1.6h0.1
					c0.5,0,0.9,0.4,0.9,0.9v2.6c0,0.1,0,0.2,0.1,0.3s0.2,0.1,0.3,0.1l0,0h3.4c0.3,0,0.5,0.2,0.5,0.5s-0.2,0.5-0.5,0.5h-0.4l0,0
					c-0.1,0-0.2,0-0.2,0.1c-0.1,0.1-0.1,0.2-0.1,0.3C49.4,45.5,49.5,45.7,49.7,45.7z"/>
			</g>
		</g>
		<g>
			<g>
				<circle class="st0" cx="42.2" cy="49.2" r="0.4"/>
			</g>
		</g>
	</g>
	<g>
		<g>
			<g>
				<path class="st0" d="M74.7,44.4c0-0.7-0.5-1.2-1.2-1.2h-3v-2.3c0-0.9-0.7-1.7-1.6-1.7h-0.4c-0.1,0-0.2,0-0.3,0.1
					s-0.1,0.2-0.1,0.3v1.9l-1.5,2.6h-2.3l0,0c-0.1,0-0.2,0-0.2,0.1c0,0-0.1,0.1-0.1,0.2c0,0,0,0.1,0,0.2v6.1c0,0.2,0.1,0.3,0.3,0.3
					l0,0l0,0h2.5c0.1,0,0.2,0,0.3-0.1l0,0c0.2,0.1,0.4,0.1,0.6,0.1h4.6c0.7,0,1.2-0.6,1.2-1.2c0-0.2,0-0.4-0.1-0.5
					c0.5-0.1,1-0.6,1-1.2c0-0.2-0.1-0.5-0.2-0.7c0.4-0.2,0.6-0.6,0.6-1.1c0-0.3-0.1-0.6-0.4-0.9C74.6,45.1,74.7,44.8,74.7,44.4z
					 M66.5,50.2h-1.7v-5.4h1.7V50.2z M73.1,45.7h0.4c0.3,0,0.5,0.2,0.5,0.5s-0.2,0.5-0.5,0.5h-0.6c-0.2,0-0.4,0.2-0.4,0.4
					s0.2,0.4,0.4,0.4h0.2l0,0l0,0c0.3,0,0.4,0.2,0.4,0.5s-0.2,0.5-0.5,0.5h-0.8c-0.2,0-0.4,0.2-0.4,0.4s0.2,0.4,0.4,0.4
					c0.3,0,0.5,0.2,0.5,0.5s-0.2,0.5-0.5,0.5h-4.6c-0.3,0-0.5-0.2-0.5-0.5v-5.1l1.6-2.7c0-0.1,0.1-0.1,0.1-0.2v-1.6h0.1
					c0.5,0,0.9,0.4,0.9,0.9v2.6c0,0.1,0,0.2,0.1,0.3s0.2,0.1,0.3,0.1l0,0h3.4c0.3,0,0.5,0.2,0.5,0.5s-0.2,0.5-0.5,0.5h-0.4l0,0
					c-0.1,0-0.2,0-0.2,0.1c-0.1,0.1-0.1,0.2-0.1,0.3C72.8,45.5,72.9,45.7,73.1,45.7z"/>
			</g>
		</g>
		<g>
			<g>
				<circle class="st0" cx="65.6" cy="49.2" r="0.4"/>
			</g>
		</g>
	</g>
	<g>
		<g>
			<path class="st0" d="M45.6,59.1c-6.5,0-10.4-3.6-10.4-9.6V42c0-5.9,4-9.6,10.4-9.6S56,36.1,56,42v7.5
				C56,55.5,52.1,59.1,45.6,59.1z M45.6,33.6c-5.8,0-9.2,3.1-9.2,8.3v7.5c0,5.3,3.4,8.4,9.2,8.4s9.2-3.1,9.2-8.4v-7.5
				C54.8,36.8,51.3,33.6,45.6,33.6z"/>
		</g>
	</g>
	<g>
		<g>
			<path class="st0" d="M69,59.1c-6.5,0-10.4-3.6-10.4-9.6V42c0-5.9,4-9.6,10.4-9.6s10.4,3.7,10.4,9.6v7.5
				C79.4,55.5,75.5,59.1,69,59.1z M69,33.6c-5.8,0-9.2,3.1-9.2,8.3v7.5c0,5.3,3.4,8.4,9.2,8.4s9.2-3.1,9.2-8.4v-7.5
				C78.2,36.8,74.7,33.6,69,33.6z"/>
		</g>
	</g>
	<g>
		<g>
			<path class="st0" d="M30.2,58.1H14.7c-1.4,0-2.1-0.7-2.1-2.1v-2.8c0-5.2,4.1-7,7.1-8.2l0.3-0.1c2.9-1.2,4.7-2.1,4.7-4.1
				c0-1-0.6-1.7-1.7-1.7c-1.2,0-1.8,0.5-2.4,1.9c-0.5,1.2-1.1,1.8-2.6,1.3L14.3,41c-0.5-0.2-1.1-0.5-1.4-1.1c-0.2-0.4-0.2-1,0.1-1.6
				c1.7-4.2,5.1-6.4,10.2-6.4c5.7,0,9.7,3.5,9.7,8.6c0,5.7-2.9,7.9-8.2,9.7c-0.5,0.2-1,0.3-1.5,0.4c-0.4,0.1-0.8,0.2-1.2,0.3h8.3
				c1.5,0,2.1,0.6,2.1,2.1v2.9C32.3,57.4,31.7,58.1,30.2,58.1z M22.9,37.9c1.7,0,3,1.2,3,2.9c0,2.9-2.8,4.1-5.4,5.3l-0.2,0.1
				c-3.6,1.5-6.3,3-6.3,7.1v2.8c0,0.7,0.1,0.8,0.9,0.8h15.5c0.8,0,0.9-0.1,0.9-0.8v-2.9c0-0.8-0.1-0.9-0.9-0.9h-9.9
				c-0.3,0-0.6-0.3-0.6-0.6v-0.3c0-1.1,1.4-1.5,3-2c0.5-0.1,1-0.3,1.4-0.4c5-1.8,7.4-3.5,7.4-8.6c0-4.4-3.4-7.4-8.5-7.4
				c-4.6,0-7.5,1.8-9,5.6c-0.1,0.3-0.2,0.5-0.1,0.6c0,0.1,0.2,0.2,0.7,0.4l3.6,1.3c0.6,0.2,0.7,0.2,1.1-0.6
				C20.2,38.7,21.3,37.9,22.9,37.9z"/>
		</g>
	</g>
</g>
</svg>
