<?xml version="1.0" encoding="utf-8"?>
<!-- Generator: Adobe Illustrator 22.0.1, SVG Export Plug-In . SVG Version: 6.00 Build 0)  -->
<svg version="1.1" id="Layer_1" xmlns="http://www.w3.org/2000/svg" xmlns:xlink="http://www.w3.org/1999/xlink" x="0px" y="0px"
	 viewBox="0 0 89.9 90" style="enable-background:new 0 0 89.9 90;" xml:space="preserve">
<metadata><?xpacket begin="﻿" id="W5M0MpCehiHzreSzNTczkc9d"?>
<x:xmpmeta xmlns:x="adobe:ns:meta/" x:xmptk="Adobe XMP Core 5.6-c143 79.161210, 2017/08/11-10:28:36        ">
   <rdf:RDF xmlns:rdf="http://www.w3.org/1999/02/22-rdf-syntax-ns#">
      <rdf:Description rdf:about=""/>
   </rdf:RDF>
</x:xmpmeta>
                                                                                                    
                                                                                                    
                                                                                                    
                                                                                                    
                                                                                                    
                                                                                                    
                                                                                                    
                                                                                                    
                                                                                                    
                                                                                                    
                                                                                                    
                                                                                                    
                                                                                                    
                                                                                                    
                                                                                                    
                                                                                                    
                                                                                                    
                                                                                                    
                                                                                                    
                                                                                                    
                           
<?xpacket end="w"?></metadata>
<style type="text/css">
	.st0{fill:#008A91;}
	.st1{fill:#FFFFFF;}
</style>
<g>
	<g>
		<g>
			<path class="st0" d="M44.6,87.7c-23.9,0-43.3-19.4-43.3-43.3S20.7,1.1,44.6,1.1s43.3,19.4,43.3,43.3S68.4,87.7,44.6,87.7z"/>
		</g>
	</g>
	<g>
		<g>
			<path class="st1" d="M59.2,59.8c-7.8,0-12.6-4.4-12.6-11.6V37.6c0-7.1,4.8-11.5,12.6-11.5c7.7,0,12.5,4.4,12.5,11.5v10.6
				C71.7,55.5,67,59.8,59.2,59.8z M59.2,27.1c-7.3,0-11.6,3.9-11.6,10.5v10.6c0,6.6,4.3,10.6,11.6,10.6c7.2,0,11.5-4,11.5-10.6V37.6
				C70.7,31,66.4,27.1,59.2,27.1z"/>
		</g>
		<g>
			<g>
				<circle class="st1" cx="53.7" cy="47.4" r="0.4"/>
			</g>
		</g>
		<g>
			<g>
				<path class="st1" d="M65.9,42.2c0.4-0.3,0.6-0.7,0.6-1.2c0-0.8-0.7-1.5-1.5-1.5h-4.4v-3.2c0-1.1-0.9-2-2-2l-0.6,0
					c-0.1,0-0.2,0-0.2,0.1c-0.1,0.1-0.1,0.1-0.1,0.2v2.6l-2.2,3.6h-3.3c-0.2,0-0.3,0.1-0.3,0.3c0,0.2,0.1,0.3,0.3,0.3h3.1v7.6h-3.1
					c-0.2,0-0.3,0.1-0.3,0.3c0,0.2,0.1,0.3,0.3,0.3h3.4c0.1,0,0.2,0,0.2-0.1c0.1-0.1,0.1-0.1,0.1-0.2v0c0.2,0.2,0.5,0.3,0.9,0.3h6.4
					c0.8,0,1.5-0.7,1.5-1.5c0-0.3-0.1-0.6-0.3-0.9h0c0.8,0,1.5-0.7,1.5-1.5c0-0.4-0.1-0.7-0.4-1c0.6-0.2,1-0.7,1-1.4
					C66.4,42.8,66.2,42.4,65.9,42.2z M65,44.2h-0.9c-0.2,0-0.3,0.1-0.3,0.3c0,0.2,0.1,0.3,0.3,0.3h0.3c0,0,0,0,0,0v0h0
					c0.5,0,0.9,0.4,0.9,0.9c0,0.5-0.4,0.9-0.9,0.9h-1.2c-0.2,0-0.3,0.1-0.3,0.3c0,0.2,0.1,0.3,0.3,0.3h0c0.5,0,0.9,0.4,0.9,0.9
					c0,0.5-0.4,0.9-0.9,0.9h-6.4c-0.5,0-0.9-0.4-0.9-0.9v-6.9l2.3-3.7c0,0,0-0.1,0-0.2v-2.3h0.3c0.8,0,1.5,0.7,1.5,1.5v3.5
					c0,0.1,0,0.2,0.1,0.2c0.1,0.1,0.1,0.1,0.2,0.1H65c0.5,0,0.9,0.4,0.9,0.9c0,0.5-0.4,0.9-0.9,0.9h-0.6c-0.2,0-0.3,0.1-0.3,0.3
					c0,0.2,0.1,0.3,0.3,0.3H65c0.5,0,0.9,0.4,0.9,0.9C65.9,43.8,65.5,44.2,65,44.2z"/>
			</g>
		</g>
		<g>
			<path class="st1" d="M52.1,49.5c-0.1,0-0.2-0.1-0.2-0.2V41c0-0.1,0.1-0.2,0.2-0.2c0.1,0,0.2,0.1,0.2,0.2v8.2
				C52.3,49.4,52.2,49.5,52.1,49.5z"/>
		</g>
	</g>
	<g>
		<g>
			<g>
				<path class="st1" d="M40,59.1H20.8c-1.6,0-2.3-0.7-2.3-2.3v-3.4c0-6.6,5.1-8.8,8.8-10.3l0.4-0.2c3.6-1.4,6.7-2.6,6.7-6
					c0-2-1.4-3.3-3.5-3.3c-2.2,0-3.4,0.8-4.4,2.9c-0.7,1.4-1.3,2-2.9,1.4l-3.4-1.2c-0.8-0.3-1.3-0.6-1.5-1.1
					c-0.2-0.5-0.2-1.1,0.1-1.8c2.1-5.1,6.2-7.7,12.4-7.7c8,0,11.7,5.5,11.7,10.6c0,7.2-3.7,9.8-12.1,13.1c-0.3,0.1-0.7,0.2-1,0.4
					c-1.1,0.4-2.5,0.8-2.7,1.5H40c1.6,0,2.3,0.7,2.3,2.3v2.9C42.3,58.5,41.6,59.1,40,59.1z M30.9,32.7c2.6,0,4.5,1.8,4.5,4.3
					c0,4-3.6,5.4-7.3,6.9l-0.4,0.2c-4.5,1.9-8.2,3.9-8.2,9.4v3.4c0,1.1,0.2,1.3,1.3,1.3H40c1.1,0,1.3-0.2,1.3-1.3v-2.9
					c0-1.1-0.2-1.3-1.3-1.3H26v-0.9c0-1.4,1.8-2,3.4-2.6c0.3-0.1,0.7-0.2,1-0.3c9-3.5,11.5-6.1,11.5-12.2c0-4.6-3.3-9.6-10.7-9.6
					c-5.8,0-9.5,2.3-11.4,7.1c-0.2,0.5-0.2,0.8-0.1,1c0.1,0.2,0.4,0.4,0.9,0.6l3.4,1.2c0.9,0.3,1.1,0.3,1.7-0.9
					C26.7,33.7,28.4,32.7,30.9,32.7z"/>
			</g>
		</g>
	</g>
</g>
<g id="Confetti">
</g>
<g id="Sparkler">
</g>
</svg>
