<?xml version="1.0" encoding="utf-8"?>
<!-- Generator: Adobe Illustrator 22.0.1, SVG Export Plug-In . SVG Version: 6.00 Build 0)  -->
<svg version="1.1" id="Layer_1" xmlns="http://www.w3.org/2000/svg" xmlns:xlink="http://www.w3.org/1999/xlink" x="0px" y="0px"
	 viewBox="0 0 89.9 90" style="enable-background:new 0 0 89.9 90;" xml:space="preserve">
<metadata><?xpacket begin="﻿" id="W5M0MpCehiHzreSzNTczkc9d"?>
<x:xmpmeta xmlns:x="adobe:ns:meta/" x:xmptk="Adobe XMP Core 5.6-c143 79.161210, 2017/08/11-10:28:36        ">
   <rdf:RDF xmlns:rdf="http://www.w3.org/1999/02/22-rdf-syntax-ns#">
      <rdf:Description rdf:about=""/>
   </rdf:RDF>
</x:xmpmeta>
                                                                                                    
                                                                                                    
                                                                                                    
                                                                                                    
                                                                                                    
                                                                                                    
                                                                                                    
                                                                                                    
                                                                                                    
                                                                                                    
                                                                                                    
                                                                                                    
                                                                                                    
                                                                                                    
                                                                                                    
                                                                                                    
                                                                                                    
                                                                                                    
                                                                                                    
                                                                                                    
                           
<?xpacket end="w"?></metadata>
<style type="text/css">
	.st0{fill:#008A91;}
</style>
<g>
	<g>
		<g>
			<path class="st0" d="M44.8,87.8C21,87.8,1.5,68.4,1.5,44.5S21,1.3,44.8,1.3s43.3,19.4,43.3,43.3S68.7,87.8,44.8,87.8z M44.8,3.1
				C22,3.1,3.4,21.7,3.4,44.5S22,86,44.8,86s41.5-18.6,41.5-41.5S67.7,3.1,44.8,3.1z"/>
		</g>
	</g>
	<g>
		<path class="st0" d="M40.2,59.3H21.1c-1.6,0-2.3-0.7-2.3-2.3v-3.4c0-6.6,5.1-8.8,8.8-10.3l0.4-0.2c3.6-1.4,6.7-2.6,6.7-6
			c0-2-1.4-3.3-3.5-3.3c-2.2,0-3.4,0.8-4.4,2.9c-0.7,1.4-1.3,2-2.9,1.4l-3.4-1.2c-0.8-0.3-1.3-0.6-1.5-1.1c-0.2-0.5-0.2-1.1,0.1-1.8
			c2.1-5.1,6.2-7.7,12.4-7.7c8,0,11.7,5.5,11.7,10.6c0,7.2-3.7,9.8-12.1,13.1c-0.3,0.1-0.7,0.2-1,0.4c-1.1,0.4-2.5,0.8-2.7,1.5h12.9
			c1.6,0,2.3,0.7,2.3,2.3V57C42.5,58.6,41.9,59.3,40.2,59.3z M31.2,32.8c2.6,0,4.5,1.8,4.5,4.3c0,4-3.6,5.4-7.3,6.9L28,44.2
			c-4.5,1.9-8.2,3.9-8.2,9.4V57c0,1.1,0.2,1.3,1.3,1.3h19.2c1.1,0,1.3-0.2,1.3-1.3v-2.9c0-1.1-0.2-1.3-1.3-1.3H26.3v-0.9
			c0-1.4,1.8-2,3.4-2.6c0.3-0.1,0.7-0.2,1-0.3c9-3.5,11.5-6.1,11.5-12.2c0-4.6-3.3-9.6-10.7-9.6c-5.8,0-9.5,2.3-11.4,7.1
			c-0.2,0.5-0.2,0.8-0.1,1c0.1,0.2,0.4,0.4,0.9,0.6l3.4,1.2c0.9,0.3,1.1,0.3,1.7-0.9C27,33.9,28.6,32.8,31.2,32.8z"/>
	</g>
	<g>
		<g>
			<path class="st0" d="M59.4,60c-7.8,0-12.6-4.4-12.6-11.6V37.7c0-7.1,4.8-11.5,12.6-11.5c7.7,0,12.5,4.4,12.5,11.5v10.6
				C71.9,55.6,67.2,60,59.4,60z M59.4,27.2c-7.3,0-11.6,3.9-11.6,10.5v10.6C47.7,55,52.1,59,59.4,59c7.2,0,11.5-4,11.5-10.6V37.7
				C70.9,31.2,66.6,27.2,59.4,27.2z"/>
		</g>
		<g>
			<g>
				<circle class="st0" cx="53.9" cy="47.5" r="0.4"/>
			</g>
		</g>
		<g>
			<g>
				<path class="st0" d="M66,42.3c0.4-0.3,0.6-0.7,0.6-1.2c0-0.8-0.7-1.5-1.5-1.5h-4.4v-3.2c0-1.1-0.9-2-2-2l-0.6,0
					c-0.1,0-0.2,0-0.2,0.1c-0.1,0.1-0.1,0.1-0.1,0.2v2.6l-2.2,3.6h-3.3c-0.2,0-0.3,0.1-0.3,0.3c0,0.2,0.1,0.3,0.3,0.3h3.1v7.6h-3.1
					c-0.2,0-0.3,0.1-0.3,0.3c0,0.2,0.1,0.3,0.3,0.3h3.4c0.1,0,0.2,0,0.2-0.1c0.1-0.1,0.1-0.1,0.1-0.2v0c0.2,0.2,0.5,0.3,0.9,0.3h6.4
					c0.8,0,1.5-0.7,1.5-1.5c0-0.3-0.1-0.6-0.3-0.9h0c0.8,0,1.5-0.7,1.5-1.5c0-0.4-0.1-0.7-0.4-1c0.6-0.2,1-0.7,1-1.4
					C66.6,43,66.4,42.6,66,42.3z M65.1,44.4h-0.9c-0.2,0-0.3,0.1-0.3,0.3c0,0.2,0.1,0.3,0.3,0.3h0.3c0,0,0,0,0,0v0h0
					c0.5,0,0.9,0.4,0.9,0.9c0,0.5-0.4,0.9-0.9,0.9h-1.2c-0.2,0-0.3,0.1-0.3,0.3c0,0.2,0.1,0.3,0.3,0.3h0c0.5,0,0.9,0.4,0.9,0.9
					c0,0.5-0.4,0.9-0.9,0.9H57c-0.5,0-0.9-0.4-0.9-0.9v-6.9l2.3-3.7c0,0,0-0.1,0-0.2V35h0.3c0.8,0,1.5,0.7,1.5,1.5V40
					c0,0.1,0,0.2,0.1,0.2c0.1,0.1,0.1,0.1,0.2,0.1h4.7c0.5,0,0.9,0.4,0.9,0.9c0,0.5-0.4,0.9-0.9,0.9h-0.6c-0.2,0-0.3,0.1-0.3,0.3
					c0,0.2,0.1,0.3,0.3,0.3h0.6c0.5,0,0.9,0.4,0.9,0.9C66,44,65.6,44.4,65.1,44.4z"/>
			</g>
		</g>
		<g>
			<path class="st0" d="M52.3,49.6c-0.1,0-0.2-0.1-0.2-0.2v-8.2c0-0.1,0.1-0.2,0.2-0.2s0.2,0.1,0.2,0.2v8.2
				C52.5,49.5,52.4,49.6,52.3,49.6z"/>
		</g>
	</g>
</g>
<g id="Confetti">
</g>
<g id="Sparkler">
</g>
<g id="Layer_4">
</g>
</svg>
