<?xml version="1.0" encoding="utf-8"?>
<!-- Generator: Adobe Illustrator 22.0.1, SVG Export Plug-In . SVG Version: 6.00 Build 0)  -->
<svg version="1.1" id="Layer_1" xmlns="http://www.w3.org/2000/svg" xmlns:xlink="http://www.w3.org/1999/xlink" x="0px" y="0px"
	 viewBox="0 0 89.9 90" style="enable-background:new 0 0 89.9 90;" xml:space="preserve">
<metadata><?xpacket begin="﻿" id="W5M0MpCehiHzreSzNTczkc9d"?>
<x:xmpmeta xmlns:x="adobe:ns:meta/" x:xmptk="Adobe XMP Core 5.6-c143 79.161210, 2017/08/11-10:28:36        ">
   <rdf:RDF xmlns:rdf="http://www.w3.org/1999/02/22-rdf-syntax-ns#">
      <rdf:Description rdf:about=""/>
   </rdf:RDF>
</x:xmpmeta>
                                                                                                    
                                                                                                    
                                                                                                    
                                                                                                    
                                                                                                    
                                                                                                    
                                                                                                    
                                                                                                    
                                                                                                    
                                                                                                    
                                                                                                    
                                                                                                    
                                                                                                    
                                                                                                    
                                                                                                    
                                                                                                    
                                                                                                    
                                                                                                    
                                                                                                    
                                                                                                    
                           
<?xpacket end="w"?></metadata>
<style type="text/css">
	.st0{fill:#008A91;}
	.st1{fill:#FFFFFF;}
</style>
<g>
	<g>
		<g>
			<path class="st0" d="M44.6,87.8c-23.9,0-43.3-19.4-43.3-43.3S20.8,1.3,44.6,1.3s43.3,19.4,43.3,43.3S68.5,87.8,44.6,87.8z"/>
		</g>
	</g>
	<g>
		<g>
			<path class="st1" d="M59.6,60.3c-7.8,0-12.6-4.4-12.6-11.6V38.1c0-7.1,4.8-11.5,12.6-11.5c7.7,0,12.5,4.4,12.5,11.5v10.6
				C72.1,55.9,67.5,60.3,59.6,60.3z M59.6,27.5c-7.3,0-11.6,3.9-11.6,10.5v10.6c0,6.6,4.3,10.6,11.6,10.6c7.2,0,11.5-4,11.5-10.6
				V38.1C71.1,31.5,66.8,27.5,59.6,27.5z"/>
		</g>
		<g>
			<g>
				<circle class="st1" cx="54.1" cy="47.9" r="0.4"/>
			</g>
		</g>
		<g>
			<g>
				<path class="st1" d="M66.3,42.6c0.4-0.3,0.6-0.7,0.6-1.2c0-0.8-0.7-1.5-1.5-1.5H61v-3.2c0-1.1-0.9-2-2-2l-0.6,0
					c-0.1,0-0.2,0-0.2,0.1c-0.1,0.1-0.1,0.1-0.1,0.2v2.6l-2.2,3.6h-3.3c-0.2,0-0.3,0.1-0.3,0.3c0,0.2,0.1,0.3,0.3,0.3h3.1v7.6h-3.1
					c-0.2,0-0.3,0.1-0.3,0.3c0,0.2,0.1,0.3,0.3,0.3H56c0.1,0,0.2,0,0.2-0.1c0.1-0.1,0.1-0.1,0.1-0.2v0c0.2,0.2,0.5,0.3,0.9,0.3h6.4
					c0.8,0,1.5-0.7,1.5-1.5c0-0.3-0.1-0.6-0.3-0.9h0c0.8,0,1.5-0.7,1.5-1.5c0-0.4-0.1-0.7-0.4-1c0.6-0.2,1-0.7,1-1.4
					C66.9,43.3,66.6,42.9,66.3,42.6z M65.4,44.7h-0.9c-0.2,0-0.3,0.1-0.3,0.3c0,0.2,0.1,0.3,0.3,0.3h0.3c0,0,0,0,0,0v0h0
					c0.5,0,0.9,0.4,0.9,0.9c0,0.5-0.4,0.9-0.9,0.9h-1.2c-0.2,0-0.3,0.1-0.3,0.3c0,0.2,0.1,0.3,0.3,0.3h0c0.5,0,0.9,0.4,0.9,0.9
					c0,0.5-0.4,0.9-0.9,0.9h-6.4c-0.5,0-0.9-0.4-0.9-0.9v-6.9l2.3-3.7c0,0,0-0.1,0-0.2v-2.3H59c0.8,0,1.5,0.7,1.5,1.5v3.5
					c0,0.1,0,0.2,0.1,0.2c0.1,0.1,0.1,0.1,0.2,0.1h4.7c0.5,0,0.9,0.4,0.9,0.9c0,0.5-0.4,0.9-0.9,0.9h-0.6c-0.2,0-0.3,0.1-0.3,0.3
					c0,0.2,0.1,0.3,0.3,0.3h0.6c0.5,0,0.9,0.4,0.9,0.9C66.3,44.3,65.9,44.7,65.4,44.7z"/>
			</g>
		</g>
		<g>
			<path class="st1" d="M52.5,49.9c-0.1,0-0.2-0.1-0.2-0.2v-8.2c0-0.1,0.1-0.2,0.2-0.2s0.2,0.1,0.2,0.2v8.2
				C52.8,49.8,52.7,49.9,52.5,49.9z"/>
		</g>
	</g>
	<g>
		<g>
			<path class="st1" d="M31.6,60.2c-6.8,0-10.9-2.4-12.9-7.6c-0.5-1.5-0.1-2.4,1.4-2.9l3.4-1.2c1.5-0.5,2.3-0.2,2.9,1.4
				c0.8,2,2.2,2.8,4.9,2.8c2.3,0,3.6-1.3,3.6-3.7c0-2-1.4-3.3-3.7-3.3h-9.2c-0.9,0-1.5-0.2-1.9-0.6c-0.5-0.6-0.5-1.4-0.5-2l1.3-12.9
				c0.2-2.2,1.1-3,3.4-3H40c1.6,0,2.3,0.7,2.3,2.3v2.9c0,1.6-0.7,2.3-2.3,2.3H28.8l-0.3,3.6H32c8.6,0,11.6,5.6,11.6,10.8
				C43.6,55.7,38.6,60.2,31.6,60.2z M24.7,49.2c-0.2,0-0.4,0.1-0.8,0.2l-3.4,1.2c-1,0.4-1.1,0.7-0.8,1.7c1.8,4.7,5.5,7,11.9,7
				c7.6,0,11-5.1,11-10.1c0-6.1-4-9.8-10.6-9.8h-4.6l0.5-5.6H40c1.1,0,1.3-0.2,1.3-1.3v-2.9c0-1.1-0.2-1.3-1.3-1.3H24.5
				c-1.7,0-2.2,0.4-2.4,2.1l-1.3,12.9c-0.1,0.6,0,1,0.2,1.2c0.2,0.2,0.6,0.3,1.2,0.3h9.2c2.8,0,4.7,1.7,4.7,4.3
				c0,2.9-1.8,4.7-4.6,4.7c-3.1,0-4.9-1.1-5.9-3.5C25.3,49.5,25.1,49.2,24.7,49.2z"/>
		</g>
	</g>
</g>
<g id="Confetti">
</g>
<g id="Sparkler">
</g>
</svg>
